<svg aria-hidden="true" focusable="false" data-prefix="fad" data-icon="archive" role="img" xmlns="http://www.w3.org/2000/svg" viewBox="0 0 512 512" class="svg-inline--fa fa-archive fa-w-16 fa-3x"><g class="fa-group"><path fill="currentColor" d="M32 160v288a32 32 0 0 0 32 32h384a32 32 0 0 0 32-32V160zm288 84a12 12 0 0 1-12 12H204a12 12 0 0 1-12-12v-8a12 12 0 0 1 12-12h104a12 12 0 0 1 12 12z" class="fa-secondary"></path><path fill="currentColor" d="M512 64v48a16 16 0 0 1-16 16H16a16 16 0 0 1-16-16V64a32 32 0 0 1 32-32h448a32 32 0 0 1 32 32z" class="fa-primary"></path></g></svg>