<svg aria-hidden="true" focusable="false" data-prefix="fad" data-icon="folder-tree" role="img" xmlns="http://www.w3.org/2000/svg" viewBox="0 0 576 512" class="svg-inline--fa fa-folder-tree fa-w-18 fa-3x"><g class="fa-group"><path fill="currentColor" d="M0 416V16A16 16 0 0 1 16 0h32a16 16 0 0 1 16 16v80h192v64H64v224h192v64H32a32 32 0 0 1-32-32z" class="fa-secondary"></path><path fill="currentColor" d="M544 320H432l-32-32h-80a32 32 0 0 0-32 32v160a32 32 0 0 0 32 32h224a32 32 0 0 0 32-32V352a32 32 0 0 0-32-32zm0-288H432L400 0h-80a32 32 0 0 0-32 32v160a32 32 0 0 0 32 32h224a32 32 0 0 0 32-32V64a32 32 0 0 0-32-32z" class="fa-primary"></path></g></svg>