<svg aria-hidden="true" focusable="false" data-prefix="fad" data-icon="door-open" role="img" xmlns="http://www.w3.org/2000/svg" viewBox="0 0 640 512" class="svg-inline--fa fa-door-open fa-w-20 fa-3x"><g class="fa-group"><path fill="currentColor" d="M0 464v32a16 16 0 0 0 16 16h336v-64H16a16 16 0 0 0-16 16zm624-16h-80V113.45C544 86.19 522.47 64 496 64H384v64h96v384h144a16 16 0 0 0 16-16v-32a16 16 0 0 0-16-16z" class="fa-secondary"></path><path fill="currentColor" d="M312.24 1l-192 49.74C106 54.44 96 67.7 96 82.92V448h256V33.18C352 11.6 332.44-4.23 312.24 1zM264 288c-13.25 0-24-14.33-24-32s10.75-32 24-32 24 14.33 24 32-10.75 32-24 32z" class="fa-primary"></path></g></svg>