<svg aria-hidden="true" focusable="false" data-prefix="fad" data-icon="money-check" role="img" xmlns="http://www.w3.org/2000/svg" viewBox="0 0 640 512" class="svg-inline--fa fa-money-check fa-w-20 fa-3x"><g class="fa-group"><path fill="currentColor" d="M0 448a32 32 0 0 0 32 32h576a32 32 0 0 0 32-32V128H0zm448-208a16 16 0 0 1 16-16h96a16 16 0 0 1 16 16v32a16 16 0 0 1-16 16h-96a16 16 0 0 1-16-16zm0 120a8 8 0 0 1 8-8h112a8 8 0 0 1 8 8v16a8 8 0 0 1-8 8H456a8 8 0 0 1-8-8zM64 264a8 8 0 0 1 8-8h304a8 8 0 0 1 8 8v16a8 8 0 0 1-8 8H72a8 8 0 0 1-8-8zm0 96a8 8 0 0 1 8-8h176a8 8 0 0 1 8 8v16a8 8 0 0 1-8 8H72a8 8 0 0 1-8-8z" class="fa-secondary"></path><path fill="currentColor" d="M568 352H456a8 8 0 0 0-8 8v16a8 8 0 0 0 8 8h112a8 8 0 0 0 8-8v-16a8 8 0 0 0-8-8zm-192-96H72a8 8 0 0 0-8 8v16a8 8 0 0 0 8 8h304a8 8 0 0 0 8-8v-16a8 8 0 0 0-8-8zm-128 96H72a8 8 0 0 0-8 8v16a8 8 0 0 0 8 8h176a8 8 0 0 0 8-8v-16a8 8 0 0 0-8-8zM624 32H16A16 16 0 0 0 0 48v48h640V48a16 16 0 0 0-16-16z" class="fa-primary"></path></g></svg>