<svg xmlns="http://www.w3.org/2000/svg" viewBox="591.2 326.9 18.4 15.4">
  <defs>
    <style>
      .cls-1 {
        fill: #fff;
        fill-rule: evenodd;
      }
    </style>
  </defs>
  <g id="Group_1" data-name="Group 1" transform="translate(584 183)">
    <path id="Path_1" data-name="Path 1" class="cls-1" d="M21.1,144.2h0a1.088,1.088,0,0,0,0,1.5,8.212,8.212,0,0,1,0,11.8,1.088,1.088,0,0,0,0,1.5.967.967,0,0,0,1.4,0,10.61,10.61,0,0,0,3.1-7.4,10.366,10.366,0,0,0-3.1-7.4.908.908,0,0,0-.7-.3h0a1.08,1.08,0,0,0-.7.3Z"/>
    <path id="Path_2" data-name="Path 2" class="cls-1" d="M18.1,145.5h0a1.049,1.049,0,0,0,0,1.3,7,7,0,0,1,0,10,1.049,1.049,0,0,0,0,1.3.735.735,0,0,0,.6.2,1.421,1.421,0,0,0,.6-.2,8.933,8.933,0,0,0,0-12.6.864.864,0,0,0-.6-.3h0a.864.864,0,0,0-.6.3Z"/>
    <path id="Path_3" data-name="Path 3" class="cls-1" d="M17.1,147.4h0a1.049,1.049,0,0,0-1.3,0,1.049,1.049,0,0,0,0,1.3,4.167,4.167,0,0,1,0,6,1.049,1.049,0,0,0,0,1.3.735.735,0,0,0,.6.2,1.421,1.421,0,0,0,.6-.2,5.95,5.95,0,0,0,.1-8.6Z"/>
    <path id="Path_4" data-name="Path 4" class="cls-1" d="M10.2,148.3H8a.86.86,0,0,0-.8.8v5.4a.789.789,0,0,0,.8.8h2.2Z"/>
    <path id="Path_5" data-name="Path 5" class="cls-1" d="M13.3,146.2,10.8,148v7.4l2.5,1.8a.746.746,0,0,0,1.2-.6v-9.9c.1-.5-.7-.9-1.2-.5Z"/>
  </g>
</svg>
