<?xml version="1.0" encoding="utf-8"?>
<!-- Generator: Adobe Illustrator 19.0.0, SVG Export Plug-In . SVG Version: 6.00 Build 0)  -->
<svg version="1.1" id="Capa_1" xmlns="http://www.w3.org/2000/svg" xmlns:xlink="http://www.w3.org/1999/xlink" x="0px" y="0px"
	 viewBox="-186.2 599.7 359.4 443" style="enable-background:new -186.2 599.7 359.4 443;" xml:space="preserve">
<g>
	<path style="fill:#EE1111;" d="M93.8,637.7H10.4v-38h-113.2v38h-83.4v60h280V637.7z M-72.8,629.7h53.2v8h-53.2V629.7z"/>
	<path style="fill:#EE1111;" d="M67.1,814l5.7-86.3h-238l19,290H-32c-14.9-21.1-23.6-46.7-23.6-74.4C-55.6,874.1-1.2,817.4,67.1,814
		z"/>
	<path style="fill:#EE1111;" d="M73.8,843.8c-54.8,0-99.4,44.6-99.4,99.4c0,54.8,44.6,99.4,99.4,99.4s99.4-44.6,99.4-99.4
		C173.2,888.4,128.6,843.8,73.8,843.8z M128,976.2l-21.2,21.2l-33-33l-33,33l-21.2-21.2l33-33l-33-33l21.2-21.2l33,33l33-33
		l21.2,21.2l-33,33L128,976.2z"/>
</g>
</svg>
