<?xml version="1.0" encoding="utf-8"?>
<!-- Generator: Adobe Illustrator 19.0.0, SVG Export Plug-In . SVG Version: 6.00 Build 0)  -->
<svg version="1.1" id="Capa_1" xmlns="http://www.w3.org/2000/svg" xmlns:xlink="http://www.w3.org/1999/xlink" x="0px" y="0px"
	 viewBox="123 123.6 841.9 595.3" style="enable-background:new 123 123.6 841.9 595.3;" xml:space="preserve">
<g>
	<g id="_x31_39_10_">
		<g>
			<path style="fill:#696969;" d="M585.8,558.4c2.8,0.4,6-0.2,7.4-3c0.4-0.6,3.4-2.8,6-5.6c0.8-0.6,1.6-1.2,2.2-2.4
				c0.2-0.2,0.4-0.8,0.4-1.2l0.2-0.2c0-0.2,0-0.4,0-0.4c4-13.3,7-65.5-4.4-70.3c-5.2-2.2-6.8-3.6-12.1-2.8
				c-20.7,2.6-22.9-11.3-22.5-30.8c0.4-25.1-6.2-60.1,27.3-56.9c2.4,0.2,4.4-1.4,5.6-3.2c9.6-14.7,18.3-48.8,9.6-70.8
				c-10-25.3-46.4-9.6-61.5,3.4c-45.4,40-40,129.6-27.3,181.3C526.1,534.3,548.2,553.4,585.8,558.4z"/>
			<path style="fill:#696969;" d="M389.4,181.7v86h-16.5v31.4h16.5V358h-16.5v31.4h16.5v64.1h-16.5v31.4h16.5V554h-16.5v31.4h16.5
				v85.4H715v-489H389.4z M683.6,639.4H420.7v-54.1h20.1V554h-20.1v-69.1h20.1v-31.4h-20.1v-64.1h20.1V358h-20.1v-58.9h20.1v-31.4
				h-20.1v-54.7h262.9V639.4z"/>
		</g>
	</g>
</g>
</svg>
