<?xml version="1.0" encoding="utf-8"?>
<!-- Generator: Adobe Illustrator 19.0.0, SVG Export Plug-In . SVG Version: 6.00 Build 0)  -->
<svg version="1.1" id="Capa_1" xmlns="http://www.w3.org/2000/svg" xmlns:xlink="http://www.w3.org/1999/xlink" x="0px" y="0px"
	 viewBox="123 123.6 841.9 595.3" style="enable-background:new 123 123.6 841.9 595.3;" xml:space="preserve">
<g id="Plan_x0020_1">
	<path style="fill:none;stroke:#696969;stroke-width:6;" d="M402.7,174.9c-0.3,1-2.7,2.9-3.5,3.9c-1.5,1.9-4.8,2.5-7.1,2.6
		c-1.2,0.1-2.4,0.4-3.6,0.2c-0.8-0.1-1.7-0.7-2.3-0.7l-0.1,8.3c0,3.7,3.9,0.8,5.2,2.1c0.2,0.2-1.6,6.7-3.3,6.7
		c-0.6,0-1.4-0.3-1.8,0.2c-1.6,2.2,4.2,1.3,2.4,5.3c-0.9,1.4-2.6,3-2.6,4.7c0,3.5-2.9,6-1.8,9.5c0.7,2,2.8,5.1-0.3,5.1
		c-1.4,0-0.6,2.7-1.3,3.9c-1.2,2-5.8,3.3-3.3,5.9c2.5,2.6-1.7,4.4-2.8,6.6c-0.5,2.5-5.1,3.6-5,5c0,0.9,1.9,1.4,2.3,2.2
		c1.3,2.7,1.9,4.4,3.9,6.8c3.5,4,6.3,4,6.3,9.9c0,0.8,2.1,5.8,2.6,6.5c1.7,2.2,1.1,3.1-1.4,3.1c-1.8,0-2.3-1-4.2-0.5
		c-1.4,0.4-5.5,1.4-6,2.4c-0.5,0.9-2.9,0.4-3.6,0.2c-1.8-0.5-3.1,0.3-4.7,0.9c-1,1.4-2.9,2-4,3.4c-0.7,0.9,5.5,3.9,6.3,5.4
		c1.5,3,2.6,3.3,1.9,6.8c-0.9,4.3,3.4,6.6,0.1,11.4c-2.5,3.6-5.7,3-9.1,1.9c-5-1.5-2.6,2.2-4,3.7c-1.1,1.2-3-0.9-4.2-0.9
		c-1.7,0-4,1.6-5.4,1.9c-2.3,0.5-5.2,0.1-5.2,3.6c0.5,3.5,2.3,2-0.9,3.9c-0.6,0.4-2.1,8.7-2.2,9.9c-0.1,2.5-1.1,4.9-1.2,7.5
		c-0.3,7.1-4.4,3-8.4,6.9c-3.2,3,1,9.6-2.4,11.3c-1.8,1.8-8.4,3.1-10.9,3.4c-1.8,0.2,0.4,3.9-0.2,6c-0.5,1.8-1.1,3.1-1.4,5
		c-0.4,2.5-4.1,6.9-5.5,9.3l-6.7,11.8c-0.4,1.4-1.3,7.1-1.8,7.8c-1.6,2.2-4.7-2.1-4.8-0.5c-0.1,2.8-1.8,2.3-3.7,2.2
		c-0.2,0-2,2.9-2.6,3.7c-2.5,3.1-4.7,3.3-6.4,7.6c-2.9,7.4-6.4,6.4-12.3,9.9c-1.4,0.8-4.6,3.3-3.9,5.2c0.9,2.4,2.2,4.5-1,5.9
		c-0.4,1.3-0.8,2.1-0.8,3.5c0,4.5,2.3,0.7,4.3,1.4c0.2,0.1,1.3,2.7,1.3,3c-0.2,1.2-1.3,2-1.1,3.5c0.1,0.6,2.7,3.9,3.2,4.4
		c1.7,1.5,3-1.3,4.2-1.3c0,1.6-1.1,7.1,0.2,8c1,0.7,2.5-2.8,3.5-2.9c1.5-0.1,1.8,2.6,1.8,3.6c-0.2,2.5-1.3,4.6-0.8,7.2
		c0.2,1.1,1.3,3,2.3,3.6c0.8,0.4,1.4,0.2,2.1,0.6c0.7,0.3,1,1.2,1.9,1.3c1,0.2,1.3-2.2,2.9-1.7c0.7,0.2,1.6,2.2,1.9,2.9
		c2.6,6.3,4.6,10.6,1.8,17c-1.1,2.5-1.6,5.5-3.1,7.8c-0.8,1.2-0.9,2.6-1.4,3.7c-0.5,1-2.2-0.4-2.5,0.4c-0.6,0-3.5-3.2-4.1-0.7
		c-0.7,2.5,1,3.3-1.4,5.6c-1.3,3.2-3.9,4.4-6,7c-1.8,2.3-0.1,4-0.8,6.4c-0.9,3-5,6.3-7.1,8.6c-1.4,1.6-0.1,2.6-0.5,4.2
		c-0.5,1.9-2,3.4-2.9,5.1l-2,1.9l0,0c0.9,1.5,1.9,1.6,3.7,2.1c1,0.3,2.7,1.9,3.3,1.9c1.6,0,2.5-0.5,3.9-1.2c1.7-0.9,3.8-0.7,5.7-0.9
		c1.3-0.2,1.6-2,2.4-2.8c2-2,3.2,1.1,2.1,3c-1.1,1.8-2.5,2.6-3.5,4.6c-1.2,2.3,1.8,8.4,4,9.1c2,0.6,2.6-1.6,1.2-2.8
		c-0.7-0.6-1.8-2.9-1.8-3.8c0-1.8,2.1-1.5,3.2-1.6c1.5-0.1,1.7-2,3.3-1.7c1.6,0.4,2.2,0.3,3.7,0.4c0.7,0,0.3,1.9,0.5,2.5
		c0.8,2.1,5,1,5,2.8c0,2-2.4,1.7-3.3,2.5c-2,2,0.1,2,1.1,3.2c0.8,0.9-1.9,2.1-1,3.2c1.1,1.2,6.1,0.6,4.5,3.6c-0.5,0.8-4.4,1.5-1,2.2
		c3.8,0.7-5.1,2.8-1.4,4c1,0.3,0.7,2,0.7,2.8c0,2,2.2,1.2,3.1,2.6c1.5,2.6-1.8,1.4-0.8,4.1c0.6,1.6,1.1,2.6,1.6,4.4
		c0.6,2.4,2.7,0.1,3.6-0.9c1.3-1.3,2.3,0.3,1.4,1.5c-1.9,2.6-3.5,6.6,1,3c4.3-3.4,3.1,0.7,4.5,2.1c2.2,2.2,2.6-2.8,3.1-3.6
		c2.1-3.4,2-1,4.6-0.8c2,0.1,0.7-2,3.3-1.5c1.8,0.4,0.7-2.3,2.2-2.3c0.3,0,0.8,2.1,1.6,2.6c1.5,0.9,1.2,0.9,0.4,2.3
		c-0.5,0.9-0.8,2.2,0.7,2.2c1.9,0,0.6-3.5,3.6-3.2c2,0.2,1.9-1.1,3.5-1.1c1.1,0,0.9,0.9,1,1.7c0.3,1.3,2.2-1.1,3.3-0.8
		c1.6,0.4,0.4,3.2,3.2,2.1c1.1-0.4,5.1-3.2,5.6-1.6c0.8,2.5,2.6-0.5,4.3,1.6c1.4,1.7,4.3,6.6,5.7,2.2c0.5-1.4-2.4-6.2,0.3-6.2
		c1.8,0,4,1.4,5.4-0.5c0.6-0.8-0.6-2.5,0.2-3.7c1.3-1.9,4.5,0,5.7-2.2c1-1.9-1.5-2.4-0.9-4.4c0-0.1,0.2,0.1,0.3-0.1
		c0.3-0.6,1.1-4.1,2.2-3.2c3.3,2.5,4.1,0.2,3.6-0.6c-0.9-1.2-6.2-2.4-2.9-4.4c1.9-1.1-0.6-2.5-0.2-4.1c0.1-0.3,0.3-0.7,0.6-1.1
		c1.2-1.4,3.8-1.7,3.8,0.6c0,1.1-1.4,3.4,0.6,3.5c3.8,0.2-0.4-4.4,5.1-4.1c3.9,0.2-0.6-5.5,3-3.5c1.3,0.7,4.2,4,4.5,0.6
		c0.4-4,2.4-0.8,3.6-0.3c2,0.8,1.1-2.6,2.9-3.1s-0.2,7.2,4.4,4.7c3.1-1.7,2.6,2.4,4,1.1c1.2-1.1,1.3-2.9,3.1-3.9
		c0.6-0.3,1.5-0.6,2.3-0.7c-0.1,0.1,2,1.6,2.4,2c0.6,0.7,1.1,1.5,1.8,2.2c1.4,1.4,2.2,1.9,0.9,3.9c-1.2,1.8-1.7,3.3-1.7,5.5
		c0.6,0.8,1.7,3,2.6,3.3c1.9,0.5,2-5.9,4-3.7l2.4,2.7c0.7,0.8,2.5,0.9,3.4,1.6c0.9,0.6,0.5,2,1.2,2.5c3.3,2.3,10.9-2,10.1,3.7
		c-0.4,2.5-0.5,6.4-1.4,8.7c-1.3,3.3-11.4-1.9-14.4-0.8c-1.3,0.5,0.4,5.2,0.2,6.7c-0.3,3,1.2,4.9,2.8,7.3c1.3,1.6,1.8,1.7,3.8,1.7
		c0,1,0.2,2,0.2,3s-2.2,0.9-2.8,0.9c-1.4,0-0.6,0.6-0.5,1.4c0.1,1.5-0.5,9,0.6,9.5c1.6,0.9,3-0.2,2.2,2.2c-0.5,1.7-0.2,3.4,1.3,4.6
		c-0.7,1.2-2.5,0.6-2.7,2.2c-0.1,0.9,0.8,2.4,1.3,3.1c1.3,1.7,3.9-1.2,6.3-0.6c4.3,1.1,7,2.7,11.5,1.3c1.3-0.4,4-2.3,5.3-0.9
		c1.7,1.9,3,2.5,5.6,1.7c0.8,0.2,4.2-1.2,4.4-0.3c0.1,0.9,4.5,0.2,6.2,2.1c1.8,2,5.3,9.7,5.7,1.3c0.1-2.5,11.7-3,10-6.9
		c-0.2,0-0.1,0-0.2-0.2c-1.6-0.2-6-1.1-6-3.3c4-1.8,3.6-3.5,3.7-7.4c0.2-5.4,7.7,7.1,9.4,6.8c2.1-0.3,5.3-3.9,8.1-4.6
		c3.5-0.8,7.4-2.7,11-2.8c3.3-0.8,5.8,0.5,8.5,1.9c1.1,0.6,5.2,2.2,4.8,3.9c-0.3,1.1-3.4,1.7-2.4,3.3c1.7,2.5-1.2,5.5,0.1,6.9
		c2.5,2.8,4.5,0.5,7.1,2c3.7,2.1-2.6,3.5-0.8,6.7c2.2,3.9-3.1,3.3-4.3,5.6c-0.3,0.5-2.8,4.9-0.4,4.5c1.2-0.2,3.8-2.3,4.4-0.2
		c0.9,3,1,5.5,5.2,5.7c3.3,0.2,2.6-3.5,3.3-6.1c0.3-1.2,3.2,1.2,5.1-0.4c5.3-4.4,6.2,3.2,10.7,2.6c4-0.5,4.3,2.2,7.4,3.5
		c2.6,1,4.7-1.9,4-4.2c-0.3-1.1-0.8-10.2,1.8-7c1.3,1.6,2.4,2.8,4.1,4c1.5,1,2.7,3.1,3.9,3.7c0.6,1.9,0.8,3.8,1.3,5.6
		c0.5,1.5,2.6,2,3.7,3.1c2.1,2.2,6.1-0.8,7.4-3c3.1-5.4,9.9-4.7,14.4-7.4c3-1.7,3-2.7,6.3-1.3c2.3,0.9,5,1.2,6.9-0.7
		c2.8-2,3.4-5.7,7.1-7.6c1.5-0.7,6-2.1,7.3-0.6c3.4,4.2-4.4,3.9-5.9,5.3c-0.6,0.5-2.3,2.4-1.7,3.3c0.5,0.7,3.6-0.7,4.8-0.5
		c3.1,0.5,2.6,2.3,5.9-0.5c9.7-8-1.6,14.5,6.5,11c0-2.2,0.4-5.2,1.9-6.9s2.9-2.1,5-3.1c3.2-1.4,4-6.6,7.4-6.5
		c4.4,0.1,8,0.8,12.6-0.7c4.5,0.3,10.8,1.4,9.1-4.6c-0.3-1.1-0.7-2.2,0.7-2.5c0.8-0.2,1.2,1.6,2.2,0.6c0.9-1-0.5-4.3-0.7-5.8
		c-0.5-4.1,1.1-6.4-3.3-7.9c-1.6-0.6-6.2-5-6.2-6.7c3.5-0.7,4-2,1.8-5.2c-0.9-1.3,2-2,2.6-2.6c1.6-1.7,2.5-3.9,3.5-6
		c1.1-1.8,1.3-3.5,1.6-5.6c0.3-2.2,2.7-4.9,1.7-7c-0.7-1.6-2-2.6-1-4.2c0.5-0.9,2.1-2.1,2.8-3.1c1.3-1.7,3-3.3,3.6-5.3
		c0.6-1.8-2.9-4.5-3.4-6.4l-3.6-3.4l0,0c-1.5-1.9-4-2.2-5.8-3.4c-1.7-1.2-2.9-3.2-2.3-5.3c0-4.8-0.4-8.8-4.4-11.8
		c-3.1-2.3-9.2-5.7-13.2-5.2c-3.2,0.4-2.6-2.4-2.7-4.7c-0.2-3.3-2.7-4.8-2.4-8.5c0.2-4.6,0.1-8.6-2.2-12.6c-2.5-4.1-2-8-2-12.6
		c0-3.4,1.6-2.5,4.1-3c3.5-0.7,2.6-4.6,3.1-7.3c-1.2-2.2-2.9-3.7-4.1-5.8c-0.8-1.4-0.2-4.4-1.9-4.8c-1.3-0.3-2.7-0.5-4-0.7
		c-1.5-0.1-2.3-1.5-3.6-1.9c-2.6-0.7-3.9,1.3-5-1.9c-0.4-1.3-1.8-7.7-3.3-7.8c-2.6-0.2-3.8,0.2-3.6-3c-0.3-1.6,0.4-4.2-0.9-5.5
		c-1.1-1.1-3.3-2.2-0.6-3.7c3-1.8,6.5-2.1,9.4-3.7c2.2-1.3-0.2-3.5-1.1-4.6c-2.2-2.8-2.2-6.2-1.6-9.7c0.3-1.3,0.3-2.6,0-3.7
		c-6,0-2.8-2.6,0.1-4.5c3.4-2.2,7.5-3.2,10.8-5.5c3.7-2.6,2.8-1,2-5.3c-0.5-2.4,4.4-7,5.7-9c1-1.5,3.5-0.6,4-1.7
		c0.9-1.8-0.3-5.1,2.4-2.1c0.5,0.6,0.8,1.4,0.8,2.2c0,6.3,13.9,5.3,18.3,4.9c2.5,0.1,9.2,1.3,11.1-0.8c2.1-2.3,4-2.8,6.2-4.7
		c2.1-1.7-1.6-2.3-0.6-3.5c1-1.3,4.5-0.6,6-0.6c4.5,0,3.4-0.1,4.3-4.2c0.3-1.3-3.7-8.6,1-6.1l13.5,7.5c4.2,2.3,2.4,2.4,6.8,1.1
		c1.4-0.4,3.5,0.2,4.5-0.4c1.9,0.4,5.6,0.3,6.7,2.2c1,1.7,1.3,2.1,3.5,1.5c2.5-0.7,7.4-1.9,9.2-3.8s-3.4-3.9-2.1-5
		c1-0.8,1.6-1.7,0.7-2.8c-0.8-1,1-7.6,2.1-8.5c3.1-2.6-2.7-9.1,5.3-6.5c1.6,0.5,3.9,5.4,5.8,2.6c0.6-0.9,2.4-6.2,2.4-7.2
		c0.2-2.7-3.4-3.9-3.4-7.1c0.2-2.6,0.9-4.7,0-7.1c-0.7-1.8,0.4-3.2,1.4-5c2.6-4.7,4.1-8.2,4.1-13.7c0-3.6,0.2-3.5-3.2-4.1
		c-4-0.7-1.6-4.1-1.8-7.4c-0.1-2.6,1.6-1.5,3.8-1.8c1.6-0.2,5.2-1.3,5.9,0.6c1.3,3.2,3.1,0.6,5.1,3.8c0.7,1.2,2.3,0.1,2.8,0.5
		c1.3,1.2,0.6,3.1,2.4,3.9c0.5,0.2,3.7,1.6,3.6,1.1c3.8,1.5,6.7,4.2,10.4,5.7c3.5,1.4,5.7-1.8,8.9,1.4c1.6,1.6,4.2-0.2,5.3-1.6
		c1.1-1.3,4.2-4.4,5.8-4c1.1,0.3,2.6,1.5,3.6,0.3c0.9-1.1,0.2-4.4,0.9-6c1.2-1.6,3.3-2.6,5-3.7c1.6-1,1.8-2.7,3.1-3.6
		c1.9-1.4,10.2,1.9,10.7,0.7c0.5-1.3-1.1-5-1.4-6.7c-0.5-3.1,2.3-5.8,4.4-7.5c5.9-4.7-0.2-5.1-4.2-6.9c-2-0.9-5.5-0.9-7.7-0.5
		c-3.6,0.5-0.5,4.9-4.3,5.9c-2.6,0.7-5.2-3.5-6.6-5.2c-2-2.5-1.3-3.2-0.7-6.1c1-3.3,2.7-5.2,2.3-8.7c-0.2-2-1.6-4.5-1-6.4
		c0.4-1.4,0.8-2.7,0.2-4.1c-1.1-2.4-0.7-1.9-0.2-4.4c0.5-2.7-0.1-4.2-0.6-6.7l0.2-10.5l0,0c-0.3,0.3-0.6,0.5-0.9,0.7
		c-1.7,0.9-3.4,2.9-3.7,4.9c-0.3,1.9-4.2,2.6-5.7,3.3c-1.5,0.6-3.2,0.3-4.2-0.9c-0.8-0.9,0.6-2.4-0.7-3c-0.9-0.4-2.7,0.1-3.6,0.4
		c-3,1-4.8,2.3-7.6,3.9c-1.4,0.8-3.2,2.7-4.7,3.1c-0.4,0.1-0.9,0-1.4-0.2c-1.4-0.6-2.9-2.3-4.4-2.5c-1.8-0.2-1.6,0.9-3,1.2l-0.1-2.7
		c-0.3-0.6-0.7-1.7-0.8-2.3c-0.6-0.5-0.9-1.4-1.3-1.8c0-2.9,3.3-3.8-0.3-5.1c-4.5-1.6-0.4-3.4-0.4-5.6c-1.8-2.2-6.1-0.5-8.7-1.1
		c-3.9-0.8-6.3,1.4-9.9-1.1c-1.8-1.2-4.9-1.7-6.1-3.6c-2.6-6.9-12.7-8.8-17-14.5c-0.8-1.1-1.9-3.8-3.5-3.8c-1.8,0-3.4,4.6-5.1,3.5
		c-1.7-1.1,0.3-6.8,0-8.3c-0.3-1.3-2.2-2.8-2.3-3.8c-1.2-0.5-2.6,1.2-4.3,0.1c-2.3-1.7-4.1-3.8-7.2-3.8c-3.3,0-5.3,0.4-7.5-2.6
		c-4.7-6.4-11.3,0.3-16.7-2.6c-4.1-2.3-4.7-1.2-8.7,0.6c-4.8,2.1-10.6,2.1-15.5,1.3c-1.4-0.2-1.9,0.9-3.1,1.2
		c-0.5,2.1-1,3.9-2.9,4.8c-1.4,0.6,0.5,2.7-0.3,3.6c-0.5,0.6-2.2,1.1-1.9,2.1s1.9,1.8,0.9,3.2c-1.3,1.7-4.7,3-5,5
		c-0.5,3.2,3.5,4.9,5.1,6.9c0.9,1.1,0.8,2.5,1.2,3.7c1,3-1.3,3.2-3.5,3.4l-10.7,0.9c-4.9,0.4-7.5,3.4-12.1,3.6
		c-4.8,0.2-5.9,5.3-9.9,5.4c-2.3,0.1-2.3-4-1.7-5.4c1-2.2-2.2-3.6-4.2-3.6c-0.6,1.9,0.6,4.5-2.4,4c-2.8-0.4-4.4,0-5.4-2.6
		c-1.4-3.7-9.1-2.8-11.9-4.4c-4.1-2.3-2.6-1.9-2.6-5.9l-0.1-0.1l-5.5-1.5c-1.2-1.2-3.3-3.1-4.7-3.9c-1.5-0.8-4.1,0.8-5.9,0.7
		c-4.7-0.3-6.7-3.7-10.7-5.3c-3-1.2-3.7-1-1.8-4.1c1-1.7,3.3-5.6,3.3-7.6c0-0.7-5.9-7-7-3.9c-1.3,3.6-3.7-0.6-5.3-0.9
		c-5.1-0.9-3.1-1.8-6.5-4.2c-0.8-2,2.1-4.3-0.8-5.2c-2.9-0.9-4.9-0.3-5.8-3.5c-0.3-1.1-3.4-0.9-4.4-1.2c-2.3-0.7-3-2-4.2-3.9
		c-1.9-3.2-6.9,0.4-9.5-1.1c-5-2.8-9.9-2.4-15.2-0.9c-3.6,0.8-8.1,0.8-11.8,0.8c-3.8,0-3.8-1.9-6.5-2.5c-2.2-0.5-2,1.2-4-1.5
		c-1.5-2-4.4-3.4-6.4-4.9c-3.9-2.8-1.8-3.1-3.4-6.2c-0.4-0.8-8.8-1.4-10.3-1.9c-3.1-0.9-4.4,1.8-6.8,1.8c-0.6,0-3.7-4.2-5.7-4.7
		c-7.1-1.8-12.7-0.7-19.6,0.4c-2.1,0.4-4.2,1.8-6.4,1.8c-2.4,0-4.6-0.9-7-0.4c-1,0.2-2.1,1.8-3,0.8c-0.8-0.9-1.1-1.7-2.4-0.4
		c-1.1,1.1-2.4,2.6-3.9,3.2l0,0L402.7,174.9L402.7,174.9L402.7,174.9z"/>
</g>
</svg>
