<svg xmlns="http://www.w3.org/2000/svg" viewBox="0 0 327.71 137.84"><title>logo-cogusida</title><g id="f23e1f71-f0a9-4ab1-b77f-1c9d8eec334b" data-name="Capa 2"><g id="bca14905-749a-4a54-9ecd-8d20a06c353c" data-name="Layer 1"><path d="M96.17,44.54V30.17c0-3.57-1.09-4.37-3.17-4.37s-3.27.8-3.27,4.37V78c0,3.57,1.09,4.36,3.27,4.36s3.17-.79,3.17-4.36V62.68h10.51V78.84c0,9.22-7.23,11.9-13.78,11.9s-13.68-2.68-13.68-11.9V29.27c0-9.22,7.24-11.89,13.68-11.89s13.78,2.67,13.78,11.89V44.54Z" style="fill:#616160"/><path d="M112.23,29.27c0-9.22,7.24-11.89,13.69-11.89s13.78,2.67,13.78,11.89V78.84c0,9.22-7.24,11.9-13.78,11.9s-13.69-2.68-13.69-11.9ZM122.74,78c0,3.57,1.09,4.36,3.28,4.36s3.17-.79,3.17-4.36V30.17c0-3.57-1.09-4.37-3.17-4.37s-3.28.8-3.28,4.37Z" style="fill:#616160"/><path d="M172.71,54.16V89.35h-5.25l-.3-4.46H167a10.1,10.1,0,0,1-9.52,5.85c-5,0-12.19-2.68-12.19-11.9V29.27c0-9.22,7.23-11.89,13.68-11.89s13.78,2.67,13.78,11.89v15H162.2V30.17c0-3.57-1.09-4.37-3.17-4.37s-3.27.8-3.27,4.37V78c0,3.57,1.09,4.36,3.27,4.36s3.17-.79,3.17-4.36V62.58H158V54.16Z" style="fill:#616160"/><path d="M205.72,18.77V78.84c0,9.22-7.24,11.9-13.78,11.9s-13.68-2.68-13.68-11.9V18.77h10.51V78c0,3.57,1.09,4.36,3.27,4.36s3.17-.79,3.17-4.36V18.77Z" style="fill:#616160"/><path d="M226,78c0,3.57,1.09,4.36,3.28,4.36s3.17-.79,3.17-4.36V70.52c0-9.92-17-19.63-17-31.13V29.27c0-9.22,7.24-11.89,13.69-11.89S243,20.05,243,29.27V44.15H232.44v-14c0-3.57-1.09-4.37-3.17-4.37s-3.28.8-3.28,4.37v8.72c0,5.06,17,20.33,17,27.46V78.84c0,9.22-7.24,11.9-13.78,11.9s-13.69-2.68-13.69-11.9V62.58H226Z" style="fill:#e41d1f"/><path d="M248.7,89.35V18.77h10.51V89.35Z" style="fill:#e41d1f"/><path d="M265.05,18.77h12.69c10.41,0,14.78,3.56,14.78,16V76.56c0,6.75-4.37,12.79-12.5,12.79h-15Zm10.51,62.16H278c2.68,0,4-.7,4-5.26V32.45c0-4.56-1.29-5.26-4-5.26h-2.48Z" style="fill:#e41d1f"/><path d="M303.92,18.77h15.76l8,70.58H317.1l-2-19.13h-7.44L305.4,89.35h-9.51ZM314.13,61,312,31.65h-.7L308.68,61Z" style="fill:#e41d1f"/><path d="M103.34,103.08c0,2.06-1,4.38-3.41,4.38-3.5,0-3.5-4.11-3.5-6.67s.32-6,3.53-6c2.17,0,3.27,1.73,3.29,3.78h-1c-.1-1.44-.65-2.84-2.27-2.84-2.55,0-2.45,3.67-2.45,5.3,0,1.85-.1,5.5,2.56,5.5,1.8,0,2.21-2,2.26-3.45Z" style="fill:#7f7f7f"/><path d="M105.71,100.79c0-2.48.34-6,3.55-6,3.55,0,3.56,4,3.56,6.6s-.19,6.07-3.59,6.07S105.71,103.35,105.71,100.79Zm6.07.35c0-1.77,0-5.41-2.57-5.41-2.43,0-2.45,3.56-2.45,5.3s-.09,5.5,2.56,5.5S111.78,102.85,111.78,101.14Z" style="fill:#7f7f7f"/><path d="M121,105.46h0V95.08h1v12.09h-1.27l-4.48-10.35h0v10.35h-1.05V95.08h1.31Z" style="fill:#7f7f7f"/><path d="M127.85,100.58c1.77.74,3.09,1.29,3.09,3.48a3.2,3.2,0,0,1-3.46,3.4c-2.21,0-3.37-1.56-3.32-3.71h1c0,1.52.61,2.78,2.27,2.78a2.28,2.28,0,0,0,2.43-2.44c0-1.82-1.32-2.11-2.7-2.66-1.63-.64-2.79-1.37-2.79-3.3a3,3,0,0,1,3.14-3.34A2.94,2.94,0,0,1,130.62,98h-1a2,2,0,0,0-2.07-2.27,2.07,2.07,0,0,0-2.08,2.34,1.94,1.94,0,0,0,1.46,2.12Z" style="fill:#7f7f7f"/><path d="M133.05,107.17V95.08h5.48V96H134.1v4.35h4v.93h-4v4.94h4.52v.93Z" style="fill:#7f7f7f"/><path d="M140.78,103.64v.26c0,1.21,0,2.63,1.48,2.63,1.24,0,1.32-1,1.32-2V95.08h1v9.51c0,1.68-.6,2.87-2.47,2.87s-2.4-1.42-2.43-3v-.84Z" style="fill:#7f7f7f"/><path d="M147.14,100.79c0-2.48.34-6,3.55-6,3.54,0,3.56,4,3.56,6.6s-.19,6.07-3.59,6.07S147.14,103.35,147.14,100.79Zm6.06.35c0-1.77,0-5.41-2.56-5.41-2.43,0-2.45,3.56-2.45,5.3s-.1,5.5,2.56,5.5S153.2,102.85,153.2,101.14Z" style="fill:#7f7f7f"/><path d="M163.7,102.11v-.93h3.64v6h-.84l-.09-1.24h0a2.78,2.78,0,0,1-2.62,1.53c-3.41,0-3.45-4.13-3.45-6.57s.17-6.1,3.59-6.1a3.34,3.34,0,0,1,3.27,3.6h-1c-.17-1.31-.67-2.66-2.24-2.66-2.67,0-2.57,3.74-2.57,5.4s0,5.4,2.48,5.4c2.29,0,2.4-2.7,2.46-4.42Z" style="fill:#7f7f7f"/><path d="M170.1,95.08h1.05v8.77c0,1.71.38,2.68,2.2,2.68s2.31-1.15,2.31-2.78V95.08h1.05v8.42c0,2.35-.71,4-3.33,4-2.31,0-3.28-1.27-3.28-3.48Z" style="fill:#7f7f7f"/><path d="M182.93,95.08l3.24,12.09H185.1l-.95-3.72h-3.67l-1,3.72h-1l3.24-12.09Zm1,7.43-1.6-6.1h0l-1.59,6.1Z" style="fill:#7f7f7f"/><path d="M193.57,105.46h0V95.08h1.05v12.09h-1.28l-4.48-10.35h0v10.35h-1.05V95.08h1.31Z" style="fill:#7f7f7f"/><path d="M200.76,95.08,204,107.17h-1.07l-1-3.72h-3.67l-1,3.72h-1l3.24-12.09Zm1,7.43-1.6-6.1h0l-1.6,6.1Z" style="fill:#7f7f7f"/><path d="M205.82,103.64v.26c0,1.21,0,2.63,1.48,2.63,1.24,0,1.33-1,1.33-2V95.08h1v9.51c0,1.68-.59,2.87-2.46,2.87s-2.41-1.42-2.44-3v-.84Z" style="fill:#7f7f7f"/><path d="M212.43,95.08h1v8.77c0,1.71.38,2.68,2.2,2.68s2.31-1.15,2.31-2.78V95.08h1v8.42c0,2.35-.71,4-3.32,4-2.32,0-3.29-1.27-3.29-3.48Z" style="fill:#7f7f7f"/><path d="M225.26,95.08l3.24,12.09h-1.06l-1-3.72h-3.67l-1,3.72h-1l3.24-12.09Zm1,7.43-1.6-6.1h0l-1.59,6.1Z" style="fill:#7f7f7f"/><path d="M228.52,96v-.94h6.53V96H232.3v11.15h-1V96Z" style="fill:#7f7f7f"/><path d="M236.84,107.17V95.08h5.47V96h-4.43v4.35h4v.93h-4v4.94h4.51v.93Z" style="fill:#7f7f7f"/><path d="M250.13,105.46h0V95.08h1v12.09h-1.27l-4.48-10.35h0v10.35h-1.05V95.08h1.3Z" style="fill:#7f7f7f"/><path d="M257,100.58c1.77.74,3.09,1.29,3.09,3.48a3.2,3.2,0,0,1-3.46,3.4c-2.21,0-3.37-1.56-3.32-3.71h1c0,1.52.61,2.78,2.27,2.78a2.28,2.28,0,0,0,2.43-2.44c0-1.82-1.32-2.11-2.7-2.66-1.63-.64-2.79-1.37-2.79-3.3a3,3,0,0,1,3.14-3.34A2.94,2.94,0,0,1,259.79,98h-1a2,2,0,0,0-2.07-2.27,2.07,2.07,0,0,0-2.08,2.34,1.94,1.94,0,0,0,1.46,2.12Z" style="fill:#7f7f7f"/><path d="M262.22,107.17V95.08h5.48V96h-4.43v4.35h4v.93h-4v4.94h4.52v.93Z" style="fill:#7f7f7f"/><path d="M273.91,107.17V95.08h2.14c2.73,0,4.08.68,4.08,3.16a3.17,3.17,0,0,1-1,2.63,4.62,4.62,0,0,1-2.6.84H275v5.46Zm1-6.4h.9c1.87,0,3.22-.27,3.22-2.43,0-1.84-.93-2.29-2.59-2.32H275Z" style="fill:#7f7f7f"/><path d="M285.2,95.08l3.23,12.09h-1.06l-.95-3.72h-3.68l-1,3.72h-1L284,95.08Zm1,7.43-1.59-6.1h0l-1.6,6.1Z" style="fill:#7f7f7f"/><path d="M291.08,101.48v5.69H290V95.08h2.34c2.21,0,3.72.65,3.72,3.1,0,1.18-.5,2.56-1.77,2.83v0c1.4.35,1.59,1.43,1.61,3,0,.58-.05,2.7.55,3v.14h-1.15a14.33,14.33,0,0,1-.48-4c-.11-1.62-1.32-1.73-2.69-1.73Zm0-.93h1.84A2.07,2.07,0,0,0,295,98.26c0-1.77-.8-2.24-2.45-2.24h-1.51Z" style="fill:#7f7f7f"/><path d="M302.12,95.08l3.24,12.09H304.3l-.95-3.72h-3.68l-1,3.72h-1l3.24-12.09Zm1,7.43-1.59-6.1h0l-1.59,6.1Z" style="fill:#7f7f7f"/><path d="M311.12,107.17V95.08h1v11.16h4.48v.93Z" style="fill:#7f7f7f"/><path d="M322.13,95.08l3.24,12.09H324.3l-.95-3.72h-3.67l-1,3.72h-1l3.24-12.09Zm1,7.43-1.6-6.1h0l-1.6,6.1Z" style="fill:#7f7f7f"/><path d="M96.56,120.61V109.32h2c2.54,0,3.81.63,3.81,3a3,3,0,0,1-.92,2.45,4.27,4.27,0,0,1-2.42.78H97.54v5.11Zm1-6h.84c1.75,0,3-.25,3-2.27,0-1.72-.87-2.14-2.43-2.17H97.54Z" style="fill:#7f7f7f"/><path d="M105.24,115.29v5.32h-1V109.32h2.19c2.06,0,3.47.6,3.47,2.89a2.51,2.51,0,0,1-1.65,2.65v0c1.31.33,1.49,1.34,1.5,2.75,0,.54,0,2.53.51,2.83v.14h-1.07a13.22,13.22,0,0,1-.44-3.71c-.11-1.5-1.24-1.61-2.52-1.61Zm0-.87H107a1.93,1.93,0,0,0,2-2.14c0-1.65-.75-2.09-2.28-2.09h-1.42Z" style="fill:#7f7f7f"/><path d="M112.23,120.61V109.32h5.11v.87h-4.13v4.06H117v.88h-3.76v4.6h4.21v.88Z" style="fill:#7f7f7f"/><path d="M118.49,109.32h1l2.53,10h0l2.59-10h1l-3,11.29h-1.1Z" style="fill:#7f7f7f"/><path d="M127.19,120.61V109.32h5.11v.87h-4.13v4.06h3.76v.88h-3.76v4.6h4.21v.88Z" style="fill:#7f7f7f"/><path d="M139.6,119h0v-9.69h1v11.29h-1.19l-4.18-9.67h0v9.67h-1V109.32h1.22Z" style="fill:#7f7f7f"/><path d="M149.39,116.78c0,1.93-.93,4.1-3.19,4.1-3.27,0-3.27-3.84-3.27-6.23s.3-5.6,3.3-5.6c2,0,3.05,1.61,3.07,3.52h-1c-.09-1.34-.6-2.65-2.12-2.65-2.38,0-2.29,3.43-2.29,5,0,1.73-.09,5.13,2.39,5.13,1.69,0,2.06-1.83,2.11-3.22Z" style="fill:#7f7f7f"/><path d="M151.92,120.61V109.32h1v11.29Z" style="fill:#7f7f7f"/><path d="M155.32,114.65c0-2.32.32-5.6,3.31-5.6,3.31,0,3.33,3.7,3.33,6.15s-.18,5.68-3.36,5.68S155.32,117,155.32,114.65ZM161,115c0-1.66,0-5.06-2.4-5.06s-2.28,3.33-2.28,5-.09,5.13,2.39,5.13S161,116.57,161,115Z" style="fill:#7f7f7f"/><path d="M169.56,119h0v-9.69h1v11.29h-1.18l-4.19-9.67h0v9.67h-1V109.32h1.21Z" style="fill:#7f7f7f"/><path d="M181.88,109.32h1l-3,6.48v4.81h-1V115.8l-3-6.48H177l2.38,5.37Z" style="fill:#7f7f7f"/><path d="M194.68,116.78c0,1.93-.94,4.1-3.19,4.1-3.27,0-3.27-3.84-3.27-6.23s.3-5.6,3.3-5.6c2,0,3,1.61,3.07,3.52h-1c-.09-1.34-.6-2.65-2.12-2.65-2.38,0-2.29,3.43-2.29,5,0,1.73-.09,5.13,2.39,5.13,1.69,0,2.06-1.83,2.11-3.22Z" style="fill:#7f7f7f"/><path d="M196.89,114.65c0-2.32.32-5.6,3.31-5.6,3.31,0,3.33,3.7,3.33,6.15s-.18,5.68-3.36,5.68S196.89,117,196.89,114.65Zm5.66.33c0-1.66,0-5.06-2.39-5.06s-2.29,3.33-2.29,5-.09,5.13,2.39,5.13S202.55,116.57,202.55,115Z" style="fill:#7f7f7f"/><path d="M211.13,119h0v-9.69h1v11.29H211l-4.18-9.67h0v9.67h-1V109.32H207Z" style="fill:#7f7f7f"/><path d="M213.81,110.19v-.87h6.1v.87h-2.56v10.42h-1V110.19Z" style="fill:#7f7f7f"/><path d="M222.49,115.29v5.32h-1V109.32h2.18c2.06,0,3.47.6,3.47,2.89a2.51,2.51,0,0,1-1.65,2.65v0c1.31.33,1.49,1.34,1.5,2.75,0,.54,0,2.53.52,2.83v.14h-1.07a13.63,13.63,0,0,1-.45-3.71c-.11-1.5-1.24-1.61-2.52-1.61Zm0-.87h1.72a1.94,1.94,0,0,0,2-2.14c0-1.65-.76-2.09-2.29-2.09h-1.42Z" style="fill:#7f7f7f"/><path d="M229.34,114.65c0-2.32.32-5.6,3.31-5.6,3.31,0,3.33,3.7,3.33,6.15s-.18,5.68-3.36,5.68S229.34,117,229.34,114.65ZM235,115c0-1.66,0-5.06-2.39-5.06s-2.29,3.33-2.29,5-.09,5.13,2.39,5.13S235,116.57,235,115Z" style="fill:#7f7f7f"/><path d="M238.33,120.61V109.32h1v10.41h4.18v.88Z" style="fill:#7f7f7f"/><path d="M249.08,109.32h2a4.06,4.06,0,0,1,3.34,1.07,6.45,6.45,0,0,1,1.09,3.71,12.64,12.64,0,0,1-.44,4.2c-.69,1.94-1.91,2.31-3.79,2.31h-2.21Zm1,10.41h1.18a4.23,4.23,0,0,0,1.73-.24c1.5-.69,1.58-3.17,1.58-4.54s0-3.69-1.46-4.5a4.57,4.57,0,0,0-2.18-.26h-.85Z" style="fill:#7f7f7f"/><path d="M257.75,120.61V109.32h5.11v.87h-4.14v4.06h3.77v.88h-3.77v4.6h4.22v.88Z" style="fill:#7f7f7f"/><path d="M264.91,120.61V109.32h1v10.41h4.18v.88Z" style="fill:#7f7f7f"/><path d="M274.78,109.32h1l2.52,10h0l2.58-10h.95l-3,11.29h-1.1Z" style="fill:#7f7f7f"/><path d="M283.66,120.61V109.32h1v11.29Z" style="fill:#7f7f7f"/><path d="M287.21,120.61V109.32h1v4.8h4.37v-4.8h1v11.29h-1V115h-4.37v5.62Z" style="fill:#7f7f7f"/><path d="M298.46,109.32h.83L295.6,122h-.81Z" style="fill:#7f7f7f"/><path d="M303.55,114.45c1.65.69,2.89,1.2,2.89,3.25a3,3,0,0,1-3.24,3.18c-2.06,0-3.15-1.46-3.1-3.46h1c0,1.41.57,2.58,2.13,2.58a2.13,2.13,0,0,0,2.27-2.27c0-1.7-1.24-2-2.53-2.48-1.52-.6-2.6-1.28-2.6-3.09a2.83,2.83,0,0,1,2.93-3.11,2.74,2.74,0,0,1,2.87,3h-.94a1.86,1.86,0,0,0-1.95-2.12,1.94,1.94,0,0,0-1.94,2.18,1.83,1.83,0,0,0,1.37,2Z" style="fill:#7f7f7f"/><path d="M308.59,120.61V109.32h1v11.29Z" style="fill:#7f7f7f"/><path d="M312.2,109.32h2a4.06,4.06,0,0,1,3.34,1.07,6.51,6.51,0,0,1,1.08,3.71,12.9,12.9,0,0,1-.43,4.2c-.7,1.94-1.91,2.31-3.8,2.31H312.2Zm1,10.41h1.17a4.2,4.2,0,0,0,1.73-.24c1.51-.69,1.58-3.17,1.58-4.54s0-3.69-1.45-4.5a4.59,4.59,0,0,0-2.19-.26h-.84Z" style="fill:#7f7f7f"/><path d="M324.2,109.32l3,11.29h-1l-.89-3.48h-3.43l-.92,3.48H320l3-11.29Zm.93,6.94-1.49-5.71h0l-1.49,5.71Z" style="fill:#7f7f7f"/><path d="M88.82,113.58C76.14,96.46,66,82.32,57.81,70.68,81.18,37.75,70.48,20.33,70.48,20.33S63.25,0,44.41,0C23,0,16.93,22.79,13.85,33s15.08,36,15.08,36l1.38,1.87L0,113.58l9.54,24.26s13.09-18.78,34.6-48.39L80,137.84ZM25.55,20C46.78,7.1,63.09,20,63.09,20c-1.62,8.09-15.35,26.56-18.73,31C25.52,26,25.55,20,25.55,20Z" style="fill:#e41d1f"/></g></g></svg>