<svg xmlns="http://www.w3.org/2000/svg" viewBox="0 0 181.07 109.09"><title>logo-cetra</title><g id="ac5c1eec-60fe-4a9c-abd3-02154f848efb" data-name="Capa 2"><g id="e640b6cc-cd95-42ea-a444-587ac40da5b5" data-name="Layer 1"><path d="M33.4,14.26c1.16-5.67-2.73-9.54-3.91-10.57a16.55,16.55,0,0,0-8.8-3.6l-.38,0-.53,0-.44,0h0c-.05,0-.09,0-.14,0h-.41a16.42,16.42,0,0,0-7.27,1.36h0C5,4.21.25,11.86.25,20.87c0,8.55,4.26,15.88,10.34,19h0a15.78,15.78,0,0,0,7,1.82q.7.06,1.44.06c.54,0,1.07,0,1.6-.07h.11a18,18,0,0,0,3.55-.74c9.81-3.37,9.23-13.47,9.23-13.47,0-4.39-2.56-6.15-3.72-6.7l0,0h0l-.21-.09c-.18-.12-.12-.21,0-.29a1.51,1.51,0,0,1,.22-.11h0C32.88,18.42,33.4,14.26,33.4,14.26Z" style="fill:#395fa7"/><path d="M122.44,22.52a4.45,4.45,0,0,1-.79-8.84,7.76,7.76,0,0,0-3.09-.64,7.84,7.84,0,1,0,7.85,7.85c0-.25,0-.51,0-.75A4.45,4.45,0,0,1,122.44,22.52Z"/><path d="M143.43,20.56C140.57,14,134.76,8,131.74,5.13a16,16,0,0,0-1.9-1.71s0,0,0,0h0a16.07,16.07,0,0,0-3.42-2h0A16.4,16.4,0,0,0,119.17,0h-.42s-.09,0-.14,0h-.09s-.09,0-.14,0H118a16.42,16.42,0,0,0-7.27,1.36h0a16,16,0,0,0-3.41,2h0s0,0,0,0a16.12,16.12,0,0,0-1.91,1.71C102.37,8,96.56,14,93.7,20.56l-.13.31.13.3c2.87,6.6,8.73,12.65,11.74,15.48A21,21,0,0,0,107,38.08l.32.27h0a16.88,16.88,0,0,0,2.42,1.56h0a15.76,15.76,0,0,0,7,1.82c.49,0,1,.06,1.45.06l.43,0,.45,0q.72,0,1.44-.06a15.76,15.76,0,0,0,7-1.82h0a17,17,0,0,0,2.43-1.56h0l.31-.27a21.1,21.1,0,0,0,1.57-1.43c3-2.83,8.87-8.88,11.73-15.48,0-.1.09-.2.13-.3S143.48,20.66,143.43,20.56ZM118.56,34.71a13.83,13.83,0,1,1,13.83-13.82A13.83,13.83,0,0,1,118.56,34.71Z" style="fill:#395fa7"/><path d="M122.44,22.52a4.45,4.45,0,0,1-.79-8.84,7.76,7.76,0,0,0-3.09-.64,7.84,7.84,0,1,0,7.85,7.85c0-.25,0-.51,0-.75A4.45,4.45,0,0,1,122.44,22.52Z" style="fill:#395fa7"/><path d="M83.05,14.26c1.17-5.67-2.72-9.54-3.91-10.57a16.52,16.52,0,0,0-8.8-3.6c-.12,0-.25,0-.37,0l-.54,0L69,0h0c-.06,0-.1,0-.15,0h-.41A16.4,16.4,0,0,0,61.2,1.36h0a15.76,15.76,0,0,0-3.41,2h0s0,0,0,0a16.12,16.12,0,0,0-1.91,1.71C52.86,8,47.05,14,44.19,20.56l-.13.31.13.3a33.9,33.9,0,0,0,2.68,4.9A45.35,45.35,0,0,0,57.6,38.16l.21.19h0l.21.15.49.35.56.38,0,0h0a12.25,12.25,0,0,0,1.15.67h0a15.84,15.84,0,0,0,7,1.82c.47,0,1,.06,1.44.06s1.07,0,1.6-.07h.12a18,18,0,0,0,3.54-.74c9.82-3.37,9.23-13.47,9.23-13.47,0-4.39-2.56-6.13-3.72-6.7h0s0,0,0,0l-.21-.09c-.16-.12-.12-.21,0-.29l.22-.11h0C82.53,18.42,83.05,14.26,83.05,14.26Z" style="fill:#395fa7"/><path d="M14.35,77.16A13.84,13.84,0,0,0,26.5,71l-5.74-4.07c-1.63,2-3.31,3.34-6.18,3.34-3.85,0-6.53-3.21-6.53-7.34v-.08c0-4,2.68-7.25,6.53-7.25a7.31,7.31,0,0,1,6,3.23l5.73-4.45c-2.44-3.38-6-5.71-11.65-5.71A14.09,14.09,0,0,0,.2,62.89V63A13.92,13.92,0,0,0,14.35,77.16Zm26.19-.54H62.79V70.14H48.05V65.79H61.23v-6H48.05V55.65H62.6V49.17H40.54Zm43.62,0h7.61V55.84H100V49.17h-24v6.67h8.22Zm29.06,0h7.61V68.31h3.32l5.53,8.31h8.78L131.91,67a8.65,8.65,0,0,0,5.64-8.43v-.07a8.59,8.59,0,0,0-2.42-6.39c-1.85-1.88-4.75-3-8.94-3h-13Zm7.61-14.27v-6.6h5c2.56,0,4.12,1.11,4.12,3.25v.09c0,2-1.5,3.26-4.08,3.26Zm26.86,14.27h8l1.95-4.9h10.6l2,4.9h8.16L166.68,49h-7.31Zm12.17-10.83L163,58l3,7.8Z" style="fill:#3c4d64"/><path d="M4.39,94.07a4.42,4.42,0,0,0,3.4-1.5L7.16,92a3.68,3.68,0,0,1-2.74,1.22,3.35,3.35,0,0,1-3.3-3.5v0a3.32,3.32,0,0,1,3.3-3.48,3.72,3.72,0,0,1,2.66,1.16l.66-.7a4.45,4.45,0,0,0-3.32-1.35,4.29,4.29,0,0,0-4.3,4.4v0a4.24,4.24,0,0,0,4.27,4.37Z" style="fill:#3c4d64"/><path d="M14.73,90.84c0-1.84-1.07-3.32-2.93-3.32a3.28,3.28,0,0,0,.13,6.55,3.21,3.21,0,0,0,2.58-1.18l-.59-.52a2.57,2.57,0,0,1-2,.89,2.21,2.21,0,0,1-2.22-2.1h5C14.73,91,14.73,90.92,14.73,90.84Zm-5-.42a2.19,2.19,0,0,1,2-2.12,2.06,2.06,0,0,1,2,2.12Z" style="fill:#3c4d64"/><path d="M16.36,93.93h.94v-3.6a1.84,1.84,0,0,1,1.88-2,1.66,1.66,0,0,1,1.73,1.88v3.68h.94V90a2.29,2.29,0,0,0-2.41-2.51,2.35,2.35,0,0,0-2.14,1.22V87.66h-.94Z" style="fill:#3c4d64"/><path d="M25.94,94a2.36,2.36,0,0,0,1.13-.26V93a1.93,1.93,0,0,1-.91.22.92.92,0,0,1-1.06-1V88.47h2v-.81h-2v-1.9h-.93v1.9h-.88v.81h.88v3.79A1.6,1.6,0,0,0,25.94,94Z" style="fill:#3c4d64"/><path d="M28.74,93.93h.94v-2.5c0-1.9,1.11-2.89,2.49-2.89h.07v-1a2.65,2.65,0,0,0-2.56,1.74V87.66h-.94Z" style="fill:#3c4d64"/><path d="M36.27,87.52A3.25,3.25,0,0,0,33,90.8v0a3.21,3.21,0,0,0,3.26,3.25,3.25,3.25,0,0,0,3.28-3.27v0A3.22,3.22,0,0,0,36.27,87.52Zm2.32,3.3a2.33,2.33,0,0,1-2.32,2.42A2.35,2.35,0,0,1,34,90.8v0a2.32,2.32,0,0,1,2.3-2.43,2.38,2.38,0,0,1,2.33,2.46Z" style="fill:#3c4d64"/><polygon points="45.03 93.93 51.23 93.93 51.23 93.06 45.98 93.06 45.98 90.08 50.62 90.08 50.62 89.21 45.98 89.21 45.98 86.3 51.17 86.3 51.17 85.43 45.03 85.43 45.03 93.93" style="fill:#3c4d64"/><path d="M55.08,94.05a2,2,0,0,0,2.23-1.88v0c0-1.13-1-1.51-2-1.79-.83-.26-1.61-.5-1.61-1.09v0c0-.52.47-.91,1.21-.91a3.49,3.49,0,0,1,1.86.61l.43-.71a4.33,4.33,0,0,0-2.26-.68c-1.24,0-2.14.7-2.14,1.78v0c0,1.16,1.1,1.5,2.08,1.77s1.57.48,1.57,1.11v0c0,.6-.55,1-1.3,1a3.68,3.68,0,0,1-2.17-.8l-.48.66a4.34,4.34,0,0,0,2.6.93Z" style="fill:#3c4d64"/><path d="M61,94a2.4,2.4,0,0,0,1.14-.26V93a2,2,0,0,1-.92.22.93.93,0,0,1-1.06-1V88.47h2v-.81h-2v-1.9h-.93v1.9h-.87v.81h.87v3.79A1.6,1.6,0,0,0,61,94Z" style="fill:#3c4d64"/><path d="M68.22,88.24a2.83,2.83,0,0,0-2-.69,5.21,5.21,0,0,0-2.28.54l.29.76a4.43,4.43,0,0,1,1.9-.45c1.17,0,1.85.59,1.85,1.7v.2A6.09,6.09,0,0,0,66,90c-1.59,0-2.69.7-2.69,2v0a2.11,2.11,0,0,0,2.35,2A2.73,2.73,0,0,0,68,93v.94h.93V90.09A2.49,2.49,0,0,0,68.22,88.24ZM68,91.62a1.88,1.88,0,0,1-2.08,1.69c-.84,0-1.58-.47-1.58-1.24v0c0-.75.67-1.26,1.83-1.26A6.11,6.11,0,0,1,68,91Z" style="fill:#3c4d64"/><path d="M72.89,94A2.36,2.36,0,0,0,74,93.77V93a1.93,1.93,0,0,1-.91.22.92.92,0,0,1-1-1V88.47h2v-.81h-2v-1.9h-.93v1.9h-.88v.81h.88v3.79A1.59,1.59,0,0,0,72.89,94Z" style="fill:#3c4d64"/><path d="M80.09,88.24a2.82,2.82,0,0,0-2-.69,5.22,5.22,0,0,0-2.29.54l.28.76A4.48,4.48,0,0,1,78,88.4c1.18,0,1.85.59,1.85,1.7v.2A6.09,6.09,0,0,0,77.91,90c-1.6,0-2.69.7-2.69,2v0a2.11,2.11,0,0,0,2.35,2A2.71,2.71,0,0,0,79.82,93v.94h.92V90.09A2.49,2.49,0,0,0,80.09,88.24Zm-.25,3.38a1.89,1.89,0,0,1-2.09,1.69c-.84,0-1.58-.47-1.58-1.24v0c0-.75.67-1.26,1.84-1.26a6.21,6.21,0,0,1,1.83.27Z" style="fill:#3c4d64"/><rect x="82.81" y="85.06" width="0.93" height="8.86" style="fill:#3c4d64"/><polygon points="21.65 107.15 22.62 107.15 22.62 99.54 25.47 99.54 25.47 98.65 18.8 98.65 18.8 99.54 21.65 99.54 21.65 107.15" style="fill:#3c4d64"/><path d="M26,107.15H27v-2.5c0-1.9,1.11-2.89,2.48-2.89h.07v-1A2.68,2.68,0,0,0,27,102.51v-1.64H26Z" style="fill:#3c4d64"/><path d="M39.75,107.26c1.25,0,2.23-.69,2.23-1.87v0c0-1.14-1-1.51-2-1.8s-1.62-.48-1.62-1.08v0c0-.52.48-.91,1.22-.91a3.62,3.62,0,0,1,1.86.6l.42-.71a4.41,4.41,0,0,0-2.26-.69,1.9,1.9,0,0,0-2.13,1.81h0c0,1.16,1.09,1.5,2.08,1.78.82.22,1.56.47,1.56,1.11h0c0,.61-.55,1-1.3,1a3.66,3.66,0,0,1-2.17-.8l-.47.67a4.37,4.37,0,0,0,2.6.91Z" style="fill:#3c4d64"/><rect x="51.86" y="98.29" width="0.94" height="8.86" style="fill:#3c4d64"/><path d="M62,107.15h.93v-3.6a1.85,1.85,0,0,1,1.89-2,1.68,1.68,0,0,1,1.73,1.9v3.66h.94v-3.9a2.29,2.29,0,0,0-2.41-2.5A2.4,2.4,0,0,0,62.92,102v-1.09H62Z" style="fill:#3c4d64"/><path d="M71.56,107.26A2.37,2.37,0,0,0,72.7,107v-.8a2,2,0,0,1-.91.22.92.92,0,0,1-1.06-1v-3.68h2v-.82h-2V99h-.94v1.88h-.87v.82h.87v3.79a1.6,1.6,0,0,0,1.77,1.78Z" style="fill:#3c4d64"/><path d="M5.4,102.08A2.82,2.82,0,0,0,3,100.75,3.07,3.07,0,0,0,0,104v0a3.07,3.07,0,0,0,3,3.26,2.84,2.84,0,0,0,2.4-1.4v1.26h.93V98.29H5.4Zm0,1.94a2.35,2.35,0,0,1-2.27,2.43A2.26,2.26,0,0,1,1,104v0a2.21,2.21,0,0,1,2.21-2.41A2.33,2.33,0,0,1,5.44,104Z" style="fill:#3c4d64"/><path d="M11,100.75A3.09,3.09,0,0,0,8,104a3.12,3.12,0,0,0,3.13,3.28,3.23,3.23,0,0,0,2.59-1.18l-.59-.52a2.54,2.54,0,0,1-2,.88A2.18,2.18,0,0,1,9,104.39h5a2.13,2.13,0,0,0,0-.33C14,102.22,12.9,100.75,11,100.75ZM9,103.64a2.18,2.18,0,0,1,2-2.12,2.08,2.08,0,0,1,2,2.12Z" style="fill:#3c4d64"/><path d="M33,100.78a5,5,0,0,0-2.28.54l.28.76a4.3,4.3,0,0,1,1.91-.45c1.17,0,1.85.58,1.85,1.69v.2a6.21,6.21,0,0,0-1.92-.27c-1.59,0-2.68.71-2.68,2v0a2.11,2.11,0,0,0,2.34,2,2.78,2.78,0,0,0,2.26-1.07v.93h.92v-3.83a2.48,2.48,0,0,0-.66-1.85A2.82,2.82,0,0,0,33,100.78Zm1.77,4.06a1.88,1.88,0,0,1-2.08,1.69c-.85,0-1.59-.46-1.59-1.25v0c0-.75.67-1.27,1.84-1.27a6.5,6.5,0,0,1,1.83.27Z" style="fill:#3c4d64"/><path d="M47.05,100.75a2.81,2.81,0,0,0-2.4,1.39v-1.27h-.94v8.22h.94v-3.15a2.81,2.81,0,0,0,2.4,1.35,3.08,3.08,0,0,0,3-3.27v0A3.06,3.06,0,0,0,47.05,100.75Zm2,3.28a2.22,2.22,0,0,1-2.21,2.42A2.34,2.34,0,0,1,44.61,104v0a2.34,2.34,0,0,1,2.27-2.41A2.26,2.26,0,0,1,49.09,104Z" style="fill:#3c4d64"/><path d="M57.34,100.78a5.17,5.17,0,0,0-2.3.54l.29.76a4.29,4.29,0,0,1,1.9-.45c1.17,0,1.86.58,1.86,1.69v.2a6.21,6.21,0,0,0-1.92-.27c-1.59,0-2.68.71-2.68,2v0a2.11,2.11,0,0,0,2.34,2,2.78,2.78,0,0,0,2.26-1.07v.93H60v-3.83a2.48,2.48,0,0,0-.66-1.85A2.77,2.77,0,0,0,57.34,100.78Zm1.76,4.06A1.87,1.87,0,0,1,57,106.53c-.86,0-1.59-.46-1.59-1.25v0c0-.75.67-1.27,1.84-1.27a6.57,6.57,0,0,1,1.83.27Z" style="fill:#3c4d64"/><path d="M79.73,104.06c0-1.84-1.07-3.31-2.92-3.31a3.09,3.09,0,0,0-3,3.27,3.12,3.12,0,0,0,3.13,3.28,3.24,3.24,0,0,0,2.59-1.18l-.58-.52a2.6,2.6,0,0,1-2,.88,2.2,2.2,0,0,1-2.21-2.09h5C79.73,104.25,79.73,104.15,79.73,104.06Zm-5-.42a2.18,2.18,0,0,1,2-2.12,2.08,2.08,0,0,1,2,2.12Z" style="fill:#3c4d64"/><path d="M83.45,107.26c1.25,0,2.23-.69,2.23-1.87v0c0-1.14-1.05-1.51-2-1.8S82,103.09,82,102.49v0c0-.52.49-.91,1.22-.91a3.56,3.56,0,0,1,1.86.6l.43-.71a4.47,4.47,0,0,0-2.26-.69,1.89,1.89,0,0,0-2.13,1.81h0c0,1.16,1.09,1.5,2.06,1.78s1.57.47,1.57,1.11h0c0,.61-.54,1-1.29,1a3.71,3.71,0,0,1-2.18-.8l-.47.67a4.39,4.39,0,0,0,2.6.91Z" style="fill:#3c4d64"/><path d="M97.62,102.44a5.7,5.7,0,0,0,3.69-1.31V97.31h-3.9V99h1.67v1a2.49,2.49,0,0,1-1.36.35,2.25,2.25,0,0,1-2.31-2.35v0a2.23,2.23,0,0,1,2.17-2.33,3,3,0,0,1,2.06.79L101,94.85a4.94,4.94,0,0,0-3.45-1.24A4.41,4.41,0,0,0,93,98v0a4.36,4.36,0,0,0,4.62,4.4Z" style="fill:#3c4d64"/><path d="M106.44,102.43c2.42,0,4-1.21,4-4v-4.7H108v4.79c0,1.18-.62,1.74-1.58,1.74s-1.55-.57-1.55-1.8V93.77h-2.4v4.77c0,2.66,1.51,3.89,3.93,3.89Z" style="fill:#3c4d64"/><polygon points="121.13 102.27 123.46 102.27 123.46 97.61 127.08 102.27 129.15 102.27 129.15 93.77 126.82 93.77 126.82 98.27 123.33 93.77 121.13 93.77 121.13 102.27" style="fill:#3c4d64"/><path d="M142.58,102.41a3.22,3.22,0,0,0,2.33-.85,3.14,3.14,0,0,0,.84-2.39v-5.4h-2.33v5.38c0,.79-.38,1.19-1,1.19a1.72,1.72,0,0,1-1.32-.79L139.6,101a3.46,3.46,0,0,0,3,1.43Z" style="fill:#3c4d64"/><path d="M151,102.43c2.41,0,4-1.21,4-4v-4.7h-2.39v4.79c0,1.18-.62,1.74-1.56,1.74s-1.56-.57-1.56-1.8V93.77H147v4.77c0,2.66,1.52,3.89,3.93,3.89Z" style="fill:#3c4d64"/><path d="M161.22,93.72H159l-3.62,8.55h2.48l.61-1.52h3.27l.62,1.52h2.52Zm-2.12,5.2,1-2.42.95,2.42Z" style="fill:#3c4d64"/><polygon points="166.64 102.27 168.99 102.27 168.99 95.83 171.54 95.83 171.54 93.77 164.09 93.77 164.09 95.83 166.64 95.83 166.64 102.27" style="fill:#3c4d64"/><path d="M114.42,93.72l-3.62,8.55h2.48l.61-1.52h3.27l.62,1.52h2.52l-3.61-8.55Zm.16,5.2,1-2.42.94,2.42Z" style="fill:#3c4d64"/><path d="M133.59,93.72,130,102.27h2.48l.6-1.52h3.27l.63,1.52h2.53l-3.63-8.55Zm.16,5.2,1-2.42.95,2.42Z" style="fill:#3c4d64"/><path d="M176.51,93.61A4.45,4.45,0,0,0,171.92,98v0a4.58,4.58,0,0,0,9.15,0v0A4.4,4.4,0,0,0,176.51,93.61ZM178.67,98a2.17,2.17,0,0,1-2.16,2.27A2.2,2.2,0,0,1,174.34,98v0a2.17,2.17,0,0,1,2.15-2.27A2.2,2.2,0,0,1,178.67,98Z" style="fill:#3c4d64"/><rect x="88.85" y="84.53" width="1.28" height="23.38" style="fill:#3c4d64"/></g></g></svg>