<svg xmlns="http://www.w3.org/2000/svg" viewBox="0 0 297.16 254.56"><title>logo-sueg</title><g id="b35ef0ff-4bbe-408f-adf4-d33626958c96" data-name="Capa 2"><g id="e67b8010-8f50-466b-bd0a-eb3e990cb3d6" data-name="Layer 1"><path d="M39.81,230.56H30.26v-3.34a16.5,16.5,0,0,0-.28-3.95,1.42,1.42,0,0,0-2.49-.11,10.81,10.81,0,0,0-.32,3.5V244.3a10.28,10.28,0,0,0,.32,3.26,1.23,1.23,0,0,0,1.27.78,1.41,1.41,0,0,0,1.42-.89,10.38,10.38,0,0,0,.37-3.45v-4.36H28.62v-5.58H39.81v19.73h-6l-.89-2.64a6.68,6.68,0,0,1-2.46,2.56,6.91,6.91,0,0,1-3.51.85,9.11,9.11,0,0,1-4.51-1.17,8.57,8.57,0,0,1-3.19-2.89,9.17,9.17,0,0,1-1.37-3.63,43.81,43.81,0,0,1-.27-5.68V230.27a36.37,36.37,0,0,1,.57-7.65,7.86,7.86,0,0,1,3.26-4.38,11.42,11.42,0,0,1,7-2,13,13,0,0,1,7,1.72,8.14,8.14,0,0,1,3.61,4.1,21.7,21.7,0,0,1,.84,6.89Z" style="fill:#32266d"/><path d="M69.89,217V241.6a42.83,42.83,0,0,1-.27,5.86A8,8,0,0,1,68,250.94a8.37,8.37,0,0,1-3.53,2.7,13.38,13.38,0,0,1-5.17.92,14.48,14.48,0,0,1-5.81-1.09,8.73,8.73,0,0,1-3.77-2.84,7.94,7.94,0,0,1-1.48-3.69Q48,245,48,238.78V217h9.56v27.56a10.68,10.68,0,0,0,.26,3.08,1,1,0,0,0,1,.67,1.1,1.1,0,0,0,1.17-.74,13.42,13.42,0,0,0,.26-3.48V217Z" style="fill:#32266d"/><path d="M94.76,217l5.47,36.76H90.46L90,247.18H86.53L86,253.79H76.07L81,217ZM89.7,240.66q-.74-6.24-1.46-15.43-1.45,10.54-1.83,15.43Z" style="fill:#32266d"/><path d="M127.84,217v36.76h-8.37l-5-16.71v16.71h-8V217h8l5.36,16.55V217Z" style="fill:#32266d"/><path d="M152.85,217l5.47,36.76h-9.77l-.51-6.61h-3.42l-.58,6.61h-9.88L139,217Zm-5.06,23.63q-.73-6.24-1.46-15.43-1.46,10.54-1.83,15.43Z" style="fill:#32266d"/><path d="M177.44,217V241.6c0,3.67,0,6-.11,7.09a5.44,5.44,0,0,1-1,2.85,4.72,4.72,0,0,1-2.5,1.76,17.37,17.37,0,0,1-4.75.49h-4.79v-6.43c.58,0,1,.07,1.25.07a2.42,2.42,0,0,0,1.61-.5,1.83,1.83,0,0,0,.68-1.22q.09-.74.09-2.82V217Z" style="fill:#32266d"/><path d="M207.52,217V241.6a42.83,42.83,0,0,1-.27,5.86,8,8,0,0,1-1.61,3.48,8.37,8.37,0,0,1-3.53,2.7,13.41,13.41,0,0,1-5.17.92,14.48,14.48,0,0,1-5.81-1.09,8.73,8.73,0,0,1-3.77-2.84,7.84,7.84,0,0,1-1.48-3.69q-.23-1.94-.22-8.16V217h9.55v27.56a10.55,10.55,0,0,0,.27,3.08,1,1,0,0,0,1.05.67,1.1,1.1,0,0,0,1.17-.74,13.91,13.91,0,0,0,.26-3.48V217Z" style="fill:#32266d"/><path d="M232.39,217l5.47,36.76h-9.77l-.51-6.61h-3.42l-.58,6.61H213.7L218.58,217Zm-5.06,23.63q-.74-6.24-1.46-15.43-1.45,10.54-1.83,15.43Z" style="fill:#32266d"/><path d="M260.82,217v7.36h-5.68v29.4h-9.55v-29.4h-5.66V217Z" style="fill:#32266d"/><path d="M289.49,238.55c0,3.7-.09,6.31-.26,7.85a8.81,8.81,0,0,1-5.35,7.14,13.52,13.52,0,0,1-5.45,1,13.72,13.72,0,0,1-5.3-1,8.62,8.62,0,0,1-3.78-2.89,8.74,8.74,0,0,1-1.7-4.2,78.27,78.27,0,0,1-.27-7.95v-6.29a78.29,78.29,0,0,1,.26-7.84,8.77,8.77,0,0,1,5.34-7.14,13.55,13.55,0,0,1,5.45-1,13.87,13.87,0,0,1,5.3,1,8.88,8.88,0,0,1,5.49,7.1,78.17,78.17,0,0,1,.27,7.94Zm-9.56-12.08a11.42,11.42,0,0,0-.28-3.28,1.14,1.14,0,0,0-1.17-.71,1.31,1.31,0,0,0-1.15.58,8.22,8.22,0,0,0-.4,3.41v17.17a16.36,16.36,0,0,0,.27,4,1.13,1.13,0,0,0,1.21.75,1.18,1.18,0,0,0,1.25-.86,18.41,18.41,0,0,0,.27-4.11Z" style="fill:#32266d"/><path d="M115.52,168.29q2.94,0,3.8-3.87t.84-18.28v-2.59l-8.92,5.16q0,12.57.85,16.07T115.52,168.29Z" style="fill:none"/><polygon points="111.24 107.7 111.24 134.6 120.16 129.66 120.16 102.06 111.24 107.7" style="fill:none"/><polygon points="111.24 61.23 111.24 86.8 120.16 92.47 120.16 66.14 111.24 61.23" style="fill:none"/><polygon points="213.64 105.11 225.06 111.72 225.06 82.84 213.64 89.45 213.64 105.11" style="fill:none"/><polygon points="194.25 47.32 202.34 42.64 194.25 42.64 194.25 47.32" style="fill:none"/><polygon points="213.64 115.89 194.25 115.89 194.25 131.22 209.03 139.13 220.34 118.2 213.64 114.72 213.64 115.89" style="fill:none"/><path d="M151.2,29v104q0,21.92-.89,30.79a1.23,1.23,0,0,1,0,.19h12.93V29Z" style="fill:none"/><path d="M39.43,73.86Q32.2,67,30.66,62.07T29.05,47.53q0-7.5,1.43-11.2c1-2.46,2.37-3.7,4.24-3.7a3.82,3.82,0,0,1,3.69,2.74q1.11,2.75,1.1,12.75V62.41H68.34V54.79q0-23-2.77-32.58A29.65,29.65,0,0,0,54.29,6.31Q45.79,0,33.69,0,22.64,0,14.82,5.78A32.3,32.3,0,0,0,3.5,21.8Q0,32,0,54.19,0,69.55,2.47,79.44T8.7,94.93q3.77,5.59,15.33,18t14.53,17.51q2.86,5.24,2.87,22.27,0,7.74-1.51,11.67c-1,2.62-2.54,3.93-4.61,3.93A4.35,4.35,0,0,1,31,165.2q-1.21-3.1-1.22-13.94V127.8H1v12.62q0,21.69,2.73,33.47A35.52,35.52,0,0,0,15.22,193.3a31.39,31.39,0,0,0,21.27,7.63,31.69,31.69,0,0,0,19.91-6.61,32.31,32.31,0,0,0,11.53-16.38q3-9.76,3-30.37,0-28.35-5.38-41.09T39.43,73.86Z" style="fill:#2f2668"/><polygon points="91.18 120.37 103.93 138.65 111.24 134.6 111.24 107.7 91.18 120.37" style="fill:#2f2668"/><path d="M297.16,75V66.7q0-23.7-2.72-36.15a43,43,0,0,0-11.73-21.5q-9-9-22.63-9a28.09,28.09,0,0,0-22.59,10.42,45.54,45.54,0,0,0-10.58,22.93q-1.62,11-1.82,33.57L232,78.84l-6.92,4v28.88l6.92,4-6.92,12v3.1q0,19.89.88,29.83a68.56,68.56,0,0,0,4.43,19,39.25,39.25,0,0,0,10.36,15.18q6.82,6.14,14.65,6.14a16.26,16.26,0,0,0,11.4-4.47q4.83-4.47,8-13.4l2.87,13.82h19.5V93.38H260.82v29.3h6.27v22.86q0,13.47-1.22,18.11t-4.61,4.64q-3.09,0-4.13-4.11t-1-17.09V54.55q0-14.77,1-18.34T261,32.63q3.31,0,4.2,4.17t.89,20.73V75Z" style="fill:#2f2668"/><polygon points="111.24 63.09 111.24 84.49 120.16 90.16 120.16 68 111.24 63.09" style="fill:none"/><path d="M115.52,168.29q2.94,0,3.8-3.87t.84-18.28v-.36l-8.91,5.16q.07,10.65.84,13.84Q112.95,168.29,115.52,168.29Z" style="fill:none"/><polygon points="194.25 45.45 199.1 42.64 194.25 42.64 194.25 45.45" style="fill:none"/><polygon points="194.25 129.03 208.63 136.72 218.23 118.95 212.35 115.89 194.25 115.89 194.25 129.03" style="fill:none"/><polygon points="194.25 63.83 194.25 79.2 207.78 79.2 218.1 73.14 206.88 56.81 194.25 63.83" style="fill:none"/><polygon points="80.21 83.11 80.21 111.44 104.68 97.28 80.21 83.11" style="fill:#2f2668"/><polygon points="100.83 57.35 92.2 72.4 111.24 84.49 111.24 63.09 100.83 57.35" style="fill:#2f2668"/><path d="M129.47,174V140.4l-9.31,5.38v.36q0,14.42-.84,18.28t-3.8,3.87q-2.58,0-3.43-3.51-.77-3.18-.84-13.84l-10.87,6.29a1.75,1.75,0,0,1-.89.24,1.88,1.88,0,0,1-.46-.06,1.79,1.79,0,0,1-1.08-.83L80.22,125.94q.07,26.1.73,35a57.57,57.57,0,0,0,4.79,19.35A35.14,35.14,0,0,0,98,195.21a32.17,32.17,0,0,0,18.88,5.72,29.16,29.16,0,0,0,16.77-4.83q7.11-4.82,11.46-14.17a65,65,0,0,0,2.49-6.15H131.25A1.78,1.78,0,0,1,129.47,174Z" style="fill:#2f2668"/><path d="M99.5,37.09a1.73,1.73,0,0,1,.89.24l10.85,6.28V4.05h-31V68.64L98,38A1.79,1.79,0,0,1,99.5,37.09Z" style="fill:#2f2668"/><path d="M129.47,20.56a1.77,1.77,0,0,1,1.78-1.78H151.2V4.05h-31V48.77l9.31,5.39Z" style="fill:#2f2668"/><polygon points="213.64 102.87 213.64 91.69 203.98 97.28 213.64 102.87" style="fill:#2f2668"/><path d="M179.2,20.56v33.6l15.05-8.71V42.64h4.85l9.18-5.31a1.7,1.7,0,0,1,.89-.24,1.77,1.77,0,0,1,1.54.89l2.7,4.66H215V4.05H163.22V18.78h14.2A1.77,1.77,0,0,1,179.2,20.56Z" style="fill:#2f2668"/><path d="M179.2,140.4V174a1.78,1.78,0,0,1-1.78,1.78h-14.2v21.1H217V158.29H194.25v-9.18Z" style="fill:#2f2668"/><path d="M164.67,69a26.77,26.77,0,0,1,3.16,2.77l.82.93V61.06a47.34,47.34,0,0,1-3.56,7.48A1.67,1.67,0,0,1,164.67,69Z" style="fill:none"/><path d="M146.2,46.61l.07,0A10.67,10.67,0,0,1,151.61,45a9.18,9.18,0,0,1,2.11.25l0,0h0l-.07-.13a.15.15,0,0,0,0-.07h0a7.65,7.65,0,0,1-.64-5.09,5.18,5.18,0,0,1,3.16-3.33,6.8,6.8,0,0,1,2.37-.42,10.77,10.77,0,0,1,5,1.41l.13.08a18.06,18.06,0,0,1,5.07,4.72V29H140V54.82c.24-.66.44-1.09.5-1.23A15,15,0,0,1,146.2,46.61Z" style="fill:none"/><path d="M180.2,97.28,211,79.2l9.36-5.49L207.13,54.47l-12.85,7.15L170.39,74.91a21.39,21.39,0,0,1,3,5.52c0,.07.06.13.08.19s0,.12.05.18a15,15,0,0,1,.7,3.66,11.78,11.78,0,0,1,0,2.14v.08c-.29,5.5-5,8.87-7.86,10.41a9.34,9.34,0,0,1-2.1,1,1.77,1.77,0,0,1-.5.07,1.79,1.79,0,0,1-.85-.22A1.77,1.77,0,0,1,161.57,99a43.62,43.62,0,0,1,3.12,3.1c4.33,5.32,6,10.8,4.95,15.94l24.64,13.18,14.78,7.92,11.3-20.93-6.7-3.49Z" style="fill:none"/><path d="M160.68,98.2l0,0v-1Z" style="fill:none"/><path d="M161.68,125.74a1.76,1.76,0,0,1-1.24-.53v3.91a1.77,1.77,0,0,1-.82,1.5c-.06,0-.12,0-.17.08l.5.46c.13.12.59.53,1.14,1.12.33.35.52.57.61.67a9.92,9.92,0,0,1,2.42,4.64h0v.06a4.36,4.36,0,0,1,0,.52c0,.07,0,.15,0,.21a15.66,15.66,0,0,1-1.7,7.28,6.7,6.7,0,0,1-.57.93,1.79,1.79,0,0,1-1.42.71h-.16a1.81,1.81,0,0,1-.9-.35,48.85,48.85,0,0,1,.11,6.47c0,.42-.06.79-.11,1.13-.4,2.55-1.42,3.82-3,3.82h0a3.16,3.16,0,0,1-2.35-1.22,4.2,4.2,0,0,1-1-2.65h0c0-.17,0-.3,0-.36v-.67c-.15.17-.3.34-.47.51a3.6,3.6,0,0,1-2.59,1.13,1.67,1.67,0,0,1-.36,0h-.07a2.32,2.32,0,0,1-1.9-2.69,8.77,8.77,0,0,1,5.11-7.29,1.31,1.31,0,0,1,.28-.09v-2a1.75,1.75,0,0,1,.87-1.53c-6.52-4.74-7.72-9.25-7.86-9.92-1.05-4.48-.68-8.15,1.1-10.91a9.35,9.35,0,0,1,5.6-4,1.37,1.37,0,0,1,.29,0v-2.89a1.75,1.75,0,0,1,.56-1.29c-3.39-2.46-10-8.73-7.55-18.77A8.26,8.26,0,0,1,152,87.58a1.1,1.1,0,0,1,.18,0,27.54,27.54,0,0,1,.19-8.32,1.77,1.77,0,0,1,1.4-1.39,47.6,47.6,0,0,0-5.12-2l-.19-.06c-2.29-.79-6.31-2.69-8.43-6.71v8L120.19,66.14l-8.92-4.91L99.87,55,89.53,73,111.27,86.8l8.92,5.67,7.58,4.81-7.58,4.79-8.92,5.63L91.21,120.37,104,138.65l7.31-4.05,8.92-4.94,19.84-11V163.9h28.14V121.73A7.54,7.54,0,0,1,161.68,125.74Z" style="fill:none"/><path d="M153.59,45h0v0Z" style="fill:#fff"/><polygon points="153.69 45.24 153.69 45.24 153.69 45.24 153.69 45.24" style="fill:#fff"/><path d="M153.62,45.1l0-.07A.15.15,0,0,1,153.62,45.1Z" style="fill:#fff"/><polygon points="164.12 137.6 164.12 137.59 164.12 137.6 164.12 137.6" style="fill:#fff"/><path d="M153.07,154.5v-.36C153.07,154.2,153.06,154.33,153.07,154.5Z" style="fill:#fff"/><path d="M152.37,79.24a1.77,1.77,0,0,1,1.4-1.39c-.71-.34-1.58-.71-2.57-1.1v11.1a8.33,8.33,0,0,1,.8-.27,1.1,1.1,0,0,1,.18,0A27.54,27.54,0,0,1,152.37,79.24Z" style="fill:none"/><path d="M160.68,98.2l0,0v-1Z" style="fill:none"/><path d="M162.85,97.91A1.77,1.77,0,0,1,161.57,99c.55.51,1.12,1,1.65,1.56v-2.5A1.66,1.66,0,0,1,162.85,97.91Z" style="fill:none"/><path d="M167.16,71.11c.24.22.46.44.67.66l.82.93V61.06c-.49,1.3-1,2.5-1.49,3.53Z" style="fill:none"/><path d="M153.07,145v-2a1.75,1.75,0,0,1,.87-1.53,29.94,29.94,0,0,1-2.76-2.27c0,2.44,0,4.73-.08,6.88a7.86,7.86,0,0,1,1.69-1A1.31,1.31,0,0,1,153.07,145Z" style="fill:none"/><path d="M152.78,116.66a1.37,1.37,0,0,1,.29,0v-2.89a1.75,1.75,0,0,1,.56-1.29,22.07,22.07,0,0,1-2.43-2v6.77A7.51,7.51,0,0,1,152.78,116.66Z" style="fill:none"/><path d="M159.62,130.62c-.06,0-.12,0-.17.08l.5.46c.13.12.59.53,1.14,1.12.33.35.52.57.61.67a14.88,14.88,0,0,1,1.52,2.17v-9.55a7.49,7.49,0,0,1-1.54.17,1.76,1.76,0,0,1-1.24-.53v3.91A1.77,1.77,0,0,1,159.62,130.62Z" style="fill:none"/><path d="M180.2,97.28,211,79.2l9.36-5.49L207.13,54.47l-12.85,7.15L170.39,74.91c.39.53.74,1.07,1.06,1.6l22.8-12.68V79.2h13.52L179.59,95.74a1.78,1.78,0,0,0,.08,3.12l32.69,17H194.25V129l-24.33-13a15.48,15.48,0,0,1-.28,2l24.64,13.18,14.78,7.92,11.3-20.93-6.7-3.49Z" style="fill:none"/><path d="M142.1,50.67V30.75h9.1v14.3l.41,0a9.18,9.18,0,0,1,2.11.25l0,0h0l-.07-.13,0-.07h0v0a7.65,7.65,0,0,1-.64-5.09,5.18,5.18,0,0,1,3.16-3.33,6.8,6.8,0,0,1,2.37-.42,10.51,10.51,0,0,1,4.74,1.3V30.75h3.94v9.83a16.07,16.07,0,0,1,1.49,1.8V29H140V54.82c.24-.66.44-1.09.5-1.23A18,18,0,0,1,142.1,50.67Z" style="fill:none"/><path d="M166.68,123.63v38.49h-3.46V144a17.15,17.15,0,0,1-.73,1.71,6.7,6.7,0,0,1-.57.93,1.79,1.79,0,0,1-1.42.71h-.16a1.81,1.81,0,0,1-.9-.35,48.85,48.85,0,0,1,.11,6.47c0,.42-.06.79-.11,1.13-.4,2.55-1.42,3.82-3,3.82h0a3.16,3.16,0,0,1-2.35-1.22,4.2,4.2,0,0,1-1-2.65h0v-1c-.15.17-.3.34-.47.51a3.54,3.54,0,0,1-1.74,1q-.17,4.14-.4,7.13H142.1V118.68a1.78,1.78,0,0,0-.87-1.53,1.82,1.82,0,0,0-.91-.24,1.78,1.78,0,0,0-.86.22l-19.3,10.68V104.37L129,98.78a1.78,1.78,0,0,0,.83-1.5,1.76,1.76,0,0,0-.83-1.5l-8.85-5.62V68l19.3,10.63a1.79,1.79,0,0,0,.86.23,1.83,1.83,0,0,0,.91-.25,1.78,1.78,0,0,0,.87-1.53v-5.2A12.31,12.31,0,0,1,140,69.06v8L120.19,66.14l-8.92-4.91L99.87,55,89.53,73,111.27,86.8l8.92,5.67,7.58,4.81-7.58,4.79-8.92,5.63L91.21,120.37,104,138.65l7.31-4.05,8.92-4.94,19.84-11V163.9h28.14V121.73A9.85,9.85,0,0,1,166.68,123.63Z" style="fill:none"/><path d="M148.65,75.83l-.19-.06a16.72,16.72,0,0,1-6.36-3.89v5.2a1.78,1.78,0,0,1-.87,1.53,1.83,1.83,0,0,1-.91.25,1.79,1.79,0,0,1-.86-.23L120.16,68V90.16L129,95.78a1.76,1.76,0,0,1,.83,1.5,1.78,1.78,0,0,1-.83,1.5l-8.85,5.59v23.44l19.3-10.68a1.78,1.78,0,0,1,.86-.22,1.82,1.82,0,0,1,.91.24,1.78,1.78,0,0,1,.87,1.53v43.44h8.36q.24-3,.4-7.13a3.56,3.56,0,0,1-.85.12,1.67,1.67,0,0,1-.36,0h-.07a2.32,2.32,0,0,1-1.9-2.69,9.1,9.1,0,0,1,3.42-6.32c0-2.15.06-4.44.08-6.88-4.11-3.83-5-7.09-5.1-7.65-1.05-4.48-.68-8.15,1.1-10.91a9.32,9.32,0,0,1,4-3.42v-6.77c-3.33-3.21-7.09-8.79-5.12-16.74a8.24,8.24,0,0,1,5.12-5.84V76.75C150.43,76.45,149.58,76.14,148.65,75.83Z" style="fill:#2f2668"/><path d="M142.1,30.75V50.67a14,14,0,0,1,4.1-4.06l.07,0a10.78,10.78,0,0,1,4.93-1.52V30.75Z" style="fill:#2f2668"/><path d="M173.42,80.62c0,.06,0,.12.05.18a15,15,0,0,1,.7,3.66,11.78,11.78,0,0,1,0,2.14v.08c-.29,5.5-5,8.87-7.86,10.41a9.34,9.34,0,0,1-2.1,1,1.77,1.77,0,0,1-.5.07,1.51,1.51,0,0,1-.48-.08v2.5c.55.54,1.06,1.07,1.47,1.54,3.76,4.63,5.53,9.37,5.23,13.91l24.33,13V115.89h18.11l-32.69-17a1.78,1.78,0,0,1-.08-3.12L207.77,79.2H194.25V63.83l-22.8,12.68a20.63,20.63,0,0,1,1.89,3.92C173.37,80.5,173.4,80.56,173.42,80.62Z" style="fill:#2f2668"/><path d="M163.58,37.66a20,20,0,0,1,3.58,2.92V30.75h-3.94v6.72l.23.11Z" style="fill:#2f2668"/><path d="M165.09,68.54a1.67,1.67,0,0,1-.42.46,26.59,26.59,0,0,1,2.49,2.11V64.59A40.84,40.84,0,0,1,165.09,68.54Z" style="fill:#2f2668"/><path d="M164.12,137.59h0v.06a4.36,4.36,0,0,1,0,.52c0,.07,0,.15,0,.21a14.45,14.45,0,0,1-1,5.57v18.16h3.46V123.63a7.1,7.1,0,0,1-3.46,1.94v9.55A7.74,7.74,0,0,1,164.12,137.59Z" style="fill:#2f2668"/><path d="M213.66,105.11l-13.52-7.83,13.52-7.83,11.43-6.61,6.92-4-6.89-11.92L211.07,42.64l-2.19-3.77-6.51,3.77-8.09,4.68-17.15,9.92V20.56H131V57.24L120.19,51l-8.92-5.16-12.07-7-19,32.78-4.16,7.19,4.16,2.4,27.72,16-27.72,16-4.16,2.4,4.17,7.2,19,32.77,12.07-7,8.92-5.16L131,137.32V174h46.18V137.32l17.15,9.92,14.6,8.45,16.21-28,6.92-12-6.92-4Zm-4.6,34-14.78-7.92L169.64,118c0,.28-.12.56-.19.84a12,12,0,0,1-1.28,2.86V163.9H140V118.68l-19.84,11-8.92,4.94L104,138.65,91.21,120.37l20.06-12.67,8.92-5.63,7.58-4.79-7.58-4.81-8.92-5.67L89.53,73,99.87,55l11.4,6.28,8.92,4.91L140,77.08v-8c-.1-.19-.2-.38-.29-.58a1.6,1.6,0,0,1-.1-.23.42.42,0,0,1,0-.1,12.49,12.49,0,0,1-.95-4.31,22,22,0,0,1,1.38-9V29h28.62V42.38A12.27,12.27,0,0,1,170.46,46l0,.09c1.17,5-.19,10.58-1.84,15V72.7a28,28,0,0,1,1.74,2.21l23.89-13.29,12.85-7.15,13.23,19.24L211,79.2,180.2,97.28l33.46,17.43,6.7,3.49Z" style="fill:#2f2668"/><path d="M155.58,44.33a.36.36,0,0,0,0,.1A.47.47,0,0,1,155.58,44.33Z" style="fill:#2f2668"/><path d="M169.1,46.51c-.49-1.66-1.92-4.63-6.14-7.36-1.8-.95-3.94-1.6-5.86-.9A3.42,3.42,0,0,0,155,40.41a6,6,0,0,0,.57,3.92.47.47,0,0,0,0,.1,9.11,9.11,0,0,0,2.8,3.11h0a12.27,12.27,0,0,1,3.28,3.51,4.86,4.86,0,0,1,.29.55l.06.14a6.21,6.21,0,0,1-.4,5.26,19.46,19.46,0,0,1-4.9,5.57l1.18.7c2.61,1.65,6,4.34,6,4.34S171.25,55.6,169.1,46.51Z" style="fill:#2f2668"/><path d="M161.52,97.24a49.67,49.67,0,0,0,.17-7.16h0a16.16,16.16,0,0,0-.46-3.51,7.94,7.94,0,0,0-1.07-2.75,8.24,8.24,0,0,0-5.69-4.23s-1.31,6.52.87,11.65h0l0,.09c.12.27.25.53.38.79.7,1.36,2.2,3.88,4.11,4.79a3,3,0,0,0,1.16.33h.23l.29,0v0Z" style="fill:#2f2668"/><path d="M163.69,103.26a70.94,70.94,0,0,0-6-5.58h0c-5.06-4.34-4.88-8.39-4.88-8.39a6.49,6.49,0,0,0-4.67,4.79c-2.32,9.3,4.09,15,7.19,17.17h0l.83.55a34.67,34.67,0,0,1,3,2.27,9.71,9.71,0,0,1,3.25,7.33A12.69,12.69,0,0,1,162,124c4.54,0,6.05-5.55,6.05-5.55C169.69,112.4,166.68,106.94,163.69,103.26Z" style="fill:#2f2668"/><path d="M159,119a6.5,6.5,0,0,0-1-3.34,4,4,0,0,0-2.78-2v12a2,2,0,0,0,.66,1.24,16.14,16.14,0,0,0,3.14,2.18Z" style="fill:#2f2668"/><path d="M162.74,138.29a3,3,0,0,0,0-.42C162.72,138,162.74,138.15,162.74,138.29Z" style="fill:#2f2668"/><path d="M162.76,138.46a1,1,0,0,0,0-.17c0-.14,0-.28,0-.42a8.46,8.46,0,0,0-2-3.79h0s-.15-.19-.53-.59-.89-.89-1-1-.49-.45-.78-.7h0l-.08-.08a22.54,22.54,0,0,1-3.77-4.11,7.55,7.55,0,0,1-.85-2.21,19.68,19.68,0,0,1-.12-6.93s-7.94,1.51-5.3,12.73c0,0,.89,4.92,8.77,10a11.67,11.67,0,0,1,3.84,4.28l.07.15a3.83,3.83,0,0,0,.4-.65A13.78,13.78,0,0,0,162.76,138.46Z" style="fill:#2f2668"/><path d="M155.2,154.45v-.25A1.66,1.66,0,0,0,155.2,154.45Z" style="fill:#2f2668"/><path d="M157.71,145.16a3.3,3.3,0,0,0-.81-1.58,2.85,2.85,0,0,0-1.7-.6v11.47a2.47,2.47,0,0,0,.55,1.53c.68.75,1.79,1.4,2.28-1.66q.06-.4.09-1A36.6,36.6,0,0,0,157.71,145.16Z" style="fill:#2f2668"/><path d="M151.68,152.73c3.18-3.21,2.16-6,2.16-6a7,7,0,0,0-4,5.85c-.08.51.15.7.44.75A1.81,1.81,0,0,0,151.68,152.73Z" style="fill:#2f2668"/><path d="M172.74,84.56a12.75,12.75,0,0,0-.63-3.23c0-.06,0-.12,0-.17h0A23.76,23.76,0,0,0,166.88,73a24.6,24.6,0,0,0-3.38-2.91h0s-.5-.38-1.38-1c-1.69-1.13-3-1.84-3-1.84h0l-.16-.07A46.87,46.87,0,0,0,154,64.83a46.48,46.48,0,0,1-4.2-2.58,3.6,3.6,0,0,1-1.65-2.35h0a1.27,1.27,0,0,1,.14-.79l.09-.11a.67.67,0,0,1,.24-.16h0l.08,0a3.07,3.07,0,0,1,1.69.51l.33.2,0,0h0a6.44,6.44,0,0,0,4.71,1.09h0l.09,0h.08a2.87,2.87,0,0,0,.54-.22,7.46,7.46,0,0,0,1.13-.64,24.37,24.37,0,0,1-3-4.3c1.49-.7,4.1,2.36,4.47,2.81a5.12,5.12,0,0,0,.76-2.81h0a7.63,7.63,0,0,0-.37-2.19,9.59,9.59,0,0,0-2.38-4.44c-.31-.31-4-3.77-9.39-.64a13.36,13.36,0,0,0-5,6.21h0a20.78,20.78,0,0,0-1.72,9.44,10.55,10.55,0,0,0,.82,3.73s0,.08,0,.12h0c1.67,3.82,5.36,5.66,7.74,6.48h0l.14,0a42.1,42.1,0,0,1,7.95,3.45c10.94,7.29,6.55,18.76,6.55,18.76a6.53,6.53,0,0,0,1.7-.81c2.46-1.32,6.73-4.27,7-9h0A11.39,11.39,0,0,0,172.74,84.56Z" style="fill:#2f2668"/><path d="M149.86,51.16a3.43,3.43,0,0,1,3.66,2c1.26,2.52,0,.5,0,.5S150.24,53.93,149.86,51.16Z" style="fill:#2f2668"/></g></g></svg>