<svg aria-hidden="true" focusable="false" data-prefix="fal" data-icon="ssglab" role="img" xmlns="http://www.w3.org/2000/svg" viewBox="0 0 564.95 217.61" class="svg-inline--fa fa-ssglab fa-w-20 fa-3x"><circle cx="22.93" cy="10.25" r="10.25" fill="#009cde"/><circle cx="12.68" cy="36.25" r="12.25" fill="#009cde"/><circle cx="20.93" cy="64.25" r="12.25" fill="#009cde"/><circle cx="39.93" cy="83.25" r="12.25" fill="#009cde"/><circle cx="66.93" cy="128.75" r="12.25" fill="#009cde"/><path d="M67.29,154.2A11.31,11.31,0,1,1,56,142.89,11.3,11.3,0,0,1,67.29,154.2Z" fill="#009cde"/><path d="M48.48,173.05a7.56,7.56,0,1,1-7.55-7.55A7.55,7.55,0,0,1,48.48,173.05Z" fill="#009cde"/><path d="M42.79,210.05a7.56,7.56,0,1,1-7.56-7.55A7.55,7.55,0,0,1,42.79,210.05Z" fill="#00447a"/><path d="M33.23,192.3a10.56,10.56,0,1,1-10.55-10.55A10.55,10.55,0,0,1,33.23,192.3Z" fill="#00447a"/><path d="M25.36,166.87A12.68,12.68,0,1,1,12.68,154.2,12.68,12.68,0,0,1,25.36,166.87Z" fill="#00447a"/><path d="M33.61,138.37A12.68,12.68,0,1,1,20.93,125.7,12.68,12.68,0,0,1,33.61,138.37Z" fill="#00447a"/><path d="M52.61,119.37A12.68,12.68,0,1,1,39.93,106.7,12.68,12.68,0,0,1,52.61,119.37Z" fill="#00447a"/><path d="M71.36,101.12A11.56,11.56,0,1,1,59.8,89.57,11.55,11.55,0,0,1,71.36,101.12Z" fill="#00447a"/><path d="M78.48,73.8A11.55,11.55,0,1,1,66.93,62.25,11.55,11.55,0,0,1,78.48,73.8Z" fill="#00447a"/><path d="M67.54,47.8A11.56,11.56,0,1,1,56,36.25,11.55,11.55,0,0,1,67.54,47.8Z" fill="#00447a"/><path d="M48.11,29.68a7.18,7.18,0,1,1-7.18-7.18A7.18,7.18,0,0,1,48.11,29.68Z" fill="#00447a"/><path d="M102.82,62.41h11.06V86.05h15.55V95.5H102.82Z" fill="#004379"/><path d="M130.57,88.17v-.09c0-5.15,3.83-8,9.83-8a19.88,19.88,0,0,1,6.1.95v-.43c0-2.36-1.47-3.73-4.78-3.73a18.83,18.83,0,0,0-7.13,1.46l-1.89-7.13a29.35,29.35,0,0,1,10.87-1.9c5.25,0,8.65,1.09,10.92,3.36,1.94,1.94,2.69,4.44,2.69,8.18V95.5H146.45V92.9A9.72,9.72,0,0,1,139,96.12C134.07,96.12,130.57,93.28,130.57,88.17Zm16-2.22V84.86a7.53,7.53,0,0,0-2.45-.42c-2.13,0-3.31,1.28-3.31,2.88v.1a2.39,2.39,0,0,0,2.45,2.5C145.17,89.92,146.59,88.41,146.59,86Z" fill="#004379"/><path d="M170.94,92.57V95.5H160.21V61h10.73V72.86c1.75-1.89,3.73-3.78,7.66-3.78,6.24,0,11.11,5.43,11.11,13.33v.09c0,8.18-4.92,13.62-11,13.62A9.63,9.63,0,0,1,170.94,92.57Zm8.37-9.93v-.09a4.32,4.32,0,1,0-8.61,0v.09a4.32,4.32,0,1,0,8.61,0Z" fill="#004379"/><path d="M191.36,82.69v-.1c0-7.27,6-13.51,14.56-13.51s14.46,6.14,14.46,13.42v.09c0,7.28-6,13.53-14.55,13.53S191.36,90,191.36,82.69Zm18.72,0v-.1A4.4,4.4,0,0,0,205.83,78a4.27,4.27,0,0,0-4.16,4.49v.09a4.41,4.41,0,0,0,4.25,4.59A4.27,4.27,0,0,0,210.08,82.69Z" fill="#004379"/><path d="M222.8,69.69h10.73v5.2c1.46-3.5,3.83-5.77,8.08-5.58V80.7h-1.13c-4.54,0-6.95,2.51-6.95,8.23V95.5H222.8Z" fill="#004379"/><path d="M241.28,88.17v-.09c0-5.15,3.83-8,9.83-8a19.83,19.83,0,0,1,6.1.95v-.43c0-2.36-1.47-3.73-4.78-3.73a18.83,18.83,0,0,0-7.13,1.46l-1.89-7.13a29.35,29.35,0,0,1,10.87-1.9c5.25,0,8.65,1.09,10.92,3.36,1.94,1.94,2.69,4.44,2.69,8.18V95.5H257.16V92.9a9.7,9.7,0,0,1-7.42,3.22C244.78,96.12,241.28,93.28,241.28,88.17Zm16-2.22V84.86a7.53,7.53,0,0,0-2.45-.42c-2.13,0-3.31,1.28-3.31,2.88v.1a2.39,2.39,0,0,0,2.46,2.5C255.89,89.92,257.3,88.41,257.3,86Z" fill="#004379"/><path d="M272.67,86.85V78h-3V69.69h3V63.21H283.4v6.48h6V78h-6v6.53c0,1.93.9,2.64,2.6,2.64a8,8,0,0,0,3.26-.8V94.6a15.46,15.46,0,0,1-6.85,1.47C276.07,96.07,272.67,93.14,272.67,86.85Z" fill="#004379"/><path d="M290.25,82.69v-.1c0-7.27,6.05-13.51,14.56-13.51s14.47,6.14,14.47,13.42v.09c0,7.28-6,13.53-14.56,13.53S290.25,90,290.25,82.69Zm18.72,0v-.1A4.4,4.4,0,0,0,304.72,78a4.27,4.27,0,0,0-4.16,4.49v.09a4.41,4.41,0,0,0,4.25,4.59A4.27,4.27,0,0,0,309,82.69Z" fill="#004379"/><path d="M321.69,69.69h10.73v5.2c1.47-3.5,3.83-5.77,8.08-5.58V80.7h-1.13c-4.54,0-6.95,2.51-6.95,8.23V95.5H321.69Z" fill="#004379"/><path d="M342.25,61h11.11v6.86H342.25Zm.19,8.7h10.73V95.5H342.44Z" fill="#004379"/><path d="M355.68,82.69v-.1c0-7.27,6.05-13.51,14.56-13.51S384.7,75.22,384.7,82.5v.09c0,7.28-6.05,13.53-14.56,13.53S355.68,90,355.68,82.69Zm18.72,0v-.1A4.4,4.4,0,0,0,370.14,78,4.27,4.27,0,0,0,366,82.5v.09a4.41,4.41,0,0,0,4.26,4.59A4.27,4.27,0,0,0,374.4,82.69Z" fill="#004379"/><path d="M399.4,62.41h28.23v9.08H410.28v3.35h16.16v8H410.28v3.59h17.58V95.5H399.4Z" fill="#004379"/><path d="M428.71,92.38l3.64-6.1a18.7,18.7,0,0,0,9.55,2.89c1,0,1.56-.24,1.56-.85v-.1c0-.52-.47-.85-3.07-1.51-6.53-1.61-10.54-3.36-10.54-8.7v-.09c0-5.68,4.54-8.84,11.25-8.84a22.92,22.92,0,0,1,11.58,3l-3.4,6.39A19,19,0,0,0,441.05,76c-1,0-1.51.29-1.51.81v.09c0,.52.56.85,3.16,1.52,6.53,1.6,10.45,3.4,10.45,8.69v.1c0,5.62-4.21,8.89-11.2,8.89A23.63,23.63,0,0,1,428.71,92.38Z" fill="#004379"/><path d="M456.89,86.85V78h-3V69.69h3V63.21h10.73v6.48h5.95V78h-5.95v6.53c0,1.93.9,2.64,2.6,2.64a8.06,8.06,0,0,0,3.26-.8V94.6a15.43,15.43,0,0,1-6.85,1.47C460.29,96.07,456.89,93.14,456.89,86.85Z" fill="#004379"/><path d="M475,88.17v-.09c0-5.15,3.83-8,9.84-8a19.81,19.81,0,0,1,6.09.95v-.43c0-2.36-1.46-3.73-4.77-3.73A18.84,18.84,0,0,0,479,78.29l-1.89-7.13A29.39,29.39,0,0,1,488,69.26c5.25,0,8.65,1.09,10.92,3.36,1.94,1.94,2.7,4.44,2.7,8.18V95.5H490.88V92.9a9.74,9.74,0,0,1-7.43,3.22C478.49,96.12,475,93.28,475,88.17ZM491,86V84.86a7.59,7.59,0,0,0-2.46-.42c-2.13,0-3.31,1.28-3.31,2.88v.1a2.4,2.4,0,0,0,2.46,2.5C489.6,89.92,491,88.41,491,86Z" fill="#004379"/><path d="M506.38,86.85V78h-3V69.69h3V63.21h10.73v6.48h6V78h-6v6.53c0,1.93.9,2.64,2.6,2.64a8,8,0,0,0,3.26-.8V94.6a15.43,15.43,0,0,1-6.85,1.47C509.78,96.07,506.38,93.14,506.38,86.85Z" fill="#004379"/><path d="M524.49,88.17v-.09c0-5.15,3.83-8,9.83-8a19.93,19.93,0,0,1,6.1.95v-.43c0-2.36-1.47-3.73-4.78-3.73a18.88,18.88,0,0,0-7.14,1.46l-1.89-7.13a29.44,29.44,0,0,1,10.88-1.9c5.24,0,8.65,1.09,10.92,3.36,1.93,1.94,2.69,4.44,2.69,8.18V95.5H540.37V92.9A9.74,9.74,0,0,1,533,96.12C528,96.12,524.49,93.28,524.49,88.17Zm16-2.22V84.86a7.55,7.55,0,0,0-2.46-.42c-2.12,0-3.31,1.28-3.31,2.88v.1a2.4,2.4,0,0,0,2.46,2.5C539.09,89.92,540.51,88.41,540.51,86Z" fill="#004379"/><path d="M554.22,61H565V95.5H554.22Z" fill="#004379"/><path d="M101.78,127.64v-.09c0-8.21,4.94-13.67,11.06-13.67a9.66,9.66,0,0,1,7.78,3.56V105.77H131.4v34.64H120.62v-3.18c-1.75,1.9-3.75,3.8-7.69,3.8C106.67,141,101.78,135.57,101.78,127.64Zm19.08-.14v-.09a4.33,4.33,0,1,0-8.64,0v.09a4.33,4.33,0,1,0,8.64,0Z" fill="#004379"/><path d="M133.82,127.6v-.1c0-7.73,5.55-13.62,13.33-13.62,9.21,0,13.48,6.41,13.48,14.29,0,.56,0,1.23,0,1.8H143.93a4.84,4.84,0,0,0,4.88,3.46c1.95,0,3.56-.9,5.27-2.66l5.79,4.61A14,14,0,0,1,148.06,141C139.56,141,133.82,135.66,133.82,127.6Zm17-2.38c-.24-2.47-1.71-3.89-3.61-3.89s-3.08,1.52-3.42,3.89Z" fill="#004379"/><path d="M172.59,135.43l5.94-7.08a19,19,0,0,0,11.62,3.9c2,0,2.85-.53,2.85-1.43v-.09c0-.95-1-1.47-4.6-2.19-7.45-1.51-14-3.65-14-10.67v-.1c0-6.31,4.93-11.2,14.09-11.2,6.41,0,11.15,1.52,15,4.56l-5.41,7.5a17.41,17.41,0,0,0-10-3.28c-1.66,0-2.42.57-2.42,1.38v.09c0,.9.9,1.47,4.41,2.14,8.5,1.56,14.19,4,14.19,10.72v.1c0,7-5.74,11.25-14.66,11.25C182.89,141,176.82,139.13,172.59,135.43Z" fill="#004379"/><path d="M205.58,133.05V133c0-5.17,3.84-8.07,9.87-8.07a20.34,20.34,0,0,1,6.12,1v-.43c0-2.37-1.47-3.75-4.79-3.75a18.81,18.81,0,0,0-7.17,1.47l-1.9-7.16a29.63,29.63,0,0,1,10.92-1.9c5.27,0,8.68,1.09,11,3.37,1.95,2,2.7,4.46,2.7,8.21v14.76H221.52V137.8a9.78,9.78,0,0,1-7.45,3.23C209.09,141,205.58,138.18,205.58,133.05Zm16.09-2.23v-1.09a7.38,7.38,0,0,0-2.47-.43c-2.14,0-3.32,1.28-3.32,2.9v.09a2.41,2.41,0,0,0,2.46,2.52C220.24,134.81,221.67,133.29,221.67,130.82Z" fill="#004379"/><path d="M235.43,105.77H246.2v34.64H235.43Z" fill="#004379"/><path d="M249.34,131.58V114.5h10.77v13.62c0,2.23,1.33,3.51,2.94,3.51a3.2,3.2,0,0,0,3.08-3.51V114.5h10.78v25.91H266.13v-3.47a9.9,9.9,0,0,1-7.92,4.09C252.75,141,249.34,137.42,249.34,131.58Z" fill="#004379"/><path d="M279.38,127.64v-.09c0-8.21,4.93-13.67,11.05-13.67a9.68,9.68,0,0,1,7.79,3.56V105.77H309v34.64H298.22v-3.18c-1.76,1.9-3.75,3.8-7.69,3.8C284.27,141,279.38,135.57,279.38,127.64Zm19.07-.14v-.09a4.33,4.33,0,1,0-8.63,0v.09a4.33,4.33,0,1,0,8.63,0Z" fill="#004379"/><path d="M324.56,107.19h14.95c8.82,0,14.85,3.94,14.85,11.82v.09c0,8-6.12,12.29-15.09,12.29h-3.61v9h-11.1Zm14.09,16.28c2.85,0,4.75-1.28,4.75-3.66v-.09c0-2.42-1.76-3.66-4.7-3.66h-3v7.41Z" fill="#004379"/><path d="M356.5,131.58V114.5h10.77v13.62c0,2.23,1.33,3.51,2.94,3.51a3.2,3.2,0,0,0,3.09-3.51V114.5h10.77v25.91H373.3v-3.47a9.91,9.91,0,0,1-7.93,4.09C359.92,141,356.5,137.42,356.5,131.58Zm14.28-27.81,10.49,2.71-7.83,6.4h-7.21Z" fill="#004379"/><path d="M398.07,137.47v2.94H387.3V105.77h10.77v11.91c1.76-1.9,3.75-3.8,7.69-3.8,6.27,0,11.15,5.46,11.15,13.38v.1c0,8.21-4.93,13.67-11.05,13.67A9.68,9.68,0,0,1,398.07,137.47Zm8.4-10v-.09a4.33,4.33,0,1,0-8.63,0v.09a4.33,4.33,0,1,0,8.63,0Z" fill="#004379"/><path d="M419.48,105.77h10.77v34.64H419.48Z" fill="#004379"/><path d="M433.48,105.77h11.15v6.88H433.48Zm.19,8.73h10.77v25.91H433.67Z" fill="#004379"/><path d="M447,127.6v-.1c0-7.26,5.69-13.57,14.14-13.57a12.38,12.38,0,0,1,11.72,7.16l-7.73,4.37c-.91-1.66-2-2.61-3.8-2.61-2.28,0-4,2-4,4.56v.09c0,2.71,1.71,4.65,3.85,4.65,1.89,0,3-1,4-2.61L473,134c-2.32,4.32-6.26,7.07-12.43,7.07A13.43,13.43,0,0,1,447,127.6Z" fill="#004379"/><path d="M473.68,133.05V133c0-5.17,3.84-8.07,9.87-8.07a20.34,20.34,0,0,1,6.12,1v-.43c0-2.37-1.47-3.75-4.79-3.75a18.81,18.81,0,0,0-7.17,1.47l-1.9-7.16a29.63,29.63,0,0,1,10.92-1.9c5.27,0,8.68,1.09,11,3.37,1.94,2,2.7,4.46,2.7,8.21v14.76H489.62V137.8a9.78,9.78,0,0,1-7.45,3.23C477.19,141,473.68,138.18,473.68,133.05Zm16.08-2.23v-1.09a7.27,7.27,0,0,0-2.46-.43c-2.14,0-3.32,1.28-3.32,2.9v.09a2.41,2.41,0,0,0,2.46,2.52C488.34,134.81,489.76,133.29,489.76,130.82Z" fill="#004379"/><path d="M237,161.86v-.06a9.64,9.64,0,0,1,9.76-9.78,10.21,10.21,0,0,1,7.27,2.57l-2.11,2.51a7.42,7.42,0,0,0-5.3-2,6.4,6.4,0,0,0-6.13,6.67v.05c0,3.9,2.57,6.76,6.43,6.76a7.74,7.74,0,0,0,4.57-1.43v-3.54h-4.84V160.7h8.05v7.94a12,12,0,0,1-7.89,3A9.39,9.39,0,0,1,237,161.86Z" fill="#009cde"/><path d="M266.86,163.24V152.35h3.32V163.1c0,3.51,1.82,5.41,4.79,5.41s4.75-1.79,4.75-5.27V152.35h3.33v10.72c0,5.65-3.19,8.49-8.13,8.49S266.86,168.72,266.86,163.24Z" fill="#009cde"/><path d="M302.43,152.21h3.08l8.32,19h-3.51l-1.92-4.56h-8.94l-1.95,4.56H294.1Zm4.75,11.54-3.27-7.57-3.24,7.57Z" fill="#009cde"/><path d="M325.18,152.35h3.09l10.13,13.08V152.35h3.27v18.91h-2.78L328.46,157.8v13.46h-3.28Z" fill="#009cde"/><path d="M361.35,152.21h3.08l8.32,19h-3.51l-1.92-4.56h-8.95l-1.94,4.56H353Zm4.75,11.54-3.27-7.57-3.24,7.57Z" fill="#009cde"/><path d="M382.24,168.48l2.19-2.24c1.11,1.4,2.21,2.21,3.81,2.21,1.78,0,3-1.19,3-3.7v-12.4h3.4v12.48a6.91,6.91,0,0,1-1.75,5,6.32,6.32,0,0,1-4.6,1.67A7.12,7.12,0,0,1,382.24,168.48Z" fill="#009cde"/><path d="M407,163.24V152.35h3.33V163.1c0,3.51,1.81,5.41,4.78,5.41s4.75-1.79,4.75-5.27V152.35h3.33v10.72c0,5.65-3.19,8.49-8.14,8.49S407,168.72,407,163.24Z" fill="#009cde"/><path d="M442.59,152.21h3.08l8.32,19h-3.51l-1.92-4.56h-8.94l-1.95,4.56h-3.41Zm4.75,11.54-3.27-7.57-3.24,7.57Z" fill="#009cde"/><path d="M470,155.43h-6v-3.08h15.35v3.08h-6v15.83H470Z" fill="#009cde"/><path d="M490.13,161.86v-.06a9.89,9.89,0,0,1,19.78-.05v.05a9.89,9.89,0,0,1-19.78.06Zm16.29,0v-.06a6.47,6.47,0,0,0-6.43-6.72,6.4,6.4,0,0,0-6.38,6.67v.05a6.48,6.48,0,0,0,6.44,6.73A6.39,6.39,0,0,0,506.42,161.86Z" fill="#009cde"/></svg>