<svg xmlns="http://www.w3.org/2000/svg" viewBox="0 0 221.42 124.51"><title>logo-cemt</title><g id="af840ebc-1fac-46a2-b4e7-0c6892bb366d" data-name="Capa 2"><g id="e070a556-c51c-4ead-9423-8600a90bcba2" data-name="Layer 1"><path d="M72.79,92.91a26.79,26.79,0,0,0,1.54-22.75A27.14,27.14,0,0,0,72,65.63h0L71.6,65h0c-.23-.34-.46-.66-.7-1L56,43.06h0l-2.33-3.28-2-2.81L51,36l-.49-.69h0l-.07-.08-.31-.44h0a13.61,13.61,0,0,1-1-1.61,14.52,14.52,0,0,1-1.26-3.64,15.87,15.87,0,0,1-.27-2.41s0,0,0-.05V27a14.2,14.2,0,0,1,18.7-13.83c.3.1.58.21.87.33a1.61,1.61,0,0,1,.59,1.64c-.29,1.27-.21,3.88,3.32,7.41l7.62,6.58s2,2.44,5.5.55a36.32,36.32,0,0,0-1.14-7.15,64.57,64.57,0,0,0-4.35-12.09L77.27,7.74a5.22,5.22,0,0,0-.33-.62,13.19,13.19,0,0,0-2.49-3c-.18-.17-.38-.34-.58-.51A15.3,15.3,0,0,0,67.81.68l-.09,0h0A26.19,26.19,0,0,0,61.12,0a26.7,26.7,0,0,0-26,25h0a29.07,29.07,0,0,0,5.64,18.91l-1.62,2.51,0,.06-1,1.59L24.17,28.86h-.09l-7-9.73L0,19.36l29,40,0-.06h0L30,60.55,28,63.49a26.72,26.72,0,0,0-3.94,7.4l-.6,2a26.45,26.45,0,0,0-.84,7.05V80a26.74,26.74,0,0,0,40.12,22.79l15.55,21.69,17-.23Zm-18.38,0a14.22,14.22,0,0,1-19.22-13,15.15,15.15,0,0,1,.18-2.36,13.84,13.84,0,0,1,1.11-3.69,13.61,13.61,0,0,1,.89-1.64s0,0,0,0,.19-.3.29-.44l.07-.09h0l.45-.7.68-1L55.29,92.49ZM47,57.38,48.61,55l.06.09h0l0,0,2,2.85,9.81,13.12c.17.21.33.43.49.66l0,.06h0a10.71,10.71,0,0,1,.59.9v0h0a14.09,14.09,0,0,1,1.95,7c0,.18,0,.35,0,.53l0-.08Z" style="fill:#de0b36"/><path d="M93.29,43.75a4.14,4.14,0,0,1,4.14,2.91H96.35a3.19,3.19,0,0,0-3.06-1.89,3.48,3.48,0,0,0-3.58,3.74,3.53,3.53,0,0,0,3.57,3.74,3.18,3.18,0,0,0,3.13-2.07h1.07a4.12,4.12,0,0,1-4.19,3.09,4.76,4.76,0,0,1,0-9.52Z" style="fill:#de0b36"/><path d="M104.78,50.06H99.69a2.31,2.31,0,0,0,2.55,2.38,5.54,5.54,0,0,0,2.17-.46l.16.78a5.53,5.53,0,0,1-2.35.55,3.29,3.29,0,0,1-3.57-3.53,3.14,3.14,0,0,1,3.29-3.17C104.12,46.62,105.14,48,104.78,50.06Zm-5-.79h4.17c.07-1.21-.82-1.84-2-1.84A2.09,2.09,0,0,0,99.73,49.27Z" style="fill:#de0b36"/><path d="M111.39,53.16v-3.8a1.73,1.73,0,0,0-1.79-1.88,1.82,1.82,0,0,0-1.92,1.84v3.84h-1V48.59c0-.87-.06-1.09-.74-1l0-.82c.75-.11,1.73-.27,1.73,1a2.67,2.67,0,0,1,4.83,1.65v3.8Z" style="fill:#de0b36"/><path d="M116,46.78h2.35v.76H116v3.14c0,1.63,1,2.1,2.55,1.53l.12.83c-2.19.71-3.71.08-3.71-2.34V47.54l-1.37-.07v-.69H115l.1-2H116Z" style="fill:#de0b36"/><path d="M123,46.54a2.52,2.52,0,0,1,1.51.48l-.26.88a2.43,2.43,0,0,0-1.35-.43,1.73,1.73,0,0,0-1.77,1.7v4h-1v-4.9c0-.59,0-.95-.77-.88v-.69c1-.18,1.7-.07,1.74.91A1.94,1.94,0,0,1,123,46.54Z" style="fill:#de0b36"/><path d="M125,49.94c0-4.45,6.75-4.45,6.75,0S125,54.4,125,49.94Zm5.72,0a2.34,2.34,0,1,0-4.67,0A2.34,2.34,0,1,0,130.73,49.94Z" style="fill:#de0b36"/><path d="M142.46,44.82h-4.3v3h4.15v1h-4.15v3.3h4.44v1H137V43.85h5.42Z" style="fill:#de0b36"/><path d="M144.91,51.35c.07.82,1,1.13,1.84,1.13s1.77-.37,1.81-1.15-.61-.89-1.8-1.07-2.64-.41-2.68-1.74,1.33-1.9,2.66-1.9,2.7.6,2.66,1.83h-1c0-.69-.83-1-1.66-1s-1.72.31-1.68,1.05.61.79,1.8,1,2.75.36,2.71,1.88c0,1.31-1.33,2-2.82,2s-2.74-.5-2.85-2Z" style="fill:#de0b36"/><path d="M152.85,46.78h2.36v.76h-2.36v3.14c0,1.63,1,2.1,2.56,1.53l.12.83c-2.2.71-3.71.08-3.71-2.34V47.54l-1.37-.07v-.69h1.43l.11-2h.86Z" style="fill:#de0b36"/><path d="M158.53,53.27a2.07,2.07,0,0,1-2.26-2,2.19,2.19,0,0,1,2.45-2.22,4.64,4.64,0,0,1,2.2.53v-.79c0-1.07-1.14-1.37-2-1.37a3.83,3.83,0,0,0-2,.47l-.17-.82a5.07,5.07,0,0,1,2.28-.48c1.45,0,2.85.56,2.81,2.23v2.67c0,.71,0,1.12.74,1l0,.68c-1.07.18-1.57,0-1.57-1.2A2.79,2.79,0,0,1,158.53,53.27Zm2.38-2.89a4.37,4.37,0,0,0-2-.52c-.85,0-1.64.47-1.6,1.39s.71,1.13,1.43,1.13A2.17,2.17,0,0,0,160.91,51Z" style="fill:#de0b36"/><path d="M165.53,46.78h2.35v.76h-2.35v3.14c0,1.63,1,2.1,2.55,1.53l.12.83c-2.2.71-3.71.08-3.71-2.34V47.54l-1.37-.07v-.69h1.43l.11-2h.87Z" style="fill:#de0b36"/><path d="M171.2,53.27a2.07,2.07,0,0,1-2.26-2,2.19,2.19,0,0,1,2.45-2.22,4.71,4.71,0,0,1,2.21.53v-.79c0-1.07-1.15-1.37-2-1.37a3.87,3.87,0,0,0-2,.47l-.17-.82a5.09,5.09,0,0,1,2.29-.48c1.45,0,2.84.56,2.8,2.23v2.67c0,.71,0,1.12.75,1v.68c-1.06.18-1.57,0-1.57-1.2A2.79,2.79,0,0,1,171.2,53.27Zm2.38-2.89a4.37,4.37,0,0,0-2-.52c-.85,0-1.63.47-1.59,1.39s.7,1.13,1.42,1.13A2.17,2.17,0,0,0,173.58,51Z" style="fill:#de0b36"/><path d="M177.64,43.41v7.44c0,1.25.27,1.69,1.61,1.51l0,.83c-2,.32-2.7-.36-2.7-2.34V43.41Z" style="fill:#de0b36"/><path d="M188.42,51.79a2.45,2.45,0,0,1-2.31,1.49c-1.92,0-3-1.54-3-3.34a3.06,3.06,0,0,1,3.08-3.28,3.56,3.56,0,0,1,2,.64V43.43h1v7.62c0,.86-.16,1.49.76,1.38v.76c-1,.17-1.64,0-1.64-1.1Zm-.14-3.53a3.14,3.14,0,0,0-1.94-.68,2.14,2.14,0,0,0-2.13,2.36c0,1.28.66,2.41,2,2.41a2,2,0,0,0,2-2.13Z" style="fill:#de0b36"/><path d="M197.2,50.06h-5.09a2.31,2.31,0,0,0,2.55,2.38,5.54,5.54,0,0,0,2.17-.46l.16.78a5.54,5.54,0,0,1-2.36.55,3.29,3.29,0,0,1-3.56-3.53,3.14,3.14,0,0,1,3.28-3.17C196.54,46.62,197.56,48,197.2,50.06Zm-5-.79h4.17c.07-1.21-.82-1.84-2-1.84A2.08,2.08,0,0,0,192.15,49.27Z" style="fill:#de0b36"/><path d="M102.68,107.69a4,4,0,0,1,4.14,2.8h-1.09a2.87,2.87,0,0,0-3-1.79,3.77,3.77,0,0,0,0,7.53,3.15,3.15,0,0,0,3.46-3h-3.31v-1h4.33a5.57,5.57,0,0,1-.35,2.42,4.21,4.21,0,0,1-4.13,2.61,4.79,4.79,0,0,1,0-9.58Z" style="fill:#de0b36"/><path d="M112.3,114v-6.14h1.11V114a2.46,2.46,0,0,0,4.91,0v-6.13h1.09V114a3.57,3.57,0,0,1-7.11,0Z" style="fill:#de0b36"/><path d="M126,114.84l-1.1,2.3h-1.15V117l4.33-9.2h.51l4.3,9.2v.15h-1.15l-1.09-2.3Zm.37-1h3.91l-2-4.35Z" style="fill:#de0b36"/><path d="M138.28,110.1l.09,2.55v4.49h-1.1V107.8h.38l6.07,7-.12-2.68v-4.36h1.12v9.34h-.36Z" style="fill:#de0b36"/><path d="M151.36,114.84l-1.09,2.3h-1.15V117l4.33-9.2H154l4.29,9.2v.15h-1.14l-1.09-2.3Zm.38-1h3.91l-2-4.35Z" style="fill:#de0b36"/><path d="M168.45,114a3.21,3.21,0,0,1-3.5,3.26,3.16,3.16,0,0,1-3.4-3.26v-1h1v1a2.13,2.13,0,0,0,2.35,2.26,2.16,2.16,0,0,0,2.38-2.26v-5.19h-2.27v-1h3.39Z" style="fill:#de0b36"/><path d="M174.18,114v-6.14h1.12V114a2.46,2.46,0,0,0,4.91,0v-6.13h1.09V114a3.57,3.57,0,0,1-7.12,0Z" style="fill:#de0b36"/><path d="M187.85,114.84l-1.09,2.3h-1.15V117l4.33-9.2h.51l4.29,9.2v.15H193.6l-1.09-2.3Zm.37-1h3.91l-1.95-4.35Z" style="fill:#de0b36"/><path d="M197.77,108.82v-1h6.82v1h-2.87v8.32h-1.08v-8.32Z" style="fill:#de0b36"/><path d="M213.26,117.28a4.81,4.81,0,0,1,0-9.61,4.81,4.81,0,0,1,0,9.61Zm0-1a3.8,3.8,0,1,0-3.59-3.78A3.57,3.57,0,0,0,213.26,116.26Z" style="fill:#de0b36"/><path d="M103.22,59.27h1.31V73.38h-3.68v-6.5l-3,3.14h-.42l-3-3.14v6.5H90.76V59.27h1.3l5.59,6.09Z" style="fill:#de0b36"/><path d="M115.93,69.34h-6c.17,1.26,1.25,1.55,2.42,1.55a9.22,9.22,0,0,0,3.27-.63l.39,2.47a9.72,9.72,0,0,1-3.88.91c-3.24,0-5.61-1.85-5.61-5.15a4.86,4.86,0,0,1,5.14-5.06C115.34,63.49,116.79,65.92,115.93,69.34Zm-2.86-2c.1-.89-.74-1.25-1.45-1.25a1.65,1.65,0,0,0-1.68,1.25Z" style="fill:#de0b36"/><path d="M124.79,72a2.87,2.87,0,0,1-2.61,1.61c-3,.06-4.65-2.21-4.65-5.09a4.91,4.91,0,0,1,4.73-5.1,5,5,0,0,1,1.87.38V58.7h3.41V70.38c0,.77,0,1.11.81,1.11v1.89c-1.31.32-3.5.54-3.56-1.23Zm-.58-5.27a3.34,3.34,0,0,0-1.31-.3,1.87,1.87,0,0,0-1.85,2.09c0,1.19.48,2.07,1.69,2.07a1.55,1.55,0,0,0,1.47-1.7Z" style="fill:#de0b36"/><path d="M132.07,59.17a1.94,1.94,0,1,1-2,1.93A1.88,1.88,0,0,1,132.07,59.17Zm1.67,14.21h-3.42l0-9.55h3.4Z" style="fill:#de0b36"/><path d="M142.46,67.47a1.55,1.55,0,0,0-1.53-1.11A2,2,0,0,0,139,68.49a2,2,0,0,0,1.85,2.15,1.6,1.6,0,0,0,1.61-1.22h3.25a4.77,4.77,0,0,1-5,4.16,4.91,4.91,0,0,1-5.09-5.09,5,5,0,0,1,5.21-5.12,4.7,4.7,0,0,1,4.9,4.1Z" style="fill:#de0b36"/><path d="M149.21,59.17a1.94,1.94,0,1,1-2,1.93A1.88,1.88,0,0,1,149.21,59.17Zm1.67,14.21h-3.42l0-9.55h3.39Z" style="fill:#de0b36"/><path d="M160.05,73.38V67.83a1.47,1.47,0,0,0-1.41-1.67A1.61,1.61,0,0,0,157,67.89v5.49h-3.42V66.64c0-.74,0-1.1-.82-1.1V63.67c1.35-.32,4.08-.54,4.14,1.35a3.12,3.12,0,0,1,2.8-1.55c2.81,0,3.83,1.93,3.77,4.36v5.55Z" style="fill:#de0b36"/><path d="M168.73,73.56a3.31,3.31,0,0,1-3.52-3.06c-.1-2.45,1.53-3.59,3.76-3.59a4.1,4.1,0,0,1,2.17.54v-.3c0-1-1.34-1.11-2.09-1.11a5.75,5.75,0,0,0-2.67.52l-.4-2.43a9.32,9.32,0,0,1,3.68-.7c2.63,0,4.82.92,4.82,3.82v3.11c0,.73,0,1.13.81,1.13v1.87c-1.39.32-3.22.5-3.44-1.33A3.39,3.39,0,0,1,168.73,73.56Zm2.39-4a2.51,2.51,0,0,0-1.52-.44c-.71.06-1.19.44-1,1.16a.82.82,0,0,0,.91.69c.7,0,1.66-.39,1.66-1.21Z" style="fill:#de0b36"/><path d="M89.63,86.65V83.43h10.45v3.22H96.65V97.5H93.09V86.65Z" style="fill:#de0b36"/><path d="M106.82,87.51a3.18,3.18,0,0,1,2,.58l-.68,2.78a2.65,2.65,0,0,0-1.67-.49,2.11,2.11,0,0,0-2.13,2.25V97.5H101V90.75c0-.75,0-1.11-.86-1.11V87.77c1.34-.32,4-.54,4.12,1.33A2.65,2.65,0,0,1,106.82,87.51Z" style="fill:#de0b36"/><path d="M112.83,97.68a3.31,3.31,0,0,1-3.52-3.05c-.1-2.46,1.53-3.6,3.76-3.6a4.12,4.12,0,0,1,2.17.54v-.3c0-1-1.34-1.11-2.09-1.11a5.63,5.63,0,0,0-2.67.53l-.4-2.44a9.31,9.31,0,0,1,3.67-.7c2.64,0,4.83.92,4.83,3.82v3.11c0,.73,0,1.13.8,1.13v1.87c-1.38.32-3.21.5-3.43-1.33A3.39,3.39,0,0,1,112.83,97.68Zm2.39-4a2.52,2.52,0,0,0-1.53-.44c-.7.06-1.18.44-1,1.16a.81.81,0,0,0,.9.69c.71,0,1.67-.38,1.67-1.21Z" style="fill:#de0b36"/><path d="M127.88,97.5V92a1.46,1.46,0,0,0-1.4-1.67A1.61,1.61,0,0,0,124.85,92V97.5h-3.42V90.77c0-.75,0-1.11-.82-1.11V87.79c1.35-.32,4.08-.54,4.14,1.35a3.12,3.12,0,0,1,2.79-1.55c2.82,0,3.84,1.93,3.78,4.36V97.5Z" style="fill:#de0b36"/><path d="M136.41,94.42c0,.63.56.87,1.13.87s1.12-.26,1.12-.77-.52-.68-1.07-.74c-1.9-.22-4.36-.58-4.36-3s2.15-3.3,4.32-3.3,4.39,1.17,4.29,3.3h-3c-.06-.49-.64-.75-1.2-.73s-1,.24-1,.65c-.06.6.66.62,1.13.68,2.15.22,4.44.52,4.38,3.09-.06,2.2-2.23,3.26-4.44,3.26s-4.55-.56-4.61-3.36Z" style="fill:#de0b36"/><path d="M144.85,90.22H143.2V87.81h1.69l0-1c0-4.2,3.34-4.55,6.65-3.68l-.32,2.53c-1.2-.36-3-.6-3,1.23v.94h2.81v2.41h-2.81V97.5h-3.44Z" style="fill:#de0b36"/><path d="M162.14,87.81v6.84c0,.64,0,.94.8.94v1.87c-1.3.32-4.14.74-4.14-1.41A3.08,3.08,0,0,1,156,97.64c-2.9,0-3.58-1.91-3.58-4.34V87.81h3.46V93.3c-.06,1.16.58,1.67,1.26,1.67a1.61,1.61,0,0,0,1.55-1.73V87.81Z" style="fill:#de0b36"/><path d="M167.63,94.42c0,.63.56.87,1.12.87s1.13-.26,1.13-.77-.52-.68-1.07-.74c-1.91-.22-4.36-.58-4.36-3s2.15-3.3,4.32-3.3,4.38,1.17,4.28,3.3h-3c-.06-.49-.64-.75-1.21-.73s-1,.24-1,.65c-.06.6.66.62,1.12.68,2.15.22,4.44.52,4.38,3.09-.06,2.2-2.23,3.26-4.44,3.26s-4.54-.56-4.6-3.36Z" style="fill:#de0b36"/><path d="M177,83.29a1.94,1.94,0,1,1-2,1.93A1.88,1.88,0,0,1,177,83.29Zm1.67,14.21h-3.41V88h3.4Z" style="fill:#de0b36"/><path d="M185.66,97.72a5.11,5.11,0,1,1,5.12-5.1A4.93,4.93,0,0,1,185.66,97.72Zm0-3a2.16,2.16,0,0,0,0-4.23c-.89,0-1.77.69-1.77,2.12S184.77,94.75,185.66,94.73Z" style="fill:#de0b36"/><path d="M199.39,97.5V92A1.47,1.47,0,0,0,198,90.28,1.61,1.61,0,0,0,196.35,92V97.5h-3.42V90.77c0-.75,0-1.11-.82-1.11V87.79c1.35-.32,4.08-.54,4.14,1.35A3.12,3.12,0,0,1,199,87.59c2.82,0,3.84,1.93,3.78,4.36V97.5Z" style="fill:#de0b36"/><path d="M208.07,97.68a3.31,3.31,0,0,1-3.52-3.05c-.1-2.46,1.53-3.6,3.76-3.6a4.1,4.1,0,0,1,2.17.54v-.3c0-1-1.34-1.11-2.09-1.11a5.63,5.63,0,0,0-2.67.53l-.4-2.44a9.32,9.32,0,0,1,3.68-.7c2.63,0,4.82.92,4.82,3.82v3.11c0,.73,0,1.13.8,1.13v1.87c-1.38.32-3.21.5-3.43-1.33A3.4,3.4,0,0,1,208.07,97.68Zm2.39-4a2.52,2.52,0,0,0-1.53-.44c-.7.06-1.18.44-1,1.16a.81.81,0,0,0,.9.69c.71,0,1.67-.38,1.67-1.21Z" style="fill:#de0b36"/><path d="M219.63,82.81V93.64c0,1.31.66,1.57,1.69,1.41l.1,2.55c-3,.54-5.17-.2-5.17-3.94V82.81Z" style="fill:#de0b36"/><polygon points="38.07 48.04 29.95 60.55 0 19.36 17.03 19.14 38.07 48.04" style="fill:#0f4b88"/><polygon points="47.03 57.38 38.87 69.85 78.33 124.51 95.38 124.28 47.03 57.38" style="fill:#0f4b88"/></g></g></svg>