<svg xmlns="http://www.w3.org/2000/svg" viewBox="0 0 117 72.6">
	<path fill="currentColor" d="M49.1,53.6l0,0.2l-0.1,0.5l-0.1,0.5l-0.1,0.4l-0.1,0.4l-0.2,0.4l-0.2,0.4L48,56.9l-0.2,0.4l-0.2,0.4
		l-0.2,0.4l-0.2,0.4L47.1,59l-0.2,0.4l-0.2,0.4l-0.2,0.4l-0.2,0.4L46,60.9l-0.2,0.4l-0.3,0.4L45.2,62l-0.3,0.3l-0.3,0.3L44.4,63
		l-0.3,0.3l-0.3,0.3L43.5,64l-0.3,0.3l-0.3,0.3l-0.3,0.3l-0.3,0.3l-0.3,0.3l-0.3,0.3L41.2,66l-0.3,0.3l-0.3,0.3l-0.3,0.2L39.9,67
		l-0.3,0.2l-0.4,0.2l-0.4,0.2l-0.4,0.2L38.1,68l-0.4,0.2l-0.4,0.2L37,68.5l-0.4,0.1l-0.4,0.1l-0.4,0.1l-0.4,0.1l-0.4,0.1l-0.4,0.1
		l-0.4,0.1L34,69.4l-0.4,0.1l-0.4,0.1l-0.4,0.1l-0.4,0l-0.4,0l-0.4,0l-0.4,0l-0.4,0h-0.3l-0.3,0l-0.3,0l-0.3,0l-0.3,0l-0.3,0l-0.3,0
		l-0.3,0l-0.3,0l-0.3,0l-0.3,0l-0.3,0l-0.3,0l-0.2-0.1l-0.2-0.1l-0.2-0.1l-0.2-0.1L26,69.1L25.8,69l-0.2-0.1l-0.2-0.1l-0.2-0.1
		l-0.2-0.1l-0.2-0.1l-0.2-0.1l-0.2-0.1l-0.2-0.1L24,68.2l-0.2-0.1l-0.2-0.1l-0.2-0.1l-0.2-0.1l-0.2-0.1l-0.2-0.1l-0.2-0.1l-0.2-0.1
		L22.5,67l-0.2-0.2l-0.1-0.2L22,66.5l-0.1-0.2l-0.1-0.2L21.6,66l-0.1-0.2l-0.1-0.2l-0.1-0.2l-0.1-0.2L21,65l-0.1-0.2l-0.1-0.2
		l-0.1-0.2l-0.1-0.2l-0.1-0.2l-0.1-0.2l-0.1-0.2l-0.1-0.3L20,62.9l-0.1-0.3l-0.1-0.3l-0.1-0.3l-0.1-0.3l-0.1-0.3l-0.1-0.3L19.4,61
		l-0.1-0.3l-0.1-0.3L19.2,60l-0.1-0.3l-0.1-0.4L19,58.9L19,58.5l-0.1-0.4l0-0.5l0-0.5l0-0.5l0-0.5l0-0.5l0-0.6l0-0.6l0-0.6l0-0.6
		l0-0.7l0-0.7l0-0.8l0-0.8l0-0.8l0-0.9l0-0.9l0-1l0-1l0-1l0-1.1l0-1.1v-1.2l0-0.4h0l0-0.6v-1.2v-1.2l0-1.2l0-1.1l0-1.1l0-1.1l0-1
		l0-1l0-1l0-1l0.1-0.9l0-0.9l0.1-0.9l0.1-0.8l0.1-0.8l0.1-0.8l0.1-0.8l0.1-0.7l0.1-0.7l0.1-0.7l0.1-0.6l0.1-0.6l0.1-0.6l0.1-0.6
		l0.1-0.5L20,18l0.1-0.5l0.1-0.4l0.1-0.4l0.1-0.2l0.1-0.2l0.1-0.2l0.1-0.2l0.1-0.2l0.1-0.2l0.1-0.2l0.1-0.2l0.2-0.3l0.2-0.3l0.2-0.3
		l0.2-0.3l0.2-0.3l0.2-0.2l0.2-0.2l0.2-0.2l0.2-0.2l0.2-0.2l0.3-0.2l0.3-0.2l0.3-0.2l0.3-0.2l0.3-0.2l0.3-0.2l0.3-0.1l0.3-0.1
		l0.3-0.1l0.3-0.1l0.4-0.1l0.4-0.1l0.4-0.1l0.4-0.1l0.4-0.1l0.4-0.1l0.4-0.1l0.4,0l0.4,0l0.4,0l0.4,0l0.4,0h0.4l0.4,0l0.4,0l0.4,0
		l0.4,0l0.4,0l0.4,0l0.4,0.1l0.4,0.1l0.4,0.1l0.4,0.1l0.4,0.1l0.3,0.1l0.3,0.1l0.3,0.1l0.3,0.1l0.3,0.1l0.3,0.1l0.3,0.1l0.3,0.1
		l0.3,0.1l0.3,0.2l0.3,0.2l0.3,0.2l0.3,0.2l0.1,0.1c-3.2,1.4-5.5,4.5-5.5,8.2c0,4.9,4,8.9,8.9,8.9c3,0,5.7-1.5,7.4-3.9
		c1-1.4,1.5-3,1.6-4.8c0-0.1,0-0.2,0-0.3c0-0.2,0-0.5,0-0.7c0-0.3-0.1-0.7-0.1-1c-0.1-0.1-0.1-0.3-0.1-0.4c-0.2-0.6-0.4-1.3-0.7-1.9
		c-0.1-0.3-0.3-0.5-0.4-0.7c-0.1-0.1-0.2-0.4-0.4-0.7c-1.3-2.1-2.8-3.6-2.8-3.6l0,0c-0.7-0.8-1.1-1.8-1.1-3c0-2.4,1.9-4.4,4.3-4.5
		c0,0,0,0,0,0h1.8c0.6,0,1.1,0,1.5,0h50.9c0,0,4.9,0,4.3-4.3c-0.2,0-0.4,0-0.4,0H50.9v0H39.7v0c-2.9,0-5.3,2.4-5.3,5.4
		c0,0.9,0.2,1.7,0.6,2.5c-2.5-0.3-4.3-0.3-4.3-0.3l0,0h-0.2l-0.4,0l-0.4,0l-0.4,0l-0.4,0l-0.4,0l-0.4,0l-0.4,0l-0.4,0l-0.4,0
		l-0.4,0.1l-0.4,0L25.9,8l-0.4,0.1l-0.4,0.1l-0.4,0.1l-0.4,0.1l-0.4,0.1l-0.4,0.1l-0.4,0.1L23,8.7l-0.4,0.1l-0.4,0.1L21.9,9
		l-0.4,0.1l-0.4,0.1l-0.4,0.1l-0.4,0.1l-0.3,0.1l-0.3,0.1l-0.3,0.2l-0.3,0.2l-0.3,0.2l-0.3,0.2l-0.3,0.2l-0.3,0.2l-0.3,0.2l-0.3,0.2
		l-0.3,0.2l-0.3,0.2l-0.3,0.2l-0.3,0.2l-0.3,0.2l-0.3,0.2l-0.3,0.2l-0.3,0.2L14.2,13l-0.3,0.2l-0.3,0.2l-0.3,0.2L13,13.9l-0.3,0.3
		l-0.3,0.3l-0.3,0.3L11.8,15l-0.3,0.3l-0.3,0.3l-0.3,0.3l-0.3,0.3l-0.3,0.3L10,16.7l-0.3,0.3l-0.3,0.3l-0.3,0.3l-0.3,0.3l-0.3,0.3
		l-0.3,0.3L8,18.8l-0.3,0.3l-0.3,0.3l-0.3,0.3L7,20.1l-0.3,0.3l-0.2,0.3l-0.2,0.3L6,21.4l-0.2,0.3l-0.2,0.3l-0.2,0.3l-0.2,0.3
		L4.9,23l-0.2,0.3l-0.2,0.3l-0.2,0.3l-0.2,0.3l-0.2,0.3l-0.2,0.3l-0.2,0.3l-0.2,0.3l-0.2,0.3l-0.2,0.3l-0.2,0.3l-0.2,0.3l-0.2,0.3
		l-0.2,0.3l-0.1,0.3l-0.1,0.4L2,28.9l-0.1,0.4l-0.1,0.4l-0.1,0.4l-0.1,0.4l-0.1,0.4L1.3,31l-0.1,0.4l-0.1,0.4L1,32.1l-0.1,0.4
		l-0.1,0.4l-0.1,0.4l-0.1,0.4l-0.1,0.4l-0.1,0.4l-0.1,0.4l-0.1,0.4l-0.1,0.4l-0.1,0.4l0,0.4l0,0.4l0,0.4l0,0.4l0,0.4l0,0.4l0,0.4
		l0,0.4l0,0.4l0,0.4v0.4v0.4l0,0.2l0,0v0.1l0,0.4l0,0.4l0,0.4l0,0.4l0,0.4l0,0.4l0,0.4l0,0.4l0,0.4l0.1,0.4L0.4,45l0.1,0.4l0.1,0.4
		l0.1,0.4l0.1,0.4l0.1,0.4l0.1,0.4l0.1,0.4L1,48l0.1,0.4l0.1,0.4l0.1,0.4l0.1,0.4l0.1,0.4l0.1,0.4l0.1,0.4l0.1,0.4L2,51.3l0.1,0.4
		L2.2,52l0.1,0.4l0.1,0.4L2.7,53l0.1,0.3L3,53.7l0.2,0.3l0.2,0.3l0.2,0.3l0.2,0.3l0.2,0.3L4,55.8l0.2,0.3l0.2,0.3l0.2,0.3l0.2,0.3
		l0.2,0.3l0.2,0.3l0.2,0.3l0.2,0.3l0.2,0.3l0.2,0.3l0.2,0.3l0.2,0.3L6.9,60l0.2,0.3l0.3,0.3L7.7,61l0.3,0.3l0.3,0.3l0.3,0.3l0.3,0.3
		L9,62.6l0.3,0.3l0.3,0.3l0.3,0.3l0.3,0.3l0.3,0.3l0.3,0.3l0.3,0.3l0.3,0.3l0.3,0.3l0.3,0.3l0.3,0.3l0.3,0.3l0.3,0.3l0.3,0.3
		l0.3,0.2l0.3,0.2l0.3,0.2l0.3,0.2l0.3,0.2l0.3,0.2l0.3,0.2l0.3,0.2l0.3,0.2l0.3,0.2l0.3,0.2l0.3,0.2l0.3,0.2l0.3,0.2l0.3,0.2
		l0.3,0.2l0.3,0.2l0.3,0.2l0.3,0.2l0.3,0.2l0.3,0.1l0.3,0.1l0.3,0.1L21,71l0.3,0.1l0.3,0.1l0.4,0.1l0.4,0.1l0.4,0.1l0.4,0.1l0.4,0.1
		l0.4,0.1l0.4,0.1l0.4,0.1l0.4,0.1l0.4,0.1l0.4,0.1l0.4,0.1l0.4,0l0.4,0.1l0.4,0.1l0.4,0l0.4,0l0.4,0l0.4,0l0.4,0l0.4,0l0.4,0l0.4,0
		h0.4l0.6,0l0.6,0l0.6,0l0.6,0l0.5,0l0.5-0.1l0.5-0.1l0.5-0.1l0.5-0.1l0.5-0.1l0.5-0.1l0.5-0.1l0.5-0.1l0.5-0.1l0.5-0.1l0.5-0.2
		l0.5-0.2L40,71l0.5-0.2l0.4-0.2l0.4-0.2l0.4-0.2l0.4-0.2l0.4-0.2l0.4-0.2l0.4-0.2l0.4-0.3l0.4-0.3l0.4-0.3l0.4-0.3l0.4-0.3l0.4-0.3
		l4.2,3.5h3.1V52.4h-2.2C49.4,52.4,49.1,53.6,49.1,53.6z"/>
	<path fill="currentColor" d="M28.3,13.6c-0.8,0-1.5,0.6-1.5,1.4c0,0.8,0.6,1.4,1.5,1.4c0.8,0,1.4-0.6,1.4-1.4
		C29.7,14.3,29.1,13.6,28.3,13.6z"/>
	<path fill="currentColor" d="M117,15.2c-0.2,0-0.4,0-0.4,0H99.3l0,0c-0.2,0-0.4,0-0.4,0H72.5H59.3c0.3,0.9,0.5,1.8,0.7,2.7
		c0.2,0.5,0.8,1.6,2.8,1.6h9.7H95h17.7C112.6,19.5,117.5,19.5,117,15.2z"/>
	<path fill="currentColor" d="M97.1,30H81.5l0,0c-0.2,0-0.4,0-0.4,0H67.9h-8.8c-0.6,0.1-1.1,0.4-1.3,0.6c-1,1.4-1.8,2.7-3.4,3.7
		h10.8h12h16c0,0,4.9,0,4.3-4.3C97.2,29.9,97.1,30,97.1,30z"/>
</svg>