<svg xmlns="http://www.w3.org/2000/svg" xmlns:xlink="http://www.w3.org/1999/xlink" viewBox="0 0 337.15 54.94"><defs><clipPath id="clip-path" transform="translate(2.14 2.12)"><path d="M11.94,1.2A17.77,17.77,0,0,0,5.88,4.51a16.56,16.56,0,0,0-4.27,5.55A17.84,17.84,0,0,0,0,17.88a17.71,17.71,0,0,0,1.48,7.48,15.33,15.33,0,0,0,4,5.39,17,17,0,0,0,6,3.23A25.17,25.17,0,0,0,18.86,35a27.12,27.12,0,0,0,5.85-.63,19.25,19.25,0,0,0,2.51-.71,11.38,11.38,0,0,0,1.92-.85,6.2,6.2,0,0,0,1.91-1.58,4.3,4.3,0,0,0,.6-2.52V17.6a3.44,3.44,0,0,0-.9-2.54,3.44,3.44,0,0,0-2.54-.9H19a3.22,3.22,0,0,0-2.33.87,3.85,3.85,0,0,0-.9,2.85A7,7,0,0,0,16,20a8.46,8.46,0,0,0,.63,1.59h5.85v5.14a6,6,0,0,1-1.42.49,9.12,9.12,0,0,1-2.13.22,10.32,10.32,0,0,1-3.5-.58,8.17,8.17,0,0,1-2.9-1.74,8.29,8.29,0,0,1-2-3,11.45,11.45,0,0,1-.74-4.35,9.63,9.63,0,0,1,2.71-7.27,10,10,0,0,1,7.29-2.62,12.65,12.65,0,0,1,4.62.79,23.12,23.12,0,0,1,3.42,1.61,5.81,5.81,0,0,0,1.64-1.64,4.27,4.27,0,0,0,.71-2.46q0-2.67-3-4.34A17.2,17.2,0,0,0,19,.11a23.2,23.2,0,0,0-7,1.09" style="fill:none"/></clipPath><linearGradient id="Degradado_sin_nombre_13" x1="-224.28" y1="337.36" x2="-223.28" y2="337.36" gradientTransform="matrix(0, -327.13, -327.13, 0, 110376.43, -73037.49)" gradientUnits="userSpaceOnUse"><stop offset="0" stop-color="#ff8300"/><stop offset="0.06" stop-color="#ff7f00"/><stop offset="0.12" stop-color="#ff7300"/><stop offset="0.18" stop-color="#ff6100"/><stop offset="0.24" stop-color="#ff3a27"/><stop offset="0.34" stop-color="#ff0061"/><stop offset="0.37" stop-color="#f70063"/><stop offset="0.42" stop-color="#e3006a"/><stop offset="0.47" stop-color="#c00074"/><stop offset="0.54" stop-color="#910083"/><stop offset="0.6" stop-color="#590094"/><stop offset="1" stop-color="#003ab3"/></linearGradient><clipPath id="clip-path-2" transform="translate(2.14 2.12)"><path d="M59.64.74,57.73,1V21.76a5.67,5.67,0,0,1-1.43,4.1,5.53,5.53,0,0,1-7.51,0,5.59,5.59,0,0,1-1.45-4.1V5.08A6.61,6.61,0,0,0,47,2.79a3,3,0,0,0-1-1.37A4,4,0,0,0,44.41.74,11.17,11.17,0,0,0,42.2.55a17.23,17.23,0,0,0-2.52.19L37.77,1V21.92a14,14,0,0,0,1,5.39,11.44,11.44,0,0,0,2.93,4.15,13.11,13.11,0,0,0,4.64,2.65,19.19,19.19,0,0,0,6.18.93,19.11,19.11,0,0,0,6.18-.93,13.11,13.11,0,0,0,4.64-2.65,11.32,11.32,0,0,0,2.93-4.15,14,14,0,0,0,1-5.39V5.08A6.61,6.61,0,0,0,67,2.79a3,3,0,0,0-1-1.37A4,4,0,0,0,64.37.74,11.27,11.27,0,0,0,62.15.55a17,17,0,0,0-2.51.19" style="fill:none"/></clipPath><linearGradient id="Degradado_sin_nombre_13-2" x1="-224.28" y1="337.36" x2="-223.28" y2="337.36" gradientTransform="matrix(0, -327.13, -327.13, 0, 110413.31, -73073.81)" xlink:href="#Degradado_sin_nombre_13"/><clipPath id="clip-path-3" transform="translate(2.14 2.12)"><path d="M85.68,14.19q1-2.82,1.73-5.12h.32q.66,2.25,1.45,5.06t1.56,5.77H84c.51-1.93,1.09-3.84,1.72-5.71M83.66,1a11.75,11.75,0,0,0-2.81,1c-.26.66-.61,1.61-1.07,2.85s-1,2.65-1.5,4.23l-1.75,5.06q-.93,2.67-1.75,5.22t-1.5,4.73c-.46,1.46-.82,2.68-1.07,3.66-.18.69-.35,1.29-.49,1.8a5.44,5.44,0,0,0-.22,1.53,3.08,3.08,0,0,0,1.34,2.66,7.22,7.22,0,0,0,4.13,1,9.35,9.35,0,0,0,2-.19,15.13,15.13,0,0,0,1.61-.46q.44-1.65.87-3.39c.29-1.17.58-2.3.88-3.39h9.89l1,3.77a9.37,9.37,0,0,0,.63,1.64,3.11,3.11,0,0,0,.93,1.15,3.83,3.83,0,0,0,1.47.65,11,11,0,0,0,5.33-.24,4.57,4.57,0,0,0,2-1.23c-.55-2-1.19-4.31-1.92-6.92s-1.47-5.25-2.24-7.92-1.53-5.28-2.29-7.79S95.66,5.67,95,3.77A4.22,4.22,0,0,0,92.3,1.29a13.68,13.68,0,0,0-4.84-.8,15.35,15.35,0,0,0-3.8.49" style="fill:none"/></clipPath><linearGradient id="Degradado_sin_nombre_13-3" x1="-224.28" y1="337.36" x2="-223.28" y2="337.36" gradientTransform="matrix(0, -327.13, -327.13, 0, 110447.65, -73109.01)" xlink:href="#Degradado_sin_nombre_13"/><clipPath id="clip-path-4" transform="translate(2.14 2.12)"><path d="M130.73.71A15,15,0,0,0,128.9,1V9.89c0,2,0,3.94,0,5.91s.13,3.93.27,5.9l-.27.06c-.51-1.31-1-2.47-1.42-3.47s-.93-2.07-1.48-3.2L120.59,4a5.2,5.2,0,0,0-2.93-2.86,11.73,11.73,0,0,0-3.85-.63,10.47,10.47,0,0,0-3.39.54,4.64,4.64,0,0,0-2.35,1.64V30.07a6.16,6.16,0,0,0,.33,2.21,3,3,0,0,0,2.46,2,12.26,12.26,0,0,0,2.13.17,18.28,18.28,0,0,0,2.43-.17,13.63,13.63,0,0,0,1.83-.32V25.47c0-2,0-4,0-6s-.1-4-.25-6l.33-.06c.51,1.32,1,2.47,1.42,3.47s.93,2.07,1.47,3.2l5.42,11a5.29,5.29,0,0,0,2.95,2.9,12,12,0,0,0,3.83.6,12.65,12.65,0,0,0,3.47-.41A5,5,0,0,0,138.08,33V4.92c0-1.79-.42-3-1.26-3.53a6.61,6.61,0,0,0-3.66-.84,18.25,18.25,0,0,0-2.43.16" style="fill:none"/></clipPath><linearGradient id="Degradado_sin_nombre_13-4" x1="-224.28" y1="337.36" x2="-223.28" y2="337.36" gradientTransform="matrix(0, -327.13, -327.13, 0, 110483.6, -73144.48)" xlink:href="#Degradado_sin_nombre_13"/><clipPath id="clip-path-5" transform="translate(2.14 2.12)"><path d="M157.08,14.19c.63-1.88,1.21-3.59,1.72-5.12h.33c.43,1.5.92,3.19,1.45,5.06s1,3.8,1.55,5.77h-6.78c.51-1.93,1.09-3.84,1.73-5.71M155.05,1a11.92,11.92,0,0,0-2.81,1c-.26.66-.61,1.61-1.07,2.85s-.95,2.65-1.5,4.23l-1.75,5.06q-.93,2.67-1.75,5.22t-1.5,4.73c-.46,1.46-.81,2.68-1.07,3.66-.18.69-.35,1.29-.49,1.8a5.44,5.44,0,0,0-.22,1.53,3.1,3.1,0,0,0,1.34,2.66,7.22,7.22,0,0,0,4.13,1,9.35,9.35,0,0,0,2-.19,15.13,15.13,0,0,0,1.61-.46q.43-1.65.87-3.39c.29-1.17.59-2.3.88-3.39h9.89l1,3.77a9.37,9.37,0,0,0,.63,1.64,3.11,3.11,0,0,0,.93,1.15,3.83,3.83,0,0,0,1.47.65,11,11,0,0,0,5.33-.24A4.51,4.51,0,0,0,175,33c-.55-2-1.19-4.31-1.91-6.92s-1.48-5.25-2.25-7.92-1.53-5.28-2.29-7.79-1.48-4.72-2.13-6.62a4.22,4.22,0,0,0-2.71-2.48,13.64,13.64,0,0,0-4.84-.8,15.42,15.42,0,0,0-3.8.49" style="fill:none"/></clipPath><linearGradient id="Degradado_sin_nombre_13-5" x1="-224.28" y1="337.36" x2="-223.28" y2="337.36" gradientTransform="matrix(0, -327.13, -327.13, 0, 110519.04, -73180.28)" xlink:href="#Degradado_sin_nombre_13"/><clipPath id="clip-path-6" transform="translate(2.14 2.12)"><path d="M188.1.74l-1.92.3V23.12a4.66,4.66,0,0,1-.92,3.15,3.9,3.9,0,0,1-3.07,1.06,13.44,13.44,0,0,1-1.61-.08,16.91,16.91,0,0,1-1.78-.3,4,4,0,0,0-.73,1.31,5.61,5.61,0,0,0-.3,1.92,4.84,4.84,0,0,0,.57,2.35,4,4,0,0,0,1.83,1.64,10.37,10.37,0,0,0,4.59.87q5.42,0,8.2-2.43c1.86-1.62,2.79-4.06,2.79-7.3V5.08a6.61,6.61,0,0,0-.33-2.29,3,3,0,0,0-1-1.37,4,4,0,0,0-1.61-.68,11.27,11.27,0,0,0-2.22-.19,17,17,0,0,0-2.51.19" style="fill:none"/></clipPath><linearGradient id="Degradado_sin_nombre_13-6" x1="-224.28" y1="337.36" x2="-223.28" y2="337.36" gradientTransform="matrix(0, -327.13, -327.13, 0, 110547.25, -73207.86)" xlink:href="#Degradado_sin_nombre_13"/><clipPath id="clip-path-7" transform="translate(2.14 2.12)"><path d="M224.39.74l-1.91.3V21.76a5.66,5.66,0,0,1-1.42,4.1,5.54,5.54,0,0,1-7.52,0,5.63,5.63,0,0,1-1.44-4.1V5.08a6.61,6.61,0,0,0-.33-2.29,3,3,0,0,0-1-1.37,3.87,3.87,0,0,0-1.61-.68A11.24,11.24,0,0,0,207,.55a17.23,17.23,0,0,0-2.52.19l-1.91.3V21.92a13.84,13.84,0,0,0,1,5.39,11.44,11.44,0,0,0,2.93,4.15,13.11,13.11,0,0,0,4.64,2.65,21,21,0,0,0,12.36,0,13.11,13.11,0,0,0,4.64-2.65A11.44,11.44,0,0,0,231,27.31a14,14,0,0,0,1-5.39V5.08a6.61,6.61,0,0,0-.33-2.29,3,3,0,0,0-1-1.37,4,4,0,0,0-1.62-.68,11.17,11.17,0,0,0-2.21-.19,17.23,17.23,0,0,0-2.52.19" style="fill:none"/></clipPath><linearGradient id="Degradado_sin_nombre_13-7" x1="-224.28" y1="337.36" x2="-223.28" y2="337.36" gradientTransform="matrix(0, -327.13, -327.13, 0, 110577.99, -73238.36)" xlink:href="#Degradado_sin_nombre_13"/><clipPath id="clip-path-8" transform="translate(2.14 2.12)"><path d="M250.44,14.19q1-2.82,1.72-5.12h.33q.66,2.25,1.45,5.06t1.56,5.77h-6.78c.51-1.93,1.08-3.84,1.72-5.71M248.42,1a11.85,11.85,0,0,0-2.82,1c-.25.66-.61,1.61-1.06,2.85s-1,2.65-1.51,4.23-1.13,3.27-1.74,5.06-1.21,3.52-1.76,5.22-1,3.27-1.5,4.73-.81,2.68-1.06,3.66c-.19.69-.35,1.29-.5,1.8a5.81,5.81,0,0,0-.21,1.53,3.08,3.08,0,0,0,1.34,2.66,7.18,7.18,0,0,0,4.12,1,9.29,9.29,0,0,0,2.05-.19,15.32,15.32,0,0,0,1.62-.46q.44-1.65.87-3.39t.87-3.39H257l1,3.77a10.23,10.23,0,0,0,.63,1.64,3.32,3.32,0,0,0,.93,1.15,3.88,3.88,0,0,0,1.48.65,9.31,9.31,0,0,0,2.21.22,9.41,9.41,0,0,0,3.12-.46,4.47,4.47,0,0,0,2-1.23c-.54-2-1.18-4.31-1.91-6.92s-1.47-5.25-2.24-7.92-1.53-5.28-2.3-7.79-1.47-4.72-2.13-6.62a4.18,4.18,0,0,0-2.7-2.48,13.68,13.68,0,0,0-4.84-.8,15.35,15.35,0,0,0-3.8.49" style="fill:none"/></clipPath><linearGradient id="Degradado_sin_nombre_13-8" x1="-224.28" y1="337.36" x2="-223.28" y2="337.36" gradientTransform="matrix(0, -327.13, -327.13, 0, 110612.4, -73273.47)" xlink:href="#Degradado_sin_nombre_13"/><clipPath id="clip-path-9" transform="translate(2.14 2.12)"><path d="M271.79.88a3.42,3.42,0,0,0-2.49.92,4.15,4.15,0,0,0-.95,3.07,7.46,7.46,0,0,0,.32,2.18,7.4,7.4,0,0,0,.71,1.64h8.2V29.9a6.63,6.63,0,0,0,.33,2.3,2.91,2.91,0,0,0,1,1.36,3.88,3.88,0,0,0,1.61.69,11.17,11.17,0,0,0,2.21.19,19.82,19.82,0,0,0,2.54-.17,13.71,13.71,0,0,0,1.89-.32V8.69h6.07a3.39,3.39,0,0,0,2.48-.93,4.13,4.13,0,0,0,1-3.06,7.26,7.26,0,0,0-.33-2.19,6.86,6.86,0,0,0-.71-1.63Z" style="fill:none"/></clipPath><linearGradient id="Degradado_sin_nombre_13-9" x1="-224.28" y1="337.36" x2="-223.28" y2="337.36" gradientTransform="matrix(0, -327.13, -327.13, 0, 110643.34, -73303.55)" xlink:href="#Degradado_sin_nombre_13"/><clipPath id="clip-path-10" transform="translate(2.14 2.12)"><path d="M310.11,25q-2-2.46-2-7.43t2.05-7.41a6.75,6.75,0,0,1,5.44-2.43A6.65,6.65,0,0,1,321,10.17c1.32,1.64,2,4.1,2,7.38s-.67,5.79-2,7.43a7.24,7.24,0,0,1-10.88,0M308.72,1.15a15.41,15.41,0,0,0-5.47,3.36A15.65,15.65,0,0,0,299.59,10a19.75,19.75,0,0,0-1.34,7.55A20,20,0,0,0,299.56,25a15.85,15.85,0,0,0,3.61,5.52A15.52,15.52,0,0,0,308.63,34a19.78,19.78,0,0,0,6.89,1.17A20,20,0,0,0,322.41,34a15,15,0,0,0,9.13-8.88,20.53,20.53,0,0,0,1.31-7.57A19.94,19.94,0,0,0,331.51,10a15.45,15.45,0,0,0-3.69-5.49,15.76,15.76,0,0,0-5.49-3.36,20.71,20.71,0,0,0-13.61,0" style="fill:none"/></clipPath><linearGradient id="Degradado_sin_nombre_13-10" x1="-224.28" y1="337.36" x2="-223.28" y2="337.36" gradientTransform="matrix(0, -327.13, -327.13, 0, 110675.99, -73336.6)" xlink:href="#Degradado_sin_nombre_13"/></defs><g id="Capa_2" data-name="Capa 2"><g id="Capa_1-2" data-name="Capa 1"><g style="clip-path:url(#clip-path)"><rect x="-2.58" y="0.71" width="36.81" height="33.74" transform="translate(-0.55 34.41) rotate(-86.48)" style="fill:url(#Degradado_sin_nombre_13)"/></g><g style="clip-path:url(#clip-path-2)"><rect x="34.41" y="2" width="36.24" height="31.58" transform="translate(33.69 71.25) rotate(-86.48)" style="fill:url(#Degradado_sin_nombre_13-2)"/></g><g style="clip-path:url(#clip-path-3)"><rect x="69.48" y="0.54" width="36.13" height="34.13" transform="translate(66.74 106.02) rotate(-86.48)" style="fill:url(#Degradado_sin_nombre_13-3)"/></g><g style="clip-path:url(#clip-path-4)"><rect x="105.16" y="1.55" width="35.84" height="32.05" transform="translate(100.11 141.46) rotate(-86.48)" style="fill:url(#Degradado_sin_nombre_13-4)"/></g><g style="clip-path:url(#clip-path-5)"><rect x="140.87" y="0.54" width="36.13" height="34.13" transform="translate(133.74 177.28) rotate(-86.48)" style="fill:url(#Degradado_sin_nombre_13-5)"/></g><g style="clip-path:url(#clip-path-6)"><rect x="168.99" y="7.76" width="35.53" height="20.07" transform="translate(159.67 205.23) rotate(-86.48)" style="fill:url(#Degradado_sin_nombre_13-6)"/></g><g style="clip-path:url(#clip-path-7)"><rect x="199.17" y="2" width="36.24" height="31.58" transform="translate(188.32 235.7) rotate(-86.48)" style="fill:url(#Degradado_sin_nombre_13-7)"/></g><g style="clip-path:url(#clip-path-8)"><rect x="234.24" y="0.54" width="36.13" height="34.13" transform="translate(221.38 270.47) rotate(-86.48)" style="fill:url(#Degradado_sin_nombre_13-8)"/></g><g style="clip-path:url(#clip-path-9)"><rect x="264.88" y="2.49" width="35.24" height="30.33" transform="translate(249.67 300.66) rotate(-86.48)" style="fill:url(#Degradado_sin_nombre_13-9)"/></g><g style="clip-path:url(#clip-path-10)"><rect x="296.94" y="-0.77" width="37.21" height="36.69" transform="translate(280.77 333.57) rotate(-86.48)" style="fill:url(#Degradado_sin_nombre_13-10)"/></g><path d="M17.69,50.85a1.36,1.36,0,0,1-.18.78,2.08,2.08,0,0,1-.6.49,3.7,3.7,0,0,1-.59.26,6.8,6.8,0,0,1-.79.23,7.89,7.89,0,0,1-.89.14c-.31,0-.62,0-.92,0a7.75,7.75,0,0,1-2.3-.33,5.38,5.38,0,0,1-1.86-1,4.8,4.8,0,0,1-1.25-1.68,5.47,5.47,0,0,1-.46-2.33A5.58,5.58,0,0,1,8.35,45a5.19,5.19,0,0,1,1.33-1.72,5.65,5.65,0,0,1,1.88-1,7.06,7.06,0,0,1,2.19-.34,5.28,5.28,0,0,1,2.56.52,1.52,1.52,0,0,1,.94,1.35,1.28,1.28,0,0,1-.22.76,1.77,1.77,0,0,1-.51.51,7.63,7.63,0,0,0-1.06-.5A4.1,4.1,0,0,0,14,44.33a3.14,3.14,0,0,0-2.27.82,3,3,0,0,0-.84,2.26,3.67,3.67,0,0,0,.23,1.35,2.61,2.61,0,0,0,.62.94,2.58,2.58,0,0,0,.9.54,3.24,3.24,0,0,0,1.09.18,2.62,2.62,0,0,0,.66-.07,1.49,1.49,0,0,0,.44-.15V48.6H13a2.35,2.35,0,0,1-.2-.49,2.27,2.27,0,0,1-.09-.65,1.18,1.18,0,0,1,.28-.88,1,1,0,0,1,.72-.27h2.87a1,1,0,0,1,1.07,1.07Z" transform="translate(2.14 2.12)" style="fill:#1b1464"/><path d="M28,48.4a5,5,0,0,1-.33,1.88,3.68,3.68,0,0,1-.9,1.38,3.81,3.81,0,0,1-1.41.85,5.47,5.47,0,0,1-1.82.29,5,5,0,0,1-1.81-.31,3.9,3.9,0,0,1-1.41-.87,4,4,0,0,1-.91-1.39,5.36,5.36,0,0,1,0-3.65,4,4,0,0,1,.91-1.39,3.9,3.9,0,0,1,1.41-.87A5,5,0,0,1,23.52,44a5,5,0,0,1,1.82.32,4.16,4.16,0,0,1,1.41.88,3.8,3.8,0,0,1,.9,1.39A4.73,4.73,0,0,1,28,48.4ZM22,48.4a2.67,2.67,0,0,0,.4,1.59,1.38,1.38,0,0,0,2.21,0A2.82,2.82,0,0,0,25,48.4a2.68,2.68,0,0,0-.39-1.57,1.37,1.37,0,0,0-2.21,0A2.68,2.68,0,0,0,22,48.4Z" transform="translate(2.14 2.12)" style="fill:#1b1464"/><path d="M29.42,41.46l.55-.11a4.77,4.77,0,0,1,.76-.06,4.36,4.36,0,0,1,.67.05,1.2,1.2,0,0,1,.5.21.92.92,0,0,1,.31.41,1.94,1.94,0,0,1,.1.69v1.67a4.27,4.27,0,0,1,.81-.24A4.46,4.46,0,0,1,34,44a4.23,4.23,0,0,1,1.55.29,3.69,3.69,0,0,1,1.29.84,4.11,4.11,0,0,1,.89,1.37,5.78,5.78,0,0,1,0,3.82,3.7,3.7,0,0,1-.93,1.37,4,4,0,0,1-1.45.82,6.06,6.06,0,0,1-1.9.28,6.14,6.14,0,0,1-1.9-.26,5.16,5.16,0,0,1-1.33-.66,1.59,1.59,0,0,1-.75-1.36Zm4,9.06A1.5,1.5,0,0,0,34.62,50a2.49,2.49,0,0,0,.43-1.59,2.46,2.46,0,0,0-.44-1.6,1.48,1.48,0,0,0-1.19-.53,2.51,2.51,0,0,0-.59.07,4,4,0,0,0-.53.2v3.71a1.56,1.56,0,0,0,.45.2A2.39,2.39,0,0,0,33.4,50.52Z" transform="translate(2.14 2.12)" style="fill:#1b1464"/><path d="M39.35,42a1.54,1.54,0,0,1,.43-1.09,1.57,1.57,0,0,1,1.15-.44,1.55,1.55,0,0,1,1.15.44A1.5,1.5,0,0,1,42.51,42a1.49,1.49,0,0,1-.43,1.09A1.58,1.58,0,0,1,39.35,42Zm3,10.54-.56.1a4.53,4.53,0,0,1-.74,0,3.51,3.51,0,0,1-.67,0,1.17,1.17,0,0,1-.5-.2A1,1,0,0,1,39.6,52a1.64,1.64,0,0,1-.11-.68V44.39l.55-.1a4.52,4.52,0,0,1,.74-.06,4.47,4.47,0,0,1,.67.05,1.2,1.2,0,0,1,.5.21,1,1,0,0,1,.32.42,1.82,1.82,0,0,1,.11.68Z" transform="translate(2.14 2.12)" style="fill:#1b1464"/><path d="M48.58,52.8a5.85,5.85,0,0,1-1.86-.28,4.41,4.41,0,0,1-1.5-.84,4.05,4.05,0,0,1-1-1.41,5.09,5.09,0,0,1-.36-2,4.72,4.72,0,0,1,.36-1.93,4,4,0,0,1,1-1.33,3.88,3.88,0,0,1,1.36-.76A4.91,4.91,0,0,1,48.11,44a4.78,4.78,0,0,1,1.64.27A4.1,4.1,0,0,1,51,45a3.22,3.22,0,0,1,.83,1.14,3.45,3.45,0,0,1,.3,1.45,1.17,1.17,0,0,1-.32.88,1.7,1.7,0,0,1-.9.39l-4.2.63a1.42,1.42,0,0,0,.76.84,3,3,0,0,0,1.33.28,4.78,4.78,0,0,0,1.32-.18,4.22,4.22,0,0,0,1-.41,1.48,1.48,0,0,1,.46.47,1.28,1.28,0,0,1,.18.65,1.21,1.21,0,0,1-.71,1.14,3.88,3.88,0,0,1-1.22.39A8.44,8.44,0,0,1,48.58,52.8Zm-.47-6.68a1.7,1.7,0,0,0-.71.14,1.34,1.34,0,0,0-.48.34,1.47,1.47,0,0,0-.28.48,2.1,2.1,0,0,0-.12.54l2.91-.48a1.28,1.28,0,0,0-.37-.68A1.24,1.24,0,0,0,48.11,46.12Z" transform="translate(2.14 2.12)" style="fill:#1b1464"/><path d="M56.44,52.51a3.1,3.1,0,0,1-.54.1,4.7,4.7,0,0,1-.76,0,3.45,3.45,0,0,1-.67,0,1.12,1.12,0,0,1-.5-.2.89.89,0,0,1-.31-.42,1.64,1.64,0,0,1-.11-.68V46.2a1.41,1.41,0,0,1,.14-.67,1.78,1.78,0,0,1,.42-.5,2.83,2.83,0,0,1,.67-.4,6.17,6.17,0,0,1,.86-.31,6.94,6.94,0,0,1,1-.21,5.51,5.51,0,0,1,1-.08,2.32,2.32,0,0,1,1.29.31,1.16,1.16,0,0,1,.47,1,1.49,1.49,0,0,1-.07.47,1.94,1.94,0,0,1-.17.42l-.73,0c-.25,0-.49.06-.73.1l-.67.15a3.32,3.32,0,0,0-.53.17Z" transform="translate(2.14 2.12)" style="fill:#1b1464"/><path d="M65.6,47.29a.93.93,0,0,0-.3-.77,1.26,1.26,0,0,0-.81-.25,2.57,2.57,0,0,0-.67.09,1.65,1.65,0,0,0-.57.25v5.9a2.78,2.78,0,0,1-.53.1,4.77,4.77,0,0,1-.76,0,3.45,3.45,0,0,1-.67,0,1.08,1.08,0,0,1-.5-.2,1,1,0,0,1-.32-.42,1.82,1.82,0,0,1-.11-.68V46.2a1.29,1.29,0,0,1,.2-.74,2.05,2.05,0,0,1,.53-.53,4.94,4.94,0,0,1,1.46-.66A6.9,6.9,0,0,1,64.49,44a4.6,4.6,0,0,1,3,.84,2.85,2.85,0,0,1,1,2.34v5.32a2.76,2.76,0,0,1-.54.1,4.57,4.57,0,0,1-.75,0,3.39,3.39,0,0,1-.67,0,1.16,1.16,0,0,1-.51-.2,1,1,0,0,1-.31-.42,1.82,1.82,0,0,1-.11-.68Z" transform="translate(2.14 2.12)" style="fill:#1b1464"/><path d="M78.82,48.4a5,5,0,0,1-.32,1.88,3.7,3.7,0,0,1-.91,1.38,3.77,3.77,0,0,1-1.4.85,5.47,5.47,0,0,1-1.82.29,5,5,0,0,1-1.82-.31,4,4,0,0,1-1.4-.87,3.82,3.82,0,0,1-.91-1.39,5.36,5.36,0,0,1,0-3.65,3.82,3.82,0,0,1,.91-1.39,4,4,0,0,1,1.4-.87,5.42,5.42,0,0,1,3.64,0,4.11,4.11,0,0,1,1.4.88,3.82,3.82,0,0,1,.91,1.39A4.73,4.73,0,0,1,78.82,48.4Zm-5.95,0a2.74,2.74,0,0,0,.4,1.59,1.3,1.3,0,0,0,1.12.55A1.25,1.25,0,0,0,75.48,50a2.73,2.73,0,0,0,.39-1.58,2.68,2.68,0,0,0-.39-1.57,1.29,1.29,0,0,0-1.11-.56,1.26,1.26,0,0,0-1.1.56A2.6,2.6,0,0,0,72.87,48.4Z" transform="translate(2.14 2.12)" style="fill:#1b1464"/><path d="M83.28,48.4a5,5,0,0,1,.34-1.95A3.65,3.65,0,0,1,86,44.28,5.49,5.49,0,0,1,87.72,44a3.68,3.68,0,0,1,.66.06,2.63,2.63,0,0,1,.53.15V41.46a5.38,5.38,0,0,1,.54-.11,4.77,4.77,0,0,1,.76-.06,4.61,4.61,0,0,1,.68.05,1.33,1.33,0,0,1,.5.21.9.9,0,0,1,.3.41,1.92,1.92,0,0,1,.11.69v8.06A1.46,1.46,0,0,1,91.05,52a5.32,5.32,0,0,1-1.28.56A6.54,6.54,0,0,1,86,52.49a3.92,3.92,0,0,1-1.48-.88,3.85,3.85,0,0,1-.92-1.38A5,5,0,0,1,83.28,48.4Zm4.83-2.13a1.83,1.83,0,0,0-1.41.53,2.26,2.26,0,0,0-.5,1.6A2.43,2.43,0,0,0,86.66,50a1.68,1.68,0,0,0,1.33.53,1.59,1.59,0,0,0,.55-.09,1.22,1.22,0,0,0,.38-.21V46.48A1.5,1.5,0,0,0,88.11,46.27Z" transform="translate(2.14 2.12)" style="fill:#1b1464"/><path d="M98,52.8a5.85,5.85,0,0,1-1.86-.28,4.23,4.23,0,0,1-1.5-.84,3.81,3.81,0,0,1-1-1.41,4.91,4.91,0,0,1-.37-2,4.55,4.55,0,0,1,.37-1.93,3.7,3.7,0,0,1,2.32-2.09A4.9,4.9,0,0,1,97.49,44a4.74,4.74,0,0,1,1.64.27,4.16,4.16,0,0,1,1.28.75,3.49,3.49,0,0,1,.83,1.14,3.45,3.45,0,0,1,.3,1.45,1.14,1.14,0,0,1-.33.88,1.63,1.63,0,0,1-.9.39l-4.2.63a1.44,1.44,0,0,0,.77.84,3,3,0,0,0,1.33.28,4.66,4.66,0,0,0,1.31-.18,4.06,4.06,0,0,0,1-.41,1.38,1.38,0,0,1,.46.47,1.2,1.2,0,0,1,.19.65,1.22,1.22,0,0,1-.71,1.14,4,4,0,0,1-1.23.39A8.31,8.31,0,0,1,98,52.8Zm-.48-6.68a1.65,1.65,0,0,0-.7.14,1.48,1.48,0,0,0-.49.34,1.67,1.67,0,0,0-.28.48,2.08,2.08,0,0,0-.11.54l2.91-.48a1.31,1.31,0,0,0-.38-.68A1.23,1.23,0,0,0,97.49,46.12Z" transform="translate(2.14 2.12)" style="fill:#1b1464"/><path d="M105.87,52.51l-.55.1a4.53,4.53,0,0,1-.74,0,3.45,3.45,0,0,1-.67,0,1.08,1.08,0,0,1-.5-.2,1,1,0,0,1-.32-.42,1.82,1.82,0,0,1-.11-.68V41.45l.55-.1a4.62,4.62,0,0,1,1.42,0,1.33,1.33,0,0,1,.5.21,1,1,0,0,1,.31.41,1.92,1.92,0,0,1,.11.69Z" transform="translate(2.14 2.12)" style="fill:#1b1464"/><path d="M111.31,43.81a1.47,1.47,0,0,1,1.58-1.58h5.61a1.89,1.89,0,0,1,.21.49,2,2,0,0,1,.1.65,1.25,1.25,0,0,1-.28.91,1,1,0,0,1-.74.28H114.2v1.58H118a1.81,1.81,0,0,1,.21.48,2.2,2.2,0,0,1,.09.64,1.28,1.28,0,0,1-.27.92,1,1,0,0,1-.73.27H114.2v1.78h4.37a2,2,0,0,1,.21.5,2,2,0,0,1,.1.64,1.32,1.32,0,0,1-.28.93,1,1,0,0,1-.74.28h-5A1.47,1.47,0,0,1,111.31,51Z" transform="translate(2.14 2.12)" style="fill:#1b1464"/><path d="M127.38,50.06a2.41,2.41,0,0,1-1,2,4.77,4.77,0,0,1-2.86.73,9,9,0,0,1-1.32-.1,3.94,3.94,0,0,1-1-.32,1.85,1.85,0,0,1-.68-.53,1.27,1.27,0,0,1-.25-.77,1.36,1.36,0,0,1,.17-.69,1.83,1.83,0,0,1,.41-.46,7,7,0,0,0,1.13.48,4.74,4.74,0,0,0,1.47.21,1.77,1.77,0,0,0,.81-.15.45.45,0,0,0,.28-.41.43.43,0,0,0-.2-.37,1.86,1.86,0,0,0-.68-.22l-.51-.11a4.74,4.74,0,0,1-2.21-.91,2.2,2.2,0,0,1-.72-1.77,2.4,2.4,0,0,1,.27-1.14,2.5,2.5,0,0,1,.77-.85,3.88,3.88,0,0,1,1.18-.53,6,6,0,0,1,1.52-.19,7.21,7.21,0,0,1,1.18.1,3.51,3.51,0,0,1,1,.28,1.73,1.73,0,0,1,.65.48,1.11,1.11,0,0,1,.24.71,1.49,1.49,0,0,1-.51,1.14,1.82,1.82,0,0,0-.41-.18c-.18-.06-.38-.12-.59-.17l-.66-.13a4.54,4.54,0,0,0-.6,0,2.21,2.21,0,0,0-.87.13.43.43,0,0,0-.31.4.36.36,0,0,0,.17.3,2,2,0,0,0,.65.23l.53.11a5.08,5.08,0,0,1,2.32,1A2.23,2.23,0,0,1,127.38,50.06Z" transform="translate(2.14 2.12)" style="fill:#1b1464"/><path d="M131.66,49.69a.69.69,0,0,0,.28.63,1.46,1.46,0,0,0,.79.19,3.27,3.27,0,0,0,.53,0,1.91,1.91,0,0,0,.47-.11,2.31,2.31,0,0,1,.27.42,1.4,1.4,0,0,1-.38,1.61,2.7,2.7,0,0,1-1.7.4,3.46,3.46,0,0,1-2.31-.68,2.73,2.73,0,0,1-.81-2.21V42.62a5,5,0,0,1,.54-.11,4.35,4.35,0,0,1,.74-.06,2.19,2.19,0,0,1,1.16.26,1.23,1.23,0,0,1,.42,1.11v1.09h2.23a2.69,2.69,0,0,1,.19.47,2,2,0,0,1,.1.62,1.17,1.17,0,0,1-.27.86,1,1,0,0,1-.7.26h-1.55Z" transform="translate(2.14 2.12)" style="fill:#1b1464"/><path d="M139,44a6.66,6.66,0,0,1,1.67.19,3.59,3.59,0,0,1,1.3.57,2.57,2.57,0,0,1,.82,1,3.12,3.12,0,0,1,.29,1.38v3.81a1,1,0,0,1-.25.72,2.51,2.51,0,0,1-.58.49,6.12,6.12,0,0,1-3.11.66,7.35,7.35,0,0,1-1.63-.17,3.76,3.76,0,0,1-1.24-.51,2.38,2.38,0,0,1-.8-.87,2.64,2.64,0,0,1-.28-1.22,2.29,2.29,0,0,1,.7-1.8,3.72,3.72,0,0,1,2.16-.78l2.23-.24v-.12a.75.75,0,0,0-.44-.71,2.94,2.94,0,0,0-1.25-.21,5.86,5.86,0,0,0-1.26.14,6.46,6.46,0,0,0-1.1.34,1.19,1.19,0,0,1-.37-.47,1.39,1.39,0,0,1-.16-.65,1.11,1.11,0,0,1,.21-.71,1.6,1.6,0,0,1,.66-.45,4.6,4.6,0,0,1,1.16-.27A9.6,9.6,0,0,1,139,44Zm.14,6.68a3.7,3.7,0,0,0,.63-.06,1.45,1.45,0,0,0,.52-.16V49.11l-1.22.1a1.85,1.85,0,0,0-.78.21.54.54,0,0,0-.31.51.68.68,0,0,0,.26.55A1.49,1.49,0,0,0,139.11,50.69Z" transform="translate(2.14 2.12)" style="fill:#1b1464"/><path d="M144.46,48.4a5,5,0,0,1,.34-1.95,3.85,3.85,0,0,1,.94-1.37,3.9,3.9,0,0,1,1.42-.8A5.38,5.38,0,0,1,148.9,44a3.6,3.6,0,0,1,.66.06,2.45,2.45,0,0,1,.53.15V41.46a5.38,5.38,0,0,1,.54-.11,4.9,4.9,0,0,1,.77-.06,4.47,4.47,0,0,1,.67.05,1.26,1.26,0,0,1,.5.21.92.92,0,0,1,.31.41,2.19,2.19,0,0,1,.1.69v8.06a1.46,1.46,0,0,1-.75,1.28,5.23,5.23,0,0,1-1.27.56,6.57,6.57,0,0,1-3.79-.06,4,4,0,0,1-1.48-.88,3.82,3.82,0,0,1-.91-1.38A5,5,0,0,1,144.46,48.4Zm4.83-2.13a1.85,1.85,0,0,0-1.41.53,2.25,2.25,0,0,0-.49,1.6,2.43,2.43,0,0,0,.45,1.59,1.68,1.68,0,0,0,1.33.53,1.59,1.59,0,0,0,.55-.09,1.12,1.12,0,0,0,.38-.21V46.48A1.48,1.48,0,0,0,149.29,46.27Z" transform="translate(2.14 2.12)" style="fill:#1b1464"/><path d="M163.33,48.4a5.25,5.25,0,0,1-.32,1.88,3.82,3.82,0,0,1-.91,1.38,3.77,3.77,0,0,1-1.4.85,5.51,5.51,0,0,1-1.82.29,5,5,0,0,1-1.82-.31,3.86,3.86,0,0,1-1.4-.87,3.7,3.7,0,0,1-.91-1.39,5.21,5.21,0,0,1,0-3.65,3.7,3.7,0,0,1,.91-1.39,3.86,3.86,0,0,1,1.4-.87,5.42,5.42,0,0,1,3.64,0,4.11,4.11,0,0,1,1.4.88A4,4,0,0,1,163,46.6,4.93,4.93,0,0,1,163.33,48.4Zm-6,0a2.67,2.67,0,0,0,.4,1.59,1.3,1.3,0,0,0,1.11.55A1.25,1.25,0,0,0,160,50a2.74,2.74,0,0,0,.38-1.58,2.68,2.68,0,0,0-.39-1.57,1.37,1.37,0,0,0-2.21,0A2.68,2.68,0,0,0,157.38,48.4Z" transform="translate(2.14 2.12)" style="fill:#1b1464"/><path d="M167.85,47.74a2.12,2.12,0,0,1,.56-1.49,1.94,1.94,0,0,1,1.5-.61,2,2,0,0,1,1.52.61,2.11,2.11,0,0,1,.55,1.49,2.06,2.06,0,0,1-.55,1.47,2,2,0,0,1-1.52.6,1.93,1.93,0,0,1-1.5-.6A2.07,2.07,0,0,1,167.85,47.74Z" transform="translate(2.14 2.12)" style="fill:#1b1464"/><path d="M180,48.43c-.5-.17-.95-.34-1.36-.52a4.07,4.07,0,0,1-1.06-.63,2.62,2.62,0,0,1-.68-.9,2.8,2.8,0,0,1-.25-1.26,2.76,2.76,0,0,1,1.11-2.31,5,5,0,0,1,3.12-.87,8.27,8.27,0,0,1,1.36.1,3.82,3.82,0,0,1,1.08.32,1.89,1.89,0,0,1,.71.54,1.23,1.23,0,0,1,.25.77,1.41,1.41,0,0,1-.2.76,2,2,0,0,1-.5.53,4.2,4.2,0,0,0-1-.41,5,5,0,0,0-1.38-.18,2.29,2.29,0,0,0-1.12.21.61.61,0,0,0-.35.54.47.47,0,0,0,.22.41,2,2,0,0,0,.66.3l.9.29a6.52,6.52,0,0,1,2.46,1.3,2.79,2.79,0,0,1,.86,2.15,2.84,2.84,0,0,1-1.14,2.34,5.4,5.4,0,0,1-3.35.89,7.48,7.48,0,0,1-1.46-.13,4.6,4.6,0,0,1-1.17-.37,2.21,2.21,0,0,1-.78-.61,1.35,1.35,0,0,1-.28-.84A1.27,1.27,0,0,1,177,50a2.07,2.07,0,0,1,.63-.53,4.39,4.39,0,0,0,1.16.64,3.9,3.9,0,0,0,1.51.28,2,2,0,0,0,1.17-.26.73.73,0,0,0,.34-.59.58.58,0,0,0-.27-.52,3.53,3.53,0,0,0-.77-.35Z" transform="translate(2.14 2.12)" style="fill:#1b1464"/><path d="M190.63,52.8a5.85,5.85,0,0,1-1.86-.28,4.27,4.27,0,0,1-1.49-.84,4,4,0,0,1-1-1.41,5.09,5.09,0,0,1-.36-2,4.72,4.72,0,0,1,.36-1.93,4,4,0,0,1,1-1.33,3.88,3.88,0,0,1,1.36-.76,4.91,4.91,0,0,1,1.57-.25,4.78,4.78,0,0,1,1.64.27,4,4,0,0,1,1.27.75,3.38,3.38,0,0,1,.84,1.14,3.61,3.61,0,0,1,.29,1.45,1.17,1.17,0,0,1-.32.88,1.7,1.7,0,0,1-.9.39l-4.2.63a1.42,1.42,0,0,0,.76.84,3,3,0,0,0,1.33.28,4.73,4.73,0,0,0,1.32-.18,4.22,4.22,0,0,0,1-.41,1.48,1.48,0,0,1,.46.47,1.29,1.29,0,0,1,.19.65,1.21,1.21,0,0,1-.72,1.14,3.88,3.88,0,0,1-1.22.39A8.44,8.44,0,0,1,190.63,52.8Zm-.47-6.68a1.7,1.7,0,0,0-.71.14,1.34,1.34,0,0,0-.48.34,1.47,1.47,0,0,0-.28.48,1.73,1.73,0,0,0-.11.54l2.9-.48a1.28,1.28,0,0,0-.37-.68A1.24,1.24,0,0,0,190.16,46.12Z" transform="translate(2.14 2.12)" style="fill:#1b1464"/><path d="M200.25,46.29a2.36,2.36,0,0,0-.8.14,1.81,1.81,0,0,0-.67.4,2.09,2.09,0,0,0-.45.65,2.36,2.36,0,0,0-.17.92,2,2,0,0,0,.61,1.58,2.16,2.16,0,0,0,1.47.53,2.88,2.88,0,0,0,.88-.12,6.27,6.27,0,0,0,.67-.26,1.75,1.75,0,0,1,.5.52,1.22,1.22,0,0,1,.17.67,1.18,1.18,0,0,1-.66,1.08,3.61,3.61,0,0,1-1.83.38,5.64,5.64,0,0,1-1.94-.31,4.33,4.33,0,0,1-1.49-.88,4,4,0,0,1-1-1.37,4.43,4.43,0,0,1-.34-1.77,4.76,4.76,0,0,1,.37-2,3.66,3.66,0,0,1,1-1.39,4.4,4.4,0,0,1,1.45-.82A5.58,5.58,0,0,1,199.8,44a3.42,3.42,0,0,1,1.88.44,1.35,1.35,0,0,1,.67,1.14,1.29,1.29,0,0,1-.16.61,2.47,2.47,0,0,1-.35.48,5.49,5.49,0,0,0-.7-.26A2.82,2.82,0,0,0,200.25,46.29Z" transform="translate(2.14 2.12)" style="fill:#1b1464"/><path d="M206.8,52.51a2.76,2.76,0,0,1-.54.1,4.57,4.57,0,0,1-.75,0,3.39,3.39,0,0,1-.67,0,1.16,1.16,0,0,1-.51-.2A1,1,0,0,1,204,52a1.82,1.82,0,0,1-.11-.68V46.2a1.54,1.54,0,0,1,.14-.67,1.78,1.78,0,0,1,.42-.5,2.83,2.83,0,0,1,.67-.4,6.67,6.67,0,0,1,.86-.31,7.28,7.28,0,0,1,.95-.21,5.51,5.51,0,0,1,1-.08,2.32,2.32,0,0,1,1.29.31,1.15,1.15,0,0,1,.48,1,1.84,1.84,0,0,1-.07.47,2.63,2.63,0,0,1-.17.42l-.73,0c-.25,0-.5.06-.73.1l-.68.15a3.69,3.69,0,0,0-.53.17Z" transform="translate(2.14 2.12)" style="fill:#1b1464"/><path d="M214.94,52.8a5.85,5.85,0,0,1-1.86-.28,4.41,4.41,0,0,1-1.5-.84,4.05,4.05,0,0,1-1-1.41,5.09,5.09,0,0,1-.36-2,4.72,4.72,0,0,1,.36-1.93,4,4,0,0,1,1-1.33,3.88,3.88,0,0,1,1.36-.76,4.91,4.91,0,0,1,1.57-.25,4.78,4.78,0,0,1,1.64.27,4,4,0,0,1,1.27.75,3.22,3.22,0,0,1,.83,1.14,3.45,3.45,0,0,1,.3,1.45,1.17,1.17,0,0,1-.32.88,1.7,1.7,0,0,1-.9.39l-4.2.63a1.42,1.42,0,0,0,.76.84,3,3,0,0,0,1.33.28,4.73,4.73,0,0,0,1.32-.18,4.22,4.22,0,0,0,1-.41,1.48,1.48,0,0,1,.46.47,1.29,1.29,0,0,1,.19.65,1.21,1.21,0,0,1-.72,1.14,3.88,3.88,0,0,1-1.22.39A8.44,8.44,0,0,1,214.94,52.8Zm-.47-6.68a1.7,1.7,0,0,0-.71.14,1.34,1.34,0,0,0-.48.34,1.47,1.47,0,0,0-.28.48,1.73,1.73,0,0,0-.11.54l2.9-.48a1.28,1.28,0,0,0-.37-.68A1.24,1.24,0,0,0,214.47,46.12Z" transform="translate(2.14 2.12)" style="fill:#1b1464"/><path d="M222.8,49.69a.69.69,0,0,0,.28.63,1.44,1.44,0,0,0,.79.19,3.15,3.15,0,0,0,.52,0,2,2,0,0,0,.48-.11,2.26,2.26,0,0,1,.26.42,1.18,1.18,0,0,1,.11.55,1.34,1.34,0,0,1-.48,1.06,2.71,2.71,0,0,1-1.71.4,3.43,3.43,0,0,1-2.3-.68,2.73,2.73,0,0,1-.81-2.21V42.62a4.52,4.52,0,0,1,.54-.11,4.35,4.35,0,0,1,.74-.06,2.24,2.24,0,0,1,1.16.26,1.23,1.23,0,0,1,.42,1.11v1.09H225a2.65,2.65,0,0,1,.2.47,2,2,0,0,1,.09.62,1.21,1.21,0,0,1-.26.86,1,1,0,0,1-.71.26H222.8Z" transform="translate(2.14 2.12)" style="fill:#1b1464"/><path d="M230.11,44a6.66,6.66,0,0,1,1.67.19,3.47,3.47,0,0,1,1.29.57,2.6,2.6,0,0,1,.83,1,3.12,3.12,0,0,1,.29,1.38v3.81a1,1,0,0,1-.25.72,2.37,2.37,0,0,1-.59.49,6.07,6.07,0,0,1-3.11.66,7.26,7.26,0,0,1-1.62-.17,3.67,3.67,0,0,1-1.24-.51,2.3,2.3,0,0,1-.8-.87A2.53,2.53,0,0,1,226.3,50a2.29,2.29,0,0,1,.7-1.8,3.71,3.71,0,0,1,2.15-.78l2.23-.24v-.12a.74.74,0,0,0-.43-.71,3,3,0,0,0-1.25-.21,5.86,5.86,0,0,0-1.26.14,6.31,6.31,0,0,0-1.11.34,1.29,1.29,0,0,1-.37-.47,1.51,1.51,0,0,1-.15-.65,1.11,1.11,0,0,1,.21-.71,1.56,1.56,0,0,1,.65-.45,4.58,4.58,0,0,1,1.17-.27A9.6,9.6,0,0,1,230.11,44Zm.13,6.68a3.81,3.81,0,0,0,.64-.06,1.52,1.52,0,0,0,.52-.16V49.11l-1.23.1a1.94,1.94,0,0,0-.78.21.54.54,0,0,0-.3.51.65.65,0,0,0,.26.55A1.45,1.45,0,0,0,230.24,50.69Z" transform="translate(2.14 2.12)" style="fill:#1b1464"/><path d="M238.84,52.51a2.78,2.78,0,0,1-.53.1,4.7,4.7,0,0,1-.76,0,3.45,3.45,0,0,1-.67,0,1.12,1.12,0,0,1-.5-.2,1,1,0,0,1-.32-.42,1.82,1.82,0,0,1-.11-.68V46.2a1.41,1.41,0,0,1,.15-.67,1.63,1.63,0,0,1,.42-.5,2.83,2.83,0,0,1,.67-.4,6.52,6.52,0,0,1,.85-.31,7.43,7.43,0,0,1,1-.21,5.4,5.4,0,0,1,1-.08,2.34,2.34,0,0,1,1.3.31,1.16,1.16,0,0,1,.47,1,1.49,1.49,0,0,1-.07.47,1.94,1.94,0,0,1-.17.42l-.73,0c-.25,0-.49.06-.73.1l-.67.15a3.86,3.86,0,0,0-.54.17Z" transform="translate(2.14 2.12)" style="fill:#1b1464"/><path d="M245.49,39.88a1.92,1.92,0,0,1,1.28.34,1,1,0,0,1,.4.82,1.21,1.21,0,0,1-.23.74,2.56,2.56,0,0,1-.79.58L244,43.52a1.37,1.37,0,0,1-.87-.41,1.09,1.09,0,0,1-.35-.76.86.86,0,0,1,.1-.41,1.09,1.09,0,0,1,.34-.38Zm.41,12.63-.55.1a4.6,4.6,0,0,1-.74,0,3.39,3.39,0,0,1-.67,0,1.16,1.16,0,0,1-.51-.2,1,1,0,0,1-.31-.42,1.64,1.64,0,0,1-.11-.68V44.39l.55-.1a4.52,4.52,0,0,1,.74-.06,4.47,4.47,0,0,1,.67.05,1.2,1.2,0,0,1,.5.21,1,1,0,0,1,.32.42,1.82,1.82,0,0,1,.11.68Z" transform="translate(2.14 2.12)" style="fill:#1b1464"/><path d="M251.13,44a6.75,6.75,0,0,1,1.68.19,3.62,3.62,0,0,1,1.29.57,2.6,2.6,0,0,1,.83,1,3.12,3.12,0,0,1,.28,1.38v3.81a1,1,0,0,1-.24.72,2.57,2.57,0,0,1-.59.49,6.09,6.09,0,0,1-3.11.66,7.26,7.26,0,0,1-1.62-.17,3.67,3.67,0,0,1-1.24-.51,2.22,2.22,0,0,1-.8-.87,2.53,2.53,0,0,1-.28-1.22,2.31,2.31,0,0,1,.69-1.8,3.77,3.77,0,0,1,2.16-.78l2.23-.24v-.12a.75.75,0,0,0-.43-.71,3,3,0,0,0-1.25-.21,5.86,5.86,0,0,0-1.26.14,6.31,6.31,0,0,0-1.11.34,1.29,1.29,0,0,1-.37-.47,1.51,1.51,0,0,1-.15-.65,1.11,1.11,0,0,1,.21-.71,1.56,1.56,0,0,1,.65-.45,4.58,4.58,0,0,1,1.17-.27A9.57,9.57,0,0,1,251.13,44Zm.14,6.68a3.81,3.81,0,0,0,.64-.06,1.6,1.6,0,0,0,.52-.16V49.11l-1.23.1a1.85,1.85,0,0,0-.78.21.55.55,0,0,0-.31.51.66.66,0,0,0,.27.55A1.43,1.43,0,0,0,251.27,50.69Z" transform="translate(2.14 2.12)" style="fill:#1b1464"/><path d="M260,48.4a5,5,0,0,1,.34-1.95,3.72,3.72,0,0,1,.94-1.37,3.78,3.78,0,0,1,1.41-.8,5.47,5.47,0,0,1,1.74-.27,3.71,3.71,0,0,1,.67.06,2.34,2.34,0,0,1,.52.15V41.46l.55-.11a4.77,4.77,0,0,1,.76-.06,4.36,4.36,0,0,1,.67.05,1.2,1.2,0,0,1,.5.21.92.92,0,0,1,.31.41,1.94,1.94,0,0,1,.1.69v8.06a1.46,1.46,0,0,1-.75,1.28,5.06,5.06,0,0,1-1.27.56,6.54,6.54,0,0,1-3.78-.06,3.82,3.82,0,0,1-2.4-2.26A5,5,0,0,1,260,48.4Zm4.82-2.13a1.85,1.85,0,0,0-1.41.53,2.25,2.25,0,0,0-.49,1.6,2.38,2.38,0,0,0,.46,1.59,1.67,1.67,0,0,0,1.33.53,1.63,1.63,0,0,0,.55-.09,1.22,1.22,0,0,0,.38-.21V46.48A1.54,1.54,0,0,0,264.85,46.27Z" transform="translate(2.14 2.12)" style="fill:#1b1464"/><path d="M274.71,52.8a5.85,5.85,0,0,1-1.86-.28,4.27,4.27,0,0,1-1.49-.84,4,4,0,0,1-1-1.41,5.09,5.09,0,0,1-.36-2,4.72,4.72,0,0,1,.36-1.93,4,4,0,0,1,1-1.33,3.88,3.88,0,0,1,1.36-.76,5,5,0,0,1,1.57-.25,4.74,4.74,0,0,1,1.64.27,4,4,0,0,1,1.27.75,3.38,3.38,0,0,1,.84,1.14,3.61,3.61,0,0,1,.29,1.45,1.13,1.13,0,0,1-.32.88,1.63,1.63,0,0,1-.9.39l-4.2.63a1.44,1.44,0,0,0,.77.84,2.91,2.91,0,0,0,1.32.28,4.68,4.68,0,0,0,1.32-.18,4.22,4.22,0,0,0,1-.41,1.38,1.38,0,0,1,.46.47,1.29,1.29,0,0,1,.19.65,1.21,1.21,0,0,1-.72,1.14,3.88,3.88,0,0,1-1.22.39A8.34,8.34,0,0,1,274.71,52.8Zm-.47-6.68a1.73,1.73,0,0,0-.71.14,1.34,1.34,0,0,0-.48.34,1.47,1.47,0,0,0-.28.48,2.08,2.08,0,0,0-.11.54l2.9-.48a1.22,1.22,0,0,0-.37-.68A1.24,1.24,0,0,0,274.24,46.12Z" transform="translate(2.14 2.12)" style="fill:#1b1464"/><path d="M286.22,48.43c-.5-.17-1-.34-1.36-.52a3.85,3.85,0,0,1-1.05-.63,2.53,2.53,0,0,1-.69-.9,2.94,2.94,0,0,1-.25-1.26A2.75,2.75,0,0,1,284,42.81a5,5,0,0,1,3.12-.87,8.36,8.36,0,0,1,1.36.1,3.82,3.82,0,0,1,1.08.32,1.85,1.85,0,0,1,.7.54,1.23,1.23,0,0,1,.26.77,1.33,1.33,0,0,1-.21.76,1.91,1.91,0,0,1-.49.53,4.2,4.2,0,0,0-1-.41,5,5,0,0,0-1.38-.18,2.26,2.26,0,0,0-1.12.21.62.62,0,0,0-.36.54.47.47,0,0,0,.22.41,2.28,2.28,0,0,0,.66.3l.91.29a6.47,6.47,0,0,1,2.45,1.3,2.79,2.79,0,0,1,.86,2.15,2.84,2.84,0,0,1-1.14,2.34,5.38,5.38,0,0,1-3.35.89,7.38,7.38,0,0,1-1.45-.13,4.47,4.47,0,0,1-1.17-.37,2.17,2.17,0,0,1-.79-.61,1.41,1.41,0,0,1-.28-.84,1.33,1.33,0,0,1,.29-.85,2.07,2.07,0,0,1,.63-.53,4.62,4.62,0,0,0,1.17.64,3.89,3.89,0,0,0,1.5.28,2,2,0,0,0,1.17-.26.73.73,0,0,0,.34-.59.58.58,0,0,0-.27-.52,3.42,3.42,0,0,0-.76-.35Z" transform="translate(2.14 2.12)" style="fill:#1b1464"/><path d="M296,44a6.75,6.75,0,0,1,1.68.19,3.62,3.62,0,0,1,1.29.57,2.6,2.6,0,0,1,.83,1,3.12,3.12,0,0,1,.28,1.38v3.81a1,1,0,0,1-.24.72,2.57,2.57,0,0,1-.59.49,6.09,6.09,0,0,1-3.11.66,7.26,7.26,0,0,1-1.62-.17,3.59,3.59,0,0,1-1.24-.51,2.22,2.22,0,0,1-.8-.87,2.53,2.53,0,0,1-.28-1.22,2.31,2.31,0,0,1,.69-1.8,3.77,3.77,0,0,1,2.16-.78l2.23-.24v-.12a.75.75,0,0,0-.43-.71,3,3,0,0,0-1.25-.21,5.86,5.86,0,0,0-1.26.14,6.31,6.31,0,0,0-1.11.34,1.29,1.29,0,0,1-.37-.47,1.51,1.51,0,0,1-.15-.65,1.11,1.11,0,0,1,.21-.71,1.56,1.56,0,0,1,.65-.45,4.58,4.58,0,0,1,1.17-.27A9.57,9.57,0,0,1,296,44Zm.14,6.68a3.81,3.81,0,0,0,.64-.06,1.6,1.6,0,0,0,.52-.16V49.11l-1.23.1a1.85,1.85,0,0,0-.78.21.55.55,0,0,0-.31.51.66.66,0,0,0,.27.55A1.43,1.43,0,0,0,296.15,50.69Z" transform="translate(2.14 2.12)" style="fill:#1b1464"/><path d="M304.8,52.51l-.55.1a4.53,4.53,0,0,1-.74,0,3.45,3.45,0,0,1-.67,0,1.08,1.08,0,0,1-.5-.2A1,1,0,0,1,302,52a1.82,1.82,0,0,1-.11-.68V41.45l.56-.1a4.52,4.52,0,0,1,.74-.06,4.47,4.47,0,0,1,.67.05,1.26,1.26,0,0,1,.5.21,1,1,0,0,1,.31.41,1.72,1.72,0,0,1,.11.69Z" transform="translate(2.14 2.12)" style="fill:#1b1464"/><path d="M306.62,44.39a3.79,3.79,0,0,1,.54-.11,6,6,0,0,1,.75-.05,4.61,4.61,0,0,1,.68.05,1.33,1.33,0,0,1,.5.21,1,1,0,0,1,.31.42,1.64,1.64,0,0,1,.11.68v3.66a1.25,1.25,0,0,0,.34,1,1.46,1.46,0,0,0,1,.3,2.31,2.31,0,0,0,.64-.07,2.34,2.34,0,0,0,.38-.13v-6a3.59,3.59,0,0,1,.53-.11,6.33,6.33,0,0,1,.76-.05,4.47,4.47,0,0,1,.67.05,1.2,1.2,0,0,1,.5.21,1,1,0,0,1,.32.42,1.82,1.82,0,0,1,.11.68v5.17A1.4,1.4,0,0,1,314,52a4.63,4.63,0,0,1-1.41.57,7.89,7.89,0,0,1-1.8.19,6.93,6.93,0,0,1-1.69-.2,4,4,0,0,1-1.34-.63,2.77,2.77,0,0,1-.86-1.1,3.81,3.81,0,0,1-.31-1.62Z" transform="translate(2.14 2.12)" style="fill:#1b1464"/><path d="M316.16,48.4a5,5,0,0,1,.34-1.95,3.85,3.85,0,0,1,.94-1.37,3.78,3.78,0,0,1,1.41-.8A5.49,5.49,0,0,1,320.6,44a3.68,3.68,0,0,1,.66.06,2.63,2.63,0,0,1,.53.15V41.46a5.38,5.38,0,0,1,.54-.11,4.77,4.77,0,0,1,.76-.06,4.61,4.61,0,0,1,.68.05,1.33,1.33,0,0,1,.5.21.9.9,0,0,1,.3.41,1.92,1.92,0,0,1,.11.69v8.06a1.46,1.46,0,0,1-.75,1.28,5.32,5.32,0,0,1-1.28.56,6.54,6.54,0,0,1-3.78-.06,3.92,3.92,0,0,1-1.48-.88,3.85,3.85,0,0,1-.92-1.38A5,5,0,0,1,316.16,48.4ZM321,46.27a1.82,1.82,0,0,0-1.41.53,2.26,2.26,0,0,0-.5,1.6,2.43,2.43,0,0,0,.46,1.59,1.68,1.68,0,0,0,1.33.53,1.59,1.59,0,0,0,.55-.09,1.22,1.22,0,0,0,.38-.21V46.48A1.5,1.5,0,0,0,321,46.27Z" transform="translate(2.14 2.12)" style="fill:#1b1464"/></g></g></svg>