<svg xmlns="http://www.w3.org/2000/svg" viewBox="0 0 110 56">
  <radialGradient id="l-g" cx="25.498" cy="52.586" r="18.703" fx="6.795" fy="52.709" gradientTransform="translate(-14.252 -43.255)" gradientUnits="userSpaceOnUse">
    <stop offset="0" stop-color="#06f" stop-opacity=".996"/>
    <stop offset="1" stop-color="#000f9f" stop-opacity=".996"/>
  </radialGradient>
  <radialGradient id="l-o" cx="94.596" cy="51.259" r="26.272" gradientTransform="translate(-14.252 -43.255)" gradientUnits="userSpaceOnUse">
    <stop offset="0" stop-color="#06f" stop-opacity=".996"/>
    <stop offset="1" stop-color="#000f9f" stop-opacity=".996"/>
  </radialGradient>
  <radialGradient id="l-t" cx="58.294" cy="45.194" r="26.69" gradientTransform="translate(-14.252 -43.255)" gradientUnits="userSpaceOnUse">
    <stop offset="0" stop-color="#06f" stop-opacity=".996"/>
    <stop offset="1" stop-color="#000f9f" stop-opacity=".996"/>
  </radialGradient>
  <linearGradient id="g-t" x1="-.038" x2=".891" y1=".336" y2="1.028">
    <stop offset="0" stop-color="#FF8201"/>
    <stop offset="1" stop-color="#FFB621"/>
  </linearGradient>
  <linearGradient id="g-g" x1=".081" x2=".663" y1=".161" y2=".968">
    <stop offset="0" stop-color="#00702F"/>
    <stop offset="1" stop-color="#42E05A"/>
  </linearGradient>
  <linearGradient id="g-o" x1=".5" x2=".5" y1=".038" y2=".905">
    <stop offset="0" stop-color="#F51FCC"/>
    <stop offset="1" stop-color="#FF5BE8"/>
  </linearGradient>
  <path fill="#000f9f" d="M14.058 53.095c0 .22-.04.39-.12.49s-.2.21-.38.31c-.1.06-.23.11-.38.17-.15.05-.31.1-.49.14-.18.04-.37.07-.56.09-.2.02-.39.03-.58.03-.51 0-1-.07-1.45-.21-.45-.14-.84-.35-1.17-.63s-.6-.63-.79-1.06c-.19-.42-.29-.91-.29-1.47 0-.59.11-1.1.32-1.53.21-.44.49-.8.84-1.09.35-.29.74-.51 1.19-.65.45-.14.91-.21 1.38-.21.68 0 1.22.11 1.61.33.4.22.59.5.59.85 0 .19-.05.35-.14.48s-.2.24-.32.32c-.18-.11-.4-.21-.67-.32-.27-.1-.57-.16-.91-.16-.6 0-1.08.17-1.43.51-.35.34-.53.82-.53 1.43 0 .33.05.61.14.85.1.24.23.44.39.59.16.15.35.27.57.34s.44.11.69.11c.16 0 .3-.01.42-.04s.21-.06.28-.1v-1.01h-1.15c-.04-.08-.08-.18-.12-.31-.04-.13-.06-.26-.06-.41 0-.26.06-.44.18-.56s.27-.17.46-.17h1.81c.21 0 .38.06.5.18s.18.28.18.5v2.21h-.01zm2.8 1.06a3.636 3.636 0 0 1-.82.09c-.16 0-.3-.01-.42-.03s-.23-.06-.32-.13-.15-.15-.2-.26c-.05-.11-.07-.26-.07-.43v-3.22c0-.16.03-.31.09-.42.06-.12.15-.22.26-.32.11-.09.26-.18.42-.25.17-.07.35-.14.54-.2.19-.06.39-.1.6-.13s.41-.05.62-.05c.34 0 .61.07.81.2.2.13.3.35.3.65 0 .1-.01.2-.04.29-.03.1-.06.18-.11.26-.15 0-.3.01-.46.02s-.31.04-.46.06c-.15.03-.29.06-.42.09s-.24.07-.34.11v3.67h.02zm4.42-5.37c.39 0 .74.04 1.06.12.32.08.59.2.81.36.23.16.4.37.52.61.12.25.18.54.18.87v2.4c0 .19-.05.34-.16.46-.1.12-.23.22-.37.31-.46.28-1.12.42-1.96.42-.38 0-.72-.04-1.02-.11-.3-.07-.56-.18-.78-.32-.22-.14-.39-.33-.5-.55-.12-.22-.18-.48-.18-.77 0-.49.15-.87.44-1.14.29-.26.75-.43 1.36-.49l1.4-.15v-.08c0-.21-.09-.36-.27-.45-.18-.09-.44-.13-.79-.13-.27 0-.54.03-.79.09s-.49.13-.7.21a.793.793 0 0 1-.24-.29.99.99 0 0 1-.1-.41c0-.19.04-.33.13-.45a.99.99 0 0 1 .41-.28c.21-.08.45-.14.73-.17.3-.04.57-.06.82-.06zm.09 4.22c.12 0 .26-.01.4-.04.15-.03.26-.06.33-.1v-.86l-.77.06c-.2.01-.36.06-.49.13s-.19.18-.19.32.06.26.17.35c.09.09.28.14.55.14zm6.9-2.15c0-.22-.06-.38-.19-.49s-.29-.16-.51-.16c-.14 0-.28.02-.42.05-.14.04-.26.09-.36.16v3.72a3.636 3.636 0 0 1-.82.09c-.16 0-.3-.01-.42-.03s-.23-.06-.32-.13-.15-.15-.2-.26c-.05-.11-.07-.26-.07-.43v-3.22c0-.19.04-.35.12-.47.08-.12.19-.23.34-.33.24-.17.55-.31.92-.42s.78-.16 1.23-.16c.81 0 1.43.18 1.87.53.44.35.65.85.65 1.47v3.36a3.749 3.749 0 0 1-.82.09c-.16 0-.3-.01-.42-.03s-.23-.06-.32-.13a.588.588 0 0 1-.2-.26c-.05-.11-.07-.26-.07-.43v-2.52h.01zm2.72.7c0-.47.07-.88.21-1.23.14-.35.34-.63.6-.86.25-.23.55-.4.89-.51.34-.11.71-.17 1.1-.17.14 0 .28.01.42.04s.25.06.33.09v-1.74c.07-.02.19-.04.34-.07.16-.02.32-.04.48-.04.16 0 .3.01.42.03.13.02.23.06.32.13.09.06.15.15.19.26.04.11.06.26.06.43v5.08c0 .34-.16.6-.47.8-.21.14-.48.25-.8.36-.33.1-.71.16-1.14.16-.46 0-.88-.06-1.25-.19s-.68-.31-.93-.56-.45-.53-.58-.87-.19-.71-.19-1.14zm3.05-1.34c-.39 0-.68.11-.89.33-.21.22-.31.56-.31 1.01 0 .44.1.78.29 1 .19.23.47.34.84.34.13 0 .25-.02.35-.06s.18-.08.24-.13v-2.36a.98.98 0 0 0-.52-.13zm5.75 4.12c-.42 0-.81-.06-1.17-.18-.36-.12-.68-.29-.94-.53s-.48-.53-.63-.89-.23-.78-.23-1.25.08-.88.23-1.22a2.354 2.354 0 0 1 1.47-1.32c.32-.1.65-.16.99-.16.38 0 .72.06 1.04.17.31.11.58.27.8.47.23.2.4.44.53.72.13.28.19.58.19.91 0 .24-.07.43-.2.56-.14.13-.33.21-.57.25l-2.65.4c.08.24.24.41.48.53.24.12.52.18.84.18a3.025 3.025 0 0 0 1.47-.37c.11.07.21.17.29.3s.12.26.12.41c0 .32-.15.56-.45.72-.23.12-.49.2-.77.25-.32.03-.59.05-.84.05zm-.3-4.22c-.17 0-.32.03-.44.09a.91.91 0 0 0-.31.22c-.08.09-.14.19-.18.3-.04.11-.06.22-.07.34l1.83-.3a.785.785 0 0 0-.24-.43c-.12-.15-.33-.22-.59-.22zm3.43 4.05c-.11-.1-.21-.22-.27-.35s-.1-.29-.1-.46c0-.14.03-.28.1-.42.07-.14.15-.27.25-.39l1.84-2.17h-1.97c-.04-.08-.08-.18-.12-.3-.04-.12-.06-.25-.06-.4 0-.25.06-.43.17-.54.11-.11.26-.17.44-.17h3.38c.11.1.21.22.27.35s.1.29.1.46c0 .14-.03.28-.1.42-.07.14-.15.27-.25.39l-1.8 2.17h2.1c.04.08.08.18.12.3.04.12.06.25.06.4 0 .25-.06.43-.17.54-.11.11-.26.17-.44.17h-3.55zm7.12-5.38c.39 0 .74.04 1.06.12.32.08.59.2.81.36.23.16.4.37.52.61.12.25.18.54.18.87v2.4c0 .19-.05.34-.16.46-.1.12-.23.22-.37.31-.46.28-1.12.42-1.96.42-.38 0-.72-.04-1.02-.11-.3-.07-.56-.18-.78-.32-.22-.14-.39-.33-.5-.55-.12-.22-.18-.48-.18-.77 0-.49.15-.87.44-1.14.29-.26.75-.43 1.36-.49l1.4-.15v-.08c0-.21-.09-.36-.27-.45-.18-.09-.44-.13-.79-.13-.27 0-.54.03-.79.09s-.49.13-.7.21a.793.793 0 0 1-.24-.29.99.99 0 0 1-.1-.41c0-.19.04-.33.13-.45a.99.99 0 0 1 .41-.28c.21-.08.45-.14.73-.17.3-.04.57-.06.82-.06zm.08 4.22c.12 0 .26-.01.4-.04.15-.03.26-.06.33-.1v-.86l-.77.06c-.2.01-.36.06-.49.13s-.19.18-.19.32.06.26.17.35c.1.09.29.14.55.14zm5.09-1.45c0-.47.07-.88.21-1.23.14-.35.34-.63.6-.86.25-.23.55-.4.89-.51.34-.11.71-.17 1.1-.17.14 0 .28.01.42.04s.25.06.33.09v-1.74c.07-.02.19-.04.34-.07.16-.02.32-.04.48-.04.16 0 .3.01.42.03.13.02.23.06.32.13.09.06.15.15.19.26.04.11.06.26.06.43v5.08c0 .34-.16.6-.47.8-.21.14-.48.25-.8.36-.33.1-.71.16-1.14.16-.46 0-.88-.06-1.25-.19s-.68-.31-.93-.56-.45-.53-.58-.87-.19-.71-.19-1.14zm3.04-1.34c-.39 0-.68.11-.89.33-.21.22-.31.56-.31 1.01 0 .44.1.78.29 1 .19.23.47.34.84.34.13 0 .25-.02.35-.06s.18-.08.24-.13v-2.36a.934.934 0 0 0-.52-.13zm6.04 4.12c-.42 0-.81-.06-1.17-.18-.36-.12-.68-.29-.94-.53s-.48-.53-.63-.89-.23-.78-.23-1.25.08-.88.23-1.22a2.354 2.354 0 0 1 1.47-1.32c.32-.1.65-.16.99-.16.38 0 .72.06 1.04.17.31.11.58.27.8.47.23.2.4.44.53.72.13.28.19.58.19.91 0 .24-.07.43-.2.56-.14.13-.33.21-.57.25l-2.65.4c.08.24.24.41.48.53.24.12.52.18.84.18a3.025 3.025 0 0 0 1.47-.37c.11.07.21.17.29.3s.12.26.12.41c0 .32-.15.56-.45.72-.23.12-.49.2-.77.25-.32.03-.59.05-.84.05zm-.3-4.22c-.17 0-.32.03-.44.09a.91.91 0 0 0-.31.22c-.08.09-.14.19-.18.3-.04.11-.06.22-.07.34l1.83-.3a.785.785 0 0 0-.24-.43c-.12-.15-.33-.22-.59-.22zm9.88 2.45c-.09.08-.21.14-.36.19s-.32.07-.51.07c-.26 0-.47-.03-.64-.1a.516.516 0 0 1-.33-.33c-.2-.63-.36-1.14-.49-1.53-.13-.39-.23-.73-.3-1.02h-.05c-.02.42-.04.81-.05 1.15s-.02.68-.02 1.01-.01.66-.02 1-.03.71-.05 1.12c-.09.04-.21.07-.36.09-.15.03-.3.04-.45.04-.31 0-.56-.05-.73-.15-.18-.1-.26-.28-.26-.55l.31-5.47c.06-.09.18-.19.38-.3.19-.11.46-.16.81-.16.38 0 .68.06.89.18.21.12.37.31.47.57.06.17.13.37.21.59s.15.45.23.69c.08.24.15.47.22.7.07.23.14.44.19.63h.05c.17-.6.34-1.18.51-1.74.17-.56.33-1.03.47-1.41.11-.06.24-.11.41-.14.17-.04.36-.06.56-.06.35 0 .64.05.86.16.22.1.35.25.39.45.03.14.06.36.09.66s.07.63.1 1c.04.37.07.76.11 1.18.04.41.07.81.1 1.2s.06.73.08 1.05.04.56.04.73c-.12.07-.25.12-.38.16-.13.03-.3.05-.51.05-.27 0-.5-.05-.69-.14-.19-.09-.29-.28-.3-.55-.04-.78-.07-1.48-.08-2.1s-.03-1.14-.05-1.57h-.05c-.07.28-.18.63-.31 1.05-.14.4-.3.94-.49 1.6zm6.52 1.77c-.42 0-.81-.06-1.17-.18-.36-.12-.68-.29-.94-.53s-.48-.53-.63-.89-.23-.78-.23-1.25.08-.88.23-1.22a2.354 2.354 0 0 1 1.47-1.32c.32-.1.65-.16.99-.16.38 0 .72.06 1.04.17.31.11.58.27.8.47.23.2.4.44.53.72.13.28.19.58.19.91 0 .24-.07.43-.2.56-.14.13-.33.21-.57.25l-2.65.4c.08.24.24.41.48.53.24.12.52.18.84.18a3.025 3.025 0 0 0 1.47-.37c.11.07.21.17.29.3s.12.26.12.41c0 .32-.15.56-.45.72-.23.12-.49.2-.77.25-.32.03-.59.05-.84.05zm-.11-8.15c.37 0 .64.07.81.21.17.14.25.31.25.51 0 .19-.05.34-.15.47s-.26.25-.49.37l-1.38.73a.889.889 0 0 1-.55-.26c-.15-.15-.23-.31-.23-.48 0-.08.02-.17.06-.26.04-.09.11-.16.21-.24l1.47-1.05zm-.19 3.93c-.17 0-.32.03-.44.09a.91.91 0 0 0-.31.22c-.08.09-.14.19-.18.3-.04.11-.06.22-.07.34l1.83-.3a.785.785 0 0 0-.24-.43c-.12-.15-.33-.22-.59-.22zm2.95-.32c.06-.27.17-.49.34-.67s.38-.26.63-.26c.24 0 .42.06.55.17.13.11.27.28.43.48l.69.9 1.15-1.56c.39 0 .7.07.93.21.23.14.34.33.34.56 0 .09-.01.18-.04.25s-.06.15-.11.23c-.05.08-.11.17-.19.27s-.17.22-.28.35l-.71.79 1.4 1.85c-.04.27-.14.49-.32.64s-.39.24-.64.24c-.27-.01-.49-.09-.65-.24a3.29 3.29 0 0 1-.47-.55l-.58-.83-1.09 1.58h-.12c-.04 0-.08.01-.11.01-.36 0-.64-.08-.83-.23s-.28-.34-.28-.56c0-.17.04-.32.12-.46.08-.13.22-.31.42-.54l.86-1-1.44-1.63zm5.65-2.29c0-.27.09-.5.27-.69.18-.19.42-.28.72-.28s.54.09.72.28c.18.19.27.42.27.69s-.09.5-.27.69c-.18.19-.42.28-.72.28s-.54-.09-.72-.28a.967.967 0 0 1-.27-.69zm1.91 6.65c-.08.01-.19.03-.35.06-.15.03-.31.04-.47.04s-.3-.01-.42-.03a.65.65 0 0 1-.52-.39c-.05-.11-.07-.26-.07-.43v-4.36c.08-.01.19-.03.35-.06.15-.03.31-.04.47-.04s.3.01.42.03.23.06.32.13c.09.06.15.15.2.26.05.11.07.26.07.43v4.36zm3.97-3.93c-.18 0-.35.03-.51.09-.16.06-.3.14-.42.25-.12.11-.21.25-.28.41-.07.16-.11.36-.11.58 0 .44.13.78.38 1 .25.22.56.33.93.33.21 0 .4-.02.56-.08.16-.05.3-.1.42-.16.14.1.25.21.32.33.07.12.11.26.11.42 0 .29-.14.52-.42.68-.28.16-.67.24-1.16.24-.45 0-.86-.07-1.22-.2s-.68-.32-.94-.56c-.26-.24-.46-.53-.61-.86s-.21-.71-.21-1.12c0-.47.08-.88.23-1.24.15-.35.36-.64.63-.87.26-.23.57-.4.92-.51s.71-.17 1.1-.17c.51 0 .91.09 1.19.28.28.19.42.43.42.72 0 .14-.03.26-.1.38-.06.12-.14.22-.23.31-.12-.06-.27-.11-.44-.17-.17-.05-.36-.08-.56-.08zm7.36 1.33c0 .44-.07.84-.2 1.18s-.33.64-.57.87c-.25.24-.54.42-.88.54-.34.12-.73.18-1.15.18-.42 0-.8-.06-1.15-.19s-.64-.31-.88-.55c-.25-.24-.44-.53-.57-.87-.14-.34-.2-.73-.2-1.16 0-.42.07-.8.2-1.15.14-.34.33-.63.57-.87s.54-.42.88-.55.73-.19 1.15-.19c.42 0 .8.07 1.15.2.34.13.64.32.88.56.25.24.44.53.57.87.13.34.2.72.2 1.13zm-3.75 0c0 .44.08.77.25 1 .17.23.4.35.7.35s.53-.12.69-.35c.16-.24.24-.57.24-1 0-.43-.08-.76-.25-.99s-.4-.35-.7-.35-.53.12-.7.35-.23.56-.23.99z"/>
  <path fill="url(#l-g)" d="M14.998 2.355c-2.54.78-4.88 2.07-6.9 3.8-2.03 1.76-3.69 3.9-4.9 6.3a19.11 19.11 0 0 0-1.8 8.9c-.04 2.95.54 5.88 1.7 8.6 1.07 2.38 2.64 4.49 4.6 6.2 2 1.68 4.31 2.94 6.8 3.7 2.72.82 5.56 1.22 8.4 1.2 1.1 0 2.3-.1 3.4-.2s2.2-.3 3.3-.5c.98-.21 1.95-.47 2.9-.8.77-.23 1.51-.57 2.2-1 .83-.47 1.57-1.08 2.2-1.8.55-.86.8-1.88.7-2.9v-12.8a3.499 3.499 0 0 0-3.05-3.9c-.28-.03-.57-.03-.85 0h-10.5c-1-.05-1.98.31-2.7 1a4.23 4.23 0 0 0-1 3.2c0 .81.1 1.62.3 2.4.16.62.4 1.23.7 1.8h6.7v5.9a8.825 8.825 0 0 1-4 .9c-1.37.02-2.72-.22-4-.7a9.318 9.318 0 0 1-5.6-5.4c-.6-1.59-.88-3.3-.8-5 0-3.5 1-6.3 3.1-8.3a11.43 11.43 0 0 1 8.3-3c1.81-.03 3.6.28 5.3.9 1.35.48 2.66 1.09 3.9 1.8.73-.53 1.37-1.17 1.9-1.9.53-.84.81-1.81.8-2.8 0-2-1.2-3.7-3.5-5s-5.4-1.9-9.4-1.9c-2.79.01-5.55.45-8.2 1.3"/>
  <path fill="url(#l-o)" d="M79.498 21.155a8.8 8.8 0 1 1 8.8 8.8c-4.86-.01-8.8-3.95-8.8-8.8m-11.2 0c0 11.1 9 20.1 20.1 20.1s20.1-9 20.1-20.1-9-20.1-20.1-20.1c-11.1 0-20.1 8.99-20.1 20.1"/>
  <path fill="url(#l-t)" d="M41.898 2.055c-5.5.1-4.1 9-4.1 9l10.5-.1v29.2c11.2 3 11.1-3.3 11.1-3.3v-25.8h6.6c5.9 0 4.2-9 4.2-9h-28.3"/>
  <path fill="url(#g-g)" d="M3.198 12.655a20.506 20.506 0 0 0-1.8 8.9c-.05 2.95.53 5.89 1.7 8.6 1.07 2.38 2.64 4.49 4.6 6.2 2 1.68 4.31 2.94 6.8 3.7 2.72.82 5.56 1.22 8.4 1.2 1.1 0 2.3-.1 3.4-.2s2.2-.3 3.3-.5c.98-.21 1.95-.47 2.9-.8.77-.23 1.51-.57 2.2-1 .4-.3.8-.5 1.2-.8-.4 0-.7-.1-1.1-.1-24.8-2.7-30.2-24-30.7-26.5-.39.36-.7.8-.9 1.3"/>
  <path fill="url(#g-t)" d="M48.298 40.155c11.2 3 11.1-3.3 11.1-3.3v-2.4c-4.4 0-8.5-4-11.1-7.4v13.1z"/>
  <path fill="url(#g-o)" d="M88.298 12.355c3.06.01 5.89 1.6 7.5 4.2.01.08.05.15.1.2.11.11.17.25.2.4.1.2.2.3.2.5s.1.1.1.2c.11.22.18.46.2.7.3 1.04.44 2.12.4 3.2-.02.31-.09.61-.2.9-.02.17-.06.34-.1.5-2.6 12.1-15.5 13.6-21.3 13.6 3.59 2.93 8.07 4.56 12.7 4.6 8.12.02 15.43-4.89 18.5-12.4.7-4.2.5-9-2.9-12.6-3.7-4-7.5-5-10.4-5-1.73-.11-3.45.24-5 1"/>
</svg>
