<?xml version="1.0" encoding="utf-8"?>
<!-- Generator: Adobe Illustrator 24.0.2, SVG Export Plug-In . SVG Version: 6.00 Build 0)  -->
<svg version="1.1" id="Modo_de_aislamiento" xmlns="http://www.w3.org/2000/svg" xmlns:xlink="http://www.w3.org/1999/xlink"
	 x="0px" y="0px" viewBox="0 0 91.33 91.39" style="enable-background:new 0 0 91.33 91.39;" xml:space="preserve">
<style type="text/css">
	.st0{fill:none;}
	.st1{fill:#001E96;}
</style>
<path id="XMLID_92_" class="st0" d="M23.86,0.03h3.61C27.48,0.03,25.93-0.04,23.86,0.03z"/>
<path id="XMLID_91_" class="st0" d="M17.74,0.75c-0.94,0.22-1.81,0.5-2.53,0.87C16.12,1.25,16.98,0.97,17.74,0.75z"/>
<path id="XMLID_90_" class="st0" d="M68.35,0.03h0.6C68.57,0.03,68.35,0.03,68.35,0.03z"/>
<g id="XMLID_56_">
	<path id="XMLID_84_" class="st1" d="M18.03,18.62h4.67c3.93,0,6.65,2.7,6.65,6.22v0.04c0,3.52-2.72,6.26-6.65,6.26h-4.67V18.62z
		 M22.69,29.13c2.63,0,4.35-1.77,4.35-4.22v-0.04c0-2.45-1.72-4.26-4.35-4.26h-2.47v8.51H22.69z"/>
	<path id="XMLID_62_" class="st1" d="M31.45,24.91v-0.04c0-3.52,2.72-6.47,6.56-6.47c3.84,0,6.53,2.91,6.53,6.44v0.04
		c0,3.52-2.72,6.47-6.56,6.47C34.14,31.35,31.45,28.43,31.45,24.91z M42.23,24.91v-0.04c0-2.43-1.77-4.45-4.26-4.45
		c-2.49,0-4.22,1.98-4.22,4.42v0.04c0,2.43,1.77,4.45,4.26,4.45S42.23,27.34,42.23,24.91z"/>
	<path id="XMLID_60_" class="st1" d="M47.2,18.62h2.04l6.71,8.65v-8.65h2.16v12.52h-1.84l-6.9-8.9v8.9H47.2V18.62z"/>
	<path id="XMLID_57_" class="st1" d="M65.76,18.53h2.04l5.51,12.61h-2.32l-1.27-3.02h-5.92l-1.29,3.02h-2.25L65.76,18.53z
		 M68.91,26.16l-2.16-5.01l-2.15,5.01H68.91z"/>
</g>
<g id="XMLID_42_">
	<path id="XMLID_54_" class="st1" d="M15.68,35.16h3.22l5,12.75l4.98-12.75h3.15l-6.89,16.7h-2.56L15.68,35.16z"/>
	<path id="XMLID_52_" class="st1" d="M35.04,35.16h2.91v16.58h-2.91V35.16z"/>
	<path id="XMLID_47_" class="st1" d="M42.39,35.16h6.18c5.21,0,8.81,3.58,8.81,8.24v0.05c0,4.67-3.6,8.29-8.81,8.29h-6.18V35.16z
		 M48.57,49.09c3.48,0,5.76-2.35,5.76-5.59v-0.05c0-3.25-2.27-5.64-5.76-5.64H45.3v11.28H48.57z"/>
	<path id="XMLID_44_" class="st1" d="M65.65,35.04h2.7l7.3,16.7h-3.08l-1.68-4h-7.84l-1.71,4h-2.98L65.65,35.04z M69.82,45.16
		l-2.87-6.63l-2.84,6.63H69.82z"/>
</g>
<g id="XMLID_9_">
	<path id="XMLID_10_" class="st1" d="M58.35,63.27c-0.89,0-1.61,0.32-2.14,0.96c-0.54,0.64-0.81,1.61-0.81,2.92s0.27,2.28,0.8,2.93
		c0.53,0.65,1.24,0.97,2.13,0.97c0.91,0,1.62-0.32,2.16-0.97s0.8-1.62,0.8-2.93c0-1.29-0.26-2.26-0.79-2.91
		C59.97,63.59,59.26,63.27,58.35,63.27z"/>
	<path id="XMLID_16_" class="st1" d="M90.51,14.56c-2.46-6.37-6.97-9.95-10.97-11.94c-4.4-2.16-9.65-2.43-11.4-2.45h-0.6H26.68
		h-3.61c-1.86,0.07-4.14,0.25-6.12,0.72c-0.76,0.22-1.62,0.5-2.53,0.87c0,0,0,0-0.01,0v0C9.62,3.66,3.31,7.82,0.78,16.71
		C0.69,17.13,0,20.28,0,24.17v21.6v0.02v23.12c0,4.8,0.51,7.13,0.82,8.09c2.46,6.37,6.97,9.95,10.97,11.94
		c4.4,2.16,9.65,2.43,11.4,2.45h0.6h40.87h3.61c1.86-0.07,4.14-0.25,6.12-0.72c0.76-0.22,1.62-0.5,2.53-0.87c0,0,0,0,0.01,0v0
		c4.79-1.91,11.1-6.07,13.62-14.96c0.1-0.42,0.78-3.57,0.78-7.46v-21.6v-0.02V22.65C91.33,17.85,90.82,15.52,90.51,14.56z
		 M38.65,71.57c0,0.45-0.08,0.78-0.24,0.99c-0.16,0.22-0.41,0.42-0.75,0.62c-0.2,0.12-0.45,0.23-0.75,0.33
		c-0.3,0.11-0.63,0.2-0.99,0.28c-0.36,0.08-0.74,0.14-1.13,0.18s-0.79,0.06-1.17,0.06c-1.03,0-2-0.14-2.91-0.42s-1.69-0.7-2.36-1.27
		c-0.67-0.57-1.2-1.28-1.58-2.12c-0.39-0.85-0.58-1.83-0.58-2.95c0-1.18,0.21-2.21,0.64-3.08c0.42-0.88,0.98-1.61,1.68-2.19
		c0.7-0.58,1.49-1.02,2.39-1.3c0.9-0.29,1.82-0.43,2.77-0.43c1.36,0,2.45,0.22,3.24,0.66s1.2,1.01,1.2,1.71
		c0,0.37-0.09,0.7-0.28,0.97c-0.19,0.27-0.4,0.49-0.65,0.65c-0.36-0.22-0.81-0.43-1.35-0.64c-0.54-0.21-1.15-0.31-1.82-0.31
		c-1.21,0-2.17,0.34-2.88,1.03c-0.71,0.69-1.07,1.65-1.07,2.87c0,0.66,0.1,1.23,0.29,1.71c0.19,0.48,0.46,0.88,0.79,1.18
		c0.33,0.31,0.71,0.54,1.14,0.69c0.43,0.15,0.89,0.23,1.38,0.23c0.32,0,0.6-0.03,0.84-0.09s0.43-0.12,0.56-0.19v-2.03h-2.31
		c-0.09-0.16-0.17-0.37-0.25-0.62c-0.08-0.26-0.12-0.53-0.12-0.82c0-0.52,0.12-0.89,0.36-1.12c0.24-0.23,0.54-0.34,0.92-0.34h3.64
		c0.43,0,0.77,0.12,1,0.36c0.24,0.24,0.36,0.57,0.36,1V71.57z M50.52,63.29c-0.25,0.25-0.58,0.37-0.98,0.37h-2.39v9.96
		c-0.16,0.04-0.41,0.09-0.74,0.13c-0.34,0.04-0.67,0.06-1,0.06c-0.33,0-0.62-0.03-0.87-0.08c-0.25-0.05-0.46-0.14-0.64-0.27
		c-0.17-0.13-0.3-0.31-0.39-0.54c-0.09-0.23-0.13-0.53-0.13-0.91v-8.36h-3.23c-0.1-0.16-0.19-0.37-0.28-0.65
		c-0.09-0.27-0.13-0.56-0.13-0.86c0-0.56,0.13-0.96,0.38-1.21c0.25-0.24,0.58-0.37,0.98-0.37h9.4c0.1,0.16,0.19,0.37,0.28,0.65
		c0.09,0.27,0.13,0.56,0.13,0.86C50.89,62.65,50.77,63.05,50.52,63.29z M64.64,70.14c-0.34,0.87-0.82,1.59-1.43,2.18
		c-0.61,0.58-1.33,1.02-2.17,1.33s-1.74,0.45-2.72,0.45c-0.98,0-1.88-0.15-2.71-0.46c-0.83-0.31-1.55-0.76-2.16-1.35
		c-0.6-0.59-1.08-1.31-1.42-2.18c-0.34-0.86-0.52-1.85-0.52-2.95c0-1.12,0.18-2.11,0.53-2.97c0.35-0.86,0.83-1.58,1.44-2.17
		c0.61-0.58,1.33-1.02,2.16-1.33c0.83-0.3,1.72-0.45,2.68-0.45s1.86,0.15,2.68,0.45s1.55,0.74,2.17,1.33
		c0.62,0.58,1.1,1.3,1.46,2.17c0.35,0.86,0.53,1.85,0.53,2.97S64.99,69.27,64.64,70.14z M85.74,45.53v0.02v7.36
		c-32.22-4.29-72.25-0.59-80.37,0.24v-7.61v-0.02V26.52c0-3.43,0.6-6.2,0.69-6.57c2.22-7.83,7.77-11.48,11.99-13.16v0
		c0,0,0,0,0.01,0c0.8-0.32,1.55-0.57,2.23-0.76c1.74-0.41,3.75-0.57,5.39-0.63h3.18h35.97h0.53c1.54,0.02,6.16,0.26,10.03,2.16
		c3.52,1.75,7.49,4.9,9.65,10.51c0.27,0.85,0.72,2.9,0.72,7.12V45.53z"/>
</g>
</svg>
