<svg xmlns="http://www.w3.org/2000/svg" viewBox="0 0 77.9 31.9">
  <path fill="#0045e3" d="M67.3 15.3c0-2.9 2.3-5.2 5.2-5.3h.1c2.9-.1 5.2 2.2 5.3 5.1v.2c0 2.9-2.4 5.3-5.3 5.3-2.9-.1-5.3-2.4-5.3-5.3zm8 0c.1-1.5-1.1-2.7-2.5-2.8h-.2c-1.4 0-2.6 1.1-2.6 2.6v.1c0 1.5 1.1 2.7 2.5 2.7h.1c1.4 0 2.6-1.1 2.6-2.6h.1z"/>
  <path fill="#0045e3" d="M72.1 5.2c-2 .1-4 .7-5.7 1.6-1.5.7-3 1.1-4.7 1.1h-.9c-1 0-1.2.8-1.2 1.5v1.5c1 .2 2 .2 3 .1v8.4c0 1.2 2.3 1.6 3.4.8v-9.8h-.1c.7-.2 1.4-.5 2-.9 1.3-.6 2.7-1 4.1-1.1.9 0 1.8.2 2.6.7l2.1-2.3c-1.3-1.1-2.9-1.6-4.6-1.6zM54.3 15.9c-.6-.9-.5-2.6.5-2.6h3.6c.7 0 1.2.6 1.3 1.3v3.1c0 .8 0 1.1-.6 1.5-1.3.9-2.9 1.4-4.5 1.4-3.3.1-6.2-2.5-6.3-5.8v-.3c-.1-3.4 2.6-6.2 6-6.2h.3c1.3 0 2.6.4 3.7 1.2.7.5.9 1.5.4 2.3 0 0 0 .1-.1.1-.2.3-.4.5-.7.6-.9-.9-2.1-1.3-3.3-1.2-1.7.1-3 1.6-3 3.3-.1 1.7 1.2 3.2 2.9 3.3h.2c.7 0 1.3-.1 1.9-.5v-1.3h-2.3z"/>
  <path fill="#00abff" d="M47.7 14.5c.1 1.7-.5 3.4-1.7 4.7-1.3 1.1-2.9 1.7-4.6 1.6-1.1 0-2.2-.1-3.2-.5-.6-.2-1-.7-1-1.3V9.6c0-.6.3-.8.8-1 1-.3 2.1-.4 3.2-.4 1.7-.1 3.3.4 4.7 1.5 1.2 1.3 1.9 3 1.8 4.8zm-3.1 0c.1-1-.2-2-.9-2.7-.9-.8-2.2-1.2-3.5-.8v7c1.2.4 2.6.1 3.5-.8.6-.8.9-1.7.9-2.7zM31.6 17.9c-1.9.2-3.6-1.2-3.8-3.1V8.5c.8-.2 1.6-.2 2.3.1.2.3.3.6.3.9v4.3c-.1.7.4 1.2 1.1 1.3h.2c.7 0 1.3-.6 1.3-1.2V8.5c.8-.2 1.6-.2 2.3.1.2.1.3.5.3.9v4.7c-.2 1.6-.9 3.7-4 3.7z"/>
  <path fill="#00abff" d="M37 20.3c-1.5 1.3-3.4 2.1-5.3 2.1-4.2 0-6.1-3.1-9.9-2.3V8.5c.4-.1.9-.1 1.4-.1.4 0 .9.1 1.2.3.3.3.4.7.4 1.1v7.4c2.8.2 4.4 2.4 7 2.4 1.1 0 2.2-.3 3.2-1 .6-.3 1.1.1 1.5.7s.5 1 .5 1zM17.2 17.8H13c-.1.5-.7 2.3-.8 2.6-.8.3-1.7.2-2.5-.1-.4-.3-.6-.9-.4-1.4 0-.2 3.4-9.7 3.5-10 .7-.3 1.5-.5 2.2-.5.5 0 1.1.1 1.6.3.4.1.7.4.9.8.3.7 3.2 9.8 3.4 10.6-.4.4-1 .6-1.6.6-.7.1-1.4-.3-1.6-.9.1-.2-.5-2-.5-2zm-2-6.9c-.2.6-1.3 3.8-1.6 4.6h3c-.1-.9-1.1-4.1-1.4-4.6zM.8 16.7c-.6.4-.9 1.2-.7 1.9.1.7.5 1.4 2.6 1.9 1.2.3 2.5.2 3.7-.1 1.6-.4 2.8-1.9 2.7-3.6 0-1.9-1.1-3-3.5-3.5-2-.5-2.7-.7-2.6-1.5s1-1.1 2.5-.8c.8.2 1.6.6 2.3 1.1.3-.3.5-.6.5-1 .3-.8-.1-1.6-.7-2-1.4-.8-3.1-1.1-4.7-.7-1.5.3-2.6 1.5-2.9 3-.5 1.6.5 3.4 2.1 3.8h.1c2 .8 4 .8 3.9 2-.1.7-.7 1.1-1.9.9-1.3-.1-2.5-.6-3.4-1.4zM51.3 4.9c.1.2.2.4.4.5.2.1.5.2.7.1.2 0 .5 0 .7-.1.2-.1.3-.1.5-.2.1.1.2.1.2.2.1.1.1.2.1.3 0 .1 0 .3-.1.4l-.3.3c-.2.1-.3.1-.5.1h-.6c-.3 0-.6 0-.9-.1-.6-.2-1-.6-1.2-1.1-.3-.4-.3-.7-.3-1 0-.3 0-.7.2-1 .1-.3.3-.5.5-.7.2-.2.4-.3.7-.4.1-.1.4-.2.7-.2.3 0 .5 0 .8.1.2.1.4.2.6.4.2.2.3.4.4.6.1.3.1.5.1.8 0 .2 0 .3-.1.4-.1.1-.3.2-.4.2l-2.2.4zm.7-1.8c-.2 0-.4.1-.6.2-.2.2-.3.4-.3.7l1.6-.3c0-.2-.1-.3-.2-.4-.1-.2-.3-.3-.5-.2zM47.4 2.1h.4c.1 0 .2 0 .3.1V.7c.1 0 .2 0 .2-.1h.3c.2 0 .4 0 .6.1.1.1.2.3.2.5v4.3c0 .1 0 .3-.1.4l-.3.3-.6.3c-.3.1-.6.1-.9.1-.6 0-1.2-.2-1.7-.5-.4-.4-.7-1.1-.6-1.7 0-.3 0-.7.2-1 .1-.3.3-.5.5-.7.2-.2.4-.3.7-.4.2-.2.5-.2.8-.2zm.7 1.2-.2-.1h-.3c-.3 0-.5.1-.7.3-.2.3-.3.6-.3.9 0 .3.1.6.3.9.2.2.5.3.7.3h.3l.2-.1V3.3zM41.4 2.1c.3 0 .5 0 .8.1l.6.3c.2.1.3.3.4.5.1.2.1.5.1.7v2c0 .1 0 .3-.1.4-.1.1-.2.2-.3.2l-.6.3c-.3.1-.6.1-.9.1-.5 0-1-.1-1.4-.3-.3-.2-.5-.6-.5-1.1 0-.3.1-.7.3-.9.4-.4.8-.5 1.2-.5l1.1-.1v-.2c0-.2-.1-.3-.2-.4-.2-.1-.4-.1-.6-.1-.2 0-.4 0-.6.1-.2 0-.4.1-.5.2l-.2-.2c0-.1-.1-.2-.1-.3 0-.2.2-.5.4-.6.2-.1.4-.1.6-.1.1-.1.3-.1.5-.1zm0 3.5h.4c.1 0 .2-.1.3-.1v-.8l-.7.1c-.2 0-.3.1-.4.1-.1.1-.2.2-.2.3 0 .1.1.3.2.3.1.1.3.1.4.1zM39.1 6.4h-.5c-.2 0-.4 0-.6-.1-.1-.1-.2-.3-.2-.5V3.7c0-.2 0-.3-.2-.4-.1-.1-.3-.1-.4-.1-.2 0-.4.1-.6.2v3.1h-.5c-.2 0-.4 0-.6-.1-.1-.1-.2-.3-.2-.5V3.7c0-.2-.1-.3-.2-.4-.1-.1-.3-.1-.4-.1h-.3l-.2.1v3.2h-.5c-.2 0-.4 0-.5-.1-.1-.1-.2-.3-.2-.5V3.1c0-.1 0-.3.1-.4l.3-.3c.2-.1.4-.2.7-.3.3-.1.6-.1.9-.1.2 0 .5 0 .7.1l.6.3.6-.3c.2-.1.5-.1.8-.1.2 0 .4 0 .6.1.2 0 .4.1.5.3.2.1.3.3.4.5.1.2.1.5.1.7l-.2 2.8zM29.7 4.9c.1.2.2.4.4.5.2.1.4.2.7.1.2 0 .5 0 .7-.1.2-.1.3-.1.5-.2.1.1.2.1.2.2.1.1.1.2.1.3 0 .1 0 .3-.1.4l-.3.3c-.2.1-.3.1-.5.1h-.6c-.3 0-.6 0-.9-.1-.3-.1-.5-.2-.7-.4-.2-.2-.4-.4-.5-.7-.1-.3-.2-.7-.2-1 0-.3 0-.7.2-1 0-.3.1-.6.3-.8.2-.2.4-.3.7-.4.2 0 .5-.1.8-.1.3 0 .5 0 .8.1.2.1.4.2.6.4.2.2.3.4.4.6.1.2.2.5.2.8 0 .2 0 .3-.2.4-.1.1-.3.2-.4.2l-2.2.4zm.8-1.8c-.2 0-.4.1-.6.2-.2.2-.3.4-.3.7l1.6-.3c0-.2-.1-.3-.2-.4-.1-.2-.3-.2-.5-.2zM27 5.4c.1.1.3.1.4.1h.3c.1 0 .2 0 .3-.1 0 .1 0 .2.1.2 0 .1.1.2 0 .3 0 .2-.1.4-.2.5-.2.2-.5.2-.8.2-.4 0-.8-.1-1.1-.3-.3-.3-.4-.7-.4-1.1v-4l.3-.1h.3c.2 0 .4 0 .5.1.1.1.2.3.2.5v.6H28c0 .1.1.2.1.2v.3c0 .1 0 .3-.1.4-.1.1-.2.1-.3.1h-.9V5c0 .2.1.3.2.4zM25.1 5.2c0 .4-.2.8-.5 1-.4.3-.9.4-1.4.4h-.7c-.2 0-.3-.1-.5-.2l-.3-.3c-.1-.1-.1-.2-.1-.4 0-.1 0-.2.1-.3 0-.1.1-.2.2-.2.2.1.3.2.5.2.2.1.5.1.7.1.4 0 .6-.1.6-.4 0-.1 0-.2-.1-.2-.1-.1-.2-.1-.4-.1l-.3-.1c-.4-.1-.7-.2-1-.5-.2-.2-.4-.5-.3-.9 0-.4.2-.8.5-1 .4-.2.9-.4 1.3-.3.2 0 .4 0 .6.1.2 0 .3.1.5.1.1.1.2.1.3.2.1.1.1.2.1.3 0 .1 0 .2-.1.3 0 .1-.1.2-.2.2l-.2-.1-.3-.1-.3-.1h-.3c-.2 0-.3 0-.5.1-.1 0-.2.1-.2.3 0 .1 0 .1.1.2s.2.1.3.1l.3.1c.4.1.8.2 1.1.5.3.4.5.7.5 1zM21 6.4h-.5c-.2 0-.4 0-.5-.1-.1-.1-.2-.3-.2-.5V2.3l.2-.1h.3c.2 0 .4 0 .5.1.1.2.2.3.2.5v3.6zM16.9 5.5c.2 0 .5 0 .6-.2.1-.1.2-.2.2-.4 0-.1-.1-.3-.1-.3-.1-.1-.3-.2-.4-.2l-.4-.1c-.2-.1-.4-.2-.6-.2-.2-.1-.3-.2-.5-.3-.1-.1-.2-.3-.3-.4-.1-.2-.1-.4-.1-.6 0-.4.2-.9.5-1.1.4-.3 1-.5 1.5-.4h.7c.2 0 .4.1.5.2l.3.3c.1.1.1.2.1.4 0 .1 0 .3-.1.4-.1.1-.1.2-.2.3-.2-.1-.3-.2-.5-.2-.3-.6-.5-.7-.8-.7-.2 0-.4 0-.6.1-.1.1-.2.2-.2.3 0 .1 0 .2.1.3.1.1.3.2.4.2l.5.2c.2.1.5.2.7.3.2.1.4.2.5.4.2.1.3.3.3.5.1.2.1.4.1.6 0 .2 0 .5-.1.7-.1.2-.2.4-.4.5-.2.2-.4.3-.7.3-.3.1-.6.1-.9.1-.2 0-.5 0-.7-.1-.2 0-.4-.1-.6-.2-.1-.1-.3-.2-.4-.3-.1-.1-.1-.3-.1-.4 0-.1 0-.3.1-.4l.3-.3c.2.1.4.3.6.4.2.2.5.3.7.3z"/>
  <ellipse cx="72.6" cy="15.2" fill="#ffa000" rx="1.4" ry="1.5"/>
  <circle cx="72.1" cy="2.3" r="1.8" fill="#00d400"/>
  <circle cx="64.4" cy="4.2" r="1.8" fill="#ff00d9"/>
  <circle cx="20.4" cy=".9" r=".9" fill="#ff00d9"/>
  <path fill="#0045e3" d="M67.3 29.9c0 .3-.1.5-.3.7-.3.2-.6.3-.9.2-.3 0-.5 0-.8-.1-.2-.1-.3-.2-.3-.4v-.2c0-.1.1-.1.1-.1.1.1.2.1.4.2s.3.1.5.1c.3 0 .4-.1.4-.3 0-.1 0-.1-.1-.2-.1 0-.2-.1-.2-.1l-.2-.1c-.2 0-.5-.1-.7-.3-.2-.1-.2-.4-.2-.6 0-.3.1-.5.3-.7.3-.2.6-.3.9-.2.2 0 .3 0 .5.1.1 0 .3.1.4.2.1.1.1.2.1.3v.2c0 .1-.1.1-.1.1l-.2-.1-.3-.1h-.3c-.1 0-.2 0-.3.1-.1 0-.1.1-.1.2s0 .1.1.1c.1.1.1.1.2.1l.2.1c.3 0 .5.2.7.3.1.1.2.3.2.5zM64 27.9h-.4v2.5c0 .1 0 .2.1.3.1.1.2.1.3.1h.4v-2.5c0-.2 0-.3-.1-.3-.1-.1-.2-.1-.3-.1zM64.8 26.5c-.1-.1-.2-.1-.3-.1l-.7.6-.1.1v.1c0 .1 0 .2.1.2.1.1.2.1.3.1l.5-.5.2-.2v-.2c.1.1 0 0 0-.1zM62.6 28.1c-.3-.2-.6-.3-.9-.3h-.4c-.1 0-.3 0-.4.1-.2.1-.3.2-.3.4 0 .1 0 .1.1.2 0 .1.1.1.1.2.1-.1.2-.1.4-.1h.4c.1 0 .3 0 .4.1.1.1.2.2.2.3v.1l-.8-.1c-.3 0-.5.1-.7.3-.2.2-.3.4-.2.6 0 .3.1.5.3.7.3.2.6.2.9.2.2 0 .4 0 .6-.1.1 0 .3-.1.4-.2.1 0 .1-.1.2-.2s.1-.2.1-.2v-1.3c0-.2-.2-.5-.4-.7zm-.5 2c-.1 0-.1.1-.2.1h-.3c-.1 0-.2 0-.3-.1-.1-.1-.1-.1-.1-.2s0-.2.1-.2c.1-.1.2-.1.3-.1h.5v.5zM59.9 28.5c-.1-.2-.3-.4-.5-.5-.2-.1-.5-.2-.8-.2-.2 0-.4 0-.6.1-.2 0-.3.1-.4.2-.1 0-.1.1-.2.2 0 .1-.1.2-.1.2v2.9c0 .1 0 .2.1.3.1.1.2.1.3.1h.5v-1.1h.1c.1 0 .3.1.4.1.2 0 .5-.1.7-.2.2-.1.4-.3.5-.5.1-.3.2-.5.2-.8 0-.3-.1-.6-.2-.8zm-.9 1.4c-.1.1-.3.2-.5.2-.1 0-.2 0-.3-.1h-.1v-1.4c.1 0 .1-.1.2-.1h.2c.1 0 .2 0 .3.1.1.1.2.2.2.3.1.1.1.3.1.5.1.1.1.4-.1.5zM55.4 26.9c-.1-.1-.2-.1-.3-.1h-.4v3.5c0 .1 0 .2.1.3.1.1.2.1.3.1h.4v-3.5c0-.1 0-.2-.1-.3zM52 29.7v-.6l1.4-.2c0-.1-.1-.2-.1-.3-.1-.1-.2-.1-.4-.1s-.3.1-.4.2c-.1.1-.2.3-.2.5v.4c0 .2.1.4.3.5.2.1.3.1.5.1s.3 0 .4-.1c.1 0 .2-.1.3-.2.1 0 .1.1.1.2s.1.1.1.2-.1.2-.1.3c-.1.1-.2.1-.4.2-.2 0-.4.1-.5.1-.3 0-.5-.1-.8-.2-.2-.1-.4-.3-.5-.5-.1-.3-.2-.6-.2-.8 0-.2 0-.4.1-.7.1-.2.2-.3.3-.5.1-.1.3-.2.4-.3.2-.1.3-.1.5-.1s.5 0 .7.2c.4.2.6.6.6 1.1 0 .1 0 .2-.1.3-.1.1-.2.1-.3.1l-1.7.2zM49.8 28.5c-.1-.2-.3-.4-.5-.5-.5-.2-1-.2-1.5 0-.2.1-.4.3-.5.5-.1.2-.2.5-.2.8 0 .3.1.6.2.8.1.2.3.4.5.5.2.1.5.2.8.2.3 0 .5-.1.8-.2.2-.1.4-.3.5-.5.1-.3.2-.5.2-.8-.1-.3-.2-.5-.3-.8zm-.8 1.4c-.1.1-.3.2-.4.2-.2 0-.3-.1-.4-.2-.2-.4-.2-.8 0-1.2.1-.1.3-.2.4-.2.2 0 .3.1.4.2.1.2.2.4.2.6-.1.2-.1.4-.2.6zM46.5 26.9c-.1-.1-.2-.1-.3-.1h-.4v1h-.5c-.2 0-.5.1-.7.2-.2.1-.4.3-.5.5-.1.3-.2.5-.2.8 0 .3.1.6.2.8.1.2.3.4.5.5.3.1.5.2.8.2.2 0 .4 0 .6-.1.1 0 .3-.1.4-.2.1 0 .1-.1.2-.2 0-.1.1-.2.1-.2v-2.9c-.1 0-.2-.2-.2-.3zm-.9 3.2h-.2c-.2 0-.4-.1-.5-.2-.1-.2-.2-.4-.2-.6 0-.2 0-.3.1-.5 0-.1.1-.2.2-.3.1-.1.2-.1.3-.1.1 0 .2 0 .3.1h.1V30l-.1.1zM43.3 28.5c-.1-.2-.3-.4-.5-.5-.5-.2-1-.2-1.5 0-.2.1-.4.3-.5.5-.1.2-.2.5-.2.8 0 .3.1.6.2.8.1.2.3.4.5.5.2.1.5.2.8.2.3 0 .5-.1.8-.2.2-.1.4-.3.5-.5.1-.5.1-1.1-.1-1.6zm-.9 1.4c-.2.2-.5.3-.7.1l-.1-.1c-.2-.4-.2-.8 0-1.2.1-.1.3-.2.4-.2.2 0 .3.1.4.2.1.2.2.4.2.6 0 .2 0 .4-.2.6zM40.1 30.1H39.8c-.1 0-.2 0-.3-.1-.1-.1-.1-.1-.1-.2v-1.1h.6c.1 0 .1 0 .2-.1s.1-.2.1-.3v-.2s0-.1-.1-.1h-.8v-.4c0-.1 0-.2-.1-.3-.1-.1-.2-.1-.3-.1h-.4v2.7c0 .3.1.5.3.7.2.2.5.2.7.2.2 0 .4 0 .5-.1.1-.1.2-.2.2-.3v-.2c-.1-.1-.1-.1-.2-.1zM34.8 29.7v-.6l1.4-.2c0-.1-.1-.2-.1-.3-.1-.1-.2-.1-.4-.1s-.3.1-.4.2c-.1.1-.2.3-.2.5v.4c0 .2.1.4.3.5.2.1.3.1.5.1.1 0 .3 0 .4-.1.1 0 .2-.1.3-.2.1 0 .1.1.1.2v.2c0 .1 0 .2-.1.3-.1.1-.2.2-.4.2s-.4.1-.5.1c-.3 0-.5-.1-.8-.2-.2-.1-.4-.3-.5-.5-.1-.3-.2-.6-.2-.8 0-.2 0-.4.1-.7.1-.2.2-.3.3-.5.1-.1.3-.2.4-.3.2-.1.3-.1.5-.1s.5 0 .7.2c.2.1.3.2.5.4.1.2.2.4.2.6 0 .1 0 .2-.1.3-.1.1-.2.1-.3.1l-1.7.3zM33.6 26.9c-.1-.1-.2-.1-.4-.1h-.4v1h-.5c-.2 0-.5 0-.7.2-.2.1-.4.3-.5.5 0 .2-.1.5-.1.8 0 .3.1.6.2.8.1.2.3.4.5.5.2.1.5.2.8.2.2 0 .4 0 .6-.1.1 0 .3-.1.4-.2.1 0 .1-.1.2-.2v-3.1c0-.1 0-.2-.1-.3zm-.9 3.2h-.2c-.2 0-.4-.1-.5-.2-.1-.2-.2-.4-.2-.6 0-.2 0-.3.1-.5.1-.1.1-.2.2-.3.1-.1.2-.1.3-.1.1 0 .2 0 .3.1h.1V30s0 .1-.1.1zM29 27.8c-.2 0-.4 0-.5.1-.2 0-.3.1-.5.2-.1.1-.2.1-.2.2-.1.1-.1.2-.1.3v1.8c0 .1 0 .2.1.3.1.1.2.1.3.1h.4v-2c.1-.1.2-.1.3-.1h.6l.1-.1v-.2c.1-.4-.1-.6-.5-.6zM27 28.5c-.1-.2-.3-.4-.5-.5-.5-.2-1-.2-1.5 0-.2.1-.4.3-.5.5-.1.2-.2.5-.2.8 0 .3.1.6.2.8.1.2.3.4.5.5.2.1.5.2.8.2.3 0 .5-.1.8-.2.2-.1.4-.3.5-.5.2-.5.2-1.1-.1-1.6zm-.8 1.4c-.1.1-.3.2-.4.2-.2 0-.3-.1-.4-.2-.2-.4-.2-.8 0-1.2.1-.1.3-.2.4-.2.2 0 .3.1.4.2.1.2.2.4.2.6 0 .2-.1.4-.2.6zM23.4 27.9H23V31c0 .1-.1.2-.1.2l-.2.2c0 .1 0 .2.1.3.1.1.2.2.3.1.1 0 .3 0 .4-.1.1-.1.2-.2.2-.3.1-.2.1-.4.1-.6v-2.5c0-.1 0-.2-.1-.3-.1-.1-.2-.1-.3-.1zM23.4 27.6c.3 0 .5-.2.5-.4s-.2-.5-.4-.5c-.1 0-.2 0-.3.1-.1.1-.1.2-.1.3 0 .1 0 .2.1.3 0 .1.1.2.2.2zM20.3 29.7v-.6l1.4-.2c0-.1-.1-.2-.1-.3-.1-.1-.2-.1-.4-.1s-.3.1-.4.2c-.1.1-.2.3-.2.5v.4c0 .2.1.4.3.5.1.1.3.1.5.1s.3 0 .5-.1c.1 0 .2-.1.3-.2.1 0 .1.1.1.2s.1.1.1.2 0 .2-.1.3c-.1.1-.2.2-.4.2s-.4.1-.5.1c-.3 0-.5-.1-.8-.2-.2-.1-.4-.3-.5-.5-.1-.3-.2-.6-.2-.8 0-.2 0-.4.1-.7.1-.2.2-.3.3-.5.1-.1.3-.2.4-.3.2-.1.3-.1.5-.1s.5 0 .7.2c.4.2.6.6.6 1.1 0 .1 0 .2-.1.3-.1.1-.2.1-.3.1l-1.8.2zM19.1 28.3c-.1-.2-.2-.3-.4-.3-.2-.1-.4-.1-.5-.1-.2 0-.4 0-.6.1-.1.1-.2.1-.3.2-.2-.2-.3-.2-.4-.3-.2-.1-.3-.1-.5-.1s-.4 0-.6.1c-.2 0-.3.1-.5.2-.1 0-.1.1-.2.2 0 .1-.1.2-.1.2v1.9c0 .1 0 .2.1.3.1.1.2.1.3.1h.4v-2.2c.1 0 .1-.1.2-.1h.2c.1 0 .2 0 .3.1.1.1.1.2.1.3v1.5c0 .1 0 .2.1.3.1.1.2.1.4.1h.4v-2.1l.2-.1c.1 0 .2-.1.3-.1.1 0 .2 0 .3.1.1.1.1.2.1.3v1.5c0 .1 0 .2.1.3.1.1.2.1.4.1H19.2v-1.9c0-.2 0-.4-.1-.6zM13.2 26.9c-.1-.1-.2-.1-.4-.1h-.4v3.5c0 .1 0 .2.1.3.1.1.2.1.4.1h.4v-3.5c.1 0 0-.2-.1-.3zM11.9 30.2c0-.1 0-.1-.1-.2h-1.5v-.8h1.1c.1 0 .2 0 .2-.1.1-.1.1-.2.1-.3v-.2s0-.1-.1-.1h-1.3v-.7h1.3c.1 0 .2 0 .2-.1.1-.1.1-.2.1-.3v-.2s0-.1-.1-.1H9.9c-.1 0-.2 0-.3.1-.1.1-.1.2-.1.3v2.6c0 .1 0 .3.1.3.1.1.2.1.3.1h1.7c.1 0 .2 0 .2-.1.1-.1.1-.2.1-.3v.1z"/>
</svg>
