<svg xmlns="http://www.w3.org/2000/svg" viewBox="572.501 205.083 54.975 54.629">
  <defs>
    <style>
      .cls-1, .cls-2 {
        fill: #1d1d1b;
      }

      .cls-1 {
        font-size: 4px;
        font-family: Helvetica;
      }

      .cls-3 {
        fill: #93c01f;
      }

      .cls-4 {
        fill: #e5332a;
      }

      .cls-5 {
        fill: #f29100;
      }

      .cls-6 {
        fill: #7a6a58;
      }

      .cls-7 {
        fill: #662482;
      }

      .cls-8 {
        fill: #35a8e0;
      }
    </style>
  </defs>
  <g id="Group_6" data-name="Group 6" transform="translate(-50 180)">
    <text id="N" class="cls-1" transform="translate(645.523 76.81) rotate(-165.28)"><tspan x="0" y="0">N</tspan></text>
    <text id="o" class="cls-1" transform="translate(641.731 75.744) rotate(-156.983)"><tspan x="0" y="0">o</tspan></text>
    <text id="r" class="cls-1" transform="matrix(-0.872, -0.49, 0.49, -0.872, 638.799, 74.414)"><tspan x="0" y="0">r</tspan></text>
    <text id="m" class="cls-1" transform="translate(636.838 73.402) rotate(-142.664)"><tspan x="0" y="0">m</tspan></text>
    <text id="a" class="cls-1" transform="translate(633.252 70.541) rotate(-133.857)"><tspan x="0" y="0">a</tspan></text>
    <text id="M-2" data-name="M" class="cls-1" transform="translate(630.198 67.206) rotate(-121.434)"><tspan x="0" y="0">M</tspan></text>
    <text id="e" class="cls-1" transform="translate(627.866 63.222) rotate(-112.644)"><tspan x="0" y="0">e</tspan></text>
    <text id="x" class="cls-1" transform="matrix(-0.268, -0.964, 0.964, -0.268, 626.776, 60.529)"><tspan x="0" y="0">x</tspan></text>
    <text id="i" class="cls-1" transform="translate(625.976 57.506) rotate(-100.073)"><tspan x="0" y="0">i</tspan></text>
    <text id="c" class="cls-1" transform="matrix(-0.089, -0.996, 0.996, -0.089, 625.714, 56.007)"><tspan x="0" y="0">c</tspan></text>
    <text id="a-2" data-name="a" class="cls-1" transform="matrix(0.025, -1, 1, 0.025, 625.5, 53.347)"><tspan x="0" y="0">a</tspan></text>
    <text id="n-2" data-name="n" class="cls-1" transform="translate(625.59 50.331) rotate(-81.483)"><tspan x="0" y="0">n</tspan></text>
    <text id="a-3" data-name="a" class="cls-1" transform="translate(626.049 47.286) rotate(-74.324)"><tspan x="0" y="0">a</tspan></text>
    <text id="e-2" data-name="e" class="cls-1" transform="translate(627.494 42.977) rotate(-63.64)"><tspan x="0" y="0">e</tspan></text>
    <text id="n-3" data-name="n" class="cls-1" transform="matrix(0.55, -0.835, 0.835, 0.55, 628.787, 40.307)"><tspan x="0" y="0">n</tspan></text>
    <text id="I-2" data-name="I" class="cls-1" transform="translate(631.516 36.569) rotate(-47.497)"><tspan x="0" y="0">I</tspan></text>
    <text id="g" class="cls-1" transform="translate(632.598 35.349) rotate(-41.96)"><tspan x="0" y="0">g</tspan></text>
    <text id="u" class="cls-1" transform="matrix(0.822, -0.57, 0.57, 0.822, 634.981, 33.336)"><tspan x="0" y="0">u</tspan></text>
    <text id="a-4" data-name="a" class="cls-1" transform="translate(637.45 31.527) rotate(-27.621)"><tspan x="0" y="0">a</tspan></text>
    <text id="l" class="cls-1" transform="matrix(0.926, -0.378, 0.378, 0.926, 640.182, 30.18)"><tspan x="0" y="0">l</tspan></text>
    <text id="d" class="cls-1" transform="translate(641.616 29.59) rotate(-16.744)"><tspan x="0" y="0">d</tspan></text>
    <text id="a-5" data-name="a" class="cls-1" transform="translate(644.601 28.756) rotate(-9.567)"><tspan x="0" y="0">a</tspan></text>
    <text id="d-2" data-name="d" class="cls-1" transform="translate(647.498 28.211) rotate(-2.505)"><tspan x="0" y="0">d</tspan></text>
    <text id="L-2" data-name="L" class="cls-1" transform="matrix(0.991, 0.136, -0.136, 0.991, 652.128, 28.212)"><tspan x="0" y="0">L</tspan></text>
    <text id="a-6" data-name="a" class="cls-1" transform="matrix(0.968, 0.252, -0.252, 0.968, 654.929, 28.661)"><tspan x="0" y="0">a</tspan></text>
    <text id="b" class="cls-1" transform="translate(657.779 29.378) rotate(21.819)"><tspan x="0" y="0">b</tspan></text>
    <text id="o-2" data-name="o" class="cls-1" transform="translate(660.646 30.548) rotate(29.144)"><tspan x="0" y="0">o</tspan></text>
    <text id="r-2" data-name="r" class="cls-1" transform="translate(663.379 32.127) rotate(35.464)"><tspan x="0" y="0">r</tspan></text>
    <text id="a-7" data-name="a" class="cls-1" transform="translate(665.217 33.435) rotate(41.566)"><tspan x="0" y="0">a</tspan></text>
    <text id="l-3" data-name="l" class="cls-1" transform="matrix(0.683, 0.73, -0.73, 0.683, 667.428, 35.458)"><tspan x="0" y="0">l</tspan></text>
    <text id="y" class="cls-1" transform="translate(669.54 37.842) rotate(55.903)"><tspan x="0" y="0">y</tspan></text>
    <text id="N-4" data-name="N" class="cls-1" transform="translate(671.952 41.685) rotate(67.71)"><tspan x="0" y="0">N</tspan></text>
    <text id="o-3" data-name="o" class="cls-1" transform="matrix(0.242, 0.97, -0.97, 0.242, 673.412, 45.403)"><tspan x="0" y="0">o</tspan></text>
    <text id="D-3" data-name="D" class="cls-1" transform="matrix(0.04, 0.999, -0.999, 0.04, 674.359, 49.92)"><tspan x="0" y="0">D</tspan></text>
    <text id="i-3" data-name="i" class="cls-1" transform="matrix(-0.067, 0.998, -0.998, -0.067, 674.452, 53.724)"><tspan x="0" y="0">i</tspan></text>
    <text id="s" class="cls-1" transform="translate(674.373 55.263) rotate(98.673)"><tspan x="0" y="0">s</tspan></text>
    <text id="c-2" data-name="c" class="cls-1" transform="translate(673.984 57.868) rotate(104.898)"><tspan x="0" y="0">c</tspan></text>
    <text id="r-3" data-name="r" class="cls-1" transform="translate(673.247 60.436) rotate(110.738)"><tspan x="0" y="0">r</tspan></text>
    <text id="i-4" data-name="i" class="cls-1" transform="translate(672.36 62.518) rotate(115.227)"><tspan x="0" y="0">i</tspan></text>
    <text id="m-3" data-name="m" class="cls-1" transform="translate(671.795 63.919) rotate(122.371)"><tspan x="0" y="0">m</tspan></text>
    <text id="i-5" data-name="i" class="cls-1" transform="translate(669.219 67.718) rotate(129.489)"><tspan x="0" y="0">i</tspan></text>
    <text id="n-5" data-name="n" class="cls-1" transform="matrix(-0.705, 0.709, -0.709, -0.705, 668.305, 68.952)"><tspan x="0" y="0">n</tspan></text>
    <text id="a-8" data-name="a" class="cls-1" transform="matrix(-0.787, 0.617, -0.617, -0.787, 666.091, 71.061)"><tspan x="0" y="0">a</tspan></text>
    <text id="c-3" data-name="c" class="cls-1" transform="translate(663.729 72.918) rotate(148.519)"><tspan x="0" y="0">c</tspan></text>
    <text id="i-6" data-name="i" class="cls-1" transform="matrix(-0.895, 0.447, -0.447, -0.895, 661.437, 74.302)"><tspan x="0" y="0">i</tspan></text>
    <text id="รณ" class="cls-1" transform="translate(660.054 74.978) rotate(158.973)"><tspan x="0" y="0">รณ</tspan></text>
    <text id="n-6" data-name="n" class="cls-1" transform="translate(657.11 76.076) rotate(166.285)"><tspan x="0" y="0">n</tspan></text>
    <g id="Group_5" data-name="Group 5">
      <path id="Path_9" data-name="Path 9" class="cls-2" d="M651.1,78.2a1.1,1.1,0,1,0-1.1,1.1,1,1,0,0,0,1.1-1.1"/>
      <path id="Path_10" data-name="Path 10" class="cls-3" d="M664,52.6a1.6,1.6,0,1,0-1.6,1.6,1.58,1.58,0,0,0,1.6-1.6m-1.5-6.5c-.8.5.2,2.6,1,3.9a5.787,5.787,0,0,1,1.2,2.7c0,1-.5,1.6-1.2,2.7-.8,1.3-1.8,3.3-1,3.9.8.5,1.4-2.6,3.9-4,1.8-1,5.6.5,5.6-2.5h0c0-3-3.8-1.5-5.6-2.5-2.5-1.6-3.1-4.7-3.9-4.2"/>
      <path id="Path_11" data-name="Path 11" class="cls-4" d="M643,40.5a1.612,1.612,0,1,1-.6,2.2,1.657,1.657,0,0,1,.6-2.2m6.4-2c0,1-2.3,1.1-3.8,1.1a6.306,6.306,0,0,0-2.9.3c-.8.5-1.1,1.2-1.7,2.4-.7,1.3-1.9,3.3-2.8,2.8-.9-.4,1.5-2.5,1.5-5.4,0-2.1-3.3-4.6-.7-6.1h0c2.5-1.5,3.2,2.6,5,3.6,2.4,1.4,5.4.3,5.4,1.3"/>
      <path id="Path_12" data-name="Path 12" class="cls-5" d="M643,64.7a1.612,1.612,0,1,0-.6-2.2,1.609,1.609,0,0,0,.6,2.2m6.4,2.1c0-1-2.3-1.1-3.8-1.1a6.306,6.306,0,0,1-2.9-.3c-.8-.5-1.1-1.2-1.7-2.4-.7-1.3-1.9-3.3-2.8-2.8-.9.4,1.5,2.5,1.5,5.4,0,2.1-3.3,4.6-.7,6.1h0c2.5,1.5,3.2-2.6,5-3.6,2.4-1.4,5.4-.3,5.4-1.3"/>
      <path id="Path_13" data-name="Path 13" class="cls-6" d="M636.4,51.7a1.817,1.817,0,0,0,0,2,1.617,1.617,0,0,0,1.6,1.4h.1a1.269,1.269,0,0,1-.1-.6v-.2a1.635,1.635,0,0,0,0-3.2v-.2a1.269,1.269,0,0,1,.1-.6H638a1.537,1.537,0,0,0-1.6,1.4m1.1,7.5c.8-.5-.2-2.6-1-3.9a5.787,5.787,0,0,1-1.2-2.7c0-1,.5-1.6,1.2-2.7.8-1.3,1.8-3.3,1-3.9-.8-.5-1.4,2.6-3.9,4-1.8,1-5.6-.5-5.6,2.5h0c0,3,3.8,1.5,5.6,2.5,2.5,1.6,3.1,4.7,3.9,4.2"/>
      <path id="Path_14" data-name="Path 14" class="cls-7" d="M655.9,64.9a1.8,1.8,0,0,0,1-.2,1.779,1.779,0,0,0,.7-.8,1.685,1.685,0,0,0,.4-2.1.1.1,0,0,0-.1-.1l-.4.4c-.1,0-.1.1-.2.1a1.546,1.546,0,0,0-2-.3,1.506,1.506,0,0,0-.7,1.9c-.1,0-.1.1-.2.1a1.69,1.69,0,0,1-.5.2v.1a1.445,1.445,0,0,0,2,.7m5.9-4.8c-.9-.4-2.1,1.5-2.8,2.8-.6,1.1-.9,1.9-1.7,2.4a5.2,5.2,0,0,1-2.9.3c-1.5,0-3.8.1-3.8,1.1s2.9-.1,5.4,1.3c1.8,1,2.5,5.1,5,3.6h0c2.5-1.5-.7-4.1-.7-6.1,0-2.8,2.4-4.9,1.5-5.4"/>
      <path id="Path_15" data-name="Path 15" class="cls-8" d="M657.6,41.4a1.779,1.779,0,0,0-.7-.8,1.232,1.232,0,0,0-1-.2,1.63,1.63,0,0,0-2,.7v.1a.764.764,0,0,1,.5.2c.1,0,.1.1.2.1a1.619,1.619,0,0,0,.7,1.9,1.529,1.529,0,0,0,2-.3c.1,0,.1.1.2.1a.781.781,0,0,1,.4.4.1.1,0,0,1,.1-.1,1.48,1.48,0,0,0-.4-2.1m-7-2.9c0,1,2.3,1.1,3.8,1.1a6.306,6.306,0,0,1,2.9.3c.8.5,1.1,1.2,1.7,2.4.7,1.3,1.9,3.3,2.8,2.8.9-.4-1.5-2.5-1.5-5.4,0-2.1,3.3-4.6.7-6.1h0c-2.6-1.5-3.2,2.6-5,3.6-2.5,1.4-5.4.3-5.4,1.3"/>
    </g>
  </g>
</svg>
