<?xml version="1.0" encoding="UTF-8"?>
<svg xmlns="http://www.w3.org/2000/svg" xmlns:xlink="http://www.w3.org/1999/xlink" width="150px" height="75px" viewBox="0 0 150 75" version="1.1">
<defs>
<radialGradient id="radial0" gradientUnits="userSpaceOnUse" cx="-351.9422" cy="615.4503" fx="-351.9422" fy="615.4503" r="0.81" gradientTransform="matrix(-57.069168,43.422152,43.44358,57.041013,-46767.761718,-19798.353418)">
<stop offset="0" style="stop-color:rgb(0%,57.647059%,93.72549%);stop-opacity:1;"/>
<stop offset="0.51" style="stop-color:rgb(0%,8.627451%,61.960784%);stop-opacity:1;"/>
<stop offset="0.94" style="stop-color:rgb(0%,0%,54.901961%);stop-opacity:1;"/>
<stop offset="1" style="stop-color:rgb(0%,0%,54.901961%);stop-opacity:1;"/>
</radialGradient>
<radialGradient id="radial1" gradientUnits="userSpaceOnUse" cx="25.4976" cy="52.5863" fx="6.7948" fy="52.7087" r="18.7032" gradientTransform="matrix(0.542495,0,0,0.542495,0.0488246,0)">
<stop offset="0" style="stop-color:rgb(60%,86.27451%,100%);stop-opacity:1;"/>
<stop offset="0.22" style="stop-color:rgb(60%,86.27451%,100%);stop-opacity:1;"/>
<stop offset="0.47" style="stop-color:rgb(60.784314%,86.666667%,100%);stop-opacity:1;"/>
<stop offset="0.61" style="stop-color:rgb(64.313725%,87.843137%,100%);stop-opacity:1;"/>
<stop offset="0.72" style="stop-color:rgb(69.411765%,89.411765%,100%);stop-opacity:1;"/>
<stop offset="0.82" style="stop-color:rgb(77.254902%,92.156863%,100%);stop-opacity:1;"/>
<stop offset="0.91" style="stop-color:rgb(87.058824%,95.686275%,100%);stop-opacity:1;"/>
<stop offset="1" style="stop-color:rgb(99.215686%,99.607843%,100%);stop-opacity:1;"/>
<stop offset="1" style="stop-color:rgb(100%,100%,100%);stop-opacity:1;"/>
</radialGradient>
<radialGradient id="radial2" gradientUnits="userSpaceOnUse" cx="94.5959" cy="51.2591" fx="94.5959" fy="51.2591" r="26.2724" gradientTransform="matrix(0.542495,0,0,0.542495,0.0488246,0)">
<stop offset="0" style="stop-color:rgb(60%,86.27451%,100%);stop-opacity:1;"/>
<stop offset="0.22" style="stop-color:rgb(60%,86.27451%,100%);stop-opacity:1;"/>
<stop offset="0.36" style="stop-color:rgb(61.960784%,87.058824%,100%);stop-opacity:1;"/>
<stop offset="0.52" style="stop-color:rgb(67.45098%,88.627451%,100%);stop-opacity:1;"/>
<stop offset="0.69" style="stop-color:rgb(76.470588%,91.764706%,100%);stop-opacity:1;"/>
<stop offset="0.87" style="stop-color:rgb(89.411765%,96.470588%,100%);stop-opacity:1;"/>
<stop offset="1" style="stop-color:rgb(100%,100%,100%);stop-opacity:1;"/>
</radialGradient>
<radialGradient id="radial3" gradientUnits="userSpaceOnUse" cx="58.2935" cy="45.1936" fx="58.2935" fy="45.1936" r="26.6896" gradientTransform="matrix(0.542495,0,0,0.542495,0.0488246,0)">
<stop offset="0" style="stop-color:rgb(60%,86.27451%,100%);stop-opacity:1;"/>
<stop offset="0.22" style="stop-color:rgb(60%,86.27451%,100%);stop-opacity:1;"/>
<stop offset="0.36" style="stop-color:rgb(61.960784%,87.058824%,100%);stop-opacity:1;"/>
<stop offset="0.52" style="stop-color:rgb(67.45098%,88.627451%,100%);stop-opacity:1;"/>
<stop offset="0.69" style="stop-color:rgb(76.470588%,91.764706%,100%);stop-opacity:1;"/>
<stop offset="0.87" style="stop-color:rgb(89.411765%,96.470588%,100%);stop-opacity:1;"/>
<stop offset="1" style="stop-color:rgb(100%,100%,100%);stop-opacity:1;"/>
</radialGradient>
<linearGradient id="linear0" gradientUnits="userSpaceOnUse" x1="18.4532" y1="59.4379" x2="38.523" y2="83.5633" gradientTransform="matrix(0.542495,0,0,0.542495,0.0488246,0)">
<stop offset="0" style="stop-color:rgb(0%,43.921569%,18.431373%);stop-opacity:1;"/>
<stop offset="0.17" style="stop-color:rgb(1.176471%,45.882353%,19.215686%);stop-opacity:1;"/>
<stop offset="0.37" style="stop-color:rgb(4.313725%,51.372549%,21.176471%);stop-opacity:1;"/>
<stop offset="0.58" style="stop-color:rgb(9.803922%,60.392157%,24.705882%);stop-opacity:1;"/>
<stop offset="0.8" style="stop-color:rgb(17.254902%,73.333333%,29.803922%);stop-opacity:1;"/>
<stop offset="1" style="stop-color:rgb(25.882353%,87.843137%,35.294118%);stop-opacity:1;"/>
</linearGradient>
<linearGradient id="linear1" gradientUnits="userSpaceOnUse" x1="62.127" y1="74.9896" x2="72.4424" y2="84.6075" gradientTransform="matrix(0.542495,0,0,0.542495,0.0488246,0)">
<stop offset="0" style="stop-color:rgb(100%,50.980392%,0.392157%);stop-opacity:1;"/>
<stop offset="1" style="stop-color:rgb(100%,71.372549%,12.941176%);stop-opacity:1;"/>
</linearGradient>
<linearGradient id="linear2" gradientUnits="userSpaceOnUse" x1="105.41" y1="55.7366" x2="105.41" y2="81.7528" gradientTransform="matrix(0.542495,0,0,0.542495,0.0488246,0)">
<stop offset="0" style="stop-color:rgb(96.078431%,12.156863%,80%);stop-opacity:1;"/>
<stop offset="0.24" style="stop-color:rgb(96.470588%,14.117647%,80.784314%);stop-opacity:1;"/>
<stop offset="0.52" style="stop-color:rgb(97.254902%,19.607843%,83.529412%);stop-opacity:1;"/>
<stop offset="0.82" style="stop-color:rgb(98.823529%,28.627451%,87.843137%);stop-opacity:1;"/>
<stop offset="1" style="stop-color:rgb(100%,35.686275%,90.980392%);stop-opacity:1;"/>
</linearGradient>
</defs>
<g id="surface1">
<path style=" stroke:none;fill-rule:nonzero;fill:rgb(100%,35.294118%,78.431373%);fill-opacity:1;" d="M 142.28125 14.792969 C 134.46875 4.546875 122.410156 -0.554688 110.445312 0.0742188 L 37.566406 0 L 37.566406 75 L 111.753906 74.996094 C 119.90625 75.144531 128.164062 72.667969 135.15625 67.34375 L 135.179688 67.328125 C 151.648438 54.78125 154.832031 31.265625 142.28125 14.792969 Z M 142.28125 14.792969 "/>
<path style=" stroke:none;fill-rule:nonzero;fill:url(#radial0);" d="M 14.828125 7.6875 L 14.847656 7.671875 C 31.324219 -4.871094 54.855469 -1.691406 67.40625 14.773438 L 67.410156 14.777344 C 79.964844 31.246094 76.78125 54.765625 60.304688 67.3125 L 60.28125 67.328125 C 43.804688 79.871094 20.273438 76.691406 7.726562 60.226562 L 7.71875 60.21875 C -4.828125 43.753906 -1.648438 20.230469 14.828125 7.6875 Z M 14.828125 7.6875 "/>
<path style=" stroke:none;fill-rule:nonzero;fill:rgb(100%,100%,100%);fill-opacity:1;" d="M 15.40625 52.269531 C 15.40625 52.390625 15.386719 52.480469 15.339844 52.535156 C 15.296875 52.589844 15.234375 52.648438 15.136719 52.703125 C 15.082031 52.734375 15.011719 52.761719 14.929688 52.796875 C 14.847656 52.824219 14.761719 52.851562 14.664062 52.871094 C 14.566406 52.894531 14.464844 52.910156 14.359375 52.921875 C 14.25 52.929688 14.148438 52.9375 14.046875 52.9375 C 13.769531 52.9375 13.503906 52.898438 13.257812 52.824219 C 13.015625 52.746094 12.804688 52.632812 12.625 52.480469 C 12.445312 52.328125 12.296875 52.140625 12.195312 51.90625 C 12.09375 51.679688 12.039062 51.414062 12.039062 51.109375 C 12.039062 50.789062 12.097656 50.511719 12.210938 50.277344 C 12.324219 50.039062 12.476562 49.84375 12.667969 49.6875 C 12.855469 49.53125 13.070312 49.410156 13.3125 49.335938 C 13.558594 49.257812 13.804688 49.21875 14.0625 49.21875 C 14.429688 49.21875 14.722656 49.28125 14.933594 49.398438 C 15.152344 49.519531 15.253906 49.671875 15.253906 49.859375 C 15.253906 49.964844 15.226562 50.050781 15.179688 50.121094 C 15.128906 50.191406 15.070312 50.25 15.003906 50.292969 C 14.90625 50.234375 14.789062 50.179688 14.640625 50.121094 C 14.496094 50.066406 14.332031 50.035156 14.148438 50.035156 C 13.824219 50.035156 13.5625 50.125 13.371094 50.3125 C 13.183594 50.496094 13.085938 50.757812 13.085938 51.085938 C 13.085938 51.265625 13.113281 51.417969 13.160156 51.546875 C 13.214844 51.679688 13.285156 51.785156 13.371094 51.867188 C 13.460938 51.949219 13.5625 52.015625 13.683594 52.050781 C 13.800781 52.089844 13.921875 52.113281 14.054688 52.113281 C 14.144531 52.113281 14.21875 52.105469 14.285156 52.089844 C 14.347656 52.074219 14.398438 52.058594 14.4375 52.035156 L 14.4375 51.488281 L 13.8125 51.488281 C 13.789062 51.445312 13.769531 51.390625 13.746094 51.320312 C 13.726562 51.25 13.714844 51.179688 13.714844 51.097656 C 13.714844 50.957031 13.746094 50.859375 13.8125 50.792969 C 13.878906 50.730469 13.957031 50.703125 14.0625 50.703125 L 15.042969 50.703125 C 15.15625 50.703125 15.25 50.734375 15.316406 50.800781 C 15.378906 50.863281 15.414062 50.953125 15.414062 51.070312 L 15.414062 52.269531 Z M 15.40625 52.269531 "/>
<path style=" stroke:none;fill-rule:nonzero;fill:rgb(100%,100%,100%);fill-opacity:1;" d="M 16.925781 52.84375 C 16.886719 52.855469 16.828125 52.867188 16.742188 52.878906 C 16.660156 52.886719 16.574219 52.894531 16.480469 52.894531 C 16.394531 52.894531 16.316406 52.886719 16.253906 52.878906 C 16.1875 52.867188 16.128906 52.84375 16.078125 52.804688 C 16.03125 52.769531 16 52.726562 15.972656 52.664062 C 15.945312 52.605469 15.933594 52.523438 15.933594 52.433594 L 15.933594 50.683594 C 15.933594 50.597656 15.949219 50.515625 15.980469 50.457031 C 16.015625 50.390625 16.0625 50.339844 16.121094 50.285156 C 16.183594 50.234375 16.265625 50.1875 16.351562 50.148438 C 16.441406 50.109375 16.539062 50.074219 16.644531 50.039062 C 16.746094 50.007812 16.855469 49.984375 16.96875 49.96875 C 17.082031 49.953125 17.191406 49.941406 17.304688 49.941406 C 17.488281 49.941406 17.636719 49.980469 17.746094 50.050781 C 17.855469 50.121094 17.90625 50.242188 17.90625 50.402344 C 17.90625 50.457031 17.902344 50.511719 17.886719 50.5625 C 17.871094 50.613281 17.855469 50.660156 17.828125 50.703125 C 17.746094 50.703125 17.664062 50.707031 17.578125 50.710938 C 17.488281 50.71875 17.410156 50.734375 17.328125 50.746094 C 17.246094 50.761719 17.171875 50.777344 17.097656 50.792969 C 17.027344 50.808594 16.96875 50.832031 16.914062 50.855469 L 16.914062 52.84375 Z M 16.925781 52.84375 "/>
<path style=" stroke:none;fill-rule:nonzero;fill:rgb(100%,100%,100%);fill-opacity:1;" d="M 19.324219 49.929688 C 19.535156 49.929688 19.726562 49.953125 19.898438 49.996094 C 20.074219 50.039062 20.21875 50.105469 20.339844 50.191406 C 20.464844 50.277344 20.554688 50.390625 20.621094 50.523438 C 20.683594 50.660156 20.71875 50.816406 20.71875 50.996094 L 20.71875 52.296875 C 20.71875 52.398438 20.691406 52.480469 20.632812 52.546875 C 20.578125 52.609375 20.507812 52.664062 20.429688 52.714844 C 20.179688 52.867188 19.824219 52.941406 19.367188 52.941406 C 19.160156 52.941406 18.976562 52.921875 18.8125 52.882812 C 18.652344 52.84375 18.511719 52.785156 18.390625 52.707031 C 18.269531 52.632812 18.179688 52.53125 18.121094 52.410156 C 18.054688 52.292969 18.023438 52.148438 18.023438 51.992188 C 18.023438 51.726562 18.101562 51.519531 18.261719 51.375 C 18.417969 51.234375 18.667969 51.140625 19 51.109375 L 19.757812 51.027344 L 19.757812 50.984375 C 19.757812 50.871094 19.707031 50.789062 19.609375 50.738281 C 19.511719 50.691406 19.371094 50.667969 19.183594 50.667969 C 19.035156 50.667969 18.890625 50.683594 18.753906 50.71875 C 18.617188 50.75 18.488281 50.789062 18.375 50.832031 C 18.324219 50.800781 18.28125 50.746094 18.242188 50.675781 C 18.210938 50.605469 18.191406 50.527344 18.191406 50.453125 C 18.191406 50.347656 18.210938 50.273438 18.261719 50.207031 C 18.308594 50.148438 18.386719 50.09375 18.484375 50.054688 C 18.597656 50.011719 18.726562 49.980469 18.878906 49.964844 C 19.042969 49.941406 19.1875 49.929688 19.324219 49.929688 Z M 19.371094 52.21875 C 19.4375 52.21875 19.511719 52.214844 19.589844 52.199219 C 19.671875 52.183594 19.730469 52.167969 19.769531 52.144531 L 19.769531 51.679688 L 19.351562 51.710938 C 19.242188 51.714844 19.15625 51.742188 19.085938 51.78125 C 19.015625 51.820312 18.980469 51.878906 18.980469 51.953125 C 18.980469 52.03125 19.015625 52.097656 19.074219 52.144531 C 19.121094 52.195312 19.226562 52.21875 19.371094 52.21875 Z M 19.371094 52.21875 "/>
<path style=" stroke:none;fill-rule:nonzero;fill:rgb(100%,100%,100%);fill-opacity:1;" d="M 23.117188 51.054688 C 23.117188 50.933594 23.082031 50.847656 23.011719 50.789062 C 22.941406 50.730469 22.855469 50.703125 22.734375 50.703125 C 22.660156 50.703125 22.585938 50.710938 22.507812 50.730469 C 22.433594 50.75 22.367188 50.777344 22.3125 50.816406 L 22.3125 52.832031 C 22.273438 52.84375 22.214844 52.855469 22.128906 52.867188 C 22.046875 52.878906 21.960938 52.882812 21.867188 52.882812 C 21.78125 52.882812 21.707031 52.878906 21.640625 52.867188 C 21.574219 52.855469 21.515625 52.832031 21.464844 52.796875 C 21.417969 52.757812 21.386719 52.714844 21.359375 52.65625 C 21.332031 52.59375 21.320312 52.511719 21.320312 52.421875 L 21.320312 50.675781 C 21.320312 50.570312 21.339844 50.484375 21.386719 50.417969 C 21.429688 50.355469 21.488281 50.292969 21.570312 50.242188 C 21.699219 50.148438 21.867188 50.074219 22.070312 50.011719 C 22.269531 49.953125 22.492188 49.925781 22.734375 49.925781 C 23.175781 49.925781 23.511719 50.023438 23.75 50.214844 C 23.988281 50.402344 24.101562 50.675781 24.101562 51.011719 L 24.101562 52.832031 C 24.066406 52.84375 24.003906 52.855469 23.917969 52.867188 C 23.832031 52.878906 23.75 52.882812 23.660156 52.882812 C 23.570312 52.882812 23.496094 52.878906 23.429688 52.867188 C 23.367188 52.855469 23.304688 52.832031 23.257812 52.796875 C 23.207031 52.761719 23.175781 52.714844 23.148438 52.65625 C 23.121094 52.59375 23.109375 52.511719 23.109375 52.421875 L 23.109375 51.054688 Z M 23.117188 51.054688 "/>
<path style=" stroke:none;fill-rule:nonzero;fill:rgb(100%,100%,100%);fill-opacity:1;" d="M 24.589844 51.433594 C 24.589844 51.179688 24.628906 50.957031 24.707031 50.765625 C 24.78125 50.578125 24.890625 50.425781 25.03125 50.300781 C 25.167969 50.175781 25.328125 50.082031 25.511719 50.023438 C 25.699219 49.964844 25.898438 49.929688 26.109375 49.929688 C 26.1875 49.929688 26.261719 49.9375 26.339844 49.953125 C 26.414062 49.96875 26.472656 49.984375 26.515625 50 L 26.515625 49.058594 C 26.554688 49.046875 26.621094 49.035156 26.703125 49.019531 C 26.789062 49.007812 26.875 49 26.960938 49 C 27.046875 49 27.125 49.003906 27.191406 49.015625 C 27.261719 49.023438 27.316406 49.046875 27.363281 49.085938 C 27.414062 49.117188 27.445312 49.167969 27.464844 49.226562 C 27.488281 49.285156 27.5 49.367188 27.5 49.460938 L 27.5 52.214844 C 27.5 52.398438 27.414062 52.539062 27.242188 52.648438 C 27.128906 52.726562 26.984375 52.785156 26.808594 52.84375 C 26.632812 52.898438 26.425781 52.929688 26.191406 52.929688 C 25.941406 52.929688 25.714844 52.898438 25.511719 52.828125 C 25.3125 52.757812 25.144531 52.660156 25.007812 52.523438 C 24.875 52.390625 24.765625 52.238281 24.695312 52.050781 C 24.625 51.867188 24.589844 51.667969 24.589844 51.433594 Z M 26.246094 50.707031 C 26.035156 50.707031 25.878906 50.765625 25.761719 50.886719 C 25.648438 51.003906 25.59375 51.191406 25.59375 51.433594 C 25.59375 51.671875 25.648438 51.855469 25.753906 51.976562 C 25.855469 52.101562 26.007812 52.160156 26.207031 52.160156 C 26.277344 52.160156 26.34375 52.148438 26.398438 52.128906 C 26.453125 52.105469 26.496094 52.085938 26.527344 52.058594 L 26.527344 50.777344 C 26.445312 50.730469 26.355469 50.707031 26.246094 50.707031 Z M 26.246094 50.707031 "/>
<path style=" stroke:none;fill-rule:nonzero;fill:rgb(100%,100%,100%);fill-opacity:1;" d="M 29.367188 52.941406 C 29.136719 52.941406 28.925781 52.910156 28.730469 52.84375 C 28.535156 52.78125 28.363281 52.6875 28.21875 52.558594 C 28.078125 52.425781 27.960938 52.269531 27.878906 52.074219 C 27.796875 51.878906 27.753906 51.652344 27.753906 51.394531 C 27.753906 51.140625 27.796875 50.917969 27.878906 50.734375 C 27.960938 50.550781 28.074219 50.398438 28.210938 50.277344 C 28.34375 50.160156 28.503906 50.074219 28.675781 50.019531 C 28.851562 49.964844 29.027344 49.929688 29.214844 49.929688 C 29.417969 49.929688 29.605469 49.964844 29.777344 50.023438 C 29.945312 50.082031 30.09375 50.171875 30.210938 50.277344 C 30.335938 50.386719 30.429688 50.515625 30.5 50.667969 C 30.570312 50.820312 30.601562 50.984375 30.601562 51.164062 C 30.601562 51.292969 30.5625 51.394531 30.492188 51.464844 C 30.417969 51.535156 30.316406 51.582031 30.183594 51.601562 L 28.746094 51.820312 C 28.789062 51.949219 28.878906 52.042969 29.007812 52.105469 C 29.136719 52.171875 29.289062 52.203125 29.464844 52.203125 C 29.621094 52.203125 29.773438 52.183594 29.914062 52.144531 C 30.054688 52.101562 30.167969 52.058594 30.261719 52.003906 C 30.320312 52.042969 30.375 52.097656 30.417969 52.167969 C 30.460938 52.238281 30.484375 52.308594 30.484375 52.390625 C 30.484375 52.5625 30.402344 52.691406 30.238281 52.78125 C 30.113281 52.84375 29.972656 52.886719 29.820312 52.914062 C 29.648438 52.929688 29.5 52.941406 29.367188 52.941406 Z M 29.203125 50.652344 C 29.109375 50.652344 29.027344 50.667969 28.964844 50.703125 C 28.894531 50.734375 28.839844 50.773438 28.796875 50.820312 C 28.753906 50.871094 28.71875 50.925781 28.699219 50.984375 C 28.675781 51.042969 28.664062 51.101562 28.660156 51.167969 L 29.652344 51.003906 C 29.640625 50.929688 29.597656 50.847656 29.523438 50.773438 C 29.457031 50.691406 29.34375 50.652344 29.203125 50.652344 Z M 29.203125 50.652344 "/>
<path style=" stroke:none;fill-rule:nonzero;fill:rgb(100%,100%,100%);fill-opacity:1;" d="M 31.0625 52.851562 C 31.003906 52.796875 30.949219 52.730469 30.917969 52.660156 C 30.882812 52.589844 30.863281 52.503906 30.863281 52.410156 C 30.863281 52.335938 30.878906 52.257812 30.917969 52.183594 C 30.953125 52.105469 31 52.035156 31.050781 51.972656 L 32.050781 50.792969 L 30.980469 50.792969 C 30.960938 50.75 30.9375 50.695312 30.917969 50.632812 C 30.894531 50.566406 30.882812 50.496094 30.882812 50.414062 C 30.882812 50.277344 30.917969 50.179688 30.976562 50.121094 C 31.035156 50.0625 31.117188 50.027344 31.214844 50.027344 L 33.046875 50.027344 C 33.109375 50.082031 33.164062 50.148438 33.195312 50.21875 C 33.226562 50.289062 33.25 50.375 33.25 50.46875 C 33.25 50.542969 33.234375 50.621094 33.195312 50.695312 C 33.15625 50.773438 33.113281 50.84375 33.058594 50.90625 L 32.082031 52.085938 L 33.222656 52.085938 C 33.242188 52.128906 33.265625 52.183594 33.289062 52.246094 C 33.308594 52.3125 33.320312 52.382812 33.320312 52.464844 C 33.320312 52.601562 33.289062 52.699219 33.226562 52.757812 C 33.167969 52.816406 33.085938 52.851562 32.988281 52.851562 Z M 31.0625 52.851562 "/>
<path style=" stroke:none;fill-rule:nonzero;fill:rgb(100%,100%,100%);fill-opacity:1;" d="M 34.925781 49.929688 C 35.136719 49.929688 35.328125 49.953125 35.5 49.996094 C 35.675781 50.039062 35.820312 50.105469 35.941406 50.191406 C 36.066406 50.277344 36.15625 50.390625 36.222656 50.523438 C 36.289062 50.660156 36.320312 50.816406 36.320312 50.996094 L 36.320312 52.296875 C 36.320312 52.398438 36.292969 52.480469 36.234375 52.546875 C 36.179688 52.609375 36.109375 52.664062 36.03125 52.714844 C 35.78125 52.867188 35.425781 52.941406 34.96875 52.941406 C 34.761719 52.941406 34.578125 52.921875 34.414062 52.882812 C 34.253906 52.84375 34.113281 52.785156 33.992188 52.707031 C 33.875 52.632812 33.78125 52.53125 33.722656 52.410156 C 33.65625 52.292969 33.625 52.148438 33.625 51.992188 C 33.625 51.726562 33.707031 51.519531 33.863281 51.375 C 34.019531 51.234375 34.269531 51.140625 34.601562 51.109375 L 35.359375 51.027344 L 35.359375 50.984375 C 35.359375 50.871094 35.3125 50.789062 35.214844 50.738281 C 35.117188 50.691406 34.976562 50.667969 34.785156 50.667969 C 34.636719 50.667969 34.492188 50.683594 34.355469 50.71875 C 34.21875 50.75 34.089844 50.789062 33.976562 50.832031 C 33.925781 50.800781 33.882812 50.746094 33.847656 50.675781 C 33.8125 50.605469 33.792969 50.527344 33.792969 50.453125 C 33.792969 50.347656 33.8125 50.273438 33.863281 50.207031 C 33.910156 50.148438 33.988281 50.09375 34.085938 50.054688 C 34.199219 50.011719 34.328125 49.980469 34.480469 49.964844 C 34.644531 49.941406 34.789062 49.929688 34.925781 49.929688 Z M 34.96875 52.21875 C 35.035156 52.21875 35.109375 52.214844 35.1875 52.199219 C 35.269531 52.183594 35.328125 52.167969 35.367188 52.144531 L 35.367188 51.679688 L 34.949219 51.710938 C 34.839844 51.714844 34.753906 51.742188 34.683594 51.78125 C 34.609375 51.820312 34.578125 51.878906 34.578125 51.953125 C 34.578125 52.03125 34.609375 52.097656 34.671875 52.144531 C 34.726562 52.195312 34.828125 52.21875 34.96875 52.21875 Z M 34.96875 52.21875 "/>
<path style=" stroke:none;fill-rule:nonzero;fill:rgb(100%,100%,100%);fill-opacity:1;" d="M 37.730469 51.433594 C 37.730469 51.179688 37.769531 50.957031 37.84375 50.765625 C 37.921875 50.578125 38.027344 50.425781 38.171875 50.300781 C 38.304688 50.175781 38.46875 50.082031 38.652344 50.023438 C 38.835938 49.964844 39.039062 49.929688 39.25 49.929688 C 39.324219 49.929688 39.402344 49.9375 39.476562 49.953125 C 39.554688 49.96875 39.613281 49.984375 39.65625 50 L 39.65625 49.058594 C 39.695312 49.046875 39.757812 49.035156 39.839844 49.019531 C 39.925781 49.007812 40.015625 49 40.101562 49 C 40.1875 49 40.265625 49.003906 40.328125 49.015625 C 40.398438 49.023438 40.453125 49.046875 40.503906 49.085938 C 40.550781 49.117188 40.585938 49.167969 40.605469 49.226562 C 40.628906 49.285156 40.636719 49.367188 40.636719 49.460938 L 40.636719 52.214844 C 40.636719 52.398438 40.550781 52.539062 40.382812 52.648438 C 40.269531 52.726562 40.121094 52.785156 39.949219 52.84375 C 39.769531 52.898438 39.5625 52.929688 39.332031 52.929688 C 39.082031 52.929688 38.855469 52.898438 38.652344 52.828125 C 38.453125 52.757812 38.285156 52.660156 38.148438 52.523438 C 38.011719 52.390625 37.902344 52.238281 37.832031 52.050781 C 37.761719 51.867188 37.730469 51.667969 37.730469 51.433594 Z M 39.378906 50.707031 C 39.167969 50.707031 39.011719 50.765625 38.898438 50.886719 C 38.78125 51.003906 38.730469 51.191406 38.730469 51.433594 C 38.730469 51.671875 38.78125 51.855469 38.886719 51.976562 C 38.988281 52.101562 39.140625 52.160156 39.339844 52.160156 C 39.414062 52.160156 39.476562 52.148438 39.53125 52.128906 C 39.585938 52.105469 39.628906 52.085938 39.660156 52.058594 L 39.660156 50.777344 C 39.585938 50.730469 39.492188 50.707031 39.378906 50.707031 Z M 39.378906 50.707031 "/>
<path style=" stroke:none;fill-rule:nonzero;fill:rgb(100%,100%,100%);fill-opacity:1;" d="M 42.65625 52.941406 C 42.429688 52.941406 42.21875 52.910156 42.023438 52.84375 C 41.828125 52.78125 41.652344 52.6875 41.511719 52.558594 C 41.371094 52.425781 41.25 52.269531 41.171875 52.074219 C 41.089844 51.878906 41.046875 51.652344 41.046875 51.394531 C 41.046875 51.140625 41.089844 50.917969 41.171875 50.734375 C 41.25 50.550781 41.367188 50.398438 41.5 50.277344 C 41.636719 50.160156 41.792969 50.074219 41.96875 50.019531 C 42.140625 49.964844 42.320312 49.929688 42.503906 49.929688 C 42.710938 49.929688 42.894531 49.964844 43.070312 50.023438 C 43.238281 50.082031 43.382812 50.171875 43.503906 50.277344 C 43.628906 50.386719 43.71875 50.515625 43.789062 50.667969 C 43.859375 50.820312 43.894531 50.984375 43.894531 51.164062 C 43.894531 51.292969 43.855469 51.394531 43.785156 51.464844 C 43.707031 51.535156 43.605469 51.582031 43.476562 51.601562 L 42.039062 51.820312 C 42.082031 51.949219 42.167969 52.042969 42.296875 52.105469 C 42.429688 52.171875 42.582031 52.203125 42.753906 52.203125 C 42.910156 52.203125 43.0625 52.183594 43.203125 52.144531 C 43.34375 52.101562 43.460938 52.058594 43.550781 52.003906 C 43.609375 52.042969 43.664062 52.097656 43.707031 52.167969 C 43.753906 52.238281 43.773438 52.308594 43.773438 52.390625 C 43.773438 52.5625 43.691406 52.691406 43.53125 52.78125 C 43.40625 52.84375 43.265625 52.886719 43.113281 52.914062 C 42.9375 52.929688 42.792969 52.941406 42.65625 52.941406 Z M 42.492188 50.652344 C 42.402344 50.652344 42.320312 50.667969 42.253906 50.703125 C 42.183594 50.734375 42.128906 50.773438 42.085938 50.820312 C 42.042969 50.871094 42.011719 50.925781 41.988281 50.984375 C 41.96875 51.042969 41.957031 51.101562 41.953125 51.167969 L 42.945312 51.003906 C 42.933594 50.929688 42.890625 50.847656 42.8125 50.773438 C 42.75 50.691406 42.632812 50.652344 42.492188 50.652344 Z M 42.492188 50.652344 "/>
<path style=" stroke:none;fill-rule:nonzero;fill:rgb(100%,100%,100%);fill-opacity:1;" d="M 47.855469 51.980469 C 47.804688 52.023438 47.738281 52.058594 47.660156 52.085938 C 47.578125 52.113281 47.484375 52.121094 47.382812 52.121094 C 47.242188 52.121094 47.125 52.105469 47.035156 52.070312 C 46.941406 52.035156 46.882812 51.972656 46.855469 51.890625 C 46.746094 51.546875 46.660156 51.269531 46.589844 51.058594 C 46.519531 50.847656 46.464844 50.664062 46.425781 50.507812 L 46.398438 50.507812 C 46.390625 50.734375 46.378906 50.945312 46.371094 51.128906 C 46.367188 51.316406 46.363281 51.5 46.363281 51.679688 C 46.363281 51.855469 46.355469 52.035156 46.351562 52.21875 C 46.34375 52.40625 46.335938 52.605469 46.324219 52.828125 C 46.273438 52.851562 46.210938 52.867188 46.128906 52.878906 C 46.046875 52.894531 45.964844 52.898438 45.882812 52.898438 C 45.714844 52.898438 45.582031 52.871094 45.488281 52.816406 C 45.390625 52.761719 45.347656 52.664062 45.347656 52.519531 L 45.515625 49.550781 C 45.546875 49.503906 45.613281 49.449219 45.722656 49.390625 C 45.824219 49.328125 45.972656 49.300781 46.160156 49.300781 C 46.367188 49.300781 46.53125 49.335938 46.644531 49.398438 C 46.757812 49.464844 46.84375 49.566406 46.898438 49.707031 C 46.929688 49.800781 46.96875 49.910156 47.011719 50.027344 C 47.054688 50.148438 47.09375 50.273438 47.136719 50.402344 C 47.179688 50.535156 47.21875 50.660156 47.257812 50.78125 C 47.292969 50.90625 47.332031 51.023438 47.359375 51.125 L 47.386719 51.125 C 47.480469 50.800781 47.570312 50.484375 47.664062 50.179688 C 47.757812 49.878906 47.84375 49.621094 47.917969 49.414062 C 47.976562 49.382812 48.046875 49.355469 48.140625 49.339844 C 48.234375 49.316406 48.335938 49.308594 48.445312 49.308594 C 48.632812 49.308594 48.792969 49.335938 48.910156 49.394531 C 49.03125 49.449219 49.101562 49.53125 49.121094 49.636719 C 49.140625 49.714844 49.15625 49.832031 49.171875 49.996094 C 49.1875 50.160156 49.210938 50.339844 49.226562 50.539062 C 49.246094 50.738281 49.265625 50.953125 49.285156 51.179688 C 49.308594 51.402344 49.324219 51.617188 49.339844 51.828125 C 49.355469 52.042969 49.371094 52.226562 49.382812 52.398438 C 49.394531 52.574219 49.40625 52.703125 49.40625 52.796875 C 49.339844 52.832031 49.269531 52.859375 49.199219 52.882812 C 49.128906 52.898438 49.035156 52.910156 48.921875 52.910156 C 48.777344 52.910156 48.652344 52.882812 48.546875 52.832031 C 48.445312 52.785156 48.390625 52.683594 48.386719 52.535156 C 48.363281 52.113281 48.347656 51.730469 48.339844 51.394531 C 48.335938 51.058594 48.324219 50.777344 48.316406 50.542969 L 48.289062 50.542969 C 48.25 50.695312 48.191406 50.886719 48.121094 51.113281 C 48.042969 51.332031 47.957031 51.625 47.855469 51.980469 Z M 47.855469 51.980469 "/>
<path style=" stroke:none;fill-rule:nonzero;fill:rgb(100%,100%,100%);fill-opacity:1;" d="M 51.390625 52.941406 C 51.164062 52.941406 50.953125 52.910156 50.757812 52.84375 C 50.5625 52.78125 50.386719 52.6875 50.246094 52.558594 C 50.105469 52.425781 49.984375 52.269531 49.902344 52.074219 C 49.824219 51.878906 49.78125 51.652344 49.78125 51.394531 C 49.78125 51.140625 49.824219 50.917969 49.902344 50.734375 C 49.984375 50.550781 50.097656 50.398438 50.234375 50.277344 C 50.371094 50.160156 50.527344 50.074219 50.703125 50.019531 C 50.875 49.964844 51.054688 49.929688 51.238281 49.929688 C 51.445312 49.929688 51.628906 49.964844 51.804688 50.023438 C 51.972656 50.082031 52.117188 50.171875 52.238281 50.277344 C 52.363281 50.386719 52.453125 50.515625 52.523438 50.667969 C 52.59375 50.820312 52.628906 50.984375 52.628906 51.164062 C 52.628906 51.292969 52.589844 51.394531 52.519531 51.464844 C 52.441406 51.535156 52.339844 51.582031 52.210938 51.601562 L 50.773438 51.820312 C 50.816406 51.949219 50.902344 52.042969 51.03125 52.105469 C 51.164062 52.171875 51.316406 52.203125 51.488281 52.203125 C 51.644531 52.203125 51.796875 52.183594 51.9375 52.144531 C 52.078125 52.101562 52.195312 52.058594 52.285156 52.003906 C 52.34375 52.042969 52.398438 52.097656 52.441406 52.167969 C 52.488281 52.238281 52.507812 52.308594 52.507812 52.390625 C 52.507812 52.5625 52.425781 52.691406 52.265625 52.78125 C 52.140625 52.84375 52 52.886719 51.847656 52.914062 C 51.671875 52.929688 51.527344 52.941406 51.390625 52.941406 Z M 51.332031 48.519531 C 51.53125 48.519531 51.679688 48.558594 51.769531 48.632812 C 51.863281 48.710938 51.90625 48.804688 51.90625 48.910156 C 51.90625 49.015625 51.878906 49.097656 51.824219 49.167969 C 51.769531 49.238281 51.683594 49.300781 51.558594 49.367188 L 50.808594 49.761719 C 50.695312 49.753906 50.59375 49.703125 50.511719 49.621094 C 50.429688 49.539062 50.386719 49.453125 50.386719 49.363281 C 50.386719 49.316406 50.398438 49.269531 50.417969 49.21875 C 50.441406 49.171875 50.480469 49.132812 50.535156 49.089844 Z M 51.226562 50.652344 C 51.136719 50.652344 51.054688 50.667969 50.988281 50.703125 C 50.917969 50.734375 50.863281 50.773438 50.820312 50.820312 C 50.777344 50.871094 50.746094 50.925781 50.722656 50.984375 C 50.703125 51.042969 50.691406 51.101562 50.683594 51.167969 L 51.679688 51.003906 C 51.667969 50.929688 51.625 50.847656 51.546875 50.773438 C 51.484375 50.691406 51.367188 50.652344 51.226562 50.652344 Z M 51.226562 50.652344 "/>
<path style=" stroke:none;fill-rule:nonzero;fill:rgb(100%,100%,100%);fill-opacity:1;" d="M 52.828125 50.480469 C 52.859375 50.332031 52.921875 50.214844 53.011719 50.117188 C 53.105469 50.019531 53.21875 49.976562 53.355469 49.976562 C 53.484375 49.976562 53.582031 50.007812 53.652344 50.066406 C 53.722656 50.125 53.800781 50.21875 53.886719 50.328125 L 54.261719 50.816406 L 54.882812 49.96875 C 55.097656 49.96875 55.265625 50.007812 55.390625 50.082031 C 55.511719 50.160156 55.574219 50.261719 55.574219 50.386719 C 55.574219 50.4375 55.566406 50.484375 55.550781 50.523438 C 55.535156 50.5625 55.519531 50.605469 55.492188 50.648438 C 55.464844 50.691406 55.433594 50.738281 55.390625 50.792969 C 55.34375 50.847656 55.296875 50.914062 55.238281 50.984375 L 54.851562 51.414062 L 55.609375 52.414062 C 55.589844 52.5625 55.535156 52.683594 55.4375 52.761719 C 55.339844 52.84375 55.226562 52.894531 55.089844 52.894531 C 54.945312 52.886719 54.824219 52.84375 54.738281 52.761719 C 54.652344 52.683594 54.5625 52.585938 54.484375 52.464844 L 54.167969 52.015625 L 53.578125 52.871094 C 53.554688 52.871094 53.535156 52.871094 53.511719 52.871094 C 53.488281 52.871094 53.46875 52.878906 53.453125 52.878906 C 53.257812 52.878906 53.105469 52.832031 53 52.753906 C 52.898438 52.671875 52.851562 52.566406 52.851562 52.449219 C 52.851562 52.355469 52.871094 52.273438 52.914062 52.199219 C 52.957031 52.128906 53.035156 52.03125 53.144531 51.90625 L 53.609375 51.363281 Z M 52.828125 50.480469 "/>
<path style=" stroke:none;fill-rule:nonzero;fill:rgb(100%,100%,100%);fill-opacity:1;" d="M 55.894531 49.238281 C 55.894531 49.089844 55.941406 48.964844 56.039062 48.863281 C 56.136719 48.757812 56.269531 48.710938 56.429688 48.710938 C 56.59375 48.710938 56.722656 48.757812 56.820312 48.863281 C 56.917969 48.964844 56.96875 49.089844 56.96875 49.238281 C 56.96875 49.382812 56.917969 49.507812 56.820312 49.609375 C 56.722656 49.714844 56.59375 49.761719 56.429688 49.761719 C 56.269531 49.761719 56.136719 49.714844 56.039062 49.609375 C 55.941406 49.507812 55.894531 49.382812 55.894531 49.238281 Z M 56.929688 52.84375 C 56.886719 52.851562 56.828125 52.859375 56.738281 52.878906 C 56.660156 52.894531 56.570312 52.898438 56.484375 52.898438 C 56.398438 52.898438 56.320312 52.894531 56.257812 52.882812 C 56.1875 52.871094 56.132812 52.851562 56.082031 52.8125 C 56.035156 52.773438 56 52.730469 55.976562 52.671875 C 55.949219 52.609375 55.9375 52.53125 55.9375 52.4375 L 55.9375 50.074219 C 55.980469 50.066406 56.039062 50.054688 56.125 50.039062 C 56.207031 50.023438 56.292969 50.019531 56.382812 50.019531 C 56.46875 50.019531 56.542969 50.023438 56.609375 50.035156 C 56.675781 50.046875 56.734375 50.066406 56.78125 50.105469 C 56.832031 50.136719 56.863281 50.1875 56.890625 50.246094 C 56.917969 50.304688 56.929688 50.386719 56.929688 50.480469 Z M 56.929688 52.84375 "/>
<path style=" stroke:none;fill-rule:nonzero;fill:rgb(100%,100%,100%);fill-opacity:1;" d="M 59.082031 50.710938 C 58.984375 50.710938 58.894531 50.730469 58.804688 50.761719 C 58.71875 50.792969 58.644531 50.835938 58.578125 50.898438 C 58.511719 50.957031 58.464844 51.03125 58.425781 51.121094 C 58.390625 51.207031 58.367188 51.316406 58.367188 51.433594 C 58.367188 51.671875 58.4375 51.855469 58.574219 51.976562 C 58.707031 52.097656 58.878906 52.15625 59.078125 52.15625 C 59.191406 52.15625 59.292969 52.144531 59.382812 52.113281 C 59.46875 52.085938 59.542969 52.058594 59.609375 52.023438 C 59.683594 52.078125 59.746094 52.140625 59.78125 52.203125 C 59.820312 52.269531 59.84375 52.34375 59.84375 52.433594 C 59.84375 52.589844 59.765625 52.714844 59.613281 52.800781 C 59.464844 52.886719 59.25 52.929688 58.984375 52.929688 C 58.742188 52.929688 58.519531 52.894531 58.324219 52.824219 C 58.128906 52.753906 57.953125 52.648438 57.8125 52.519531 C 57.671875 52.390625 57.5625 52.230469 57.484375 52.050781 C 57.402344 51.875 57.367188 51.667969 57.367188 51.445312 C 57.367188 51.191406 57.414062 50.96875 57.492188 50.773438 C 57.574219 50.582031 57.6875 50.425781 57.835938 50.300781 C 57.976562 50.175781 58.144531 50.082031 58.335938 50.023438 C 58.523438 49.964844 58.71875 49.929688 58.929688 49.929688 C 59.207031 49.929688 59.425781 49.980469 59.578125 50.082031 C 59.730469 50.1875 59.804688 50.316406 59.804688 50.472656 C 59.804688 50.550781 59.789062 50.613281 59.75 50.679688 C 59.71875 50.746094 59.675781 50.800781 59.625 50.847656 C 59.5625 50.816406 59.480469 50.789062 59.386719 50.757812 C 59.292969 50.730469 59.191406 50.710938 59.082031 50.710938 Z M 59.082031 50.710938 "/>
<path style=" stroke:none;fill-rule:nonzero;fill:rgb(100%,100%,100%);fill-opacity:1;" d="M 63.074219 51.433594 C 63.074219 51.671875 63.039062 51.890625 62.96875 52.074219 C 62.898438 52.257812 62.789062 52.421875 62.660156 52.546875 C 62.523438 52.675781 62.367188 52.773438 62.179688 52.839844 C 61.996094 52.902344 61.785156 52.9375 61.558594 52.9375 C 61.328125 52.9375 61.121094 52.902344 60.933594 52.832031 C 60.742188 52.761719 60.585938 52.664062 60.457031 52.535156 C 60.320312 52.40625 60.21875 52.246094 60.144531 52.0625 C 60.070312 51.878906 60.039062 51.667969 60.039062 51.433594 C 60.039062 51.207031 60.074219 51 60.144531 50.808594 C 60.222656 50.625 60.324219 50.46875 60.457031 50.339844 C 60.585938 50.207031 60.75 50.109375 60.933594 50.039062 C 61.117188 49.96875 61.328125 49.9375 61.558594 49.9375 C 61.785156 49.9375 61.992188 49.976562 62.179688 50.046875 C 62.367188 50.117188 62.527344 50.21875 62.660156 50.347656 C 62.792969 50.480469 62.898438 50.636719 62.96875 50.820312 C 63.039062 51.003906 63.074219 51.210938 63.074219 51.433594 Z M 61.042969 51.433594 C 61.042969 51.671875 61.085938 51.851562 61.175781 51.976562 C 61.269531 52.101562 61.394531 52.167969 61.558594 52.167969 C 61.71875 52.167969 61.84375 52.101562 61.929688 51.976562 C 62.019531 51.847656 62.0625 51.667969 62.0625 51.433594 C 62.0625 51.199219 62.019531 51.023438 61.925781 50.898438 C 61.832031 50.773438 61.707031 50.707031 61.546875 50.707031 C 61.382812 50.707031 61.257812 50.773438 61.167969 50.898438 C 61.074219 51.023438 61.042969 51.199219 61.042969 51.433594 Z M 61.042969 51.433594 "/>
<path style=" stroke:none;fill-rule:nonzero;fill:url(#radial1);" d="M 15.917969 24.742188 C 14.539062 25.167969 13.269531 25.867188 12.171875 26.804688 C 11.074219 27.757812 10.171875 28.921875 9.515625 30.222656 C 8.804688 31.730469 8.472656 33.386719 8.539062 35.050781 C 8.515625 36.652344 8.832031 38.242188 9.460938 39.714844 C 10.042969 41.007812 10.894531 42.152344 11.957031 43.078125 C 13.042969 43.992188 14.292969 44.675781 15.644531 45.085938 C 17.121094 45.53125 18.660156 45.75 20.203125 45.738281 C 20.800781 45.738281 21.449219 45.683594 22.046875 45.628906 C 22.644531 45.574219 23.242188 45.464844 23.835938 45.359375 C 24.367188 45.242188 24.894531 45.101562 25.410156 44.925781 C 25.828125 44.800781 26.230469 44.613281 26.605469 44.382812 C 27.054688 44.125 27.457031 43.796875 27.796875 43.40625 C 28.097656 42.9375 28.230469 42.386719 28.175781 41.832031 L 28.175781 34.886719 C 28.308594 33.847656 27.5625 32.902344 26.523438 32.773438 C 26.371094 32.757812 26.214844 32.757812 26.0625 32.773438 L 20.367188 32.773438 C 19.824219 32.746094 19.292969 32.941406 18.902344 33.316406 C 18.488281 33.792969 18.292969 34.421875 18.359375 35.050781 C 18.359375 35.488281 18.414062 35.929688 18.519531 36.351562 C 18.609375 36.6875 18.738281 37.019531 18.902344 37.328125 L 22.535156 37.328125 L 22.535156 40.53125 C 22.257812 40.664062 21.964844 40.773438 21.667969 40.855469 C 21.242188 40.96875 20.804688 41.023438 20.367188 41.019531 C 19.621094 41.027344 18.890625 40.898438 18.195312 40.636719 C 17.527344 40.40625 16.921875 40.035156 16.40625 39.554688 C 15.855469 39.039062 15.429688 38.410156 15.15625 37.707031 C 14.832031 36.847656 14.679688 35.917969 14.722656 34.996094 C 14.722656 33.097656 15.265625 31.578125 16.40625 30.492188 C 17.625 29.371094 19.246094 28.785156 20.90625 28.867188 C 21.890625 28.851562 22.859375 29.019531 23.78125 29.355469 C 24.515625 29.613281 25.226562 29.945312 25.898438 30.332031 C 26.292969 30.042969 26.640625 29.695312 26.929688 29.300781 C 27.21875 28.84375 27.367188 28.316406 27.363281 27.78125 C 27.363281 26.695312 26.710938 25.773438 25.464844 25.070312 C 24.21875 24.363281 22.535156 24.039062 20.367188 24.039062 C 18.851562 24.042969 17.355469 24.28125 15.917969 24.742188 "/>
<path style=" stroke:none;fill-rule:nonzero;fill:url(#radial2);" d="M 50.90625 34.941406 C 50.90625 32.304688 53.046875 30.167969 55.683594 30.167969 C 58.316406 30.167969 60.457031 32.304688 60.457031 34.941406 C 60.457031 37.578125 58.316406 39.714844 55.683594 39.714844 C 53.046875 39.710938 50.90625 37.574219 50.90625 34.941406 M 44.832031 34.941406 C 44.832031 40.964844 49.714844 45.847656 55.734375 45.847656 C 61.757812 45.847656 66.640625 40.964844 66.640625 34.941406 C 66.640625 28.921875 61.757812 24.039062 55.734375 24.039062 C 49.714844 24.039062 44.832031 28.914062 44.832031 34.941406 "/>
<path style=" stroke:none;fill-rule:nonzero;fill:url(#radial3);" d="M 30.511719 24.582031 C 27.527344 24.632812 28.285156 29.464844 28.285156 29.464844 L 33.980469 29.410156 L 33.980469 45.25 C 40.058594 46.878906 40.003906 43.460938 40.003906 43.460938 L 40.003906 29.464844 L 43.585938 29.464844 C 46.785156 29.464844 45.863281 24.582031 45.863281 24.582031 L 30.511719 24.582031 "/>
<path style=" stroke:none;fill-rule:nonzero;fill:url(#linear0);" d="M 9.515625 30.332031 C 8.832031 31.84375 8.5 33.5 8.539062 35.160156 C 8.511719 36.757812 8.828125 38.355469 9.460938 39.824219 C 10.042969 41.117188 10.894531 42.261719 11.957031 43.1875 C 13.042969 44.097656 14.292969 44.78125 15.644531 45.195312 C 17.121094 45.640625 18.660156 45.855469 20.203125 45.847656 C 20.800781 45.847656 21.449219 45.792969 22.046875 45.738281 C 22.644531 45.683594 23.242188 45.574219 23.835938 45.464844 C 24.367188 45.351562 24.894531 45.210938 25.410156 45.03125 C 25.828125 44.90625 26.230469 44.722656 26.605469 44.488281 C 26.820312 44.328125 27.039062 44.21875 27.253906 44.054688 C 27.039062 44.054688 26.875 44 26.660156 44 C 13.203125 42.535156 10.273438 30.980469 10.003906 29.625 C 9.792969 29.820312 9.625 30.058594 9.515625 30.332031 "/>
<path style=" stroke:none;fill-rule:nonzero;fill:url(#linear1);" d="M 33.980469 45.25 C 40.058594 46.878906 40.003906 43.460938 40.003906 43.460938 L 40.003906 42.15625 C 37.617188 42.15625 35.390625 39.988281 33.980469 38.144531 Z M 33.980469 45.25 "/>
<path style=" stroke:none;fill-rule:nonzero;fill:url(#linear2);" d="M 55.683594 30.167969 C 57.339844 30.171875 58.878906 31.035156 59.75 32.445312 C 59.757812 32.488281 59.777344 32.527344 59.804688 32.554688 C 59.863281 32.613281 59.898438 32.691406 59.914062 32.773438 C 59.96875 32.878906 60.023438 32.933594 60.023438 33.042969 C 60.023438 33.152344 60.074219 33.097656 60.074219 33.152344 C 60.136719 33.269531 60.171875 33.402344 60.183594 33.53125 C 60.347656 34.097656 60.421875 34.683594 60.402344 35.269531 C 60.390625 35.4375 60.351562 35.597656 60.292969 35.757812 C 60.28125 35.847656 60.261719 35.941406 60.238281 36.027344 C 58.828125 42.589844 51.828125 43.40625 48.683594 43.40625 C 50.632812 44.996094 53.0625 45.878906 55.574219 45.902344 C 59.976562 45.910156 63.945312 43.246094 65.609375 39.171875 C 65.988281 36.894531 65.878906 34.292969 64.035156 32.339844 C 62.027344 30.167969 59.96875 29.625 58.394531 29.625 C 57.457031 29.566406 56.523438 29.757812 55.683594 30.167969 "/>
<path style=" stroke:none;fill-rule:nonzero;fill:rgb(100%,100%,100%);fill-opacity:1;" d="M 83.1875 33.695312 C 82.804688 33.585938 82.480469 33.421875 82.15625 33.316406 C 81.867188 33.21875 81.601562 33.046875 81.394531 32.828125 C 81.191406 32.648438 81.023438 32.425781 80.90625 32.175781 C 80.792969 31.859375 80.734375 31.53125 80.746094 31.199219 C 80.730469 30.527344 81.027344 29.878906 81.558594 29.464844 C 82.21875 28.992188 83.023438 28.761719 83.835938 28.8125 C 84.183594 28.800781 84.527344 28.816406 84.867188 28.867188 C 85.148438 28.898438 85.421875 28.976562 85.683594 29.082031 C 85.898438 29.179688 86.082031 29.328125 86.222656 29.515625 C 86.332031 29.695312 86.390625 29.902344 86.386719 30.113281 C 86.398438 30.308594 86.34375 30.5 86.222656 30.65625 C 86.125 30.808594 85.996094 30.9375 85.84375 31.035156 C 85.605469 30.902344 85.351562 30.785156 85.085938 30.710938 C 84.75 30.617188 84.402344 30.582031 84.054688 30.601562 C 83.773438 30.582031 83.488281 30.632812 83.242188 30.765625 C 83.078125 30.875 82.96875 30.980469 82.96875 31.144531 C 82.976562 31.269531 83.035156 31.390625 83.132812 31.46875 C 83.285156 31.5625 83.445312 31.636719 83.621094 31.6875 L 84.269531 31.902344 C 84.933594 32.089844 85.546875 32.425781 86.0625 32.878906 C 86.933594 33.769531 86.929688 35.195312 86.039062 36.070312 C 85.980469 36.128906 85.914062 36.191406 85.84375 36.242188 C 85.105469 36.726562 84.226562 36.953125 83.347656 36.894531 C 82.984375 36.890625 82.621094 36.851562 82.265625 36.785156 C 81.964844 36.726562 81.671875 36.640625 81.394531 36.515625 C 81.167969 36.417969 80.960938 36.265625 80.800781 36.082031 C 80.640625 35.902344 80.5625 35.667969 80.582031 35.429688 C 80.570312 35.191406 80.648438 34.964844 80.800781 34.78125 C 80.960938 34.617188 81.070312 34.453125 81.289062 34.398438 C 81.5625 34.585938 81.851562 34.746094 82.15625 34.886719 C 82.496094 35.046875 82.867188 35.117188 83.242188 35.105469 C 83.550781 35.148438 83.859375 35.074219 84.109375 34.886719 C 84.265625 34.796875 84.367188 34.632812 84.378906 34.453125 C 84.402344 34.292969 84.308594 34.140625 84.164062 34.074219 C 83.996094 33.960938 83.808594 33.875 83.621094 33.804688 Z M 83.1875 33.695312 "/>
<path style=" stroke:none;fill-rule:nonzero;fill:rgb(100%,100%,100%);fill-opacity:1;" d="M 91.050781 37.003906 C 90.589844 37.019531 90.128906 36.945312 89.695312 36.785156 C 89.285156 36.667969 88.910156 36.445312 88.609375 36.136719 C 88.285156 35.832031 88.023438 35.464844 87.851562 35.050781 C 87.667969 34.566406 87.574219 34.050781 87.582031 33.53125 C 87.582031 33.03125 87.671875 32.535156 87.851562 32.066406 C 88.007812 31.691406 88.253906 31.355469 88.558594 31.089844 C 88.859375 30.828125 89.207031 30.628906 89.585938 30.492188 C 89.957031 30.386719 90.339844 30.332031 90.726562 30.332031 C 91.132812 30.316406 91.546875 30.390625 91.921875 30.546875 C 92.257812 30.671875 92.570312 30.855469 92.84375 31.089844 C 93.121094 31.316406 93.324219 31.617188 93.4375 31.957031 C 93.597656 32.300781 93.667969 32.667969 93.65625 33.042969 C 93.679688 33.28125 93.597656 33.515625 93.4375 33.695312 C 93.265625 33.867188 93.03125 33.964844 92.789062 33.964844 L 89.695312 34.453125 C 89.800781 34.726562 89.988281 34.957031 90.238281 35.105469 C 90.535156 35.269531 90.875 35.339844 91.214844 35.320312 C 91.539062 35.3125 91.871094 35.277344 92.191406 35.214844 C 92.453125 35.125 92.707031 35.019531 92.953125 34.886719 C 93.058594 34.996094 93.222656 35.105469 93.277344 35.269531 C 93.378906 35.410156 93.433594 35.582031 93.4375 35.757812 C 93.449219 36.125 93.234375 36.464844 92.898438 36.625 C 92.609375 36.777344 92.300781 36.867188 91.976562 36.894531 C 91.671875 36.953125 91.363281 36.988281 91.050781 37.003906 M 90.671875 31.957031 C 90.488281 31.964844 90.304688 32 90.128906 32.066406 C 89.984375 32.125 89.855469 32.21875 89.75 32.339844 C 89.648438 32.445312 89.570312 32.578125 89.535156 32.71875 C 89.488281 32.835938 89.46875 32.96875 89.480469 33.097656 L 91.648438 32.71875 C 91.628906 32.527344 91.53125 32.347656 91.378906 32.230469 C 91.1875 32.039062 90.933594 31.941406 90.671875 31.957031 "/>
<path style=" stroke:none;fill-rule:nonzero;fill:rgb(100%,100%,100%);fill-opacity:1;" d="M 98.105469 32.121094 C 97.902344 32.125 97.699219 32.164062 97.507812 32.230469 C 97.324219 32.300781 97.15625 32.410156 97.019531 32.554688 C 96.851562 32.667969 96.738281 32.84375 96.695312 33.042969 C 96.601562 33.265625 96.5625 33.511719 96.585938 33.75 C 96.5625 34.1875 96.722656 34.621094 97.019531 34.941406 C 97.3125 35.207031 97.707031 35.347656 98.105469 35.320312 C 98.328125 35.320312 98.542969 35.285156 98.757812 35.214844 C 98.929688 35.164062 99.09375 35.089844 99.242188 34.996094 C 99.386719 35.109375 99.511719 35.234375 99.625 35.375 C 99.710938 35.523438 99.75 35.695312 99.730469 35.863281 C 99.726562 36.199219 99.535156 36.515625 99.242188 36.679688 C 98.828125 36.902344 98.355469 36.992188 97.886719 36.949219 C 97.410156 36.972656 96.925781 36.894531 96.476562 36.730469 C 96.074219 36.589844 95.707031 36.375 95.390625 36.082031 C 95.078125 35.800781 94.839844 35.445312 94.6875 35.050781 C 94.507812 34.621094 94.414062 34.160156 94.414062 33.695312 C 94.414062 33.195312 94.507812 32.695312 94.6875 32.230469 C 94.84375 31.824219 95.105469 31.46875 95.445312 31.199219 C 95.757812 30.917969 96.128906 30.710938 96.53125 30.601562 C 96.945312 30.445312 97.390625 30.367188 97.832031 30.386719 C 98.328125 30.359375 98.816406 30.472656 99.242188 30.710938 C 99.554688 30.890625 99.738281 31.21875 99.730469 31.578125 C 99.726562 31.730469 99.695312 31.878906 99.625 32.011719 C 99.5625 32.160156 99.472656 32.289062 99.351562 32.390625 C 99.179688 32.34375 99.015625 32.269531 98.863281 32.175781 C 98.613281 32.125 98.359375 32.109375 98.105469 32.121094 "/>
<path style=" stroke:none;fill-rule:nonzero;fill:rgb(100%,100%,100%);fill-opacity:1;" d="M 102.988281 36.785156 C 102.878906 36.785156 102.769531 36.839844 102.609375 36.839844 C 102.445312 36.839844 102.226562 36.894531 102.066406 36.894531 C 101.902344 36.90625 101.734375 36.882812 101.578125 36.839844 C 101.429688 36.847656 101.292969 36.785156 101.195312 36.679688 C 101.082031 36.601562 101.007812 36.488281 100.980469 36.351562 C 100.910156 36.179688 100.871094 35.996094 100.871094 35.808594 L 100.871094 31.957031 C 100.871094 31.789062 100.902344 31.621094 100.980469 31.46875 C 101.039062 31.308594 101.152344 31.175781 101.304688 31.089844 C 101.457031 30.972656 101.621094 30.863281 101.792969 30.765625 C 102 30.667969 102.222656 30.597656 102.445312 30.546875 C 102.660156 30.492188 102.878906 30.4375 103.148438 30.386719 C 103.382812 30.339844 103.617188 30.324219 103.855469 30.332031 C 104.195312 30.316406 104.535156 30.386719 104.832031 30.546875 C 105.054688 30.730469 105.179688 31.015625 105.15625 31.308594 C 105.167969 31.421875 105.144531 31.53125 105.101562 31.632812 C 105.046875 31.742188 105.046875 31.851562 104.996094 31.957031 L 104.453125 31.957031 C 104.289062 31.957031 104.074219 32.011719 103.910156 32.011719 C 103.746094 32.011719 103.585938 32.066406 103.421875 32.121094 C 103.300781 32.175781 103.171875 32.214844 103.042969 32.230469 L 103.042969 36.785156 Z M 102.988281 36.785156 "/>
<path style=" stroke:none;fill-rule:nonzero;fill:rgb(100%,100%,100%);fill-opacity:1;" d="M 108.953125 37.003906 C 108.492188 37.019531 108.03125 36.945312 107.597656 36.785156 C 107.1875 36.667969 106.8125 36.445312 106.511719 36.136719 C 106.1875 35.832031 105.925781 35.464844 105.753906 35.050781 C 105.570312 34.566406 105.476562 34.050781 105.484375 33.53125 C 105.484375 33.03125 105.574219 32.535156 105.753906 32.066406 C 105.910156 31.691406 106.15625 31.355469 106.460938 31.089844 C 106.761719 30.828125 107.109375 30.628906 107.488281 30.492188 C 107.859375 30.386719 108.242188 30.332031 108.628906 30.332031 C 109.035156 30.316406 109.449219 30.390625 109.824219 30.546875 C 110.152344 30.683594 110.464844 30.867188 110.746094 31.089844 C 111.023438 31.316406 111.226562 31.617188 111.339844 31.957031 C 111.5 32.300781 111.570312 32.667969 111.558594 33.042969 C 111.582031 33.28125 111.5 33.515625 111.339844 33.695312 C 111.167969 33.867188 110.933594 33.964844 110.691406 33.964844 L 107.597656 34.453125 C 107.703125 34.726562 107.890625 34.957031 108.140625 35.105469 C 108.4375 35.269531 108.777344 35.339844 109.117188 35.320312 C 109.441406 35.3125 109.773438 35.277344 110.09375 35.214844 C 110.355469 35.125 110.609375 35.019531 110.855469 34.886719 C 110.960938 34.996094 111.125 35.105469 111.179688 35.269531 C 111.28125 35.410156 111.335938 35.582031 111.339844 35.757812 C 111.351562 36.125 111.136719 36.464844 110.800781 36.625 C 110.511719 36.777344 110.203125 36.867188 109.878906 36.894531 C 109.574219 36.960938 109.265625 36.992188 108.953125 37.003906 M 108.628906 31.957031 C 108.445312 31.964844 108.261719 32 108.085938 32.066406 C 107.941406 32.125 107.808594 32.21875 107.707031 32.339844 C 107.605469 32.445312 107.527344 32.578125 107.488281 32.71875 C 107.445312 32.835938 107.425781 32.96875 107.4375 33.097656 L 109.605469 32.71875 C 109.585938 32.527344 109.488281 32.347656 109.335938 32.230469 C 109.144531 32.039062 108.890625 31.941406 108.628906 31.957031 "/>
<path style=" stroke:none;fill-rule:nonzero;fill:rgb(100%,100%,100%);fill-opacity:1;" d="M 114.757812 34.671875 C 114.742188 34.859375 114.824219 35.046875 114.976562 35.160156 C 115.148438 35.277344 115.363281 35.332031 115.574219 35.320312 C 115.703125 35.332031 115.832031 35.3125 115.953125 35.269531 C 116.074219 35.269531 116.179688 35.230469 116.277344 35.160156 C 116.332031 35.269531 116.441406 35.375 116.496094 35.484375 C 116.542969 35.625 116.5625 35.773438 116.550781 35.917969 C 116.5625 36.234375 116.417969 36.535156 116.171875 36.730469 C 115.804688 36.992188 115.363281 37.105469 114.921875 37.058594 C 114.320312 37.105469 113.722656 36.933594 113.242188 36.570312 C 112.8125 36.121094 112.59375 35.507812 112.644531 34.886719 L 112.644531 29.410156 C 112.773438 29.390625 112.902344 29.355469 113.023438 29.300781 C 113.203125 29.257812 113.382812 29.234375 113.566406 29.246094 C 113.871094 29.21875 114.179688 29.292969 114.433594 29.464844 C 114.679688 29.660156 114.804688 29.96875 114.757812 30.277344 L 114.757812 31.089844 L 116.386719 31.089844 L 116.550781 31.414062 C 116.597656 31.574219 116.613281 31.742188 116.605469 31.902344 C 116.636719 32.144531 116.554688 32.382812 116.386719 32.554688 C 116.242188 32.691406 116.046875 32.765625 115.84375 32.773438 L 114.707031 32.773438 L 114.707031 34.671875 Z M 114.757812 34.671875 "/>
<path style=" stroke:none;fill-rule:nonzero;fill:rgb(100%,100%,100%);fill-opacity:1;" d="M 120.183594 30.386719 C 120.609375 30.378906 121.023438 30.4375 121.433594 30.546875 C 121.785156 30.625 122.117188 30.777344 122.410156 30.980469 C 122.664062 31.160156 122.871094 31.40625 123.003906 31.6875 C 123.167969 32.007812 123.238281 32.359375 123.222656 32.71875 L 123.222656 35.59375 C 123.226562 35.789062 123.167969 35.976562 123.058594 36.136719 C 122.941406 36.289062 122.792969 36.417969 122.625 36.515625 C 121.925781 36.878906 121.140625 37.046875 120.347656 37.003906 C 119.945312 37 119.550781 36.964844 119.152344 36.894531 C 118.828125 36.8125 118.519531 36.683594 118.230469 36.515625 C 117.980469 36.351562 117.777344 36.128906 117.632812 35.863281 C 117.484375 35.582031 117.40625 35.261719 117.417969 34.941406 C 117.386719 34.441406 117.5625 33.949219 117.90625 33.585938 C 118.355469 33.234375 118.902344 33.023438 119.480469 32.988281 L 121.105469 32.828125 L 121.105469 32.71875 C 121.128906 32.484375 120.992188 32.269531 120.78125 32.175781 C 120.488281 32.054688 120.171875 32 119.859375 32.011719 C 119.550781 32.019531 119.242188 32.054688 118.9375 32.121094 C 118.65625 32.171875 118.378906 32.261719 118.121094 32.390625 C 118.003906 32.3125 117.910156 32.195312 117.851562 32.066406 C 117.792969 31.910156 117.753906 31.746094 117.742188 31.578125 C 117.738281 31.382812 117.796875 31.195312 117.90625 31.035156 C 118.035156 30.882812 118.203125 30.769531 118.394531 30.710938 C 118.671875 30.601562 118.964844 30.527344 119.261719 30.492188 C 119.5625 30.402344 119.871094 30.363281 120.183594 30.386719 M 120.292969 35.429688 C 120.457031 35.441406 120.625 35.417969 120.78125 35.375 C 120.945312 35.320312 121.105469 35.320312 121.160156 35.269531 L 121.160156 34.238281 L 120.238281 34.292969 C 120.027344 34.285156 119.820312 34.34375 119.640625 34.453125 C 119.5 34.53125 119.417969 34.675781 119.425781 34.832031 C 119.414062 35.007812 119.5 35.171875 119.640625 35.269531 C 119.832031 35.398438 120.058594 35.457031 120.292969 35.429688 "/>
<path style=" stroke:none;fill-rule:nonzero;fill:rgb(100%,100%,100%);fill-opacity:1;" d="M 126.640625 36.785156 C 126.53125 36.785156 126.421875 36.839844 126.261719 36.839844 C 126.097656 36.839844 125.878906 36.894531 125.71875 36.894531 C 125.554688 36.90625 125.386719 36.882812 125.230469 36.839844 C 125.082031 36.847656 124.949219 36.785156 124.851562 36.679688 C 124.734375 36.601562 124.660156 36.488281 124.632812 36.351562 C 124.585938 36.179688 124.5625 35.996094 124.578125 35.808594 L 124.578125 31.957031 C 124.578125 31.789062 124.609375 31.621094 124.6875 31.46875 C 124.746094 31.308594 124.859375 31.175781 125.011719 31.089844 C 125.164062 30.972656 125.328125 30.863281 125.5 30.765625 C 125.707031 30.667969 125.929688 30.597656 126.152344 30.546875 C 126.367188 30.492188 126.585938 30.4375 126.855469 30.386719 C 127.089844 30.339844 127.324219 30.320312 127.5625 30.332031 C 127.902344 30.316406 128.242188 30.386719 128.539062 30.546875 C 128.761719 30.730469 128.886719 31.015625 128.863281 31.308594 C 128.875 31.421875 128.855469 31.53125 128.808594 31.632812 C 128.757812 31.742188 128.757812 31.851562 128.703125 31.957031 L 128.160156 31.957031 C 127.996094 31.957031 127.78125 32.011719 127.617188 32.011719 C 127.453125 32.011719 127.292969 32.066406 127.128906 32.121094 C 127.007812 32.175781 126.878906 32.214844 126.75 32.230469 L 126.75 36.785156 Z M 126.640625 36.785156 "/>
<path style=" stroke:none;fill-rule:nonzero;fill:rgb(100%,100%,100%);fill-opacity:1;" d="M 131.523438 27.292969 C 131.855469 27.265625 132.183594 27.363281 132.445312 27.5625 C 132.628906 27.707031 132.730469 27.925781 132.714844 28.160156 C 132.726562 28.355469 132.671875 28.546875 132.554688 28.703125 C 132.386719 28.886719 132.183594 29.035156 131.957031 29.136719 L 130.328125 30.003906 C 130.074219 30.011719 129.828125 29.890625 129.679688 29.679688 C 129.515625 29.523438 129.417969 29.3125 129.40625 29.082031 C 129.394531 28.96875 129.417969 28.859375 129.460938 28.757812 C 129.503906 28.632812 129.609375 28.53125 129.730469 28.488281 Z M 131.847656 36.785156 C 131.738281 36.785156 131.632812 36.839844 131.414062 36.839844 C 131.234375 36.882812 131.054688 36.90625 130.871094 36.894531 C 130.707031 36.90625 130.539062 36.882812 130.382812 36.839844 C 130.238281 36.847656 130.101562 36.785156 130.003906 36.679688 C 129.890625 36.601562 129.8125 36.488281 129.785156 36.351562 C 129.714844 36.179688 129.679688 35.996094 129.679688 35.808594 L 129.679688 30.601562 C 129.785156 30.601562 129.894531 30.546875 130.113281 30.546875 C 130.292969 30.503906 130.46875 30.484375 130.65625 30.492188 C 130.816406 30.484375 130.984375 30.503906 131.144531 30.546875 C 131.289062 30.542969 131.425781 30.601562 131.523438 30.710938 C 131.636719 30.785156 131.710938 30.902344 131.738281 31.035156 C 131.808594 31.210938 131.847656 31.394531 131.847656 31.578125 Z M 131.847656 36.785156 "/>
<path style=" stroke:none;fill-rule:nonzero;fill:rgb(100%,100%,100%);fill-opacity:1;" d="M 135.699219 30.386719 C 136.121094 30.378906 136.539062 30.4375 136.949219 30.546875 C 137.300781 30.625 137.632812 30.777344 137.925781 30.980469 C 138.179688 31.160156 138.386719 31.40625 138.519531 31.6875 C 138.683594 32.007812 138.753906 32.359375 138.738281 32.71875 L 138.738281 35.59375 C 138.742188 35.789062 138.683594 35.976562 138.574219 36.136719 C 138.457031 36.289062 138.308594 36.417969 138.140625 36.515625 C 137.441406 36.878906 136.65625 37.046875 135.863281 37.003906 C 135.460938 37 135.066406 36.964844 134.667969 36.894531 C 134.34375 36.8125 134.035156 36.683594 133.746094 36.515625 C 133.496094 36.351562 133.292969 36.128906 133.148438 35.863281 C 133 35.582031 132.921875 35.261719 132.933594 34.941406 C 132.902344 34.441406 133.078125 33.949219 133.421875 33.585938 C 133.871094 33.234375 134.417969 33.023438 134.996094 32.988281 L 136.621094 32.828125 L 136.621094 32.71875 C 136.644531 32.484375 136.507812 32.269531 136.296875 32.175781 C 136.003906 32.054688 135.6875 32 135.375 32.011719 C 135.066406 32.019531 134.757812 32.054688 134.453125 32.121094 C 134.171875 32.171875 133.894531 32.261719 133.636719 32.390625 C 133.519531 32.3125 133.425781 32.195312 133.367188 32.066406 C 133.308594 31.910156 133.269531 31.746094 133.257812 31.578125 C 133.253906 31.382812 133.3125 31.195312 133.421875 31.035156 C 133.550781 30.882812 133.71875 30.769531 133.910156 30.710938 C 134.1875 30.601562 134.480469 30.527344 134.777344 30.492188 C 135.074219 30.40625 135.386719 30.367188 135.699219 30.386719 M 135.808594 35.429688 C 135.972656 35.441406 136.140625 35.417969 136.296875 35.375 C 136.460938 35.320312 136.621094 35.320312 136.675781 35.269531 L 136.675781 34.238281 L 135.753906 34.292969 C 135.542969 34.285156 135.335938 34.34375 135.15625 34.453125 C 135.015625 34.53125 134.933594 34.675781 134.941406 34.832031 C 134.929688 35.007812 135.015625 35.171875 135.15625 35.269531 C 135.347656 35.398438 135.574219 35.457031 135.808594 35.429688 "/>
<path style=" stroke:none;fill-rule:nonzero;fill:rgb(100%,100%,100%);fill-opacity:1;" d="M 80.855469 44.382812 C 80.855469 43.882812 80.945312 43.382812 81.125 42.917969 C 81.261719 42.515625 81.503906 42.15625 81.828125 41.886719 C 82.117188 41.605469 82.476562 41.402344 82.859375 41.289062 C 83.285156 41.152344 83.722656 41.082031 84.164062 41.074219 C 84.324219 41.0625 84.492188 41.082031 84.652344 41.125 C 84.78125 41.152344 84.90625 41.191406 85.03125 41.234375 L 85.03125 39.171875 C 85.160156 39.15625 85.292969 39.121094 85.410156 39.066406 C 85.589844 39.023438 85.769531 39 85.953125 39.011719 C 86.117188 39 86.285156 39.023438 86.441406 39.066406 C 86.585938 39.058594 86.722656 39.121094 86.820312 39.226562 C 86.933594 39.304688 87.011719 39.417969 87.039062 39.554688 C 87.085938 39.726562 87.109375 39.910156 87.09375 40.097656 L 87.09375 46.171875 C 87.09375 46.566406 86.886719 46.9375 86.550781 47.148438 C 86.269531 47.34375 85.957031 47.488281 85.628906 47.582031 C 85.183594 47.703125 84.726562 47.757812 84.269531 47.746094 C 83.773438 47.761719 83.277344 47.683594 82.804688 47.527344 C 82.40625 47.386719 82.035156 47.171875 81.722656 46.878906 C 81.421875 46.589844 81.199219 46.238281 81.070312 45.847656 C 80.914062 45.375 80.835938 44.875 80.855469 44.382812 M 84.433594 42.808594 C 84.046875 42.769531 83.675781 42.910156 83.402344 43.1875 C 82.914062 43.902344 82.894531 44.835938 83.347656 45.574219 C 83.59375 45.851562 83.957031 45.992188 84.324219 45.953125 C 84.582031 45.988281 84.835938 45.90625 85.03125 45.738281 L 85.03125 42.917969 C 84.835938 42.847656 84.632812 42.808594 84.433594 42.808594 "/>
<path style=" stroke:none;fill-rule:nonzero;fill:rgb(100%,100%,100%);fill-opacity:1;" d="M 91.703125 47.691406 C 91.242188 47.707031 90.78125 47.632812 90.347656 47.472656 C 89.933594 47.355469 89.5625 47.132812 89.261719 46.824219 C 88.9375 46.519531 88.675781 46.148438 88.503906 45.738281 C 88.316406 45.253906 88.226562 44.738281 88.230469 44.21875 C 88.230469 43.71875 88.324219 43.21875 88.503906 42.753906 C 88.660156 42.378906 88.902344 42.042969 89.207031 41.777344 C 89.511719 41.515625 89.859375 41.316406 90.238281 41.179688 C 90.609375 41.074219 90.992188 41.019531 91.378906 41.019531 C 91.785156 41 92.195312 41.078125 92.570312 41.234375 C 92.90625 41.359375 93.222656 41.542969 93.492188 41.777344 C 93.769531 42.003906 93.976562 42.304688 94.089844 42.644531 C 94.246094 42.988281 94.316406 43.355469 94.308594 43.730469 C 94.328125 43.96875 94.246094 44.203125 94.089844 44.382812 C 93.917969 44.554688 93.683594 44.652344 93.4375 44.652344 L 90.347656 45.140625 C 90.449219 45.414062 90.640625 45.644531 90.890625 45.792969 C 91.1875 45.953125 91.523438 46.023438 91.867188 46.007812 C 92.191406 46 92.523438 45.964844 92.84375 45.902344 C 93.101562 45.8125 93.359375 45.707031 93.601562 45.574219 C 93.710938 45.683594 93.875 45.792969 93.925781 45.953125 C 94.03125 46.097656 94.085938 46.269531 94.089844 46.441406 C 94.101562 46.8125 93.882812 47.152344 93.546875 47.3125 C 93.261719 47.464844 92.953125 47.554688 92.625 47.582031 C 92.328125 47.667969 92.011719 47.703125 91.703125 47.691406 M 91.324219 42.699219 C 91.140625 42.707031 90.953125 42.742188 90.78125 42.808594 C 90.632812 42.867188 90.503906 42.960938 90.402344 43.078125 C 90.296875 43.1875 90.222656 43.316406 90.183594 43.460938 C 90.140625 43.578125 90.121094 43.707031 90.128906 43.839844 L 92.300781 43.460938 C 92.277344 43.269531 92.179688 43.089844 92.027344 42.972656 C 91.855469 42.765625 91.589844 42.660156 91.324219 42.699219 "/>
<path style=" stroke:none;fill-rule:nonzero;fill:rgb(100%,100%,100%);fill-opacity:1;" d="M 100.21875 44.4375 C 99.839844 44.328125 99.515625 44.164062 99.191406 44.054688 C 98.902344 43.957031 98.636719 43.789062 98.429688 43.566406 C 98.222656 43.390625 98.054688 43.167969 97.941406 42.917969 C 97.828125 42.601562 97.769531 42.269531 97.78125 41.941406 C 97.761719 41.269531 98.0625 40.621094 98.59375 40.203125 C 99.253906 39.730469 100.058594 39.503906 100.871094 39.554688 C 101.21875 39.542969 101.5625 39.558594 101.902344 39.609375 C 102.183594 39.640625 102.457031 39.714844 102.714844 39.824219 C 102.933594 39.921875 103.117188 40.070312 103.257812 40.257812 C 103.367188 40.4375 103.425781 40.644531 103.421875 40.855469 C 103.433594 41.050781 103.378906 41.242188 103.257812 41.398438 C 103.160156 41.550781 103.03125 41.679688 102.878906 41.777344 C 102.640625 41.640625 102.386719 41.527344 102.121094 41.453125 C 101.78125 41.359375 101.4375 41.320312 101.089844 41.34375 C 100.804688 41.320312 100.523438 41.375 100.273438 41.507812 C 100.113281 41.613281 100.003906 41.722656 100.003906 41.886719 C 100.007812 42.011719 100.070312 42.128906 100.167969 42.210938 C 100.316406 42.304688 100.480469 42.378906 100.65625 42.429688 L 101.304688 42.644531 C 101.960938 42.847656 102.574219 43.175781 103.097656 43.621094 C 103.96875 44.511719 103.964844 45.9375 103.074219 46.8125 C 103.015625 46.871094 102.949219 46.929688 102.878906 46.984375 C 102.140625 47.46875 101.261719 47.695312 100.382812 47.636719 C 100.019531 47.632812 99.65625 47.59375 99.296875 47.527344 C 99 47.46875 98.707031 47.382812 98.429688 47.257812 C 98.203125 47.160156 97.996094 47.007812 97.832031 46.824219 C 97.675781 46.644531 97.59375 46.410156 97.617188 46.171875 C 97.605469 45.933594 97.683594 45.707031 97.832031 45.519531 C 97.996094 45.359375 98.105469 45.195312 98.320312 45.140625 C 98.597656 45.324219 98.886719 45.488281 99.191406 45.628906 C 99.53125 45.785156 99.902344 45.855469 100.273438 45.847656 C 100.585938 45.890625 100.894531 45.8125 101.144531 45.628906 C 101.300781 45.535156 101.402344 45.375 101.414062 45.195312 C 101.4375 45.03125 101.34375 44.878906 101.195312 44.816406 C 101.027344 44.703125 100.84375 44.613281 100.65625 44.542969 Z M 100.21875 44.4375 "/>
<path style=" stroke:none;fill-rule:nonzero;fill:rgb(100%,100%,100%);fill-opacity:1;" d="M 107.4375 41.125 C 107.859375 41.121094 108.277344 41.179688 108.683594 41.289062 C 109.035156 41.367188 109.367188 41.515625 109.660156 41.722656 C 109.914062 41.902344 110.121094 42.144531 110.257812 42.429688 C 110.417969 42.75 110.488281 43.101562 110.472656 43.460938 L 110.472656 46.335938 C 110.480469 46.53125 110.417969 46.71875 110.3125 46.878906 C 110.191406 47.027344 110.046875 47.160156 109.878906 47.257812 C 109.175781 47.621094 108.390625 47.789062 107.597656 47.746094 C 107.195312 47.738281 106.800781 47.707031 106.40625 47.636719 C 106.078125 47.554688 105.769531 47.425781 105.484375 47.257812 C 105.234375 47.09375 105.027344 46.871094 104.886719 46.605469 C 104.734375 46.324219 104.660156 46.003906 104.667969 45.683594 C 104.636719 45.183594 104.816406 44.691406 105.15625 44.328125 C 105.609375 43.976562 106.15625 43.761719 106.730469 43.730469 L 108.359375 43.566406 L 108.359375 43.460938 C 108.378906 43.226562 108.242188 43.007812 108.03125 42.917969 C 107.738281 42.796875 107.425781 42.742188 107.109375 42.753906 C 106.800781 42.757812 106.492188 42.796875 106.1875 42.863281 C 105.90625 42.910156 105.628906 43.003906 105.375 43.132812 C 105.253906 43.050781 105.164062 42.9375 105.101562 42.808594 C 105.042969 42.652344 105.003906 42.488281 104.996094 42.320312 C 104.988281 42.125 105.046875 41.933594 105.15625 41.777344 C 105.289062 41.625 105.457031 41.511719 105.644531 41.453125 C 105.921875 41.34375 106.214844 41.269531 106.511719 41.234375 C 106.8125 41.144531 107.121094 41.105469 107.4375 41.125 M 107.542969 46.117188 C 107.707031 46.128906 107.875 46.105469 108.03125 46.0625 C 108.195312 46.007812 108.359375 46.007812 108.414062 45.953125 L 108.414062 44.925781 L 107.488281 44.976562 C 107.277344 44.972656 107.074219 45.03125 106.894531 45.140625 C 106.753906 45.21875 106.671875 45.363281 106.675781 45.519531 C 106.664062 45.695312 106.753906 45.855469 106.894531 45.953125 C 107.082031 46.085938 107.3125 46.144531 107.542969 46.117188 "/>
<path style=" stroke:none;fill-rule:nonzero;fill:rgb(100%,100%,100%);fill-opacity:1;" d="M 113.890625 47.472656 C 113.78125 47.472656 113.675781 47.527344 113.457031 47.527344 C 113.277344 47.570312 113.097656 47.59375 112.914062 47.582031 C 112.753906 47.59375 112.585938 47.570312 112.425781 47.527344 C 112.28125 47.535156 112.144531 47.472656 112.046875 47.367188 C 111.933594 47.289062 111.855469 47.175781 111.828125 47.039062 C 111.78125 46.867188 111.757812 46.683594 111.777344 46.496094 L 111.777344 39.066406 C 111.882812 39.066406 111.992188 39.011719 112.210938 39.011719 C 112.390625 38.96875 112.566406 38.945312 112.753906 38.957031 C 112.914062 38.945312 113.082031 38.96875 113.242188 39.011719 C 113.386719 39.003906 113.523438 39.066406 113.621094 39.171875 C 113.734375 39.25 113.808594 39.363281 113.835938 39.5 C 113.90625 39.671875 113.945312 39.855469 113.945312 40.042969 L 113.945312 47.472656 Z M 113.890625 47.472656 "/>
<path style=" stroke:none;fill-rule:nonzero;fill:rgb(100%,100%,100%);fill-opacity:1;" d="M 115.246094 41.398438 C 115.355469 41.398438 115.464844 41.34375 115.628906 41.34375 C 115.789062 41.34375 116.007812 41.289062 116.171875 41.289062 C 116.332031 41.277344 116.5 41.300781 116.660156 41.34375 C 116.804688 41.339844 116.941406 41.398438 117.039062 41.507812 C 117.152344 41.582031 117.226562 41.695312 117.253906 41.832031 C 117.304688 42.003906 117.324219 42.191406 117.308594 42.375 L 117.308594 45.140625 C 117.296875 45.417969 117.394531 45.6875 117.582031 45.902344 C 117.78125 46.058594 118.03125 46.140625 118.285156 46.117188 C 118.449219 46.128906 118.617188 46.113281 118.773438 46.0625 C 118.882812 46.007812 118.992188 46.007812 119.046875 45.953125 L 119.046875 41.398438 C 119.152344 41.398438 119.261719 41.34375 119.425781 41.34375 C 119.585938 41.34375 119.804688 41.289062 119.96875 41.289062 C 120.128906 41.277344 120.296875 41.300781 120.457031 41.34375 C 120.601562 41.339844 120.738281 41.398438 120.835938 41.507812 C 120.949219 41.582031 121.023438 41.695312 121.050781 41.832031 C 121.121094 42.003906 121.160156 42.191406 121.160156 42.375 L 121.160156 46.28125 C 121.1875 46.683594 120.976562 47.066406 120.617188 47.257812 C 120.292969 47.441406 119.945312 47.585938 119.585938 47.691406 C 119.164062 47.800781 118.726562 47.859375 118.285156 47.855469 C 117.863281 47.859375 117.445312 47.800781 117.039062 47.691406 C 116.683594 47.59375 116.347656 47.429688 116.0625 47.203125 C 115.789062 46.980469 115.566406 46.703125 115.410156 46.390625 C 115.246094 45.992188 115.171875 45.570312 115.195312 45.140625 L 115.195312 41.398438 Z M 115.246094 41.398438 "/>
<path style=" stroke:none;fill-rule:nonzero;fill:rgb(100%,100%,100%);fill-opacity:1;" d="M 122.300781 44.382812 C 122.300781 43.882812 122.390625 43.382812 122.570312 42.917969 C 122.707031 42.515625 122.953125 42.15625 123.277344 41.886719 C 123.5625 41.605469 123.921875 41.402344 124.308594 41.289062 C 124.730469 41.152344 125.171875 41.082031 125.609375 41.074219 C 125.773438 41.0625 125.941406 41.082031 126.097656 41.125 C 126.226562 41.152344 126.351562 41.191406 126.476562 41.234375 L 126.476562 39.171875 C 126.609375 39.15625 126.738281 39.121094 126.855469 39.066406 C 127.035156 39.023438 127.214844 39 127.398438 39.011719 C 127.5625 39 127.730469 39.023438 127.886719 39.066406 C 128.035156 39.058594 128.171875 39.121094 128.269531 39.226562 C 128.382812 39.304688 128.457031 39.417969 128.484375 39.554688 C 128.535156 39.726562 128.554688 39.910156 128.539062 40.097656 L 128.539062 46.171875 C 128.539062 46.566406 128.332031 46.9375 127.996094 47.148438 C 127.714844 47.34375 127.40625 47.488281 127.074219 47.582031 C 126.628906 47.703125 126.171875 47.757812 125.71875 47.746094 C 125.21875 47.761719 124.726562 47.683594 124.253906 47.527344 C 123.851562 47.386719 123.484375 47.171875 123.167969 46.878906 C 122.871094 46.589844 122.648438 46.238281 122.515625 45.847656 C 122.386719 45.363281 122.3125 44.875 122.300781 44.382812 M 125.878906 42.808594 C 125.496094 42.769531 125.121094 42.910156 124.851562 43.1875 C 124.363281 43.902344 124.339844 44.835938 124.796875 45.574219 C 125.039062 45.851562 125.402344 45.992188 125.773438 45.953125 C 126.027344 45.988281 126.28125 45.90625 126.476562 45.738281 L 126.476562 42.917969 C 126.28125 42.847656 126.082031 42.808594 125.878906 42.808594 "/>
</g>
</svg>
