<svg class="logo-veda" xmlns="http://www.w3.org/2000/svg" viewBox="0 0 333.01 53.13"><path fill="currentColor" d="M31.67 28.77a4.16 4.16 0 01-.61 2.51 6.09 6.09 0 01-1.91 1.59 13.09 13.09 0 01-1.91.85 21.69 21.69 0 01-2.52.71 28.91 28.91 0 01-5.85.63A24.8 24.8 0 0111.49 34a16.58 16.58 0 01-6-3.23 15.19 15.19 0 01-4-5.38A17.77 17.77 0 010 17.88a17.9 17.9 0 011.61-7.82 16.56 16.56 0 014.27-5.55A18 18 0 0112 1.2a22.9 22.9 0 017-1.09 17.18 17.18 0 018.23 1.67q3 1.67 3 4.35a4.24 4.24 0 01-.71 2.46 5.82 5.82 0 01-1.64 1.64 22.1 22.1 0 00-3.42-1.62 12.86 12.86 0 00-4.62-.79 10.05 10.05 0 00-7.3 2.63 9.67 9.67 0 00-2.71 7.27 11.64 11.64 0 00.74 4.35 8.44 8.44 0 002 3 8.25 8.25 0 002.9 1.75 10.57 10.57 0 003.5.57 9.12 9.12 0 002.13-.22 5.47 5.47 0 001.42-.49v-5.13h-5.84a8.46 8.46 0 01-.63-1.55 7.07 7.07 0 01-.3-2.08 3.82 3.82 0 01.9-2.84 3.22 3.22 0 012.35-.91h9.24a3.44 3.44 0 012.54.9 3.4 3.4 0 01.91 2.54zM67.32 21.93a13.8 13.8 0 01-1 5.39 11.46 11.46 0 01-2.92 4.16 13.4 13.4 0 01-4.65 2.65 19.19 19.19 0 01-6.18.93 19.11 19.11 0 01-6.18-.93 13.22 13.22 0 01-4.65-2.65 11.48 11.48 0 01-2.93-4.16 14 14 0 01-1-5.39V1l1.92-.3a17 17 0 012.49-.15 11.27 11.27 0 012.22.19 4 4 0 011.61.68 2.9 2.9 0 011 1.37 6.63 6.63 0 01.33 2.3v16.68a5.59 5.59 0 001.45 4.1 5.52 5.52 0 007.52 0 5.66 5.66 0 001.42-4.1V1l1.92-.3a17 17 0 012.49-.15 11.27 11.27 0 012.22.19 3.93 3.93 0 011.6.68 3 3 0 011 1.37 6.91 6.91 0 01.32 2.3zM80.89 2a11.92 11.92 0 012.81-1 15.42 15.42 0 013.8-.51 13.7 13.7 0 014.85.8 4.18 4.18 0 012.7 2.48q1 2.85 2.14 6.62c.76 2.52 1.53 5.11 2.29 7.8s1.52 5.32 2.24 7.93 1.37 4.88 1.92 6.88a4.48 4.48 0 01-2 1.23 10.84 10.84 0 01-5.33.25 3.89 3.89 0 01-1.48-.66 3.29 3.29 0 01-.93-1.14 9.69 9.69 0 01-.63-1.64l-1-3.78h-9.9c-.29 1.09-.59 2.23-.88 3.39S81 33 80.67 34.07a15.13 15.13 0 01-1.61.47 9.38 9.38 0 01-2.06.19 7.1 7.1 0 01-4.12-1 3.06 3.06 0 01-1.34-2.65 5.76 5.76 0 01.21-1.53c.15-.51.31-1.11.5-1.81.25-1 .61-2.2 1.06-3.66s1-3 1.51-4.73S76 16 76.57 14.17s1.2-3.48 1.75-5.06 1-3 1.5-4.24.81-2.19 1.07-2.87zm6.56 7.06q-.77 2.3-1.72 5.11T84 19.91h6.79q-.77-3-1.56-5.77t-1.45-5.06zM138.15 33a5 5 0 01-2.22 1.18 13 13 0 01-3.47.41 12.09 12.09 0 01-3.83-.6 5.32 5.32 0 01-2.95-2.9l-5.42-11c-.54-1.13-1-2.19-1.47-3.2s-.91-2.16-1.42-3.47h-.33c.14 2 .23 4 .24 6s0 4.05 0 6V34a15 15 0 01-1.83.33 18.28 18.28 0 01-2.43.17 12.29 12.29 0 01-2.14-.17 3.34 3.34 0 01-1.53-.65 3.23 3.23 0 01-.93-1.34 6.26 6.26 0 01-.33-2.22V2.73a4.69 4.69 0 012.35-1.64 10.49 10.49 0 013.4-.54 11.77 11.77 0 013.85.63 5.22 5.22 0 012.93 2.87l5.47 11c.54 1.14 1 2.2 1.47 3.2s.91 2.16 1.43 3.48l.27-.06q-.22-3-.27-5.9T129 9.9V1a15 15 0 011.83-.33 18.29 18.29 0 012.44-.16 6.61 6.61 0 013.66.84c.84.57 1.26 1.75 1.26 3.53zM152.31 2a11.85 11.85 0 012.82-1 15.35 15.35 0 013.8-.49 13.64 13.64 0 014.84.8 4.19 4.19 0 012.71 2.48c.65 1.9 1.37 4.11 2.13 6.62s1.53 5.11 2.3 7.8 1.51 5.32 2.24 7.93 1.37 4.86 1.91 6.86a4.38 4.38 0 01-2 1.23 10.88 10.88 0 01-5.34.25 3.84 3.84 0 01-1.47-.66 3.08 3.08 0 01-.93-1.14 9.69 9.69 0 01-.63-1.64l-1-3.78h-9.9c-.29 1.09-.58 2.23-.87 3.39s-.58 2.3-.88 3.39a14.47 14.47 0 01-1.61.47 9.29 9.29 0 01-2 .19 7.13 7.13 0 01-4.13-1 3.09 3.09 0 01-1.3-2.58 5.39 5.39 0 01.22-1.53c.15-.51.31-1.11.49-1.81.26-1 .61-2.2 1.07-3.66s1-3 1.5-4.73 1.09-3.39 1.72-5.22 1.21-3.48 1.75-5.06 1-3 1.51-4.24.8-2.19 1.05-2.87zm6.57 7.06q-.76 2.3-1.73 5.11t-1.72 5.72h6.78q-.77-3-1.56-5.77t-1.45-5.04zM186.28 1l1.91-.3a17 17 0 012.52-.19 11.24 11.24 0 012.21.19 3.87 3.87 0 011.61.68 3 3 0 011 1.37 6.63 6.63 0 01.33 2.3v20.27q0 4.88-2.79 7.3t-8.21 2.44a10.23 10.23 0 01-4.59-.88 3.94 3.94 0 01-1.83-1.64 4.68 4.68 0 01-.58-2.35 5.51 5.51 0 01.3-1.91 4.12 4.12 0 01.74-1.32 16.5 16.5 0 001.78.3 13.34 13.34 0 001.61.09 3.88 3.88 0 003.07-1.07 4.66 4.66 0 00.93-3.15zM232.16 21.93a14 14 0 01-1 5.39 11.48 11.48 0 01-2.93 4.16 13.22 13.22 0 01-4.65 2.65 21 21 0 01-12.36 0 13.26 13.26 0 01-4.64-2.65 11.36 11.36 0 01-2.93-4.16 13.8 13.8 0 01-1-5.39V1l1.91-.3a17.23 17.23 0 012.52-.19 11.17 11.17 0 012.21.19 4 4 0 011.62.68 3 3 0 011 1.37 6.63 6.63 0 01.33 2.3v16.72a5.59 5.59 0 001.45 4.1 5.52 5.52 0 007.52 0 5.66 5.66 0 001.42-4.1V1l1.91-.3A17.23 17.23 0 01227 .55a11.1 11.1 0 012.21.19 4 4 0 011.62.68 3 3 0 011 1.37 6.63 6.63 0 01.33 2.3zM245.72 2a11.85 11.85 0 012.82-1 15.35 15.35 0 013.8-.49 13.64 13.64 0 014.84.8 4.19 4.19 0 012.71 2.48q1 2.85 2.13 6.62c.77 2.52 1.53 5.11 2.3 7.8s1.51 5.32 2.24 7.93 1.37 4.86 1.92 6.86a4.48 4.48 0 01-2 1.23 10.88 10.88 0 01-5.34.25 3.84 3.84 0 01-1.47-.66 3.08 3.08 0 01-.93-1.14 9.69 9.69 0 01-.63-1.64l-1-3.78h-9.89c-.3 1.09-.59 2.23-.88 3.39s-.58 2.3-.87 3.39a15.32 15.32 0 01-1.62.47 9.29 9.29 0 01-2 .19 7.13 7.13 0 01-4.13-1 3.09 3.09 0 01-1.34-2.65 5.39 5.39 0 01.22-1.53c.15-.51.31-1.11.49-1.81.26-1 .61-2.2 1.07-3.66s1-3 1.5-4.73 1.13-3.44 1.75-5.22 1.21-3.48 1.75-5.06 1-3 1.51-4.24.8-2.12 1.05-2.8zm6.57 7.06q-.76 2.3-1.73 5.11c-.63 1.88-1.21 3.79-1.72 5.72h6.78q-.76-3-1.56-5.77c-.52-1.88-1-3.57-1.45-5.06zM269.52 8.7a7.12 7.12 0 01-.72-1.64 7.58 7.58 0 01-.32-2.19 4.17 4.17 0 01.95-3.07 3.46 3.46 0 012.49-.92h23.85a7.2 7.2 0 01.71 1.64 7.15 7.15 0 01.33 2.18 4.14 4.14 0 01-1 3.07 3.43 3.43 0 01-2.49.93h-6.07V34a15 15 0 01-1.89.33 19.82 19.82 0 01-2.54.17 11 11 0 01-2.21-.2 3.84 3.84 0 01-1.62-.68 2.92 2.92 0 01-1-1.37 6.57 6.57 0 01-.33-2.29V8.7zM298.39 17.56a19.91 19.91 0 011.34-7.56 15.75 15.75 0 013.67-5.5 15.55 15.55 0 015.47-3.36 20.71 20.71 0 0113.61 0A15.86 15.86 0 01328 4.51a15.4 15.4 0 013.69 5.5 19.71 19.71 0 011.31 7.55 20.29 20.29 0 01-1.31 7.57 15.12 15.12 0 01-3.64 5.52 15.57 15.57 0 01-5.48 3.35 20.29 20.29 0 01-6.89 1.15 19.84 19.84 0 01-6.9-1.18 15.37 15.37 0 01-5.47-3.42 15.65 15.65 0 01-3.6-5.52 20 20 0 01-1.32-7.47zm9.85 0q0 5 2 7.43a6.66 6.66 0 005.42 2.47 6.73 6.73 0 005.49-2.46c1.34-1.64 2-4.12 2-7.43s-.67-5.75-2-7.39a6.62 6.62 0 00-5.44-2.46 6.75 6.75 0 00-5.44 2.44q-2.03 2.42-2.03 7.4zM18.64 50.89a1.33 1.33 0 01-.19.8 1.8 1.8 0 01-.59.51 4.37 4.37 0 01-.6.27 4.82 4.82 0 01-.78.23c-.28.06-.58.11-.89.15s-.62 0-.93 0a7.42 7.42 0 01-2.29-.34 5.28 5.28 0 01-1.86-1 4.91 4.91 0 01-1.25-1.71 6.5 6.5 0 010-4.9 5.29 5.29 0 011.33-1.77 5.38 5.38 0 011.88-1.06 6.78 6.78 0 012.19-.35 5.23 5.23 0 012.55.53 1.59 1.59 0 01.95 1.39 1.44 1.44 0 01-.22.79 2 2 0 01-.51.53 7 7 0 00-1.06-.52 3.89 3.89 0 00-1.37-.25 3.07 3.07 0 00-2.3.81 3.11 3.11 0 00-.84 2.32 3.85 3.85 0 00.23 1.39 2.57 2.57 0 00.62 1 2.63 2.63 0 00.9.56 3.24 3.24 0 001.09.18 2.62 2.62 0 00.66-.07 1.8 1.8 0 00.44-.16v-1.64H14a3.5 3.5 0 01-.19-.51 2.39 2.39 0 01-.09-.66 1.22 1.22 0 01.28-.91.94.94 0 01.72-.28h2.87a1.06 1.06 0 01.79.28 1.13 1.13 0 01.28.82zM28.92 48.37a5.5 5.5 0 01-.32 1.93 4 4 0 01-.91 1.43 3.81 3.81 0 01-1.4.87 5.26 5.26 0 01-1.82.3 5 5 0 01-1.82-.31 3.9 3.9 0 01-1.4-.91 3.94 3.94 0 01-.91-1.42 5.13 5.13 0 01-.34-1.89 5.06 5.06 0 01.32-1.87 3.91 3.91 0 012.31-2.33 5 5 0 011.82-.32 4.83 4.83 0 011.82.33 4 4 0 011.4.91 4.08 4.08 0 01.91 1.42 5.26 5.26 0 01.34 1.86zm-6 0a2.84 2.84 0 00.4 1.63 1.29 1.29 0 001.11.57 1.24 1.24 0 001.1-.57 3 3 0 00.47-1.63 2.85 2.85 0 00-.39-1.62 1.36 1.36 0 00-2.21 0 2.85 2.85 0 00-.4 1.62zM30.36 41.23c.12 0 .3-.07.55-.12a4.77 4.77 0 01.76-.06 3.4 3.4 0 01.67.06 1 1 0 01.5.21.89.89 0 01.31.42 2 2 0 01.1.71v1.72a3.93 3.93 0 01.81-.25 5.28 5.28 0 01.84-.07 4.07 4.07 0 011.55.3 4 4 0 011.29.87 4.17 4.17 0 01.88 1.41 5.48 5.48 0 01.32 1.94 5.4 5.4 0 01-.33 2 3.8 3.8 0 01-.92 1.41 3.85 3.85 0 01-1.46.85 6 6 0 01-1.89.29 5.83 5.83 0 01-1.9-.27 5 5 0 01-1.33-.65 1.67 1.67 0 01-.75-1.4zm4 9.33a1.45 1.45 0 001.19-.56 2.58 2.58 0 00.45-1.63 2.54 2.54 0 00-.45-1.65 1.44 1.44 0 00-1.18-.54 2 2 0 00-.59.07 4.23 4.23 0 00-.54.21v3.82a2.34 2.34 0 00.45.2 2.48 2.48 0 00.65.08zM40.29 41.75a1.57 1.57 0 01.43-1.12 1.68 1.68 0 012.29 0 1.58 1.58 0 01.44 1.12 1.55 1.55 0 01-.45 1.12 1.66 1.66 0 01-2.29 0 1.54 1.54 0 01-.42-1.12zm3 10.85l-.55.1a4.62 4.62 0 01-.74.06 4.36 4.36 0 01-.67 0 1.2 1.2 0 01-.5-.21 1.08 1.08 0 01-.32-.43 2 2 0 01-.11-.71v-7.17l.55-.1a4.62 4.62 0 01.74-.06 4.36 4.36 0 01.67.05 1.2 1.2 0 01.5.21 1.08 1.08 0 01.32.43 2 2 0 01.11.71zM49.51 52.9a5.85 5.85 0 01-1.86-.29 4.16 4.16 0 01-1.49-.86 4.06 4.06 0 01-1-1.46 5.31 5.31 0 01-.36-2 5 5 0 01.36-2 4.21 4.21 0 011-1.37 3.93 3.93 0 011.36-.78 4.92 4.92 0 011.48-.29 4.72 4.72 0 011.63.28 4.08 4.08 0 011.37.77 3.41 3.41 0 01.83 1.18 3.63 3.63 0 01.3 1.48 1.23 1.23 0 01-.32.91 1.64 1.64 0 01-.9.41l-4.2.64a1.42 1.42 0 00.76.87 3 3 0 001.33.29 4.78 4.78 0 001.32-.18 4.63 4.63 0 001-.43 1.45 1.45 0 01.46.49 1.31 1.31 0 01.18.66 1.24 1.24 0 01-.76 1.17 3.66 3.66 0 01-1.22.41 8.44 8.44 0 01-1.27.1zM49 46a1.7 1.7 0 00-.71.14 1.51 1.51 0 00-.48.36 1.42 1.42 0 00-.28.49 1.79 1.79 0 00-.11.55l2.9-.49a1.37 1.37 0 00-.37-.7A1.26 1.26 0 0049 46zM57.36 52.6a3.5 3.5 0 01-.54.11 6 6 0 01-.75 0 4.47 4.47 0 01-.67 0 1.2 1.2 0 01-.5-.21 1.08 1.08 0 01-.32-.43 2 2 0 01-.11-.71v-5.25a1.47 1.47 0 01.15-.69 1.55 1.55 0 01.38-.52 3.06 3.06 0 01.67-.41 6.68 6.68 0 01.86-.32 6 6 0 01.95-.22 6.61 6.61 0 011-.08 2.32 2.32 0 011.29.32 1.18 1.18 0 01.47 1.06 1.86 1.86 0 01-.06.48 3 3 0 01-.17.43 6.06 6.06 0 00-.73 0c-.25 0-.5.06-.73.1l-.68.15a3 3 0 00-.53.19zM66.52 47.23a1 1 0 00-.3-.8 1.26 1.26 0 00-.81-.25 2.57 2.57 0 00-.67.09 1.66 1.66 0 00-.57.26v6.07a3.59 3.59 0 01-.53.11 6.33 6.33 0 01-.76 0 4.47 4.47 0 01-.67 0 1.26 1.26 0 01-.5-.21 1 1 0 01-.31-.43 1.79 1.79 0 01-.11-.71v-5.25a1.4 1.4 0 01.19-.77 2 2 0 01.52-.54 4.54 4.54 0 011.45-.68 6.54 6.54 0 011.94-.27 4.49 4.49 0 013 .87 3 3 0 011 2.41v5.47a4.12 4.12 0 01-.54.11 6 6 0 01-.75 0 4.61 4.61 0 01-.68 0 1.33 1.33 0 01-.5-.21 1.06 1.06 0 01-.31-.43 1.79 1.79 0 01-.11-.71zM79.74 48.37a5.28 5.28 0 01-.33 1.93 3.9 3.9 0 01-.91 1.43 3.73 3.73 0 01-1.4.87 5.22 5.22 0 01-1.82.3 5 5 0 01-1.81-.31 3.91 3.91 0 01-2.31-2.33 5.13 5.13 0 01-.33-1.89 5.06 5.06 0 01.33-1.87 4 4 0 01.9-1.43 4.06 4.06 0 011.41-.9 5 5 0 011.81-.32 4.8 4.8 0 011.82.33 4 4 0 012.31 2.33 5 5 0 01.33 1.86zm-5.95 0a2.76 2.76 0 00.4 1.63 1.28 1.28 0 001.11.57 1.25 1.25 0 001.1-.57 3 3 0 00.38-1.63 2.85 2.85 0 00-.39-1.62 1.36 1.36 0 00-2.21 0 2.85 2.85 0 00-.39 1.62zM84.19 48.37a5.36 5.36 0 01.34-2 3.79 3.79 0 012.35-2.24 5.47 5.47 0 011.74-.27 3.52 3.52 0 01.66.06 3.19 3.19 0 01.53.15v-2.84a4.78 4.78 0 01.54-.12 4.9 4.9 0 01.77-.06 3.4 3.4 0 01.67.06 1 1 0 01.5.21.89.89 0 01.31.42 2 2 0 01.1.71v8.3a1.5 1.5 0 01-.7 1.31 5.2 5.2 0 01-1.27.59 6.54 6.54 0 01-3.78-.06 3.87 3.87 0 01-2.4-2.34 5.26 5.26 0 01-.36-1.88zM89 46.18a1.82 1.82 0 00-1.41.54 2.38 2.38 0 00-.49 1.65 2.46 2.46 0 00.47 1.63 1.62 1.62 0 001.32.56 1.64 1.64 0 00.56-.1 1.23 1.23 0 00.38-.22v-3.85a1.54 1.54 0 00-.83-.21zM98.87 52.9a5.85 5.85 0 01-1.87-.29 4.21 4.21 0 01-1.5-.86 4 4 0 01-1-1.46 5.12 5.12 0 01-.37-2 4.81 4.81 0 01.37-2 3.93 3.93 0 011-1.37 3.84 3.84 0 011.36-.78 4.91 4.91 0 011.56-.26 4.74 4.74 0 011.64.28 4 4 0 011.27.77 3.44 3.44 0 01.84 1.18 3.79 3.79 0 01.29 1.48 1.19 1.19 0 01-.32.91 1.58 1.58 0 01-.9.41l-4.2.64a1.44 1.44 0 00.77.87 3 3 0 001.32.29 4.56 4.56 0 002.33-.61 1.36 1.36 0 01.46.49 1.32 1.32 0 01.19.66 1.24 1.24 0 01-.72 1.17 3.66 3.66 0 01-1.22.41 8.31 8.31 0 01-1.3.07zm-.48-6.9a1.65 1.65 0 00-.7.14 1.68 1.68 0 00-.49.36 1.6 1.6 0 00-.28.49 2.15 2.15 0 00-.11.55l2.91-.49a1.4 1.4 0 00-.38-.7 1.23 1.23 0 00-.95-.35zM106.77 52.6l-.56.1a4.52 4.52 0 01-.74.06 4.57 4.57 0 01-.67 0 1.33 1.33 0 01-.5-.21 1.06 1.06 0 01-.31-.43 1.79 1.79 0 01-.11-.71v-10.2l.55-.1a4.52 4.52 0 01.74-.06 3.4 3.4 0 01.67.06 1 1 0 01.82.63 2 2 0 01.11.71zM112.2 43.64a1.61 1.61 0 01.43-1.19 1.53 1.53 0 011.15-.43h5.61a1.83 1.83 0 01.21.5 2.41 2.41 0 01.1.67 1.32 1.32 0 01-.28.94 1 1 0 01-.74.28h-3.59V46h3.82a2.39 2.39 0 01.22.5 2.29 2.29 0 01.09.66 1.34 1.34 0 01-.27.94 1 1 0 01-.73.28h-3.13v1.84h4.37a2.06 2.06 0 01.21.51 2.39 2.39 0 01.09.66 1.3 1.3 0 01-.28 1 .94.94 0 01-.74.29h-5a1.53 1.53 0 01-1.15-.43 1.63 1.63 0 01-.43-1.19zM128.26 50.08a2.5 2.5 0 01-1 2.09 4.61 4.61 0 01-2.85.75 7.86 7.86 0 01-1.33-.11 3.45 3.45 0 01-1-.32 1.89 1.89 0 01-.68-.55 1.26 1.26 0 01-.25-.79 1.41 1.41 0 01.17-.71 1.74 1.74 0 01.41-.48 6.61 6.61 0 001.13.5 4.37 4.37 0 001.47.22 1.57 1.57 0 00.8-.16.46.46 0 00.28-.42.42.42 0 00-.2-.38 1.77 1.77 0 00-.68-.23l-.51-.11a4.69 4.69 0 01-2.2-.93 2.33 2.33 0 01-.72-1.83 2.52 2.52 0 01.27-1.17 2.48 2.48 0 01.76-.88 4 4 0 011.19-.54 5.49 5.49 0 011.52-.2 7.31 7.31 0 011.18.1 3.89 3.89 0 011 .29 1.7 1.7 0 01.64.5 1.14 1.14 0 01.24.73 1.67 1.67 0 01-.14.69 1.62 1.62 0 01-.37.48 2.32 2.32 0 00-.41-.19c-.18-.06-.38-.12-.59-.17s-.43-.1-.66-.13a3.3 3.3 0 00-.6-.05 2.28 2.28 0 00-.87.13.42.42 0 00-.3.41.37.37 0 00.17.31 1.93 1.93 0 00.64.23l.53.12a5 5 0 012.32 1.06 2.33 2.33 0 01.64 1.74zM132.54 49.7a.73.73 0 00.28.65 1.46 1.46 0 00.79.19 4.91 4.91 0 00.53 0 2.47 2.47 0 00.47-.12 2.62 2.62 0 01.27.43 1.41 1.41 0 01.11.57 1.35 1.35 0 01-.49 1.08 2.64 2.64 0 01-1.71.42 3.4 3.4 0 01-2.3-.7 2.87 2.87 0 01-.8-2.27v-7.53a4 4 0 01.53-.12 4.35 4.35 0 01.74-.06 2.09 2.09 0 011.16.27 1.3 1.3 0 01.42 1.15v1.12h2.23a4 4 0 01.19.48 2.15 2.15 0 01.09.64 1.2 1.2 0 01-.26.88.9.9 0 01-.7.28h-1.55zM139.85 43.85a7.16 7.16 0 011.67.19 3.83 3.83 0 011.29.59 2.57 2.57 0 01.82 1 3.18 3.18 0 01.29 1.43V51a1.12 1.12 0 01-.24.74 2.61 2.61 0 01-.59.5 6 6 0 01-3.11.68 7.26 7.26 0 01-1.62-.17 3.9 3.9 0 01-1.24-.53 2.36 2.36 0 01-.8-.89 2.66 2.66 0 01-.28-1.26 2.39 2.39 0 01.7-1.86 3.64 3.64 0 012.15-.8l2.23-.25V47a.76.76 0 00-.43-.73 3 3 0 00-1.25-.21 5.29 5.29 0 00-1.26.14 6.18 6.18 0 00-1.1.35 1.21 1.21 0 01-.38-.49 1.56 1.56 0 01-.15-.67 1.19 1.19 0 01.21-.73 1.64 1.64 0 01.66-.46 4.93 4.93 0 011.16-.28 9.6 9.6 0 011.27-.07zm.13 6.88a3.81 3.81 0 00.64-.06 1.58 1.58 0 00.52-.17v-1.4l-1.23.11a1.79 1.79 0 00-.78.21.57.57 0 00-.3.52.68.68 0 00.26.57 1.38 1.38 0 00.91.22zM145.33 48.37a5.56 5.56 0 01.34-2 3.78 3.78 0 011-1.4 3.73 3.73 0 011.41-.84 5.38 5.38 0 011.74-.27 3.68 3.68 0 01.66.06 3.19 3.19 0 01.53.15v-2.84a4.71 4.71 0 011.31-.18 3.48 3.48 0 01.67.06 1.07 1.07 0 01.5.21.88.88 0 01.3.42 2 2 0 01.11.71v8.3a1.5 1.5 0 01-.75 1.31 5.29 5.29 0 01-1.28.59 5.8 5.8 0 01-1.8.25 5.88 5.88 0 01-2-.31 4.06 4.06 0 01-1.47-.91 3.91 3.91 0 01-.92-1.43 5.25 5.25 0 01-.35-1.88zm4.83-2.19a1.82 1.82 0 00-1.41.54 2.38 2.38 0 00-.49 1.65 2.52 2.52 0 00.45 1.63 1.64 1.64 0 001.33.56 1.58 1.58 0 00.55-.1 1.12 1.12 0 00.38-.22v-3.85a1.48 1.48 0 00-.81-.21zM164.19 48.37a5.5 5.5 0 01-.32 1.93 4 4 0 01-.91 1.43 3.81 3.81 0 01-1.4.87 5.26 5.26 0 01-1.82.3 5 5 0 01-1.82-.31 3.9 3.9 0 01-1.4-.91 4.08 4.08 0 01-.91-1.42 5.35 5.35 0 01-.32-1.89 5.28 5.28 0 01.32-1.87 4.12 4.12 0 01.91-1.43 4 4 0 011.4-.9 5 5 0 011.82-.32 4.83 4.83 0 011.82.33 4 4 0 011.4.91 4.08 4.08 0 01.91 1.42 5.26 5.26 0 01.32 1.86zm-5.94 0a2.84 2.84 0 00.39 1.63 1.29 1.29 0 001.12.57 1.23 1.23 0 001.09-.57 2.91 2.91 0 00.39-1.63 2.77 2.77 0 00-.4-1.62 1.35 1.35 0 00-2.2 0 2.85 2.85 0 00-.39 1.62zM168.38 47.31a1.61 1.61 0 11.46 1.18 1.62 1.62 0 01-.46-1.18zM179.17 48.76c-.49-.17-.95-.34-1.36-.52a4 4 0 01-1.05-.63 2.64 2.64 0 01-.69-.9 3 3 0 01-.24-1.26 2.79 2.79 0 011.11-2.32 5 5 0 013.12-.86 8.27 8.27 0 011.36.1 4.19 4.19 0 011.08.31 2 2 0 01.71.55 1.29 1.29 0 01.25.77 1.41 1.41 0 01-.2.76 2 2 0 01-.5.53 3.82 3.82 0 00-1-.41 5 5 0 00-1.38-.18 2.29 2.29 0 00-1.12.21.62.62 0 00-.36.54.49.49 0 00.22.41 2.23 2.23 0 00.67.3l.9.29a6.6 6.6 0 012.46 1.3 2.79 2.79 0 01.85 2.15 2.84 2.84 0 01-1.13 2.34 5.34 5.34 0 01-3.36.89 8.26 8.26 0 01-1.45-.12 4.47 4.47 0 01-1.17-.38 2 2 0 01-.78-.61 1.31 1.31 0 01-.28-.84 1.27 1.27 0 01.28-.84 2.39 2.39 0 01.63-.54 4.64 4.64 0 001.17.65 4.08 4.08 0 001.5.27 2 2 0 001.18-.26.74.74 0 00.34-.59.59.59 0 00-.28-.52 3.22 3.22 0 00-.76-.35zM189.8 53.13a5.85 5.85 0 01-1.86-.28 4.25 4.25 0 01-1.5-.84 3.84 3.84 0 01-1-1.41 5.08 5.08 0 01-.37-2 4.71 4.71 0 01.37-1.93 3.76 3.76 0 011-1.33 3.88 3.88 0 011.36-.76 4.91 4.91 0 011.57-.25 4.78 4.78 0 011.64.27 3.82 3.82 0 011.27.75 3.38 3.38 0 01.84 1.14 3.64 3.64 0 01.29 1.45 1.13 1.13 0 01-.32.88 1.56 1.56 0 01-.9.39l-4.2.63a1.37 1.37 0 00.76.84A3 3 0 00190 51a4.78 4.78 0 001.32-.18 3.85 3.85 0 001-.41 1.48 1.48 0 01.46.47 1.29 1.29 0 01.19.65 1.21 1.21 0 01-.72 1.14 3.88 3.88 0 01-1.22.39 8.44 8.44 0 01-1.23.07zm-.47-6.68a1.7 1.7 0 00-.71.14 1.34 1.34 0 00-.48.34 1.71 1.71 0 00-.29.48 2.59 2.59 0 00-.11.54l2.91-.48a1.28 1.28 0 00-.37-.68 1.26 1.26 0 00-.95-.34zM199.43 46.62a2.38 2.38 0 00-.81.14 1.7 1.7 0 00-.66.4 1.8 1.8 0 00-.45.65 2.19 2.19 0 00-.17.92 2 2 0 00.6 1.58 2.16 2.16 0 001.47.53 2.88 2.88 0 00.88-.12 6.27 6.27 0 00.67-.26 1.93 1.93 0 01.51.52 1.31 1.31 0 01.17.67 1.17 1.17 0 01-.67 1.08 3.61 3.61 0 01-1.83.39 5.64 5.64 0 01-1.94-.32 4.42 4.42 0 01-1.49-.88 4 4 0 01-1-1.37 4.4 4.4 0 01-.34-1.77 4.76 4.76 0 01.37-2 3.66 3.66 0 011-1.39 4.19 4.19 0 011.46-.82 5.51 5.51 0 011.74-.27 3.42 3.42 0 011.88.44 1.33 1.33 0 01.67 1.14 1.28 1.28 0 01-.15.61 2.61 2.61 0 01-.34.51 5 5 0 00-.7-.26 2.8 2.8 0 00-.87-.12zM206 52.84a3.59 3.59 0 01-.53.11 6.33 6.33 0 01-.76 0 4.47 4.47 0 01-.67 0 1.2 1.2 0 01-.5-.21 1 1 0 01-.32-.41 1.92 1.92 0 01-.11-.69v-5.1a1.42 1.42 0 01.15-.68 1.59 1.59 0 01.41-.5 3.13 3.13 0 01.68-.4 6.52 6.52 0 01.85-.31 7.43 7.43 0 011-.21 5.4 5.4 0 011-.08 2.34 2.34 0 011.3.31 1.16 1.16 0 01.47 1 1.49 1.49 0 01-.07.47 1.94 1.94 0 01-.17.42H208c-.25 0-.49.06-.73.1l-.67.15a2.84 2.84 0 00-.54.18zM214.12 53.13a5.85 5.85 0 01-1.86-.28 4.25 4.25 0 01-1.5-.84 3.84 3.84 0 01-1-1.41 4.91 4.91 0 01-.37-2 4.55 4.55 0 01.37-1.93 3.7 3.7 0 012.32-2.09 4.9 4.9 0 011.56-.25 4.74 4.74 0 011.64.27 3.86 3.86 0 011.28.75 3.35 3.35 0 01.83 1.14 3.48 3.48 0 01.3 1.45 1.17 1.17 0 01-.32.88 1.56 1.56 0 01-.9.39l-4.2.63a1.37 1.37 0 00.76.84 3 3 0 001.33.28 4.78 4.78 0 001.32-.18 3.85 3.85 0 001-.41 1.48 1.48 0 01.46.47 1.28 1.28 0 01.18.65 1.21 1.21 0 01-.71 1.14 3.88 3.88 0 01-1.22.39 8.44 8.44 0 01-1.27.11zm-.48-6.68a1.68 1.68 0 00-.7.14 1.48 1.48 0 00-.49.34 1.67 1.67 0 00-.28.48 2.08 2.08 0 00-.11.54l2.91-.48a1.28 1.28 0 00-.37-.68 1.26 1.26 0 00-.96-.34zM222 50a.68.68 0 00.28.63 1.36 1.36 0 00.79.19 3.15 3.15 0 00.52-.05 2 2 0 00.48-.11 2.26 2.26 0 01.26.42 1.18 1.18 0 01.11.55 1.33 1.33 0 01-.48 1.06 2.71 2.71 0 01-1.71.41 3.49 3.49 0 01-2.3-.68 2.74 2.74 0 01-.81-2.21V43a4.28 4.28 0 01.53-.11 4.44 4.44 0 01.74-.06 2.25 2.25 0 011.17.26 1.23 1.23 0 01.42 1.11v1.09h2.22a2.65 2.65 0 01.2.47 2 2 0 01.09.62 1.21 1.21 0 01-.26.86.94.94 0 01-.71.26H222zM229.29 44.34a6.66 6.66 0 011.67.19 3.59 3.59 0 011.3.57 2.57 2.57 0 01.82 1 3.12 3.12 0 01.29 1.38v3.81a1 1 0 01-.25.73 2.75 2.75 0 01-.58.48 6.14 6.14 0 01-3.12.66 6.72 6.72 0 01-1.62-.16 3.67 3.67 0 01-1.24-.51 2.27 2.27 0 01-.8-.86 2.57 2.57 0 01-.28-1.23 2.29 2.29 0 01.7-1.8 3.72 3.72 0 012.16-.78l2.22-.24v-.12a.74.74 0 00-.43-.71 3 3 0 00-1.25-.21 5.86 5.86 0 00-1.26.14 5.94 5.94 0 00-1.1.34 1.14 1.14 0 01-.38-.47 1.51 1.51 0 01-.15-.65 1.11 1.11 0 01.21-.71 1.54 1.54 0 01.66-.45 4.5 4.5 0 011.16-.27 9.6 9.6 0 011.27-.13zm.13 6.68a3.72 3.72 0 00.64-.06 1.33 1.33 0 00.52-.16v-1.36l-1.22.1a2.12 2.12 0 00-.79.21.54.54 0 00-.3.51.65.65 0 00.26.55 1.45 1.45 0 00.89.19zM238 52.84a3.5 3.5 0 01-.54.11 6 6 0 01-.75 0 4.61 4.61 0 01-.68 0 1.33 1.33 0 01-.5-.21 1 1 0 01-.31-.41 1.72 1.72 0 01-.11-.69v-5.1a1.55 1.55 0 01.14-.68 1.78 1.78 0 01.42-.5 2.83 2.83 0 01.67-.4 6.67 6.67 0 01.86-.31 7.28 7.28 0 011-.21 5.51 5.51 0 011-.08 2.32 2.32 0 011.29.31 1.15 1.15 0 01.48 1 1.84 1.84 0 01-.07.47 2.63 2.63 0 01-.17.42H240c-.25 0-.5.06-.73.1l-.68.15a2.73 2.73 0 00-.53.18zM244.68 40.21a1.94 1.94 0 011.28.34 1 1 0 01.4.82 1.15 1.15 0 01-.24.74 2.62 2.62 0 01-.78.58l-2.19 1.16a1.42 1.42 0 01-.87-.41 1.07 1.07 0 01-.36-.77 1 1 0 01.1-.4 1.2 1.2 0 01.34-.38zm.4 12.63l-.55.1a4.52 4.52 0 01-.74.06 4.47 4.47 0 01-.67 0 1.26 1.26 0 01-.5-.21 1 1 0 01-.32-.41 1.92 1.92 0 01-.11-.69v-6.97l.56-.1a4.52 4.52 0 01.74-.06 4.47 4.47 0 01.67 0 1.26 1.26 0 01.5.21.92.92 0 01.31.41 1.72 1.72 0 01.11.69zM250.32 44.34a6.75 6.75 0 011.68.19 3.62 3.62 0 011.29.57 2.48 2.48 0 01.82 1 3 3 0 01.29 1.38v3.81a1.09 1.09 0 01-.24.73 2.81 2.81 0 01-.59.48 6.09 6.09 0 01-3.11.66 6.86 6.86 0 01-1.63-.17 3.76 3.76 0 01-1.24-.51 2.36 2.36 0 01-.8-.86 2.69 2.69 0 01-.28-1.23 2.32 2.32 0 01.7-1.8 3.77 3.77 0 012.16-.78l2.23-.24v-.12a.75.75 0 00-.44-.71 2.9 2.9 0 00-1.25-.21 5.7 5.7 0 00-1.25.14 6.31 6.31 0 00-1.11.34 1.13 1.13 0 01-.37-.47 1.39 1.39 0 01-.16-.65 1.06 1.06 0 01.22-.71 1.56 1.56 0 01.65-.45 4.58 4.58 0 011.17-.27 9.45 9.45 0 011.26-.12zm.14 6.68a3.91 3.91 0 00.64-.06 1.39 1.39 0 00.52-.16v-1.36l-1.23.1a2 2 0 00-.78.21.54.54 0 00-.31.51.66.66 0 00.27.55 1.43 1.43 0 00.89.19zM259.22 48.73a5 5 0 01.34-1.95 3.72 3.72 0 01.94-1.37 3.78 3.78 0 011.41-.8 5.47 5.47 0 011.74-.27 3.71 3.71 0 01.67.06 2.63 2.63 0 01.53.15v-2.76a5.38 5.38 0 01.54-.11 4.77 4.77 0 01.76-.06 4.61 4.61 0 01.68.05 1.18 1.18 0 01.5.21.9.9 0 01.3.41 1.92 1.92 0 01.11.69V51a1.45 1.45 0 01-.75 1.28 5.73 5.73 0 01-1.28.57 6.13 6.13 0 01-1.8.24 6.06 6.06 0 01-2-.3 4 4 0 01-1.48-.89 3.76 3.76 0 01-.92-1.38 5 5 0 01-.29-1.79zm4.83-2.13a1.86 1.86 0 00-1.42.53 2.3 2.3 0 00-.49 1.6 2.38 2.38 0 00.46 1.59 1.65 1.65 0 001.33.53 1.63 1.63 0 00.55-.09 1.22 1.22 0 00.38-.21v-3.74a1.5 1.5 0 00-.81-.21zM273.91 53.13a5.85 5.85 0 01-1.86-.28 4.16 4.16 0 01-1.5-.84 3.73 3.73 0 01-1-1.41 4.91 4.91 0 01-.37-2 4.55 4.55 0 01.37-1.93 3.7 3.7 0 012.32-2.09 4.9 4.9 0 011.56-.25 4.74 4.74 0 011.64.27 3.86 3.86 0 011.28.75 3.35 3.35 0 01.83 1.14 3.48 3.48 0 01.3 1.45 1.17 1.17 0 01-.32.88 1.56 1.56 0 01-.9.39l-4.2.63a1.34 1.34 0 00.76.84 3 3 0 001.33.28 4.66 4.66 0 001.31-.18 3.79 3.79 0 001-.41 1.48 1.48 0 01.46.47 1.28 1.28 0 01.18.65 1.22 1.22 0 01-.71 1.14 3.86 3.86 0 01-1.23.39 8.22 8.22 0 01-1.25.11zm-.48-6.68a1.65 1.65 0 00-.7.14 1.48 1.48 0 00-.49.34 1.67 1.67 0 00-.28.48 2.08 2.08 0 00-.11.54l2.91-.48a1.24 1.24 0 00-.38-.68 1.23 1.23 0 00-.95-.34zM285.42 48.76c-.5-.17-.95-.34-1.36-.52a3.85 3.85 0 01-1.05-.63 2.53 2.53 0 01-.69-.9 3.06 3.06 0 01.87-3.58 5 5 0 013.12-.86 8.36 8.36 0 011.36.1 4.31 4.31 0 011.08.31 2 2 0 01.7.55 1.23 1.23 0 01.26.77 1.33 1.33 0 01-.21.76 1.91 1.91 0 01-.49.53 3.82 3.82 0 00-1-.41 5 5 0 00-1.38-.18 2.26 2.26 0 00-1.12.21.62.62 0 00-.36.54.47.47 0 00.22.41 2.28 2.28 0 00.66.3l.91.29a6.47 6.47 0 012.45 1.3 3 3 0 01-.28 4.49 5.33 5.33 0 01-3.35.89 8.26 8.26 0 01-1.45-.12 4.67 4.67 0 01-1.18-.38 2.21 2.21 0 01-.78-.61 1.31 1.31 0 01-.28-.84 1.28 1.28 0 01.29-.84 2.11 2.11 0 01.63-.54 4.56 4.56 0 001.16.65 4.1 4.1 0 001.51.27 2 2 0 001.17-.26.71.71 0 00.34-.59.58.58 0 00-.27-.52 3.42 3.42 0 00-.76-.35zM295.22 44.34a6.66 6.66 0 011.67.19 3.47 3.47 0 011.29.57 2.6 2.6 0 01.83 1 3.12 3.12 0 01.29 1.38v3.81a1.09 1.09 0 01-.25.73 2.58 2.58 0 01-.59.48 6.07 6.07 0 01-3.11.66 6.72 6.72 0 01-1.62-.17 3.67 3.67 0 01-1.24-.51 2.2 2.2 0 01-.8-.86 2.57 2.57 0 01-.28-1.23 2.31 2.31 0 01.69-1.8 3.77 3.77 0 012.16-.78l2.23-.24v-.12a.74.74 0 00-.43-.71 3 3 0 00-1.25-.21 5.86 5.86 0 00-1.26.14 6.31 6.31 0 00-1.11.34 1.21 1.21 0 01-.37-.47 1.51 1.51 0 01-.15-.65 1.11 1.11 0 01.21-.71 1.56 1.56 0 01.65-.45 4.58 4.58 0 011.17-.27 9.6 9.6 0 011.27-.12zm.13 6.68A3.81 3.81 0 00296 51a1.39 1.39 0 00.52-.16v-1.4l-1.23.1a2.12 2.12 0 00-.78.21.55.55 0 00-.31.51.66.66 0 00.27.55 1.43 1.43 0 00.88.19zM304 52.84l-.56.1a4.49 4.49 0 01-.73.06 4.61 4.61 0 01-.68 0 1.33 1.33 0 01-.5-.21 1 1 0 01-.31-.41 1.72 1.72 0 01-.11-.69v-9.92l.55-.09a4.52 4.52 0 01.74-.06 4.47 4.47 0 01.67.05 1.08 1.08 0 01.5.21 1 1 0 01.32.41 1.92 1.92 0 01.11.71zM305.83 44.72a3.59 3.59 0 01.53-.11 6.33 6.33 0 01.76 0 4.47 4.47 0 01.67 0 1.2 1.2 0 01.5.21 1 1 0 01.32.41 1.92 1.92 0 01.11.69v3.66a1.24 1.24 0 00.34 1 1.42 1.42 0 001 .3 2.27 2.27 0 00.64-.07 2 2 0 00.38-.13v-6a3.79 3.79 0 01.54-.11 6.19 6.19 0 01.76 0 4.57 4.57 0 01.67 0 1.26 1.26 0 01.5.21.92.92 0 01.31.41 1.72 1.72 0 01.11.69v5.17a1.39 1.39 0 01-.71 1.28 4.69 4.69 0 01-1.42.57 7.8 7.8 0 01-1.79.19 6.5 6.5 0 01-1.7-.2 3.9 3.9 0 01-1.35-.59 2.88 2.88 0 01-.87-1.1 3.94 3.94 0 01-.3-1.62zM315.37 48.73a5 5 0 01.34-1.95 3.72 3.72 0 01.94-1.37 3.78 3.78 0 011.41-.8 5.49 5.49 0 011.75-.27 3.68 3.68 0 01.66.06 2.63 2.63 0 01.53.15v-2.76a5.38 5.38 0 01.54-.11 4.77 4.77 0 01.76-.06 4.61 4.61 0 01.68.05 1.18 1.18 0 01.5.21.9.9 0 01.3.41 1.92 1.92 0 01.11.69V51a1.45 1.45 0 01-.75 1.28 5.73 5.73 0 01-1.28.57 6.13 6.13 0 01-1.8.24 6.06 6.06 0 01-2-.3 4 4 0 01-1.48-.89 3.76 3.76 0 01-.92-1.38 5 5 0 01-.29-1.79zm4.83-2.13a1.86 1.86 0 00-1.42.53 2.3 2.3 0 00-.49 1.6 2.38 2.38 0 00.46 1.59 1.65 1.65 0 001.33.53 1.59 1.59 0 00.55-.09 1.22 1.22 0 00.38-.21v-3.74a1.5 1.5 0 00-.81-.21z"/></svg>