<svg xmlns="http://www.w3.org/2000/svg" viewBox="591.7 290.9 20.968 18.039">
  <defs>
    <style>
      .cls-1 {
        fill: #fff;
      }

      .cls-2 {
        fill: #16288e;
      }
    </style>
  </defs>
  <g id="Group_11" data-name="Group 11" transform="translate(584 183)">
    <path id="Path_14" data-name="Path 14" class="cls-1" d="M16.4,125.3a8.7,8.7,0,1,1,8.7-8.7A8.706,8.706,0,0,1,16.4,125.3Zm0-15.2a6.5,6.5,0,1,0,6.5,6.5A6.487,6.487,0,0,0,16.4,110.1Z"/>
    <path id="Path_15" data-name="Path 15" class="cls-1" d="M27.3,125.9a2.2,2.2,0,0,1-1.4-.2l-6.7-4.1a1.818,1.818,0,1,1,1.9-3.1l6.7,4.1a1.808,1.808,0,0,1,.6,2.5A1.548,1.548,0,0,1,27.3,125.9Z"/>
    <g id="Group_10" data-name="Group 10">
      <circle id="Ellipse_2" data-name="Ellipse 2" class="cls-2" cx="6.5" cy="6.5" r="6.5" transform="translate(9.9 110.2)"/>
      <g id="Group_9" data-name="Group 9">
        <path id="Path_16" data-name="Path 16" class="cls-1" d="M19.8,117.4H13a.8.8,0,0,1,0-1.6h6.8a.789.789,0,0,1,.8.8A.736.736,0,0,1,19.8,117.4Z"/>
      </g>
    </g>
  </g>
</svg>
