<svg version="1" xmlns="http://www.w3.org/2000/svg" width="682.667" height="682.667" viewBox="0 0 512.000000 512.000000"><path d="M234.5 8.1c-23.8 2.3-54.8 9.8-72.4 17.5-34.5 15.1-57.6 30.6-82.1 55.3C39.1 122 15.9 170.6 8.4 231c-1.2 10.2-1.1 38.4.2 50.5 6.3 57.6 30.6 108.6 70.9 149.1 22.3 22.4 42 36.5 69 49.5 25.9 12.4 49 19 82 23.4 9.4 1.3 39 1.3 50.5 0 18.4-2.1 26.2-3.6 43.7-8.6 104.8-30 178.7-126.9 179.6-235.4.3-30.8-3.4-54.7-12.9-83.2-4.7-14-6.5-18.2-14.2-33.3-31.3-61.5-87.9-107.9-154.3-126.4-14.5-4-23.8-6-34.4-7.2-2.7-.3-6.1-.8-7.5-1.1-4.4-.8-38.2-1-46.5-.2zm43.6 6.3c8.7.7 27.2 3.7 32.1 5.2.9.3 2.5.7 3.6.9 19.2 3.7 54.7 19.3 75.2 33 16.5 11.2 24 17.4 38.5 31.9 26.9 27 46.6 58.9 58.3 94.2 3.9 11.8 8.4 30.2 9.7 39.4.3 2.5.8 5.6 1 7 .9 5.6 1.6 20 1.6 30.9.1 54.2-18.7 107.4-53.1 150.5-35.4 44.5-88 76.3-142.9 86.6-15.1 2.8-15.4 2.8-26 3.7-23.7 1.8-48.5.3-69.3-4.1-21.6-4.6-39.7-10.9-58.9-20.6-46.9-23.5-85.1-61.4-108.2-107.5-9.2-18.2-20-48.2-19.8-55 0-.2-.5-1.9-1-3.7-4.3-14.9-6.8-54.4-4.6-71.8.4-2.5.9-7.2 1.2-10.5.5-4.9 3-18.3 5-26.7 7.1-30.5 24.6-66.1 45.4-92.3 41.8-52.6 104-86.1 169.6-91.1 5-.4 9.1-.8 9.2-.9.5-.4 26 .3 33.4.9z"/><path d="M129.9 166.4c-.2.2-3.9.6-8.2 1-9.8.8-23.9 5.3-33.5 10.7-7.7 4.3-17.7 13.4-22.7 20.8l-2.9 4.3 2.8 8.2c11.6 33.8 34.4 61.4 62.1 75.4 14.9 7.6 35.3 13 47.6 12.8 4.4-.1 5.5-.5 7.3-2.9 2-2.7 2.1-4.1 2.4-32.5.3-41.1 2.1-39.1-33.1-39.1-19.6 0-22.8.2-25.8 1.8-6.3 3.3-8.4 11.2-5.8 21.9.7 2.6 1.6 5.3 2.2 5.9.7.9 4.5 1.3 12.8 1.3H147V277.7l-4.2 1.2c-8.9 2.5-20.1 1.4-28.3-2.6-15.4-7.5-22.6-24.9-19-45.8 1.6-9.1 4.5-14.7 11-21 7-6.7 14-9.4 26.4-10.2 11.2-.7 18 .7 29.6 6.1l7.3 3.4 3-2.9c8-7.9 8.3-19.3.6-27.3-5.8-6.1-20.7-11.1-34.4-11.5-4.1-.1-7.7-.4-8.1-.6-.3-.3-.8-.3-1-.1zM361.7 167.2c-23.3 2.8-45.2 17.9-56.1 38.8-11.6 22.2-10.8 50 2 71.2 4.2 7 3.9 6.6 10.9 13.8l5 5.2 8.5-.5c15.1-.9 33.6-6.7 44.1-13.8 6-4.1 14.2-12.6 17.3-18l2-3.4-3.9 3.4c-11.3 9.8-28.6 10.5-40 1.7-5.7-4.4-7.3-6.4-10.2-12.6-5.5-11.7-2.8-26.5 6.4-35.7 5-5 10.4-7.5 22.7-10.7 7.8-2 11.5-2.5 18.5-2.1 4.7.2 9.3.5 10.1.8 7.9 2.1 10.6 3.2 15.2 6.3 12.6 8.4 20.4 20.8 23.2 36.9.7 3.9 1.1 9.3 1 12-.2 4.7-.2 4.8 1.1 2.5 3.8-7.4 5-28.7 2-40-8-30.9-33.8-53.5-63.5-55.6-4.1-.3-7.9-.6-8.5-.8-.5-.1-4.1.2-7.8.6zM195.2 171.7c-4.4 2.1-8 8.5-8.9 15.8-.4 3.3-.7 6.8-.6 7.7 0 1 .1 3.2.2 4.8l.1 3.1 19.3-.2 19.2-.1v29l.1 29.1 5.2 6c9 10.2 22.2 18.9 31.5 20.6l3.7.7V203h13.8c16.2 0 19.2-1.1 23.2-8.1 2.1-3.8 2.4-5.7 2.5-14.4v-10l-53-.2c-47.1-.2-53.4-.1-56.3 1.4z"/><path d="M378 206.3l-5.5 1 4.5 1.2c19.8 5.2 29.8 23.5 23.4 43-3.6 10.8-6.8 15.9-14.9 24-5.9 5.9-10 9-15.5 11.7-11.5 5.6-30.6 10.4-41.2 10.2-1.6 0-2.8.2-2.8.5 0 1.4 15.2 9.4 22.5 11.8 6.9 2.2 9.8 2.6 21 2.7 14.2.1 20.9-1.2 31.3-6.1 13.1-6.1 25.7-17.5 32.4-29.1 2.8-5 3.1-6.4 3.4-15.1.4-12.5-.9-18.8-5.7-29-9.9-20.4-30.3-30.8-52.9-26.8zM59.4 209.7c-6.6 15.6-7.6 39.3-2.3 55.3 10 30.4 37 47.2 75.9 47.2 9.4 0 21.4-1.8 30-4.4 6.4-2 14.5-5.6 13.8-6.2-.1-.2-3.2-.6-6.8-.9-3.6-.3-11.9-1.9-18.4-3.6-33.2-8.5-60.5-30.6-77.8-63.1-3.6-6.8-10.8-24-10.8-25.8 0-2.8-2.1-1.9-3.6 1.5zM224.5 286v22.9l5 1.3c2.8.7 9.1 1.3 14 1.3 7.8 0 9.6-.3 13.4-2.5 5.5-3.1 8.1-7.8 8.1-14.6v-5.2l-3.7-.7c-9.4-1.7-20-8.2-30-18.5l-6.8-6.9V286zM331.1 332.6c-3.3 2.8-4 5.1-1.7 6 1.5.6 7.5-2.4 7.7-3.8.5-2.7.4-3.4-.6-4-1.6-1.2-2.1-1-5.4 1.8zM365.4 333.4c-1 2.6.1 5.1 2.2 5.4 3 .4 4.8-2.1 3.4-4.7-1.2-2.4-4.8-2.8-5.6-.7zM169.9 334.5c-.1.3-.3.9-.4 1.5-.1.5-.3 1.9-.4 2.9-.1 1.3-.7 1.9-1.9 1.6-3-.5-8.2 2.2-9.2 5-1.8 4.7-1.2 7.5 2.2 10.7 2.9 2.7 3.7 3 8.2 2.5 6.9-.6 7.5-1.9 7.2-13.6-.2-5.3-.4-9.9-.5-10.4-.1-.8-5-1-5.2-.2zm-.7 12.7c.5 3.4-.3 6.8-1.6 6.8-4-.1-5.6-5.2-2.3-7.5 2.9-2 3.5-1.9 3.9.7zM257.9 334.5c-.1.3-.3.9-.4 1.5-.1.5-.3 1.9-.4 3-.1 1.6-.6 1.9-2.5 1.6-1.3-.2-3.7.4-5.4 1.4-5.8 3.5-5.3 12.5.8 15.8 3.2 1.7 11 .9 12.6-1.2 1.1-1.6 1.6-16.9.6-20.8-.4-1.6-5-2.7-5.3-1.3zm-.4 13.3c-.2 1-.4 2.7-.4 3.9-.1 1.6-.7 2.3-2.1 2.3-3.4 0-4.4-4.3-1.8-7.6 1.3-1.7 4.7-.5 4.3 1.4zM84.1 336.5c-9 3-10.4 15.9-2.3 20.7 3.3 2 12.2 1.9 14.6-.1 1-.9 1.6-2.7 1.5-5-.3-6.7-.6-7.1-6-7.1-4.5 0-4.9.2-4.9 2.4 0 1.8.6 2.5 2.3 2.8 2.6.4 3 3.1.4 3.6-1 .2-2.9-.4-4.2-1.2-5.6-3.7-1.3-13.2 5.3-11.9 4.8.9 5.6.8 6-.9.7-3.4-6.7-5.4-12.7-3.3zM297.2 336.9c-.9.5-1.5 4.3-1.8 11.4l-.5 10.7h3c3.4 0 3.4 0 3.4-9.2 0-2.6.4-4.5.8-4.2.5.3.9 1.1.9 1.9 0 .8.5 2.6 1.2 4 1.7 3.8 6.7 3.2 7.4-1 .1-.6.7-2.1 1.2-3.5.9-2.1 1.1-1.6 1.2 3.5 0 7.1.9 8.8 4.1 8.3 2.1-.3 2.4-.8 2.3-4.8-.3-8.9-1.4-16.4-2.6-17.2-.7-.4-2.4-.7-3.8-.6-2 .3-2.8 1.3-4.4 5.6l-1.9 5.4-1.5-4.4c-.8-2.3-1.9-4.9-2.4-5.6-1.2-1.4-4.7-1.6-6.6-.3zM105.7 341.4c-3.3 1.2-3.9 3.2-3.5 11.1.3 5.7.4 6 3.1 6.3 2.4.3 2.7 0 2.8-3 .1-1.8.1-4.5 0-6-.1-2.7 2.9-5.5 4.8-4.4 1.2.8 2.1-1.8 1.2-3.2-1-1.6-5.2-2-8.4-.8zM119.4 341.1c-2.7 1-3.6 2.3-2.8 4.3.4 1 1.2 1.3 2.2.8 1-.4 2.4-.7 3.2-.6.8.1 2.1.2 2.8.3 2.6.2 1.1 1.7-2 1.9-6.6.5-9.5 4.5-6.4 8.7 1.8 2.5 11.1 3.1 14.1.9 2.6-1.9 2.4-11.9-.2-14.6-2.1-2-7.8-2.9-10.9-1.7zm6.6 11.4c0 1.6-3.5 2.1-4.4.6-.8-1.2.4-2.1 2.6-2.1 1 0 1.8.7 1.8 1.5zM142.5 340.9c-5.2 1.6-5.6 2.3-5.3 10.2.3 7.2.4 7.4 3.1 7.7 2.9.4 2.9.4 2.9-7.5 0-4.3 2.1-7.4 3.8-5.7.5.5 1 3.3 1.1 6.1.3 6.3.9 7.6 4 7.1 2.2-.3 2.4-.8 2.5-6.3 0-6.7-1.1-10.2-3.5-10.9-3.2-1-6.7-1.3-8.6-.7zM183.6 341.7c-3.4 1.8-4.4 4-4.1 8.6.3 5.1 3.1 7.8 8.9 8.4 3.5.4 5.1.2 6.6-1.2 2.8-2.6 1.5-4.3-3.3-4.1-4.7.1-6.3-1.6-2-2.1 6.2-.7 7.3-1.3 7.3-3.8 0-2.6-3.1-6.4-5.2-6.6-.7 0-2.3-.2-3.5-.3-1.1-.1-3.3.4-4.7 1.1zm5.8 3.9c.9.3 1.6 1.1 1.6 1.7 0 .6-.3.8-.6.4-.3-.3-1.7-.2-3 .3-2.6 1-3.1.1-1.2-1.8 1.4-1.4 1.2-1.4 3.2-.6zM220.8 341.2c-2.9 1-3.2 1.6-2.2 4.2.4 1.1 1.2 1.3 2.9.6 2.3-.9 6.5-.3 6.5.9 0 .4-1.5.8-3.2.9-6.6.5-9.5 4.5-6.4 8.7 1.8 2.5 11.1 3.1 14 .9 2.7-1.9 2.6-11.9-.1-14.5-2.2-2.2-7.9-3-11.5-1.7zm7.2 11.3c0 1.6-3.5 2.1-4.4.6-.8-1.2.4-2.1 2.6-2.1 1 0 1.8.7 1.8 1.5zM272.2 341.6c-5.2 2.1-6.7 8.5-3.2 13.4 2.3 3.2 6.5 4.5 11.6 3.6 2.7-.6 3.4-1.2 3.4-3.1 0-2.1-.4-2.3-4.5-2.2-2.4.1-4.4-.2-4.5-.7-.1-1 1.3-1.4 6.4-1.8 3.2-.3 4.1-1.7 3.2-5.1-1-4.2-7.3-6.3-12.4-4.1zm6.8 5.5c0 .5-1.5.9-3.2.9-3.1-.1-3.2-.2-1.5-1.5 1.9-1.4 4.7-1 4.7.6zM328.2 342c-3.3 2-4.6 5.6-3.6 9.7 1.4 5.7 6.1 8.1 13 6.9 2.8-.6 3.4-1.1 3.4-3.1 0-2.3-.2-2.4-4.4-1.9-2.6.4-4.6.2-5-.4-.7-1.2 1.4-2 6.3-2.4 3.6-.3 4.6-1.6 3.7-5.1-1.2-4.7-8.4-6.7-13.4-3.7zm7.3 5c-.7 1.1-5.5 1.9-5.5.9 0-1.2 3.2-2.8 4.7-2.2.7.3 1.1.9.8 1.3zM379 341.8c-5.6 2.7-6.6 9.4-2.2 14.3 2.3 2.6 3.6 3.2 7.1 3.2 2.3 0 4.7-.5 5.3-1.1 1.8-1.8.1-4.1-3-4-3.6.1-4.8-.6-5.5-3.3-.8-2.9 2.6-6.1 5.7-5.3 2.9.7 4.4-1.3 2.4-3.3-2.1-2.1-6.2-2.3-9.8-.5z"/><path d="M399.5 340.7c-9.3 1.7-9.6 15.8-.5 17.8 4.8 1 8.9-.4 11-3.7 4.4-7.3-1.7-15.6-10.5-14.1zm4.3 5.5c2.1 2.1 1.5 6.6-1 7.4-3.9 1.2-5.6-3.4-2.5-7.4 1.2-1.5 2-1.5 3.5 0zM199.6 342.6c-.9 2.3.2 3.4 3.5 3.4 1.6 0 2.9.3 2.9.7 0 .5-1.6 2.5-3.5 4.7-3.8 4.1-3.9 4.4-2.6 6.4.5.9 2.8 1.2 7.7 1 6.1-.3 6.9-.5 6.9-2.3 0-1.6-.8-2.1-3.7-2.5l-3.8-.5 3.3-3.5c6.4-6.8 5.5-9-3.9-9-4.7 0-6.3.4-6.8 1.6zM345.3 341.7c-2 .7-1.6 2.4 1.2 5.3l2.5 2.6-2.5 3c-3 3.4-3.1 5-.7 6.3 2.1 1.1 3.5.4 5.1-2.7l1.3-2.4 1.4 2.1c2.4 3.4 5 4.3 6.8 2.5 1.5-1.4 1.4-1.8-.9-4.8l-2.5-3.3 2-2.6c2.6-3.2 2.5-5.4-.1-6.2-2-.7-4.8 1.6-4.9 3.9 0 .6-1.3-.2-2.8-1.7-2.8-2.7-3.6-3-5.9-2zM365.2 349.7c.3 8.4.4 8.8 2.7 9.1 3.2.5 3.7-.6 3.6-8.5-.1-8-.7-9.3-4.1-9.3-2.5 0-2.5 0-2.2 8.7z"/></svg>