<svg xmlns="http://www.w3.org/2000/svg" viewBox="589.1 191.5 24.8 16.8">
  <defs>
    <style>
      .cls-1 {
        fill: #fff;
      }
    </style>
  </defs>
  <g id="Group_3" data-name="Group 3" transform="translate(584 183)">
    <path id="Path_7" data-name="Path 7" class="cls-1" d="M5.7,12.4a5.9,5.9,0,0,0-.4-.8,3.6,3.6,0,0,1-.2-1.1A2.07,2.07,0,0,1,5.6,9a2.106,2.106,0,0,1,1.3-.5H18.8a5.9,5.9,0,0,0,.4.8,3.6,3.6,0,0,1,.2,1.1,2.07,2.07,0,0,1-.5,1.5,1.656,1.656,0,0,1-1.2.5h-3V25a6.374,6.374,0,0,1-.9.2,5.283,5.283,0,0,1-1.3.1,3.75,3.75,0,0,1-1.1-.1,6.89,6.89,0,0,1-.8-.3,1.794,1.794,0,0,1-.5-.7A4.22,4.22,0,0,1,9.8,23V12.4Z"/>
    <path id="Path_8" data-name="Path 8" class="cls-1" d="M26.7,24.1c-.1.1-.3.1-.6.1h-.8a2.133,2.133,0,0,1-1.2-.3c-.3-.2-.4-.5-.4-1.1V20.7H20.8a.845.845,0,0,1-.2-.6,1.7,1.7,0,0,1-.1-.7,1.327,1.327,0,0,1,.3-1,1.135,1.135,0,0,1,.8-.3h2.1V14.8a3.536,3.536,0,0,1,.6-.1c.3,0,.5-.1.8-.1a2.133,2.133,0,0,1,1.2.3,1.246,1.246,0,0,1,.4,1.1v2h2.9a4.169,4.169,0,0,1,.2.6,1.7,1.7,0,0,1,.1.7,1.327,1.327,0,0,1-.3,1,1.135,1.135,0,0,1-.8.3H26.7Z"/>
  </g>
</svg>
