<svg id="Group_15" data-name="Group 15" xmlns="http://www.w3.org/2000/svg" viewBox="589.1 224.9 23.2 16.8">
  <defs>
    <style>
      .cls-1 {
        fill: #fff;
      }
    </style>
  </defs>
  <g id="Group_2" data-name="Group 2" transform="translate(584 183)">
    <path id="Path_6" data-name="Path 6" class="cls-1" d="M5.7,45.8a5.9,5.9,0,0,0-.4-.8,3.6,3.6,0,0,1-.2-1.1,2.07,2.07,0,0,1,.5-1.5,1.656,1.656,0,0,1,1.3-.5H18.8a5.9,5.9,0,0,0,.4.8,3.6,3.6,0,0,1,.2,1.1,2.07,2.07,0,0,1-.5,1.5,1.656,1.656,0,0,1-1.2.5h-3V58.4a6.375,6.375,0,0,1-.9.2,5.283,5.283,0,0,1-1.3.1,3.75,3.75,0,0,1-1.1-.1,6.89,6.89,0,0,1-.8-.3,1.794,1.794,0,0,1-.5-.7,3.6,3.6,0,0,1-.2-1.1V45.8Z"/>
  </g>
  <g id="Group_5" data-name="Group 5" transform="translate(584 183)">
    <g id="Group_4" data-name="Group 4">
      <path id="Path_9" data-name="Path 9" class="cls-1" d="M23,52.5a1.628,1.628,0,0,1-.3-.6,1.952,1.952,0,0,1-.1-.7,1.327,1.327,0,0,1,.3-1,1.222,1.222,0,0,1,.9-.3H28a.845.845,0,0,1,.2.6c0,.3.1.5.1.7a1.327,1.327,0,0,1-.3,1,1.222,1.222,0,0,1-.9.3Z"/>
    </g>
  </g>
</svg>
