<svg xmlns="http://www.w3.org/2000/svg" xmlns:xlink="http://www.w3.org/1999/xlink" viewBox="0 0 521.15 138.25"><defs><radialGradient id="a" cx="-351.94" cy="615.45" r="0.81" gradientTransform="matrix(-105.2, 80.04, 80.08, 105.15, -86208.66, -36494.97)" gradientUnits="userSpaceOnUse"><stop offset="0" stop-color="#0093ef"/><stop offset="0.51" stop-color="#00169e"/><stop offset="0.94" stop-color="#00008c"/><stop offset="1" stop-color="#00008c"/></radialGradient><radialGradient id="b" cx="32.3" cy="52.59" r="18.7" gradientUnits="userSpaceOnUse"><stop offset="0" stop-color="#99dcff"/><stop offset="0.22" stop-color="#99dcff"/><stop offset="0.47" stop-color="#9bddff"/><stop offset="0.61" stop-color="#a4e0ff"/><stop offset="0.72" stop-color="#b1e4ff"/><stop offset="0.82" stop-color="#c5ebff"/><stop offset="0.91" stop-color="#def4ff"/><stop offset="1" stop-color="#fdfeff"/><stop offset="1" stop-color="#fff"/></radialGradient><radialGradient id="c" cx="94.6" cy="51.26" r="26.27" gradientUnits="userSpaceOnUse"><stop offset="0" stop-color="#99dcff"/><stop offset="0.22" stop-color="#99dcff"/><stop offset="0.36" stop-color="#9edeff"/><stop offset="0.52" stop-color="#ace2ff"/><stop offset="0.69" stop-color="#c3eaff"/><stop offset="0.87" stop-color="#e4f6ff"/><stop offset="1" stop-color="#fff"/></radialGradient><radialGradient id="d" cx="58.29" cy="45.19" r="26.69" xlink:href="#c"/><linearGradient id="e" x1="18.45" y1="59.44" x2="38.52" y2="83.56" gradientUnits="userSpaceOnUse"><stop offset="0" stop-color="#00702f"/><stop offset="0.17" stop-color="#037531"/><stop offset="0.37" stop-color="#0b8336"/><stop offset="0.58" stop-color="#199a3f"/><stop offset="0.8" stop-color="#2cbb4c"/><stop offset="1" stop-color="#42e05a"/></linearGradient><linearGradient id="f" x1="62.13" y1="74.99" x2="72.44" y2="84.61" gradientUnits="userSpaceOnUse"><stop offset="0" stop-color="#ff8201"/><stop offset="1" stop-color="#ffb621"/></linearGradient><linearGradient id="g" x1="105.41" y1="55.74" x2="105.41" y2="81.75" gradientUnits="userSpaceOnUse"><stop offset="0" stop-color="#f51fcc"/><stop offset="0.24" stop-color="#f624ce"/><stop offset="0.52" stop-color="#f832d5"/><stop offset="0.82" stop-color="#fc49e0"/><stop offset="1" stop-color="#ff5be8"/></linearGradient></defs><title>unidad-de-transparencia</title><path d="M473.47,111h0c-20.06-30.35-15-73.71,11.35-96.83l0,0C495.71,4.6,508.48,0,521.15,0H69.47V138.24H521.15v0C503.1,138.21,485.25,128.85,473.47,111Z" style="fill:#fff"/><path d="M319.85,47.41a4.31,4.31,0,0,1-.3,1.5,8.64,8.64,0,0,1-.8,1.2,3.57,3.57,0,0,1-1.3.7,5.09,5.09,0,0,1-3.4,0,5.61,5.61,0,0,1-1.3-.7,2,2,0,0,1-.8-1.2,3.9,3.9,0,0,1-.3-1.5v-5.9a1,1,0,0,0,.5-.1c.2,0,.5-.1.7-.1a1.14,1.14,0,0,1,.6.1.51.51,0,0,1,.4.2,1.5,1.5,0,0,1,.3.4,1.33,1.33,0,0,1,.1.6v4.7a1.76,1.76,0,0,0,.4,1.2,1.29,1.29,0,0,0,1,.4,1.18,1.18,0,0,0,1-.4,1.76,1.76,0,0,0,.4-1.2v-5.8a1,1,0,0,0,.5-.1c.2,0,.5-.1.7-.1a1.14,1.14,0,0,1,.6.1.51.51,0,0,1,.4.2,1.5,1.5,0,0,1,.3.4,1.33,1.33,0,0,1,.1.6v4.8Z" style="fill:#000f96"/><path d="M326.25,46.11a.94.94,0,0,0-.3-.7,1.76,1.76,0,0,0-.7-.2,1.12,1.12,0,0,0-.6.1c-.2.1-.4.1-.5.2v5.3c-.2,0-.3.1-.5.1h-1.3a.54.54,0,0,1-.4-.2,1.27,1.27,0,0,1-.3-.4,1.25,1.25,0,0,1-.1-.6v-4.6a1.67,1.67,0,0,1,.2-.7c.1-.2.3-.3.5-.5.4-.2.8-.4,1.3-.6a4.65,4.65,0,0,1,1.7-.2,3.94,3.94,0,0,1,2.6.8,2.73,2.73,0,0,1,.9,2.1v4.8c-.2,0-.3.1-.5.1H327a.54.54,0,0,1-.4-.2,1.27,1.27,0,0,1-.3-.4,1.25,1.25,0,0,1-.1-.6l.1-3.6Z" style="fill:#000f96"/><path d="M330.35,41.31a1.34,1.34,0,0,1,1.3-1.4h.1a1.16,1.16,0,0,1,1,.4,1.34,1.34,0,0,1,.11,1.89l-.11.11a1.3,1.3,0,0,1-1,.4,1.17,1.17,0,0,1-1-.4A1.27,1.27,0,0,1,330.35,41.31Zm2.7,9.5a.85.85,0,0,0-.5.1c-.2,0-.4.1-.7.1h-.6a.54.54,0,0,1-.4-.2,1.27,1.27,0,0,1-.3-.4,1.25,1.25,0,0,1-.1-.6v-6.2a1,1,0,0,0,.5-.1c.2,0,.4-.1.7-.1h.6a.51.51,0,0,1,.4.2,1.5,1.5,0,0,1,.3.4,1.33,1.33,0,0,1,.1.6Z" style="fill:#000f96"/><path d="M334.35,47.11a5.48,5.48,0,0,1,.3-1.8,4.57,4.57,0,0,1,.8-1.2,3.23,3.23,0,0,1,1.3-.7,3.64,3.64,0,0,1,1.5-.2,1.14,1.14,0,0,1,.6.1c.2,0,.3.1.5.1v-2.5c.2,0,.3-.1.5-.1s.4-.1.7-.1h.6a.51.51,0,0,1,.4.2,1.5,1.5,0,0,1,.3.4,1.33,1.33,0,0,1,.1.6v7.3a1.42,1.42,0,0,1-.7,1.2,4.05,4.05,0,0,1-1.1.5,9.59,9.59,0,0,1-1.6.2,4.4,4.4,0,0,1-3.1-1.1,2.64,2.64,0,0,1-.8-1.3A4,4,0,0,1,334.35,47.11Zm4.3-1.9a2.06,2.06,0,0,0-1.3.5,2.8,2.8,0,0,0,0,2.8,1.68,1.68,0,0,0,1.2.5,1,1,0,0,0,.5-.1c.1-.1.3-.1.3-.2v-3.4A1.55,1.55,0,0,0,338.65,45.21Z" style="fill:#000f96"/><path d="M346.55,43.11a7,7,0,0,1,1.5.2,3.53,3.53,0,0,1,1.1.5,1.62,1.62,0,0,1,.7.9,2.89,2.89,0,0,1,.3,1.3v3.4a1.94,1.94,0,0,1-.2.7,1.09,1.09,0,0,1-.5.4,6.16,6.16,0,0,1-4.2.4,3.92,3.92,0,0,1-1.1-.5,2.55,2.55,0,0,1-.7-.8,2,2,0,0,1-.2-1.1,2.23,2.23,0,0,1,.6-1.6,3.06,3.06,0,0,1,1.9-.7l2-.2v-.1a.55.55,0,0,0-.4-.6,3.81,3.81,0,0,0-1.1-.2,3.7,3.7,0,0,0-1.1.1c-.4.1-.7.2-1,.3a1.27,1.27,0,0,1-.3-.4,1.25,1.25,0,0,1-.1-.6,1.38,1.38,0,0,1,.2-.6.8.8,0,0,1,.6-.4,3.12,3.12,0,0,1,1-.2A3.12,3.12,0,0,1,346.55,43.11Zm.1,6.1a1.38,1.38,0,0,0,.6-.1c.2,0,.3-.1.5-.1v-1.2l-1.1.1a1.67,1.67,0,0,0-.7.2.53.53,0,0,0-.3.5.74.74,0,0,0,.2.5A2.41,2.41,0,0,0,346.65,49.21Z" style="fill:#000f96"/><path d="M351.35,47.11a5.48,5.48,0,0,1,.3-1.8,4.57,4.57,0,0,1,.8-1.2,3.23,3.23,0,0,1,1.3-.7,3.64,3.64,0,0,1,1.5-.2,1.14,1.14,0,0,1,.6.1c.2,0,.3.1.5.1v-2.5c.2,0,.3-.1.5-.1s.4-.1.7-.1h.6a.51.51,0,0,1,.4.2,1.5,1.5,0,0,1,.3.4,1.33,1.33,0,0,1,.1.6v7.3a1.42,1.42,0,0,1-.7,1.2,4.05,4.05,0,0,1-1.1.5,9.59,9.59,0,0,1-1.6.2,4.4,4.4,0,0,1-3.1-1.1,2.64,2.64,0,0,1-.8-1.3A4,4,0,0,1,351.35,47.11Zm4.3-1.9a2.06,2.06,0,0,0-1.3.5,2.8,2.8,0,0,0,0,2.8,1.68,1.68,0,0,0,1.2.5,1,1,0,0,0,.5-.1c.1-.1.3-.1.3-.2v-3.4A1.55,1.55,0,0,0,355.65,45.21Z" style="fill:#000f96"/><path d="M363.25,47.11a5.48,5.48,0,0,1,.3-1.8,4.57,4.57,0,0,1,.8-1.2,3.23,3.23,0,0,1,1.3-.7,3.64,3.64,0,0,1,1.5-.2,1.14,1.14,0,0,1,.6.1c.2,0,.3.1.5.1v-2.5c.2,0,.3-.1.5-.1s.4-.1.7-.1h.6a.51.51,0,0,1,.4.2,1.5,1.5,0,0,1,.3.4,1.33,1.33,0,0,1,.1.6v7.3a1.42,1.42,0,0,1-.7,1.2,4.05,4.05,0,0,1-1.1.5,9.59,9.59,0,0,1-1.6.2,4.4,4.4,0,0,1-3.1-1.1,2.64,2.64,0,0,1-.8-1.3A4,4,0,0,1,363.25,47.11Zm4.2-1.9a2.06,2.06,0,0,0-1.3.5,2.8,2.8,0,0,0,0,2.8,1.68,1.68,0,0,0,1.2.5,1,1,0,0,0,.5-.1c.1-.1.3-.1.3-.2v-3.4C368.05,45.21,367.75,45.21,367.45,45.21Z" style="fill:#000f96"/><path d="M376.25,51.11a4.91,4.91,0,0,1-1.7-.3,3.63,3.63,0,0,1-1.3-.8,3.09,3.09,0,0,1-.9-1.3,5.53,5.53,0,0,1-.3-1.8,4.48,4.48,0,0,1,.3-1.7,2.62,2.62,0,0,1,.9-1.2,6.84,6.84,0,0,1,1.2-.7,6,6,0,0,1,1.4-.2,7,7,0,0,1,1.5.2,4.11,4.11,0,0,1,1.1.7,2.28,2.28,0,0,1,.7,1,2.89,2.89,0,0,1,.3,1.3,1.19,1.19,0,0,1-.3.8,2.23,2.23,0,0,1-.8.4l-3.7.6a1.45,1.45,0,0,0,.7.8,2.77,2.77,0,0,0,1.2.3,5.47,5.47,0,0,0,1.2-.2,3.81,3.81,0,0,0,.9-.4.75.75,0,0,1,.4.4,1.38,1.38,0,0,1,.2.6,1.13,1.13,0,0,1-.6,1,4,4,0,0,1-1.1.4C377,51,376.55,51.11,376.25,51.11Zm-.4-6.1a1.12,1.12,0,0,0-.6.1,1.17,1.17,0,0,0-.4.3.48.48,0,0,0-.2.4.85.85,0,0,0-.1.5l2.6-.4a.89.89,0,0,0-.3-.6A1.66,1.66,0,0,0,375.85,45Z" style="fill:#000f96"/><path d="M311.35,59.61c-.1-.1-.1-.3-.2-.5a1.25,1.25,0,0,1-.1-.6,1.38,1.38,0,0,1,.3-.9.89.89,0,0,1,.7-.3h6.6c.1.1.1.3.2.5a1.33,1.33,0,0,1,.1.6,1.48,1.48,0,0,1-.3.9,1,1,0,0,1-.7.3h-1.7v7.1c-.2,0-.3.1-.5.1h-.7a1.36,1.36,0,0,1-.6-.1.54.54,0,0,1-.4-.2,1.27,1.27,0,0,1-.3-.4,1.25,1.25,0,0,1-.1-.6v-6Z" style="fill:#000f96"/><path d="M322.55,66.81c-.2,0-.3.1-.5.1h-1.3a.54.54,0,0,1-.4-.2,1.27,1.27,0,0,1-.3-.4,1.25,1.25,0,0,1-.1-.6v-4.6a1.21,1.21,0,0,1,.1-.6.9.9,0,0,1,.4-.5c.2-.1.4-.3.6-.4a6.89,6.89,0,0,1,.8-.3c.3-.1.6-.1.8-.2a2.48,2.48,0,0,1,.9-.1,2,2,0,0,1,1.1.3,1,1,0,0,1,.4.9.63.63,0,0,1-.1.4.57.57,0,0,1-.2.4h-.6c-.2,0-.4.1-.6.1s-.4.1-.6.1-.3.1-.5.2v5.4Z" style="fill:#000f96"/><path d="M329.15,59.11a7,7,0,0,1,1.5.2,3.53,3.53,0,0,1,1.1.5,1.62,1.62,0,0,1,.7.9,2.89,2.89,0,0,1,.3,1.3v3.4a1.94,1.94,0,0,1-.2.7,1.09,1.09,0,0,1-.5.4,6.16,6.16,0,0,1-4.2.4,3.92,3.92,0,0,1-1.1-.5,2.55,2.55,0,0,1-.7-.8,2,2,0,0,1-.2-1.1,2.23,2.23,0,0,1,.6-1.6,3.06,3.06,0,0,1,1.9-.7l2-.2v-.1a.55.55,0,0,0-.4-.6,3.81,3.81,0,0,0-1.1-.2,3.7,3.7,0,0,0-1.1.1c-.4.1-.7.2-1,.3a1.27,1.27,0,0,1-.3-.4,1.25,1.25,0,0,1-.1-.6,1.38,1.38,0,0,1,.2-.6.8.8,0,0,1,.6-.4,3.12,3.12,0,0,1,1-.2A1.65,1.65,0,0,1,329.15,59.11Zm.2,6a1.38,1.38,0,0,0,.6-.1c.2,0,.3-.1.5-.1v-1.2l-1.1.1a1.67,1.67,0,0,0-.7.2.53.53,0,0,0-.3.5.74.74,0,0,0,.2.5C328.65,65.11,329,65.11,329.35,65.11Z" style="fill:#000f96"/><path d="M339.05,62.11a.94.94,0,0,0-.3-.7,1.76,1.76,0,0,0-.7-.2,1.12,1.12,0,0,0-.6.1c-.2.1-.4.1-.5.2v5.3c-.2,0-.3.1-.5.1h-1.3a.54.54,0,0,1-.4-.2,1.27,1.27,0,0,1-.3-.4,1.25,1.25,0,0,1-.1-.6v-4.6a1.67,1.67,0,0,1,.2-.7c.1-.2.3-.3.5-.5.4-.2.8-.4,1.3-.6a4.65,4.65,0,0,1,1.7-.2,3.94,3.94,0,0,1,2.6.8,2.73,2.73,0,0,1,.9,2.1v4.8c-.2,0-.3.1-.5.1h-1.3a.54.54,0,0,1-.4-.2,1.27,1.27,0,0,1-.3-.4,1.25,1.25,0,0,1-.1-.6l.1-3.6Z" style="fill:#000f96"/><path d="M349.35,64.61a2.15,2.15,0,0,1-.9,1.8,4.35,4.35,0,0,1-2.5.7,5.31,5.31,0,0,1-1.2-.1l-.9-.3a1,1,0,0,1-.6-.5,1.76,1.76,0,0,1-.2-.7,1.38,1.38,0,0,1,.2-.6c.1-.1.2-.3.4-.4a3.13,3.13,0,0,0,1,.4,6.29,6.29,0,0,0,1.3.2c.3,0,.6,0,.7-.1a.52.52,0,0,0,.2-.4c0-.2-.1-.3-.2-.3a3.93,3.93,0,0,1-.6-.2l-.5-.2a5.14,5.14,0,0,1-2-.8,2.27,2.27,0,0,1-.6-1.6,3.35,3.35,0,0,1,.2-1,2.44,2.44,0,0,1,.7-.8,2.94,2.94,0,0,1,1-.5,5.18,5.18,0,0,1,1.3-.2,3.1,3.1,0,0,1,1,.1l.9.3c.2.1.4.3.6.4a1.29,1.29,0,0,1,.1,1.2,1.68,1.68,0,0,1-.3.4c-.1-.1-.2-.1-.4-.2s-.3-.1-.5-.2a1.27,1.27,0,0,0-.6-.1h-.5a2,2,0,0,0-.8.1c-.2.1-.3.2-.3.4s.1.2.2.3.3.1.6.2l.5.1a4,4,0,0,1,2.1.9A2.75,2.75,0,0,1,349.35,64.61Z" style="fill:#000f96"/><path d="M354,59.11a8.87,8.87,0,0,1,1.7.2,5.11,5.11,0,0,1,1.3.7,2.77,2.77,0,0,1,.9,1.2,6.06,6.06,0,0,1,.3,1.8,5,5,0,0,1-.3,1.7,2.06,2.06,0,0,1-.8,1.2,2.48,2.48,0,0,1-1.2.7,4.57,4.57,0,0,1-1.6.2,5.38,5.38,0,0,1-1.2-.2v2.5c-.2,0-.3.1-.5.1s-.4.1-.7.1h-.6a.54.54,0,0,1-.4-.2,1.27,1.27,0,0,1-.3-.4,1.25,1.25,0,0,1-.1-.6v-7.2a1.67,1.67,0,0,1,.2-.7c.1-.2.3-.3.5-.5a5.74,5.74,0,0,1,1.2-.5C352.85,59.21,353.35,59.11,354,59.11Zm0,5.9c1,0,1.6-.6,1.6-1.9a2,2,0,0,0-.4-1.5,1.57,1.57,0,0,0-1.1-.5.72.72,0,0,0-.5.1.48.48,0,0,0-.4.2v3.4c.1.1.3.1.4.2C353.65,64.91,353.85,65,354,65Z" style="fill:#000f96"/><path d="M362.45,59.11a7,7,0,0,1,1.5.2,3.53,3.53,0,0,1,1.1.5,1.62,1.62,0,0,1,.7.9,2.89,2.89,0,0,1,.3,1.3v3.4a1.94,1.94,0,0,1-.2.7,1.09,1.09,0,0,1-.5.4,6.16,6.16,0,0,1-4.2.4,3.92,3.92,0,0,1-1.1-.5,2.55,2.55,0,0,1-.7-.8,2,2,0,0,1-.2-1.1,2.23,2.23,0,0,1,.6-1.6,3.06,3.06,0,0,1,1.9-.7l2-.2v-.1a.55.55,0,0,0-.4-.6,3.81,3.81,0,0,0-1.1-.2,3.7,3.7,0,0,0-1.1.1c-.4.1-.7.2-1,.3a1.27,1.27,0,0,1-.3-.4,1.25,1.25,0,0,1-.1-.6,1.38,1.38,0,0,1,.2-.6.8.8,0,0,1,.6-.4,3.12,3.12,0,0,1,1-.2A1.65,1.65,0,0,1,362.45,59.11Zm.1,6a1.38,1.38,0,0,0,.6-.1c.2,0,.3-.1.5-.1v-1.2l-1.1.1a1.67,1.67,0,0,0-.7.2.53.53,0,0,0-.3.5.74.74,0,0,0,.2.5A2.41,2.41,0,0,0,362.55,65.11Z" style="fill:#000f96"/><path d="M370.15,66.81c-.2,0-.3.1-.5.1h-1.3a.54.54,0,0,1-.4-.2,1.27,1.27,0,0,1-.3-.4,1.25,1.25,0,0,1-.1-.6v-4.6a1.21,1.21,0,0,1,.1-.6.9.9,0,0,1,.4-.5c.2-.1.4-.3.6-.4a6.89,6.89,0,0,1,.8-.3c.3-.1.6-.1.8-.2a2.48,2.48,0,0,1,.9-.1,2,2,0,0,1,1.1.3,1,1,0,0,1,.4.9.63.63,0,0,1-.1.4.57.57,0,0,1-.2.4h-.6c-.2,0-.4.1-.6.1s-.4.1-.6.1-.3.1-.5.2v5.4Z" style="fill:#000f96"/><path d="M377.65,67a4.91,4.91,0,0,1-1.7-.3,2.56,2.56,0,0,1-1.3-.8,3.09,3.09,0,0,1-.9-1.3,5.53,5.53,0,0,1-.3-1.8,4.48,4.48,0,0,1,.3-1.7,2.62,2.62,0,0,1,.9-1.2,6.84,6.84,0,0,1,1.2-.7,6,6,0,0,1,1.4-.2,7,7,0,0,1,1.5.2,4.11,4.11,0,0,1,1.1.7,2.28,2.28,0,0,1,.7,1,2.89,2.89,0,0,1,.3,1.3,1.19,1.19,0,0,1-.3.8,2.23,2.23,0,0,1-.8.4l-3.7.6a1.45,1.45,0,0,0,.7.8,2.77,2.77,0,0,0,1.2.3,5.47,5.47,0,0,0,1.2-.2,3.81,3.81,0,0,0,.9-.4.75.75,0,0,1,.4.4,1.38,1.38,0,0,1,.2.6,1.13,1.13,0,0,1-.6,1,4,4,0,0,1-1.1.4A6.33,6.33,0,0,1,377.65,67Zm-.4-6a1.12,1.12,0,0,0-.6.1,1.17,1.17,0,0,0-.4.3.48.48,0,0,0-.2.4c0,.2-.1.3-.1.5l2.6-.4a.89.89,0,0,0-.3-.6A1.66,1.66,0,0,0,377.25,61Z" style="fill:#000f96"/><path d="M386.75,62.11a.94.94,0,0,0-.3-.7,1.76,1.76,0,0,0-.7-.2,1.12,1.12,0,0,0-.6.1c-.2.1-.4.1-.5.2v5.3c-.2,0-.3.1-.5.1h-1.3a.54.54,0,0,1-.4-.2,1.27,1.27,0,0,1-.3-.4,1.25,1.25,0,0,1-.1-.6v-4.6a1.67,1.67,0,0,1,.2-.7c.1-.2.3-.3.5-.5.4-.2.8-.4,1.3-.6a4.65,4.65,0,0,1,1.7-.2,3.94,3.94,0,0,1,2.6.8,2.73,2.73,0,0,1,.9,2.1v4.8c-.2,0-.3.1-.5.1h-1.3a.54.54,0,0,1-.4-.2,1.27,1.27,0,0,1-.3-.4,1.25,1.25,0,0,1-.1-.6l.1-3.6Z" style="fill:#000f96"/><path d="M395,61.11a1.51,1.51,0,0,0-.7.1,1.6,1.6,0,0,0-1,1,1.69,1.69,0,0,0-.2.8,2.41,2.41,0,0,0,.5,1.4,2.18,2.18,0,0,0,1.3.5,2.41,2.41,0,0,0,.8-.1c.2-.1.4-.1.6-.2a1.2,1.2,0,0,1,.5.5,1.33,1.33,0,0,1,.1.6,1.13,1.13,0,0,1-.6,1,4.68,4.68,0,0,1-3.3,0,5.75,5.75,0,0,1-1.3-.8,2.73,2.73,0,0,1-.9-1.2,4.41,4.41,0,0,1-.3-1.6,5.48,5.48,0,0,1,.3-1.8,3.58,3.58,0,0,1,.9-1.3,3.23,3.23,0,0,1,1.3-.7,6.86,6.86,0,0,1,1.5-.2,3.17,3.17,0,0,1,1.7.4,1.12,1.12,0,0,1,.6,1,.8.8,0,0,1-.1.5,1.68,1.68,0,0,1-.3.4,1.34,1.34,0,0,0-.6-.2C395.55,61.21,395.25,61.11,395,61.11Z" style="fill:#000f96"/><path d="M398.15,57.31a1.34,1.34,0,0,1,1.3-1.4h.1a1.16,1.16,0,0,1,1,.4,1.34,1.34,0,0,1,.11,1.89l-.11.11a1.3,1.3,0,0,1-1,.4,1.17,1.17,0,0,1-1-.4A1.72,1.72,0,0,1,398.15,57.31Zm2.7,9.5a.85.85,0,0,0-.5.1c-.2,0-.4.1-.7.1h-.6a.54.54,0,0,1-.4-.2,1.27,1.27,0,0,1-.3-.4,1.25,1.25,0,0,1-.1-.6v-6.2a1,1,0,0,0,.5-.1c.2,0,.4-.1.7-.1h.6a.51.51,0,0,1,.4.2,1.5,1.5,0,0,1,.3.4,1.33,1.33,0,0,1,.1.6Z" style="fill:#000f96"/><path d="M405.55,59.11a7,7,0,0,1,1.5.2,3.53,3.53,0,0,1,1.1.5,1.62,1.62,0,0,1,.7.9,2.89,2.89,0,0,1,.3,1.3v3.4a1.94,1.94,0,0,1-.2.7,1.09,1.09,0,0,1-.5.4,6.16,6.16,0,0,1-4.2.4,3.92,3.92,0,0,1-1.1-.5,2.55,2.55,0,0,1-.7-.8,2,2,0,0,1-.2-1.1,2.23,2.23,0,0,1,.6-1.6,3.06,3.06,0,0,1,1.9-.7l2-.2v-.1a.55.55,0,0,0-.4-.6,3.81,3.81,0,0,0-1.1-.2,3.7,3.7,0,0,0-1.1.1c-.4.1-.7.2-1,.3a1.27,1.27,0,0,1-.3-.4,1.25,1.25,0,0,1-.1-.6,1.38,1.38,0,0,1,.2-.6.8.8,0,0,1,.6-.4,3.12,3.12,0,0,1,1-.2A1.65,1.65,0,0,1,405.55,59.11Zm.1,6a1.38,1.38,0,0,0,.6-.1c.2,0,.3-.1.5-.1v-1.2l-1.1.1a1.67,1.67,0,0,0-.7.2.53.53,0,0,0-.3.5.74.74,0,0,0,.2.5C405,65.11,405.25,65.11,405.65,65.11Z" style="fill:#000f96"/><path d="M312.75,80.81a3.64,3.64,0,0,0-.4-.9c-.1-.3-.3-.7-.4-1.1s-.3-.9-.4-1.4-.3-1.1-.5-1.8a1.86,1.86,0,0,1,.6-.4,1.72,1.72,0,0,1,.8-.2,2.56,2.56,0,0,1,.9.2,1.38,1.38,0,0,1,.5.8l1.2,4.2h.1a4.67,4.67,0,0,1,.4-1.1c.1-.4.2-.8.3-1.3s.2-.9.3-1.3a6.39,6.39,0,0,0,.2-1.3,2.51,2.51,0,0,1,1.2-.3,2.56,2.56,0,0,1,.9.2,1.15,1.15,0,0,1,.3.8,3.78,3.78,0,0,1-.1,1c-.1.4-.2.7-.3,1.2s-.3.8-.4,1.3a5,5,0,0,1-.5,1.3c-.2.4-.3.8-.5,1.2a4.07,4.07,0,0,0-.5,1,8.64,8.64,0,0,1-.8,1.2,2.34,2.34,0,0,1-.7.7,2.7,2.7,0,0,1-.7.4,1.89,1.89,0,0,1-.7.1,1.17,1.17,0,0,1-1-.4,1.87,1.87,0,0,1-.5-1c.3-.3.6-.5,1-.9a10.69,10.69,0,0,0,.9-1,2.25,2.25,0,0,1-.6-.4C313.15,81.71,313,81.31,312.75,80.81Z" style="fill:#000f96"/><path d="M325.05,73.71a3.74,3.74,0,0,1,1.8-.4,5.25,5.25,0,0,1,1.3.2,1.21,1.21,0,0,1,.7.7c.2.5.4,1.2.6,1.9s.4,1.4.6,2.2.4,1.5.6,2.2.4,1.4.5,1.9a.58.58,0,0,1-.5.3,3.07,3.07,0,0,1-.9.1,1.36,1.36,0,0,1-.6-.1.54.54,0,0,1-.4-.2l-.3-.3c-.1-.1-.1-.3-.2-.5l-.3-1.1h-2.7a3.35,3.35,0,0,0-.2,1,3.35,3.35,0,0,0-.2,1,.63.63,0,0,1-.4.1c-.2,0-.3.1-.6.1a2.12,2.12,0,0,1-1.1-.3,1,1,0,0,1-.4-.7.55.55,0,0,1,.1-.4c0-.2.1-.3.1-.5a9.25,9.25,0,0,1,.3-1c.1-.4.3-.9.4-1.3a8.52,8.52,0,0,1,.5-1.5c.2-.5.3-1,.5-1.4a6.5,6.5,0,0,0,.4-1.2A3.52,3.52,0,0,0,325.05,73.71Zm1.8,2a7.78,7.78,0,0,1-.5,1.4c-.2.5-.3,1.1-.5,1.6h1.9c-.1-.6-.3-1.1-.4-1.6a6.14,6.14,0,0,0-.5-1.4Z" style="fill:#000f96"/><path d="M335,82.71c-.2,0-.3.1-.5.1h-1.3a.54.54,0,0,1-.4-.2,1.27,1.27,0,0,1-.3-.4,1.25,1.25,0,0,1-.1-.6V77a1.21,1.21,0,0,1,.1-.6.9.9,0,0,1,.4-.5c.2-.1.4-.3.6-.4a6.89,6.89,0,0,1,.8-.3c.3-.1.6-.1.8-.2a2.48,2.48,0,0,1,.9-.1,2,2,0,0,1,1.1.3,1,1,0,0,1,.4.9.63.63,0,0,1-.1.4.57.57,0,0,1-.2.4h-.6c-.2,0-.4.1-.6.1s-.4.1-.6.1-.3.1-.5.2v5.4Z" style="fill:#000f96"/><path d="M342.75,77.11a1.51,1.51,0,0,0-.7.1,1.6,1.6,0,0,0-1,1,1.69,1.69,0,0,0-.2.8,2.41,2.41,0,0,0,.5,1.4,2.18,2.18,0,0,0,1.3.5,2.41,2.41,0,0,0,.8-.1c.2-.1.4-.1.6-.2a1.2,1.2,0,0,1,.5.5,1.33,1.33,0,0,1,.1.6,1.13,1.13,0,0,1-.6,1,4.68,4.68,0,0,1-3.3,0,5.75,5.75,0,0,1-1.3-.8,2.73,2.73,0,0,1-.9-1.2,4.41,4.41,0,0,1-.3-1.6,5.48,5.48,0,0,1,.3-1.8,3.58,3.58,0,0,1,.9-1.3,3.23,3.23,0,0,1,1.3-.7,3.64,3.64,0,0,1,1.5-.2,3.17,3.17,0,0,1,1.7.4,1.12,1.12,0,0,1,.6,1,.8.8,0,0,1-.1.5,1.68,1.68,0,0,1-.3.4,1.47,1.47,0,0,0-.6-.2A2,2,0,0,0,342.75,77.11Z" style="fill:#000f96"/><path d="M353.15,82.71c-.2,0-.3.1-.5.1h-1.3a.54.54,0,0,1-.4-.2,1.27,1.27,0,0,1-.3-.4,1.25,1.25,0,0,1-.1-.6v-3.4a1.44,1.44,0,0,0-.3-.9,1.14,1.14,0,0,0-.8-.3,1.12,1.12,0,0,0-.6.1c-.2.1-.3.1-.4.2v5.4c-.2,0-.3.1-.5.1h-1.3a.54.54,0,0,1-.4-.2,1.27,1.27,0,0,1-.3-.4,1.25,1.25,0,0,1-.1-.6v-8.9a1,1,0,0,0,.5-.1,1.51,1.51,0,0,1,.7-.1h.6a.51.51,0,0,1,.4.2,1.5,1.5,0,0,1,.3.4,1.33,1.33,0,0,1,.1.6v1.5c.1-.1.3-.1.6-.2a2.47,2.47,0,0,1,.9-.1,3.2,3.2,0,0,1,2.3.8,2.88,2.88,0,0,1,.8,2.3Z" style="fill:#000f96"/><path d="M354.75,73.21a1.34,1.34,0,0,1,1.3-1.4h.1a1.16,1.16,0,0,1,1,.4,1.34,1.34,0,0,1,.11,1.89l-.11.11a1.3,1.3,0,0,1-1,.4,1.17,1.17,0,0,1-1-.4A1.27,1.27,0,0,1,354.75,73.21Zm2.6,9.5a.85.85,0,0,0-.5.1c-.2,0-.4.1-.7.1h-.6a.54.54,0,0,1-.4-.2,1.27,1.27,0,0,1-.3-.4,1.25,1.25,0,0,1-.1-.6v-6.2a1,1,0,0,0,.5-.1c.2,0,.4-.1.7-.1h.6a.51.51,0,0,1,.4.2,1.5,1.5,0,0,1,.3.4,1.33,1.33,0,0,1,.1.6Z" style="fill:#000f96"/><path d="M364,82.51l-.6.3a3.07,3.07,0,0,1-.9.1,3.78,3.78,0,0,1-1-.2,1,1,0,0,1-.6-.5c-.1-.2-.2-.5-.3-.7a10.37,10.37,0,0,1-.4-1c-.1-.3-.3-.8-.4-1.2a6.1,6.1,0,0,1-.4-1.3c-.1-.4-.3-.8-.4-1.2s-.2-.8-.3-1.1a1.86,1.86,0,0,1,.6-.4,1.72,1.72,0,0,1,.8-.2,2.56,2.56,0,0,1,.9.2,1.38,1.38,0,0,1,.5.8l.6,2.3c.1.5.2.9.3,1.3a3,3,0,0,1,.2.9h.1c.2-.8.4-1.6.6-2.5l.6-2.7a1.38,1.38,0,0,1,.6-.2,1.12,1.12,0,0,1,.6-.1,2.56,2.56,0,0,1,.9.2,1.21,1.21,0,0,1,.4.8,1.89,1.89,0,0,1-.1.7c-.1.3-.2.7-.3,1.1s-.3.8-.4,1.3a5,5,0,0,1-.5,1.3c-.2.4-.3.8-.5,1.2A1.46,1.46,0,0,0,364,82.51Z" style="fill:#000f96"/><path d="M374.85,79a5,5,0,0,1-.3,1.7,6.23,6.23,0,0,1-.8,1.3,9.63,9.63,0,0,1-1.2.8,4.42,4.42,0,0,1-3.2,0,2,2,0,0,1-1.2-.8,5.49,5.49,0,0,1-.8-1.3,4.52,4.52,0,0,1-.3-1.7,4.37,4.37,0,0,1,.3-1.6,5.12,5.12,0,0,1,.8-1.3,7.59,7.59,0,0,1,1.2-.8,4.42,4.42,0,0,1,3.2,0,4.74,4.74,0,0,1,1.2.8,4.36,4.36,0,0,1,1.1,2.9Zm-5.3,0a1.78,1.78,0,0,0,.4,1.4,1.25,1.25,0,0,0,1.75.25,2,2,0,0,0,.25-.25,3.42,3.42,0,0,0,0-2.8,1.24,1.24,0,0,0-1.75-.25,1,1,0,0,0-.25.25,1.76,1.76,0,0,0-.4,1.4Z" style="fill:#000f96"/><path d="M382.25,80.51a2.15,2.15,0,0,1-.9,1.8,4.35,4.35,0,0,1-2.5.7,5.31,5.31,0,0,1-1.2-.1l-.9-.3a1,1,0,0,1-.6-.5,1.76,1.76,0,0,1-.2-.7,1.38,1.38,0,0,1,.2-.6.75.75,0,0,1,.4-.4,3.13,3.13,0,0,0,1,.4,6.29,6.29,0,0,0,1.3.2c.3,0,.6,0,.7-.1a.52.52,0,0,0,.2-.4c0-.2-.1-.3-.2-.3a3.93,3.93,0,0,1-.6-.2l-.5-.1a5.14,5.14,0,0,1-2-.8,2.27,2.27,0,0,1-.6-1.6,3.35,3.35,0,0,1,.2-1,2.44,2.44,0,0,1,.7-.8,2.94,2.94,0,0,1,1-.5,5.18,5.18,0,0,1,1.3-.2,3.1,3.1,0,0,1,1,.1l.9.3c.2.1.4.3.6.4s.2.4.2.6a1.38,1.38,0,0,1-.1.6,1.68,1.68,0,0,1-.3.4c-.1-.1-.2-.1-.4-.2s-.3-.1-.5-.2a1.27,1.27,0,0,0-.6-.1h-.5a2,2,0,0,0-.8.1c-.2.1-.3.2-.3.4s.1.2.2.3.3.1.6.2l.5.1a4,4,0,0,1,2.1.9A2.28,2.28,0,0,1,382.25,80.51Z" style="fill:#000f96"/><path d="M386.15,79a5.48,5.48,0,0,1,.3-1.8,4.57,4.57,0,0,1,.8-1.2,3.23,3.23,0,0,1,1.3-.7,3.64,3.64,0,0,1,1.5-.2,1.14,1.14,0,0,1,.6.1c.2,0,.3.1.5.1v-2.5c.2,0,.3-.1.5-.1s.4-.1.7-.1h.6a.51.51,0,0,1,.4.2,1.5,1.5,0,0,1,.3.4,1.33,1.33,0,0,1,.1.6v7.3a1.42,1.42,0,0,1-.7,1.2,4.05,4.05,0,0,1-1.1.5,9.59,9.59,0,0,1-1.6.2,4.4,4.4,0,0,1-3.1-1.1,2.64,2.64,0,0,1-.8-1.3A4,4,0,0,1,386.15,79Zm4.3-1.9a2.06,2.06,0,0,0-1.3.5,2.8,2.8,0,0,0,0,2.8,1.68,1.68,0,0,0,1.2.5,1,1,0,0,0,.5-.1c.1-.1.3-.1.3-.2v-3.4A1.55,1.55,0,0,0,390.45,77.11Z" style="fill:#000f96"/><path d="M399.25,83a4.91,4.91,0,0,1-1.7-.3,3.63,3.63,0,0,1-1.3-.8,3.09,3.09,0,0,1-.9-1.3,5.53,5.53,0,0,1-.3-1.8,4.48,4.48,0,0,1,.3-1.7,2.62,2.62,0,0,1,.9-1.2,6.84,6.84,0,0,1,1.2-.7,6,6,0,0,1,1.4-.2,7,7,0,0,1,1.5.2,4.11,4.11,0,0,1,1.1.7,2.28,2.28,0,0,1,.7,1,2.89,2.89,0,0,1,.3,1.3,1.19,1.19,0,0,1-.3.8,2.23,2.23,0,0,1-.8.4l-3.7.6a1.45,1.45,0,0,0,.7.8,2.77,2.77,0,0,0,1.2.3,5.47,5.47,0,0,0,1.2-.2,3.81,3.81,0,0,0,.9-.4.75.75,0,0,1,.4.4,1.38,1.38,0,0,1,.2.6,1.13,1.13,0,0,1-.6,1,4,4,0,0,1-1.1.4C400,82.91,399.55,83,399.25,83Zm-.5-6.1a1.12,1.12,0,0,0-.6.1,1.17,1.17,0,0,0-.4.3.48.48,0,0,0-.2.4.85.85,0,0,0-.1.5l2.6-.4a.89.89,0,0,0-.3-.6A1.66,1.66,0,0,0,398.75,76.91Z" style="fill:#000f96"/><path d="M406.25,82.71a.85.85,0,0,0-.5.1c-.2,0-.4.1-.7.1h-.6a.54.54,0,0,1-.4-.2,1.27,1.27,0,0,1-.3-.4,1.25,1.25,0,0,1-.1-.6v-8.9a1,1,0,0,0,.5-.1,1.51,1.51,0,0,1,.7-.1h.6a.51.51,0,0,1,.4.2,1.5,1.5,0,0,1,.3.4,1.33,1.33,0,0,1,.1.6Z" style="fill:#000f96"/><path d="M314.45,98.61c-.2,0-.3.1-.5.1h-.7a1.36,1.36,0,0,1-.6-.1c-.2-.1-.3-.1-.4-.2a1.27,1.27,0,0,1-.3-.4,1.25,1.25,0,0,1-.1-.6v-7.2a.7.7,0,0,1,.2-.5c.2-.1.3-.2.5-.3l1.2-.3a5.15,5.15,0,0,1,1.3-.1,4.59,4.59,0,0,1,3.2.9,3.25,3.25,0,0,1,1.1,2.5,7.38,7.38,0,0,1-.2,1.4,2.34,2.34,0,0,1-.7,1,3.09,3.09,0,0,1-1.2.7,4.57,4.57,0,0,1-1.6.2h-1.1v2.9Zm.8-4.9a1.8,1.8,0,0,0,1-.3,1.48,1.48,0,0,0,.3-.9,1,1,0,0,0-.4-.9,1.66,1.66,0,0,0-1-.3h-.7v2.4Z" style="fill:#000f96"/><path d="M328,95a5,5,0,0,1-.3,1.7,6.23,6.23,0,0,1-.8,1.3,9.63,9.63,0,0,1-1.2.8,4.42,4.42,0,0,1-3.2,0,2,2,0,0,1-1.2-.8,5.49,5.49,0,0,1-.8-1.3,4.52,4.52,0,0,1-.3-1.7,4.37,4.37,0,0,1,.3-1.6,5.12,5.12,0,0,1,.8-1.3,7.59,7.59,0,0,1,1.2-.8,4.42,4.42,0,0,1,3.2,0,4.74,4.74,0,0,1,1.2.8,5.75,5.75,0,0,1,.8,1.3A4.83,4.83,0,0,1,328,95Zm-5.3,0a1.78,1.78,0,0,0,.4,1.4,1.25,1.25,0,0,0,1.75.25,2,2,0,0,0,.25-.25,3.42,3.42,0,0,0,0-2.8,1.24,1.24,0,0,0-1.75-.25,1,1,0,0,0-.25.25A1.76,1.76,0,0,0,322.65,95Z" style="fill:#000f96"/><path d="M328.85,95a5.48,5.48,0,0,1,.3-1.8A4.57,4.57,0,0,1,330,92a3.23,3.23,0,0,1,1.3-.7,3.64,3.64,0,0,1,1.5-.2,1.14,1.14,0,0,1,.6.1.94.94,0,0,0,.5.1v-2.5c.2,0,.3-.1.5-.1s.4-.1.7-.1h.6a.51.51,0,0,1,.4.2,1.5,1.5,0,0,1,.3.4,1.33,1.33,0,0,1,.1.6v7.3a1.42,1.42,0,0,1-.7,1.2,4.05,4.05,0,0,1-1.1.5,9.59,9.59,0,0,1-1.6.2,4.4,4.4,0,0,1-3.1-1.1,2.64,2.64,0,0,1-.8-1.3A4,4,0,0,1,328.85,95Zm4.3-2a2.06,2.06,0,0,0-1.3.5,2.8,2.8,0,0,0,0,2.8,1.68,1.68,0,0,0,1.2.5,1,1,0,0,0,.5-.1c.1-.1.3-.1.3-.2v-3.4C333.65,93.11,333.45,93,333.15,93Z" style="fill:#000f96"/><path d="M342,98.91a4.91,4.91,0,0,1-1.7-.3,3.63,3.63,0,0,1-1.3-.8,3.09,3.09,0,0,1-.9-1.3,5.53,5.53,0,0,1-.3-1.8,4.48,4.48,0,0,1,.3-1.7,2.62,2.62,0,0,1,.9-1.2,6.84,6.84,0,0,1,1.2-.7,6,6,0,0,1,1.4-.2,7,7,0,0,1,1.5.2,4.11,4.11,0,0,1,1.1.7,2.28,2.28,0,0,1,.7,1,2.89,2.89,0,0,1,.3,1.3,1.19,1.19,0,0,1-.3.8,2.23,2.23,0,0,1-.8.4l-3.7.6a1.45,1.45,0,0,0,.7.8,2.77,2.77,0,0,0,1.2.3,5.47,5.47,0,0,0,1.2-.2,3.81,3.81,0,0,0,.9-.4.75.75,0,0,1,.4.4,1.38,1.38,0,0,1,.2.6,1.13,1.13,0,0,1-.6,1,4,4,0,0,1-1.1.4A6.33,6.33,0,0,1,342,98.91Zm-.5-6a1.12,1.12,0,0,0-.6.1,1.17,1.17,0,0,0-.4.3.48.48,0,0,0-.2.4.85.85,0,0,0-.1.5l2.6-.4a.89.89,0,0,0-.3-.6A1.66,1.66,0,0,0,341.45,92.91Z" style="fill:#000f96"/><path d="M348.85,98.71c-.2,0-.3.1-.5.1h-1.3a.54.54,0,0,1-.4-.2,1.27,1.27,0,0,1-.3-.4,1.25,1.25,0,0,1-.1-.6V93a1.21,1.21,0,0,1,.1-.6.9.9,0,0,1,.4-.5c.2-.1.4-.3.6-.4a6.89,6.89,0,0,1,.8-.3c.3-.1.6-.1.8-.2a2.48,2.48,0,0,1,.9-.1,1.94,1.94,0,0,1,1.1.3,1,1,0,0,1,.4.9.63.63,0,0,1-.1.4.57.57,0,0,1-.2.4h-.6c-.2,0-.4.1-.6.1s-.4.1-.6.1-.3.1-.5.2v5.4Z" style="fill:#000f96"/><path d="M355.75,90.81a1.15,1.15,0,0,1,.4-1,1.26,1.26,0,0,1,1-.4h5c.1.1.1.3.2.4a1.33,1.33,0,0,1,.1.6,1.09,1.09,0,0,1-.2.8.85.85,0,0,1-.7.2h-3.2v1.5h3.4c.1.1.1.3.2.4a1.33,1.33,0,0,1,.1.6,1.09,1.09,0,0,1-.2.8.77.77,0,0,1-.6.2h-2.8v1.6h3.9c.1.1.1.3.2.4a1.33,1.33,0,0,1,.1.6,1.09,1.09,0,0,1-.2.8,1,1,0,0,1-.7.3h-4.4a1.17,1.17,0,0,1-1-.4,1.27,1.27,0,0,1-.4-1v-6.4Z" style="fill:#000f96"/><path d="M363.25,99.71a1,1,0,0,0,.5-.6,2.54,2.54,0,0,0,.2-.8v-7a1,1,0,0,0,.5-.1c.2,0,.4-.1.7-.1h.6a.51.51,0,0,1,.4.2,1.5,1.5,0,0,1,.3.4,1.33,1.33,0,0,1,.1.6v6.1a5.47,5.47,0,0,1-.2,1.2,3.81,3.81,0,0,1-.4.9,1.41,1.41,0,0,1-.7.6,3.09,3.09,0,0,1-.9.2,1.17,1.17,0,0,1-1-.4,1.27,1.27,0,0,1-.4-1Zm.5-10.6a1.34,1.34,0,0,1,1.3-1.4h.1a1.16,1.16,0,0,1,1,.4,1.34,1.34,0,0,1,.11,1.89l-.11.11a1.3,1.3,0,0,1-1,.4,1.17,1.17,0,0,1-1-.4A1.72,1.72,0,0,1,363.75,89.11Z" style="fill:#000f96"/><path d="M372,98.91a4.91,4.91,0,0,1-1.7-.3,3.63,3.63,0,0,1-1.3-.8,3.09,3.09,0,0,1-.9-1.3,5.53,5.53,0,0,1-.3-1.8,4.48,4.48,0,0,1,.3-1.7,2.62,2.62,0,0,1,.9-1.2,6.84,6.84,0,0,1,1.2-.7,6,6,0,0,1,1.4-.2,7,7,0,0,1,1.5.2,4.11,4.11,0,0,1,1.1.7,2.28,2.28,0,0,1,.7,1,2.89,2.89,0,0,1,.3,1.3,1.19,1.19,0,0,1-.3.8,2.23,2.23,0,0,1-.8.4l-3.7.6a1.45,1.45,0,0,0,.7.8,2.77,2.77,0,0,0,1.2.3,5.47,5.47,0,0,0,1.2-.2,3.81,3.81,0,0,0,.9-.4.75.75,0,0,1,.4.4,1.38,1.38,0,0,1,.2.6,1.13,1.13,0,0,1-.6,1,4,4,0,0,1-1.1.4A6.33,6.33,0,0,1,372,98.91Zm-.4-6a1.12,1.12,0,0,0-.6.1,1.17,1.17,0,0,0-.4.3.48.48,0,0,0-.2.4.85.85,0,0,0-.1.5l2.6-.4a.89.89,0,0,0-.3-.6A1.66,1.66,0,0,0,371.55,92.91Z" style="fill:#000f96"/><path d="M380.55,93a1.51,1.51,0,0,0-.7.1,1.6,1.6,0,0,0-1,1,1.69,1.69,0,0,0-.2.8,2.41,2.41,0,0,0,.5,1.4,2.18,2.18,0,0,0,1.3.5,2.41,2.41,0,0,0,.8-.1c.2-.1.4-.1.6-.2a1.2,1.2,0,0,1,.5.5,1.33,1.33,0,0,1,.1.6,1.13,1.13,0,0,1-.6,1,4.68,4.68,0,0,1-3.3,0,5.75,5.75,0,0,1-1.3-.8,2.73,2.73,0,0,1-.9-1.2,4.41,4.41,0,0,1-.3-1.6,5.48,5.48,0,0,1,.3-1.8,3.58,3.58,0,0,1,.9-1.3,3.23,3.23,0,0,1,1.3-.7,3.64,3.64,0,0,1,1.5-.2,3.17,3.17,0,0,1,1.7.4,1.12,1.12,0,0,1,.6,1,.8.8,0,0,1-.1.5,1.68,1.68,0,0,1-.3.4,1.47,1.47,0,0,0-.6-.2C381.05,93.11,380.75,93,380.55,93Z" style="fill:#000f96"/><path d="M383.75,91.31c.2,0,.3-.1.5-.1h1.3a.51.51,0,0,1,.4.2,1.5,1.5,0,0,1,.3.4,1.33,1.33,0,0,1,.1.6v3.3a1,1,0,0,0,.77,1.18l.13,0h.3a1.38,1.38,0,0,0,.6-.1c.1,0,.2-.1.3-.1v-5.4c.2,0,.3-.1.5-.1h1.3a.51.51,0,0,1,.4.2,1.5,1.5,0,0,1,.3.4,1.33,1.33,0,0,1,.1.6v4.7a1.46,1.46,0,0,1-.6,1.2,5.55,5.55,0,0,1-1.3.5,5.45,5.45,0,0,1-3.1,0,2.36,2.36,0,0,1-1.2-.6,4,4,0,0,1-.8-1,3.9,3.9,0,0,1-.3-1.5Z" style="fill:#000f96"/><path d="M395.05,96.11a1.47,1.47,0,0,0,.2.6,1.83,1.83,0,0,0,.7.2h.5c.2,0,.3-.1.4-.1a.54.54,0,0,1,.2.4.78.78,0,0,1,.1.5,1.3,1.3,0,0,1-.4,1,2.86,2.86,0,0,1-1.5.4,3,3,0,0,1-2-.6,2.49,2.49,0,0,1-.7-2v-6.6c.2,0,.3-.1.5-.1s.4-.1.7-.1a3.12,3.12,0,0,1,1,.2,1.28,1.28,0,0,1,.4,1v1h2c.1.1.1.3.2.4a1.33,1.33,0,0,1,.1.6,2.05,2.05,0,0,1-.2.8.77.77,0,0,1-.6.2h-1.4v2.2Z" style="fill:#000f96"/><path d="M398.45,89.11a1.34,1.34,0,0,1,1.3-1.4h.1a1.16,1.16,0,0,1,1,.4A1.34,1.34,0,0,1,401,90a1.14,1.14,0,0,0-.11.11,1.3,1.3,0,0,1-1,.4,1.17,1.17,0,0,1-1-.4A1.72,1.72,0,0,1,398.45,89.11Zm2.7,9.6a.85.85,0,0,0-.5.1c-.2,0-.4.1-.7.1h-.6a.54.54,0,0,1-.4-.2,1.27,1.27,0,0,1-.3-.4,1.25,1.25,0,0,1-.1-.6v-6.2a1,1,0,0,0,.5-.1c.2,0,.4-.1.7-.1h.6a.51.51,0,0,1,.4.2,1.5,1.5,0,0,1,.3.4,1.33,1.33,0,0,1,.1.6Z" style="fill:#000f96"/><path d="M407.75,98.51l-.6.3a3.07,3.07,0,0,1-.9.1,3.78,3.78,0,0,1-1-.2,1,1,0,0,1-.6-.5c-.1-.2-.2-.5-.3-.7a10.37,10.37,0,0,1-.4-1c-.1-.3-.3-.8-.4-1.2a6.1,6.1,0,0,1-.4-1.3c-.1-.4-.3-.8-.4-1.2s-.2-.8-.3-1.1a1.86,1.86,0,0,1,.6-.4,1.72,1.72,0,0,1,.8-.2,2.56,2.56,0,0,1,.9.2,1.38,1.38,0,0,1,.5.8l.6,2.3c.1.5.2.9.3,1.3a3,3,0,0,1,.2.9h.1c.2-.8.4-1.6.6-2.5l.6-2.7a1.38,1.38,0,0,1,.6-.2,1.12,1.12,0,0,1,.6-.1,2.56,2.56,0,0,1,.9.2,1.21,1.21,0,0,1,.4.8,1.89,1.89,0,0,1-.1.7c-.1.3-.2.7-.3,1.1s-.3.8-.4,1.3a5,5,0,0,1-.5,1.3c-.2.4-.3.8-.5,1.2A1.46,1.46,0,0,0,407.75,98.51Z" style="fill:#000f96"/><path d="M418.65,95a5,5,0,0,1-.3,1.7,6.23,6.23,0,0,1-.8,1.3,9.63,9.63,0,0,1-1.2.8,4.42,4.42,0,0,1-3.2,0A2,2,0,0,1,412,98a5.49,5.49,0,0,1-.8-1.3,4.52,4.52,0,0,1-.3-1.7,4.37,4.37,0,0,1,.3-1.6,5.12,5.12,0,0,1,.8-1.3,7.59,7.59,0,0,1,1.2-.8,4.42,4.42,0,0,1,3.2,0,4.74,4.74,0,0,1,1.2.8,5.75,5.75,0,0,1,.8,1.3A4.83,4.83,0,0,1,418.65,95Zm-5.3,0a1.78,1.78,0,0,0,.4,1.4,1.25,1.25,0,0,0,1.75.25,2,2,0,0,0,.25-.25,3.42,3.42,0,0,0,0-2.8,1.24,1.24,0,0,0-1.75-.25,1,1,0,0,0-.25.25A1.76,1.76,0,0,0,413.35,95Z" style="fill:#000f96"/><path d="M301,117.51h0a.68.68,0,0,1-.7-.66v0h0V21.51a.67.67,0,0,1,.66-.7h0a.67.67,0,0,1,.7.66v0h0v95.4C301.65,117.31,301.35,117.51,301,117.51Z" style="fill:#000f96"/><path d="M262.18,27.27h0A69.07,69.07,0,0,0,203.5.14L69.16,0V138.25H205.9A68.83,68.83,0,0,0,249,124.14l0,0A69.08,69.08,0,0,0,262.18,27.27Z" style="fill:#ff5ac8"/><path d="M27.24,14.17l0,0a69.14,69.14,0,0,1,96.88,13.09h0a69.06,69.06,0,0,1-13.1,96.83l0,0A69.15,69.15,0,0,1,14.15,111h0A69.07,69.07,0,0,1,27.24,14.17Z" style="fill:url(#a)"/><path d="M28.31,96.35a.84.84,0,0,1-.12.5,1.19,1.19,0,0,1-.37.31,2.81,2.81,0,0,1-.38.17,3.17,3.17,0,0,1-.49.13l-.56.1a5.83,5.83,0,0,1-.59,0,4.89,4.89,0,0,1-1.45-.21,3.3,3.3,0,0,1-1.17-.63,3.1,3.1,0,0,1-.79-1.06,3.54,3.54,0,0,1-.29-1.47,3.48,3.48,0,0,1,.32-1.53,3.15,3.15,0,0,1,.84-1.09A3.36,3.36,0,0,1,24.45,91a4.51,4.51,0,0,1,1.37-.21,3.38,3.38,0,0,1,1.62.32,1,1,0,0,1,.59.86.8.8,0,0,1-.14.48,1.22,1.22,0,0,1-.32.32,4.71,4.71,0,0,0-.67-.32,2.57,2.57,0,0,0-.9-.15,2,2,0,0,0-1.44.51A1.92,1.92,0,0,0,24,94.19a2.19,2.19,0,0,0,.15.85,1.45,1.45,0,0,0,.39.59,1.5,1.5,0,0,0,.57.34,1.91,1.91,0,0,0,.68.12,1.73,1.73,0,0,0,.42,0,1.54,1.54,0,0,0,.28-.09v-1H25.37a2,2,0,0,1-.12-.31,1.4,1.4,0,0,1-.06-.41.75.75,0,0,1,.18-.56.64.64,0,0,1,.45-.17h1.82a.64.64,0,0,1,.49.18.67.67,0,0,1,.18.5Z" style="fill:#fff"/><path d="M31.11,97.41l-.34.06a3.64,3.64,0,0,1-.48,0,2.67,2.67,0,0,1-.42,0,.66.66,0,0,1-.32-.13.67.67,0,0,1-.2-.26,1.31,1.31,0,0,1-.07-.44V93.43a.83.83,0,0,1,.1-.43.94.94,0,0,1,.26-.31,1.68,1.68,0,0,1,.42-.26,4.29,4.29,0,0,1,.54-.19c.2-.06.4-.1.6-.14a4.46,4.46,0,0,1,.63,0,1.47,1.47,0,0,1,.81.2.73.73,0,0,1,.3.65,1,1,0,0,1,0,.3,2,2,0,0,1-.11.26l-.46,0-.46.07a2.59,2.59,0,0,0-.42.09,1.7,1.7,0,0,0-.34.11Z" style="fill:#fff"/><path d="M35.53,92a4.35,4.35,0,0,1,1.06.12,2.4,2.4,0,0,1,.81.36,1.6,1.6,0,0,1,.52.61,2,2,0,0,1,.18.88v2.4a.66.66,0,0,1-.15.45,1.85,1.85,0,0,1-.37.31,3.83,3.83,0,0,1-2,.42,4.65,4.65,0,0,1-1-.11,2.5,2.5,0,0,1-.78-.32,1.49,1.49,0,0,1-.51-.55,1.71,1.71,0,0,1-.17-.77,1.45,1.45,0,0,1,.44-1.14,2.34,2.34,0,0,1,1.36-.49l1.4-.15V94a.46.46,0,0,0-.27-.44,1.82,1.82,0,0,0-.79-.13,3.47,3.47,0,0,0-.79.08,4.12,4.12,0,0,0-.7.22.8.8,0,0,1-.23-.3.86.86,0,0,1-.1-.41.69.69,0,0,1,.13-.45,1.06,1.06,0,0,1,.42-.28,2.8,2.8,0,0,1,.73-.17A5.7,5.7,0,0,1,35.53,92Zm.09,4.22a2,2,0,0,0,.4,0,.93.93,0,0,0,.32-.1v-.86l-.77.07a1.14,1.14,0,0,0-.49.12.36.36,0,0,0-.19.33.41.41,0,0,0,.16.34A.91.91,0,0,0,35.62,96.26Z" style="fill:#fff"/><path d="M42.52,94.11a.57.57,0,0,0-.19-.48.73.73,0,0,0-.51-.16,2,2,0,0,0-.42,0,1.19,1.19,0,0,0-.36.16v3.73l-.34.06a3.59,3.59,0,0,1-.47,0,2.81,2.81,0,0,1-.43,0,.62.62,0,0,1-.31-.13.52.52,0,0,1-.2-.26,1.1,1.1,0,0,1-.07-.44V93.43a.82.82,0,0,1,.12-.47,1.22,1.22,0,0,1,.34-.34,3.15,3.15,0,0,1,.92-.42A4.56,4.56,0,0,1,41.82,92a2.93,2.93,0,0,1,1.87.53,1.8,1.8,0,0,1,.65,1.48v3.36l-.33.06a3.87,3.87,0,0,1-.48,0,2.58,2.58,0,0,1-.42,0,.66.66,0,0,1-.32-.13.59.59,0,0,1-.2-.26,1.1,1.1,0,0,1-.07-.44Z" style="fill:#fff"/><path d="M45.24,94.81a3.29,3.29,0,0,1,.22-1.23,2.4,2.4,0,0,1,.59-.86,2.46,2.46,0,0,1,.89-.51A3.57,3.57,0,0,1,48,92a2.72,2.72,0,0,1,.42,0l.33.09V90.43l.35-.06a2.52,2.52,0,0,1,.48,0,2.58,2.58,0,0,1,.42,0,.66.66,0,0,1,.32.13.51.51,0,0,1,.19.26,1.1,1.1,0,0,1,.07.44v5.08a.92.92,0,0,1-.47.8,3.07,3.07,0,0,1-.81.36,3.61,3.61,0,0,1-1.14.16,3.66,3.66,0,0,1-1.24-.2,2.51,2.51,0,0,1-.94-.55,2.65,2.65,0,0,1-.58-.88A3.19,3.19,0,0,1,45.24,94.81Zm3-1.34a1.16,1.16,0,0,0-.89.33,1.42,1.42,0,0,0-.31,1,1.51,1.51,0,0,0,.29,1,1,1,0,0,0,.83.34,1,1,0,0,0,.35-.06A.66.66,0,0,0,48.8,96V93.6A.92.92,0,0,0,48.29,93.47Z" style="fill:#fff"/><path d="M54,97.59a3.68,3.68,0,0,1-1.17-.18,2.68,2.68,0,0,1-.95-.53,2.4,2.4,0,0,1-.63-.89,3.24,3.24,0,0,1-.23-1.25,3,3,0,0,1,.23-1.22,2.4,2.4,0,0,1,.61-.84,2.31,2.31,0,0,1,.85-.48,3.36,3.36,0,0,1,1-.16,2.91,2.91,0,0,1,1,.18,2.45,2.45,0,0,1,.8.47,2.18,2.18,0,0,1,.71,1.63.77.77,0,0,1-.2.56,1.07,1.07,0,0,1-.57.24l-2.65.4a.92.92,0,0,0,.48.53,1.92,1.92,0,0,0,.84.18,2.82,2.82,0,0,0,.83-.12,2.42,2.42,0,0,0,.64-.26.93.93,0,0,1,.29.3.79.79,0,0,1-.33,1.13,2.37,2.37,0,0,1-.78.24A4.56,4.56,0,0,1,54,97.59Zm-.3-4.22a1,1,0,0,0-.44.09.91.91,0,0,0-.31.22.92.92,0,0,0-.18.3,1.28,1.28,0,0,0-.07.34l1.84-.3a.75.75,0,0,0-.24-.43A.76.76,0,0,0,53.74,93.37Z" style="fill:#fff"/><path d="M57.17,97.42a1.09,1.09,0,0,1-.28-.36,1.11,1.11,0,0,1-.1-.46,1.07,1.07,0,0,1,.1-.42,1.66,1.66,0,0,1,.26-.39L59,93.62H57a1.42,1.42,0,0,1-.13-.3,1.25,1.25,0,0,1-.06-.4.74.74,0,0,1,.17-.54.61.61,0,0,1,.45-.16h3.37a1.06,1.06,0,0,1,.28.35,1.15,1.15,0,0,1,.1.46,1.07,1.07,0,0,1-.1.42,2,2,0,0,1-.26.39L59,96h2.11a2.33,2.33,0,0,1,.12.3,1.29,1.29,0,0,1,.06.4.74.74,0,0,1-.17.54.6.6,0,0,1-.44.17Z" style="fill:#fff"/><path d="M64.29,92a4.32,4.32,0,0,1,1,.12,2.46,2.46,0,0,1,.82.36,1.7,1.7,0,0,1,.52.61,2,2,0,0,1,.18.88v2.4a.66.66,0,0,1-.15.45,1.66,1.66,0,0,1-.38.31,3.78,3.78,0,0,1-2,.42,4.49,4.49,0,0,1-1-.11,2.32,2.32,0,0,1-.78-.32,1.49,1.49,0,0,1-.51-.55,1.59,1.59,0,0,1-.18-.77,1.48,1.48,0,0,1,.44-1.14,2.41,2.41,0,0,1,1.37-.49l1.4-.15V94a.46.46,0,0,0-.27-.44,1.85,1.85,0,0,0-.79-.13,3.42,3.42,0,0,0-.79.08,4.12,4.12,0,0,0-.7.22.93.93,0,0,1-.24-.3,1,1,0,0,1-.09-.41.69.69,0,0,1,.13-.45,1.09,1.09,0,0,1,.41-.28,3,3,0,0,1,.74-.17A5.7,5.7,0,0,1,64.29,92Zm.08,4.22a1.94,1.94,0,0,0,.4,0,.92.92,0,0,0,.33-.1v-.86l-.77.07a1.14,1.14,0,0,0-.49.12.36.36,0,0,0-.2.33.42.42,0,0,0,.17.34A.9.9,0,0,0,64.37,96.26Z" style="fill:#fff"/><path d="M69.46,94.81a3.3,3.3,0,0,1,.21-1.23,2.55,2.55,0,0,1,.6-.86,2.38,2.38,0,0,1,.89-.51,3.52,3.52,0,0,1,1.1-.17,3,3,0,0,1,.42,0l.33.09V90.43l.34-.06a2.59,2.59,0,0,1,.48,0,2.81,2.81,0,0,1,.43,0,.62.62,0,0,1,.31.13.59.59,0,0,1,.2.26,1.33,1.33,0,0,1,.06.44v5.08a.92.92,0,0,1-.47.8,3.14,3.14,0,0,1-.8.36,3.61,3.61,0,0,1-1.14.16,3.72,3.72,0,0,1-1.25-.2,2.4,2.4,0,0,1-.93-.55,2.37,2.37,0,0,1-.58-.88A3.19,3.19,0,0,1,69.46,94.81Zm3-1.34a1.18,1.18,0,0,0-.89.33,1.47,1.47,0,0,0-.31,1,1.51,1.51,0,0,0,.29,1,1.05,1.05,0,0,0,.84.34,1,1,0,0,0,.35-.06A.89.89,0,0,0,73,96V93.6A.93.93,0,0,0,72.5,93.47Z" style="fill:#fff"/><path d="M78.54,97.59a3.68,3.68,0,0,1-1.17-.18,2.68,2.68,0,0,1-1-.53,2.4,2.4,0,0,1-.63-.89,3.24,3.24,0,0,1-.23-1.25,3,3,0,0,1,.23-1.22,2.4,2.4,0,0,1,.61-.84,2.31,2.31,0,0,1,.85-.48,3.36,3.36,0,0,1,1-.16,2.91,2.91,0,0,1,1,.18,2.45,2.45,0,0,1,.8.47,2.18,2.18,0,0,1,.71,1.63.77.77,0,0,1-.2.56,1.07,1.07,0,0,1-.57.24l-2.65.4a.92.92,0,0,0,.48.53,1.92,1.92,0,0,0,.84.18,2.82,2.82,0,0,0,.83-.12,2.42,2.42,0,0,0,.64-.26.93.93,0,0,1,.29.3.79.79,0,0,1-.33,1.13,2.37,2.37,0,0,1-.78.24A4.56,4.56,0,0,1,78.54,97.59Zm-.3-4.22a1,1,0,0,0-.44.09.91.91,0,0,0-.31.22.92.92,0,0,0-.18.3,1.28,1.28,0,0,0-.07.34l1.84-.3a.75.75,0,0,0-.24-.43A.76.76,0,0,0,78.24,93.37Z" style="fill:#fff"/><path d="M88.12,95.82a1.23,1.23,0,0,1-.36.19,2,2,0,0,1-.51.07,1.91,1.91,0,0,1-.64-.1.52.52,0,0,1-.33-.33c-.2-.63-.36-1.14-.49-1.53s-.23-.73-.3-1h0c0,.43,0,.81,0,1.16s0,.68,0,1,0,.66,0,1,0,.71,0,1.11a1.54,1.54,0,0,1-.37.09,2.28,2.28,0,0,1-.45,0,1.47,1.47,0,0,1-.73-.15.57.57,0,0,1-.27-.55l.32-5.46a.85.85,0,0,1,.37-.3,1.68,1.68,0,0,1,.82-.16,1.88,1.88,0,0,1,.89.17,1.06,1.06,0,0,1,.47.58l.21.59c.07.22.15.45.22.68s.15.47.22.7.14.45.19.63h.06q.25-.9.51-1.74c.17-.56.33-1,.47-1.41a1.69,1.69,0,0,1,.42-.15,2.43,2.43,0,0,1,.56-.05,2.11,2.11,0,0,1,.86.15.59.59,0,0,1,.38.45c0,.14.06.36.1.66s.06.63.1,1,.07.76.1,1.18.07.81.11,1.19.06.74.08,1,0,.57,0,.74a1.37,1.37,0,0,1-.38.15,1.82,1.82,0,0,1-.51,0,1.47,1.47,0,0,1-.69-.14.6.6,0,0,1-.3-.54c0-.78-.07-1.48-.08-2.11s0-1.14,0-1.56h0c-.07.28-.17.63-.31,1S88.31,95.16,88.12,95.82Z" style="fill:#fff"/><path d="M94.64,97.59a3.68,3.68,0,0,1-1.17-.18,2.68,2.68,0,0,1-1-.53,2.4,2.4,0,0,1-.63-.89,3.24,3.24,0,0,1-.23-1.25,3,3,0,0,1,.23-1.22,2.4,2.4,0,0,1,.61-.84,2.31,2.31,0,0,1,.85-.48,3.36,3.36,0,0,1,1-.16,2.91,2.91,0,0,1,1,.18,2.45,2.45,0,0,1,.8.47,2.09,2.09,0,0,1,.71,1.63.77.77,0,0,1-.2.56,1.07,1.07,0,0,1-.57.24l-2.65.4a.92.92,0,0,0,.48.53,1.92,1.92,0,0,0,.84.18,2.82,2.82,0,0,0,.83-.12,2.42,2.42,0,0,0,.64-.26.93.93,0,0,1,.29.3.79.79,0,0,1-.33,1.13,2.37,2.37,0,0,1-.78.24A4.56,4.56,0,0,1,94.64,97.59Zm-.11-8.15a1.25,1.25,0,0,1,.81.21.68.68,0,0,1,.26.52.71.71,0,0,1-.16.46A1.45,1.45,0,0,1,95,91l-1.38.73a.85.85,0,0,1-.55-.25A.69.69,0,0,1,92.8,91a.57.57,0,0,1,.06-.25.62.62,0,0,1,.22-.24Zm-.19,3.93a1,1,0,0,0-.44.09.91.91,0,0,0-.31.22.92.92,0,0,0-.18.3,1.28,1.28,0,0,0-.07.34l1.84-.3a.75.75,0,0,0-.24-.43A.76.76,0,0,0,94.34,93.37Z" style="fill:#fff"/><path d="M97.29,93.05a1.3,1.3,0,0,1,.34-.66.86.86,0,0,1,.63-.26.82.82,0,0,1,.55.17,4.43,4.43,0,0,1,.43.48l.68.9,1.15-1.55a1.78,1.78,0,0,1,.93.21.64.64,0,0,1,.35.56.93.93,0,0,1,0,.25,1,1,0,0,1-.11.23,3.07,3.07,0,0,1-.2.27l-.28.36-.7.79,1.4,1.85a1,1,0,0,1-.32.65.92.92,0,0,1-.64.23.9.9,0,0,1-.65-.23,3.29,3.29,0,0,1-.47-.55l-.58-.82L98.67,97.5h-.23a1.32,1.32,0,0,1-.83-.22.69.69,0,0,1-.28-.56.9.9,0,0,1,.12-.46,4.56,4.56,0,0,1,.42-.54l.86-1Z" style="fill:#fff"/><path d="M102.94,90.76a1,1,0,0,1,.27-.69,1,1,0,0,1,.73-.28,1,1,0,0,1,1,1,1,1,0,0,1-1,1,1,1,0,0,1-.73-.28A.93.93,0,0,1,102.94,90.76Zm1.91,6.65-.35,0a2.38,2.38,0,0,1-.46,0,2.81,2.81,0,0,1-.43,0,.62.62,0,0,1-.31-.13.52.52,0,0,1-.2-.26,1.1,1.1,0,0,1-.07-.44V92.28l.35-.06a3.57,3.57,0,0,1,.46,0,1.91,1.91,0,0,1,.43,0,.72.72,0,0,1,.31.12.68.68,0,0,1,.2.27,1,1,0,0,1,.07.43Z" style="fill:#fff"/><path d="M108.82,93.48a1.44,1.44,0,0,0-.51.09,1,1,0,0,0-.41.25,1.22,1.22,0,0,0-.29.41,1.5,1.5,0,0,0-.11.58,1.27,1.27,0,0,0,.38,1,1.39,1.39,0,0,0,.93.33,1.58,1.58,0,0,0,.56-.08,2.85,2.85,0,0,0,.42-.16,1.11,1.11,0,0,1,.32.33.82.82,0,0,1,.11.42.76.76,0,0,1-.42.69,2.36,2.36,0,0,1-1.16.24,3.59,3.59,0,0,1-1.22-.2,2.67,2.67,0,0,1-.94-.56,2.64,2.64,0,0,1-.61-.86,2.9,2.9,0,0,1-.21-1.12,3.19,3.19,0,0,1,.23-1.24,2.33,2.33,0,0,1,.63-.87,2.55,2.55,0,0,1,.91-.51,3.38,3.38,0,0,1,1.1-.18,2.18,2.18,0,0,1,1.19.28.85.85,0,0,1,.42.72.82.82,0,0,1-.09.38,1.47,1.47,0,0,1-.23.31,2.7,2.7,0,0,0-.44-.17A2,2,0,0,0,108.82,93.48Z" style="fill:#fff"/><path d="M116.18,94.81A3.19,3.19,0,0,1,116,96a2.35,2.35,0,0,1-.57.87,2.55,2.55,0,0,1-.88.54,3.51,3.51,0,0,1-1.15.18,3.23,3.23,0,0,1-1.15-.2,2.35,2.35,0,0,1-.88-.55,2.51,2.51,0,0,1-.58-.87,3.44,3.44,0,0,1,0-2.31,2.51,2.51,0,0,1,.58-.87,2.48,2.48,0,0,1,.88-.55,3.23,3.23,0,0,1,1.15-.2,3.27,3.27,0,0,1,1.15.2,2.6,2.6,0,0,1,.88.56,2.35,2.35,0,0,1,.57.87A3,3,0,0,1,116.18,94.81Zm-3.75,0a1.66,1.66,0,0,0,.25,1,.87.87,0,0,0,1.39,0,1.78,1.78,0,0,0,.24-1,1.72,1.72,0,0,0-.24-1,.87.87,0,0,0-1.4,0A1.72,1.72,0,0,0,112.43,94.81Z" style="fill:#fff"/><path d="M29.25,45.61a19.22,19.22,0,0,0-6.9,3.8,20.46,20.46,0,0,0-4.9,6.3,19,19,0,0,0-1.8,8.9,21.2,21.2,0,0,0,1.7,8.6,17.88,17.88,0,0,0,4.6,6.2,19.6,19.6,0,0,0,6.8,3.7,28.73,28.73,0,0,0,8.4,1.2c1.1,0,2.3-.1,3.4-.2s2.2-.3,3.3-.5a26.48,26.48,0,0,0,2.9-.8,9.49,9.49,0,0,0,2.2-1,8.68,8.68,0,0,0,2.2-1.8,4.65,4.65,0,0,0,.7-2.9V64.31a3.5,3.5,0,0,0-3.05-3.9,3,3,0,0,0-.85,0H37.45a3.56,3.56,0,0,0-2.7,1,4.23,4.23,0,0,0-1,3.2,9.74,9.74,0,0,0,.3,2.4,8.6,8.6,0,0,0,.7,1.8h6.7v5.9a9.36,9.36,0,0,1-1.6.6,8.87,8.87,0,0,1-2.4.3,10.88,10.88,0,0,1-4-.7,9.62,9.62,0,0,1-3.3-2,9.28,9.28,0,0,1-2.3-3.4,12.39,12.39,0,0,1-.8-5c0-3.5,1-6.3,3.1-8.3a11.39,11.39,0,0,1,8.3-3,14.56,14.56,0,0,1,5.3.9,23.72,23.72,0,0,1,3.9,1.8,8.56,8.56,0,0,0,1.9-1.9,5.15,5.15,0,0,0,.8-2.8c0-2-1.2-3.7-3.5-5s-5.4-1.9-9.4-1.9a27.14,27.14,0,0,0-8.2,1.3" style="fill:url(#b)"/><path d="M93.75,64.41a8.8,8.8,0,1,1,8.8,8.8,8.8,8.8,0,0,1-8.8-8.8m-11.2,0a20.1,20.1,0,1,0,20.1-20.1h0a20.09,20.09,0,0,0-20.1,20.1" style="fill:url(#c)"/><path d="M56.15,45.31c-5.5.1-4.1,9-4.1,9l10.5-.1v29.2c11.2,3,11.1-3.3,11.1-3.3V54.31h6.6c5.9,0,4.2-9,4.2-9H56.15" style="fill:url(#d)"/><path d="M17.45,55.91a20.33,20.33,0,0,0-1.8,8.9,20.87,20.87,0,0,0,1.7,8.6,17.88,17.88,0,0,0,4.6,6.2,19.6,19.6,0,0,0,6.8,3.7,28.73,28.73,0,0,0,8.4,1.2c1.1,0,2.3-.1,3.4-.2s2.2-.3,3.3-.5a26.48,26.48,0,0,0,2.9-.8A9.49,9.49,0,0,0,49,82c.4-.3.8-.5,1.2-.8-.4,0-.7-.1-1.1-.1-24.8-2.7-30.2-24-30.7-26.5a3.58,3.58,0,0,0-.9,1.3" style="fill:url(#e)"/><path d="M62.55,83.41c11.2,3,11.1-3.3,11.1-3.3v-2.4c-4.4,0-8.5-4-11.1-7.4Z" style="fill:url(#f)"/><path d="M102.55,55.61h0a8.87,8.87,0,0,1,7.5,4.2.35.35,0,0,0,.1.2.84.84,0,0,1,.2.4c.1.2.2.3.2.5s.1.1.1.2a1.83,1.83,0,0,1,.2.7h0a10.41,10.41,0,0,1,.4,3.2,3.16,3.16,0,0,1-.2.9c0,.16-.06.33-.1.5-2.6,12.1-15.5,13.6-21.3,13.6a20.39,20.39,0,0,0,12.7,4.6,20,20,0,0,0,18.5-12.4c.7-4.2.5-9-2.9-12.6-3.7-4-7.5-5-10.4-5a9.92,9.92,0,0,0-5,1" style="fill:url(#g)"/><path d="M153.25,62.11c-.7-.2-1.3-.5-1.9-.7a3.35,3.35,0,0,1-1.4-.9,3.42,3.42,0,0,1-.9-1.2,4.64,4.64,0,0,1-.3-1.8,3.89,3.89,0,0,1,1.5-3.2,6.49,6.49,0,0,1,4.2-1.2,11,11,0,0,1,1.9.1,5.29,5.29,0,0,1,1.5.4,2.51,2.51,0,0,1,1,.8,2,2,0,0,1,.3,1.1,1.57,1.57,0,0,1-.3,1,2.34,2.34,0,0,1-.7.7,6,6,0,0,0-1.4-.6,5.81,5.81,0,0,0-1.9-.2,2.78,2.78,0,0,0-1.5.3c-.3.2-.5.4-.5.7a.85.85,0,0,0,.3.6,4,4,0,0,0,.9.4l1.2.4a8.27,8.27,0,0,1,3.3,1.8,4.16,4.16,0,0,1,0,5.88l-.36.32a7.48,7.48,0,0,1-4.6,1.2,13.42,13.42,0,0,1-2-.2,8,8,0,0,1-1.6-.5,3.25,3.25,0,0,1-1.1-.8,1.57,1.57,0,0,1-.4-1.2,1.73,1.73,0,0,1,.4-1.2c.3-.3.5-.6.9-.7a11.94,11.94,0,0,0,1.6.9,4.56,4.56,0,0,0,2,.4,2.23,2.23,0,0,0,1.6-.4,1,1,0,0,0,.5-.8.68.68,0,0,0-.4-.7,4.25,4.25,0,0,0-1-.5Z" style="fill:#fff"/><path d="M167.75,68.21a6.66,6.66,0,0,1-2.5-.4,4.52,4.52,0,0,1-2-1.2,6,6,0,0,1-1.4-2,7.7,7.7,0,0,1-.5-2.8,7.52,7.52,0,0,1,.5-2.7,4.76,4.76,0,0,1,1.3-1.8,5.66,5.66,0,0,1,1.9-1.1,7.46,7.46,0,0,1,2.1-.3,4.92,4.92,0,0,1,2.2.4,5.22,5.22,0,0,1,1.7,1,3.5,3.5,0,0,1,1.1,1.6,4.56,4.56,0,0,1,.4,2,1.61,1.61,0,0,1-.4,1.2,1.7,1.7,0,0,1-1.2.5l-5.7.9a2.35,2.35,0,0,0,1,1.2,3.5,3.5,0,0,0,1.8.4,12.24,12.24,0,0,0,1.8-.2,11.56,11.56,0,0,0,1.4-.6c.2.2.5.4.6.7a1.59,1.59,0,0,1,.3.9,1.74,1.74,0,0,1-1,1.6,4.45,4.45,0,0,1-1.7.5,12.13,12.13,0,0,1-1.7.2m-.7-9.3a2.83,2.83,0,0,0-1,.2,1.65,1.65,0,0,0-.7.5,1.53,1.53,0,0,0-.4.7,1.66,1.66,0,0,0-.1.7l4-.7a1.41,1.41,0,0,0-.5-.9,1.69,1.69,0,0,0-1.3-.5" style="fill:#fff"/><path d="M180.75,59.21a3.15,3.15,0,0,0-1.1.2,2.2,2.2,0,0,0-.9.6,1.41,1.41,0,0,0-.6.9,2.74,2.74,0,0,0-.2,1.3,3,3,0,0,0,.8,2.2,2.75,2.75,0,0,0,2,.7,4.36,4.36,0,0,0,2.1-.6,4.63,4.63,0,0,1,.7.7,1.48,1.48,0,0,1,.2.9,1.8,1.8,0,0,1-.9,1.5,4.53,4.53,0,0,1-2.5.5,6.94,6.94,0,0,1-2.6-.4,5.66,5.66,0,0,1-2-1.2,5,5,0,0,1-1.3-1.9,6.56,6.56,0,0,1-.5-2.5,7.52,7.52,0,0,1,.5-2.7,4.42,4.42,0,0,1,1.4-1.9,4.8,4.8,0,0,1,2-1.1,6,6,0,0,1,2.4-.4,4.65,4.65,0,0,1,2.6.6,1.8,1.8,0,0,1,.9,1.6,2.05,2.05,0,0,1-.2.8,1.84,1.84,0,0,1-.5.7,3.64,3.64,0,0,1-.9-.4,6,6,0,0,0-1.4-.1" style="fill:#fff"/><path d="M189.75,67.81c-.2,0-.4.1-.7.1s-.7.1-1,.1a3,3,0,0,1-.9-.1,1,1,0,0,1-.7-.3.92.92,0,0,1-.4-.6,2.32,2.32,0,0,1-.2-1v-7.1a1.86,1.86,0,0,1,.2-.9,1.29,1.29,0,0,1,.6-.7,5.42,5.42,0,0,1,.9-.6,5,5,0,0,1,1.2-.4c.4-.1.8-.2,1.3-.3a5.66,5.66,0,0,1,1.3-.1,3.35,3.35,0,0,1,1.8.4,1.69,1.69,0,0,1,.6,1.4,1.38,1.38,0,0,1-.1.6c-.1.2-.1.4-.2.6h-1c-.3,0-.7.1-1,.1a2.92,2.92,0,0,0-.9.2,2.93,2.93,0,0,1-.7.2v8.4Z" style="fill:#fff"/><path d="M200.75,68.21a6.66,6.66,0,0,1-2.5-.4,4.52,4.52,0,0,1-2-1.2,6,6,0,0,1-1.4-2,7.7,7.7,0,0,1-.5-2.8,7.52,7.52,0,0,1,.5-2.7,4.76,4.76,0,0,1,1.3-1.8,5.66,5.66,0,0,1,1.9-1.1,7.46,7.46,0,0,1,2.1-.3,4.92,4.92,0,0,1,2.2.4,6.78,6.78,0,0,1,1.7,1,3.5,3.5,0,0,1,1.1,1.6,4.56,4.56,0,0,1,.4,2,1.61,1.61,0,0,1-.4,1.2,1.7,1.7,0,0,1-1.2.5l-5.7.9a2.35,2.35,0,0,0,1,1.2,3.5,3.5,0,0,0,1.8.4,12.24,12.24,0,0,0,1.8-.2,11.56,11.56,0,0,0,1.4-.6c.2.2.5.4.6.7a1.59,1.59,0,0,1,.3.9,1.74,1.74,0,0,1-1,1.6,4.45,4.45,0,0,1-1.7.5,9.74,9.74,0,0,1-1.7.2m-.6-9.3a2.83,2.83,0,0,0-1,.2,1.65,1.65,0,0,0-.7.5,1.53,1.53,0,0,0-.4.7,1.51,1.51,0,0,0-.1.7l4-.7a1.41,1.41,0,0,0-.5-.9,1.69,1.69,0,0,0-1.3-.5" style="fill:#fff"/><path d="M211.45,63.91a1,1,0,0,0,.4.9,1.85,1.85,0,0,0,1.1.3,1.89,1.89,0,0,0,.7-.1,1.19,1.19,0,0,0,.6-.2c.1.2.3.4.4.6a2.15,2.15,0,0,1,.1.8,1.83,1.83,0,0,1-.7,1.5,3.42,3.42,0,0,1-2.3.6,4.64,4.64,0,0,1-3.1-.9,4,4,0,0,1-1.1-3.1V54.21a2.93,2.93,0,0,0,.7-.2,3,3,0,0,1,1-.1,2.53,2.53,0,0,1,1.6.4,1.66,1.66,0,0,1,.6,1.5v1.5h3l.3.6a2.47,2.47,0,0,1,.1.9,1.48,1.48,0,0,1-.4,1.2,1.56,1.56,0,0,1-1,.4h-2.1v3.5Z" style="fill:#fff"/><path d="M221.45,56a8.17,8.17,0,0,1,2.3.3,4.86,4.86,0,0,1,1.8.8,3.31,3.31,0,0,1,1.1,1.3,3.87,3.87,0,0,1,.4,1.9v5.3a1.73,1.73,0,0,1-.3,1,2.83,2.83,0,0,1-.8.7,8.39,8.39,0,0,1-4.2.9,14.63,14.63,0,0,1-2.2-.2,6.84,6.84,0,0,1-1.7-.7,3.34,3.34,0,0,1-1.5-2.9,3.29,3.29,0,0,1,.9-2.5,5.11,5.11,0,0,1,2.9-1.1l3-.3v-.2a1,1,0,0,0-.6-1,3.83,3.83,0,0,0-1.7-.3,8.14,8.14,0,0,0-1.7.2,4.91,4.91,0,0,0-1.5.5,1.52,1.52,0,0,1-.5-.6,2.86,2.86,0,0,1-.2-.9,1.62,1.62,0,0,1,.3-1,2,2,0,0,1,.9-.6,5.87,5.87,0,0,1,1.6-.4,4.65,4.65,0,0,1,1.7-.2m.2,9.3a3.07,3.07,0,0,0,.9-.1c.3-.1.6-.1.7-.2v-1.9l-1.7.1a1.94,1.94,0,0,0-1.1.3.72.72,0,0,0-.4.7.9.9,0,0,0,.4.8,1.75,1.75,0,0,0,1.2.3" style="fill:#fff"/><path d="M233.35,67.81c-.2,0-.4.1-.7.1s-.7.1-1,.1a3,3,0,0,1-.9-.1,1,1,0,0,1-.7-.3.92.92,0,0,1-.4-.6,2.63,2.63,0,0,1-.1-1v-7.1a1.86,1.86,0,0,1,.2-.9,1.29,1.29,0,0,1,.6-.7,5.42,5.42,0,0,1,.9-.6,5,5,0,0,1,1.2-.4c.4-.1.8-.2,1.3-.3a5.15,5.15,0,0,1,1.3-.1,3.35,3.35,0,0,1,1.8.4,1.69,1.69,0,0,1,.6,1.4,1.38,1.38,0,0,1-.1.6c-.1.2-.1.4-.2.6h-1c-.3,0-.7.1-1,.1a2.92,2.92,0,0,0-.9.2,2.93,2.93,0,0,1-.7.2v8.4Z" style="fill:#fff"/><path d="M242.35,50.31a2.43,2.43,0,0,1,1.7.5,1.26,1.26,0,0,1,.5,1.1,1.57,1.57,0,0,1-.3,1,3.79,3.79,0,0,1-1.1.8l-3,1.6a1.44,1.44,0,0,1-1.2-.6,1.57,1.57,0,0,1-.5-1.1,1.21,1.21,0,0,1,.1-.6.78.78,0,0,1,.5-.5Zm.6,17.5c-.2,0-.4.1-.8.1a3.78,3.78,0,0,1-1,.1,3,3,0,0,1-.9-.1,1,1,0,0,1-.7-.3.92.92,0,0,1-.4-.6,2.32,2.32,0,0,1-.2-1v-9.6c.2,0,.4-.1.8-.1a3,3,0,0,1,1-.1,2.52,2.52,0,0,1,.9.1,1.3,1.3,0,0,1,1.1.9,2.59,2.59,0,0,1,.2,1Z" style="fill:#fff"/><path d="M250.05,56a8.17,8.17,0,0,1,2.3.3,4.86,4.86,0,0,1,1.8.8,3.31,3.31,0,0,1,1.1,1.3,3.87,3.87,0,0,1,.4,1.9v5.3a1.73,1.73,0,0,1-.3,1,2.83,2.83,0,0,1-.8.7,8.39,8.39,0,0,1-4.2.9,14.63,14.63,0,0,1-2.2-.2,6.84,6.84,0,0,1-1.7-.7,3.34,3.34,0,0,1-1.5-2.9,3.29,3.29,0,0,1,.9-2.5,5.11,5.11,0,0,1,2.9-1.1l3-.3v-.2a1,1,0,0,0-.6-1,3.83,3.83,0,0,0-1.7-.3,8.14,8.14,0,0,0-1.7.2,4.91,4.91,0,0,0-1.5.5,1.52,1.52,0,0,1-.5-.6,2.86,2.86,0,0,1-.2-.9,1.62,1.62,0,0,1,.3-1,2,2,0,0,1,.9-.6,5.87,5.87,0,0,1,1.6-.4,5.12,5.12,0,0,1,1.7-.2m.2,9.3a3.07,3.07,0,0,0,.9-.1c.3-.1.6-.1.7-.2v-1.9l-1.7.1a1.94,1.94,0,0,0-1.1.3.72.72,0,0,0-.4.7.9.9,0,0,0,.4.8,1.75,1.75,0,0,0,1.2.3" style="fill:#fff"/><path d="M149,81.81a7.52,7.52,0,0,1,.5-2.7,4.24,4.24,0,0,1,1.3-1.9,4.39,4.39,0,0,1,1.9-1.1,8.1,8.1,0,0,1,2.4-.4,2.52,2.52,0,0,1,.9.1,6.13,6.13,0,0,1,.7.2v-3.8a2.93,2.93,0,0,0,.7-.2,3,3,0,0,1,1-.1,2.52,2.52,0,0,1,.9.1,1.3,1.3,0,0,1,1.1.9,3,3,0,0,1,.1,1v11.2a2.13,2.13,0,0,1-1,1.8,5.64,5.64,0,0,1-1.7.8,9.61,9.61,0,0,1-2.5.3,7.73,7.73,0,0,1-2.7-.4,5.66,5.66,0,0,1-2-1.2,4.7,4.7,0,0,1-1.2-1.9,7.76,7.76,0,0,1-.4-2.7m6.6-2.9a2.32,2.32,0,0,0-1.9.7,4,4,0,0,0-.1,4.4,2.17,2.17,0,0,0,1.8.7,1.71,1.71,0,0,0,1.3-.4v-5.2a3.24,3.24,0,0,0-1.1-.2" style="fill:#fff"/><path d="M169,87.91a6.66,6.66,0,0,1-2.5-.4,4.52,4.52,0,0,1-2-1.2,6,6,0,0,1-1.4-2,7.7,7.7,0,0,1-.5-2.8,7.52,7.52,0,0,1,.5-2.7,4.76,4.76,0,0,1,1.3-1.8,5.66,5.66,0,0,1,1.9-1.1,7.46,7.46,0,0,1,2.1-.3,4.92,4.92,0,0,1,2.2.4,5.22,5.22,0,0,1,1.7,1,3.5,3.5,0,0,1,1.1,1.6,4.56,4.56,0,0,1,.4,2,1.61,1.61,0,0,1-.4,1.2,1.7,1.7,0,0,1-1.2.5l-5.7.9a2.35,2.35,0,0,0,1,1.2,3.5,3.5,0,0,0,1.8.4,12.24,12.24,0,0,0,1.8-.2,11.56,11.56,0,0,0,1.4-.6c.2.2.5.4.6.7a1.59,1.59,0,0,1,.3.9,1.74,1.74,0,0,1-1,1.6,4.45,4.45,0,0,1-1.7.5,5.43,5.43,0,0,1-1.7.2m-.7-9.2a2.83,2.83,0,0,0-1,.2,1.65,1.65,0,0,0-.7.5,1.53,1.53,0,0,0-.4.7,1.66,1.66,0,0,0-.1.7l4-.7a1.41,1.41,0,0,0-.5-.9,1.43,1.43,0,0,0-1.3-.5" style="fill:#fff"/><path d="M184.65,81.91c-.7-.2-1.3-.5-1.9-.7a3.35,3.35,0,0,1-1.4-.9,3.42,3.42,0,0,1-.9-1.2,4.64,4.64,0,0,1-.3-1.8,3.89,3.89,0,0,1,1.5-3.2,6.49,6.49,0,0,1,4.2-1.2,11,11,0,0,1,1.9.1,5.29,5.29,0,0,1,1.5.4,2.51,2.51,0,0,1,1,.8,2,2,0,0,1,.3,1.1,1.57,1.57,0,0,1-.3,1,2.34,2.34,0,0,1-.7.7,6,6,0,0,0-1.4-.6,5.81,5.81,0,0,0-1.9-.2,2.78,2.78,0,0,0-1.5.3c-.3.2-.5.4-.5.7a.85.85,0,0,0,.3.6,4,4,0,0,0,.9.4l1.2.4a9.18,9.18,0,0,1,3.3,1.8,4.16,4.16,0,0,1,0,5.88l-.36.32a7.48,7.48,0,0,1-4.6,1.2,13.42,13.42,0,0,1-2-.2,8,8,0,0,1-1.6-.5,3.25,3.25,0,0,1-1.1-.8,1.57,1.57,0,0,1-.4-1.2,1.73,1.73,0,0,1,.4-1.2c.3-.3.5-.6.9-.7a11.94,11.94,0,0,0,1.6.9,4.56,4.56,0,0,0,2,.4,2.23,2.23,0,0,0,1.6-.4,1,1,0,0,0,.5-.8.68.68,0,0,0-.4-.7,4.25,4.25,0,0,0-1-.5Z" style="fill:#fff"/><path d="M198,75.81a8.17,8.17,0,0,1,2.3.3,4.86,4.86,0,0,1,1.8.8,3.31,3.31,0,0,1,1.1,1.3,3.87,3.87,0,0,1,.4,1.9v5.3a1.73,1.73,0,0,1-.3,1,2.83,2.83,0,0,1-.8.7,8.39,8.39,0,0,1-4.2.9,14.63,14.63,0,0,1-2.2-.2,6.84,6.84,0,0,1-1.7-.7,3.34,3.34,0,0,1-1.5-2.9,3.29,3.29,0,0,1,.9-2.5,5.11,5.11,0,0,1,2.9-1.1l3-.3v-.2a1,1,0,0,0-.6-1,3.83,3.83,0,0,0-1.7-.3,8.14,8.14,0,0,0-1.7.2,4.91,4.91,0,0,0-1.5.5,1.52,1.52,0,0,1-.5-.6,2.86,2.86,0,0,1-.2-.9,1.62,1.62,0,0,1,.3-1,2,2,0,0,1,.9-.6,5.87,5.87,0,0,1,1.6-.4,4.65,4.65,0,0,1,1.7-.2m.2,9.2a3.07,3.07,0,0,0,.9-.1c.3-.1.6-.1.7-.2v-1.9l-1.7.1a1.94,1.94,0,0,0-1.1.3.72.72,0,0,0-.4.7.9.9,0,0,0,.4.8,1.75,1.75,0,0,0,1.2.3" style="fill:#fff"/><path d="M209.85,87.51c-.2,0-.4.1-.8.1a3.78,3.78,0,0,1-1,.1,3,3,0,0,1-.9-.1,1,1,0,0,1-.7-.3.92.92,0,0,1-.4-.6,2.63,2.63,0,0,1-.1-1V72c.2,0,.4-.1.8-.1a3,3,0,0,1,1-.1,2.52,2.52,0,0,1,.9.1,1.3,1.3,0,0,1,1.1.9,2.59,2.59,0,0,1,.2,1v13.7Z" style="fill:#fff"/><path d="M212.35,76.31c.2,0,.4-.1.7-.1s.7-.1,1-.1a2.52,2.52,0,0,1,.9.1,1.3,1.3,0,0,1,1.1.9,3,3,0,0,1,.1,1v5.1a2,2,0,0,0,.5,1.4,1.89,1.89,0,0,0,1.3.4,2.74,2.74,0,0,0,.9-.1c.2-.1.4-.1.5-.2v-8.4c.2,0,.4-.1.7-.1s.7-.1,1-.1a2.52,2.52,0,0,1,.9.1,1.3,1.3,0,0,1,1.1.9,2.59,2.59,0,0,1,.2,1v7.2a1.92,1.92,0,0,1-1,1.8,8.8,8.8,0,0,1-1.9.8,9.74,9.74,0,0,1-2.4.3,8.91,8.91,0,0,1-2.3-.3,5.17,5.17,0,0,1-1.8-.9,4.36,4.36,0,0,1-1.2-1.5,5.21,5.21,0,0,1-.4-2.3v-6.9Z" style="fill:#fff"/><path d="M225.35,81.81a7.52,7.52,0,0,1,.5-2.7,4.24,4.24,0,0,1,1.3-1.9,4.39,4.39,0,0,1,1.9-1.1,8.1,8.1,0,0,1,2.4-.4,2.52,2.52,0,0,1,.9.1,6.13,6.13,0,0,1,.7.2v-3.8a2.93,2.93,0,0,0,.7-.2,3,3,0,0,1,1-.1,2.52,2.52,0,0,1,.9.1,1.3,1.3,0,0,1,1.1.9,3,3,0,0,1,.1,1v11.2a2.13,2.13,0,0,1-1,1.8,5.64,5.64,0,0,1-1.7.8,9.61,9.61,0,0,1-2.5.3,7.73,7.73,0,0,1-2.7-.4,5.66,5.66,0,0,1-2-1.2,4.7,4.7,0,0,1-1.2-1.9,11.3,11.3,0,0,1-.4-2.7m6.6-2.9a2.32,2.32,0,0,0-1.9.7A4,4,0,0,0,230,84a2.17,2.17,0,0,0,1.8.7,1.71,1.71,0,0,0,1.3-.4v-5.2a3.24,3.24,0,0,0-1.1-.2" style="fill:#fff"/></svg>