<svg aria-hidden="true" focusable="false" data-prefix="gto" data-icon="logo" class="svg-inline--fa fa-logo-gto fa-w-20" role="img" xmlns="http://www.w3.org/2000/svg" viewBox="0 0 276.3 138.3">
<path fill="#ff5ac8" d="M207.2,0.1H68.9v138.2h138.3c38.1,0,69.1-30.9,69.1-69.1S245.4,0.1,207.2,0.1C207.3,0.1,207.3,0.1,207.2,0.1"/>
<radialGradient id="grad1" cx="-351.9422" cy="615.4503" r="0.81" gradientTransform="matrix(-105.1975 80.081 80.081 105.1975 -86208.6641 -36512.9883)" gradientUnits="userSpaceOnUse">
	<stop offset="0" style="stop-color:#0093ef"/>
	<stop offset="0.51" style="stop-color:#00169e"/>
	<stop offset="0.94" style="stop-color:#00008c"/>
	<stop offset="1" style="stop-color:#00008c"/>
</radialGradient>
<path fill="url(#grad1)" d="M27.2,14.2L27.2,14.2C57.7-9,101-3.1,124.2,27.2l0,0c23.1,30.4,17.3,73.7-13.1,96.9l0,0c-30.4,23.1-73.7,17.3-96.9-13.1l0,0C-9,80.7-3.1,37.3,27.2,14.2z"/>
<path fill="#fff" d="M28.3,96.4c0,0.2,0,0.4-0.1,0.5s-0.2,0.2-0.4,0.3c-0.1,0.1-0.2,0.1-0.4,0.2c-0.2,0.1-0.3,0.1-0.5,0.1c-0.2,0-0.4,0.1-0.6,0.1c-0.2,0-0.4,0-0.6,0c-0.5,0-1-0.1-1.4-0.2c-0.5-0.1-0.8-0.4-1.2-0.6s-0.6-0.6-0.8-1.1c-0.2-0.4-0.3-0.9-0.3-1.5c0-0.6,0.1-1.1,0.3-1.5c0.2-0.4,0.5-0.8,0.8-1.1c0.3-0.3,0.7-0.5,1.2-0.6c0.4-0.1,0.9-0.2,1.4-0.2c0.7,0,1.2,0.1,1.6,0.3c0.4,0.2,0.6,0.5,0.6,0.9c0,0.2,0,0.3-0.1,0.5s-0.2,0.2-0.3,0.3c-0.2-0.1-0.4-0.2-0.7-0.3c-0.3-0.1-0.6-0.2-0.9-0.2c-0.6,0-1.1,0.2-1.4,0.5c-0.4,0.3-0.5,0.8-0.5,1.4c0,0.3,0,0.6,0.1,0.9c0.1,0.2,0.2,0.4,0.4,0.6c0.2,0.2,0.4,0.3,0.6,0.3s0.4,0.1,0.7,0.1c0.2,0,0.3,0,0.4,0c0.1,0,0.2-0.1,0.3-0.1v-1h-1.1c0-0.1-0.1-0.2-0.1-0.3c0-0.1-0.1-0.3-0.1-0.4c0-0.3,0.1-0.4,0.2-0.6s0.3-0.2,0.5-0.2h1.8c0.2,0,0.4,0.1,0.5,0.2c0.1,0.1,0.2,0.3,0.2,0.5V96.4z"/>
<path fill="#fff" d="M31.1,97.4c-0.1,0-0.2,0-0.3,0.1c-0.2,0-0.3,0-0.5,0c-0.2,0-0.3,0-0.4,0s-0.2-0.1-0.3-0.1s-0.2-0.2-0.2-0.3c0-0.1-0.1-0.3-0.1-0.4v-3.2c0-0.2,0-0.3,0.1-0.4c0.1-0.1,0.1-0.2,0.3-0.3c0.1-0.1,0.3-0.2,0.4-0.3c0.2-0.1,0.3-0.1,0.5-0.2c0.2-0.1,0.4-0.1,0.6-0.1s0.4,0,0.6,0c0.3,0,0.6,0.1,0.8,0.2c0.2,0.1,0.3,0.3,0.3,0.6c0,0.1,0,0.2,0,0.3c0,0.1-0.1,0.2-0.1,0.3c-0.1,0-0.3,0-0.5,0s-0.3,0-0.5,0.1c-0.2,0-0.3,0.1-0.4,0.1s-0.2,0.1-0.3,0.1V97.4z"/>
<path fill="#fff" d="M35.5,92c0.4,0,0.7,0,1.1,0.1c0.3,0.1,0.6,0.2,0.8,0.4c0.2,0.2,0.4,0.4,0.5,0.6c0.1,0.2,0.2,0.5,0.2,0.9v2.4c0,0.2-0.1,0.3-0.2,0.5c-0.1,0.1-0.2,0.2-0.4,0.3c-0.5,0.3-1.1,0.4-2,0.4c-0.4,0-0.7,0-1-0.1c-0.3-0.1-0.6-0.2-0.8-0.3c-0.2-0.1-0.4-0.3-0.5-0.5c-0.1-0.2-0.2-0.5-0.2-0.8c0-0.5,0.1-0.9,0.4-1.1c0.3-0.3,0.7-0.4,1.4-0.5l1.4-0.2V94c0-0.2-0.1-0.4-0.3-0.4c-0.2-0.1-0.4-0.1-0.8-0.1c-0.3,0-0.5,0-0.8,0.1s-0.5,0.1-0.7,0.2c-0.1-0.1-0.2-0.2-0.2-0.3c-0.1-0.1-0.1-0.3-0.1-0.4c0-0.2,0-0.3,0.1-0.4c0.1-0.1,0.2-0.2,0.4-0.3c0.2-0.1,0.5-0.1,0.7-0.2C35,92.1,35.3,92,35.5,92zM35.6,96.3c0.1,0,0.3,0,0.4,0c0.1,0,0.3-0.1,0.3-0.1v-0.9l-0.8,0.1c-0.2,0-0.4,0.1-0.5,0.1c-0.1,0.1-0.2,0.2-0.2,0.3s0.1,0.3,0.2,0.3C35.2,96.2,35.4,96.3,35.6,96.3z"/>
<path fill="#fff" d="M42.5,94.1c0-0.2-0.1-0.4-0.2-0.5s-0.3-0.2-0.5-0.2c-0.1,0-0.3,0-0.4,0.1c-0.1,0-0.3,0.1-0.4,0.2v3.7c-0.1,0-0.2,0-0.3,0.1c-0.2,0-0.3,0-0.5,0c-0.2,0-0.3,0-0.4,0s-0.2-0.1-0.3-0.1s-0.2-0.2-0.2-0.3c0-0.1-0.1-0.3-0.1-0.4v-3.2c0-0.2,0-0.3,0.1-0.5c0.1-0.1,0.2-0.2,0.3-0.3c0.2-0.2,0.5-0.3,0.9-0.4s0.8-0.2,1.2-0.2c0.8,0,1.4,0.2,1.9,0.5c0.4,0.4,0.7,0.8,0.7,1.5v3.4c-0.1,0-0.2,0-0.3,0.1s-0.3,0-0.5,0c-0.2,0-0.3,0-0.4,0s-0.2-0.1-0.3-0.1c-0.1-0.1-0.2-0.2-0.2-0.3c0-0.1-0.1-0.3-0.1-0.4V94.1z"/>
<path fill="#fff" d="M45.2,94.8c0-0.5,0.1-0.9,0.2-1.2c0.1-0.3,0.3-0.6,0.6-0.9c0.3-0.2,0.6-0.4,0.9-0.5c0.3-0.1,0.7-0.2,1.1-0.2c0.1,0,0.3,0,0.4,0s0.2,0.1,0.3,0.1v-1.7c0.1,0,0.2,0,0.3-0.1c0.2,0,0.3,0,0.5,0c0.2,0,0.3,0,0.4,0c0.1,0,0.2,0.1,0.3,0.1c0.1,0.1,0.1,0.2,0.2,0.3c0,0.1,0.1,0.3,0.1,0.4v5.1c0,0.3-0.2,0.6-0.5,0.8c-0.2,0.1-0.5,0.3-0.8,0.4c-0.3,0.1-0.7,0.2-1.1,0.2c-0.5,0-0.9-0.1-1.2-0.2c-0.4-0.1-0.7-0.3-0.9-0.6s-0.4-0.5-0.6-0.9S45.2,95.2,45.2,94.8z M48.3,93.5c-0.4,0-0.7,0.1-0.9,0.3c-0.2,0.2-0.3,0.6-0.3,1c0,0.4,0.1,0.8,0.3,1c0.2,0.2,0.5,0.3,0.8,0.3c0.1,0,0.2,0,0.3-0.1s0.2-0.1,0.2-0.1v-2.4C48.7,93.5,48.5,93.5,48.3,93.5z"/>
<path fill="#fff" d="M54,97.6c-0.4,0-0.8-0.1-1.2-0.2c-0.4-0.1-0.7-0.3-0.9-0.5s-0.5-0.5-0.6-0.9s-0.2-0.8-0.2-1.3c0-0.5,0.1-0.9,0.2-1.2c0.2-0.3,0.4-0.6,0.6-0.8c0.3-0.2,0.5-0.4,0.9-0.5s0.7-0.2,1-0.2c0.4,0,0.7,0.1,1,0.2c0.3,0.1,0.6,0.3,0.8,0.5c0.2,0.2,0.4,0.4,0.5,0.7c0.1,0.3,0.2,0.6,0.2,0.9c0,0.2-0.1,0.4-0.2,0.6c-0.1,0.1-0.3,0.2-0.6,0.2l-2.6,0.4c0.1,0.2,0.2,0.4,0.5,0.5c0.2,0.1,0.5,0.2,0.8,0.2c0.3,0,0.6,0,0.8-0.1c0.3-0.1,0.5-0.2,0.6-0.3c0.1,0.1,0.2,0.2,0.3,0.3s0.1,0.3,0.1,0.4c0,0.3-0.2,0.6-0.5,0.7c-0.2,0.1-0.5,0.2-0.8,0.2C54.6,97.6,54.3,97.6,54,97.6z M53.7,93.4c-0.2,0-0.3,0-0.4,0.1c-0.1,0.1-0.2,0.1-0.3,0.2c-0.1,0.1-0.1,0.2-0.2,0.3c0,0.1-0.1,0.2-0.1,0.3l1.8-0.3c0-0.1-0.1-0.3-0.2-0.4C54.2,93.4,54,93.4,53.7,93.4z"/>
<path fill="#fff" d="M57.2,97.4c-0.1-0.1-0.2-0.2-0.3-0.4s-0.1-0.3-0.1-0.5c0-0.1,0-0.3,0.1-0.4c0.1-0.1,0.2-0.3,0.3-0.4l1.8-2.2h-2c0-0.1-0.1-0.2-0.1-0.3c0-0.1-0.1-0.3-0.1-0.4c0-0.3,0.1-0.4,0.2-0.5c0.1-0.1,0.3-0.2,0.4-0.2h3.4c0.1,0.1,0.2,0.2,0.3,0.4s0.1,0.3,0.1,0.5c0,0.1,0,0.3-0.1,0.4c-0.1,0.1-0.2,0.3-0.3,0.4L59,96h2.1c0,0.1,0.1,0.2,0.1,0.3c0,0.1,0.1,0.3,0.1,0.4c0,0.3-0.1,0.4-0.2,0.5c-0.1,0.1-0.3,0.2-0.4,0.2H57.2z"/>
<path fill="#fff" d="M64.3,92c0.4,0,0.7,0,1.1,0.1c0.3,0.1,0.6,0.2,0.8,0.4c0.2,0.2,0.4,0.4,0.5,0.6c0.1,0.2,0.2,0.5,0.2,0.9v2.4c0,0.2-0.1,0.3-0.2,0.5c-0.1,0.1-0.2,0.2-0.4,0.3c-0.5,0.3-1.1,0.4-2,0.4c-0.4,0-0.7,0-1-0.1c-0.3-0.1-0.6-0.2-0.8-0.3c-0.2-0.1-0.4-0.3-0.5-0.5c-0.1-0.2-0.2-0.5-0.2-0.8c0-0.5,0.1-0.9,0.4-1.1c0.3-0.3,0.7-0.4,1.4-0.5l1.4-0.2V94c0-0.2-0.1-0.4-0.3-0.4c-0.2-0.1-0.4-0.1-0.8-0.1c-0.3,0-0.5,0-0.8,0.1s-0.5,0.1-0.7,0.2c-0.1-0.1-0.2-0.2-0.2-0.3c-0.1-0.1-0.1-0.3-0.1-0.4c0-0.2,0-0.3,0.1-0.4c0.1-0.1,0.2-0.2,0.4-0.3c0.2-0.1,0.5-0.1,0.7-0.2C63.8,92.1,64,92,64.3,92zM64.4,96.3c0.1,0,0.3,0,0.4,0c0.1,0,0.3-0.1,0.3-0.1v-0.9l-0.8,0.1c-0.2,0-0.4,0.1-0.5,0.1c-0.1,0.1-0.2,0.2-0.2,0.3s0.1,0.3,0.2,0.3C63.9,96.2,64.1,96.3,64.4,96.3z"/>
<path fill="#fff" d="M69.5,94.8c0-0.5,0.1-0.9,0.2-1.2c0.1-0.3,0.3-0.6,0.6-0.9c0.3-0.2,0.6-0.4,0.9-0.5c0.3-0.1,0.7-0.2,1.1-0.2c0.1,0,0.3,0,0.4,0s0.2,0.1,0.3,0.1v-1.7c0.1,0,0.2,0,0.3-0.1c0.2,0,0.3,0,0.5,0c0.2,0,0.3,0,0.4,0c0.1,0,0.2,0.1,0.3,0.1c0.1,0.1,0.1,0.2,0.2,0.3c0,0.1,0.1,0.3,0.1,0.4v5.1c0,0.3-0.2,0.6-0.5,0.8c-0.2,0.1-0.5,0.3-0.8,0.4c-0.3,0.1-0.7,0.2-1.1,0.2c-0.5,0-0.9-0.1-1.2-0.2c-0.4-0.1-0.7-0.3-0.9-0.6s-0.4-0.5-0.6-0.9S69.5,95.2,69.5,94.8z M72.5,93.5c-0.4,0-0.7,0.1-0.9,0.3c-0.2,0.2-0.3,0.6-0.3,1c0,0.4,0.1,0.8,0.3,1c0.2,0.2,0.5,0.3,0.8,0.3c0.1,0,0.2,0,0.3-0.1S73,96,73,96v-2.4C72.9,93.5,72.7,93.5,72.5,93.5z"/>
<path fill="#fff" d="M78.5,97.6c-0.4,0-0.8-0.1-1.2-0.2c-0.4-0.1-0.7-0.3-0.9-0.5s-0.5-0.5-0.6-0.9s-0.2-0.8-0.2-1.3c0-0.5,0.1-0.9,0.2-1.2c0.2-0.3,0.4-0.6,0.6-0.8c0.3-0.2,0.5-0.4,0.9-0.5s0.7-0.2,1-0.2c0.4,0,0.7,0.1,1,0.2c0.3,0.1,0.6,0.3,0.8,0.5c0.2,0.2,0.4,0.4,0.5,0.7c0.1,0.3,0.2,0.6,0.2,0.9c0,0.2-0.1,0.4-0.2,0.6c-0.1,0.1-0.3,0.2-0.6,0.2l-2.6,0.4c0.1,0.2,0.2,0.4,0.5,0.5c0.2,0.1,0.5,0.2,0.8,0.2c0.3,0,0.6,0,0.8-0.1c0.3-0.1,0.5-0.2,0.6-0.3c0.1,0.1,0.2,0.2,0.3,0.3s0.1,0.3,0.1,0.4c0,0.3-0.2,0.6-0.5,0.7c-0.2,0.1-0.5,0.2-0.8,0.2C79.1,97.6,78.8,97.6,78.5,97.6zM78.2,93.4c-0.2,0-0.3,0-0.4,0.1c-0.1,0.1-0.2,0.1-0.3,0.2c-0.1,0.1-0.1,0.2-0.2,0.3c0,0.1-0.1,0.2-0.1,0.3l1.8-0.3c0-0.1-0.1-0.3-0.2-0.4C78.7,93.4,78.5,93.4,78.2,93.4z"/>
<path fill="#fff" d="M88.1,95.8C88,95.9,87.9,96,87.8,96s-0.3,0.1-0.5,0.1c-0.3,0-0.5,0-0.6-0.1c-0.2-0.1-0.3-0.2-0.3-0.3c-0.2-0.6-0.4-1.1-0.5-1.5c-0.1-0.4-0.2-0.7-0.3-1h-0.1c0,0.4,0,0.8,0,1.2s0,0.7,0,1s0,0.7,0,1s0,0.7,0,1.1c-0.1,0-0.2,0.1-0.4,0.1c-0.2,0-0.3,0-0.5,0c-0.3,0-0.6,0-0.7-0.2c-0.2-0.1-0.3-0.3-0.3-0.5l0.3-5.5c0.1-0.1,0.2-0.2,0.4-0.3c0.2-0.1,0.5-0.2,0.8-0.2c0.4,0,0.7,0.1,0.9,0.2c0.2,0.1,0.4,0.3,0.5,0.6c0.1,0.2,0.1,0.4,0.2,0.6s0.2,0.5,0.2,0.7c0.1,0.2,0.1,0.5,0.2,0.7c0.1,0.2,0.1,0.4,0.2,0.6h0.1c0.2-0.6,0.3-1.2,0.5-1.7c0.2-0.6,0.3-1,0.5-1.4c0.1-0.1,0.2-0.1,0.4-0.1c0.2,0,0.4-0.1,0.6-0.1c0.4,0,0.6,0.1,0.9,0.2c0.2,0.1,0.4,0.3,0.4,0.4c0,0.1,0.1,0.4,0.1,0.7s0.1,0.6,0.1,1c0,0.4,0.1,0.8,0.1,1.2c0,0.4,0.1,0.8,0.1,1.2s0.1,0.7,0.1,1.1s0,0.6,0,0.7c-0.1,0.1-0.2,0.1-0.4,0.2c-0.1,0-0.3,0-0.5,0c-0.3,0-0.5,0-0.7-0.1c-0.2-0.1-0.3-0.3-0.3-0.5c0-0.8-0.1-1.5-0.1-2.1s0-1.1,0-1.6h-0.1c-0.1,0.3-0.2,0.6-0.3,1.1C88.5,94.6,88.3,95.2,88.1,95.8z"/>
<path fill="#fff" d="M94.6,97.6c-0.4,0-0.8-0.1-1.2-0.2c-0.4-0.1-0.7-0.3-0.9-0.5S92,96.3,91.9,96s-0.2-0.8-0.2-1.3c0-0.5,0.1-0.9,0.2-1.2c0.2-0.3,0.4-0.6,0.6-0.8c0.3-0.2,0.5-0.4,0.9-0.5s0.7-0.2,1-0.2c0.4,0,0.7,0.1,1,0.2c0.3,0.1,0.6,0.3,0.8,0.5c0.2,0.2,0.4,0.4,0.5,0.7c0.1,0.3,0.2,0.6,0.2,0.9c0,0.2-0.1,0.4-0.2,0.6c-0.1,0.1-0.3,0.2-0.6,0.2l-2.6,0.4c0.1,0.2,0.2,0.4,0.5,0.5c0.2,0.1,0.5,0.2,0.8,0.2c0.3,0,0.6,0,0.8-0.1c0.3-0.1,0.5-0.2,0.6-0.3c0.1,0.1,0.2,0.2,0.3,0.3s0.1,0.3,0.1,0.4c0,0.3-0.2,0.6-0.5,0.7c-0.2,0.1-0.5,0.2-0.8,0.2C95.2,97.6,94.9,97.6,94.6,97.6z M94.5,89.4c0.4,0,0.6,0.1,0.8,0.2c0.2,0.1,0.3,0.3,0.3,0.5c0,0.2-0.1,0.3-0.2,0.5S95.2,90.9,95,91l-1.4,0.7c-0.2,0-0.4-0.1-0.5-0.3c-0.2-0.2-0.2-0.3-0.2-0.5c0-0.1,0-0.2,0.1-0.3c0-0.1,0.1-0.2,0.2-0.2L94.5,89.4z M94.3,93.4c-0.2,0-0.3,0-0.4,0.1c-0.1,0.1-0.2,0.1-0.3,0.2c-0.1,0.1-0.1,0.2-0.2,0.3c0,0.1-0.1,0.2-0.1,0.3l1.8-0.3c0-0.1-0.1-0.3-0.2-0.4C94.8,93.4,94.6,93.4,94.3,93.4z"/>
<path fill="#fff" d="M97.3,93.1c0.1-0.3,0.2-0.5,0.3-0.7s0.4-0.3,0.6-0.3c0.2,0,0.4,0.1,0.5,0.2c0.1,0.1,0.3,0.3,0.4,0.5l0.7,0.9l1.1-1.6c0.4,0,0.7,0.1,0.9,0.2c0.2,0.1,0.3,0.3,0.3,0.6c0,0.1,0,0.2,0,0.3s-0.1,0.2-0.1,0.2c-0.1,0.1-0.1,0.2-0.2,0.3c-0.1,0.1-0.2,0.2-0.3,0.4l-0.7,0.8l1.4,1.9c0,0.3-0.1,0.5-0.3,0.6s-0.4,0.2-0.6,0.2c-0.3,0-0.5-0.1-0.6-0.2c-0.2-0.2-0.3-0.3-0.5-0.5l-0.6-0.8l-1.1,1.6c0,0-0.1,0-0.1,0c0,0-0.1,0-0.1,0c-0.4,0-0.6-0.1-0.8-0.2s-0.3-0.3-0.3-0.6c0-0.2,0-0.3,0.1-0.5c0.1-0.1,0.2-0.3,0.4-0.5l0.9-1L97.3,93.1z"/>
<path fill="#fff" d="M102.9,90.8c0-0.3,0.1-0.5,0.3-0.7c0.2-0.2,0.4-0.3,0.7-0.3s0.5,0.1,0.7,0.3c0.2,0.2,0.3,0.4,0.3,0.7s-0.1,0.5-0.3,0.7c-0.2,0.2-0.4,0.3-0.7,0.3s-0.5-0.1-0.7-0.3C103,91.3,102.9,91,102.9,90.8z M104.9,97.4c-0.1,0-0.2,0-0.3,0.1c-0.2,0-0.3,0-0.5,0s-0.3,0-0.4,0c-0.1,0-0.2-0.1-0.3-0.1s-0.2-0.2-0.2-0.3c0-0.1-0.1-0.3-0.1-0.4v-4.4c0.1,0,0.2,0,0.3-0.1c0.2,0,0.3,0,0.5,0s0.3,0,0.4,0s0.2,0.1,0.3,0.1c0.1,0.1,0.2,0.2,0.2,0.3c0,0.1,0.1,0.3,0.1,0.4V97.4z"/>
<path fill="#fff" d="M108.8,93.5c-0.2,0-0.3,0-0.5,0.1c-0.2,0.1-0.3,0.1-0.4,0.3c-0.1,0.1-0.2,0.2-0.3,0.4c-0.1,0.2-0.1,0.4-0.1,0.6c0,0.4,0.1,0.8,0.4,1c0.3,0.2,0.6,0.3,0.9,0.3c0.2,0,0.4,0,0.6-0.1c0.2,0,0.3-0.1,0.4-0.2c0.1,0.1,0.3,0.2,0.3,0.3c0.1,0.1,0.1,0.3,0.1,0.4c0,0.3-0.1,0.5-0.4,0.7c-0.3,0.2-0.7,0.2-1.2,0.2c-0.5,0-0.9-0.1-1.2-0.2c-0.4-0.1-0.7-0.3-0.9-0.6c-0.3-0.2-0.5-0.5-0.6-0.9s-0.2-0.7-0.2-1.1c0-0.5,0.1-0.9,0.2-1.2c0.2-0.4,0.4-0.6,0.6-0.9c0.3-0.2,0.6-0.4,0.9-0.5s0.7-0.2,1.1-0.2c0.5,0,0.9,0.1,1.2,0.3c0.3,0.2,0.4,0.4,0.4,0.7c0,0.1,0,0.3-0.1,0.4c-0.1,0.1-0.1,0.2-0.2,0.3c-0.1-0.1-0.3-0.1-0.4-0.2C109.2,93.5,109,93.5,108.8,93.5z"/>
<path fill="#fff" d="M116.2,94.8c0,0.4-0.1,0.8-0.2,1.2s-0.3,0.6-0.6,0.9c-0.2,0.2-0.5,0.4-0.9,0.5c-0.3,0.1-0.7,0.2-1.1,0.2c-0.4,0-0.8-0.1-1.1-0.2s-0.6-0.3-0.9-0.6c-0.2-0.2-0.4-0.5-0.6-0.9c-0.1-0.3-0.2-0.7-0.2-1.2c0-0.4,0.1-0.8,0.2-1.1c0.1-0.3,0.3-0.6,0.6-0.9s0.5-0.4,0.9-0.6s0.7-0.2,1.1-0.2c0.4,0,0.8,0.1,1.1,0.2c0.3,0.1,0.6,0.3,0.9,0.6c0.2,0.2,0.4,0.5,0.6,0.9C116.1,94,116.2,94.4,116.2,94.8z M112.4,94.8c0,0.4,0.1,0.8,0.3,1c0.2,0.2,0.4,0.3,0.7,0.3s0.5-0.1,0.7-0.4c0.2-0.2,0.2-0.6,0.2-1c0-0.4-0.1-0.8-0.2-1s-0.4-0.3-0.7-0.3s-0.5,0.1-0.7,0.3S112.4,94.4,112.4,94.8z"/>
<radialGradient id="grad2" cx="12.3469" cy="39.9072" r="36.1982" gradientUnits="userSpaceOnUse">
	<stop offset="0" style="stop-color:#99dcff"/>
	<stop offset="0.22" style="stop-color:#99dcff"/>
	<stop offset="0.47" style="stop-color:#9bddff"/>
	<stop offset="0.61" style="stop-color:#a4e0ff"/>
	<stop offset="0.72" style="stop-color:#b1e4ff"/>
	<stop offset="0.82" style="stop-color:#c5ebff"/>
	<stop offset="0.91" style="stop-color:#def4ff"/>
	<stop offset="1" style="stop-color:#fdfeff"/>
	<stop offset="1" style="stop-color:#fff"/>
</radialGradient>
<path fill="url(#grad2)" d="M40.5,84.1c1.1-0.1,2.2-0.3,3.3-0.5c1-0.2,2-0.5,2.9-0.8c0.8-0.2,1.5-0.6,2.2-1c0.8-0.5,1.6-1.1,2.2-1.8c0.5-0.9,0.8-1.9,0.7-2.9V64.3c0.2-1.9-1.1-3.7-3-3.9c-0.3,0-0.6,0-0.9,0H37.4c-1-0.1-2,0.3-2.7,1c-0.8,0.9-1.1,2-1,3.2c0,0.8,0.1,1.6,0.3,2.4c0.2,0.6,0.4,1.2,0.7,1.8h6.7v5.9c-0.5,0.2-1,0.5-1.6,0.6c-0.8,0.2-1.6,0.3-2.4,0.3c-1.4,0-2.7-0.2-4-0.7c-1.2-0.4-2.3-1.1-3.3-2c-1-0.9-1.8-2.1-2.3-3.4c-0.6-1.6-0.9-3.3-0.8-5c0-3.5,1-6.3,3.1-8.3c2.3-2.1,5.2-3.2,8.3-3c1.8,0,3.6,0.3,5.3,0.9c1.4,0.5,2.7,1.1,3.9,1.8c0.7-0.5,1.4-1.2,1.9-1.9c0.5-0.8,0.8-1.8,0.8-2.8c0-2-1.2-3.7-3.5-5c-2.3-1.3-5.4-1.9-9.4-1.9c-2.8,0-5.5,0.5-8.2,1.3c-2.5,0.8-4.9,2.1-6.9,3.8c-2,1.8-3.7,3.9-4.9,6.3c-1.3,2.8-1.9,5.8-1.8,8.9c0,3,0.5,5.9,1.7,8.6c1.1,2.4,2.6,4.5,4.6,6.2c2,1.7,4.3,2.9,6.8,3.7c2.7,0.8,5.6,1.2,8.4,1.2C38.2,84.3,39.4,84.2,40.5,84.1z"/>
<linearGradient id="grad3" gradientUnits="userSpaceOnUse" x1="18.6267" y1="60.0571" x2="37.0936" y2="82.2217">
	<stop offset="0" style="stop-color:#00702f"/>
	<stop offset="0.17" style="stop-color:#037531"/>
	<stop offset="0.37" style="stop-color:#0b8336"/>
	<stop offset="0.58" style="stop-color:#199A3f"/>
	<stop offset="0.8" style="stop-color:#2cbb4c"/>
	<stop offset="1" style="stop-color:#42e05a"/>
</linearGradient>
<path fill="url(#grad3)" d="M40.2,84.3c1.1-0.1,2.2-0.3,3.3-0.5c1-0.2,2-0.5,2.9-0.8c0.8-0.2,1.5-0.6,2.2-1c0.4-0.3,0.8-0.5,1.2-0.8c-0.4,0-0.7-0.1-1.1-0.1c-24.8-2.7-30.2-24-30.7-26.5c-0.4,0.4-0.7,0.8-0.9,1.3c-1.3,2.8-1.9,5.8-1.8,8.9c0,3,0.5,5.9,1.7,8.6c1.1,2.4,2.6,4.5,4.6,6.2c2,1.7,4.3,2.9,6.8,3.7c2.7,0.8,5.6,1.2,8.4,1.2C37.9,84.5,39.1,84.4,40.2,84.3z"/>
<radialGradient id="grad4" cx="58.4129" cy="45.2402" r="26.6836" gradientUnits="userSpaceOnUse">
	<stop offset="0" style="stop-color:#99dcff"/>
	<stop offset="0.22" style="stop-color:#99dcff"/>
	<stop offset="0.36" style="stop-color:#9edeff"/>
	<stop offset="0.52" style="stop-color:#ace2ff"/>
	<stop offset="0.69" style="stop-color:#c3eaff"/>
	<stop offset="0.87" style="stop-color:#e4f6ff"/>
	<stop offset="1" style="stop-color:#fff"/>
</radialGradient>
<path fill="url(#grad4)" d="M73.6,80.1V54.3h6.6c5.9,0,4.2-9,4.2-9H56.1c-5.5,0.1-4.1,9-4.1,9l10.5-0.1v29.2C73.7,86.4,73.6,80.1,73.6,80.1z"/>
<linearGradient id="grad5" gradientUnits="userSpaceOnUse" x1="62.0957" y1="74.9596" x2="69.9509" y2="82.2847">
	<stop offset="0" style="stop-color:#ff8201"/>
	<stop offset="1" style="stop-color:#ffb621"/>
</linearGradient>
<path fill="url(#grad5)" d="M73.6,80.1v-2.4c-4.4,0-8.5-4-11.1-7.4v13.1C73.7,86.4,73.6,80.1,73.6,80.1z"/>
<radialGradient id="grad6" cx="99.184" cy="55.8291" r="19.5239" fx="93.2094" fy="58.9265" gradientTransform="matrix(0.3017 0.9534 -0.9449 0.299 122.0119 -55.4255)" gradientUnits="userSpaceOnUse">
	<stop offset="0" style="stop-color:#99dcff"/>
	<stop offset="0.22" style="stop-color:#99dcff"/>
	<stop offset="0.36" style="stop-color:#9edeff"/>
	<stop offset="0.52" style="stop-color:#ace2ff"/>
	<stop offset="0.69" style="stop-color:#c3eaff"/>
	<stop offset="0.87" style="stop-color:#e4f6ff"/>
	<stop offset="1" style="stop-color:#fff"/>
</radialGradient>
<path fill="url(#grad6)" d="M102.7,44.3c-11.1,0-20.1,9-20.1,20.1c0,11.1,9,20,20.1,20c11.1,0,20.1-9,20.1-20.1C122.7,53.3,113.7,44.3,102.7,44.3z M102.5,73.2c-4.9,0-8.8-3.9-8.8-8.8s3.9-8.8,8.8-8.8s8.8,3.9,8.8,8.8S107.4,73.2,102.5,73.2z"/>
<linearGradient id="grad7" gradientUnits="userSpaceOnUse" x1="119.9616" y1="69.4067" x2="92.5478" y2="69.4067">
	<stop offset="0" style="stop-color:#f51fcc"/>
	<stop offset="0.24" style="stop-color:#f624ce"/>
	<stop offset="0.52" style="stop-color:#f832d5"/>
	<stop offset="0.82" style="stop-color:#fc49e0"/>
	<stop offset="1" style="stop-color:#ff5be8"/>
</linearGradient>
<path fill="url(#grad7)" d="M107.6,54.4c-1.7-0.1-3.5,0.4-5.1,1.2c5.4,0,8.8,4.4,8.8,8.8c0,9.7-15.8,15.4-21.6,15.4v0c3.5,2.8,7.3,4.3,11.8,4.6h2.4c7.8-0.5,13.9-5.2,16.8-11.5c0.7-4.2,0.7-9.9-2.7-13.5C114.3,55.4,110.5,54.4,107.6,54.4z"/>
<path fill="#fff" d="M153.2,62.1c-0.7-0.2-1.3-0.5-1.9-0.7c-0.5-0.2-1-0.5-1.4-0.9c-0.4-0.3-0.7-0.7-0.9-1.2c-0.2-0.6-0.3-1.2-0.3-1.8c0-1.2,0.5-2.4,1.5-3.2c1.2-0.9,2.7-1.3,4.2-1.2c0.6,0,1.3,0,1.9,0.1c0.5,0.1,1,0.2,1.5,0.4c0.4,0.2,0.7,0.5,1,0.8c0.2,0.3,0.3,0.7,0.3,1.1c0,0.4-0.1,0.7-0.3,1c-0.2,0.3-0.4,0.5-0.7,0.7c-0.4-0.3-0.9-0.5-1.4-0.6c-0.6-0.2-1.3-0.2-1.9-0.2c-0.5,0-1,0.1-1.5,0.3c-0.3,0.2-0.5,0.4-0.5,0.7c0,0.2,0.1,0.4,0.3,0.6c0.3,0.2,0.6,0.3,0.9,0.4l1.2,0.4c1.2,0.3,2.3,1,3.3,1.8c1.6,1.6,1.6,4.3,0,5.9c-0.1,0.1-0.2,0.2-0.4,0.3c-1.4,0.9-3,1.3-4.6,1.2c-0.7,0-1.3-0.1-2-0.2c-0.6-0.1-1.1-0.3-1.6-0.5c-0.4-0.2-0.8-0.5-1.1-0.8c-0.3-0.3-0.4-0.8-0.4-1.2c0-0.4,0.1-0.9,0.4-1.2c0.3-0.3,0.5-0.6,0.9-0.7c0.5,0.3,1,0.6,1.6,0.9c0.6,0.3,1.3,0.4,2,0.4c0.6,0.1,1.1-0.1,1.6-0.4c0.3-0.2,0.5-0.5,0.5-0.8c0-0.3-0.1-0.6-0.4-0.7c-0.3-0.2-0.6-0.4-1-0.5L153.2,62.1z"/>
<path fill="#fff" d="M167.7,68.2c-0.9,0-1.7-0.1-2.5-0.4c-0.8-0.2-1.5-0.6-2-1.2c-0.6-0.6-1.1-1.2-1.4-2c-0.3-0.9-0.5-1.8-0.5-2.8c0-0.9,0.2-1.8,0.5-2.7c0.3-0.7,0.7-1.3,1.3-1.8c0.6-0.5,1.2-0.9,1.9-1.1c0.7-0.2,1.4-0.3,2.1-0.3c0.8,0,1.5,0.1,2.2,0.4c0.6,0.2,1.2,0.6,1.7,1c0.5,0.4,0.9,1,1.1,1.6c0.3,0.6,0.4,1.3,0.4,2c0,0.4-0.1,0.9-0.4,1.2c-0.3,0.3-0.7,0.5-1.2,0.5l-5.7,0.9c0.2,0.5,0.5,0.9,1,1.2c0.6,0.3,1.2,0.4,1.8,0.4c0.6,0,1.2-0.1,1.8-0.2c0.5-0.2,0.9-0.4,1.4-0.6c0.2,0.2,0.5,0.4,0.6,0.7c0.2,0.3,0.3,0.6,0.3,0.9c0,0.7-0.4,1.3-1,1.6c-0.5,0.3-1.1,0.5-1.7,0.5C168.9,68.1,168.3,68.2,167.7,68.2M167,58.9c-0.3,0-0.7,0.1-1,0.2c-0.3,0.1-0.5,0.3-0.7,0.5c-0.2,0.2-0.3,0.4-0.4,0.7c-0.1,0.2-0.1,0.5-0.1,0.7l4-0.7c0-0.4-0.2-0.7-0.5-0.9C168,59.1,167.5,58.9,167,58.9"/>
<path fill="#fff" d="M180.7,59.2c-0.4,0-0.7,0.1-1.1,0.2c-0.3,0.1-0.7,0.3-0.9,0.6c-0.3,0.2-0.5,0.5-0.6,0.9c-0.2,0.4-0.2,0.9-0.2,1.3c0,0.8,0.2,1.6,0.8,2.2c0.5,0.5,1.3,0.7,2,0.7c0.4,0,0.8-0.1,1.2-0.2c0.3-0.1,0.6-0.2,0.9-0.4c0.3,0.2,0.5,0.4,0.7,0.7c0.2,0.3,0.2,0.6,0.2,0.9c0,0.6-0.4,1.2-0.9,1.5c-0.8,0.4-1.6,0.6-2.5,0.5c-0.9,0-1.8-0.1-2.6-0.4c-0.7-0.3-1.4-0.7-2-1.2c-0.6-0.5-1-1.2-1.3-1.9c-0.3-0.8-0.5-1.6-0.5-2.5c0-0.9,0.2-1.8,0.5-2.7c0.3-0.7,0.8-1.4,1.4-1.9c0.6-0.5,1.3-0.9,2-1.1c0.8-0.3,1.6-0.4,2.4-0.4c0.9-0.1,1.8,0.2,2.6,0.6c0.6,0.3,0.9,0.9,0.9,1.6c0,0.3-0.1,0.6-0.2,0.8c-0.1,0.3-0.3,0.5-0.5,0.7c-0.3-0.1-0.6-0.2-0.9-0.4C181.7,59.2,181.2,59.2,180.7,59.2"/>
<path fill="#fff" d="M189.7,67.8c-0.2,0-0.4,0.1-0.7,0.1s-0.7,0.1-1,0.1c-0.3,0-0.6,0-0.9-0.1c-0.3,0-0.5-0.1-0.7-0.3c-0.2-0.1-0.4-0.4-0.4-0.6c-0.1-0.3-0.2-0.7-0.2-1v-7.1c0-0.3,0.1-0.6,0.2-0.9c0.1-0.3,0.3-0.5,0.6-0.7c0.3-0.2,0.6-0.4,0.9-0.6c0.4-0.2,0.8-0.3,1.2-0.4c0.4-0.1,0.8-0.2,1.3-0.3c0.4-0.1,0.9-0.1,1.3-0.1c0.6,0,1.2,0.1,1.8,0.4c0.4,0.3,0.6,0.9,0.6,1.4c0,0.2,0,0.4-0.1,0.6c-0.1,0.2-0.1,0.4-0.2,0.6h-1c-0.3,0-0.7,0.1-1,0.1s-0.6,0.1-0.9,0.2c-0.2,0.1-0.5,0.2-0.7,0.2v8.4H189.7z"/>
<path fill="#fff" d="M200.7,68.2c-0.9,0-1.7-0.1-2.5-0.4c-0.8-0.2-1.5-0.6-2-1.2c-0.6-0.6-1.1-1.2-1.4-2c-0.3-0.9-0.5-1.8-0.5-2.8c0-0.9,0.2-1.8,0.5-2.7c0.3-0.7,0.7-1.3,1.3-1.8c0.6-0.5,1.2-0.9,1.9-1.1c0.7-0.2,1.4-0.3,2.1-0.3c0.8,0,1.5,0.1,2.2,0.4c0.6,0.3,1.2,0.6,1.7,1c0.5,0.4,0.9,1,1.1,1.6c0.3,0.6,0.4,1.3,0.4,2c0,0.4-0.1,0.9-0.4,1.2c-0.3,0.3-0.7,0.5-1.2,0.5l-5.7,0.9c0.2,0.5,0.5,0.9,1,1.2c0.6,0.3,1.2,0.4,1.8,0.4c0.6,0,1.2-0.1,1.8-0.2c0.5-0.2,0.9-0.4,1.4-0.6c0.2,0.2,0.5,0.4,0.6,0.7c0.2,0.3,0.3,0.6,0.3,0.9c0,0.7-0.4,1.3-1,1.6c-0.5,0.3-1.1,0.5-1.7,0.5C201.9,68.1,201.3,68.2,200.7,68.2 M200.1,58.9c-0.3,0-0.7,0.1-1,0.2c-0.3,0.1-0.5,0.3-0.7,0.5c-0.2,0.2-0.3,0.4-0.4,0.7c-0.1,0.2-0.1,0.5-0.1,0.7l4-0.7c0-0.4-0.2-0.7-0.5-0.9C201.1,59.1,200.6,58.9,200.1,58.9"/>
<path fill="#fff" d="M211.4,63.9c0,0.3,0.1,0.7,0.4,0.9c0.3,0.2,0.7,0.3,1.1,0.3c0.2,0,0.5,0,0.7-0.1c0.2,0,0.4-0.1,0.6-0.2c0.1,0.2,0.3,0.4,0.4,0.6c0.1,0.3,0.1,0.5,0.1,0.8c0,0.6-0.2,1.1-0.7,1.5c-0.7,0.5-1.5,0.7-2.3,0.6c-1.1,0.1-2.2-0.2-3.1-0.9c-0.8-0.8-1.2-2-1.1-3.1V54.2c0.2,0,0.5-0.1,0.7-0.2c0.3-0.1,0.7-0.1,1-0.1c0.6,0,1.1,0.1,1.6,0.4c0.4,0.4,0.7,0.9,0.6,1.5v1.5h3l0.3,0.6c0.1,0.3,0.1,0.6,0.1,0.9c0.1,0.4-0.1,0.9-0.4,1.2c-0.3,0.3-0.6,0.4-1,0.4h-2.1L211.4,63.9L211.4,63.9z"/>
<path fill="#fff" d="M221.4,56c0.8,0,1.6,0.1,2.3,0.3c0.6,0.1,1.3,0.4,1.8,0.8c0.5,0.3,0.9,0.8,1.1,1.3c0.3,0.6,0.4,1.2,0.4,1.9v5.3c0,0.4-0.1,0.7-0.3,1c-0.2,0.3-0.5,0.5-0.8,0.7c-1.3,0.7-2.7,1-4.2,0.9c-0.7,0-1.5-0.1-2.2-0.2c-0.6-0.2-1.2-0.4-1.7-0.7c-0.5-0.3-0.8-0.7-1.1-1.2c-0.3-0.5-0.4-1.1-0.4-1.7c-0.1-0.9,0.3-1.8,0.9-2.5c0.8-0.7,1.8-1,2.9-1.1l3-0.3v-0.2c0-0.4-0.2-0.8-0.6-1c-0.5-0.2-1.1-0.3-1.7-0.3c-0.6,0-1.1,0.1-1.7,0.2c-0.5,0.1-1,0.3-1.5,0.5c-0.2-0.2-0.4-0.4-0.5-0.6c-0.1-0.3-0.2-0.6-0.2-0.9c0-0.4,0.1-0.7,0.3-1c0.2-0.3,0.6-0.5,0.9-0.6c0.5-0.2,1.1-0.3,1.6-0.4C220.3,56,220.9,56,221.4,56 M221.6,65.3c0.3,0,0.6,0,0.9-0.1c0.3-0.1,0.6-0.1,0.7-0.2v-1.9l-1.7,0.1c-0.4,0-0.8,0.1-1.1,0.3c-0.3,0.1-0.4,0.4-0.4,0.7c0,0.3,0.1,0.6,0.4,0.8C220.8,65.2,221.2,65.4,221.6,65.3"/>
<path fill="#fff" d="M233.3,67.8c-0.2,0-0.4,0.1-0.7,0.1s-0.7,0.1-1,0.1c-0.3,0-0.6,0-0.9-0.1c-0.3,0-0.5-0.1-0.7-0.3c-0.2-0.1-0.4-0.4-0.4-0.6c-0.1-0.3-0.1-0.7-0.1-1v-7.1c0-0.3,0.1-0.6,0.2-0.9c0.1-0.3,0.3-0.5,0.6-0.7c0.3-0.2,0.6-0.4,0.9-0.6c0.4-0.2,0.8-0.3,1.2-0.4c0.4-0.1,0.8-0.2,1.3-0.3c0.4-0.1,0.9-0.1,1.3-0.1c0.6,0,1.2,0.1,1.8,0.4c0.4,0.3,0.6,0.9,0.6,1.4c0,0.2,0,0.4-0.1,0.6c-0.1,0.2-0.1,0.4-0.2,0.6h-1c-0.3,0-0.7,0.1-1,0.1s-0.6,0.1-0.9,0.2c-0.2,0.1-0.5,0.2-0.7,0.2v8.4H233.3z"/>
<path fill="#fff" d="M242.3,50.3c0.6-0.1,1.2,0.1,1.7,0.5c0.3,0.3,0.5,0.7,0.5,1.1c0,0.4-0.1,0.7-0.3,1c-0.3,0.3-0.7,0.6-1.1,0.8l-3,1.6c-0.5,0-0.9-0.2-1.2-0.6c-0.3-0.3-0.5-0.7-0.5-1.1c0-0.2,0-0.4,0.1-0.6c0.1-0.2,0.3-0.4,0.5-0.5L242.3,50.3z M242.9,67.8c-0.2,0-0.4,0.1-0.8,0.1c-0.3,0.1-0.7,0.1-1,0.1c-0.3,0-0.6,0-0.9-0.1c-0.3,0-0.5-0.1-0.7-0.3c-0.2-0.1-0.4-0.4-0.4-0.6c-0.1-0.3-0.2-0.7-0.2-1v-9.6c0.2,0,0.4-0.1,0.8-0.1c0.3-0.1,0.7-0.1,1-0.1c0.3,0,0.6,0,0.9,0.1c0.3,0,0.5,0.1,0.7,0.3c0.2,0.1,0.4,0.4,0.4,0.6c0.1,0.3,0.2,0.7,0.2,1V67.8z"/>
<path fill="#fff" d="M250,56c0.8,0,1.6,0.1,2.3,0.3c0.6,0.1,1.3,0.4,1.8,0.8c0.5,0.3,0.9,0.8,1.1,1.3c0.3,0.6,0.4,1.2,0.4,1.9v5.3c0,0.4-0.1,0.7-0.3,1c-0.2,0.3-0.5,0.5-0.8,0.7c-1.3,0.7-2.7,1-4.2,0.9c-0.7,0-1.5-0.1-2.2-0.2c-0.6-0.2-1.2-0.4-1.7-0.7c-0.5-0.3-0.8-0.7-1.1-1.2c-0.3-0.5-0.4-1.1-0.4-1.7c-0.1-0.9,0.3-1.8,0.9-2.5c0.8-0.7,1.8-1,2.9-1.1l3-0.3v-0.2c0-0.4-0.2-0.8-0.6-1c-0.5-0.2-1.1-0.3-1.7-0.3c-0.6,0-1.1,0.1-1.7,0.2c-0.5,0.1-1,0.3-1.5,0.5c-0.2-0.2-0.4-0.4-0.5-0.6c-0.1-0.3-0.2-0.6-0.2-0.9c0-0.4,0.1-0.7,0.3-1c0.2-0.3,0.6-0.5,0.9-0.6c0.5-0.2,1.1-0.3,1.6-0.4C248.9,56,249.5,56,250,56 M250.2,65.3c0.3,0,0.6,0,0.9-0.1c0.3-0.1,0.6-0.1,0.7-0.2v-1.9l-1.7,0.1c-0.4,0-0.8,0.1-1.1,0.3c-0.3,0.1-0.4,0.4-0.4,0.7c0,0.3,0.1,0.6,0.4,0.8C249.4,65.2,249.8,65.4,250.2,65.3"/>
<path fill="#fff" d="M148.9,81.8c0-0.9,0.2-1.8,0.5-2.7c0.3-0.7,0.7-1.4,1.3-1.9c0.5-0.5,1.2-0.9,1.9-1.1c0.8-0.2,1.6-0.4,2.4-0.4c0.3,0,0.6,0,0.9,0.1c0.2,0.1,0.5,0.1,0.7,0.2v-3.8c0.2,0,0.5-0.1,0.7-0.2c0.3-0.1,0.7-0.1,1-0.1c0.3,0,0.6,0,0.9,0.1c0.3,0,0.5,0.1,0.7,0.3c0.2,0.1,0.4,0.4,0.4,0.6c0.1,0.3,0.1,0.7,0.1,1v11.2c0,0.7-0.4,1.4-1,1.8c-0.5,0.4-1.1,0.6-1.7,0.8c-0.8,0.2-1.7,0.3-2.5,0.3c-0.9,0-1.8-0.1-2.7-0.4c-0.7-0.3-1.4-0.7-2-1.2c-0.5-0.5-1-1.2-1.2-1.9C149.1,83.6,148.9,82.7,148.9,81.8 M155.5,78.9c-0.7-0.1-1.4,0.2-1.9,0.7c-0.9,1.3-0.9,3-0.1,4.4c0.5,0.5,1.1,0.8,1.8,0.7c0.5,0.1,0.9-0.1,1.3-0.4v-5.2C156.3,79,155.9,78.9,155.5,78.9"/>
<path fill="#fff" d="M168.9,87.9c-0.9,0-1.7-0.1-2.5-0.4c-0.8-0.2-1.5-0.6-2-1.2c-0.6-0.6-1.1-1.2-1.4-2c-0.3-0.9-0.5-1.8-0.5-2.8c0-0.9,0.2-1.8,0.5-2.7c0.3-0.7,0.7-1.3,1.3-1.8c0.6-0.5,1.2-0.9,1.9-1.1c0.7-0.2,1.4-0.3,2.1-0.3c0.8,0,1.5,0.1,2.2,0.4c0.6,0.2,1.2,0.6,1.7,1c0.5,0.4,0.9,1,1.1,1.6c0.3,0.6,0.4,1.3,0.4,2c0,0.4-0.1,0.9-0.4,1.2c-0.3,0.3-0.7,0.5-1.2,0.5l-5.7,0.9c0.2,0.5,0.5,0.9,1,1.2c0.6,0.3,1.2,0.4,1.8,0.4c0.6,0,1.2-0.1,1.8-0.2c0.5-0.2,0.9-0.4,1.4-0.6c0.2,0.2,0.5,0.4,0.6,0.7c0.2,0.3,0.3,0.6,0.3,0.9c0,0.7-0.4,1.3-1,1.6c-0.5,0.3-1.1,0.5-1.7,0.5C170.1,87.9,169.5,87.9,168.9,87.9 M168.2,78.7c-0.3,0-0.7,0.1-1,0.2c-0.3,0.1-0.5,0.3-0.7,0.5c-0.2,0.2-0.3,0.4-0.4,0.7c-0.1,0.2-0.1,0.5-0.1,0.7l4-0.7c0-0.4-0.2-0.7-0.5-0.9C169.2,78.8,168.7,78.6,168.2,78.7"/>
<path fill="#fff" d="M184.6,81.9c-0.7-0.2-1.3-0.5-1.9-0.7c-0.5-0.2-1-0.5-1.4-0.9c-0.4-0.3-0.7-0.7-0.9-1.2c-0.2-0.6-0.3-1.2-0.3-1.8c0-1.2,0.5-2.4,1.5-3.2c1.2-0.9,2.7-1.3,4.2-1.2c0.6,0,1.3,0,1.9,0.1c0.5,0.1,1,0.2,1.5,0.4c0.4,0.2,0.7,0.5,1,0.8c0.2,0.3,0.3,0.7,0.3,1.1c0,0.4-0.1,0.7-0.3,1c-0.2,0.3-0.4,0.5-0.7,0.7c-0.4-0.3-0.9-0.5-1.4-0.6c-0.6-0.2-1.3-0.2-1.9-0.2c-0.5,0-1,0.1-1.5,0.3c-0.3,0.2-0.5,0.4-0.5,0.7c0,0.2,0.1,0.4,0.3,0.6c0.3,0.2,0.6,0.3,0.9,0.4l1.2,0.4c1.2,0.4,2.3,1,3.3,1.8c1.6,1.6,1.6,4.3,0,5.9c-0.1,0.1-0.2,0.2-0.4,0.3c-1.4,0.9-3,1.3-4.6,1.2c-0.7,0-1.3-0.1-2-0.2c-0.6-0.1-1.1-0.3-1.6-0.5c-0.4-0.2-0.8-0.5-1.1-0.8c-0.3-0.3-0.4-0.8-0.4-1.2c0-0.4,0.1-0.9,0.4-1.2c0.3-0.3,0.5-0.6,0.9-0.7c0.5,0.3,1,0.6,1.6,0.9c0.6,0.3,1.3,0.4,2,0.4c0.6,0.1,1.1-0.1,1.6-0.4c0.3-0.2,0.5-0.5,0.5-0.8c0-0.3-0.1-0.6-0.4-0.7c-0.3-0.2-0.6-0.4-1-0.5L184.6,81.9z"/>
<path fill="#fff" d="M197.9,75.8c0.8,0,1.6,0.1,2.3,0.3c0.6,0.1,1.3,0.4,1.8,0.8c0.5,0.3,0.9,0.8,1.1,1.3c0.3,0.6,0.4,1.2,0.4,1.9v5.3c0,0.4-0.1,0.7-0.3,1c-0.2,0.3-0.5,0.5-0.8,0.7c-1.3,0.7-2.7,1-4.2,0.9c-0.7,0-1.5-0.1-2.2-0.2c-0.6-0.2-1.2-0.4-1.7-0.7c-0.5-0.3-0.8-0.7-1.1-1.2c-0.3-0.5-0.4-1.1-0.4-1.7c-0.1-0.9,0.3-1.8,0.9-2.5c0.8-0.7,1.8-1,2.9-1.1l3-0.3v-0.2c0-0.4-0.2-0.8-0.6-1c-0.5-0.2-1.1-0.3-1.7-0.3c-0.6,0-1.1,0.1-1.7,0.2c-0.5,0.1-1,0.3-1.5,0.5c-0.2-0.2-0.4-0.4-0.5-0.6c-0.1-0.3-0.2-0.6-0.2-0.9c0-0.4,0.1-0.7,0.3-1c0.2-0.3,0.6-0.5,0.9-0.6c0.5-0.2,1.1-0.3,1.6-0.4C196.8,75.8,197.4,75.8,197.9,75.8 M198.1,85c0.3,0,0.6,0,0.9-0.1c0.3-0.1,0.6-0.1,0.7-0.2v-1.9l-1.7,0.1c-0.4,0-0.8,0.1-1.1,0.3c-0.3,0.1-0.4,0.4-0.4,0.7c0,0.3,0.1,0.6,0.4,0.8C197.3,84.9,197.7,85.1,198.1,85"/>
<path fill="#fff" d="M209.8,87.5c-0.2,0-0.4,0.1-0.8,0.1c-0.3,0.1-0.7,0.1-1,0.1c-0.3,0-0.6,0-0.9-0.1c-0.3,0-0.5-0.1-0.7-0.3c-0.2-0.1-0.4-0.4-0.4-0.6c-0.1-0.3-0.1-0.7-0.1-1V72c0.2,0,0.4-0.1,0.8-0.1c0.3-0.1,0.7-0.1,1-0.1c0.3,0,0.6,0,0.9,0.1c0.3,0,0.5,0.1,0.7,0.3c0.2,0.1,0.4,0.4,0.4,0.6c0.1,0.3,0.2,0.7,0.2,1L209.8,87.5L209.8,87.5z"/>
<path fill="#fff" d="M212.3,76.3c0.2,0,0.4-0.1,0.7-0.1s0.7-0.1,1-0.1c0.3,0,0.6,0,0.9,0.1c0.3,0,0.5,0.1,0.7,0.3c0.2,0.1,0.4,0.4,0.4,0.6c0.1,0.3,0.1,0.7,0.1,1v5.1c0,0.5,0.2,1,0.5,1.4c0.4,0.3,0.8,0.4,1.3,0.4c0.3,0,0.6,0,0.9-0.1c0.2-0.1,0.4-0.1,0.5-0.2v-8.4c0.2,0,0.4-0.1,0.7-0.1s0.7-0.1,1-0.1c0.3,0,0.6,0,0.9,0.1c0.3,0,0.5,0.1,0.7,0.3c0.2,0.1,0.4,0.4,0.4,0.6c0.1,0.3,0.2,0.7,0.2,1v7.2c0,0.7-0.3,1.4-1,1.8c-0.6,0.3-1.2,0.6-1.9,0.8c-0.8,0.2-1.6,0.3-2.4,0.3c-0.8,0-1.6-0.1-2.3-0.3c-0.7-0.2-1.3-0.5-1.8-0.9c-0.5-0.4-0.9-0.9-1.2-1.5c-0.3-0.7-0.4-1.5-0.4-2.3v-6.9H212.3z"/>
<path fill="#fff" d="M225.3,81.8c0-0.9,0.2-1.8,0.5-2.7c0.3-0.7,0.7-1.4,1.3-1.9c0.5-0.5,1.2-0.9,1.9-1.1c0.8-0.2,1.6-0.4,2.4-0.4c0.3,0,0.6,0,0.9,0.1c0.2,0.1,0.5,0.1,0.7,0.2v-3.8c0.2,0,0.5-0.1,0.7-0.2c0.3-0.1,0.7-0.1,1-0.1c0.3,0,0.6,0,0.9,0.1c0.3,0,0.5,0.1,0.7,0.3c0.2,0.1,0.4,0.4,0.4,0.6c0.1,0.3,0.1,0.7,0.1,1v11.2c0,0.7-0.4,1.4-1,1.8c-0.5,0.4-1.1,0.6-1.7,0.8c-0.8,0.2-1.7,0.3-2.5,0.3c-0.9,0-1.8-0.1-2.7-0.4c-0.7-0.3-1.4-0.7-2-1.2c-0.5-0.5-1-1.2-1.2-1.9C225.5,83.6,225.4,82.7,225.3,81.8 M231.9,78.9c-0.7-0.1-1.4,0.2-1.9,0.7c-0.9,1.3-0.9,3-0.1,4.4c0.5,0.5,1.1,0.8,1.8,0.7c0.5,0.1,0.9-0.1,1.3-0.4v-5.2C232.7,79,232.3,78.9,231.9,78.9"/>
</svg>
