<?xml version="1.0" standalone="no"?>
<!DOCTYPE svg PUBLIC "-//W3C//DTD SVG 20010904//EN"
 "http://www.w3.org/TR/2001/REC-SVG-20010904/DTD/svg10.dtd">
<svg version="1.0" xmlns="http://www.w3.org/2000/svg"
 width="512.000000pt" height="512.000000pt" viewBox="0 0 512.000000 512.000000"
 preserveAspectRatio="xMidYMid meet">
<metadata>
Created by potrace 1.11, written by Peter Selinger 2001-2013
</metadata>
<g transform="translate(0.000000,512.000000) scale(0.100000,-0.100000)"
fill="#000000" stroke="none">
<path d="M0 2560 l0 -2560 2560 0 2560 0 0 2560 0 2560 -2560 0 -2560 0 0
-2560z m663 259 c66 -18 94 -62 64 -103 -12 -16 -15 -16 -52 0 -95 39 -192 -7
-202 -98 -10 -89 44 -153 125 -146 35 3 37 5 40 41 l3 37 -39 0 c-34 0 -41 4
-46 25 -4 14 -2 34 4 45 9 17 21 20 93 20 51 0 88 -5 95 -12 13 -13 17 -185 4
-204 -19 -29 -79 -48 -152 -48 -164 -1 -249 74 -250 222 0 104 53 179 152 213
61 21 107 23 161 8z m3908 1 c56 -16 101 -51 129 -100 34 -61 35 -175 2 -237
-82 -156 -330 -149 -403 12 -34 73 -22 202 23 255 60 69 155 96 249 70z
m-3623 -12 c5 -7 12 -78 14 -156 3 -137 4 -145 27 -163 31 -25 73 -24 97 2 17
18 19 40 22 175 l3 154 44 0 c70 0 75 -11 75 -163 0 -157 -9 -195 -55 -236
-91 -80 -251 -60 -309 39 -18 31 -21 55 -24 198 l-4 162 50 0 c27 0 54 -6 60
-12z m616 0 c21 -9 31 -28 50 -92 63 -208 88 -306 82 -321 -4 -12 -17 -15 -53
-13 -48 3 -60 14 -77 71 -4 14 -17 17 -74 17 l-69 0 -9 -42 -9 -43 -49 0 c-86
0 -86 19 6 282 33 95 55 143 66 146 35 9 112 7 136 -5z m338 1 c11 -6 46 -65
80 -135 33 -68 62 -124 64 -124 2 0 1 61 -3 135 l-6 135 49 0 c28 0 55 -5 62
-12 9 -9 12 -70 12 -214 0 -175 -2 -203 -16 -208 -29 -11 -99 -6 -119 8 -11 8
-45 68 -75 135 -30 66 -57 121 -60 121 -3 0 -5 -60 -5 -132 l0 -133 -41 -3
c-72 -5 -74 1 -74 223 0 174 2 195 18 204 23 14 88 14 114 0z m602 1 c21 -7
30 -25 52 -97 67 -218 92 -318 80 -325 -20 -13 -93 -9 -105 6 -7 8 -16 27 -20
43 -7 27 -9 28 -76 28 l-68 0 -11 -40 c-12 -40 -12 -40 -60 -40 -70 0 -76 15
-48 112 49 166 104 312 121 316 31 9 110 7 135 -3z m397 0 c18 -10 19 -23 19
-181 0 -196 -6 -217 -70 -243 -70 -28 -145 -13 -156 30 -10 38 2 54 40 54 62
0 66 12 66 191 l0 159 41 0 c22 0 49 -5 60 -10z m223 -12 c13 -18 16 -52 16
-160 0 -130 1 -138 22 -152 34 -24 73 -20 97 10 19 24 21 40 21 175 l0 149 50
0 c38 0 52 -4 60 -19 5 -11 10 -82 10 -157 0 -165 -14 -205 -83 -245 -55 -32
-165 -34 -216 -4 -76 44 -90 92 -91 288 l0 137 49 0 c40 0 53 -4 65 -22z m616
12 c20 -11 39 -63 99 -275 44 -154 44 -155 -25 -155 -45 0 -61 12 -73 57 -7
27 -9 28 -77 28 l-69 0 -9 -42 -9 -43 -46 0 c-49 0 -71 13 -71 41 0 17 45 165
95 311 17 48 33 78 43 81 33 9 124 7 142 -3z m504 -6 c10 -25 7 -59 -6 -72 -7
-7 -33 -12 -60 -12 l-48 0 -2 -167 -3 -168 -47 -3 c-72 -5 -78 10 -78 190 l0
148 -54 0 c-56 0 -66 8 -66 50 0 44 22 50 195 50 139 0 164 -2 169 -16z"/>
<path d="M4455 2719 c-70 -34 -70 -205 1 -238 82 -37 144 14 144 119 0 56 -20
104 -49 120 -24 12 -69 12 -96 -1z"/>
<path d="M1471 2648 c-12 -34 -21 -66 -21 -70 0 -4 21 -8 46 -8 38 0 45 3 40
18 -3 9 -10 38 -17 65 -6 26 -15 50 -19 52 -5 3 -18 -23 -29 -57z"/>
<path d="M2411 2645 c-12 -37 -21 -69 -21 -71 0 -2 20 -4 45 -4 25 0 45 3 45
6 0 15 -33 120 -40 128 -5 5 -18 -22 -29 -59z"/>
<path d="M3648 2663 c-34 -98 -35 -93 16 -93 25 0 46 3 46 6 0 14 -33 120 -39
127 -4 4 -14 -14 -23 -40z"/>
</g>
</svg>
