<svg xmlns="http://www.w3.org/2000/svg" xmlns:xlink="http://www.w3.org/1999/xlink" viewBox="0 0 376.51 1046.13"><defs><style>.cls-1{fill:none;}.cls-2{isolation:isolate;}.cls-3{fill:url(#Degradado_sin_nombre_173);}.cls-4{fill:url(#Degradado_sin_nombre_173-2);}.cls-5{fill:url(#Degradado_sin_nombre_30);}.cls-6{fill:#f9f1f7;}.cls-7{fill:url(#Degradado_sin_nombre_147);}.cls-8{fill:url(#Degradado_sin_nombre_147-2);}.cls-9{fill:url(#Degradado_sin_nombre_147-3);}.cls-10{fill:url(#Degradado_sin_nombre_147-4);}.cls-11{fill:url(#Degradado_sin_nombre_147-5);}.cls-12,.cls-13,.cls-18,.cls-44,.cls-46,.cls-47{opacity:0.3;}.cls-12{fill:url(#Degradado_sin_nombre_149);}.cls-13{fill:url(#Degradado_sin_nombre_149-2);}.cls-14{fill:url(#Degradado_sin_nombre_62);}.cls-15{fill:url(#Degradado_sin_nombre_37);}.cls-16{fill:url(#Degradado_sin_nombre_55);}.cls-17{fill:url(#Degradado_sin_nombre_126);}.cls-18{fill:#55402a;mix-blend-mode:multiply;}.cls-19{fill:url(#Degradado_sin_nombre_34);}.cls-20{fill:#383845;}.cls-21{fill:#3c3c56;}.cls-22{fill:#dfab77;}.cls-23{fill:#fff;}.cls-24{clip-path:url(#clip-path);}.cls-25{fill:#494996;}.cls-26{clip-path:url(#clip-path-2);}.cls-27{fill:#db977e;}.cls-28{fill:url(#Degradado_sin_nombre_62-2);}.cls-29{fill:url(#Degradado_sin_nombre_31);}.cls-30{fill:url(#Degradado_sin_nombre_30-2);}.cls-31{fill:url(#Degradado_sin_nombre_62-3);}.cls-32{fill:url(#Degradado_sin_nombre_333);}.cls-33{fill:url(#Degradado_sin_nombre_30-3);}.cls-34{fill:url(#Degradado_sin_nombre_62-4);}.cls-35{fill:url(#Degradado_sin_nombre_29);}.cls-36{fill:url(#Degradado_sin_nombre_33);}.cls-37{fill:url(#Degradado_sin_nombre_29-2);}.cls-38{fill:url(#Degradado_sin_nombre_126-2);}.cls-39{fill:url(#Degradado_sin_nombre_33-2);}.cls-40{fill:url(#Degradado_sin_nombre_33-3);}.cls-41{opacity:0.9;fill:url(#Degradado_sin_nombre_69);}.cls-42{fill:url(#Degradado_sin_nombre_72);}.cls-43{fill:url(#Degradado_sin_nombre_33-4);}.cls-44{fill:url(#Degradado_sin_nombre_151);}.cls-45{fill:url(#Degradado_sin_nombre_126-3);}.cls-46{fill:url(#Degradado_sin_nombre_146);}.cls-47{fill:url(#Degradado_sin_nombre_28);}.cls-48{fill:url(#Degradado_sin_nombre_33-5);}</style><linearGradient id="Degradado_sin_nombre_173" x1="223.72" y1="973.52" x2="173.03" y2="1017.59" gradientUnits="userSpaceOnUse"><stop offset="0" stop-color="#ebebeb"/><stop offset="1" stop-color="#fff"/></linearGradient><linearGradient id="Degradado_sin_nombre_173-2" x1="288.6" y1="1004.9" x2="262.79" y2="1050.14" xlink:href="#Degradado_sin_nombre_173"/><linearGradient id="Degradado_sin_nombre_30" x1="202.6" y1="17.78" x2="202.6" y2="338.51" gradientUnits="userSpaceOnUse"><stop offset="0" stop-color="#665275"/><stop offset="0.97" stop-color="#525267"/></linearGradient><linearGradient id="Degradado_sin_nombre_147" x1="204.31" y1="522.91" x2="204.31" y2="991.43" gradientUnits="userSpaceOnUse"><stop offset="0" stop-color="#ccccd0"/><stop offset="0.09" stop-color="#dedee0"/><stop offset="0.2" stop-color="#ebebec"/><stop offset="0.34" stop-color="#f3f3f3"/><stop offset="0.62" stop-color="#f5f5f5"/><stop offset="1" stop-color="#fff"/></linearGradient><linearGradient id="Degradado_sin_nombre_147-2" x1="243.73" y1="522.91" x2="243.73" y2="991.43" xlink:href="#Degradado_sin_nombre_147"/><linearGradient id="Degradado_sin_nombre_147-3" x1="157.8" y1="522.91" x2="157.8" y2="991.43" xlink:href="#Degradado_sin_nombre_147"/><linearGradient id="Degradado_sin_nombre_147-4" x1="176.97" y1="522.91" x2="176.97" y2="991.43" xlink:href="#Degradado_sin_nombre_147"/><linearGradient id="Degradado_sin_nombre_147-5" x1="280.33" y1="522.91" x2="280.33" y2="991.43" xlink:href="#Degradado_sin_nombre_147"/><linearGradient id="Degradado_sin_nombre_149" x1="213.9" y1="546.82" x2="213.9" y2="987.82" gradientUnits="userSpaceOnUse"><stop offset="0" stop-color="#2c285b"/><stop offset="0.21" stop-color="#353262" stop-opacity="0.96"/><stop offset="0.42" stop-color="#514e78" stop-opacity="0.82"/><stop offset="0.63" stop-color="#807e9c" stop-opacity="0.6"/><stop offset="0.84" stop-color="#c1c0cf" stop-opacity="0.29"/><stop offset="1" stop-color="#fff" stop-opacity="0"/></linearGradient><linearGradient id="Degradado_sin_nombre_149-2" x1="213.55" y1="640.55" x2="213.55" y2="886.83" xlink:href="#Degradado_sin_nombre_149"/><linearGradient id="Degradado_sin_nombre_62" x1="189.9" y1="360.92" x2="189.9" y2="154.56" gradientUnits="userSpaceOnUse"><stop offset="0" stop-color="#3e3848"/><stop offset="1" stop-color="#4a4b5c"/></linearGradient><linearGradient id="Degradado_sin_nombre_37" x1="208.51" y1="293.17" x2="213.37" y2="345.75" gradientUnits="userSpaceOnUse"><stop offset="0" stop-color="#dfa383"/><stop offset="0.04" stop-color="#e1a988"/><stop offset="0.21" stop-color="#e8be96"/><stop offset="0.37" stop-color="#ecc9a2"/><stop offset="0.59" stop-color="#eed0aa"/><stop offset="1" stop-color="#efd2ac"/></linearGradient><linearGradient id="Degradado_sin_nombre_55" x1="203.35" y1="557.85" x2="203.35" y2="356.64" gradientUnits="userSpaceOnUse"><stop offset="0" stop-color="#f1d1f5"/><stop offset="0.86" stop-color="#f9f1f7"/></linearGradient><linearGradient id="Degradado_sin_nombre_126" x1="220.98" y1="568.84" x2="385.73" y2="544.99" gradientUnits="userSpaceOnUse"><stop offset="0" stop-color="#fff"/><stop offset="0.38" stop-color="#f5f5f5"/><stop offset="1" stop-color="#ccccd0"/></linearGradient><radialGradient id="Degradado_sin_nombre_34" cx="181.51" cy="193.62" r="107.16" gradientUnits="userSpaceOnUse"><stop offset="0" stop-color="#efd2ac"/><stop offset="0.41" stop-color="#eed0aa"/><stop offset="0.63" stop-color="#ecc9a2"/><stop offset="0.79" stop-color="#e8be96"/><stop offset="0.96" stop-color="#e1a988"/><stop offset="1" stop-color="#dfa383"/></radialGradient><clipPath id="clip-path"><path class="cls-1" d="M208.67,208.44c.73-21.54-23.69-31-29.45-27.26s-8.08,10.19-8.23,16.74c-.14,9.76,11.58,12.27,18.2,12.65C201.82,211.31,208.34,208.51,208.67,208.44Z"/></clipPath><clipPath id="clip-path-2"><path class="cls-1" d="M127.36,196.32c.55-18.19-18-26.2-22.35-23s-6.13,8.61-6.24,14.14c-.11,8.24,8.79,10.37,13.81,10.69C122.16,198.74,127.1,196.38,127.36,196.32Z"/></clipPath><linearGradient id="Degradado_sin_nombre_62-2" x1="235.75" y1="132.16" x2="314.66" y2="132.16" xlink:href="#Degradado_sin_nombre_62"/><linearGradient id="Degradado_sin_nombre_31" x1="276.91" y1="211.29" x2="300.04" y2="200.06" gradientUnits="userSpaceOnUse"><stop offset="0" stop-color="#dfa383"/><stop offset="0.08" stop-color="#e1a988"/><stop offset="0.38" stop-color="#e8be96"/><stop offset="0.98" stop-color="#efd1ab"/><stop offset="1" stop-color="#efd2ac"/></linearGradient><linearGradient id="Degradado_sin_nombre_30-2" x1="150.04" y1="64.78" x2="150.04" y2="198.69" xlink:href="#Degradado_sin_nombre_30"/><linearGradient id="Degradado_sin_nombre_62-3" x1="-76.25" y1="133.45" x2="81.17" y2="133.45" gradientTransform="matrix(-0.92, 0.4, 0.4, 0.92, 89.41, -18.41)" xlink:href="#Degradado_sin_nombre_62"/><linearGradient id="Degradado_sin_nombre_333" x1="90.37" y1="60.12" x2="223.9" y2="60.12" gradientTransform="matrix(0.99, 0.14, -0.14, 0.99, 14.28, -13.22)" gradientUnits="userSpaceOnUse"><stop offset="0" stop-color="#4a4b5c"/><stop offset="1" stop-color="#3e3848"/></linearGradient><linearGradient id="Degradado_sin_nombre_30-3" x1="251.31" y1="64.78" x2="251.31" y2="198.69" xlink:href="#Degradado_sin_nombre_30"/><linearGradient id="Degradado_sin_nombre_62-4" x1="225.83" y1="139.18" x2="286.5" y2="139.18" xlink:href="#Degradado_sin_nombre_62"/><linearGradient id="Degradado_sin_nombre_29" x1="27.35" y1="278.72" x2="21.24" y2="446.17" xlink:href="#Degradado_sin_nombre_34"/><linearGradient id="Degradado_sin_nombre_33" x1="241.29" y1="656.11" x2="330.64" y2="656.11" gradientUnits="userSpaceOnUse"><stop offset="0" stop-color="#2c285b" stop-opacity="0.3"/><stop offset="1" stop-color="#ccccd0" stop-opacity="0"/></linearGradient><linearGradient id="Degradado_sin_nombre_29-2" x1="995.38" y1="-635.6" x2="990.89" y2="-512.54" gradientTransform="translate(1308.83 1045.82) rotate(-120.83)" xlink:href="#Degradado_sin_nombre_34"/><linearGradient id="Degradado_sin_nombre_126-2" x1="241.66" y1="482.84" x2="364.15" y2="482.84" xlink:href="#Degradado_sin_nombre_126"/><linearGradient id="Degradado_sin_nombre_33-2" x1="248.19" y1="484.88" x2="365.3" y2="484.88" xlink:href="#Degradado_sin_nombre_33"/><linearGradient id="Degradado_sin_nombre_33-3" x1="209.04" y1="370.38" x2="254" y2="370.38" xlink:href="#Degradado_sin_nombre_33"/><linearGradient id="Degradado_sin_nombre_69" x1="185.46" y1="431.8" x2="180.55" y2="452.51" gradientUnits="userSpaceOnUse"><stop offset="0" stop-color="#fff" stop-opacity="0"/><stop offset="0.03" stop-color="#fff" stop-opacity="0.08"/><stop offset="0.1" stop-color="#fff" stop-opacity="0.27"/><stop offset="0.17" stop-color="#fff" stop-opacity="0.45"/><stop offset="0.25" stop-color="#fff" stop-opacity="0.6"/><stop offset="0.33" stop-color="#fff" stop-opacity="0.72"/><stop offset="0.42" stop-color="#fff" stop-opacity="0.82"/><stop offset="0.52" stop-color="#fff" stop-opacity="0.9"/><stop offset="0.63" stop-color="#fff" stop-opacity="0.96"/><stop offset="0.77" stop-color="#fff" stop-opacity="0.99"/><stop offset="1" stop-color="#fff"/></linearGradient><linearGradient id="Degradado_sin_nombre_72" x1="329.68" y1="397.23" x2="288.97" y2="428.93" gradientUnits="userSpaceOnUse"><stop offset="0" stop-color="#fff"/><stop offset="1" stop-color="#fff" stop-opacity="0"/></linearGradient><linearGradient id="Degradado_sin_nombre_33-4" x1="244.21" y1="445.64" x2="327.64" y2="445.64" xlink:href="#Degradado_sin_nombre_33"/><linearGradient id="Degradado_sin_nombre_151" x1="172.86" y1="578.4" x2="55.34" y2="618.2" gradientUnits="userSpaceOnUse"><stop offset="0" stop-color="#2c285b"/><stop offset="0.05" stop-color="#353262" stop-opacity="0.96"/><stop offset="0.09" stop-color="#514e78" stop-opacity="0.82"/><stop offset="0.14" stop-color="#807e9c" stop-opacity="0.6"/><stop offset="0.18" stop-color="#c1c0cf" stop-opacity="0.29"/><stop offset="0.22" stop-color="#fff" stop-opacity="0"/><stop offset="0.28" stop-color="#d0cfda" stop-opacity="0.22"/><stop offset="0.37" stop-color="#9492ac" stop-opacity="0.51"/><stop offset="0.48" stop-color="#666388" stop-opacity="0.73"/><stop offset="0.6" stop-color="#45416e" stop-opacity="0.88"/><stop offset="0.75" stop-color="#322e5f" stop-opacity="0.97"/><stop offset="1" stop-color="#2c285b"/></linearGradient><linearGradient id="Degradado_sin_nombre_126-3" x1="156.8" y1="537.34" x2="23.94" y2="582.35" xlink:href="#Degradado_sin_nombre_126"/><linearGradient id="Degradado_sin_nombre_146" x1="0.01" y1="418.65" x2="141.75" y2="418.65" gradientUnits="userSpaceOnUse"><stop offset="0" stop-color="#fff" stop-opacity="0"/><stop offset="0.16" stop-color="#c1c0cf" stop-opacity="0.29"/><stop offset="0.37" stop-color="#807e9c" stop-opacity="0.6"/><stop offset="0.58" stop-color="#514e78" stop-opacity="0.82"/><stop offset="0.79" stop-color="#353262" stop-opacity="0.96"/><stop offset="1" stop-color="#2c285b"/></linearGradient><linearGradient id="Degradado_sin_nombre_28" x1="161.04" y1="463.79" x2="254.94" y2="801.95" gradientUnits="userSpaceOnUse"><stop offset="0" stop-color="#2c285b"/><stop offset="0.1" stop-color="#312e5f" stop-opacity="0.99"/><stop offset="0.21" stop-color="#423e6c" stop-opacity="0.95"/><stop offset="0.32" stop-color="#5d5a81" stop-opacity="0.89"/><stop offset="0.41" stop-color="#7f7c9b" stop-opacity="0.81"/><stop offset="0.46" stop-color="#69668a" stop-opacity="0.86"/><stop offset="0.56" stop-color="#4e4a75" stop-opacity="0.92"/><stop offset="0.66" stop-color="#3b3766" stop-opacity="0.97"/><stop offset="0.78" stop-color="#2f2b5e" stop-opacity="0.99"/><stop offset="1" stop-color="#2c285b"/></linearGradient><linearGradient id="Degradado_sin_nombre_33-5" x1="156.88" y1="412.13" x2="175.63" y2="333.75" xlink:href="#Degradado_sin_nombre_33"/></defs><g class="cls-2"><g id="Capa_2" data-name="Capa 2"><g id="Capa_1-2" data-name="Capa 1"><path class="cls-3" d="M190.72,969.73l1.09,6.24s-4.68-2.66-5.93.78,2.18,3.27,4.53,9c0,0-6.36,12.47-16.5,17.24s-15.86,5.79-16.11,10.58c-.24,4.53,5.39,4.67,16.11,4,11.07-.67,12.86-1.53,19.46-4.83,7.39-3.7,16.21-2.66,25.6-4.48,7.8-1.51,8.5-9.1,5.56-16.87-3.33-8.78-6.63-10.2-6.94-15.07s-1.73-4.24-3.46-3.61l-2.51.94-.79-6.44Z"/><path class="cls-4" d="M299.05,1012.89c-2.92-6.52-4.94-11.23-4.94-15.27a93.62,93.62,0,0,1,.9-10.33l-19.31,4.27A38.52,38.52,0,0,1,275,999l-.93-.28c-2.87-.91-5.09,1-3.91,2.48s1.64,6.3.74,10.51A66.83,66.83,0,0,1,259.75,1029c-4.49,4.94-5.84,10.78-1.35,13.92s20.21,5.33,28.3.17,2.24-9.72,7.86-16.46S301.53,1018.43,299.05,1012.89Z"/><path class="cls-5" d="M249.59,13.64c-11,.88-9.61,10.81-8.86,14.08-39.86-63.11-115.3-3.11-145.07,28.8-14.5,15.53-27,29.24-35.8,35.11-5,3.34-11.19,3-13.35,2.62s-3.27-3.9-1.25-4.77c-5,.71-8.66,6.49-7.13,11.33A9.17,9.17,0,0,0,50.49,106a54.78,54.78,0,0,0-5.91,82.32,60.54,60.54,0,0,0,29.14,89.16c-14.33,6.13-18,26-11.81,40.32S82,351.39,101.15,362.23c35.3,20,217,39.07,212.75,14.25s27.49-41.6,34.38-45.31c16.94-9.11,21.67-34.94,9.05-49.45-3.31-3.81-7.74-9.23-4.4-13,1.18-1.34,3-1.85,4.74-2.29,9-2.31,20.41-7.73,18.66-16.86a15,15,0,0,1-10,4.92c7.91-10.43,6.6-25.65.29-37.13S350,197.31,339.8,189c5.32,1,11,2,16,0s8.83-8.13,6.31-12.92c-3.68,5.42-12.48,5.27-17.31.84s-6.18-11.63-5.43-18.14,3.28-12.65,5.13-18.94c7.89-26.91,44.64-67.64-65.28-89.62,6.47,2.22,18.5-6.73,16-14.86-2-6.53-8.61-8.52-15.42-7.85-11.64,1.15-14.49,6.66-15,3.41C263.5,22.73,258.71,12.91,249.59,13.64Z"/><path class="cls-6" d="M248.28,367.66c6.33,11.36,77.49,92.85,93.19,105.94,9.91,8.25,15.13,9,20.81,5.16,4.2-2.82,3.11-9.88-2.68-20-9.48-16.61-65.63-93.83-75.22-106.87C266.48,328.91,237.35,348,248.28,367.66Z"/><path class="cls-7" d="M265.51,546.31c5.72,15.2,28.19,46.85,25.12,69.32s-26.54,35.22-100.06,34.2c-66-.92-73.46-20.8-72.82-35.74,1.12-26.66,16.85-67,16.85-67Z"/><path class="cls-8" d="M282.83,630.33s23.39,128.47-7.12,163.47-79.64-163.08-79.64-163.08,1.85-23.7,42.2-25.24S282.83,630.33,282.83,630.33Z"/><path class="cls-9" d="M197.36,635.85s-.75,151.54-38.54,178.53-41-199.4-41-199.4,7.29-22.62,46.9-14.78S197.36,635.85,197.36,635.85Z"/><path class="cls-10" d="M138.08,798.83S182,912.07,187.73,970.2c0,0,13.36,5.21,29.1-2.57,0,0,2.68-6.12-3.64-5.88,0,0,2.83-95-8.13-126.49s-31.32-50.81-31.32-50.81-14-14.93-28.13-7.93S138.08,798.83,138.08,798.83Z"/><path class="cls-11" d="M286.93,781.56c8.68,19.29,26.27,52.93,22.78,92.25S293.8,976.59,296.84,982.7c0,0,6.87,2.58,4.23,7.76s-26.48,6.13-30.59,1.76,2.53-8.48,2.53-8.48-10.51-95.68-17-130.08,1.16-46.82-4.72-68.54C245,761.84,277.43,760.45,286.93,781.56Z"/><path class="cls-12" d="M286.89,781.56a25.38,25.38,0,0,0-2.39-4.18c15.26-44.58.56-133.94-1.48-145.74a27.78,27.78,0,0,0,7.57-16c3.07-22.47-19.4-54.12-25.12-69.32l-130.91.76s-15.73,40.36-16.85,67a32.27,32.27,0,0,0,.09,4.49c.48,22.54,3.9,145.29,22.19,185.37,8.56,22.68,42.71,115.48,47.7,166.25,0,0,13.36,5.21,29.1-2.57,0,0,2.68-6.12-3.64-5.88,0,0,2.83-95-8.12-126.49a142.47,142.47,0,0,0-28.48-47.85C192.15,747.29,196,679.15,197,649.88c1.38,0,2.71,0,4.05,0,9.28,34.08,30,104.45,50,134.25.08.33.13.66.23,1,5.88,21.72-1.73,34.14,4.73,68.54s17,130.08,17,130.08-6.64,4.1-2.53,8.48,27.95,3.42,30.59-1.76-4.23-7.76-4.23-7.76c-3-6.11,9.38-69.58,12.87-108.89S295.57,800.85,286.89,781.56Z"/><path class="cls-13" d="M262.72,863.66c-.12-18.15-.82-36.28-1.53-54.4-.4-10.17-.8-20.4-3-30.33-7.41-33-34.24-59.84-38.07-93.43-.81-7.18-.54-14.47-1.72-21.6s-4.11-14.37-9.89-18.7c-7.08-5.3-16.71-5.15-25.54-4.77,4,44.72-9.24,88.91-17.37,133.07-.94,5.09-1.8,10.35-.61,15.38,1.76,7.44,7.62,13,12.82,18.66a148.68,148.68,0,0,1,32.8,57.38c-1.26-11.92-3-22.43-5.53-29.61a142.47,142.47,0,0,0-28.48-47.85c15.6-40.12,19.49-108.27,20.46-137.53,1.38,0,2,0,3.32,0,9.28,34.08,30.06,104.53,50.08,134.33.07.34.13.66.22,1,5.89,21.73-1.74,34.2,4.71,68.6,1.7,9,3.65,22.39,5.64,37C261.5,881.82,262.77,872.59,262.72,863.66Z"/><path class="cls-14" d="M233.63,168.08c5,14.84,20.87,25.18,36.44,23.67,6.23-.6,13.44-2.61,18.1,1.58,3.05,2.74,3.74,7.24,3.66,11.34-.11,5.62-1.3,11.17-1.52,16.78s.67,11.57,4.16,16,11.84,8.94,16.67,6.07c-7.85,9.92-15,.15-18.41,4.83-2.78,3.79,2.22,5.69,2.13,10.39-.13,6.55-8.26,9.25-14.67,10.64-13.29,2.89-29.22,9.25-34,22-10.16,26.9,7.71,66.72,13.16,70.55-15.26,3.07-128.35.4-161.2-52.2-3.72-6.89-3.47-15.35-1.25-22.85,2.71-9.12,8.19-17.64,8.24-27.15.06-13.53-10.56-24.27-18.39-35.29a98.47,98.47,0,0,1-17.64-47.17c-1.24-12.6.11-25.79,6.18-36.9s17.21-21.14,29.85-21.8c7.28-.38,14.62,3.18,21.67,5.06a261.34,261.34,0,0,0,41.45,7.53c4.8.48,9.75.86,14.06,3,3.66,1.84,6.59,4.82,9.61,7.6a111.69,111.69,0,0,0,34.6,21.65"/><path class="cls-15" d="M227.36,314.52A28,28,0,0,0,245.22,335c-16.54,4.78-31.25,11.15-48.46,11.26-5.51,0-13.94-2.45-16.84-7.13,6.94-7.2,11.41-23.74,9.28-42.29.06.65,40.64-18.76,40.64-18.76S224.2,301.31,227.36,314.52Z"/><path class="cls-16" d="M179.92,339.1c-15.66,11.38-25.25,13.3-39.24,17.09C126.41,360.06,126.3,374,130.87,388c4.16,12.79,5.35,9.05,4.46,20.95s-21.9,38-14.47,52,16.65,11.59,16.65,11.59,11.81,30,11.81,36.38-11.93,28.24-14.72,38.19,19.89,16.7,61.66,16.7,70.45-10.3,69.25-17.46S248,511.67,248,501.72s35.8-83.71,38.18-113.54,3.19-40.17-13.92-45.74-26-5.75-33.18-10.92c0,0-18.53,12.11-36.43,12.91S179.92,339.1,179.92,339.1Z"/><path class="cls-17" d="M239.25,330.74s-12.62,49.8-24.65,74.5c-9.7,19.91-18.9,44.19-14.71,58.67s15.38,103.25,50.72,202.27c29.66,79.11,22.88,114.47,23.2,128.48,3.86-1.86,7.07.76,13.66,0,16.57-1.92,39.8-18.27,43.17-15.71,0,0-9.94-142.38-75.39-265.8,0,0,5.93-.19,5.74-2s-6.11-4.45-6.11-4.45,5.56-1.48,4.82-4.07-8.71-3.34-8.71-3.34,25.26-61.85,31.58-86.8c2.91,3.16,41.05,45,41.43,45.48,0,0-1.95,0-1.94,1.56s1.84,1.84,1.84,1.84,38.74,19.62,40.36,16.89c2.27-3.81,1-12.76-5.25-22.59s-64.84-93.71-70.95-102.22-8.95-11.07-24.45-14.7S239.25,330.74,239.25,330.74Z"/><path class="cls-18" d="M229.82,278.08s-40.58,19.41-40.64,18.76a75.44,75.44,0,0,1-1.16,25c1.69-3,2.82-5.93,6.17-14.05,4-9.63,20-9.14,25.44.77A85.89,85.89,0,0,0,233,326.25a27.31,27.31,0,0,1-5.64-11.7C224.18,301.34,229.82,278.08,229.82,278.08Z"/><path class="cls-19" d="M88.86,206.59c-8.68,9.34-12.41,27.51-.5,45.14A60.31,60.31,0,0,0,99.58,264c10.46,8.78,15,21.79,25.41,30.58,4.79,4,9.74,8.14,15.85,10.32,5.62,2,11.84,2.23,17.88,1.85,22.19-1.38,42.82-10.37,62.21-20.09,17-8.52,35.81-17.83,45.64-33.92,19.65-33.61,14.55-51,15.61-59.58.71-25.16-12.4-49.7-32.14-67.68S204.42,95.57,177.5,88.06a206.33,206.33,0,0,0-44.3-7.68c-5.13-.28-44.06,38-39.2,73.14,2.44,17.67,6.94,28.2,4.85,39.13C97.59,199.21,96.75,198.11,88.86,206.59Z"/><path class="cls-20" d="M158.48,306.68c-6,.38-11.87.26-17.49-1.75-6.11-2.18-10.81-6.51-14.73-9.27,4.17,4.66,8.46,10.25,14.57,12.43,5.62,2,11.85,2.23,17.88,1.85,12.54-.78,24.35-5.46,35.64-10.58,3.45-1.58,6.59-3.07,9.63-4.71C180.62,303,174,305.72,158.48,306.68Z"/><path class="cls-21" d="M113.09,215.78c-.3-.46.5-1.38,1-1.63l.36-.18c12.15-4.18,18.72-16.6,20.5-20-3.22,10-9.74,17.92-18.42,22.28,3.25,4.69,11.92,10.08,11.92,10.08S117.74,222.84,113.09,215.78Z"/><path class="cls-22" d="M175,186.72s7.8-16.77,21.43-14.33,14.14,26.05,14.14,26.05Z"/><path class="cls-21" d="M208.56,208.38c2.49-3.84,5-20.6-8.73-29.46-12.41-8-25.4-6-27.18-3.13-1.63,2.61,0,8,2,9.65C174.69,185.44,203.84,205.29,208.56,208.38Z"/><path class="cls-21" d="M175.86,206.42s-3.72,2.37.53,4.19,21.18,3.06,32.28-2.17Z"/><path class="cls-23" d="M208.67,208.44c.73-21.54-23.69-31-29.45-27.26s-8.08,10.19-8.23,16.74c-.14,9.76,11.58,12.27,18.2,12.65C201.82,211.31,208.34,208.51,208.67,208.44Z"/><g class="cls-24"><ellipse class="cls-25" cx="193.34" cy="198.23" rx="13.58" ry="13.08"/></g><path class="cls-23" d="M180.63,193.48a3.15,3.15,0,1,0,3.15-3.17A3.16,3.16,0,0,0,180.63,193.48Z"/><path class="cls-22" d="M101.78,178s5.91-14.17,16.25-12.11,10.73,22,10.73,22Z"/><path class="cls-21" d="M127.28,196.27c1.88-3.25,3.78-17.4-6.63-24.88-9.42-6.77-19.27-5.08-20.62-2.65-1.23,2.21,0,6.74,1.54,8.16C101.57,176.9,123.69,193.66,127.28,196.27Z"/><path class="cls-21" d="M102.47,194.61s-2.83,2,.4,3.54,16.07,2.59,24.49-1.83Z"/><path class="cls-23" d="M127.36,196.32c.55-18.19-18-26.2-22.35-23s-6.13,8.61-6.24,14.14c-.11,8.24,8.79,10.37,13.81,10.69C122.16,198.74,127.1,196.38,127.36,196.32Z"/><g class="cls-26"><path class="cls-25" d="M129.4,189.55c0,6.1-4.62,11-10.3,11s-10.3-4.95-10.3-11,4.61-11.05,10.3-11.05S129.4,183.45,129.4,189.55Z"/></g><path class="cls-23" d="M109.63,184.87a2.39,2.39,0,1,0,2.38-2.38A2.38,2.38,0,0,0,109.63,184.87Z"/><path class="cls-18" d="M218.41,103.88a215.9,215.9,0,0,0-40.92-15.82,206.24,206.24,0,0,0-44.29-7.68c-4-.22-28.19,22.69-36.68,49.34a39.36,39.36,0,0,1,18-4.15C136.73,125.57,186.65,130.64,218.41,103.88Z"/><path class="cls-27" d="M228.64,229.9c-.51,8.69-11.84,15.2-25.31,14.54s-24-8.24-23.47-16.93,11.83-15.2,25.3-14.54S229.14,221.21,228.64,229.9Z"/><path class="cls-27" d="M95.94,203.75a25.09,25.09,0,0,0-4.28.19c-.81.83-1.73,1.78-2.78,2.91a30.59,30.59,0,0,0-7.16,14,21.07,21.07,0,0,0,13,4.79c9.36.46,17.24-4.07,17.59-10.11S105.3,204.21,95.94,203.75Z"/><path class="cls-28" d="M235.75,94.34s22.51.91,38.34,9.55,22.8,18.2,22,31.84c-.88,15.46-1.49,28.32,18.55,35,0,0-16.52-10.85-11.13-35.48,4.24-19.4-9.39-32.27-23.75-37.08C267.27,94,251.83,92.52,235.75,94.34Z"/><ellipse class="cls-29" cx="289.25" cy="205.3" rx="13.11" ry="12.06"/><path class="cls-21" d="M209,154.25c-7.49-4.28-20.17-5.43-30.34-1.84a51,51,0,0,0-13.06,7.29,7.76,7.76,0,0,0,1.41,1.08,14.73,14.73,0,0,0,3.09,1.29c12.12-4.91,29-8.78,41.32.17a86.6,86.6,0,0,1,10.65,9.3C221.31,169.11,217,158.83,209,154.25Z"/><path class="cls-21" d="M105.6,147.16c5.43-3.7,13.94-3.9,20.26.42a33.09,33.09,0,0,1,7.83,8.21,6.33,6.33,0,0,1-1.05,1,8.63,8.63,0,0,1-2.19,1.05c-7.47-5.77-18.18-10.87-27.33-2.89a30.53,30.53,0,0,0-6.57,8.23C97,157.94,99.79,151.12,105.6,147.16Z"/><path class="cls-21" d="M185.91,242.41l-6.6-3.49,1.26,2.55a153.79,153.79,0,0,1-31.47,3.95c-19.28.46-30.85-4.25-30.85-4.25a15.25,15.25,0,0,0,3.79,5.67c1.24,1.71,7.73,20.26,23.54,21.22s28.57-6.82,35.86-24.57c.07-.17.13-.31.19-.47Z"/><path class="cls-23" d="M122.73,244.84a72.07,72.07,0,0,0,23.18,2.88,146.09,146.09,0,0,0,34-4.73s-5,19.1-29.67,21.7C132.46,266.54,122.73,244.84,122.73,244.84Z"/><path class="cls-30" d="M218.39,103.81S166.32,44.49,105.77,82.89c-26.06,17.27-24,48.33-24,48.33s9.87-14.15,32.1-14.15S185.54,125.21,218.39,103.81Z"/><path class="cls-31" d="M64,126.46S75.76,95.4,107.9,94.64s49.67,1.88,69.06-10,46,12.57,46,12.57-28.93-16-43.21-4.48-50.42,9.92-72.11,9.57S72.21,116.7,64,126.46Z"/><path class="cls-32" d="M225.13,93.2s10.76-37.07-29.91-35.83c-20.38.62-23.53,5.65-35.37,1.7-22.5-7.51-51.15-.34-66.77,16.05,0,0,31-19,65.69-9.05C189.91,75,215.16,46.29,225.13,93.2Z"/><path class="cls-18" d="M218.39,103.81s0,85.85,36.91,100.63c11.23,4.49,23.13-5.62,23.13-5.62Z"/><path class="cls-33" d="M218.35,103.77c.82,6.57,4.12,23,7,36.82s7.27,27.56,15,39.74c4.36,6.89,10,13.43,17.71,17s19.57,5,24.43-1.55C289.77,185.86,276.51,114.43,218.35,103.77Z"/><path class="cls-34" d="M225.83,101.26s3.61,63.14,60.67,75.85C286.5,177.11,249.66,157.41,225.83,101.26Z"/><path class="cls-6" d="M141.48,356.11c-12.62,3.15-109.81,50.66-126.54,62.43C4.4,426,2.34,430.81,4.54,437.28c1.64,4.79,8.73,5.57,20,2.62,18.51-4.82,107.68-39,122.76-44.83C174.16,383.76,163.26,350.66,141.48,356.11Z"/><path class="cls-35" d="M5.63,438.33c-3-5.8-4.37-34.29,5.14-66.17s17.48-58.6,17.48-58.6-6.94-9-9-14.39,10.28-18,12.59-18c0,0-6.77-20.12-3.94-21.41s10.37,17.81,11.4,20.12,3.85,1,5.4,3.34,1.8,18.51-2.57,27.51-6.17,55.51-7.2,69.91-1.54,31.61-4.37,44.2S5.63,438.33,5.63,438.33Z"/><path class="cls-20" d="M189.52,300.29c1.22,17.08-3.08,31.94-9.55,38.75a18.6,18.6,0,0,0,2.15-1.92c6.43-6.67,10.63-20.71,9.54-37.58C191,299.8,190.24,300,189.52,300.29Z"/><path class="cls-23" d="M231.79,324.77s3.82,5.57,4.14,7.88-9.31,42-12.73,51.23S209,417.13,209,417.13s15.27-24.58,21.08-32.45,8.75-11.62,9.7-12.57.24-2.31-.63-3a17.23,17.23,0,0,0-1.67-1.19s17.16-23.34,16.46-31.66c-.15-1.91-.31-2.07-3.66-3-1.35-.39-7.47-1.2-10.26-3.9C235.77,325.14,232,321.79,231.79,324.77Z"/><path class="cls-36" d="M241.29,522.57s4.28,20.69,7.85,22.95c1.79,1.13,5.5.15,8.77-1.12s35.18,65.21,49.21,144.15c14.52,81.78,7,93.44-5.45,102,12.84-4.9,26.61-13.38,29-11.58,0,0-9.5-135.9-71-257.24Z"/><path class="cls-37" d="M362.55,471.76c-3.46,5.52-27.2,21.33-59.44,29.5s-54.84,7.22-54.84,7.22,10.49,0,15,3.58.48,20.72-1.5,21.91c0,0-9.56,6.06-12.07,4.87S238,517.3,237.12,507.34s88.82-46,101.09-50.08S362.55,471.76,362.55,471.76Z"/><path class="cls-38" d="M339.26,456.4C336.15,457,266,482.08,244.19,499a2,2,0,0,0-2.06.19c-.84.79-.28,2.2-.28,2.2s2-1.35,4.78,2.25,3.77,4.95,3.77,4.95a41.53,41.53,0,0,1,7.23,1l1-.54a34.93,34.93,0,0,0,5.9.34c2.7-.13,62.88-7.84,99.64-31.14,0,0-.11-8.92-6.41-14.7C353.15,459.38,348.09,454.77,339.26,456.4Z"/><path class="cls-39" d="M364.25,478.22c2-3.36,1.27-10.7-3.23-19.12,3.34,10.61-12.48,15.3-32.87,23.82-16.55,6.9-80,22.73-80,22.73s1.4,1.83,2.2,2.93a39.33,39.33,0,0,1,6.29.82,19.67,19.67,0,0,1,4.15,1.26,5,5,0,0,0-1.48-1.48,32.73,32.73,0,0,0,5.15.24c2.69-.13,62.62-7.86,99.42-31A.52.52,0,0,0,364.25,478.22Z"/><path class="cls-40" d="M231.79,324.77s3.82,5.57,4.14,7.88-9.31,42-12.73,51.23S209,417.13,209,417.13s15.27-24.58,21.08-32.45,8.75-11.62,9.7-12.57.24-2.31-.63-3a17.23,17.23,0,0,0-1.67-1.19s17.16-23.34,16.46-31.66c-.15-1.91-.31-2.07-3.66-3-1.35-.39-7.47-1.2-10.26-3.9C235.77,325.14,232,321.79,231.79,324.77Z"/><path class="cls-41" d="M217.51,452.7c8.75.15,16.51-6.77,21.42-13.68,2.83-4,4.55-8.86,3.75-13.6s-4.48-9.17-9.42-10.17a19.67,19.67,0,0,0-4.85-.22c-5.45.25-10.86,1-16.28,1.58a198.3,198.3,0,0,1-47.89-.92c-4.63-.65-9.27-1.48-14-1.44s-9.5,1-13.31,3.57c-4.71,3.21-12.94,23.43-9.53,26.66,3.87,3.67,13.54,5.62,18.62,7,6.8,1.81,22.56,4.17,29.6,4.62C186.9,456.79,200,452.42,217.51,452.7Z"/><path class="cls-42" d="M309.3,411.41a401.22,401.22,0,0,1,28.21,40.49c1.35,2.2,2.72,4.71,2.17,7.23-.65,2.94-3.61,4.67-6.31,6q-14.13,7-28.86,12.78c-1.94.76-4.3,2.3-3.66,4.28a3.17,3.17,0,0,0,1.58,1.67c2.67,1.46,6,.89,8.9.08,4.43-1.22,8.73-2.89,13-4.54l17.42-6.74c6.73-2.6,14.13-5.83,16.9-12.49a15.07,15.07,0,0,0,1-3.77c-11.11-16.6-63.64-91.85-69.42-99.89-2.23-3.1-7.23-9.17-8-9.12-4.28.41-7.34,5.5-7.2,10s3.19,9.55,6.49,14.54C286.92,380.12,305.39,406.47,309.3,411.41Z"/><path class="cls-43" d="M327.55,458.07h.09l0,0c-.13-.18-4.83-7-7.56-11-5.27-7.67-31.49-45.68-35.82-51.22-3.27-4.19-8.22-7.69-11.09,8.11-5.07,28-18.72,67.2-28.93,95a111.31,111.31,0,0,1,9.38-6.14c6.6-16.46,23.9-60.31,29-80.36,2.91,3.16,41.05,45,41.43,45.48h0s-1.95,0-1.94,1.56,1.84,1.84,1.84,1.84l.49.25c-5.6,2.07-12.38,4.66-19.64,7.56v.06l22.83-7.54s-3.65-.78-3.48-2.08S327.08,458.11,327.55,458.07Z"/><path class="cls-44" d="M164.84,806s-31.66-78.63-17.94-166.5c11.83-75.84,15-111.15,13.17-137.91s-12-53.21-3.87-73.46c9.17-22.78,20.11-75.69,20.11-75.69-48.11,75.15-23.37,174.09-23.37,174.09-19.22,35.84-29.51,74.17-34.51,110.25,1.4,40.29,5.94,125.8,19.75,162.52C146,802.11,164.84,806,164.84,806Z"/><path class="cls-45" d="M180.08,339s-16.73,63.3-25.43,86.27-1.34,38.57.45,65.33-.21,62-12,137.81c-13.71,87.87,2.37,164.83,2.37,164.83s-21.83-5.17-29.87-12.06c0,0-34.46-146.46,29.29-265.35,0,0-25.1-35.94-25.58-61s14.67-53.28,14.67-53.28S25.39,449.81,10.46,446.37.12,405.59,3,392.38,18.5,337.82,18.5,337.82s-2.21,0-2.05-2.05c.4-5.08,22.94-10.67,25.74-8.42S39.07,335,39.07,335s-2.72,55.09-4.61,68.65c0,0,.94-2.2,2.2-2.05s.79,2.53.79,2.53,94-45.89,102.18-48.57S163.46,350.62,180.08,339Z"/><path class="cls-46" d="M.59,408.44C-.9,424.3-.16,443.9,10.46,446.36,25.4,449.8,134,401.56,134,401.56h0a149.12,149.12,0,0,0-8.11,18.88l-.07.21c-.25.7-.49,1.41-.74,2.14h0c4.38-13.45,17.55-24.34,16.65-28.93-.65-3.36-4.18-4.29-10.06-1.28h0c-5.44,2.89-94.91,39.42-108,42.66C9.45,438.72.33,423.76.59,408.44Z"/><path class="cls-47" d="M287.47,794.66c-6.59.76-9.8-1.86-13.66,0-.32-14,6.46-49.37-23.2-128.48-35.34-99-46.53-187.79-50.72-202.27a26.22,26.22,0,0,1-.88-5A55,55,0,0,1,172,463.18c-17.81-1.71-35.47-12-52.56-10.69-1.08,16,11.38,28.76,18.8,32.65s16.71-1.36,22.84-2.44c10.94-1.92,18.91,2.31,41.27,3.76,15.94,97.73,19.35,129.55,46,208,12.29,36.13,17.1,86.62,14.3,111.89,4.33-2.66,17.07-7,22.15-7.11,2.85-.05,6.77-.07,9.12-1.88-.35-.76-.94-2.15-1.55-3.6A41.78,41.78,0,0,1,287.47,794.66Z"/><path class="cls-23" d="M187.07,325.76c.27-2.22-3.42.23-4.67,3.76a21.72,21.72,0,0,1-8,10.7c-5.92,4-11.5,5.13-11.5,6.61s4.33,20,2.73,22.21-3.87,2.62-3.76,3.87.69,26.09-3.63,41.7c0,0,7.87-24.56,11.71-39.21,6.05-21.26,8.81-32.64,10-36.36C181.1,337.9,186.44,330.94,187.07,325.76Z"/><path class="cls-48" d="M187.07,325.76c.27-2.22-3.42.23-4.67,3.76a21.72,21.72,0,0,1-8,10.7c-5.92,4-11.5,5.13-11.5,6.61s4.33,20,2.73,22.21-3.87,2.62-3.76,3.87.69,26.09-3.63,41.7c0,0,7.87-24.56,11.71-39.21,6.05-21.26,8.81-32.64,10-36.36C181.1,337.9,186.44,330.94,187.07,325.76Z"/></g></g></g></svg>