<svg xmlns="http://www.w3.org/2000/svg" xmlns:xlink="http://www.w3.org/1999/xlink" viewBox="0 0 204.62 538.65"><defs><style>.cls-1{fill:none;}.cls-2{isolation:isolate;}.cls-3{fill:url(#Degradado_sin_nombre_247);}.cls-4{fill:url(#Degradado_sin_nombre_246);}.cls-5{fill:url(#Degradado_sin_nombre_186);}.cls-6{fill:url(#Degradado_sin_nombre_182);}.cls-7{fill:url(#Degradado_sin_nombre_182-2);}.cls-8{fill:url(#Degradado_sin_nombre_97);}.cls-9{fill:url(#Degradado_sin_nombre_97-2);}.cls-10{fill:url(#Degradado_sin_nombre_74);}.cls-11{fill:#e5e5e5;}.cls-12{fill:url(#Degradado_sin_nombre_73);}.cls-13,.cls-18,.cls-30,.cls-41{opacity:0.4;}.cls-13,.cls-15,.cls-18,.cls-28,.cls-30,.cls-38,.cls-41,.cls-48,.cls-49,.cls-50,.cls-53,.cls-54,.cls-59,.cls-61,.cls-68,.cls-69,.cls-70,.cls-71,.cls-74,.cls-75,.cls-76{mix-blend-mode:multiply;}.cls-13{fill:url(#Degradado_sin_nombre_16);}.cls-14{fill:url(#Degradado_sin_nombre_97-3);}.cls-15,.cls-49,.cls-50,.cls-53,.cls-54,.cls-68,.cls-69{opacity:0.3;}.cls-15{fill:url(#Degradado_sin_nombre_73-2);}.cls-16{fill:url(#Degradado_sin_nombre_19);}.cls-17{fill:url(#Degradado_sin_nombre_18);}.cls-18{fill:url(#Degradado_sin_nombre_16-2);}.cls-19{fill:url(#Degradado_sin_nombre_86);}.cls-20{clip-path:url(#clip-path);}.cls-21{fill:url(#Degradado_sin_nombre_51);}.cls-22{fill:url(#Degradado_sin_nombre_51-2);}.cls-23{fill:url(#Degradado_sin_nombre_97-4);}.cls-24{fill:url(#Degradado_sin_nombre_96);}.cls-25{fill:#9f3a0d;}.cls-26,.cls-55{fill:#fff;}.cls-27{fill:#822b00;}.cls-28{opacity:0.35;fill:url(#Degradado_sin_nombre_215);}.cls-29{fill:url(#Degradado_sin_nombre_82);}.cls-30{fill:url(#Degradado_sin_nombre_16-3);}.cls-31{fill:url(#Degradado_sin_nombre_15);}.cls-32{fill:url(#Degradado_sin_nombre_82-2);}.cls-33{clip-path:url(#clip-path-2);}.cls-34{fill:url(#Degradado_sin_nombre_79);}.cls-35,.cls-47{mix-blend-mode:hard-light;}.cls-35{fill:url(#Degradado_sin_nombre_13);}.cls-36{fill:#351a0b;}.cls-37{fill:#c59b6d;}.cls-37,.cls-55{mix-blend-mode:soft-light;}.cls-38,.cls-48{opacity:0.5;}.cls-38{fill:url(#Degradado_sin_nombre_13-2);}.cls-39{fill:url(#Degradado_sin_nombre_232);}.cls-40{fill:url(#Degradado_sin_nombre_232-2);}.cls-41{fill:url(#Degradado_sin_nombre_16-4);}.cls-42{fill:url(#Degradado_sin_nombre_15-2);}.cls-43{fill:url(#Degradado_sin_nombre_82-3);}.cls-44{fill:url(#Degradado_sin_nombre_82-4);}.cls-45{clip-path:url(#clip-path-3);}.cls-46{fill:url(#Degradado_sin_nombre_79-2);}.cls-47{fill:url(#Degradado_sin_nombre_13-3);}.cls-48{fill:url(#Degradado_sin_nombre_13-4);}.cls-49{fill:url(#Degradado_sin_nombre_73-3);}.cls-50{fill:url(#Degradado_sin_nombre_73-4);}.cls-51{fill:url(#Degradado_sin_nombre_97-5);}.cls-52{fill:url(#Degradado_sin_nombre_97-6);}.cls-53{fill:url(#Degradado_sin_nombre_73-5);}.cls-54{fill:url(#Degradado_sin_nombre_73-6);}.cls-56{fill:#4d0036;}.cls-57{fill:#a57c52;opacity:0.12;mix-blend-mode:screen;}.cls-58{fill:#534741;}.cls-59,.cls-70,.cls-71,.cls-74,.cls-75,.cls-76{opacity:0.6;}.cls-59{fill:url(#Degradado_sin_nombre_232-3);}.cls-60{fill:url(#Degradado_sin_nombre_273);}.cls-61{fill:url(#Degradado_sin_nombre_12);}.cls-62{fill:url(#Degradado_sin_nombre_232-4);}.cls-63{fill:url(#Degradado_sin_nombre_143);}.cls-64{fill:url(#Degradado_sin_nombre_127);}.cls-65{fill:url(#Degradado_sin_nombre_123);}.cls-66{fill:url(#Degradado_sin_nombre_125);}.cls-67{fill:url(#Degradado_sin_nombre_143-2);}.cls-68{fill:url(#Degradado_sin_nombre_232-5);}.cls-69{fill:url(#Degradado_sin_nombre_232-6);}.cls-70{fill:url(#Degradado_sin_nombre_232-7);}.cls-71{fill:url(#Degradado_sin_nombre_232-8);}.cls-72{fill:url(#Degradado_sin_nombre_6);}.cls-73{fill:url(#Degradado_sin_nombre_6-2);}.cls-74{fill:url(#Degradado_sin_nombre_232-9);}.cls-75{fill:url(#Degradado_sin_nombre_232-10);}.cls-76{fill:url(#Degradado_sin_nombre_232-11);}</style><linearGradient id="Degradado_sin_nombre_247" x1="85.53" y1="419.78" x2="64.88" y2="523.45" gradientUnits="userSpaceOnUse"><stop offset="0" stop-color="#8f4034"/><stop offset="0.15" stop-color="#b25434"/><stop offset="0.35" stop-color="#d56d48"/><stop offset="0.38" stop-color="#d7724b"/><stop offset="0.59" stop-color="#e08c58"/><stop offset="0.72" stop-color="#e3955d"/></linearGradient><linearGradient id="Degradado_sin_nombre_246" x1="139.84" y1="412.69" x2="120.38" y2="510.37" gradientUnits="userSpaceOnUse"><stop offset="0" stop-color="#8f4034"/><stop offset="0.17" stop-color="#b25434"/><stop offset="0.35" stop-color="#d56d48"/><stop offset="0.38" stop-color="#d7724b"/><stop offset="0.59" stop-color="#e08c58"/><stop offset="0.72" stop-color="#e3955d"/></linearGradient><linearGradient id="Degradado_sin_nombre_186" x1="76.98" y1="272.62" x2="170.73" y2="272.62" gradientUnits="userSpaceOnUse"><stop offset="0.22" stop-color="#5564ce"/><stop offset="0.27" stop-color="#566cd3"/><stop offset="0.43" stop-color="#5784df"/><stop offset="0.53" stop-color="#588de4"/></linearGradient><linearGradient id="Degradado_sin_nombre_182" x1="135.25" y1="203.96" x2="56.57" y2="435.13" gradientUnits="userSpaceOnUse"><stop offset="0" stop-color="#5da9cd"/><stop offset="0.11" stop-color="#5b9ed6"/><stop offset="0.29" stop-color="#5991e1"/><stop offset="0.47" stop-color="#588de4"/><stop offset="0.57" stop-color="#5784df"/><stop offset="0.73" stop-color="#566cd3"/><stop offset="0.78" stop-color="#5564ce"/></linearGradient><linearGradient id="Degradado_sin_nombre_182-2" x1="141.91" y1="206.22" x2="63.23" y2="437.4" xlink:href="#Degradado_sin_nombre_182"/><linearGradient id="Degradado_sin_nombre_97" x1="99.58" y1="0.68" x2="99.58" y2="163.22" gradientUnits="userSpaceOnUse"><stop offset="0" stop-color="#603813"/><stop offset="0.32" stop-color="#42210b"/></linearGradient><linearGradient id="Degradado_sin_nombre_97-2" x1="147.81" y1="5.29" x2="147.81" y2="133.23" xlink:href="#Degradado_sin_nombre_97"/><linearGradient id="Degradado_sin_nombre_74" x1="3117.9" y1="69.09" x2="3100.64" y2="75.59" gradientTransform="translate(-2967.03)" gradientUnits="userSpaceOnUse"><stop offset="0" stop-color="#e46d48"/><stop offset="0.13" stop-color="#cd6443"/><stop offset="0.35" stop-color="#ac563b"/><stop offset="0.47" stop-color="#9f5138"/></linearGradient><linearGradient id="Degradado_sin_nombre_73" x1="3051.1" y1="200.01" x2="3070.63" y2="215.32" gradientTransform="matrix(1, -0.04, 0.04, 1, -3006, -23.06)" gradientUnits="userSpaceOnUse"><stop offset="0.1" stop-color="#e46d48"/><stop offset="0.17" stop-color="#db6946"/><stop offset="0.47" stop-color="#ba5c3e"/><stop offset="0.72" stop-color="#a6543a"/><stop offset="0.88" stop-color="#9f5138"/></linearGradient><linearGradient id="Degradado_sin_nombre_16" x1="3059.79" y1="220.15" x2="3059.79" y2="199.13" gradientTransform="matrix(1, -0.04, 0.04, 1, -3006, -23.06)" gradientUnits="userSpaceOnUse"><stop offset="0.1" stop-color="#e46d48"/><stop offset="1" stop-color="#9f5138"/></linearGradient><linearGradient id="Degradado_sin_nombre_97-3" x1="50.64" y1="0.68" x2="50.64" y2="163.22" xlink:href="#Degradado_sin_nombre_97"/><linearGradient id="Degradado_sin_nombre_73-2" x1="52.82" y1="63.87" x2="70.94" y2="78.07" gradientTransform="matrix(1, 0, 0, 1, 0, 0)" xlink:href="#Degradado_sin_nombre_73"/><linearGradient id="Degradado_sin_nombre_19" x1="3070.83" y1="213.09" x2="3070.83" y2="112.49" gradientTransform="translate(-2967.03)" gradientUnits="userSpaceOnUse"><stop offset="0.35" stop-color="#e3955d"/><stop offset="0.45" stop-color="#e08c58"/><stop offset="0.63" stop-color="#d7724b"/><stop offset="0.66" stop-color="#d56d48"/><stop offset="0.83" stop-color="#b25434"/><stop offset="0.94" stop-color="#8f4034"/></linearGradient><linearGradient id="Degradado_sin_nombre_18" x1="-3848.92" y1="3293.34" x2="-3835.55" y2="3382.45" gradientTransform="matrix(-0.57, 0.82, 0.82, 0.57, -4770.92, 1426.02)" gradientUnits="userSpaceOnUse"><stop offset="0.21" stop-color="#ddc2cb"/><stop offset="0.47" stop-color="#e2d9dc"/><stop offset="0.65" stop-color="#e5e5e5"/><stop offset="0.85" stop-color="#d4d3ca"/><stop offset="1" stop-color="#cac8ba"/></linearGradient><linearGradient id="Degradado_sin_nombre_16-2" x1="3107.58" y1="84.36" x2="3107.58" y2="67.22" gradientTransform="translate(-2967.03)" xlink:href="#Degradado_sin_nombre_16"/><radialGradient id="Degradado_sin_nombre_86" cx="383.19" cy="-642" r="77.46" gradientTransform="translate(-119.35 560.38) scale(0.59 0.79)" gradientUnits="userSpaceOnUse"><stop offset="0" stop-color="#eda169"/><stop offset="0.28" stop-color="#e89864"/><stop offset="0.68" stop-color="#dd8259"/><stop offset="0.9" stop-color="#c8693b"/><stop offset="0.97" stop-color="#c06030"/></radialGradient><clipPath id="clip-path"><path class="cls-1" d="M147.31,56.2c-1.12,9.14-5.16,33.1-9,40.74-2.24,4.49-14.64,14.94-19,17.46s-9.41,3.81-16,.36S80.91,104,76.74,97.58,65.45,60.06,64.55,56.2C60.06,37,71.77,19.47,111.87,19.47c12.34,0,20.2.63,25.34,5.77C142.66,30.69,148.44,47.05,147.31,56.2Z"/></clipPath><radialGradient id="Degradado_sin_nombre_51" cx="-216.83" cy="425.08" r="16.46" gradientTransform="translate(402.29 -545.94) scale(1.48 1.49)" gradientUnits="userSpaceOnUse"><stop offset="0" stop-color="#da2c34" stop-opacity="0.3"/><stop offset="0.28" stop-color="#da3238" stop-opacity="0.28"/><stop offset="0.51" stop-color="#dc4744" stop-opacity="0.24"/><stop offset="0.73" stop-color="#de6958" stop-opacity="0.16"/><stop offset="0.93" stop-color="#e29874" stop-opacity="0.05"/><stop offset="1" stop-color="#e3ac80" stop-opacity="0"/></radialGradient><radialGradient id="Degradado_sin_nombre_51-2" cx="-172.73" cy="423.85" r="14.34" xlink:href="#Degradado_sin_nombre_51"/><linearGradient id="Degradado_sin_nombre_97-4" x1="188.25" y1="-46.12" x2="188.25" y2="81.82" gradientTransform="matrix(0.98, 0, 0, 0.97, -47.73, 51.56)" xlink:href="#Degradado_sin_nombre_97"/><linearGradient id="Degradado_sin_nombre_96" x1="171.55" y1="37.65" x2="171.55" y2="165.59" gradientTransform="matrix(0.95, -0.02, -0.02, 0.99, -71.72, -28)" gradientUnits="userSpaceOnUse"><stop offset="0.68" stop-color="#42210b"/><stop offset="1" stop-color="#603813"/></linearGradient><linearGradient id="Degradado_sin_nombre_215" x1="3046.74" y1="54.1" x2="3058.29" y2="54.1" gradientTransform="translate(-2936.37 -10.87) rotate(0.81)" gradientUnits="userSpaceOnUse"><stop offset="0.1" stop-color="#e46d48"/><stop offset="0.44" stop-color="#9f5138"/><stop offset="0.82" stop-color="#5f0000"/></linearGradient><radialGradient id="Degradado_sin_nombre_82" cx="2418.66" cy="181.64" r="13.18" gradientTransform="matrix(0.7, -0.02, 0.03, 0.67, -1564.29, -12.33)" xlink:href="#Degradado_sin_nombre_96"/><linearGradient id="Degradado_sin_nombre_16-3" x1="3733.54" y1="129.63" x2="3757.05" y2="129.63" gradientTransform="matrix(0.85, -0.03, 0.03, 0.94, -3057.69, 45.88)" xlink:href="#Degradado_sin_nombre_16"/><radialGradient id="Degradado_sin_nombre_15" cx="2413.81" cy="187.1" r="19.05" gradientTransform="matrix(0.07, 0.66, -0.64, 0.06, 85.45, -1550.03)" gradientUnits="userSpaceOnUse"><stop offset="0.39" stop-color="#fff"/><stop offset="0.46" stop-color="#f7f6f4"/><stop offset="0.77" stop-color="#d6d5ca"/><stop offset="0.92" stop-color="#cac8ba"/></radialGradient><radialGradient id="Degradado_sin_nombre_82-2" cx="2214.93" cy="-205.44" r="12.03" gradientTransform="matrix(-0.07, 0.66, -0.64, -0.04, 150.49, -1407.94)" xlink:href="#Degradado_sin_nombre_96"/><clipPath id="clip-path-2"><path class="cls-1" d="M124.82,71c.49,2.32,3.65,4.69,9,4.79s11-3.79,10.68-11.6c-.07-1.68-4.07-6.6-9.06-6.46C128.38,57.92,125.21,63.42,124.82,71Z"/></clipPath><linearGradient id="Degradado_sin_nombre_79" x1="3128.47" y1="186.73" x2="3128.47" y2="176.06" gradientTransform="matrix(0.55, 0.84, -0.84, 0.55, -1428.12, -2651.61)" gradientUnits="userSpaceOnUse"><stop offset="0.18" stop-color="#603813"/><stop offset="0.59" stop-color="#42210b"/></linearGradient><linearGradient id="Degradado_sin_nombre_13" x1="3128.37" y1="184.45" x2="3128.37" y2="174.89" gradientTransform="matrix(0.55, 0.84, -0.84, 0.55, -1428.17, -2651.52)" gradientUnits="userSpaceOnUse"><stop offset="0.11" stop-color="#9b864c"/><stop offset="0.34" stop-color="#978147"/><stop offset="0.63" stop-color="#8b7438"/><stop offset="0.7" stop-color="#877033"/></linearGradient><linearGradient id="Degradado_sin_nombre_13-2" x1="-4411.63" y1="68.32" x2="-4411.63" y2="56" gradientTransform="matrix(-1, 0, 0, 1, -4278.58, 0)" xlink:href="#Degradado_sin_nombre_13"/><linearGradient id="Degradado_sin_nombre_232" x1="131.91" y1="137.6" x2="132.91" y2="212.17" gradientUnits="userSpaceOnUse"><stop offset="0.1" stop-color="#ddc2cb"/><stop offset="0.24" stop-color="#e0cfd5"/><stop offset="0.47" stop-color="#e4dfe1"/><stop offset="0.65" stop-color="#e5e5e5"/><stop offset="0.85" stop-color="#d4d3ca"/><stop offset="1" stop-color="#cac8ba"/></linearGradient><linearGradient id="Degradado_sin_nombre_232-2" x1="102.45" y1="137.99" x2="103.45" y2="212.56" xlink:href="#Degradado_sin_nombre_232"/><linearGradient id="Degradado_sin_nombre_16-4" x1="3054.35" y1="92.38" x2="3079.59" y2="92.38" gradientTransform="translate(-2974.81 -4.24) rotate(-0.44)" xlink:href="#Degradado_sin_nombre_16"/><radialGradient id="Degradado_sin_nombre_15-2" cx="1930.14" cy="172.84" r="22.85" gradientTransform="matrix(0, 0.71, -0.67, 0, 218.27, -1298.93)" xlink:href="#Degradado_sin_nombre_15"/><radialGradient id="Degradado_sin_nombre_82-3" cx="1916.93" cy="147.7" r="13.17" gradientTransform="translate(-1489.61 -44.74) scale(0.82 0.71)" xlink:href="#Degradado_sin_nombre_96"/><radialGradient id="Degradado_sin_nombre_82-4" cx="-3151.25" cy="563.63" r="12.99" gradientTransform="matrix(0.08, 0.7, 0.75, -0.07, -62.73, 2325.53)" xlink:href="#Degradado_sin_nombre_96"/><clipPath id="clip-path-3"><path class="cls-1" d="M105.34,71.26c-.58,2.66-4.5,5.49-11.17,5.85s-14-3.78-14-12.64c0-1.9,4.73-7.62,11-7.66C100,56.75,104.71,62.68,105.34,71.26Z"/></clipPath><linearGradient id="Degradado_sin_nombre_79-2" x1="3060.3" y1="70.84" x2="3060.3" y2="58.27" gradientTransform="translate(-2967.03)" xlink:href="#Degradado_sin_nombre_79"/><linearGradient id="Degradado_sin_nombre_13-3" x1="3060.3" y1="70.3" x2="3060.3" y2="59.04" gradientTransform="translate(-2967.03)" xlink:href="#Degradado_sin_nombre_13"/><linearGradient id="Degradado_sin_nombre_13-4" x1="93.28" y1="65.66" x2="93.28" y2="54.92" gradientTransform="matrix(1, 0, 0, 1, 0, 0)" xlink:href="#Degradado_sin_nombre_13"/><linearGradient id="Degradado_sin_nombre_73-3" x1="79.57" y1="33.26" x2="91.6" y2="42.69" gradientTransform="matrix(1, 0, 0, 1, 0, 0)" xlink:href="#Degradado_sin_nombre_73"/><linearGradient id="Degradado_sin_nombre_73-4" x1="113.61" y1="19.47" x2="113.61" y2="19.47" gradientTransform="matrix(1, 0, 0, 1, 0, 0)" xlink:href="#Degradado_sin_nombre_73"/><linearGradient id="Degradado_sin_nombre_97-5" x1="89.97" y1="-2.96" x2="89.97" y2="170.4" xlink:href="#Degradado_sin_nombre_97"/><linearGradient id="Degradado_sin_nombre_97-6" x1="89.02" y1="0.68" x2="89.02" y2="163.22" xlink:href="#Degradado_sin_nombre_97"/><linearGradient id="Degradado_sin_nombre_73-5" x1="66.56" y1="83.55" x2="98.82" y2="108.84" gradientTransform="matrix(1, 0, 0, 1, 0, 0)" xlink:href="#Degradado_sin_nombre_73"/><linearGradient id="Degradado_sin_nombre_73-6" x1="84.42" y1="116.52" x2="117.05" y2="116.52" gradientTransform="matrix(1, 0, 0, 1, 0, 0)" xlink:href="#Degradado_sin_nombre_73"/><linearGradient id="Degradado_sin_nombre_232-3" x1="112.38" y1="172.34" x2="112.95" y2="215.03" xlink:href="#Degradado_sin_nombre_232"/><linearGradient id="Degradado_sin_nombre_273" x1="155.42" y1="184.46" x2="68.02" y2="441.22" gradientUnits="userSpaceOnUse"><stop offset="0" stop-color="#9790cd"/><stop offset="0.12" stop-color="#9184d7"/><stop offset="0.3" stop-color="#8b77e1"/><stop offset="0.47" stop-color="#8973e4"/><stop offset="0.62" stop-color="#8070e0"/><stop offset="0.85" stop-color="#686ad6"/><stop offset="1" stop-color="#5564ce"/></linearGradient><linearGradient id="Degradado_sin_nombre_12" x1="-4.65" y1="475.75" x2="95.67" y2="274.48" gradientUnits="userSpaceOnUse"><stop offset="0" stop-color="#5564ce" stop-opacity="0.6"/><stop offset="0.14" stop-color="#5568ce" stop-opacity="0.56"/><stop offset="0.36" stop-color="#5773ce" stop-opacity="0.47"/><stop offset="0.61" stop-color="#5986ce" stop-opacity="0.31"/><stop offset="0.9" stop-color="#5c9fcd" stop-opacity="0.08"/><stop offset="1" stop-color="#5da9cd" stop-opacity="0"/></linearGradient><linearGradient id="Degradado_sin_nombre_232-4" x1="2439.63" y1="-570.43" x2="2450.6" y2="-491.77" gradientTransform="matrix(1.08, 0.23, -0.21, 0.98, -2674.38, 134.36)" xlink:href="#Degradado_sin_nombre_232"/><linearGradient id="Degradado_sin_nombre_143" x1="895.1" y1="1593.19" x2="948.36" y2="1524.2" gradientTransform="matrix(0.87, -0.49, 0.49, 0.87, -1377.94, -755.79)" gradientUnits="userSpaceOnUse"><stop offset="0.26" stop-color="#d56d48"/><stop offset="0.33" stop-color="#d7724b"/><stop offset="0.75" stop-color="#e08c58"/><stop offset="1" stop-color="#e3955d"/></linearGradient><linearGradient id="Degradado_sin_nombre_127" x1="194.54" y1="126.24" x2="198.06" y2="121.68" gradientUnits="userSpaceOnUse"><stop offset="0.26" stop-color="#d56d48"/><stop offset="0.32" stop-color="#d7724b"/><stop offset="0.7" stop-color="#e08c58"/><stop offset="0.92" stop-color="#e3955d"/></linearGradient><linearGradient id="Degradado_sin_nombre_123" x1="189.64" y1="128.52" x2="195.18" y2="120.81" gradientUnits="userSpaceOnUse"><stop offset="0.32" stop-color="#d56d48"/><stop offset="0.92" stop-color="#e3955d"/></linearGradient><linearGradient id="Degradado_sin_nombre_125" x1="440.17" y1="-69.07" x2="445.85" y2="-76.42" gradientTransform="matrix(0.91, -0.01, 0.01, 0.91, -210.38, 192.4)" gradientUnits="userSpaceOnUse"><stop offset="0.15" stop-color="#d56d48"/><stop offset="0.2" stop-color="#d6714a"/><stop offset="0.46" stop-color="#dd8555"/><stop offset="0.73" stop-color="#e2915b"/><stop offset="1" stop-color="#e3955d"/></linearGradient><linearGradient id="Degradado_sin_nombre_143-2" x1="194.86" y1="123.85" x2="187.39" y2="121.4" gradientTransform="matrix(1, 0, 0, 1, 0, 0)" xlink:href="#Degradado_sin_nombre_143"/><linearGradient id="Degradado_sin_nombre_232-5" x1="143.49" y1="156.31" x2="147.45" y2="161.33" xlink:href="#Degradado_sin_nombre_232"/><linearGradient id="Degradado_sin_nombre_232-6" x1="138.82" y1="149.25" x2="141.71" y2="152.92" xlink:href="#Degradado_sin_nombre_232"/><linearGradient id="Degradado_sin_nombre_232-7" x1="156.24" y1="170.74" x2="174.52" y2="193.91" xlink:href="#Degradado_sin_nombre_232"/><linearGradient id="Degradado_sin_nombre_232-8" x1="50.25" y1="181.97" x2="79.44" y2="218.98" xlink:href="#Degradado_sin_nombre_232"/><linearGradient id="Degradado_sin_nombre_6" x1="3128.27" y1="361.6" x2="3134.18" y2="361.6" gradientTransform="translate(-3002.39 -108.49) rotate(-1.08)" gradientUnits="userSpaceOnUse"><stop offset="0" stop-color="#c3603e"/><stop offset="0.26" stop-color="#d56d48"/><stop offset="0.33" stop-color="#d7724b"/><stop offset="0.75" stop-color="#e08c58"/><stop offset="1" stop-color="#e3955d"/></linearGradient><linearGradient id="Degradado_sin_nombre_6-2" x1="3112.08" y1="2241.54" x2="3192.78" y2="2241.54" gradientTransform="translate(-3751.51 -19.44) rotate(-32)" xlink:href="#Degradado_sin_nombre_6"/><linearGradient id="Degradado_sin_nombre_232-9" x1="85.04" y1="107.38" x2="118.92" y2="150.33" xlink:href="#Degradado_sin_nombre_232"/><linearGradient id="Degradado_sin_nombre_232-10" x1="76.98" y1="575.44" x2="157.83" y2="413.24" xlink:href="#Degradado_sin_nombre_232"/><linearGradient id="Degradado_sin_nombre_232-11" x1="16.17" y1="581.6" x2="97.21" y2="419.03" xlink:href="#Degradado_sin_nombre_232"/></defs><g class="cls-2"><g id="Capa_2" data-name="Capa 2"><g id="Capa_1-2" data-name="Capa 1"><path class="cls-3" d="M115.08,388.94S79.72,511.7,80.46,518.19s12.6,17.59,9.08,20-25.16-5.68-27.91-13.61-8.42-70.38,2-135.66Z"/><path class="cls-4" d="M161.78,382.45S132,492,130.2,504.1c-.66,4.35,20.32,9.6,20.79,12.59.32,2-7.82,4.93-19.77,4.93-8.73,0-14.43-1.3-17.38-3.52-6.3-4.72-10.85-108.81,1.24-135.65Z"/><path class="cls-5" d="M77,287.06s29.44,12.74,61,10.71c11.3-.72,20.56-7.65,31.16-13.41,0,0,3.19-23.7.41-37.11Z"/><path class="cls-6" d="M165.49,266.37c-2.81-7.47-5.51-15.15-9.43-20.16-13.35-8.78-73.35-25.81-73.35-25.81-6.29,9.91-14.08,21-15.62,38-.77,8.4,1.79,19,9.89,28.68a84.17,84.17,0,0,0,28.78,5C129.53,292.1,151.07,283.14,165.49,266.37Z"/><path class="cls-7" d="M174.54,241.85c0,23.75-23.1,42.51-46.52,42.51s-42.41-19.25-42.41-43,19-43,42.41-43S174.54,218.09,174.54,241.85Z"/><path class="cls-8" d="M142.08,107.71c-.85-19.22,3.48-31.35,5.83-44.7,2.11-12,2.11-33.56-8-46.17C134.84,10.59,126.46,0,99.55,0,55.67,0,46.15,40.65,47.7,67.41c2.25,38.75,18.47,72.45,8,91.35,0,0,29.43,10.21,56.2,10.21s39.75-16.65,39.75-16.65S142.93,126.93,142.08,107.71Z"/><path class="cls-9" d="M149,50.37c-2.35,29.45-5.48,48.42,2.6,88.92l-4.2-1.1S138.77,88.51,149,50.37Z"/><path class="cls-10" d="M135.74,85.73c.29-1.16.87-1.75,1.75-1.16s3.5,1.16,6.43-1.76,11.1-12,6.13-19.28c-4.53-6.66-10.46-2.33-10.78-.29S135.74,85.73,135.74,85.73Z"/><circle class="cls-11" cx="143" cy="83.23" r="1.4"/><path class="cls-12" d="M73,87.37c-.42-1.41-3.64-2.1-4.69-1.34s-4.25,1.59-8-1.85S46.2,70,52,60.82c5.25-8.38,12.72-3.34,13.21-.85S73,87.37,73,87.37Z"/><path class="cls-13" d="M64,79a4.75,4.75,0,0,1-.19-5C65,72.17,61.78,63,59.86,62s-6.17,3.1-4.71,8.42,4.42,7.58,6,8.39C63,79.77,64.62,80.07,64,79Z"/><circle class="cls-11" cx="66.86" cy="86.23" r="1.74"/><path class="cls-14" d="M51.26,36.16c-8.18,25.47-5.14,47.73-1.51,74s-3.6,51-3.6,51h6.39s6.64-16.87-1-60C47.33,77.21,46.06,67.12,51.26,36.16Z"/><path class="cls-15" d="M68.32,86c1.05-.76,4.27-.07,4.69,1.34,0,0-7.37-24.91-7.85-27.4-.29-1.46-3-3.8-6.22-3.79,3,2.25,4.69,5,6.18,15.46,1.6,11.18-.08,12.41-1,12.75s-6.75-3.79-8.88-5.8a46.22,46.22,0,0,0,5.14,5.59C64.07,87.62,67.27,86.79,68.32,86Z"/><path class="cls-16" d="M86.41,104.66c2.34,6,2.22,18.63-.37,21.14-3.1,3-11.73,6.56-25.2,14.58-11.49,6.83-1.63,24.73,8.2,36.75C80.59,191.24,86,199,86,205.69h53s4.82-13.16,3.85-22.14c0,0,18.12-38.76,3.21-50.69-9.62-7.69-20.58,0-27-5.77-2.88-2.59-3.21-15.08-1.29-20.53S84.08,98.66,86.41,104.66Z"/><path class="cls-17" d="M132.57,129.54c-8.33,10.45,3.53,29.19,13.26,41.29s35.45,32.85,43.22,24.31c10.88-11.94,1-20.94-8.44-28.69-12.93-10.62-16.92-15.4-23.34-28.78-2.45-5.12-5.51-8.24-10.35-9.61C141.22,126.45,134.14,127.63,132.57,129.54Z"/><path class="cls-18" d="M136.65,78.72a3.48,3.48,0,0,0,0-4.09c-1.17-1.46,1.46-9,3.21-9.93s5.84,2.34,4.67,6.72a10.55,10.55,0,0,1-5.25,7C137.52,79.31,136.06,79.6,136.65,78.72Z"/><path class="cls-19" d="M147.31,56.2c-1.12,9.14-5.16,33.1-9,40.74-2.24,4.49-14.64,14.94-19,17.46s-9.41,3.81-16,.36S80.91,104,76.74,97.58,65.45,61.92,64.55,58.06c7-3.18,10.85-41.14,44.7-35,6.43,1.1,4.32-2.17,4-5.77,2.61,3.87,1.35,6.49,9.69,6.06,7.45-.39,11.76,2,14.51,5.12S148.44,47.05,147.31,56.2Z"/><g class="cls-20"><ellipse class="cls-21" cx="80.69" cy="88.53" rx="24.42" ry="24.57"/><ellipse class="cls-22" cx="146.1" cy="86.69" rx="21.27" ry="21.4"/></g><path class="cls-23" d="M126.38,50.22c1.3-.59,11.13-3.93,13.31-3.53s6,1.77,6.49,2.34.54-.16,0-1.06-3.32-5.07-6.41-5.54c-3.9-.6-11.59,2.85-12.87,3.43S125.1,50.81,126.38,50.22Z"/><path class="cls-24" d="M100.77,50.74c-1.57-.61-13.45-4.37-16-3.93S78.07,49,77.56,49.62s-.63-.16,0-1.1,3.54-5.66,7.1-6.19c4.51-.67,13.66,2.86,15.19,3.46S102.31,51.34,100.77,50.74Z"/><path class="cls-25" d="M100.44,93.05s6.34,15.35,15.3,12.87C122.28,104.11,126,92.53,126,92.53Z"/><path class="cls-26" d="M100.92,93.23s7.13,9.55,14.83,8.21c6.08-1.06,9.87-8.92,9.87-8.92Z"/><path class="cls-27" d="M126.17,92.59c-1.11.62-7.72,2.19-10.48,2.47-5.3.54-15.41-1.88-15.41-1.88-.82-.33,3.58-3.27,8.8-2.55,2.26.3,4.93,1.2,6.3,1.22a10.92,10.92,0,0,0,4.44-1.39C122.74,89.05,127.28,92,126.17,92.59Z"/><path class="cls-28" d="M120.88,84.65a21.64,21.64,0,0,0-7.71.21c-2.94.76-3.88,2.19-3.88,2.19a15.84,15.84,0,0,0,5.76,1C118.26,88.14,120.46,87.09,120.88,84.65Z"/><path class="cls-29" d="M137.4,55.71c-4.71-.21-10.22,2.16-12.29,11.91,1.79-3.92,6.15-9.78,10.31-9.9,4.82-.13,8.73,4.46,9,6.28,0,0,2.51,1.14,3.45-1C149,60.66,144.44,56,137.4,55.71Z"/><path class="cls-30" d="M124.87,70.71c1,2.21,4.56,4.07,9.82,3.36s10.08-5,9.79-12.85c-.07-1.67-4.07-6.59-9.06-6.45C128.38,55,123.7,63.2,124.87,70.71Z"/><path class="cls-31" d="M124.82,71c.49,2.32,3.65,4.69,9,4.79s11-3.79,10.68-11.6c-.07-1.68-4.07-6.6-9.06-6.46C128.38,57.92,125.21,63.42,124.82,71Z"/><path class="cls-32" d="M133.8,75.78c-4.33-.08-7.23-1.66-8.43-3.5.87,2.08,4.69,4.49,9.28,4.49a7.72,7.72,0,0,0,7.43-4.72A10.7,10.7,0,0,1,133.8,75.78Z"/><g class="cls-33"><ellipse class="cls-34" cx="132.8" cy="65.64" rx="7.24" ry="7.36" transform="translate(7.7 144.99) rotate(-58.69)"/><ellipse class="cls-35" cx="132.7" cy="65.65" rx="6.49" ry="6.59" transform="translate(7.65 144.9) rotate(-58.69)"/><ellipse class="cls-36" cx="132.31" cy="66.11" rx="2.72" ry="2.88" transform="translate(-8.67 21.37) rotate(-8.94)"/><ellipse class="cls-37" cx="129.07" cy="63.58" rx="1.41" ry="0.71" transform="translate(-0.58 125.98) rotate(-51.92)"/><path class="cls-38" d="M120.79,54.84H145.3V65c-2.54-3.88-6.46-4.57-9.51-4.47-6.8.22-12.12,7-14.2,11.12Z"/></g><path class="cls-39" d="M143.16,130.14c-2.4-.95-5.8-1.43-7.17-.34-2.59,2.07-5.91,3.4-6.23,7.65-.59,7.57-.19,22.65-16.47,34.59C107,176.66,140,196.11,140,196.11s8.12-3.93,10.69-11.28c7.81-22.37-14.94-30.34-13.11-42.07S147.42,131.81,143.16,130.14Z"/><path class="cls-40" d="M53.6,148.89c1.28-4.49,10.46-14.31,15.51-15.32,17.64-3.53,28.56,10.78,48.52,25.48s27.22,24.36,34.39,21.13c0,0-6.8,30.67-14.82,35.16s-39.61,4.45-47.63-2.29S53.6,148.89,53.6,148.89Z"/><ellipse class="cls-26" cx="139.87" cy="65.95" rx="2.2" ry="1.46"/><path class="cls-41" d="M105.32,71.27c-2.44,2.73-8.12,4.55-12.14,4.19-6.65-.58-13-5.29-13.05-14.15,0-1.9,4.73-7.63,11-7.67C100,53.58,106.35,62.72,105.32,71.27Z"/><path class="cls-42" d="M105.34,71.26c-.58,2.66-4.5,5.49-11.17,5.85s-14-3.78-14-12.64c0-1.9,4.73-7.62,11-7.66C100,56.75,104.71,62.68,105.34,71.26Z"/><path class="cls-43" d="M91.23,56.8a14.69,14.69,0,0,1,12.5,7.59c-2.23-6.87-8.88-9.81-15.08-9.81-8.86,0-13.3,4.6-13.29,7.91s4.82,1.7,4.82,1.7C80.48,62.12,85.16,56.8,91.23,56.8Z"/><path class="cls-44" d="M94.08,77.13c5.42-.26,9-2.16,10.54-4.29-1.07,2.38-6.13,5.22-11.89,5.46-4,.17-8.08-2.31-9.26-5.14A14.21,14.21,0,0,0,94.08,77.13Z"/><g class="cls-45"><ellipse class="cls-46" cx="93.26" cy="65.66" rx="8.97" ry="8.58"/><ellipse class="cls-47" cx="93.26" cy="65.66" rx="8.03" ry="7.69"/><ellipse class="cls-36" cx="93.88" cy="66.19" rx="3.33" ry="3.4"/><ellipse class="cls-37" cx="88.84" cy="62.9" rx="2.17" ry="1.11" transform="translate(-15.31 94.56) rotate(-52.21)"/><path class="cls-48" d="M106.28,53.9H80.13V64.73C82.85,60.59,87,59.86,90.27,60c7.26.23,13.93,4.19,16.15,8.58Z"/></g><ellipse class="cls-26" cx="101.38" cy="66.77" rx="1.89" ry="1.25"/><path class="cls-49" d="M112.84,23.45a3,3,0,0,0,1-2.3c.07,1.67-.67,2.62-4.59,2a33.17,33.17,0,0,0-15.7.54A55.85,55.85,0,0,0,83,29.75C72.25,39.57,69,56,64.55,58.06c.11.49.33,1.42.64,2.65,1,1.49,2.83,2.44,5.58-1.5C75.5,52.44,80.6,44,88.8,36.39S109.42,26.57,112.84,23.45Z"/><polygon class="cls-50" points="113.61 19.47 113.61 19.47 113.61 19.47 113.61 19.47"/><path class="cls-51" d="M112.84,23.1c-7.67,1.66-11.7-.24-19.33,3.56-12.25,6.08-19,20-26.41,28.7,0,0,7-21.82,15.62-28.44C93,19,103.73,19.59,112.84,23.1Z"/><path class="cls-52" d="M92.76,28.11c-9.66,6.68-28.21,30-28.21,30,2,.19,15.07-14.57,29.21-26.84,8.54-7.41,13.1-5,19.74-8.6C106,23.65,101,22.44,92.76,28.11Z"/><path class="cls-53" d="M79.83,96.14c-5.22-6.65-9.73-16.89-9.73-16.89h0c2.25,7.81,4.75,15.42,6.64,18.33,4.17,6.42,19.91,13.74,26.56,17.18a18,18,0,0,0,6,2C104.25,114.15,85.05,102.78,79.83,96.14Z"/><path class="cls-54" d="M116.55,115.78c-3.71,1.47-8,1.71-13.25-1-3.8-2-10.57-5.2-16.45-8.81,1.87,6.36,1.61,17.51-.81,19.85a13.27,13.27,0,0,1-1.62,1.3c5.09-1.08,4.37-5.17,7.27-9.28,3.91-5.52,18.76,4,25.36,4.3h0A37.05,37.05,0,0,1,116.55,115.78Z"/><ellipse class="cls-55" cx="117.58" cy="82.58" rx="1.26" ry="0.57"/><ellipse class="cls-55" cx="57.58" cy="57.72" rx="1.26" ry="0.57"/><path class="cls-25" d="M100.44,93.05s6.34,15.35,15.3,12.87C122.28,104.11,126,92.53,126,92.53Z"/><path class="cls-26" d="M100.92,93.23s7.13,9.55,14.83,8.21c6.08-1.06,9.87-8.92,9.87-8.92Z"/><path class="cls-27" d="M126.17,92.59c-1.11.62-7.72,2.19-10.48,2.47-5.3.54-15.41-1.88-15.41-1.88-.82-.33,3.58-3.27,8.8-2.55,2.26.3,4.93,1.2,6.3,1.22a10.92,10.92,0,0,0,4.44-1.39C122.74,89.05,127.28,92,126.17,92.59Z"/><path class="cls-56" d="M124,93.33a2,2,0,0,1-.13.65,1.86,1.86,0,0,1-.56.52s.17,0,.38.36a2.7,2.7,0,0,1,.2.54,25.35,25.35,0,0,0,1.57-2.51C125,93,124.54,93.18,124,93.33Z"/><path class="cls-57" d="M130.69,7.81C124.59,3.58,115.2,0,99.55,0A53,53,0,0,0,76.33,4.84c-1.27.7-13.34,7.74-21.19,25.53a141.83,141.83,0,0,0,27.25,5,38.66,38.66,0,0,1,11.12-8.72,23.79,23.79,0,0,1,6.34-2.18,27.27,27.27,0,0,0-7.09,3.63,66.4,66.4,0,0,0-8.43,7.44c1.41.11,2.83.21,4.27.29,1.69-1.55,3.41-3.11,5.16-4.62,8-6.93,12.48-5.24,18.46-8a3.18,3.18,0,0,0,.61-.16h0a1.57,1.57,0,0,0,.67-.48c.8-1,0-3.1-.2-5.29,2.61,3.87,1.35,6.49,9.69,6.06,7.45-.39,11.76,2,14.51,5.12a20.86,20.86,0,0,1,2.08,3c2-.52,3.5-.92,5.36-1.52A42.38,42.38,0,0,0,130.69,7.81Z"/><path class="cls-58" d="M113.84,518.1c2.94,2.22,8.64,3.52,17.38,3.52,11.95,0,20.08-3,19.77-4.93-.2-1.23-3.89-2.85-8.12-4.64-13.32,3.67-26.14-1.22-32-4.08C111.75,513.63,112.77,517.3,113.84,518.1Z"/><path class="cls-58" d="M81.1,527.14c-5.72,2.86-21-11.46-21.09-11.51a56.42,56.42,0,0,0,1.62,9c2.75,7.93,24.39,16,27.91,13.61,3.18-2.2-6.2-11.46-8.58-18C81.74,523.48,82.76,526.31,81.1,527.14Z"/><path class="cls-59" d="M152,180.18l-.11,0a23.41,23.41,0,0,0,.11-8c0,.18-2,7.53-18.29,9.22-16.51,1.7-44.57-2.16-53-10.72-3.93-4-6.45,4.85-8,15.44,6.78,12.55,13.56,24.11,16.89,26.91,8,6.74,39.61,6.79,47.63,2.29S152,180.18,152,180.18Z"/><path class="cls-60" d="M173.69,234h0c-4.37-20.09-24.9-35.64-45.67-35.64A42.36,42.36,0,0,0,89.9,222.49c-4.44-1.31-7.19-2.09-7.19-2.09C77.79,228.16,72,236.64,68.9,248.1c-13.29,53.59-22.69,82.45-37,103.36C18.7,370.66,0,384,0,384c15.61,13.16,30.54,5.44,47.66,7.63s-26.41,6.1,7.91,23.43c45.95,23.2,112.19-9.87,112.19-9.87C182.51,313.38,181,267.46,173.69,234Z"/><path class="cls-61" d="M96.7,274.66c-3.56-.87-10,29.49-28.06,59.21-12.65,20.82-28,40-55.49,57,11.08,2.74,22.23-.79,34.51.78,3.13.4,4.23.85,4.15,1.44,6.63-6.15,19-17.36,33.8-49.59C101.6,308.84,102.92,276.18,96.7,274.66Z"/><path class="cls-62" d="M63,140c-13.82,4-13.62,26.27-11.55,41.81S63.58,231.08,76,234.08,94.48,222.55,87,204.89c-6.7-15.89-7.13-29.36-5.75-44.16S75.32,136.47,63,140Z"/><path class="cls-63" d="M188.25,115.9c-2.82-3.44-8.92-8.47-12.48-7.75,6.37,6.12,8.33,8.37,11.43,16.58.07.19.15.37.22.55a34.37,34.37,0,0,1,2.76,12.77c.06,27.55-15.12,46.46-11.87,55,0,0,9.92,10.23,19.05.65,6.93-7.26,10.71-40.45,2.93-63.36,1.05-7.14-.33-5.2-.57-9.42-.14-2.68-8.27-4.45-10.56-4.6A1.28,1.28,0,0,1,188.25,115.9Z"/><path class="cls-64" d="M195.1,121.32,196,127a.74.74,0,0,0,.28.57.48.48,0,0,0,.56-.13,1.42,1.42,0,0,0,.27-.55,9.83,9.83,0,0,0-.29-6.18l-.15,0"/><path class="cls-65" d="M191.25,118.45a20.84,20.84,0,0,1,1.73,8.49,5.07,5.07,0,0,0,.09,1.23,1.32,1.32,0,0,0,.76.91,1.24,1.24,0,0,0,1.25-.34,2.78,2.78,0,0,0,.63-1.2c.7-2.42,0-5-.72-7.41"/><path class="cls-66" d="M187.12,117.21a29.69,29.69,0,0,1,3.25,9.36,3.64,3.64,0,0,0,.58,1.71,1.17,1.17,0,0,0,1.59.3,1.69,1.69,0,0,0,.41-1.2,28.86,28.86,0,0,0,.05-4.74,9.44,9.44,0,0,0-1.5-4.44"/><path class="cls-67" d="M185.69,123.5a3,3,0,0,1,1.2-4.55,5.23,5.23,0,0,1,4-.42c1.43.44,2.68,1.49,4.17,1.53.12.57-.5,1-1,1.21a9.57,9.57,0,0,1-6.4.1,16.11,16.11,0,0,0-.2,1.81c0,.63.24,1.3.22,1.92s-.41.2-.76-.15A7.49,7.49,0,0,1,185.69,123.5Z"/><path class="cls-68" d="M148.46,163a98.49,98.49,0,0,0-6.26-8.65C143.83,156.81,145.94,159.8,148.46,163Z"/><path class="cls-69" d="M142.2,154.32c-2.65-4-4.08-6.73-4.08-6.73A27.71,27.71,0,0,0,142.2,154.32Z"/><path class="cls-70" d="M178.31,193.09c-.66-1.74-.55-3.91,0-6.48-12.5-4.49-22.82-14.76-29.87-23.64A26.05,26.05,0,0,1,152,172.2h0v0c0,.27.09.55.12.83,0,.05,0,.1,0,.15,0,.25.05.5.08.76,0,.06,0,.12,0,.19,0,.25,0,.5,0,.75a1.21,1.21,0,0,1,0,.19c0,.27,0,.54,0,.81v.15c0,.56,0,1.13-.08,1.7,9.75,9.53,24.17,20,32.5,19.35A18.42,18.42,0,0,1,178.31,193.09Z"/><path class="cls-71" d="M51.43,181.85C53.49,197.4,63.58,231.08,76,234.08c9,2.18,14.69-4.9,14.28-15.7-3.58,2.17-11.45,5.94-15.64.08-5.55-7.75-18.23-20.63-23.73-59.19A92.7,92.7,0,0,0,51.43,181.85Z"/><path class="cls-72" d="M132.22,198.5s4.2-6.19,4.63-8.82C136.85,189.68,141.51,194.26,132.22,198.5Z"/><path class="cls-73" d="M75.91,233.27c8.64-.1,31-18.28,54.58-26.63,9.37-3.45,22.79-.76,22.79-.76s-4.14-16.65-24.46-8.44c-22.71.95-48.26,3.91-53,16.32C72.18,223.36,75.91,233.27,75.91,233.27Z"/><path class="cls-74" d="M119,127.08c-1.69-1.51-2.5-6.41-2.5-11.3-3.7,1.47-8,1.71-13.24-1-3.8-2-10.57-5.2-16.45-8.81,1.87,6.36,1.61,17.51-.81,19.85-2.05,2-6.5,4.21-13.18,7.8,1.71,7.86,15.28,14,31.77,14,17.65,0,32-7,32-15.67a16.51,16.51,0,0,0-.29-2.69C129.69,128.77,123.34,131,119,127.08Z"/><path class="cls-75" d="M151.79,419.52l2.27-8.47c-11.06,4.21-27.72,9.47-45.76,11.48-2.43,40.12,1.13,92.26,5.54,95.57,3,2.22,8.65,3.52,17.38,3.52,11.94,0,20.07-3,19.77-4.92h0s-34,5.51-34.77-8.72,7.64-76.88,7.64-76.88S140.24,425.94,151.79,419.52Z"/><path class="cls-76" d="M102.28,434l3.15-11.18c-15.12,1.37-31.06.31-45.38-5.66-5.25,54.11-.77,100.66,1.58,107.44,1.5,4.32,8.62,8.71,15.36,11.4h0s-10-9.34-12.09-20.36,6-79.76,6-79.76S90,436.11,102.28,434Z"/></g></g></g></svg>