<svg xmlns="http://www.w3.org/2000/svg" xmlns:xlink="http://www.w3.org/1999/xlink" viewBox="0 0 134.71 437.15"><defs><style>.cls-1{fill:none;}.cls-2{isolation:isolate;}.cls-3{fill:url(#Degradado_sin_nombre_280);}.cls-4{fill:url(#Degradado_sin_nombre_160);}.cls-5{clip-path:url(#clip-path);}.cls-6{fill:url(#Degradado_sin_nombre_160-2);}.cls-10,.cls-11,.cls-7,.cls-8,.cls-9{mix-blend-mode:soft-light;}.cls-7{fill:url(#Degradado_sin_nombre_5);}.cls-8{fill:url(#Degradado_sin_nombre_5-2);}.cls-9{fill:url(#Degradado_sin_nombre_5-3);}.cls-10{fill:url(#Degradado_sin_nombre_5-4);}.cls-11{fill:url(#Degradado_sin_nombre_5-5);}.cls-12{fill:url(#Degradado_sin_nombre_285);}.cls-13{fill:url(#Degradado_sin_nombre_160-3);}.cls-14,.cls-24,.cls-38{fill:#5b3e24;}.cls-14{opacity:0.45;}.cls-14,.cls-24{mix-blend-mode:overlay;}.cls-15{fill:#913930;}.cls-16{clip-path:url(#clip-path-2);}.cls-17{fill:#fff;}.cls-18{fill:url(#Degradado_sin_nombre_160-4);}.cls-19,.cls-32,.cls-38{mix-blend-mode:multiply;}.cls-19{fill:url(#Degradado_sin_nombre_160-5);}.cls-20{fill:url(#Degradado_sin_nombre_160-6);}.cls-21{fill:url(#Degradado_sin_nombre_133);}.cls-22{fill:url(#Degradado_sin_nombre_133-2);}.cls-23{fill:url(#Degradado_sin_nombre_499);}.cls-24{opacity:0.55;}.cls-25{fill:url(#Degradado_sin_nombre_213);}.cls-26{fill:url(#Degradado_sin_nombre_213-2);}.cls-27{fill:url(#Degradado_sin_nombre_292);}.cls-28{fill:url(#Degradado_sin_nombre_291);}.cls-29{fill:url(#Degradado_sin_nombre_133-3);}.cls-30{fill:url(#Degradado_sin_nombre_499-2);}.cls-31{fill:url(#Degradado_sin_nombre_291-2);}.cls-32,.cls-34{opacity:0.2;}.cls-33,.cls-34{fill:#1b1464;}.cls-35{fill:url(#Degradado_sin_nombre_133-4);}.cls-36{fill:url(#Degradado_sin_nombre_499-3);}.cls-37{fill:url(#Degradado_sin_nombre_499-4);}.cls-38{opacity:0.15;}</style><linearGradient id="Degradado_sin_nombre_280" x1="98.94" y1="126.37" x2="98.94" y2="154.79" gradientUnits="userSpaceOnUse"><stop offset="0.15" stop-color="#9e3938"/><stop offset="0.46" stop-color="#c06a47"/><stop offset="0.58" stop-color="#c77350"/><stop offset="0.77" stop-color="#da8c69"/><stop offset="1" stop-color="#f5b08e"/></linearGradient><linearGradient id="Degradado_sin_nombre_160" x1="135.4" y1="56.13" x2="126.92" y2="24.35" gradientUnits="userSpaceOnUse"><stop offset="0" stop-color="#291d10"/><stop offset="0.03" stop-color="#2b1e11"/><stop offset="0.66" stop-color="#4b3124"/><stop offset="1" stop-color="#57382b"/></linearGradient><clipPath id="clip-path" transform="translate(-14.32 -8.32)"><path class="cls-1" d="M117,112.07s6.24-2.65,33-42.21S145.34,1.65,103.08.07,0,23.63,0,23.63l7.49,77.76Z"/></clipPath><linearGradient id="Degradado_sin_nombre_160-2" x1="79.22" y1="71.11" x2="70.75" y2="39.33" xlink:href="#Degradado_sin_nombre_160"/><linearGradient id="Degradado_sin_nombre_5" x1="117.87" y1="115.58" x2="97.42" y2="47.1" gradientUnits="userSpaceOnUse"><stop offset="0" stop-color="#9c9b9b"/><stop offset="1" stop-color="#d9d9d9"/></linearGradient><linearGradient id="Degradado_sin_nombre_5-2" x1="102.26" y1="46.52" x2="61.76" y2="66.36" xlink:href="#Degradado_sin_nombre_5"/><linearGradient id="Degradado_sin_nombre_5-3" x1="99.75" y1="38.2" x2="38.59" y2="68.16" xlink:href="#Degradado_sin_nombre_5"/><linearGradient id="Degradado_sin_nombre_5-4" x1="97.5" y1="28.53" x2="42.4" y2="55.53" xlink:href="#Degradado_sin_nombre_5"/><linearGradient id="Degradado_sin_nombre_5-5" x1="44.5" y1="76.54" x2="37.35" y2="52.61" xlink:href="#Degradado_sin_nombre_5"/><radialGradient id="Degradado_sin_nombre_285" cx="68.94" cy="104.04" r="66.88" gradientUnits="userSpaceOnUse"><stop offset="0" stop-color="#f5b08e"/><stop offset="0.53" stop-color="#d87a55"/><stop offset="0.79" stop-color="#d66a50"/></radialGradient><linearGradient id="Degradado_sin_nombre_160-3" x1="46.86" y1="81.07" x2="78.54" y2="81.07" xlink:href="#Degradado_sin_nombre_160"/><clipPath id="clip-path-2" transform="translate(-14.32 -8.32)"><path class="cls-1" d="M59.39,101s3.26-1.71,9.17-1c0,0,3.81-.7,5.13-8.4,0,0-12-3.89-16.71,3.65A5.09,5.09,0,0,0,59.39,101Z"/></clipPath><linearGradient id="Degradado_sin_nombre_160-4" x1="46.79" y1="85.9" x2="46.79" y2="92.75" xlink:href="#Degradado_sin_nombre_160"/><linearGradient id="Degradado_sin_nombre_160-5" x1="42.14" y1="88.95" x2="46.05" y2="88.95" xlink:href="#Degradado_sin_nombre_160"/><linearGradient id="Degradado_sin_nombre_160-6" x1="54.19" y1="92.28" x2="79.93" y2="92.28" xlink:href="#Degradado_sin_nombre_160"/><linearGradient id="Degradado_sin_nombre_133" x1="8.83" y1="208.32" x2="56.87" y2="169.93" gradientUnits="userSpaceOnUse"><stop offset="0.18" stop-color="#f5b08e"/><stop offset="0.78" stop-color="#d87a55"/></linearGradient><linearGradient id="Degradado_sin_nombre_133-2" x1="8.74" y1="221.27" x2="57.13" y2="182.6" gradientTransform="matrix(-0.87, -0.49, -0.49, 0.87, 179.98, 37.01)" xlink:href="#Degradado_sin_nombre_133"/><linearGradient id="Degradado_sin_nombre_499" x1="61.29" y1="162.29" x2="61.29" y2="414.22" gradientUnits="userSpaceOnUse"><stop offset="0" stop-color="#f4f4f4"/><stop offset="0.51" stop-color="#fff"/><stop offset="0.96" stop-color="#edede8"/></linearGradient><linearGradient id="Degradado_sin_nombre_213" x1="89.16" y1="420.82" x2="83.36" y2="444.55" gradientUnits="userSpaceOnUse"><stop offset="0" stop-color="#dfd0d8"/><stop offset="0.44" stop-color="#f6faf5"/><stop offset="0.64" stop-color="#eff1ee"/><stop offset="1" stop-color="#e5e5e5"/></linearGradient><linearGradient id="Degradado_sin_nombre_213-2" x1="114.35" y1="426.98" x2="108.55" y2="450.71" xlink:href="#Degradado_sin_nombre_213"/><linearGradient id="Degradado_sin_nombre_292" x1="99.33" y1="85.14" x2="99.33" y2="398.31" gradientUnits="userSpaceOnUse"><stop offset="0" stop-color="#dfd0d8"/><stop offset="0.3" stop-color="#e0d2d9"/><stop offset="0.41" stop-color="#e4d9de"/><stop offset="0.49" stop-color="#eae4e6"/><stop offset="0.55" stop-color="#f3f5f2"/><stop offset="0.56" stop-color="#f6faf5"/><stop offset="0.72" stop-color="#eff1ee"/><stop offset="1" stop-color="#e5e5e5"/></linearGradient><linearGradient id="Degradado_sin_nombre_291" x1="95.89" y1="243.29" x2="95.89" y2="92.02" gradientUnits="userSpaceOnUse"><stop offset="0.14" stop-color="#3f3f72"/><stop offset="1" stop-color="#006498"/></linearGradient><linearGradient id="Degradado_sin_nombre_133-3" x1="75.27" y1="183.49" x2="153.45" y2="183.49" gradientTransform="translate(-26.01 6.79) rotate(-3.68)" xlink:href="#Degradado_sin_nombre_133"/><linearGradient id="Degradado_sin_nombre_499-2" x1="141.86" y1="164.17" x2="141.86" y2="438.96" gradientTransform="translate(-26.01 6.79) rotate(-3.68)" xlink:href="#Degradado_sin_nombre_499"/><linearGradient id="Degradado_sin_nombre_291-2" x1="114.85" y1="243.29" x2="114.85" y2="93.44" xlink:href="#Degradado_sin_nombre_291"/><linearGradient id="Degradado_sin_nombre_133-4" x1="-45.98" y1="200.4" x2="2.42" y2="161.73" gradientTransform="matrix(-0.99, -0.14, -0.14, 0.99, 57.86, 10.42)" xlink:href="#Degradado_sin_nombre_133"/><linearGradient id="Degradado_sin_nombre_499-3" x1="90.06" y1="152.43" x2="120.8" y2="152.43" xlink:href="#Degradado_sin_nombre_499"/><linearGradient id="Degradado_sin_nombre_499-4" x1="77.69" y1="151.61" x2="91.15" y2="151.61" xlink:href="#Degradado_sin_nombre_499"/></defs><g class="cls-2"><g id="Capa_2" data-name="Capa 2"><g id="Capa_1-2" data-name="Capa 1"><path class="cls-3" d="M85.65,138.29c.2,2.45-5.72,3.72-5.72,3.72.34,3.06,3.67,16.29,11.37,16.83,12.25.85,31-11.61,25.77-15-7.86-5.09-9.85-22-4.28-26.68L83.22,128.85S85.37,134.88,85.65,138.29Z" transform="translate(-14.32 -8.32)"/><path class="cls-4" d="M106.9,24.57a12.71,12.71,0,0,1-2.47-8.2c.11-1.86.81-3.92,2.5-4.68s3.45-.07,5.13-.52c2.06-.55,3.54-2.67,5.66-2.84s4,1.88,5.87,3.16c2.87,1.94,6.51,2.17,9.86,3a24.7,24.7,0,0,1,12.21,7.57,12.63,12.63,0,0,1,3.24,6.07,15.59,15.59,0,0,1-.75,6.72c-.85,3.09-1.94,6.26-4.24,8.5-3.22,3.14-8.28,3.79-12.64,2.66s-8.14-3.81-11.66-6.62a118.55,118.55,0,0,1-11-9.94" transform="translate(-14.32 -8.32)"/><g class="cls-5"><path class="cls-6" d="M30.69,80c-5.28,1.32-12.93.17-15.41-5-3.46-7.17,3.24-11.66,7.77-16S33.46,41.8,43.32,28.65c10.6-14.13,24-18.13,35.47-18.2s22.09,4.11,28.05,12.42c0,0,6.52-4.55,16.57.76S133.88,40.48,136,48.49c2.8,10.59,10.87,23.22,8.94,30.2-2.62,9.53-2.82,10.21-.7,12.33,0,0-5.76,1.1-5.14-4.65,0,0,.63,6.63-2.25,9.25s-2.08,4.51-.85,5.63c0,0-2.4,2-4.9-.87a5.4,5.4,0,0,1-1.5,5.18c-2.38,2.45-3.75,4.75-1.88,8.17,0,0-8.25,2.19-10.5-4S30.37,79.92,30.37,79.92" transform="translate(-14.32 -8.32)"/><path class="cls-7" d="M139.29,79s-1.58,1.83-2.19,8.36-4,6.36-4,6.36c-.85-3.65.28-6.7-3.16-13.7-3.74-7.6-12-11.12-18.61-17.78s-8.11-16.42-8.11-16.42L77.57,93.9c19.87,6.28,38.72,12.93,39.77,15.81,2.25,6.21,10.5,4,10.5,4-1.87-3.42-.5-5.72,1.88-8.17a5.4,5.4,0,0,0,1.5-5.18c2.5,2.87,4.9.87,4.9.87-1.23-1.12-2-3,.85-5.63,1.89-1.72,2.27-5.18,2.31-7.34.72,3.57,5.08,2.74,5.08,2.74C139.45,87,139.29,79,139.29,79Z" transform="translate(-14.32 -8.32)"/><path class="cls-8" d="M61.12,64.2c1.49-1.32,2-5,19-3.9,14.13.88,23-16.85,23-16.85s-10,13.44-23,13.18C61.87,56.26,61.12,64.2,61.12,64.2Z" transform="translate(-14.32 -8.32)"/><path class="cls-9" d="M37.71,65.07c4.58-6.84,11.67-7.68,27.85-9.37s27.16-2.4,38.14-16.61c0,0-10.07,11.4-29.38,12S42.93,55.58,37.71,65.07Z" transform="translate(-14.32 -8.32)"/><path class="cls-10" d="M103.7,34.73s-7,6.74-21.6,8.72-32.16-2.67-42.29,5.63c0,0,5.91-12.8,39.4-10C98.21,40.5,103.7,34.73,103.7,34.73Z" transform="translate(-14.32 -8.32)"/><path class="cls-11" d="M32.5,80.52c-3.67,1-14.38-1.4-12.34-7.9S28,65.46,33.81,60,46.27,47.61,59.93,47.52c0,0-11.19,1.62-21.2,11.72C28.05,70.38,32.5,80.52,32.5,80.52Z" transform="translate(-14.32 -8.32)"/></g><path class="cls-12" d="M130.18,80.1c-6.44,1.77-5.22,8.35-5.57,11.16-.32-.72-.68-1.52-1.13-2.42-2.72-5.45-16.59-22.61-18.87-28.29s-1.53-14.7-1.53-14.7S96.54,64.62,84.46,65c-2.33.08-5,.06-7.87,0h0c-11.15-.1-14.54,3.11-13.27,7.58,0,0-6.92-2.92-3.39-7.55-6.68.3-12.45,1.2-15,3.6-5.64,5.36-.74,9.68-.74,9.68s-10.46-3.24-7.87-12c-3.21,4.4-4,15.61.28,23,2.66,4.59,4.47,7.12,5.19,10.82.21,2.25-1.46,3.7-2.86,5.18-1.58,1.69-3,3.06-3.15,4-.15,1.24,5.32,2.25,5.32,2.25-.64,1.48,4.93,12.34,20.74,18.68,5.79,2.32,3,9.11,12.83,7,33-6.94,51-33.86,51.59-36.28a9.55,9.55,0,0,0-.06-4.68s0-.14,0-.42a8,8,0,0,0,5.3,1.84,6.8,6.8,0,0,0,6.68-6.93C138.1,87.15,137.37,78.12,130.18,80.1Z" transform="translate(-14.32 -8.32)"/><path class="cls-13" d="M46.86,84.45s1.59,1.16,2.5.9S55.62,80.9,64,79.84a35.09,35.09,0,0,1,14.5,1s-7.1-4.87-18.73-4C52.12,77.32,46.86,84.45,46.86,84.45Z" transform="translate(-14.32 -8.32)"/><path class="cls-14" d="M84.46,65c-2.32.08-5,.06-7.86,0h0c-11.16-.1-14.55,3.11-13.28,7.58,0,0,1.22-4.83,7.93-4.72s14.82,1.83,19.84-1.51,9.61-8.07,12-20.54C103.08,45.85,96.55,64.62,84.46,65Z" transform="translate(-14.32 -8.32)"/><path class="cls-14" d="M48.93,70.16c3.46-1.79,7.93-1.71,10.11-1.63a3.87,3.87,0,0,1,.89-3.46c-6.68.3-12.45,1.2-15,3.6-4.7,4.47-2.06,8.22-1.06,9.34l.33.34S44.35,72.52,48.93,70.16Z" transform="translate(-14.32 -8.32)"/><path class="cls-15" d="M64.83,113.07l1.36-4.13L63.8,112a21.2,21.2,0,0,1-14.19,8.09C59.82,121.78,64.83,113.07,64.83,113.07Z" transform="translate(-14.32 -8.32)"/><g class="cls-16"><path class="cls-17" d="M59.39,101s3.26-1.71,9.17-1c0,0,3.81-.7,5.13-8.4,0,0-12-3.89-16.71,3.65A5.09,5.09,0,0,0,59.39,101Z" transform="translate(-14.32 -8.32)"/><ellipse class="cls-18" cx="46.79" cy="88.26" rx="4.3" ry="4.99"/><ellipse class="cls-19" cx="44.09" cy="88.95" rx="1.95" ry="2.26"/><ellipse class="cls-17" cx="50.25" cy="85.99" rx="1.87" ry="1.62"/></g><path class="cls-20" d="M54.19,95c1,1.37,3,.43,4.21-.46a10.72,10.72,0,0,1,4.74-2.07A58,58,0,0,1,74,91.62a14.17,14.17,0,0,1,2.6.2,3.77,3.77,0,0,0,3.3-1.95c-7.86,2.41-10.29,0-11.92-.57a10.51,10.51,0,0,0-9.93,2.17,27.83,27.83,0,0,0-3.16,2.87" transform="translate(-14.32 -8.32)"/><path class="cls-21" d="M78.45,143.08c-14.92,3.09-20.37,2.13-27.6,18.35C43.47,178,35.94,190.38,38.07,196.52s7,2.14,7.52,1.4c1.54-2,11.88-15.84,20.3-29.15A124.93,124.93,0,0,0,78.45,143.08Z" transform="translate(-14.32 -8.32)"/><path class="cls-22" d="M39.6,199.18c4.15,6.54,27.62,15.14,27.62,15.14s5.07.85,3.37-3.72c0,0-17.07-15.77-21.79-19.62C48.8,191,34.58,191.27,39.6,199.18Z" transform="translate(-14.32 -8.32)"/><path class="cls-23" d="M44.12,173.16s10.3,4.11,13.75,11.09l10.3-13,10.28-28.21s-13.23,1.14-18.92,5.25S44.12,173.16,44.12,173.16Z" transform="translate(-14.32 -8.32)"/><path class="cls-24" d="M128.26,89.09a3,3,0,0,1,.53-1.27A1,1,0,0,1,130,87.5a1.17,1.17,0,0,1,.41.47,2.63,2.63,0,0,1,.29,1.65,1.05,1.05,0,0,1-.16.46c-.24.33-.72.35-1.09.52a1.73,1.73,0,0,0-.57,2.49,2.65,2.65,0,0,0,2.59,1,4.3,4.3,0,0,0,3.23-2.83,6.36,6.36,0,0,0-.18-4.4c-.52-1.36-1.82-3.95-3.69-3.45C128.76,84,128.34,87.32,128.26,89.09Z" transform="translate(-14.32 -8.32)"/><path class="cls-25" d="M85.62,421.47l-3.53,5.68s-7.77,1.13-9.83,2.05-2,7.72-2,7.72c.88,2.38,14.26,3,17.94,3,2.77,0,9.23-3.37,12.28-5a3.92,3.92,0,0,0,1.69-3.57c-.11-2.86-.75-7.36-3.45-10C94.51,417.07,85.62,421.47,85.62,421.47Z" transform="translate(-14.32 -8.32)"/><path class="cls-26" d="M111,427l-3.53,5.68s-7.77,1.13-9.83,2-2,7.72-2,7.72c.88,2.39,14.26,3,17.94,3,2.76,0,9.22-3.37,12.28-5.05a3.91,3.91,0,0,0,1.69-3.57c-.11-2.85-.75-7.36-3.45-10C119.84,422.64,111,427,111,427Z" transform="translate(-14.32 -8.32)"/><path class="cls-27" d="M129.24,366.54c-1.1-13.65-5.55-27-9-37.26,1.72-15.67,11.23-50.56,11-58.75a4.14,4.14,0,0,0-.09-.6,3.2,3.2,0,0,0,.7-1.09c6.36-17.62-4.26-30.7-5.37-32.46l-58.32,4.26a48.1,48.1,0,0,0-3.21,16.78h0s-2,42.46,12.25,75.67c0,.06.07.12.1.19h0C80.07,348,82,422.21,82,422.21s15.64,6.45,20,0c0,0,3.54-30.89,1.2-60.4-1.09-13.82-4.89-26.72-8.37-37.13l-.06,0c.3-2.57.64-5.64,1-9a129.39,129.39,0,0,0,7,22.19c2.84,14.7,4.72,88.92,4.72,88.92s15.64,6.44,20,0C127.43,426.81,131.65,396.21,129.24,366.54Z" transform="translate(-14.32 -8.32)"/><path class="cls-28" d="M67.61,165.12a132.5,132.5,0,0,1-4.54,22.09c-3,10.06,4.54,12,4.54,12a82.71,82.71,0,0,1,1.46,17.88,168.72,168.72,0,0,1-2.23,21.31c-.19,1.12.11,1.88.89,2.07,6.35,1.6,36.84,8.38,60.77-1.45a1.83,1.83,0,0,0,.74-2.35c-2.69-5.72-10.85-24.73-6.26-36.3,7.37-18.58,5.19-32.92,5.19-32.92L117.44,144s-.79-4.85-3.11-2.63c-5.81,5.55-11.7,14.12-21.78,14.12-10.79,0-9.08-9.45-8.54-15.12.17-1.67-2.45.8-2.45.8A34.91,34.91,0,0,0,75,142.64c-.53-.63-1.68-.33-2.3.48C69.9,146.69,68.93,156.27,67.61,165.12Z" transform="translate(-14.32 -8.32)"/><path class="cls-14" d="M129.24,236.67c-2.69-5.72-10.85-24.73-6.26-36.3a78.14,78.14,0,0,0,2.69-8l-7.76-1.28c-4.43,10.58-18.12,37.41,10.59,47.91h0A1.83,1.83,0,0,0,129.24,236.67Z" transform="translate(-14.32 -8.32)"/><path class="cls-29" d="M117.11,143.48s1.2,50.68.7,63.59c-4.44.43-7.12,1.19-13.43,1.74-6.14.53-23.67.87-24.64.89-1.59-1.16-4.14-.67-5.91-.53A13.68,13.68,0,0,1,67.16,208c.22,1.46,1.89,2.15,3.3,2.57-.11.56-.8.77-1.36.86-1.7.27-3.54.52-5-.33a2.45,2.45,0,0,0-.84-.38c-.31,0-.67.16-.67.47a.74.74,0,0,0,.24.47,5.11,5.11,0,0,0,2,1.38c.78.3,1.62.41,2.42.68A30.52,30.52,0,0,1,70,215.07a10,10,0,0,0,7,.5,7.42,7.42,0,0,0,2.38-1.32c26.12,5.67,42.58,4.86,42.58,4.86v0a3.92,3.92,0,0,0,1.16-.35c3.94-1.82,15.89-29.6,15.09-48.68S124.23,147.83,117.11,143.48Z" transform="translate(-14.32 -8.32)"/><path class="cls-30" d="M116.66,142.53c.59.52,13,6.35,16.73,11.36,4.58,6.22,5.8,9.84,5.93,20.53a68.83,68.83,0,0,1-2.24,18.67s-9.13,4.69-21.56-1Z" transform="translate(-14.32 -8.32)"/><path class="cls-31" d="M116.66,142.53s4.17,1,5.64,3.1c1.86-.85,4.55.85,4.77,2.89l-1.87-1.08s-7.21,5.78-9.68,36.79L102.63,171Z" transform="translate(-14.32 -8.32)"/><path class="cls-14" d="M108.41,200.45a6.14,6.14,0,0,0,4-4.35,3,3,0,0,0-.41-2.29c-.7-1-2-1.19-3.25-1.26-10.35-.65-21,3.1-30.94,0-3.07-.94-12.11-6.41-15.21-3.58-1.65,8.5,5,10.2,5,10.2s.18.8.41,2.2c2.52,1,5.34.06,8-.54,8.58-1.94,17.5,0,26.29.27A15.53,15.53,0,0,0,108.41,200.45Z" transform="translate(-14.32 -8.32)"/><g class="cls-32"><path class="cls-33" d="M95.74,439.41c0-.05,0-.09,0-.14S95.75,439.36,95.74,439.41Z" transform="translate(-14.32 -8.32)"/><path class="cls-33" d="M96,438.06c0-.06,0-.13,0-.2S96,438,96,438.06Z" transform="translate(-14.32 -8.32)"/><path class="cls-33" d="M95.62,440.69s0-.07,0-.11S95.62,440.65,95.62,440.69Z" transform="translate(-14.32 -8.32)"/><path class="cls-33" d="M95.55,442.49v0Z" transform="translate(-14.32 -8.32)"/><path class="cls-33" d="M103,433.45Z" transform="translate(-14.32 -8.32)"/><path class="cls-33" d="M96.07,437.51c.3-1.28.77-2.41,1.52-2.74a23.1,23.1,0,0,1,3.94-1h0a4.48,4.48,0,0,0,.6-2.45,19.33,19.33,0,0,0-1.7-7.56,5.5,5.5,0,0,0,1.53-1.51s3.54-30.89,1.2-60.4c-1.09-13.82-4.89-26.72-8.37-37.13l-.06,0c.3-2.57.64-5.64,1-9l-9.53-45.63s-.29,53.24,4.76,66.46S93.34,425,93.34,425l4.26,4.65S99,435,91.89,435.24s-21.67,1.68-21.67,1.68c.88,2.38,14.26,3,17.94,3,1.78,0,5.08-1.39,8-2.83C96.14,437.21,96.1,437.36,96.07,437.51Z" transform="translate(-14.32 -8.32)"/><path class="cls-33" d="M95.56,441.75v-.14C95.57,441.66,95.56,441.71,95.56,441.75Z" transform="translate(-14.32 -8.32)"/><path class="cls-33" d="M95.7,442.75l.06.07Z" transform="translate(-14.32 -8.32)"/><path class="cls-33" d="M96,443l.06.05Z" transform="translate(-14.32 -8.32)"/><path class="cls-33" d="M95.55,442.39v0Z" transform="translate(-14.32 -8.32)"/><path class="cls-33" d="M95.6,441.07v0Z" transform="translate(-14.32 -8.32)"/><path class="cls-33" d="M95.55,442.14a1.21,1.21,0,0,1,0-.19A1.28,1.28,0,0,0,95.55,442.14Z" transform="translate(-14.32 -8.32)"/></g><path class="cls-34" d="M127.5,272.91c-2,6.87-16,54.53-13.72,59.89s11,27.82,9.87,57.46S118,429.67,118,429.67s4.61.72,4.29,3.78-4.89,8.33-12.71,8.3h-14c0,.46,0,.74,0,.74.88,2.39,14.26,3,17.94,3,2.76,0,9.22-3.37,12.28-5.05a3.91,3.91,0,0,0,1.69-3.57,18.35,18.35,0,0,0-2.08-8.23,5.75,5.75,0,0,0,2.05-1.81s4.22-30.6,1.81-60.27c-1.1-13.65-5.55-27-9-37.26,1.72-15.67,11.23-50.56,11-58.75a4.14,4.14,0,0,0-.09-.6,3.2,3.2,0,0,0,.7-1.09,33.2,33.2,0,0,0,2-11v0A37.06,37.06,0,0,1,127.5,272.91Z" transform="translate(-14.32 -8.32)"/><path class="cls-34" d="M70.38,241.1c3.19,2.74,9.5,7.26,16.71,7.37A93.23,93.23,0,0,0,128.5,239C107,247.85,80.2,243.27,70.38,241.1Z" transform="translate(-14.32 -8.32)"/><path class="cls-14" d="M77.43,217.13c2.8.35,5.64.28,8.44.65,6.11.8,11.74,3.63,17.57,5.65s12.39,3.21,18,.75a2.44,2.44,0,0,0,1.22-.91,2.63,2.63,0,0,0,.21-1.42l-.17-4c-11.26-1.38-22.55-2.54-33.83-3.69l-9.15-.94c-1.7-.17-8.11-1.58-8.67.64C70.44,216.36,75.93,217,77.43,217.13Z" transform="translate(-14.32 -8.32)"/><path class="cls-14" d="M121.44,179.31c.28,3.23,1,6.74,3.47,8.8,3.25,2.67,7.44,1.49,11.11,3.54-1.15,1.33-1.5,2.94-2.19,5.17a8.72,8.72,0,0,1-2,2.91,3.17,3.17,0,0,1-2.52.17A94.39,94.39,0,0,1,119,197a5.58,5.58,0,0,1-3-1.82c-.9-1.33-.54-3.1-.31-4.69.75-5.17-.29-10.4-.54-15.61-.09-1.85.18-14.51,4.3-13,1.62.6,1.35,6.25,1.44,7.75C121.11,172.87,121.15,176.1,121.44,179.31Z" transform="translate(-14.32 -8.32)"/><path class="cls-35" d="M71.4,214.13a12.5,12.5,0,0,1,6.06,1.37c-.14-1.35-1.63-2.05-2.91-2.49.12-.51.76-.67,1.28-.73,1.57-.18,3.27-.33,4.6.51a2,2,0,0,0,.75.38c.28.05.62-.12.63-.4a.66.66,0,0,0-.2-.44A4.71,4.71,0,0,0,79.84,211c-.7-.3-1.46-.44-2.18-.72-.89-.36-1.67-.94-2.53-1.38a9.16,9.16,0,0,0-6.38-.75c-1.67.42-4.6,2.29-3.45,4.41S69.46,214.19,71.4,214.13Z" transform="translate(-14.32 -8.32)"/><path class="cls-14" d="M68.62,208.79C64.41,204.91,54.54,195.87,50,192c1.91-2.62,4.27-5.91,6.8-9.54a13.48,13.48,0,0,1,1.09,1.82l8.44-10.63c.55-3.11.91-5.84,1.3-8.5.26-1.71.5-3.44.75-5.16-1.43,1-2.28,3.2-3.07,4.62A121,121,0,0,1,54.07,181c-2.32,2.93-4.72,5.79-7.16,8.62a4.08,4.08,0,0,0-1.13,2c-.15,1.22.82,2.27,1.72,3.12l8.47,8c2.32,2.21,4.72,4.47,7.67,5.71a6.56,6.56,0,0,0,4.43.48A3.66,3.66,0,0,0,68.62,208.79Z" transform="translate(-14.32 -8.32)"/><path class="cls-36" d="M117.77,141.79c.57,1.27,3.53,1.53,3,2.43-3.73,5.84-9.38,11-14.57,15.29-3.4,2.82-7.1,5.47-11.36,6.67a1.73,1.73,0,0,1-.71.1,1.55,1.55,0,0,1-.83-.47,6.75,6.75,0,0,1-1.73-3.56,36.94,36.94,0,0,0-.85-3.92,11.39,11.39,0,0,1-.57-1.77,2,2,0,0,1,.42-1.75,3.08,3.08,0,0,1,1.5-.68c7.26-1.9,19.51-9.38,21-13.72.22-.66-.28-1.36.5-1.67C115.64,137.93,117.09,140.27,117.77,141.79Z" transform="translate(-14.32 -8.32)"/><path class="cls-14" d="M121.86,145.12a12.18,12.18,0,0,0-4.77-2.47c-.43-1.24-1.28-2.67-2.75-1.28-5.08-6.19-6.24-18-2.58-23.05a90.65,90.65,0,0,0,6.66-6.54c1.73-2.07,4.17-4.42,4.5-7.41a14.86,14.86,0,0,0-4.26,2.93,151.12,151.12,0,0,1-12.12,9.42,152.09,152.09,0,0,1-23.33,13.41c-4.13,1.91-8.35,3.63-12.63,5.16-.84.3-2.12.54-3.16,1,1.25,1.27,3.15,2,7.28,1.1a75.56,75.56,0,0,0,10.23-2.94,25.67,25.67,0,0,1,.72,3.84c.07.9-.67,1.63-1.65,2.21a.49.49,0,0,0,0-.12c.17-1.67-2.45.8-2.45.8A34.91,34.91,0,0,0,75,142.64c-.53-.63-1.68-.33-2.3.48a8.46,8.46,0,0,0-.71,1.13A25.33,25.33,0,0,0,67.51,146c.38,1.38.78,2.76,1.24,4.11,2.64,7.81,7.1,15.47,14.3,19.49a15.28,15.28,0,0,0,4.78,1.79,17.76,17.76,0,0,0,9.35-1.35c10.41-4,18.5-12.75,23.7-22.63A11.54,11.54,0,0,0,121.86,145.12Z" transform="translate(-14.32 -8.32)"/><path class="cls-37" d="M83.33,138.9a1.47,1.47,0,0,1,1.45-.3c.47.83.13,1.86,0,2.8-.38,2.31.46,4.63,1.34,6.79s1.87,4.24,3.84,5.26a2.94,2.94,0,0,1,.86.53,1.61,1.61,0,0,1,.26,1.61,5.4,5.4,0,0,1-.89,1.47,37.78,37.78,0,0,0-2.93,4.47c-.67,1.2-1.37,2.53-2.65,3a1.59,1.59,0,0,1-1.19.05c-.77-.34-.86-1.37-1.08-2.19a90.06,90.06,0,0,1-3.74-11.28,25.09,25.09,0,0,1-.53-3.1c-.21-1.74-.88-4.64.45-6.12a4.79,4.79,0,0,1,2-1.09A10.13,10.13,0,0,0,83.33,138.9Z" transform="translate(-14.32 -8.32)"/><path class="cls-34" d="M110.43,427.87l-.12.21a6.46,6.46,0,0,0,3.37,3,13,13,0,0,0,6.35.46,33.65,33.65,0,0,0,6.1-1.38,11.79,11.79,0,0,0-.75-1.51C121.34,430.78,114.4,429.13,110.43,427.87Z" transform="translate(-14.32 -8.32)"/><path class="cls-34" d="M84.58,423.15,83.43,425A39.13,39.13,0,0,0,94,427.52a7.45,7.45,0,0,0,2.21.05,7.9,7.9,0,0,0,1.68-.56,19.76,19.76,0,0,0,3.22-1.61,12.82,12.82,0,0,0-.7-1.67C96.34,426.41,88.62,424.47,84.58,423.15Z" transform="translate(-14.32 -8.32)"/><path class="cls-14" d="M68.62,208.79C64.41,204.91,54.54,195.87,50,192c1.91-2.62,4.27-5.91,6.8-9.54a13.48,13.48,0,0,1,1.09,1.82l8.44-10.63c.55-3.11.91-5.84,1.3-8.5.26-1.71.5-3.44.75-5.16-1.43,1-2.28,3.2-3.07,4.62A121,121,0,0,1,54.07,181c-2.32,2.93-4.72,5.79-7.16,8.62a4.08,4.08,0,0,0-1.13,2c-.15,1.22.82,2.27,1.72,3.12l8.47,8c2.32,2.21,4.72,4.47,7.67,5.71a6.56,6.56,0,0,0,4.43.48A3.66,3.66,0,0,0,68.62,208.79Z" transform="translate(-14.32 -8.32)"/><path class="cls-38" d="M56.78,182.43h0c.18.26.36.53.52.8l.11.18c.16.27.32.55.46.84h0l8.44-10.63c.55-3.11.91-5.84,1.3-8.5.26-1.71.5-3.44.75-5.16-1.43,1-2.28,3.2-3.07,4.62A118.58,118.58,0,0,1,54.81,180.1,18.13,18.13,0,0,1,56.78,182.43Z" transform="translate(-14.32 -8.32)"/></g></g></g></svg>