<svg xmlns="http://www.w3.org/2000/svg" xmlns:xlink="http://www.w3.org/1999/xlink" viewBox="0 0 277.24 544.18"><defs><style>.cls-1{fill:none;}.cls-2{isolation:isolate;}.cls-3{fill:url(#Degradado_sin_nombre_1040);}.cls-4{fill:url(#Degradado_sin_nombre_1197);}.cls-5{fill:#c4b99f;mix-blend-mode:multiply;}.cls-6{fill:url(#Degradado_sin_nombre_782);}.cls-7{fill:url(#Degradado_sin_nombre_784);}.cls-8{fill:url(#Degradado_sin_nombre_782-2);}.cls-9{fill:url(#Degradado_sin_nombre_365);}.cls-10{fill:url(#Degradado_sin_nombre_838);}.cls-11{fill:url(#Degradado_sin_nombre_365-2);}.cls-12{fill:url(#Degradado_sin_nombre_426);}.cls-13{fill:url(#Degradado_sin_nombre_161);}.cls-14{fill:url(#Degradado_sin_nombre_191);}.cls-15{fill:url(#Degradado_sin_nombre_161-2);}.cls-16{fill:url(#Degradado_sin_nombre_161-3);}.cls-17{fill:url(#Degradado_sin_nombre_1113);}.cls-18{fill:#83573a;}.cls-19{fill:url(#Degradado_sin_nombre_36);}.cls-20{fill:url(#Degradado_sin_nombre_36-2);}.cls-21{fill:url(#Degradado_sin_nombre_35);}.cls-22{fill:url(#Degradado_sin_nombre_161-4);}.cls-23{fill:url(#Degradado_sin_nombre_244);}.cls-24{fill:#e0beae;}.cls-25{fill:#d8d2be;}.cls-26{fill:#f5f2e7;}.cls-27{fill:url(#Degradado_sin_nombre_784-2);}.cls-28{fill:url(#Degradado_sin_nombre_784-3);}.cls-29{fill:url(#Degradado_sin_nombre_838-2);}.cls-30{fill:url(#Degradado_sin_nombre_838-3);}.cls-31{fill:url(#Degradado_sin_nombre_365-3);}.cls-32{fill:url(#Degradado_sin_nombre_784-4);}.cls-33{fill:url(#Degradado_sin_nombre_784-5);}.cls-34{fill:url(#Degradado_sin_nombre_784-6);}.cls-35,.cls-51{fill:#fff;}.cls-36{fill:#5f2a41;}.cls-37{fill:url(#Degradado_sin_nombre_437);}.cls-38{fill:url(#Degradado_sin_nombre_437-2);}.cls-39{clip-path:url(#clip-path);}.cls-40{fill:url(#Degradado_sin_nombre_14);}.cls-41{fill:url(#Degradado_sin_nombre_24);}.cls-42{fill:#f5f5f5;}.cls-43{fill:#3f2d1f;}.cls-44{clip-path:url(#clip-path-2);}.cls-45{fill:url(#Degradado_sin_nombre_14-2);}.cls-46{fill:url(#Degradado_sin_nombre_24-2);}.cls-47{fill:url(#Degradado_sin_nombre_342);}.cls-48{fill:#5a2980;}.cls-49{fill:#b18ad8;}.cls-49,.cls-51,.cls-60{opacity:0.5;}.cls-50{clip-path:url(#clip-path-3);}.cls-52{clip-path:url(#clip-path-4);}.cls-53,.cls-54,.cls-55,.cls-56,.cls-57,.cls-58,.cls-59,.cls-63{opacity:0.8;mix-blend-mode:screen;}.cls-53{fill:url(#Degradado_sin_nombre_750);}.cls-54{fill:url(#Degradado_sin_nombre_750-2);}.cls-55{fill:url(#Degradado_sin_nombre_750-3);}.cls-56{fill:url(#Degradado_sin_nombre_750-4);}.cls-57{fill:url(#Degradado_sin_nombre_750-5);}.cls-58{fill:url(#Degradado_sin_nombre_750-6);}.cls-59{fill:url(#Degradado_sin_nombre_750-7);}.cls-60{fill:url(#Degradado_sin_nombre_156);}.cls-61{fill:url(#Degradado_sin_nombre_365-4);}.cls-62{fill:#c89f76;}.cls-63{fill:url(#Degradado_sin_nombre_750-8);}</style><radialGradient id="Degradado_sin_nombre_1040" cx="274.78" cy="-1276.49" r="193.5" gradientTransform="matrix(0.53, 0.06, -0.06, 0.53, -61.53, 876.16)" gradientUnits="userSpaceOnUse"><stop offset="0.05" stop-color="#3e3e4a"/><stop offset="0.7" stop-color="#6f6f6f"/></radialGradient><linearGradient id="Degradado_sin_nombre_1197" x1="280.87" y1="146.21" x2="169.88" y2="207.25" gradientTransform="translate(31.13 -12.82) rotate(6.34)" gradientUnits="userSpaceOnUse"><stop offset="0" stop-color="#d9b277"/><stop offset="0.58" stop-color="#c89f76"/><stop offset="0.71" stop-color="#c79870"/><stop offset="0.91" stop-color="#c38560"/><stop offset="1" stop-color="#c17957"/></linearGradient><linearGradient id="Degradado_sin_nombre_782" x1="66.89" y1="565.31" x2="70.29" y2="503.41" gradientTransform="translate(31.13 -12.82) rotate(6.34)" gradientUnits="userSpaceOnUse"><stop offset="0" stop-color="#bd7d38"/><stop offset="0.67" stop-color="#85603c"/></linearGradient><linearGradient id="Degradado_sin_nombre_784" x1="180.7" y1="495.78" x2="188.83" y2="495.78" gradientTransform="translate(31.13 -12.82) rotate(6.34)" gradientUnits="userSpaceOnUse"><stop offset="0.33" stop-color="#85603c"/><stop offset="0.5" stop-color="#8a623c"/><stop offset="0.69" stop-color="#97693b"/><stop offset="0.89" stop-color="#ad7539"/><stop offset="1" stop-color="#bd7d38"/></linearGradient><linearGradient id="Degradado_sin_nombre_782-2" x1="196.78" y1="567.03" x2="235.13" y2="530.52" gradientTransform="translate(56.42 -56.13) rotate(9.46)" xlink:href="#Degradado_sin_nombre_782"/><linearGradient id="Degradado_sin_nombre_365" x1="188.91" y1="474.96" x2="208.07" y2="502.89" gradientTransform="translate(31.13 -12.82) rotate(6.34)" gradientUnits="userSpaceOnUse"><stop offset="0" stop-color="#a7603e"/><stop offset="0.35" stop-color="#c17957"/><stop offset="0.55" stop-color="#c48b65"/><stop offset="0.8" stop-color="#c79a72"/><stop offset="1" stop-color="#c89f76"/></linearGradient><linearGradient id="Degradado_sin_nombre_838" x1="157.55" y1="473.62" x2="74.44" y2="298.46" gradientTransform="translate(31.13 -12.82) rotate(6.34)" gradientUnits="userSpaceOnUse"><stop offset="0.48" stop-color="#fbf2d8"/><stop offset="0.56" stop-color="#f9eed3"/><stop offset="0.65" stop-color="#f3e4c4"/><stop offset="0.74" stop-color="#ead2ac"/><stop offset="0.83" stop-color="#dfbf91"/></linearGradient><linearGradient id="Degradado_sin_nombre_365-2" x1="106.7" y1="140.08" x2="117.64" y2="182.86" xlink:href="#Degradado_sin_nombre_365"/><linearGradient id="Degradado_sin_nombre_426" x1="132" y1="125.69" x2="130.41" y2="48.24" gradientTransform="translate(-19.59 -4.91) rotate(-10.83)" gradientUnits="userSpaceOnUse"><stop offset="0.23" stop-color="#6e3d22"/><stop offset="0.57" stop-color="#815b42"/><stop offset="0.96" stop-color="#a17e4d"/></linearGradient><linearGradient id="Degradado_sin_nombre_161" x1="66.12" y1="84.99" x2="80.92" y2="76.11" gradientTransform="translate(-19.59 -4.91) rotate(-10.83)" gradientUnits="userSpaceOnUse"><stop offset="0" stop-color="#b2a57b"/><stop offset="0.96" stop-color="#b59971"/></linearGradient><linearGradient id="Degradado_sin_nombre_191" x1="71.79" y1="59.56" x2="96.89" y2="47.62" gradientTransform="translate(-19.59 -4.91) rotate(-10.83)" gradientUnits="userSpaceOnUse"><stop offset="0" stop-color="#b2a57b"/><stop offset="0.35" stop-color="#b49f76"/><stop offset="0.96" stop-color="#b59971"/></linearGradient><linearGradient id="Degradado_sin_nombre_161-2" x1="192.05" y1="77.2" x2="192.05" y2="77.15" xlink:href="#Degradado_sin_nombre_161"/><linearGradient id="Degradado_sin_nombre_161-3" x1="184.88" y1="73.8" x2="184.51" y2="56.09" xlink:href="#Degradado_sin_nombre_161"/><radialGradient id="Degradado_sin_nombre_1113" cx="243.74" cy="-42.19" r="90.02" gradientTransform="matrix(0.94, 0.1, -0.1, 0.94, -128.06, 98.14)" gradientUnits="userSpaceOnUse"><stop offset="0.18" stop-color="#d9b277"/><stop offset="0.57" stop-color="#c89f76"/><stop offset="0.64" stop-color="#c79870"/><stop offset="0.73" stop-color="#c38560"/><stop offset="0.78" stop-color="#c17957"/></radialGradient><linearGradient id="Degradado_sin_nombre_36" x1="97.51" y1="65.11" x2="120.87" y2="65.11" gradientTransform="translate(31.13 -12.82) rotate(6.34)" gradientUnits="userSpaceOnUse"><stop offset="0.36" stop-color="#815b42"/><stop offset="0.96" stop-color="#a17e4d"/></linearGradient><linearGradient id="Degradado_sin_nombre_36-2" x1="57.66" y1="73.34" x2="70.52" y2="73.34" xlink:href="#Degradado_sin_nombre_36"/><linearGradient id="Degradado_sin_nombre_35" x1="97.89" y1="35.24" x2="142.82" y2="46.82" gradientTransform="translate(-19.59 -4.91) rotate(-10.83)" gradientUnits="userSpaceOnUse"><stop offset="0" stop-color="#b2a57b"/><stop offset="0.2" stop-color="#b3a278"/><stop offset="0.96" stop-color="#b59971"/></linearGradient><linearGradient id="Degradado_sin_nombre_161-4" x1="166.88" y1="38.53" x2="160.69" y2="44.26" xlink:href="#Degradado_sin_nombre_161"/><linearGradient id="Degradado_sin_nombre_244" x1="131.44" y1="129.51" x2="132.35" y2="142.59" gradientTransform="translate(3.14 -32.03)" gradientUnits="userSpaceOnUse"><stop offset="0" stop-color="#ca8a7a" stop-opacity="0.79"/><stop offset="0.17" stop-color="#cb8f7d" stop-opacity="0.69"/><stop offset="0.5" stop-color="#cf9d86" stop-opacity="0.43"/><stop offset="0.99" stop-color="#d5b295" stop-opacity="0.01"/><stop offset="1" stop-color="#d5b395" stop-opacity="0"/></linearGradient><linearGradient id="Degradado_sin_nombre_784-2" x1="182.42" y1="486.57" x2="204.61" y2="486.57" xlink:href="#Degradado_sin_nombre_784"/><linearGradient id="Degradado_sin_nombre_784-3" x1="199.26" y1="508.15" x2="230.63" y2="508.15" xlink:href="#Degradado_sin_nombre_784"/><linearGradient id="Degradado_sin_nombre_838-2" x1="200.63" y1="578.19" x2="183.34" y2="449.27" xlink:href="#Degradado_sin_nombre_838"/><linearGradient id="Degradado_sin_nombre_838-3" x1="87.56" y1="593.35" x2="70.27" y2="464.43" xlink:href="#Degradado_sin_nombre_838"/><linearGradient id="Degradado_sin_nombre_365-3" x1="79.77" y1="480.32" x2="71.15" y2="517.99" xlink:href="#Degradado_sin_nombre_365"/><linearGradient id="Degradado_sin_nombre_784-4" x1="56.29" y1="492.17" x2="78.87" y2="492.17" xlink:href="#Degradado_sin_nombre_784"/><linearGradient id="Degradado_sin_nombre_784-5" x1="76.81" y1="530.34" x2="81.3" y2="530.34" xlink:href="#Degradado_sin_nombre_784"/><linearGradient id="Degradado_sin_nombre_784-6" x1="52.65" y1="529.12" x2="78.95" y2="529.12" xlink:href="#Degradado_sin_nombre_784"/><linearGradient id="Degradado_sin_nombre_437" x1="107.1" y1="109.95" x2="86.69" y2="128.81" gradientTransform="translate(31.13 -12.82) rotate(6.34)" gradientUnits="userSpaceOnUse"><stop offset="0" stop-color="#c38763"/><stop offset="0.95" stop-color="#cf6d55"/></linearGradient><linearGradient id="Degradado_sin_nombre_437-2" x1="102.41" y1="104.87" x2="82" y2="123.73" xlink:href="#Degradado_sin_nombre_437"/><clipPath id="clip-path"><path class="cls-1" d="M121.07,89.27s-1.1,2.34-.68,3.66,3.84,5,11.55,4.23,10.2-4.24,11.46-11c0,0-.86-6.27-6.15-6.35S123.91,85.28,121.07,89.27Z"/></clipPath><linearGradient id="Degradado_sin_nombre_14" x1="112" y1="94.88" x2="108.68" y2="85.62" gradientTransform="translate(71.16 -40.26) rotate(25.9)" gradientUnits="userSpaceOnUse"><stop offset="0.09" stop-color="#451a41"/><stop offset="1" stop-color="#5f2a41"/></linearGradient><linearGradient id="Degradado_sin_nombre_24" x1="108.78" y1="89.19" x2="113.32" y2="97.4" gradientTransform="translate(71.16 -40.26) rotate(25.9)" gradientUnits="userSpaceOnUse"><stop offset="0" stop-color="#451a41"/><stop offset="1" stop-color="#2b1a41"/></linearGradient><clipPath id="clip-path-2"><path class="cls-1" d="M83.34,85.51s3,4.5,6.3,5.5,6.22.51,6.9-.49a4.21,4.21,0,0,0-.26-3.78C95.37,85.21,88.89,73.4,85,74S83.34,85.51,83.34,85.51Z"/></clipPath><linearGradient id="Degradado_sin_nombre_14-2" x1="71.05" y1="93.7" x2="68.04" y2="83.74" gradientTransform="translate(31.13 -12.82) rotate(6.34)" xlink:href="#Degradado_sin_nombre_14"/><linearGradient id="Degradado_sin_nombre_24-2" x1="69.21" y1="87.13" x2="71.63" y2="95.69" gradientTransform="translate(31.13 -12.82) rotate(6.34)" xlink:href="#Degradado_sin_nombre_24"/><radialGradient id="Degradado_sin_nombre_342" cx="239.49" cy="141.93" r="161.87" gradientTransform="matrix(0.94, 0.06, -0.04, 0.69, -137.44, 143.64)" gradientUnits="userSpaceOnUse"><stop offset="0.23" stop-color="#8a1f5a"/><stop offset="1" stop-color="#b24c9c"/></radialGradient><clipPath id="clip-path-3"><path class="cls-1" d="M141.05,195.71c-3.23,0-4.89-6.22-5.85-9.9s-1.53-8.6-.08-9.89c.95-.86,2-.87,3.37-.89s5.87.23,7.33,1.52a13.9,13.9,0,0,1,3.55,7"/></clipPath><clipPath id="clip-path-4"><path class="cls-1" d="M142.37,203.6c-3.05,1-2.61,7.42-2.32,11.21s1.36,8.62,3.14,9.39c1.19.52,2.23.19,3.49-.2s5.49-2.06,6.45-3.74,1.42-4.53,1.08-7.76-.81-5-2.58-6.55"/></clipPath><linearGradient id="Degradado_sin_nombre_750" x1="157.32" y1="77.67" x2="158.83" y2="77.67" gradientTransform="translate(31.13 -12.82) rotate(6.34)" gradientUnits="userSpaceOnUse"><stop offset="0" stop-color="#ded95f" stop-opacity="0.4"/><stop offset="1" stop-color="#fdfce0" stop-opacity="0"/></linearGradient><linearGradient id="Degradado_sin_nombre_750-2" x1="152.26" y1="433.48" x2="152.83" y2="433.48" xlink:href="#Degradado_sin_nombre_750"/><linearGradient id="Degradado_sin_nombre_750-3" x1="48.12" y1="123.89" x2="56.61" y2="123.89" xlink:href="#Degradado_sin_nombre_750"/><linearGradient id="Degradado_sin_nombre_750-4" x1="80.08" y1="7.15" x2="96.47" y2="44.18" xlink:href="#Degradado_sin_nombre_750"/><linearGradient id="Degradado_sin_nombre_750-5" x1="161.7" y1="90.42" x2="162.56" y2="90.42" xlink:href="#Degradado_sin_nombre_750"/><linearGradient id="Degradado_sin_nombre_750-6" x1="153.36" y1="77.38" x2="155" y2="77.38" xlink:href="#Degradado_sin_nombre_750"/><linearGradient id="Degradado_sin_nombre_750-7" x1="163.6" y1="402.67" x2="238.18" y2="402.67" xlink:href="#Degradado_sin_nombre_750"/><linearGradient id="Degradado_sin_nombre_156" x1="197.4" y1="123.93" x2="225.62" y2="174.39" gradientTransform="translate(31.13 -12.82) rotate(6.34)" gradientUnits="userSpaceOnUse"><stop offset="0" stop-color="#fdfce0"/><stop offset="0.09" stop-color="#fdfce0" stop-opacity="0.97"/><stop offset="0.22" stop-color="#fdfce0" stop-opacity="0.89"/><stop offset="0.37" stop-color="#fdfce0" stop-opacity="0.77"/><stop offset="0.54" stop-color="#fdfbe0" stop-opacity="0.59"/><stop offset="0.73" stop-color="#fcfbe0" stop-opacity="0.36"/><stop offset="0.93" stop-color="#fcfae0" stop-opacity="0.09"/><stop offset="1" stop-color="#fcfae0" stop-opacity="0"/></linearGradient><linearGradient id="Degradado_sin_nombre_365-4" x1="72.18" y1="242.08" x2="0.07" y2="234.47" xlink:href="#Degradado_sin_nombre_365"/><linearGradient id="Degradado_sin_nombre_750-8" x1="-5.4" y1="204.56" x2="61.36" y2="204.56" xlink:href="#Degradado_sin_nombre_750"/></defs><g class="cls-2"><g id="Capa_2" data-name="Capa 2"><g id="Capa_1-2" data-name="Capa 1"><path class="cls-3" d="M173.43,179.12c7,25.31,9.78,52.85.74,77.51-1.76,4.8-4.08,9.6-8,12.84-4.41,3.61-10.28,4.81-15.92,5.64-8.33,1.23-16.84,1.93-25.13.51-9.31-1.58-18-5.79-25.81-11.13a24.34,24.34,0,0,1-6.87-6.34,26.21,26.21,0,0,1-3.17-8.52,216.5,216.5,0,0,1-5-30.26,87.53,87.53,0,0,1-.13-18.59,55.53,55.53,0,0,1,21.66-37.4,38.22,38.22,0,0,1,12.71-6.5,51.08,51.08,0,0,1,12.41-1.4c5.57-.12,11.15,0,16.72.17,4.29.13,9.36-.18,13.44,1.43C168.48,160,171.53,172.3,173.43,179.12Z"/><path class="cls-4" d="M183.76,170.66c3.06,5.07,14.33,23.12,16.29,28.28a415.85,415.85,0,0,1,37.89-23.33s.73-4,1.6-6.8.89-6.75,2.13-9,6-9.64,8.18-10.1,5.51,1.32,7.72,3c5.38-2.64,8.63-5.19,11.19-6.7s6.35-5,7.51-4.07,1.37,3-1.5,5.92-10.61,10.39-10.61,10.39,2.6-.56,3.75.55,2.24,2.65,1,4.78c0,0,.93-.75,2.05.65s.93,3.06-.27,4.91a1.29,1.29,0,0,1,1.88.91c.39,1.6-.11,2.25-1.64,4.62s-8.74,11.31-13,12.82a7.84,7.84,0,0,1-7-.5s-36.21,55.28-52.53,53.46-29.76-20.16-29.76-20.16l-21.5-30.56Z"/><path class="cls-5" d="M222.59,223.86a111.33,111.33,0,0,1-11.93,6.66,16.66,16.66,0,0,1-6.09,1.95c-4.23.26-8-2.44-11.13-5.34a58.72,58.72,0,0,1-17.51-32.35l-4.23-4.42c.68-.17-9.15-5.56-14-2.33-3,2-4.59,5.27-5.56,8.79l16.47,23.42s13.45,18.35,29.76,20.16C204.62,241.09,213.71,233.52,222.59,223.86Z"/><path class="cls-6" d="M30.1,490.32A12.21,12.21,0,0,0,25,498c-1,5.21-2.07,18.67-2.31,20.77s1,.76.84,4.83c-.11,2.88-.69,10.4.9,14.82,1.46,4,12.49,5.87,18.05,5.76,4.87-.09,11.85-.78,13.81-1.95,2.82-1.68,2.27-8.51,2.27-8.51Z"/><path class="cls-7" d="M158.75,492.29s-5.28,5-1,15.68l5.58-.46Z"/><path class="cls-8" d="M157.76,508c-.77,0-.9.7-.67,2.67.19,1.69,5,18.27,5.47,21,.22,1.35.72,1.81,2.53,1.51.78-.14,2.46-1.73,10.5-1.94,4.9-.13,10.91,1.94,16.8,1,7.46-1.24,14.23-2.88,16.59-4.19a3.11,3.11,0,0,0,1.76-3.62c-.39-1.27-.74-2.55-2-2.1-1.08.37-35-10-46.15-13.71A12.33,12.33,0,0,0,157.76,508Z"/><path class="cls-9" d="M156,482.26l4.58,13.64s-3.39,5-2.3,9.77c2.14,9.5,11.27,5.39,15.13,9.42s6,8.9,15.11,9.91a22.62,22.62,0,0,0,13-2.08,7,7,0,0,0,4.86.73c2.55-.67,3.71-4.31,2.39-6.17s-4.54-.15-6.69.37c0,0-5.84-2.61-10.65-13.34a27.11,27.11,0,0,0-11.92-13.05l-1.92-14.29Z"/><path class="cls-10" d="M173.53,298.29c7.86,32.18-.39,90.17-.39,90.17l8.34,93.73s-14.6,7.65-28.65,2.56c0,0-19.55-42.36-19.28-59.1s6.19-33.32,6.19-33.32A305.4,305.4,0,0,1,117.62,333s-17.24,42.89-24.7,55a211.53,211.53,0,0,1-5.41,27.29c-4,15-27.08,64.4-27.08,64.4-18.49-.28-26.52-11.14-26.52-11.14s1.34-37.59,6.38-55S60,381.93,60,381.93C47.19,340.59,46.85,306.12,56,285.24Z"/><path class="cls-11" d="M101.43,133.08a36.92,36.92,0,0,1-1,9.23c4.73,13.55,16.6,40.15,35.84,36,12.46-2.71,9.36-19.13,6.14-29.3-1.51-4.73.71-14.4.71-14.4Z"/><path class="cls-12" d="M75.4,66.93S61,73.12,58.13,69.56,55,56.64,70.49,41.24c0,0-8.2,5.33-10.77.92-3.68-6.33,14.53-24.82,31.64-21,0,0-14.16-9-2-16.47S118.93-1.5,136.81,12A35.55,35.55,0,0,1,142,5C144.7,2.23,149-.58,152,.11c6.79,1.57-1.78,12-1.78,12S161.4,5,178.53,14.63C192.8,22.69,192.35,34,190.62,36.22s-5.81,4.25-11,1.88c0,0,3.92,1.88,7.19.66,0,0,1.82,25-6.94,43.95l-10,19Z"/><path class="cls-13" d="M69.19,61.73c-1.69-2.34-2.65-8.23,5.9-19.4,0,0-8.34,7.33-12,15.33-1.51,3.79-1.9,7-.27,8.28,2.63,2,15.26-3.06,17.69-5.47C80.54,60.47,70.89,64.07,69.19,61.73Z"/><path class="cls-14" d="M71.44,38.34a1.9,1.9,0,0,1-.88-.83c-1.28-2.33,2.59-7.23,8.14-10.11h0c2.66-1.61,11.12-4,11.12-4C76.16,21.09,61.41,34.49,64,38.92,65.65,41.78,70.67,38.82,71.44,38.34Z"/><path class="cls-15" d="M182.91,34.91a3,3,0,0,0,1.25-.27A4.24,4.24,0,0,1,182.91,34.91Z"/><path class="cls-16" d="M178.47,18a42.18,42.18,0,0,0-19.07-4.62s5,.6,14.65,6.23c8,4.68,6.67,12.66,5.69,13.87a3.83,3.83,0,0,1-.64.63l.11,0a10.29,10.29,0,0,0,3.19.72,5.69,5.69,0,0,0,4.39-2C188,31.4,188.5,23.2,178.47,18Z"/><path class="cls-17" d="M166.79,109c.37,1,1.09,2.25,2.08,2a5.61,5.61,0,0,0,1.59-.56,16.76,16.76,0,0,0,1.53-.88,25.72,25.72,0,0,0,2.85-2.16,33.84,33.84,0,0,0,2.59-2.49,28.52,28.52,0,0,0,2.29-2.75,21.71,21.71,0,0,0,1.88-3,8.72,8.72,0,0,0,.85-3.24,18.83,18.83,0,0,0,0-3.52,24.52,24.52,0,0,0-.6-3.51,20.37,20.37,0,0,0-1.08-3.37A8.61,8.61,0,0,0,179,82.71a2.09,2.09,0,0,0-.57-.41l-.12-.06-.11,0h-.06a1.05,1.05,0,0,0-.31,0,2.91,2.91,0,0,0-1.43.45,11.6,11.6,0,0,0-2.67,2.22c-.82.87-1.58,1.8-2.33,2.76s-1.44,2-2.11,3-1.34,2-2,3.07h0l-.9,1.75.4-2a30.74,30.74,0,0,0,.49-5.53,54.77,54.77,0,0,0-.2-5.58,78.63,78.63,0,0,0-1.76-11c-.19-.91-.45-1.82-.68-2.73s-.47-1.78-.74-2.68c-.54-1.77-1.15-3.52-1.85-5.23a57.07,57.07,0,0,0-5.16-9.78,54,54,0,0,0-7-8.55,49.09,49.09,0,0,0-8.57-6.85,42.84,42.84,0,0,0-9.9-4.6A40.65,40.65,0,0,0,120.74,29a41.55,41.55,0,0,0-10.83,1,49.15,49.15,0,0,0-10.3,3.6l-1.26.63-.31.15-.29.16-.6.32c-.82.42-1.6.89-2.39,1.35a44.74,44.74,0,0,0-4.49,3.1,37.57,37.57,0,0,0-7.49,7.83,35,35,0,0,0-4.72,9.73,41.47,41.47,0,0,0-1.69,10.81,48.64,48.64,0,0,0,.16,5.53q.23,2.76.72,5.51a59.24,59.24,0,0,0,3,10.75h0l.51.74-.91-.4a23.91,23.91,0,0,0-5-1.58,12.92,12.92,0,0,0-4.91-.09,8.94,8.94,0,0,0-2.22.75q-.26.12-.51.27a4.38,4.38,0,0,0-.48.3,4.44,4.44,0,0,0-.48.34L66,90l-.11.09h0l0,0,0,0a8.33,8.33,0,0,0-2.33,3.94,17,17,0,0,0-.64,4.92,26.52,26.52,0,0,0,.51,5.08,37.89,37.89,0,0,0,1.34,5,42.63,42.63,0,0,0,2,4.79,44.36,44.36,0,0,0,5.76,8.68,43.68,43.68,0,0,0,7.66,7.09,45.33,45.33,0,0,0,9.15,5.12,47.92,47.92,0,0,0,5,1.74,50.65,50.65,0,0,0,5.14,1.23l2.49.44,2.51.39c1.68.24,3.36.45,5,.62s3.37.3,5.06.4,3.38.13,5.07.13l2.53,0c.85,0,1.69-.06,2.53-.12q2.53-.17,5-.51c1.67-.23,3.34-.51,5-.89s3.28-.8,4.88-1.32a45,45,0,0,0,9.21-4.11,38.49,38.49,0,0,0,7.95-6.2,37.61,37.61,0,0,0,6-8.08,36.86,36.86,0,0,0,2.15-4.59,27.63,27.63,0,0,0,1.42-4.84l.23-1.24.31,1.21Z"/><path class="cls-18" d="M95.7,79.59a34.82,34.82,0,0,1,2.51,10.06,25.61,25.61,0,0,1-.08,5.25,20.81,20.81,0,0,1-1.36,5.16.76.76,0,0,1-.94.44l-.08,0h0a6.94,6.94,0,0,0-4.1-.48,1.48,1.48,0,0,0-1.06,1.16,3.37,3.37,0,0,0,.12,1.93,4.5,4.5,0,0,0,2.91,2.73,6.28,6.28,0,0,0,4.23-.35.57.57,0,0,1,.75.32v.06h0a2,2,0,0,0,1.52,1.53,2.41,2.41,0,0,0,2.22-.69,2.22,2.22,0,0,0,.66-2.24,2,2,0,0,0-1.67-1.59h0a.28.28,0,0,1-.28-.28.28.28,0,0,1,.26-.28,2.15,2.15,0,0,1,1.52.6,3.19,3.19,0,0,1,.86,1.34,3,3,0,0,1-.73,3,3.33,3.33,0,0,1-3,1.07,3,3,0,0,1-2.43-2.21h0l.77.37a7.51,7.51,0,0,1-5,.51,5.79,5.79,0,0,1-3.84-3.46,4.69,4.69,0,0,1-.22-2.73,6.59,6.59,0,0,1,.24-.71,5.32,5.32,0,0,1,.42-.67,3.16,3.16,0,0,1,1.29-.85,5.87,5.87,0,0,1,2.7-.21,11.55,11.55,0,0,1,2.49.59h0l-1,.42A19.43,19.43,0,0,0,96.8,94.7a24.4,24.4,0,0,0,.33-5,32.77,32.77,0,0,0-.6-5,31.29,31.29,0,0,0-1.35-4.89v0a.27.27,0,0,1,.16-.35A.28.28,0,0,1,95.7,79.59Z"/><path class="cls-19" d="M120.88,65l.2-.27a7.51,7.51,0,0,1,.54-.67,12.16,12.16,0,0,1,2.31-2,11.07,11.07,0,0,1,1.78-1,12.24,12.24,0,0,1,2.16-.81,16.07,16.07,0,0,1,2.45-.45,19,19,0,0,1,2.51,0,14.26,14.26,0,0,1,2.48.39,12.13,12.13,0,0,1,2.3.74,13.9,13.9,0,0,1,3.61,2.15,14.07,14.07,0,0,1,2.06,2.06c.43.56.64.89.64.89a.28.28,0,0,1-.08.39.27.27,0,0,1-.26,0h0s-.37-.15-1-.43-1.47-.65-2.49-1a24.76,24.76,0,0,0-3.47-1c-.63-.13-1.29-.22-1.95-.31s-1.37-.1-2-.13a14.5,14.5,0,0,0-2,.06,12.57,12.57,0,0,0-1.87.28,17.2,17.2,0,0,0-3.25,1.07A24.44,24.44,0,0,0,123.32,66c-.54.32-.78.46-.79.48a1.11,1.11,0,0,1-1.84-1.25Z"/><path class="cls-20" d="M90.76,69.21l-.34-.33a9.41,9.41,0,0,0-1-.84,8.55,8.55,0,0,0-1.59-.94,9.75,9.75,0,0,0-1-.35,4.94,4.94,0,0,0-1-.16,3.49,3.49,0,0,0-1,0,6.71,6.71,0,0,0-1,.25,9.34,9.34,0,0,0-.91.41,8.67,8.67,0,0,0-.78.5,9.84,9.84,0,0,0-1.15.88l-.45.36,0,0a.26.26,0,0,1-.38,0,.28.28,0,0,1,0-.3l.29-.53a6.58,6.58,0,0,1,.9-1.32,5.18,5.18,0,0,1,.77-.79,12.22,12.22,0,0,1,1-.74,6.1,6.1,0,0,1,1.28-.55,5.47,5.47,0,0,1,1.44-.27,7.21,7.21,0,0,1,1.47,0,8.19,8.19,0,0,1,1.36.32,10.66,10.66,0,0,1,2.19,1,13.33,13.33,0,0,1,1.36,1,6,6,0,0,1,.5.45,1.34,1.34,0,1,1-1.93,1.87Z"/><path class="cls-21" d="M99.1,21.58s-9.79-6.38-1-11.25,22.29-2.52,36.4,3.27C126.63,9,123.65,7.31,117.22,5.42c-9.91-2.92-17-2.42-24.61,1C84.87,10,89.44,16,92.27,18.51A11.87,11.87,0,0,0,99.1,21.58Z"/><path class="cls-22" d="M140,12.88s1.52-1.72,3.21-3.33c1.39-1.34,3.61-2.69,5.13-2.3,1.68.42,1.49,1.85.85,3.2l.06,0S154.58,4,150.38,3c-1.84-.43-4.5,1.31-6.14,3-.36.37-.69.75-1,1.12A32.54,32.54,0,0,0,140,12.88Z"/><ellipse class="cls-23" cx="134.85" cy="101.4" rx="13.41" ry="6.01" transform="translate(-16.65 27.14) rotate(-10.83)"/><path class="cls-24" d="M66.89,94c-.26-.33,0-2,1.76-3.22s3.12-.7,3.38-.37-1.45.92-2.46,1.56C68,93,67.14,94.35,66.89,94Z"/><path class="cls-24" d="M176.69,84c.32-.27,1.25-.67,2.55,1s.88,3.08.56,3.35-1-1.39-1.7-2.36C177,84.55,176.38,84.32,176.69,84Z"/><path class="cls-25" d="M169.31,106c-1.06.2-1.69,2.36-1,8.4.83,7.16,2.08,8.6,4.1,8.21s2.3-2.9.7-9.29C172,108.71,170.65,105.78,169.31,106Z"/><ellipse class="cls-26" cx="170.24" cy="116.53" rx="0.54" ry="4.54" transform="translate(-18.86 34.06) rotate(-10.83)"/><path class="cls-27" d="M180.77,492s-.83,2.72-8.15,4.28a39.16,39.16,0,0,1-12.74.74,3,3,0,0,1-1.33-2,4.39,4.39,0,0,1,.2-2.68,28.84,28.84,0,0,0,12.61-.72c6.71-1.95,8.27-4.3,8.27-4.3s1,.33,1.33,2.15A3.63,3.63,0,0,1,180.77,492Z"/><path class="cls-28" d="M202,517.6s-6.26-8.13-24.17,2.45a3.23,3.23,0,0,1-4.06-.58c-1.93-2-.32-4.38-.32-4.38s7.14-4.29,18.3-4.64c4.67-.15,10.75,1.83,12.62,6.7A17.68,17.68,0,0,1,202,517.6Z"/><path class="cls-29" d="M151.68,485.32c15.2,5.51,31-2.77,31-2.77l-1.33-15a265.39,265.39,0,0,1-35.4,4.56C149.19,479.93,151.68,485.32,151.68,485.32Z"/><path class="cls-30" d="M33,451.31c-.72,9.94-1,17.3-1,17.3s8.88,12,29.36,12.33c0,0,2.72-5.83,6.54-14.24A262.8,262.8,0,0,1,33,451.31Z"/><path class="cls-1" d="M159.7,300s.57,18.93,16.79,19.86"/><path class="cls-1" d="M163,300.05c.84,4.91,3.73,14.38,13.52,16.5"/><path class="cls-1" d="M164.21,304a35.81,35.81,0,0,0,10.32-1.08"/><path class="cls-1" d="M124.3,300.31s-.2,10.68-.52,17.8S117.62,333,117.62,333s2.7-10.29,1.67-33.22"/><path class="cls-1" d="M117.62,333s-4.78-7.18-5-11.79-.1-22.9-.1-22.9"/><path class="cls-31" d="M55.91,480.87l-3.69,7.48S54,501,52.68,509.92c-.83,5.59,2.06,17.82,2.38,18.45s2.95,2.89,3,5c0,1.76-3,4.36-5.35,4.34-1.89,0-2.71-4.87-2.71-4.87s.84,5.06-3.28,4.89c-2.93-.07-3.28-4-3.28-4s-.55,3.56-3.14,3.3c-3.8-.37-2.49-3.21-2.49-3.21s-.34,3.26-3.39,2.48c-3.72-1-2.09-4.31-2.09-4.31-.38,1.7-.29,2.61-3.1,2.18-3.06-.47-2-4.32-2-4.32-3.44-2.86.44-11.7.45-17.81s-1.19-13,1.24-18.52a61.75,61.75,0,0,1,5.93-10.29L36,472.53Z"/><path class="cls-32" d="M53.56,488.7s-2,2-9-.05a37.87,37.87,0,0,1-11.33-5.31,3.11,3.11,0,0,1-.2-2.43c.42-1.52,2.48-3.23,2.48-3.23a21.48,21.48,0,0,0,10.17,6.24c6.6,1.85,9.16.08,9.16.08s.7.76.14,2.52A3.67,3.67,0,0,1,53.56,488.7Z"/><path class="cls-33" d="M50,532.79s2.21-10.51,3.86-13.77a10.13,10.13,0,0,0,0-3.47c-.28-2.13-1.35-3.5-3-.84C49.47,517,47.68,525.69,50,532.79Z"/><path class="cls-34" d="M50,532.79S43.64,511,27.59,508c0,0-1.33.13-1.61,2.64s1.53,3.06,1.53,3.06S38.26,518.18,50,532.79Z"/><path class="cls-35" d="M121.07,89.27s-1.1,2.34-.68,3.66,3.84,5,11.55,4.23,10.2-4.24,11.46-11c0,0-.86-6.27-6.15-6.35S123.91,85.28,121.07,89.27Z"/><path class="cls-35" d="M83.34,85.51s3,4.5,6.3,5.5,6.22.51,6.9-.49a4.21,4.21,0,0,0-.26-3.78C95.37,85.21,88.89,73.4,85,74S83.34,85.51,83.34,85.51Z"/><path class="cls-36" d="M96.09,123.62c-1-.69-1.17-4.77-1.17-4.77s19.61-.68,31-7.25C119.82,122.17,108.92,132.05,96.09,123.62Z"/><path class="cls-37" d="M113.64,122.13c-7.19,3.41-14.53,2.93-16.84,1.76s-1.22-4.13-.22-4.62l-1.66-.42a8.38,8.38,0,0,0-2.59,8.35c1,4,6,5.63,13.25,4.19,18.52-3.68,21.89-20.84,21.89-20.84C122.58,116.27,119,119.59,113.64,122.13Z"/><path class="cls-24" d="M102.23,128.71c-.11.4-1.59,1.26-3.63.62s-2.48-2-2.38-2.41,1.62.56,2.75,1C100.72,128.48,102.33,128.3,102.23,128.71Z"/><path class="cls-38" d="M127.47,110.55A43.41,43.41,0,0,1,105.58,114c-5.43-1-7.41-3.69-11-3.16-2.59.38-3.93,2.36-3.74,4.06.14,1.26,1,2.51,3.49,3.44C100.38,120.55,113.67,120.06,127.47,110.55Z"/><g class="cls-39"><path class="cls-40" d="M135.19,91c.51,5-1.77,6.89-5.14,6.67s-4.45-3.37-3.86-7.25c.69-4.46,1.43-7.63,4.38-7S134.88,88,135.19,91Z"/><path class="cls-41" d="M132.7,91c.27,2.66-.95,3.69-2.75,3.57s-2.38-1.8-2.06-3.88c.36-2.38.76-4.08,2.34-3.72S132.53,89.4,132.7,91Z"/></g><path class="cls-42" d="M140.8,85.86a4.23,4.23,0,0,1,.54,2.22,1.14,1.14,0,0,0,.07.41.35.35,0,0,0,.33.21.44.44,0,0,0,.27-.17,2.4,2.4,0,0,0,.43-1,4.66,4.66,0,0,0,.17-1,1.43,1.43,0,0,0-.3-.94,4.06,4.06,0,0,0-1.6-1C139.87,84.46,140.6,85.57,140.8,85.86Z"/><path class="cls-35" d="M133.05,86.15c-.49.35-2.28,1.42-2,2.32s2.64-.41,3.27-.77a.46.46,0,0,0,.18-.16.36.36,0,0,0,0-.25,2,2,0,0,0-.27-.78c-.09-.2-.22-.67-.47-.74S133.23,86,133.05,86.15Z"/><path class="cls-42" d="M133.59,82.25a3.73,3.73,0,0,0-1.77,1s-.09.12-.06.18a.24.24,0,0,0,.08.06,1.46,1.46,0,0,0,.9,0,18,18,0,0,1,3.65-.53c.25,0,.59-.07.63-.33.09-.6-1.09-.75-1.48-.73A8.1,8.1,0,0,0,133.59,82.25Z"/><path class="cls-43" d="M120.33,90.44a9.93,9.93,0,0,1,1-2.1,21.7,21.7,0,0,1,1.23-1.88A29.84,29.84,0,0,1,125.45,83a23.44,23.44,0,0,1,7.65-5.21,19.25,19.25,0,0,1,2.3-.73,6.11,6.11,0,0,1,3.12.06,7.87,7.87,0,0,1,4.21,3.28,19.13,19.13,0,0,1,2,4.3l.05.14v.05l-.1-.06a.65.65,0,0,0-.27-.08c-.08,0-.11,0-.09,0s.4-.1.67-.25c.58-.32,1.17-.76,1.78-1.17h0a.34.34,0,0,1,.49.44A9.1,9.1,0,0,1,146,85.74a2.86,2.86,0,0,1-1.17.88,1.42,1.42,0,0,1-.63.09,1.5,1.5,0,0,1-.76-.28,2.64,2.64,0,0,1-.64-.77,16.3,16.3,0,0,0-2.73-3,10,10,0,0,0-2.72-1.83,2.26,2.26,0,0,0-1.18-.13,16.24,16.24,0,0,0-1.89.46,24.7,24.7,0,0,0-7.21,3.74,37.39,37.39,0,0,0-3.29,2.65c-.53.48-1.05,1-1.55,1.48a13.62,13.62,0,0,0-1.38,1.55l0,.08a.27.27,0,0,1-.37.07A.28.28,0,0,1,120.33,90.44Z"/><g class="cls-44"><path class="cls-45" d="M94.53,84.59c1.52,4.73-.43,7-3.19,7.27s-4.1-2.75-4.18-6.66c-.09-4.51,0-7.53,2.53-7.45C92,77.82,93.51,81.4,94.53,84.59Z"/><path class="cls-46" d="M92.79,84.67c.78,2.45-.23,3.65-1.66,3.76S89,87,89,85c0-2.33,0-3.9,1.32-3.86S92.25,83,92.79,84.67Z"/></g><path class="cls-35" d="M91.2,85.28c.37.63,2.71-.86,3.17-1.31a.53.53,0,0,0,.19-.32.55.55,0,0,0-.14-.32c-.12-.16-.44-.68-.65-.7s-.65.4-.82.53C92.42,83.59,90.84,84.65,91.2,85.28Z"/><path class="cls-43" d="M96.49,87.83a49.8,49.8,0,0,0-4-6.79,24.94,24.94,0,0,0-2.44-2.93A9.9,9.9,0,0,0,87.26,76a4,4,0,0,0-1.41-.37,2.9,2.9,0,0,0-.66,0,2,2,0,0,0-.36.09,1,1,0,0,0-.61.52,4.48,4.48,0,0,0-.46,1.46,17.32,17.32,0,0,0-.08,3.69,38.17,38.17,0,0,0,.47,3.85h0l0,.15a.8.8,0,0,1-.66.93.77.77,0,0,1-.4,0,1,1,0,0,1-.29-.14.54.54,0,0,1-.12-.09L82.54,86c-.1-.1-.18-.2-.27-.3s-.29-.39-.42-.58c-.26-.38-.48-.77-.7-1.16-.43-.78-.82-1.56-1.19-2.36a.37.37,0,0,1,.17-.48.37.37,0,0,1,.45.12c.51.7,1,1.39,1.57,2,.27.32.54.64.83.93.14.14.29.28.43.4l.2.15a.2.2,0,0,0,.08,0h0s0,0-.14-.07l-1,1h0A23.38,23.38,0,0,1,81,77.47a8.44,8.44,0,0,1,.44-2.41,5,5,0,0,1,.71-1.31,3.83,3.83,0,0,1,1.31-1.07,4.71,4.71,0,0,1,.8-.27,5.58,5.58,0,0,1,.78-.08,5.89,5.89,0,0,1,1.33.13,7.17,7.17,0,0,1,2.35.92A12.55,12.55,0,0,1,92,76.43,22.62,22.62,0,0,1,94.21,80a37.34,37.34,0,0,1,3,7.61.35.35,0,0,1-.25.44.38.38,0,0,1-.42-.19Z"/><path class="cls-42" d="M84.79,77.59a.48.48,0,0,0,0,.31.3.3,0,0,0,.24.18c.16,0,.29-.14.4-.26A2.26,2.26,0,0,1,87,77.24c.15,0,.35-.06.38-.21a.29.29,0,0,0-.09-.23,1.5,1.5,0,0,0-1.58-.39A1.57,1.57,0,0,0,84.79,77.59Z"/><path class="cls-47" d="M156.57,247l7.27-24.66c21.07-7.19,14.21-28.59,6.77-42.77l.08.15a51,51,0,0,1,14.83-9.92c-16.83-28.34-43.66-25.68-43.68-25.68a15.36,15.36,0,0,0,.55,4.81c3.22,10.17,6.32,26.59-6.14,29.3-19.24,4.19-31.11-22.41-35.84-36,0,0-28.47-4.39-50.87,15.58,8.39,5.16,16.2,14.37,19.72,28.44,5-7,12.94-13.06,12.94-13.06s-2.36,1.82-5.35,4.69c-6.23,6-15.61,16.72-14.8,26.41,1.19,14.33,15.33,14.09,15.33,14.09l4.22,23.69c-20.78,25.82-26.24,43-26.24,43,65,23.47,118.17,13.12,118.17,13.12-3.32-13.26-7.42-20.35-10.5-21.56,4-3.57,5-11.68,3.22-16.19C163.28,252.84,156.57,247,156.57,247Z"/><path class="cls-18" d="M257.24,152.28c1.1.78,2.18,1.57,3.26,2.38a5.63,5.63,0,0,1,1.42,1.56,3.22,3.22,0,0,1,.31,2.17,12.59,12.59,0,0,1-.58,2,9.89,9.89,0,0,0-.51,3.79,11,11,0,0,1,.14,2.09,1.73,1.73,0,0,1-.63,1.13,2.19,2.19,0,0,1-1.16.42,3.46,3.46,0,0,1-2.16-.61,6.25,6.25,0,0,1-2.32-3.47l-.6-1.92a8.51,8.51,0,0,0-.33-.9l0-.07,0,0a.21.21,0,0,0,.16,0c.08,0,.16-.11.12-.06a1.26,1.26,0,0,1-.27.2,2.22,2.22,0,0,1-.55.16,5.21,5.21,0,0,1-3.94-.92.09.09,0,0,1,0-.13.11.11,0,0,1,.12,0,5,5,0,0,0,3.73.56,1.25,1.25,0,0,0,.4-.13.49.49,0,0,0,.13-.1s.07-.09.17-.1a.32.32,0,0,1,.22,0,.38.38,0,0,1,.13.12l.09.14a7.79,7.79,0,0,1,.41,1l.69,1.88a5.86,5.86,0,0,0,2.1,3,2.59,2.59,0,0,0,1.64.45c.56-.06.94-.34,1-.84a13.83,13.83,0,0,0-.12-1.91,9.68,9.68,0,0,1,.1-2.08,10.65,10.65,0,0,1,.5-2,15.35,15.35,0,0,0,.61-1.85,2.5,2.5,0,0,0-.15-1.73,5.28,5.28,0,0,0-1.21-1.44l-3-2.61h0a.12.12,0,0,1,0-.16A.12.12,0,0,1,257.24,152.28Z"/><path class="cls-18" d="M269,163.6a49.86,49.86,0,0,1-3.83,4.53,19.86,19.86,0,0,1-2.23,2.05,10.12,10.12,0,0,1-2.79,1.39,9.16,9.16,0,0,1-3.1.56,2.68,2.68,0,0,1-.95-.14,3,3,0,0,1-.82-.48,4.65,4.65,0,0,1-1.1-1.3,4.92,4.92,0,0,1-.71-3.23,2.4,2.4,0,0,1,.94-1.53A2.71,2.71,0,0,1,256,165a.18.18,0,0,1,.17.17.18.18,0,0,1-.1.16h0a2.09,2.09,0,0,0-1.42,1.82,4.86,4.86,0,0,0,.75,2.39,3.91,3.91,0,0,0,.77,1,1.58,1.58,0,0,0,.44.26.56.56,0,0,0,.2.06l.3,0a9.41,9.41,0,0,0,2.7-.41,10.14,10.14,0,0,0,2.53-1.12,22,22,0,0,0,2.25-1.78c1.47-1.29,2.89-2.65,4.29-4a.09.09,0,0,1,.15,0A.11.11,0,0,1,269,163.6Z"/><path class="cls-18" d="M270.83,169.19a37.27,37.27,0,0,1-2.67,2.81,12.92,12.92,0,0,1-3.19,2.35,2.75,2.75,0,0,1-.53.18l-.49.09c-.33.06-.66.1-1,.13a14.83,14.83,0,0,1-2,0,7.83,7.83,0,0,1-1.05-.14,2,2,0,0,1-1-.85,8.08,8.08,0,0,1-.88-1.9h0a.68.68,0,0,1,1.28-.43.43.43,0,0,1,0,.05,6.2,6.2,0,0,0,.61,1.62,1.09,1.09,0,0,0,.35.41,6.84,6.84,0,0,0,.85.16,12.65,12.65,0,0,0,1.84.13c.31,0,.61,0,.92,0l.45-.06a2,2,0,0,0,.4-.1,12.35,12.35,0,0,0,3.1-2A36.35,36.35,0,0,0,270.6,169a.16.16,0,0,1,.22,0A.15.15,0,0,1,270.83,169.19Z"/><path class="cls-18" d="M271,174.72a17.38,17.38,0,0,1-2.69,2,15.34,15.34,0,0,1-3,1.52,5.2,5.2,0,0,1-1.76.36,4.3,4.3,0,0,1-1.82-.46,2.19,2.19,0,0,1-.83-.68,2.12,2.12,0,0,1-.39-1.07,5.65,5.65,0,0,1,.26-1.86.68.68,0,0,1,1.31.33.14.14,0,0,1,0,.06v0a4.47,4.47,0,0,0-.34,1.38.94.94,0,0,0,.53.88,3.36,3.36,0,0,0,1.33.46,4.62,4.62,0,0,0,1.49-.19,15.44,15.44,0,0,0,3-1.21,18,18,0,0,0,2.78-1.74h0a.13.13,0,0,1,.19,0A.14.14,0,0,1,271,174.72Z"/><path class="cls-48" d="M142,229.14s-10.42-37.33-10.34-48c0-5.63,2-6.55,3.43-6.64s9.47,53.72,9.47,53.72Z"/><path class="cls-48" d="M155.47,214.23c-.05-2.09.35-5.13-2.36-8.45s-8.73-3.7-9.49-4.06-1.52-3.43-.63-4a30.62,30.62,0,0,0,6-4.49c2.27-2.35,2.84-5.05,1.37-10.59s-3.9-6.69-5-7.6-8.05-1.62-8.66-1.63-1.54-1.26-1.72-1.49a14,14,0,0,0-3,0c-1.38,7.69,4.64,23.78,5.73,26.14s.89,3.82.89,6.21-.09,5.57.29,12.23,2.8,12.38,3.21,12.65,2.3-.7,2.56-.89.12-.79.77-1.52,3.38-2,6.6-3.81S155.53,216.31,155.47,214.23ZM135.2,185.81c-1-3.68-1.53-8.6-.08-9.89.95-.86,2-.87,3.37-.89s5.87.23,7.33,1.52a13.9,13.9,0,0,1,3.55,7c.72,3.17.88,5-.31,7-.83,1.41-4.77,5.15-8,5.12S136.16,189.49,135.2,185.81Zm17.93,34.45c-1,1.68-5.2,3.34-6.45,3.74s-2.3.72-3.49.2c-1.78-.77-2.86-5.6-3.14-9.39s-.73-10.17,2.32-11.21,8,1.27,9.26,2.35c1.77,1.51,2.23,3.32,2.58,6.55S154.1,218.58,153.13,220.26Z"/><path class="cls-49" d="M135.12,175.92c.95-.86,2-.87,3.37-.89s5.87.23,7.33,1.52a13.9,13.9,0,0,1,3.55,7c.72,3.17.88,5-.31,7-.83,1.41-4.77,5.15-8,5.12s-4.89-6.22-5.85-9.9S133.67,177.21,135.12,175.92Z"/><path class="cls-49" d="M143.19,224.2c1.19.52,2.23.19,3.49-.2s5.49-2.06,6.45-3.74,1.42-4.53,1.08-7.76-.81-5-2.58-6.55c-1.25-1.08-6.2-3.39-9.26-2.35s-2.61,7.42-2.32,11.21S141.41,223.43,143.19,224.2Z"/><g class="cls-50"><rect class="cls-51" x="134.14" y="160.82" width="6.53" height="41.8" transform="translate(129.69 -45.97) rotate(35.15)"/><rect class="cls-51" x="139.98" y="152.25" width="4.94" height="80.73" transform="translate(136.88 -46.89) rotate(35.15)"/></g><g class="cls-52"><rect class="cls-51" x="144.73" y="166.46" width="9.22" height="77.35" transform="translate(145.35 -48.57) rotate(35.15)"/><rect class="cls-51" x="157.89" y="179.51" width="3.84" height="54.84" transform="translate(148.3 -54.27) rotate(35.15)"/></g><path class="cls-3" d="M170.69,179.76c-2.87-8.74-14.47-33.54-20.77-35.17,0,0,.3-2.93,5.06-2.23s13.5,3.81,14.53,5.79S173.81,158.78,170.69,179.76Z"/><path class="cls-53" d="M180.42,81.82h0a8.64,8.64,0,0,1-1.53,0A8.58,8.58,0,0,0,180.42,81.82Z"/><path class="cls-54" d="M135.17,435.05l-.47-.92c.09.48.18.94.29,1.44C135.09,435.25,135.17,435.05,135.17,435.05Z"/><path class="cls-55" d="M72.59,122.63c.13.15.27.29.41.44-.11-.53-.23-1.06-.33-1.6A53.9,53.9,0,0,1,72,116a48.54,48.54,0,0,1-.17-5.52l0-.43-1-.36s-2.23.95-5.1,1.89c.35.81.71,1.62,1.11,2.41A44.61,44.61,0,0,0,72.59,122.63Z"/><path class="cls-56" d="M70.65,41.25C55.15,56.66,55.44,66,58.3,69.58c.84,1,2.68,1.24,4.85,1,6.23-5,15.07-8.62,23.64-6.71,0,0-14.17-9-2-16.47s29.55-6.2,47.42,7.34a35.85,35.85,0,0,1,5.24-7.07c2.65-2.73,7-5.55,9.94-4.86,6.79,1.57-1.79,12-1.79,12s11.2-7.19,28.34,2.49c5.68,3.22,9,6.94,10.87,10.41a117.07,117.07,0,0,0,2.13-29l-.27.07a8,8,0,0,0,4.09-2.61c1.73-2.18,2.19-13.53-12.08-21.59-17.13-9.68-28.34-2.49-28.34-2.49s8.58-10.46,1.79-12c-3-.69-7.28,2.13-9.94,4.86A36.17,36.17,0,0,0,137,12.05C119.1-1.48,101.74-2.75,89.55,4.72s2,16.47,2,16.47c-17.12-3.83-35.33,14.66-31.65,21C62.45,46.59,70.65,41.25,70.65,41.25Zm115.81-2.34a7.77,7.77,0,0,1-2.82.22A8.89,8.89,0,0,0,186.46,38.91Zm-5.09-.21a11.67,11.67,0,0,1-1.59-.58A12.3,12.3,0,0,0,181.37,38.7Z"/><path class="cls-57" d="M182.57,92.46q-.09-.9-.24-1.77c-.07,2.49-.23,5.36-.54,8.46a8.58,8.58,0,0,0,.82-3.18A19.62,19.62,0,0,0,182.57,92.46Z"/><path class="cls-58" d="M176.62,81.39a11.31,11.31,0,0,1-1.58-.58A11.81,11.81,0,0,0,176.62,81.39Z"/><path class="cls-59" d="M208.86,522.23a1.49,1.49,0,0,1-.33,0,4.29,4.29,0,0,0,.4-4.71c-1.32-1.86-4.54-.15-6.69.37a13.56,13.56,0,0,1-3.16-2.31,7.6,7.6,0,0,1,3,2.06,19.63,19.63,0,0,0,2.38-.45c-1.48-3.84-5.56-5.86-9.52-6.48a40.48,40.48,0,0,1-3.39-6.17,27.86,27.86,0,0,0-10.71-12.37l.06-.14a3.63,3.63,0,0,0,.19-2.57c-.33-1.82-1.33-2.16-1.33-2.16a4.24,4.24,0,0,1-.61.65l-.49-3.61a36.51,36.51,0,0,0,4.13-1.75l-1.34-15-1.13.21-7.05-79.31s5.29-37.27,3.34-68.63h0q-.1-1.68-.24-3.33l.25.06-.27-.33A132.57,132.57,0,0,0,174.68,303h0c-.3-1.59-.62-3.16-1-4.65-.47-1.86-.95-3.58-1.44-5.2a7.83,7.83,0,0,0,.82-1.79,15.59,15.59,0,0,0,.35-5.95,89,89,0,0,1-3.84,14c-1.66,4.52-3.82,9-7.37,12.25a14.18,14.18,0,0,1-3.32,7.34,3.65,3.65,0,0,1,.21.85l.32.24c.66-1.64,1.24-3.57,1.24-3.57s1.46.46,2.64.81,1.32,3.13,1.11,4a2.43,2.43,0,0,1,2.88,1.06c.92,1.71,2.25,7.81,1,11.7a8,8,0,0,1-.82,1.79q.73,2.42,1.44,5.19c.36,1.5.68,3.06,1,4.66h0a132.78,132.78,0,0,1,1.71,13.27l.27.33-.25-.07q.14,1.65.24,3.33h0c2,31.37-3.35,68.64-3.35,68.64s7.12,99,7.54,100c4.84,0,10.7,1.92,16.46,1,7.46-1.25,14.23-2.89,16.58-4.19a3.1,3.1,0,0,0,1.76-3.62C210.51,523.06,210.17,521.78,208.86,522.23Z"/><path class="cls-60" d="M175.57,181.59c3.9,9.07,10.31,16.84,17.31,23.79,3,3,6.36,6,10.5,6.83,4.77,1,9.73-1,13.54-4.05s6.74-7,9.93-10.65c8.1-9.29,18-16.78,27.86-24.2a161.13,161.13,0,0,1,14.54-10.1c.93-2-.09-3.38-1.18-4.44s-3.75-.56-3.75-.56,7.75-7.47,10.62-10.38,2.66-4.94,1.5-5.92-4.94,2.56-7.51,4.07-5.82,4.06-11.19,6.7l-.21-.14-.19-.15h0c-2.2-1.57-5.27-3.13-7.32-2.69s-6.94,7.84-8.18,10.1-1.26,6.22-2.13,9a68.14,68.14,0,0,0-1.6,6.8A415.85,415.85,0,0,0,200.22,199c-2-5.16-13.23-23.21-16.3-28.28.58-.28,1.16-.55,1.77-.82a56,56,0,0,0-12.45-14.78C170.77,163.74,172,173.27,175.57,181.59Z"/><path class="cls-5" d="M143.08,135.56c-1.18.49-2.38.94-3.6,1.33q-2.4.78-4.88,1.32c-1.64.38-3.31.66-5,.89s-3.35.4-5,.51c-.84.06-1.68.08-2.53.12l-2.53,0c-1.69,0-3.38,0-5.07-.13s-3.38-.23-5.06-.4-3.36-.38-5-.62l-2.51-.39-.52-.09c-.16,1.22-.38,2.61-.73,4.19.45,1.29,1,2.71,1.56,4.21,8.75,2.4,18.12,1.41,27.06-.31a40.65,40.65,0,0,0,10.89-3.32,19.23,19.23,0,0,0,2.09-1.25A58.12,58.12,0,0,1,143.08,135.56Z"/><path class="cls-5" d="M138.12,321.78c10.76-5.88,17.79-16.66,24.36-27-9.6,1.87-19.54,3.75-29.07,1.54s-18.57-9.65-19.37-19.4c-.65-7.87,4-15.13,8.78-21.43q4.71-6.22,9.83-12.12c2.72-3.12,5.59-6.23,9.27-8.14,5.92-3.07,13-2.6,19.44-4.43l2.48-8.41c7.19-2.45,11.12-6.56,12.89-11.46-4.38.26-8.71,1.47-13.08,2.1-19.66,2.85-40.21-6.31-59.24-.58-3.9,1.17-7.62,2.95-11.58,3.91-4.31,1.05-8.82,1.09-13.14,2.12-.75.18-1.48.39-2.2.61l4.11,23.07c-20.78,25.82-26.24,43-26.24,43l.56.19c-8.6,19.84-8.69,51.88,2.29,90.38,8.62-3.33,14.06-17.13,19.15-25.06a147.36,147.36,0,0,1,11.3-16,22.54,22.54,0,0,1,7-6c4.5-2.22,9.78-1.74,14.8-1.58C119.93,327.49,129.76,326.35,138.12,321.78Z"/><path class="cls-61" d="M61.42,292.43c-2.72-2.34-4.49-3-5.69-4.84S54,276.85,54.32,275.81c.56-2.13,2.28.61,3.21,2.18s3.27,5.63,5.46,5.26,3-1.28,1.81-3.51-2.63-7.17-4.4-9.73S50.14,262,46.61,261.4s-4-2.21-5.43-4.48-3.57-9.12-4-19.52-1.39-15.58-3.32-20.46c-1.61-3.63,8.47-2.09,22.17-14.8,6.86-6.36,10-10,12.95-17C67.24,172.41,58.49,164,51.5,158.1c-8.3,5-45.12,37.67-48.87,46.75S-1.29,228.9,4.9,241.39s17,26.39,20.22,28.56c2.1,8.36,3.75,17.19,7,21s12,10.3,14.2,10.51,3-.32,3-.32,10.57,2,12.32,1.34,1-2.58,1-2.58,2.18.71,2.94-.15a3.2,3.2,0,0,0,.18-3.08C65,295.29,63,293.81,61.42,292.43Z"/><path class="cls-43" d="M62.23,300.49l-8.81-6.26-1.1-.78a8.62,8.62,0,0,1-1.11-.87,14.19,14.19,0,0,1-1.75-2.15,43.17,43.17,0,0,1-2.76-4.68.21.21,0,0,1,.09-.28.22.22,0,0,1,.28.08A40.66,40.66,0,0,0,50,290a13.14,13.14,0,0,0,1.75,2,6.73,6.73,0,0,0,1.05.75l1.14.73L63,299.28a.73.73,0,1,1-.78,1.23Z"/><path class="cls-43" d="M58.45,303.06c-3.27-2-6.53-3.94-9.73-6a16.78,16.78,0,0,1-2.36-1.73c-.71-.66-1.37-1.34-2-2-1.33-1.38-2.61-2.78-3.89-4.19a.2.2,0,0,1,0-.28.2.2,0,0,1,.27,0c1.34,1.35,2.69,2.68,4.07,4,.69.65,1.38,1.3,2.09,1.9a17.29,17.29,0,0,0,2.32,1.54c3.28,1.91,6.63,3.72,10,5.53a.73.73,0,1,1-.69,1.29Z"/><path class="cls-62" d="M50.59,301.27a56,56,0,0,1-6.32-4.38c-2.4-1.95-4.84-4.46-4.84-4.46"/><path class="cls-43" d="M50.23,301.9a57,57,0,0,1-5.82-4.29,64.13,64.13,0,0,1-5.14-5,.23.23,0,0,1,.32-.32A60.21,60.21,0,0,0,45,296.86a54.85,54.85,0,0,0,6,3.78h0a.72.72,0,0,1,.28,1,.73.73,0,0,1-1,.29Z"/><path class="cls-63" d="M34.24,193.47C56.7,171,77,158.5,74.07,152.33c-3.64-7.58-7.4-3.52-14.35-1.65a60,60,0,0,0-10,7.23c.38.23.76.48,1.14.74-9.65,6.38-44.41,37.41-48,46.22-3.54,8.58-3.88,22.42,1.31,34.45C5.83,225.48,11.78,215.91,34.24,193.47Zm27.34-7.34v.06a39.74,39.74,0,0,0-4.9,1.41A40.16,40.16,0,0,1,61.58,186.13ZM42.82,196a47.43,47.43,0,0,0-9.73,12.44C34.19,205.45,36.94,201.5,42.82,196Z"/><path class="cls-18" d="M177.78,92a4.28,4.28,0,0,0-.23-1.13,2.09,2.09,0,0,0-.51-.92.39.39,0,0,0-.6,0,2.62,2.62,0,0,0-.57.87l-2.13,4.4h0l-1.07-.78a4.06,4.06,0,0,1,1.2-.91,1.91,1.91,0,0,1,1.87.15,2.38,2.38,0,0,1,.93,1.48,2.72,2.72,0,0,1-.21,1.64,4.93,4.93,0,0,1-.8,1.23,9,9,0,0,1-1,1,2.25,2.25,0,0,1-3.23.06l0,0h1.06a6.5,6.5,0,0,0-1,1.6,4.75,4.75,0,0,0-.46,1.83,1.71,1.71,0,0,0,.74,1.49,1.06,1.06,0,0,0,1.49-.39h0a.18.18,0,0,1,.22-.08.17.17,0,0,1,.09.2,1.52,1.52,0,0,1-2.06.8,2.4,2.4,0,0,1-1.32-1.94,5.68,5.68,0,0,1,.27-2.27,7.58,7.58,0,0,1,1-2,.64.64,0,0,1,.89-.17l.08.06.1.1h0a.61.61,0,0,0,.54.15,1.47,1.47,0,0,0,.77-.4,5.86,5.86,0,0,0,1.4-1.72,1.44,1.44,0,0,0,.13-.84,1,1,0,0,0-.38-.63.51.51,0,0,0-.55,0,2.93,2.93,0,0,0-.81.63l0,0a.67.67,0,0,1-1-.82h0l2.53-4.24a3.41,3.41,0,0,1,.88-1.08,1.16,1.16,0,0,1,1.6.18,2.84,2.84,0,0,1,.58,1.25,5.06,5.06,0,0,1,.15,1.29.26.26,0,0,1-.26.24A.25.25,0,0,1,177.78,92Z"/></g></g></g></svg>