<svg xmlns="http://www.w3.org/2000/svg" xmlns:xlink="http://www.w3.org/1999/xlink" viewBox="0 0 307.24 366.49"><defs><style>.cls-1,.cls-53,.cls-65,.cls-66,.cls-9{fill:none;}.cls-2{isolation:isolate;}.cls-3{fill:url(#Degradado_sin_nombre_322);}.cls-4{fill:url(#Degradado_sin_nombre_322-2);}.cls-5{fill:url(#Degradado_sin_nombre_322-3);}.cls-6,.cls-61,.cls-68{fill:#5b3e24;}.cls-6{opacity:0.3;}.cls-20,.cls-6,.cls-63,.cls-64,.cls-67,.cls-68,.cls-69,.cls-70{mix-blend-mode:multiply;}.cls-7{fill:url(#Degradado_sin_nombre_322-4);}.cls-8{fill:url(#Degradado_sin_nombre_322-5);}.cls-9{stroke:#878787;stroke-linecap:round;stroke-width:6.41px;}.cls-53,.cls-65,.cls-66,.cls-9{stroke-miterlimit:10;}.cls-10{fill:#878787;}.cls-11{fill:url(#Degradado_sin_nombre_408);}.cls-12{fill:url(#Degradado_sin_nombre_178);}.cls-13{fill:url(#Degradado_sin_nombre_178-2);}.cls-14{fill:url(#Degradado_sin_nombre_178-3);}.cls-15{fill:url(#Degradado_sin_nombre_11);}.cls-16{fill:#575756;}.cls-17{fill:url(#Degradado_sin_nombre_11-2);}.cls-18{fill:url(#Degradado_sin_nombre_404);}.cls-19{fill:url(#Degradado_sin_nombre_322-6);}.cls-20,.cls-69{opacity:0.62;}.cls-20{fill:url(#Degradado_sin_nombre_408-2);}.cls-21{fill:url(#Degradado_sin_nombre_322-7);}.cls-22{fill:url(#Degradado_sin_nombre_406);}.cls-23{fill:url(#Degradado_sin_nombre_406-2);}.cls-24{fill:url(#Degradado_sin_nombre_185);}.cls-25{fill:url(#Degradado_sin_nombre_39);}.cls-26{fill:url(#Degradado_sin_nombre_11-3);}.cls-27{fill:url(#Degradado_sin_nombre_38);}.cls-28{fill:url(#Degradado_sin_nombre_38-2);}.cls-29{fill:url(#Degradado_sin_nombre_11-4);}.cls-30{fill:#7d4e24;}.cls-31{fill:url(#Degradado_sin_nombre_38-3);}.cls-32{fill:url(#Degradado_sin_nombre_202);}.cls-33{fill:url(#Degradado_sin_nombre_202-2);}.cls-34{fill:url(#Degradado_sin_nombre_202-3);}.cls-35{fill:#f6f6f6;}.cls-36{fill:#dadada;}.cls-37{fill:url(#Degradado_sin_nombre_202-4);}.cls-38{fill:url(#Degradado_sin_nombre_202-5);}.cls-39{fill:url(#Degradado_sin_nombre_202-6);}.cls-40{fill:url(#Degradado_sin_nombre_202-7);}.cls-41{fill:url(#Degradado_sin_nombre_394);}.cls-42{fill:url(#Degradado_sin_nombre_20);}.cls-43{fill:url(#Degradado_sin_nombre_397);}.cls-44{fill:url(#Degradado_sin_nombre_11-5);}.cls-45{fill:#ededed;}.cls-46{fill:url(#Degradado_sin_nombre_398);}.cls-47{fill:url(#Degradado_sin_nombre_185-2);}.cls-48{fill:url(#Degradado_sin_nombre_405);}.cls-49{clip-path:url(#clip-path);}.cls-50{fill:url(#Degradado_sin_nombre_27);}.cls-51{fill:#3c3c3b;}.cls-52{fill:url(#Degradado_sin_nombre_40);}.cls-53{stroke:#3c3c3b;stroke-width:1.65px;}.cls-54{fill:url(#Degradado_sin_nombre_11-6);}.cls-55{fill:url(#Degradado_sin_nombre_163);}.cls-56{fill:url(#Degradado_sin_nombre_406-3);}.cls-57{fill:url(#Degradado_sin_nombre_406-4);}.cls-58{fill:url(#Degradado_sin_nombre_164);}.cls-59{fill:url(#Degradado_sin_nombre_164-2);}.cls-60{fill:url(#Degradado_sin_nombre_2);}.cls-61{opacity:0.6;mix-blend-mode:overlay;}.cls-62{fill:url(#Degradado_sin_nombre_394-2);}.cls-63,.cls-64,.cls-67{opacity:0.43;}.cls-63{fill:url(#Degradado_sin_nombre_1303);}.cls-64{fill:url(#Degradado_sin_nombre_1303-2);}.cls-65,.cls-66{stroke-width:1.11px;}.cls-65{stroke:url(#Degradado_sin_nombre_164-3);}.cls-66{stroke:url(#Degradado_sin_nombre_164-4);}.cls-67{fill:url(#Degradado_sin_nombre_1303-3);}.cls-68{opacity:0.11;}.cls-69{fill:url(#Degradado_sin_nombre_408-3);}.cls-70{fill:url(#Degradado_sin_nombre_404-2);}.cls-71{fill:url(#Degradado_sin_nombre_322-8);}.cls-72{fill:url(#Degradado_sin_nombre_322-9);}.cls-73{fill:url(#Degradado_sin_nombre_322-10);}.cls-74{fill:url(#Degradado_sin_nombre_322-11);}</style><linearGradient id="Degradado_sin_nombre_322" x1="5.31" y1="377.71" x2="3.49" y2="390.02" gradientTransform="translate(156.76 -40.46) rotate(21.43)" gradientUnits="userSpaceOnUse"><stop offset="0" stop-color="#d9d9d9"/><stop offset="0.5" stop-color="#f6faf5"/><stop offset="1" stop-color="#f5f5f5"/></linearGradient><linearGradient id="Degradado_sin_nombre_322-2" x1="28.63" y1="340.16" x2="72.14" y2="296.27" gradientTransform="translate(29.98 -16.77) rotate(4.58)" xlink:href="#Degradado_sin_nombre_322"/><linearGradient id="Degradado_sin_nombre_322-3" x1="11.48" y1="406.24" x2="11.48" y2="367.85" xlink:href="#Degradado_sin_nombre_322"/><linearGradient id="Degradado_sin_nombre_322-4" x1="46.32" y1="364.64" x2="44.26" y2="378.51" gradientTransform="matrix(0.96, 0.29, -0.29, 0.96, 124.48, -33.75)" xlink:href="#Degradado_sin_nombre_322"/><linearGradient id="Degradado_sin_nombre_322-5" x1="72.73" y1="340.91" x2="121.74" y2="291.47" gradientTransform="matrix(1, 0, 0, 1, 0, 0)" xlink:href="#Degradado_sin_nombre_322"/><linearGradient id="Degradado_sin_nombre_408" x1="272.95" y1="194.81" x2="281.82" y2="157.18" gradientUnits="userSpaceOnUse"><stop offset="0" stop-color="#267ab4"/><stop offset="0.27" stop-color="#297cb4"/><stop offset="0.49" stop-color="#3382b3"/><stop offset="0.69" stop-color="#448cb1"/><stop offset="0.81" stop-color="#5294af"/></linearGradient><linearGradient id="Degradado_sin_nombre_178" x1="290.28" y1="231.92" x2="283.18" y2="247.34" gradientUnits="userSpaceOnUse"><stop offset="0.4" stop-color="#5294af"/><stop offset="1" stop-color="#267ab4"/></linearGradient><linearGradient id="Degradado_sin_nombre_178-2" x1="182.54" y1="239.46" x2="294.42" y2="239.46" xlink:href="#Degradado_sin_nombre_178"/><linearGradient id="Degradado_sin_nombre_178-3" x1="237.07" y1="235.54" x2="227.81" y2="255.65" xlink:href="#Degradado_sin_nombre_178"/><linearGradient id="Degradado_sin_nombre_11" x1="252.99" y1="324.96" x2="239.51" y2="302.75" gradientUnits="userSpaceOnUse"><stop offset="0" stop-color="#f8b37f"/><stop offset="0.38" stop-color="#f5af7c"/><stop offset="0.75" stop-color="#eea471"/><stop offset="1" stop-color="#e59765"/></linearGradient><linearGradient id="Degradado_sin_nombre_11-2" x1="222.31" y1="320.87" x2="210.02" y2="300.61" xlink:href="#Degradado_sin_nombre_11"/><linearGradient id="Degradado_sin_nombre_404" x1="222.52" y1="267.43" x2="237.78" y2="205.25" gradientUnits="userSpaceOnUse"><stop offset="0" stop-color="#d0cfc7"/><stop offset="0.75" stop-color="#cbbba0"/></linearGradient><linearGradient id="Degradado_sin_nombre_322-6" x1="36.68" y1="272.06" x2="145.7" y2="275.78" gradientTransform="matrix(1, 0, 0, 1, 0, 0)" xlink:href="#Degradado_sin_nombre_322"/><linearGradient id="Degradado_sin_nombre_408-2" x1="262.5" y1="265.57" x2="271.8" y2="226.1" xlink:href="#Degradado_sin_nombre_408"/><linearGradient id="Degradado_sin_nombre_322-7" x1="38.91" y1="270.34" x2="149.15" y2="274.1" gradientTransform="matrix(1, 0, 0, 1, 0, 0)" xlink:href="#Degradado_sin_nombre_322"/><linearGradient id="Degradado_sin_nombre_406" x1="96.54" y1="175.6" x2="153.46" y2="175.6" gradientUnits="userSpaceOnUse"><stop offset="0" stop-color="#dfd0d8"/><stop offset="0.44" stop-color="#f6faf5"/><stop offset="0.64" stop-color="#eff1ee"/><stop offset="1" stop-color="#e5e5e5"/></linearGradient><linearGradient id="Degradado_sin_nombre_406-2" x1="139.56" y1="200.77" x2="162.57" y2="200.77" xlink:href="#Degradado_sin_nombre_406"/><linearGradient id="Degradado_sin_nombre_185" x1="-331.8" y1="-195.21" x2="-295.54" y2="-215.43" gradientTransform="translate(460.92 215.13) rotate(-19.09)" gradientUnits="userSpaceOnUse"><stop offset="0" stop-color="#fbd4ad"/><stop offset="0.04" stop-color="#fbd2ab"/><stop offset="0.65" stop-color="#f8c096"/><stop offset="0.94" stop-color="#f5ab88"/><stop offset="1" stop-color="#f4a684"/></linearGradient><linearGradient id="Degradado_sin_nombre_39" x1="-185.78" y1="47.77" x2="-223.84" y2="-52.87" gradientTransform="translate(261.14 148.93) rotate(-11.28)" gradientUnits="userSpaceOnUse"><stop offset="0.14" stop-color="#3f3f72"/><stop offset="1" stop-color="#1a5272"/></linearGradient><linearGradient id="Degradado_sin_nombre_11-3" x1="203.1" y1="191.7" x2="227.97" y2="191.7" xlink:href="#Degradado_sin_nombre_11"/><linearGradient id="Degradado_sin_nombre_38" x1="204.55" y1="162.55" x2="226.72" y2="162.55" gradientUnits="userSpaceOnUse"><stop offset="0.21" stop-color="#b17f4a"/><stop offset="1" stop-color="#775b44"/></linearGradient><linearGradient id="Degradado_sin_nombre_38-2" x1="244.13" y1="224.84" x2="244.13" y2="139.64" xlink:href="#Degradado_sin_nombre_38"/><linearGradient id="Degradado_sin_nombre_11-4" x1="235.48" y1="146.99" x2="239.44" y2="131.87" xlink:href="#Degradado_sin_nombre_11"/><linearGradient id="Degradado_sin_nombre_38-3" x1="252.92" y1="162.98" x2="283.15" y2="162.98" xlink:href="#Degradado_sin_nombre_38"/><linearGradient id="Degradado_sin_nombre_202" x1="-211.71" y1="-134.84" x2="-298.72" y2="-130.71" gradientTransform="translate(488.1 223.85) rotate(-20.07)" gradientUnits="userSpaceOnUse"><stop offset="0.27" stop-color="#fbd4ad"/><stop offset="0.31" stop-color="#fbd2ab"/><stop offset="0.82" stop-color="#f8c096"/><stop offset="0.97" stop-color="#f5ab88"/><stop offset="1" stop-color="#f4a684"/></linearGradient><linearGradient id="Degradado_sin_nombre_202-2" x1="-73.09" y1="0.6" x2="-160.1" y2="4.73" gradientTransform="translate(310.13 169.18) rotate(-13.14)" xlink:href="#Degradado_sin_nombre_202"/><linearGradient id="Degradado_sin_nombre_202-3" x1="-73.2" y1="-1.69" x2="-160.21" y2="2.44" gradientTransform="translate(310.13 169.18) rotate(-13.14)" xlink:href="#Degradado_sin_nombre_202"/><linearGradient id="Degradado_sin_nombre_202-4" x1="-73.32" y1="-4.26" x2="-160.33" y2="-0.13" gradientTransform="translate(310.13 169.18) rotate(-13.14)" xlink:href="#Degradado_sin_nombre_202"/><linearGradient id="Degradado_sin_nombre_202-5" x1="-73.15" y1="-0.64" x2="-160.16" y2="3.5" gradientTransform="translate(310.13 169.18) rotate(-13.14)" xlink:href="#Degradado_sin_nombre_202"/><linearGradient id="Degradado_sin_nombre_202-6" x1="-73.01" y1="2.32" x2="-160.02" y2="6.45" gradientTransform="translate(310.13 169.18) rotate(-13.14)" xlink:href="#Degradado_sin_nombre_202"/><linearGradient id="Degradado_sin_nombre_202-7" x1="-72.86" y1="5.5" x2="-159.87" y2="9.63" gradientTransform="translate(310.13 169.18) rotate(-13.14)" xlink:href="#Degradado_sin_nombre_202"/><linearGradient id="Degradado_sin_nombre_394" x1="204.9" y1="117.23" x2="258.5" y2="80.02" gradientUnits="userSpaceOnUse"><stop offset="0.25" stop-color="#fff"/><stop offset="0.44" stop-color="#fbfbfb"/><stop offset="0.65" stop-color="#f0f0ed"/><stop offset="0.87" stop-color="#deddd8"/><stop offset="1" stop-color="#d0cfc7"/></linearGradient><linearGradient id="Degradado_sin_nombre_20" x1="179.18" y1="89.83" x2="281.6" y2="89.83" gradientUnits="userSpaceOnUse"><stop offset="0" stop-color="#f8b37f"/><stop offset="0.28" stop-color="#f6af7e"/><stop offset="0.54" stop-color="#f1a47b"/><stop offset="0.79" stop-color="#e89176"/><stop offset="0.86" stop-color="#e58a74"/></linearGradient><linearGradient id="Degradado_sin_nombre_397" x1="256.45" y1="55.79" x2="263.45" y2="77.25" gradientUnits="userSpaceOnUse"><stop offset="0" stop-color="#fff"/><stop offset="0.22" stop-color="#ebebe8"/><stop offset="0.46" stop-color="#dcdbd5"/><stop offset="0.72" stop-color="#d3d2cb"/><stop offset="1" stop-color="#d0cfc7"/></linearGradient><linearGradient id="Degradado_sin_nombre_11-5" x1="209.4" y1="97.63" x2="218.44" y2="118.16" xlink:href="#Degradado_sin_nombre_11"/><linearGradient id="Degradado_sin_nombre_398" x1="175.33" y1="74.64" x2="228.92" y2="37.43" gradientUnits="userSpaceOnUse"><stop offset="0" stop-color="#d0cfc7"/><stop offset="0.25" stop-color="#fff"/><stop offset="0.44" stop-color="#fbfbfb"/><stop offset="0.65" stop-color="#f0f0ed"/><stop offset="0.87" stop-color="#deddd8"/><stop offset="1" stop-color="#d0cfc7"/></linearGradient><linearGradient id="Degradado_sin_nombre_185-2" x1="-85.9" y1="-48.09" x2="-120.32" y2="-139.11" gradientTransform="translate(258.31 137.43) rotate(-11.04)" xlink:href="#Degradado_sin_nombre_185"/><linearGradient id="Degradado_sin_nombre_405" x1="94.94" y1="65.3" x2="137.08" y2="19.37" gradientUnits="userSpaceOnUse"><stop offset="0.47" stop-color="#775347"/><stop offset="1" stop-color="#92634e"/></linearGradient><clipPath id="clip-path"><path class="cls-1" d="M180.59,69c7.56-16,27.28-23.27,44.66-26.49A47.24,47.24,0,0,1,241.33,42,35.21,35.21,0,0,1,269.56,69.5c-.44-2.72,2.18-5.34,4.94-5.38a6.9,6.9,0,0,1,6.21,4.67c2.93,8-1.86,17.47-7.77,21.95.51,7.74-3,15.34-8,21.24s-11.53,10.37-18.05,14.57c-6.81,4.4-13.82,8.65-21.55,11.11-1.61.52-3.57.88-4.83-.25-3.74-3.36-8.65-5.08-13.51-6.4s-9.85-2.33-14.34-4.6-8.52-6.07-9.65-11,1.5-10.79,6.37-12C184.27,97.9,175.81,79.11,180.59,69Z"/></clipPath><radialGradient id="Degradado_sin_nombre_27" cx="187.56" cy="-4.74" r="17.21" gradientTransform="translate(-31.02 122.1) scale(1.17 1.17)" gradientUnits="userSpaceOnUse"><stop offset="0.14" stop-color="#e58a74"/><stop offset="0.25" stop-color="#e58b74" stop-opacity="0.98"/><stop offset="0.36" stop-color="#e68d75" stop-opacity="0.93"/><stop offset="0.48" stop-color="#e89176" stop-opacity="0.84"/><stop offset="0.59" stop-color="#eb9677" stop-opacity="0.71"/><stop offset="0.71" stop-color="#ee9d79" stop-opacity="0.54"/><stop offset="0.83" stop-color="#f1a57b" stop-opacity="0.34"/><stop offset="0.95" stop-color="#f6af7e" stop-opacity="0.11"/><stop offset="1" stop-color="#f8b37f" stop-opacity="0"/></radialGradient><linearGradient id="Degradado_sin_nombre_40" x1="208.62" y1="101.46" x2="216.08" y2="101.46" gradientUnits="userSpaceOnUse"><stop offset="0.14" stop-color="#e58a74"/><stop offset="0.39" stop-color="#e89076"/><stop offset="0.72" stop-color="#efa07a"/><stop offset="1" stop-color="#f8b37f"/></linearGradient><linearGradient id="Degradado_sin_nombre_11-6" x1="224.35" y1="181.29" x2="274.13" y2="181.29" xlink:href="#Degradado_sin_nombre_11"/><linearGradient id="Degradado_sin_nombre_163" x1="213.22" y1="189.33" x2="224.35" y2="189.33" gradientUnits="userSpaceOnUse"><stop offset="0" stop-color="#e59765"/><stop offset="0.25" stop-color="#eea471"/><stop offset="0.62" stop-color="#f5af7c"/><stop offset="1" stop-color="#f8b37f"/></linearGradient><linearGradient id="Degradado_sin_nombre_406-3" x1="62.87" y1="186.22" x2="133.04" y2="186.22" xlink:href="#Degradado_sin_nombre_406"/><linearGradient id="Degradado_sin_nombre_406-4" x1="109.34" y1="218.46" x2="140.66" y2="218.46" xlink:href="#Degradado_sin_nombre_406"/><linearGradient id="Degradado_sin_nombre_164" x1="29.01" y1="121.11" x2="-70.9" y2="77.78" gradientTransform="translate(183.97 115.06) rotate(-8.05)" gradientUnits="userSpaceOnUse"><stop offset="0" stop-color="#fbd4ad"/><stop offset="0.06" stop-color="#fbd2ab"/><stop offset="0.82" stop-color="#f8c096"/><stop offset="0.97" stop-color="#f5ab88"/><stop offset="1" stop-color="#f4a684"/></linearGradient><linearGradient id="Degradado_sin_nombre_164-2" x1="23" y1="133.13" x2="-74.91" y2="90.67" xlink:href="#Degradado_sin_nombre_164"/><radialGradient id="Degradado_sin_nombre_2" cx="137.46" cy="81.38" r="22.77" gradientUnits="userSpaceOnUse"><stop offset="0" stop-color="#f4a684"/><stop offset="0.12" stop-color="#f5aa88" stop-opacity="0.91"/><stop offset="0.36" stop-color="#f6b491" stop-opacity="0.69"/><stop offset="0.71" stop-color="#f9c5a0" stop-opacity="0.33"/><stop offset="1" stop-color="#fbd4ad" stop-opacity="0"/></radialGradient><linearGradient id="Degradado_sin_nombre_394-2" x1="191.47" y1="97.88" x2="245.06" y2="60.67" xlink:href="#Degradado_sin_nombre_394"/><linearGradient id="Degradado_sin_nombre_1303" x1="73.01" y1="88.72" x2="162.35" y2="88.72" gradientUnits="userSpaceOnUse"><stop offset="0.17" stop-color="#f5ad9f"/><stop offset="0.51" stop-color="#f5aea0"/><stop offset="0.85" stop-color="#f5ad9f"/><stop offset="0.91" stop-color="#f2a295"/><stop offset="1" stop-color="#ea897d"/></linearGradient><linearGradient id="Degradado_sin_nombre_1303-2" x1="145.93" y1="202.36" x2="218.29" y2="202.36" xlink:href="#Degradado_sin_nombre_1303"/><linearGradient id="Degradado_sin_nombre_164-3" x1="228.73" y1="229.66" x2="227.69" y2="229.21" gradientTransform="matrix(1, 0, 0, 1, 0, 0)" xlink:href="#Degradado_sin_nombre_164"/><linearGradient id="Degradado_sin_nombre_164-4" x1="222.21" y1="247.16" x2="128.12" y2="206.36" gradientTransform="matrix(1, 0, 0, 1, 0, 0)" xlink:href="#Degradado_sin_nombre_164"/><linearGradient id="Degradado_sin_nombre_1303-3" x1="119.13" y1="230.16" x2="217.93" y2="230.16" xlink:href="#Degradado_sin_nombre_1303"/><linearGradient id="Degradado_sin_nombre_408-3" x1="283.33" y1="197.25" x2="292.19" y2="159.62" xlink:href="#Degradado_sin_nombre_408"/><linearGradient id="Degradado_sin_nombre_404-2" x1="237.96" y1="271.22" x2="253.21" y2="209.04" xlink:href="#Degradado_sin_nombre_404"/><linearGradient id="Degradado_sin_nombre_322-8" x1="53.27" y1="396.79" x2="53.27" y2="353.54" gradientTransform="matrix(0.96, 0.29, -0.29, 0.96, 124.48, -33.75)" xlink:href="#Degradado_sin_nombre_322"/><linearGradient id="Degradado_sin_nombre_322-9" x1="45.73" y1="365.74" x2="43.67" y2="379.61" gradientTransform="matrix(0.96, 0.29, -0.29, 0.96, 124.48, -33.75)" xlink:href="#Degradado_sin_nombre_322"/><linearGradient id="Degradado_sin_nombre_322-10" x1="71.86" y1="341.79" x2="120.86" y2="292.35" gradientTransform="matrix(1, 0, 0, 1, 0, 0)" xlink:href="#Degradado_sin_nombre_322"/><linearGradient id="Degradado_sin_nombre_322-11" x1="52.68" y1="397.88" x2="52.68" y2="354.64" gradientTransform="matrix(0.96, 0.29, -0.29, 0.96, 124.48, -33.75)" xlink:href="#Degradado_sin_nombre_322"/></defs><g class="cls-2"><g id="Capa_2" data-name="Capa 2"><g id="Capa_1-2" data-name="Capa 1"><path class="cls-3" d="M7,317.28c6.76,4.82,13.55,9.66,21,13.3l4.07-12.27a36.89,36.89,0,0,1-6.14-4.39c-1.41-1.23-2.91-3.83-4.92-3.6-2.19.25-5.05,2.41-7,3.39C13.22,314.09,7.45,317.61,7,317.28Z"/><path class="cls-4" d="M113.22,275.49c-.19,4.75-1.1,12.49-5.49,16.83-19,18.78-70.29,29.49-70.29,29.49s-19.14-3.37-22.19-12.55l3.42-3.95s-2.31-3.07,1.78-4.22c0,0,48.59-22.4,65.61-24.31S113.22,275.49,113.22,275.49Z"/><path class="cls-5" d="M14,313.68c1.05,1.41,9,9,13.13,11,.77.38,2.23.13,2.67.86.19.34-.35,1.37-.19,1.73,1.39,3.21,10,6.14,12.33,8.78,1.54,1.76,1.57,4.34,1.52,6.68,0,1.21,0,2.64-.94,3.41-2.35,1.94-16.76-.1-19.24-1.06C17.91,343,5.55,333.53,1.22,328.57c-2-2.25-1.22-3.36-.1-5.28s5.67-6.6,7.13-8.14c.88-.93,1.58-3.1,2.5-3.74C12.06,310.5,13.25,312.64,14,313.68Z"/><path class="cls-6" d="M113.22,275.49s-10.13-.62-27.16,1.29-65.61,24.31-65.61,24.31c-4.09,1.15-1.78,4.22-1.78,4.22l-3.42,3.95a9.72,9.72,0,0,0,1.56,2.83c-1,.59-2,1.19-2.78,1.6h0c-.77-1-2-3.18-3.27-2.27-.92.64-1.62,2.81-2.5,3.74-1.46,1.54-6,6.22-7.13,8.14s-1.86,3,.1,5.28c4.33,5,16.69,14.45,22.08,16.53,2.48,1,16.89,3,19.24,1.06.94-.77.91-2.2.94-3.41.05-2.34,0-4.92-1.52-6.68-2.29-2.64-10.94-5.57-12.33-8.78-.16-.36.38-1.39.19-1.73l-.12-.13c.56-1.71,1.13-3.41,1.69-5.12a58.77,58.77,0,0,0,6,1.5s51.24-10.71,70.29-29.49C112.12,288,113,280.24,113.22,275.49Z"/><path class="cls-7" d="M44.75,334.9c8,4.8,16.08,9.62,24.77,13L73,333.8a42.37,42.37,0,0,1-7.28-4.38c-1.7-1.26-3.62-4-5.85-3.6-2.43.48-5.45,3.16-7.57,4.44C51.46,330.76,45.3,335.22,44.75,334.9Z"/><path class="cls-8" d="M160.26,278.41c.21,5.35-.11,14.12-4.66,19.39-19.69,22.8-76.26,39.44-76.26,39.44s-21.79-2.06-26-12.09l3.48-4.74s-2.87-3.24,1.62-4.91c0,0,52.53-29.51,71.48-33.19S160.26,278.41,160.26,278.41Z"/><line class="cls-9" x1="289.83" y1="239.46" x2="286.01" y2="306.55"/><line class="cls-9" x1="268.04" y1="261.84" x2="263.33" y2="322.74"/><path class="cls-10" d="M305,179.37,291.7,239.83a1.91,1.91,0,0,1-3.74-.75l10.78-61a3.2,3.2,0,1,1,6.31,1.11Z"/><path class="cls-11" d="M246.4,184.69A47.18,47.18,0,0,1,250,165.78a11.49,11.49,0,0,1,9.83-8.12c7.45-1.71,15.21-1.62,22.81-.79,5.23.57,10.53,1.53,15.14,4.07s8.47,6.89,9.27,12.09a21.72,21.72,0,0,1-.35,7.14,57.77,57.77,0,0,1-5,15.08,16.9,16.9,0,0,1-3.1,4.67c-2.53,2.48-6.26,3.4-9.8,3.25a39,39,0,0,1-10.32-2.35L263.72,196c-1.42-.46-3.1-1.24-3.18-2.73Z"/><path class="cls-12" d="M271.17,263.94c12.54-5.71,20.28-20.33,21.59-23.4a28.45,28.45,0,0,0,1.66-9.35L275.8,249.35Z"/><path class="cls-13" d="M279.88,251.81s11.11-11.75,14.54-20.62c0,0-13.93-7.37-54.47-7.37l-57.41,31.27Z"/><path class="cls-14" d="M179.18,252A49.38,49.38,0,0,0,183,262.46a4.77,4.77,0,0,0,2,2.38,7.57,7.57,0,0,0,2.36.58c23.91,3.24,48.56,5.58,72.36,1.88,4-.63,8.11-1.47,11.4-3.36,3.69-2.12,6.14-7.09,8.71-12.13C239.42,246.14,179.18,252,179.18,252Z"/><path class="cls-15" d="M219.77,284.93c12.75,24.36,29.55,35.71,30.64,37,0,0-1.68,1.51-6.82,7.25,0,0-4.55,1.09-6.9,4.54,0,0,5.09,5.07,14.52,2.17s10.8-3.81,12.8-5.62-5.08-9.61-5.08-9.61-.73-22.28-6.53-32.25S225.21,273.68,219.77,284.93Z"/><path class="cls-16" d="M251.21,335.87c9.42-2.9,10.8-3.81,12.8-5.62,1.13-1-.65-4-2.4-6.33a26,26,0,0,0-2.38,1.93,13.56,13.56,0,0,1-2.64,2.16,10.39,10.39,0,0,1-2.5.85c-2.5.61-5,1.13-7.53,1.65a1.58,1.58,0,0,1-.61.05,7.21,7.21,0,0,1-2.34-1.42l0,0s-4.55,1.09-6.9,4.54C236.69,333.7,241.78,338.77,251.21,335.87Z"/><path class="cls-17" d="M192,284.35A104.15,104.15,0,0,0,220,318.08s-1.53,1.38-6.22,6.62c0,0-4.15,1-6.29,4.13,0,0,4.64,4.63,13.24,2s9.85-3.48,11.67-5.13-4.63-8.76-4.63-8.76-.67-20.33-6-29.42S197,274.1,192,284.35Z"/><path class="cls-16" d="M220.69,330.82c8.59-2.65,9.85-3.48,11.67-5.13,1-.94-.59-3.62-2.19-5.77a24.18,24.18,0,0,0-2.17,1.76,12.48,12.48,0,0,1-2.4,2,9.17,9.17,0,0,1-2.28.78c-2.28.55-4.57,1-6.87,1.51a1.5,1.5,0,0,1-.56,0,6.65,6.65,0,0,1-2.13-1.29l0,0s-4.15,1-6.29,4.13C207.45,328.83,212.09,333.46,220.69,330.82Z"/><path class="cls-18" d="M268.57,242.74c10.39-6.7,19.2-18,7.47-35.24l-67.42,15.43s-15.09-.07-21,10.19h0c-2.76,4.13-7.54,11.06-8.91,14.87-1.88,5.25-2.76,11-1.54,16.44a44.41,44.41,0,0,0,4,9.86q3.94,7.92,7.88,15.85a21.07,21.07,0,0,0,3.82,5.9,15.1,15.1,0,0,0,6.4,3.44c4.84,1.43,42.48,3.44,54.08-5.44,3.95-3.68,6.11-7.49,4-14-2.29-7.06-9-16.81-9-19,0-2.5,2.16-4.88,5.46-8.2C257.26,249.28,262.79,246.57,268.57,242.74Z"/><path class="cls-19" d="M84.74,250.17c25,6.65,75.82,22.59,75.52,28.24S134.4,302.59,85.2,296.63s-45.9-18.22-45.9-18.22Z"/><path class="cls-20" d="M286,228.59a1.94,1.94,0,0,1,0-.24c-1.41-.36-3-.73-4.86-1.1-1.59,6.71-6.83,11.8-12.55,15.49s-11.31,6.54-14.82,10c-3.3,3.32-5.46,5.7-5.46,8.2,0,1.07,1.58,3.91,3.47,7.34,1.08-.11,2.15-.23,3.23-.36a21.19,21.19,0,0,1,.5-2.45,15,15,0,0,1,3.95-6.36c3.27-3.1,7.76-4.54,11.54-7a36.93,36.93,0,0,0,6.14-5.31C282,241.82,286.32,235.54,286,228.59Z"/><path class="cls-21" d="M16.27,253.59s-3.41,25,10,31.81,59,11.23,59,11.23L121.37,282,82.05,247.1Z"/><path class="cls-22" d="M143,215.39c-5.87-1.52-10.62-6.47-17.26-13.53s-29.05-30-29.22-38.41,13-34.56,23.65-25.92S153.46,186,153.46,186Z"/><path class="cls-23" d="M141.05,197.17c2.07-6.62,5.41-9.51,11-13.67,2.06-.36,6.16,3.5,9.45,6.11a2.75,2.75,0,0,1,1,1.16,2.71,2.71,0,0,1,.06,1.1c-.43,4.76-.45,9.76-1.3,14.45-.62,3.37-4.4,6.63-6.81,9s-4.73,2.84-7.92,2.72c-2.28-.09-4.8.35-5.67-1.82a22,22,0,0,1-1.13-6A34,34,0,0,1,141.05,197.17Z"/><path class="cls-24" d="M74.07,111S86.09,99,96.74,93l28.76,16.27-10.85,19.88,1.92,11.73Z"/><path class="cls-25" d="M114.65,129.13c-1.66,14.84-22-25-37.73-23.32a29.92,29.92,0,0,0-3.49.59c-23,5.34-50.13,58.49-58.64,87.58-4.91,16.79-.85,41.76.19,49.86,0,0-4.7,4-4.64,8.09s12.18,7.13,31.2,7.09,46.62-7.24,46.62-12.27S80.6,244,80.6,244s3.38-1.87,3.3-3.51-4.1-.48-4.1-.48a15.92,15.92,0,0,0,10.56-6.83c3.66-5.11,6.1-14.88,5-24.47,0,0,21.24-23.25,23.07-39.69C120.67,148.61,118.05,137.61,114.65,129.13Z"/><path class="cls-26" d="M206.18,177.55c-.54,0-.33-.88,0-1.25a26.49,26.49,0,0,1,8.91-5.69,4.15,4.15,0,0,1,2.9-.32,4.29,4.29,0,0,1,1.71,1.43,46.84,46.84,0,0,1,5.76,8.85c1.63,3.27,2.89,6.91,2.32,10.51-.82,5.12-23.26,23.13-23.78,22.15C201,207.5,206.18,177.55,206.18,177.55Z"/><path class="cls-27" d="M210.08,140.13c-5,4.66-5.53,41.16-5.53,41.16s1.59,6.87,9.93,4,12.24-13.05,12.24-13.05S218.65,132.13,210.08,140.13Z"/><path class="cls-28" d="M244.6,114.69c13.37-1,39.63,13.48,42.75,22.12s-4.5,60.57-11.31,70.69-29.26,22.8-57.72,22-5.9-40.36-5.9-40.36-8.13,3.37-11.63-1.69,9.29-28.67,9.29-28.67-1.49-13.55,0-18.61C211.42,135.59,231.57,115.66,244.6,114.69Z"/><path class="cls-29" d="M230.3,144.57c5.2-.51,9.44-4.2,13.31-7.71a50.58,50.58,0,0,0,7.61-8,6.32,6.32,0,0,0,1.47-4,6.51,6.51,0,0,0-.95-2.52,35.11,35.11,0,0,0-4.06-5.7c-2.9,4.25-7.11,7.4-11.24,10.47l-5,3.71c-1,.71-4,2.26-4.25,3.43-.16.86,2,3.67,2.33,4.69A15.28,15.28,0,0,1,230.3,144.57Z"/><path class="cls-30" d="M229.62,117.55a1,1,0,0,1,.36.79,2.06,2.06,0,0,1-.15.82,2.44,2.44,0,0,1-1,1.3,9.08,9.08,0,0,0,.49-1.44c.05-.24.07-.48.12-.71a5.1,5.1,0,0,0,.11-.73Z"/><path class="cls-16" d="M274.56,174.51a141.13,141.13,0,0,1-7.67,23.12,100.87,100.87,0,0,1-5.51,10.94,66.33,66.33,0,0,1-7.15,10.11,39.24,39.24,0,0,1-9.6,8.22,26.83,26.83,0,0,1-12.4,3.82,30.16,30.16,0,0,1-12.75-2.35,50.89,50.89,0,0,1-11-6.32l3.2-4.16a46.6,46.6,0,0,0,9.68,6,25.41,25.41,0,0,0,10.73,2.36,22.51,22.51,0,0,0,10.54-2.89,35.58,35.58,0,0,0,8.89-7.14,63.26,63.26,0,0,0,7.08-9.35,97.37,97.37,0,0,0,5.69-10.44,137.4,137.4,0,0,0,8.27-22.4Z"/><path class="cls-31" d="M272.44,137.93c-6.76,7.46-17,26.7-18.94,31.86s1.07,16.36,8.39,19.16S280.4,178.4,280,175.17s4.09-25.83,3-30.35S276.16,133.82,272.44,137.93Z"/><path class="cls-16" d="M281.74,160.35c-2.12-2.27-5.42-5.66-9.39-7.18-4.38-1.67-9.4,1.69-12.32,3.57a122,122,0,0,0-6.53,13c-1.94,5.17,1.07,16.36,8.39,19.16S280.4,178.4,280,175.17C279.76,173.55,280.79,167,281.74,160.35Z"/><ellipse class="cls-16" cx="214" cy="220.71" rx="13.2" ry="16" transform="translate(-55.25 369.09) rotate(-74.74)"/><path class="cls-32" d="M214.38,187.06s-43.22-3-56,.28-13.8,22.85-11.51,26.09c5.22,7.37,71.4-15,71.4-15Z"/><path class="cls-33" d="M220.68,199.28c1.61,0,10.09-3.79,10.29-4.89s.75-11.84-1.28-12.3-10.71,2.3-10.71,2.3Z"/><path class="cls-34" d="M214.38,187.06s3.06-6.14,5.48-7.51,5.89-.58,5.89-.58a20.64,20.64,0,0,0,3.78,0c1.74-.19,2.5.92,2,2.08s-2.76,2-2.76,2-4-.23-4.67,1.69c1.15.25,2.16,1,1.64,4.65s-1.07,3.32-2,6.3-2.87,4.67-5.51,2.66Z"/><path class="cls-35" d="M85.8,100.59c-1-3.54-12.44,9.19-12.44,9.19s25.54,33.13,39.4,33.89l2.13-8.88,3.31,6.79s-.12-11.17-2.78-13.86l-.77,1.41s-.39,1.78-1.39,2C110.81,131.54,89.11,112.42,85.8,100.59Z"/><path class="cls-30" d="M153,89.35a4.49,4.49,0,0,1-.8,4,2.88,2.88,0,0,1-2.06,1,2.47,2.47,0,0,1-2-.84A10.42,10.42,0,0,0,150,93a3.93,3.93,0,0,0,1.15-.75A15.6,15.6,0,0,0,153,89.35Z"/><circle class="cls-36" cx="226.72" cy="187.65" r="4.96"/><circle class="cls-35" cx="227.39" cy="188.44" r="4.96"/><path class="cls-37" d="M230.82,184.2a2.54,2.54,0,0,1,.28-2.53,2.12,2.12,0,0,1,.87-.73,1.31,1.31,0,0,1,1.11.05,1.74,1.74,0,0,1,.74,1.29,3.54,3.54,0,0,1-.33,2.2,2.6,2.6,0,0,1-1.74,1.33,3.13,3.13,0,0,1-1.78-.26,1.74,1.74,0,0,1-.93-.73,1.66,1.66,0,0,1,.23-1.57,3.9,3.9,0,0,1,2-1.62"/><path class="cls-38" d="M232.09,187.61a2.51,2.51,0,0,1,.27-2.53,2,2,0,0,1,.87-.72,1.3,1.3,0,0,1,1.11,0,1.74,1.74,0,0,1,.74,1.3,3.49,3.49,0,0,1-.33,2.2,2.59,2.59,0,0,1-1.74,1.32,3.12,3.12,0,0,1-1.78-.25,1.84,1.84,0,0,1-.93-.73,1.66,1.66,0,0,1,.23-1.57,3.92,3.92,0,0,1,2-1.62"/><path class="cls-39" d="M232.06,190.7a2.49,2.49,0,0,1,.28-2.53,2.06,2.06,0,0,1,.87-.73,1.34,1.34,0,0,1,1.11,0,1.78,1.78,0,0,1,.73,1.3,3.54,3.54,0,0,1-.32,2.2,2.6,2.6,0,0,1-1.74,1.33,3.16,3.16,0,0,1-1.79-.26,1.72,1.72,0,0,1-.92-.73,1.64,1.64,0,0,1,.23-1.57,3.9,3.9,0,0,1,2-1.62"/><path class="cls-40" d="M231.5,194.17a2.54,2.54,0,0,1,.28-2.53,1.93,1.93,0,0,1,.87-.73,1.34,1.34,0,0,1,1.11,0,1.76,1.76,0,0,1,.74,1.3,3.54,3.54,0,0,1-.33,2.2,2.6,2.6,0,0,1-1.74,1.33,3.26,3.26,0,0,1-1.79-.26,1.76,1.76,0,0,1-.92-.73,1.66,1.66,0,0,1,.23-1.57,3.9,3.9,0,0,1,2-1.62"/><circle class="cls-10" cx="94.9" cy="58.75" r="3.74"/><path class="cls-10" d="M152.91,144.55a208.91,208.91,0,0,0,9.35,26.65,119.25,119.25,0,0,0,6.28,12.6,54.36,54.36,0,0,0,8.23,11.14,20.74,20.74,0,0,0,5.36,4,18.86,18.86,0,0,0,6.41,1.7,37.46,37.46,0,0,0,13.67-1.45,72.33,72.33,0,0,0,13-5.19,91.45,91.45,0,0,0,12.05-7.32l1,1.34a95,95,0,0,1-12.18,7.71,73.36,73.36,0,0,1-13.33,5.59,39.79,39.79,0,0,1-14.51,1.79,21.62,21.62,0,0,1-7.33-1.81,23.48,23.48,0,0,1-6.12-4.37A57,57,0,0,1,166,185.34a121.66,121.66,0,0,1-6.69-12.8,213.47,213.47,0,0,1-10-27Z"/><path class="cls-6" d="M279.71,128.4c-9.58-7.29-25.62-14.42-35.14-13.71-13,1-33.18,20.9-34.52,25.44-.09.09-.18.23-.28.34,6.46,5.63,20.77,8,36.64,5.41C262.72,143.19,275.77,136,279.71,128.4Z"/><path class="cls-41" d="M261.4,47.09c-.89,4.13-5.65,6-8.35,9.24-2,2.43-2.85,5.64-3.23,8.78-1.5,12.33,3,24.56,8,35.93,1.49,3.36,3.06,6.86,2.85,10.53A63.51,63.51,0,0,0,278,95.82,7.46,7.46,0,0,0,279.12,94c.72-1.92-.14-4-1-5.9a12.65,12.65,0,0,1,2.65,2.41c2.4-3.06,7.6-8.84,7.6-8.84a223.33,223.33,0,0,0-22.28-40.11Z"/><path class="cls-42" d="M180.59,69c7.56-16,27.28-23.27,44.66-26.49A47.24,47.24,0,0,1,241.33,42,35.21,35.21,0,0,1,269.56,69.5c-.44-2.72,2.18-5.34,4.94-5.38a6.9,6.9,0,0,1,6.21,4.67c2.93,8-1.86,17.47-7.77,21.95.51,7.74-3,15.34-8,21.24s-11.53,10.37-18.05,14.57c-6.81,4.4-13.82,8.65-21.55,11.11-1.61.52-3.57.88-4.83-.25-3.74-3.36-8.65-5.08-13.51-6.4s-9.85-2.33-14.34-4.6-8.52-6.07-9.65-11,1.5-10.79,6.37-12C184.27,97.9,175.81,79.11,180.59,69Z"/><path class="cls-43" d="M264.34,77.62a14.68,14.68,0,0,0-.36,6,8.23,8.23,0,0,1-4.64-7.38,4.13,4.13,0,0,1,.48-2.05,4.76,4.76,0,0,1,1.84-1.57c1.25-.71,3.85-2,4.52,0C266.72,74.33,264.79,76.12,264.34,77.62Z"/><polyline class="cls-44" points="212.44 96.04 211.7 101.33 208.63 104.36 216.08 106.87"/><path class="cls-45" d="M228.59,77.49a12.52,12.52,0,0,1,1.18-2,15.47,15.47,0,0,1,3.63-3.76c.4-.28.81-.55,1.22-.79a8.31,8.31,0,0,1,1.34-.65,5.3,5.3,0,0,1,2.92-.39,2.51,2.51,0,0,1,1.74,1.42,1.65,1.65,0,0,1,.11.93l-.07,0a5.66,5.66,0,0,0-.81.09c-.43.07-.87.23-1.3.29a5.69,5.69,0,0,0-1.64.26,18.48,18.48,0,0,0-2.19.94c-1.51.75-3,1.71-4.16,2.43S228.59,77.49,228.59,77.49Z"/><path class="cls-45" d="M192,75.78s-1.11-.08-2.67-.28-3.61-.43-5.56-.46a18.46,18.46,0,0,0-2.76.12,5.44,5.44,0,0,0-1.05.24c-.3.09-.54.23-.79.3-.47.15-1,.21-1.5.35a7.67,7.67,0,0,0-.9.31l-.09,0a1.87,1.87,0,0,1-.35-1A2.9,2.9,0,0,1,177.4,73a4.16,4.16,0,0,1,1.52-.75,7.75,7.75,0,0,1,1.73-.31,10.82,10.82,0,0,1,1.71,0c.56,0,1.12.12,1.68.22a17.73,17.73,0,0,1,5.67,2.11A16.08,16.08,0,0,1,192,75.78Z"/><path class="cls-30" d="M229.71,118.52c2.34.2,4.42.15,6-.71a8.45,8.45,0,0,0,2.12-1.73c.36-.35.63-.79,1-1.18a10.18,10.18,0,0,1,1.13-1.34,7.47,7.47,0,0,1,0,1.83,7.24,7.24,0,0,1-.55,1.77,5.7,5.7,0,0,1-2.75,2.73,5.87,5.87,0,0,1-3.83.37A6.11,6.11,0,0,1,229.71,118.52Z"/><path class="cls-30" d="M238.53,112.46a2.66,2.66,0,0,0,1.69,1.09c.52.09,1.1-.32,1.53-1a1.44,1.44,0,0,1-.33,1.21,1.41,1.41,0,0,1-1.31.52A1.83,1.83,0,0,1,238.53,112.46Z"/><path class="cls-10" d="M270.33,171c-6.53-6.48-13.88-3-16.91-1-1.78,5.25,1.24,16.18,8.46,18.94,2.66,1,5.84-.1,8.78-2.09l2.6-2c.39-.34.76-.68,1.13-1C276.25,181.73,277.4,178,270.33,171Z"/><path class="cls-6" d="M227.61,54s-2.05,6.8-26.46,13.87c-13.94,4-21.7,12.93-18.7,23.21L174,66.75l51.29-24.26,5.83,3.75Z"/><path class="cls-46" d="M232.74,43.6c-1,3.43-2,7-4.52,9.55a18.28,18.28,0,0,1-6.06,3.66c-11.08,4.6-23.61,6.12-33.39,13.07A21.21,21.21,0,0,0,183,75.71c-2.57,4.06-2.31,10.88-.51,15.34-4.54-3.19-14.9-13.42-14.9-22.14,0-3.94,2.29-7.51,4.77-10.58a57,57,0,0,1,17.26-14.52c24.29-13,39.33-14.6,45.3-14.68a14.78,14.78,0,0,1,7,1.27c2.13,1.09,2.77,4.88,2.89,7.27a7.07,7.07,0,0,1-3.46,6,16.24,16.24,0,0,1-6.86,2.12"/><path class="cls-47" d="M80.94,71c14.51,30.38,51.7,62.7,70.9,57.3,13.64-3.85,10.1-22,10.1-22s3.57-1,1.94-5.59c1.27.25,2.64-1.95,2.71-3.87l10.2-2.27-7.9-10.35c3-15.6,15.37-39,9.72-55.9-2.88-8.58-38.79-21.45-64.67-12.09C89,25.28,73.82,56.11,80.94,71Z"/><path class="cls-48" d="M90.42,86.94,93.48,69S81.41,57,87.59,48.48s13.13,3.71,13.13,3.71l12.19,5.75V52.19l-3.32-2.29h3.32V40.2s16.37,1.56,23.4-3.89a22.49,22.49,0,0,0,7.1-10.81s32.26-2.14,37,11.09c0,0,2.62-13.58-6.25-19.68s-65.2-30.5-76-6.66c0,0-22.43-4.16-25.21,26.62S90.42,86.94,90.42,86.94Z"/><path class="cls-30" d="M163.88,100.74a27.55,27.55,0,0,1-3.8-.69,23.21,23.21,0,0,1-3.73-1.22,16.5,16.5,0,0,1-3.55-2,10.91,10.91,0,0,1-2.9-3.29l2.87-1.24a8.36,8.36,0,0,0,1.62,2.8,14.66,14.66,0,0,0,2.7,2.35,23.64,23.64,0,0,0,3.25,1.87A28.73,28.73,0,0,0,163.88,100.74Z"/><path class="cls-30" d="M163.88,75.19a1.78,1.78,0,0,1,1.45.08,1.89,1.89,0,0,1,1,1.32,2,2,0,0,1-.09,1.1,1.91,1.91,0,0,1-.81,1,3.11,3.11,0,0,1-1.62.36,11.81,11.81,0,0,1-4.46-1.29,22.55,22.55,0,0,1-3.74-2.29,16.9,16.9,0,0,1-3.12-3l0,0a45.1,45.1,0,0,0,7.58,3.54,13.16,13.16,0,0,0,3.73.85,1,1,0,0,0,.43-.06s-.11.11-.15.18,0,.08,0,0A5.4,5.4,0,0,0,163.88,75.19Z"/><path class="cls-30" d="M170.2,57c-.77-1.23-1.27-2.11-1.79-2.76a6.83,6.83,0,0,0-1.39-1.4,4.67,4.67,0,0,0-1-.44,7,7,0,0,0-1.27-.22l-.68-.07c-.23,0-.48,0-.72,0-.48,0-1,0-1.5.07a56.84,56.84,0,0,0-6.28,1c-2.11.46-4.24,1-6.41,1.55l-.12-.21a25.57,25.57,0,0,1,5.75-3.65,27.21,27.21,0,0,1,6.56-2.19,12.8,12.8,0,0,1,1.8-.25c.31,0,.61-.07.93-.08s.65,0,1,0a10.13,10.13,0,0,1,2,.28,7.41,7.41,0,0,1,2,.88l.49.3.45.4a5.62,5.62,0,0,1,.44.41l.35.48a3.94,3.94,0,0,1,.55,1,4.32,4.32,0,0,1,.27,1.1A4.16,4.16,0,0,1,170.2,57Z"/><path class="cls-6" d="M227.61,54s-.79,9.7,15,14.73c6.92,2.21,17,9.71,17,9.71L246.1,55.79Z"/><g class="cls-49"><circle class="cls-50" cx="187.6" cy="116.58" r="20.06"/></g><path class="cls-51" d="M218.3,93.28A41,41,0,0,0,220.61,99a9.73,9.73,0,0,0,1.81,2.26,8.81,8.81,0,0,0,2.46,1.48,15.35,15.35,0,0,0,5.83.93,51.58,51.58,0,0,0,6.13-.63c4-.67,8.11-1.8,10.58-4.56s3.24-7,3.72-10.88a12,12,0,0,0-.53-5.46,4.7,4.7,0,0,0-3.51-2.87,14.56,14.56,0,0,0-5.61.07,60.41,60.41,0,0,0-5.93,1.48,76.53,76.53,0,0,0-11.63,4.2,14.88,14.88,0,0,0-4.78,3.35A4.79,4.79,0,0,0,218,90.7,5,5,0,0,0,218.3,93.28Zm-1.64.71a6.85,6.85,0,0,1-.59-3.58,6.74,6.74,0,0,1,1.49-3.31A17.36,17.36,0,0,1,222.83,83a71.21,71.21,0,0,1,11.84-5,45.8,45.8,0,0,1,6.25-1.77,17.57,17.57,0,0,1,6.91-.13,8.28,8.28,0,0,1,3.5,1.65,7.69,7.69,0,0,1,2.28,3.2,14.85,14.85,0,0,1,.66,7,30.46,30.46,0,0,1-1.43,6.46,15.91,15.91,0,0,1-3.42,6,14.49,14.49,0,0,1-5.88,3.53,33.11,33.11,0,0,1-6.4,1.32,62,62,0,0,1-6.43.41,17.12,17.12,0,0,1-6.5-1.29,11.09,11.09,0,0,1-2.86-1.84,12.12,12.12,0,0,1-2.11-2.65A45.11,45.11,0,0,1,216.66,94Z"/><path class="cls-51" d="M211.79,98a8.49,8.49,0,0,1,.27,5.08,5,5,0,0,1-1.48,2.25l-.51.44-.55.35a10.2,10.2,0,0,1-1.13.6,23.4,23.4,0,0,1-4.7,1.41c-1.58.33-3.14.62-4.72.88a28.11,28.11,0,0,1-4.91.44,10.69,10.69,0,0,1-5.08-1.32,13.16,13.16,0,0,1-3.81-3.53,27,27,0,0,1-2.55-4.32,9.5,9.5,0,0,1-1-5.36,5.33,5.33,0,0,1,1.44-2.73,7.28,7.28,0,0,1,2.41-1.58c3.4-1.3,6.77-1.06,10-.82A67.08,67.08,0,0,1,205.05,91a8.32,8.32,0,0,1,4.53,2.52A12.75,12.75,0,0,1,211.79,98Zm-1.33.44a11.07,11.07,0,0,0-2.08-3.89,6.43,6.43,0,0,0-3.73-1.81,74.34,74.34,0,0,0-9.32-.66,35.33,35.33,0,0,0-4.61,0,13.47,13.47,0,0,0-4.22.86,3.47,3.47,0,0,0-2.26,2.43,7,7,0,0,0,.72,3.85,23.1,23.1,0,0,0,2.22,3.88,10.9,10.9,0,0,0,3,3c2.32,1.48,5.47,1.34,8.56,1,1.55-.18,3.12-.38,4.65-.65a22.07,22.07,0,0,0,4.44-1.14,4.77,4.77,0,0,0,3-2.7A6.52,6.52,0,0,0,210.46,98.44Z"/><path class="cls-30" d="M225.77,97.53a20.33,20.33,0,0,1,2.35-5.16,23,23,0,0,1,3.64-4.5A7.12,7.12,0,0,1,234.7,86a4.87,4.87,0,0,1,2.15-.14,5.76,5.76,0,0,1,2,.67,5.57,5.57,0,0,1,2.48,2.71,14.63,14.63,0,0,1,.79,3l-2.31-.49c1-.64,1.92-1.3,2.9-1.94s2-1.26,3-1.85c-.6,1-1.25,2-1.9,3s-1.33,1.9-2,2.86l-1.06,1.52-1.24-2a13.71,13.71,0,0,0-1.49-2,14.07,14.07,0,0,0-1.25-1.28,1.65,1.65,0,0,0-1.17-.43,4.3,4.3,0,0,0-1.83.79,33.64,33.64,0,0,0-4.18,3.26A40.92,40.92,0,0,0,225.77,97.53Z"/><path class="cls-30" d="M206.9,101.7a32.82,32.82,0,0,0-4.07-2,27.92,27.92,0,0,0-4.16-1.26,3.76,3.76,0,0,0-1.64-.07,1.39,1.39,0,0,0-.77.68,9.62,9.62,0,0,0-.57,1.35,10.28,10.28,0,0,0-.54,2l-.36,1.91-1.27-.85c-1.58-1.06-3.17-2.1-4.7-3.3,1.91.3,3.76.74,5.62,1.17l-1.62,1.06a12,12,0,0,1-.27-2.52,4.53,4.53,0,0,1,1.1-2.81A4.63,4.63,0,0,1,195,96a4,4,0,0,1,1.69-.53,6,6,0,0,1,2.81.57,19.56,19.56,0,0,1,4.12,2.38A16.87,16.87,0,0,1,206.9,101.7Z"/><polyline class="cls-52" points="212.44 96.04 211.7 101.33 208.63 104.36 216.08 106.87"/><polygon class="cls-30" points="212.44 96.04 212.51 101.45 212.52 101.68 212.28 101.92 209.21 104.95 208.89 103.58 216.08 106.87 208.36 105.15 206.97 104.84 208.04 103.78 211.12 100.74 210.88 101.21 212.44 96.04"/><path class="cls-53" d="M211.13,98.22A3.29,3.29,0,0,1,213,95.74c1.64-.73,5.76,1.19,5.76,1.19"/><path class="cls-54" d="M259.59,168.76c6.24-1.78,13.87,5.87,14.49,10.29s-5.73,8.18-12.19,9.9-37.54,5.14-37.54,5.14v-7.75S248.89,171.81,259.59,168.76Z"/><path class="cls-55" d="M224.35,186.34s-7.55-6.45-10.21-2.8,1.17,12.71,2.06,12.71,8.15-2.16,8.15-2.16Z"/><path class="cls-6" d="M264,189.33a8.24,8.24,0,0,0,.85-.05,10.34,10.34,0,0,0,3-.85c.26-.11.52-.23.78-.37.52-.26,1-.56,1.54-.88.26-.16.51-.33.76-.51a28.28,28.28,0,0,0,3.57-3l.65-.66c.42-.44.83-.89,1.21-1.33l.56-.67c2-2.43,3.19-4.74,3-5.85a1.62,1.62,0,0,1,0-.23.57.57,0,0,1,0-.13,2.08,2.08,0,0,1,0-.25v-.21c0-.08,0-.18,0-.26s0-.2,0-.31l0-.32c0-.11,0-.22,0-.34s0-.25,0-.38,0-.24,0-.37,0-.3,0-.45,0-.24.05-.37l.06-.54c0-.12,0-.24,0-.36s.06-.45.09-.69a2.51,2.51,0,0,1,0-.27l.12-.93v-.08c.05-.32.09-.66.14-1v-.07c0-.27.07-.54.11-.81s0-.23.05-.34c.27-1.92.58-4,.88-6.08v0h0c.94-6.58,1.78-13.28,1.25-15.53A13.59,13.59,0,0,0,279.6,139c-.58,6.48-3.31,35.1-6.82,39.34-4,4.79-48.43,15.78-48.43,15.78s31.08-3.42,37.54-5.14A6.05,6.05,0,0,0,264,189.33Z"/><path class="cls-56" d="M111.91,230.86c-5.54-3.64-51.7-58.25-48.92-67s25.53-31.17,33.55-18.48S133,204.11,133,204.11Z"/><path class="cls-57" d="M116.28,211.34c4.46-6.12,8.93-7.93,16.13-10.27,2.26.35,5.14,5.77,7.62,9.62a3,3,0,0,1,.63,1.56,2.8,2.8,0,0,1-.32,1.16c-2.11,4.76-3.89,9.93-6.42,14.48-1.82,3.26-6.87,5.3-10.19,6.9s-5.89,1.28-9.14,0c-2.33-.89-5.09-1.33-5.23-3.87a24.28,24.28,0,0,1,1-6.61A37,37,0,0,1,116.28,211.34Z"/><path class="cls-58" d="M191.14,213.58c4-.47,16-1.34,18.52-1.11s9.62.29,11,2.36,3.41,5.29,3,5.34-3.81,1.49-4,1.33-4.14-3-4.14-3,3.6,4.42,4.89,4.81,4.35.62,6.05,1.23,1.85,3.72.62,4.37-6.42-.33-6.42-.33l4.84,1.92a22.78,22.78,0,0,0,2.84-1.3c-.19-.06.94,1.39.24,1.68s-3.17,3.67-3.36,3.69-4.38-.61-6-1c0,0,6.8.51,4.18,2.46-1.39,1-9.55,1.09-10.77,1.13l6.66-.17-6.31,2-7.16-.36-14.06-8.25Z"/><path class="cls-59" d="M191.14,213.58s-38.76-5.52-53.14-4.88S118.08,230,119.79,233.93c3.89,9.06,71.93-3.55,71.93-3.55Z"/><path class="cls-6" d="M120.27,137.53a8,8,0,0,0-2.33-1.32c-.35-3.27-1-7.06-2.45-8.49l-.77,1.41,6.14-11.24A134,134,0,0,1,95.57,93.72a89.44,89.44,0,0,0-9.69,6.88h0c-.61-2.18-5.2,1.82-8.63,5.21H77a29.4,29.4,0,0,0-3.48.59c-.58.14-1.16.32-1.74.51,2.22,8.76,8.1,19.14,16.88,28.67,16.22,17.6,36.16,25.6,44.55,17.87a.46.46,0,0,0,.07-.07C128.47,146.43,123.74,140.33,120.27,137.53Z"/><circle class="cls-60" cx="137.46" cy="81.38" r="22.77"/><path class="cls-61" d="M281.09,78.11a64.62,64.62,0,0,1-7.69,9.46,10.6,10.6,0,0,0-1.8,2.16,11.34,11.34,0,0,0-1,2.91c-2.49,10.1-15.89,28.57-43.45,41a9.13,9.13,0,0,1-3.92.81c-3.63,0-6.45-3-9.53-4.89-7.27-4.48-16.66-3.35-24.86-5.58a23.56,23.56,0,0,0,3.79,2.41c4.49,2.27,9.49,3.28,14.34,4.6s9.77,3,13.51,6.4c1.26,1.13,3.22.77,4.83.25,7.73-2.46,14.74-6.71,21.55-11.11,6.52-4.2,13-8.66,18.05-14.57s8.52-13.5,8-21.24A23.14,23.14,0,0,0,281.09,78.11Z"/><path class="cls-61" d="M271.13,71.42a11.38,11.38,0,0,0-1.38,3.51l-.86,3.18a3.12,3.12,0,0,1,.6-1.14,1.06,1.06,0,0,1,1.16-.31,1.12,1.12,0,0,1,.48.46,2.28,2.28,0,0,1-.24,2.64c-.3.32-.69.56-1,.9-.67.85-.47,2.06-.23,3.11a1.1,1.1,0,0,0,.33.69,1.17,1.17,0,0,0,.44.16,5.49,5.49,0,0,0,4.16-1.14A8.9,8.9,0,0,0,277.26,80a9.37,9.37,0,0,0,.79-5.7C277.36,71,273.65,67.74,271.13,71.42Z"/><path class="cls-62" d="M228.89,56.69c1.76,3,4.77,5,7.92,6.43,1.77.79,3.6,1.42,5.39,2.17a42.86,42.86,0,0,1,15.25,10.87,11,11,0,0,0,3.85,3.28c2.66,1,5.76-.55,7.38-2.89s2.11-5.27,2.53-8.08a42.75,42.75,0,0,0,.65-6.77c-.07-7.87-2.77-18.88-9.05-23.62s-15.95-3.42-23.82-3.8a8.63,8.63,0,0,0-3.47.34,9.33,9.33,0,0,0-3,2.16,13.51,13.51,0,0,0-2.54,3c-1.37,2.44-.89,5.24-1.61,7.83C227.47,50.82,227.07,53.62,228.89,56.69Z"/><path class="cls-61" d="M162.35,111.78l0,0a32.9,32.9,0,0,1-3.61,8.43,5,5,0,0,1-2.15,2.2,5.31,5.31,0,0,1-2.63.14c-4.79-.54-9.68-1.1-14.07-3.09a44.38,44.38,0,0,1-10-6.88c-8.59-7.24-38.67-49.81-41.55-54.69-.65-1.1-1.62-2.37-2.88-2.17a20.22,20.22,0,0,0,2.35,11c1.62,3,4,6.63,2,9.41-2.49-1-4.09-3.47-5.48-5.79A196.43,196.43,0,0,1,73,48.51,65.38,65.38,0,0,0,90.42,86.94h0c17.5,24.63,45.58,45.86,61.42,41.4C160.62,125.85,162.28,117.45,162.35,111.78Z"/><path class="cls-63" d="M162.35,111.78l0,0a32.9,32.9,0,0,1-3.61,8.43,5,5,0,0,1-2.15,2.2,5.31,5.31,0,0,1-2.63.14c-4.79-.54-9.68-1.1-14.07-3.09a44.38,44.38,0,0,1-10-6.88c-8.59-7.24-38.67-49.81-41.55-54.69-.65-1.1-1.62-2.37-2.88-2.17a20.22,20.22,0,0,0,2.35,11c1.62,3,4,6.63,2,9.41-2.49-1-4.09-3.47-5.48-5.79A196.43,196.43,0,0,1,73,48.51,65.38,65.38,0,0,0,90.42,86.94h0c17.5,24.63,45.58,45.86,61.42,41.4C160.62,125.85,162.28,117.45,162.35,111.78Z"/><path class="cls-10" d="M155.94,135.4c-.47-2.63-1.08-5.21-1.71-7.78a.8.8,0,0,0-.08-.16,14.64,14.64,0,0,1-1.76.69c.53,2.53,1,5.07,1.4,7.6a33.49,33.49,0,0,1,.38,3.8,5.86,5.86,0,0,1-.51,3.12,4,4,0,0,1-2.57,1.1,7.44,7.44,0,0,1-3.29-.47,19.86,19.86,0,0,1-6.11-4,71.16,71.16,0,0,1-9.86-11.85c-3-4.28-5.67-8.75-8.25-13.29-5.16-9.1-9.81-18.5-14.21-28S100.82,66.92,97,57.21v0l0-.05a2.59,2.59,0,0,0-4.77,2C96.33,68.92,100.74,78.5,105.4,88s9.6,18.85,15.06,28c2.73,4.54,5.6,9,8.73,13.33a73.71,73.71,0,0,0,10.62,12.11,22.38,22.38,0,0,0,7.12,4.41,10,10,0,0,0,4.48.5,8.24,8.24,0,0,0,2.23-.63A4.46,4.46,0,0,0,155.7,144a5.39,5.39,0,0,0,.75-2.39,13,13,0,0,0,0-2.16A37.44,37.44,0,0,0,155.94,135.4Z"/><path class="cls-6" d="M211,200.78l1-.32Z"/><path class="cls-6" d="M212.15,193.85l-.19,0Z"/><path class="cls-6" d="M212.42,200.32l.82-.26Z"/><path class="cls-6" d="M205.21,194.63l-.4.05Z"/><path class="cls-6" d="M200.25,195.18l-.39,0Z"/><path class="cls-6" d="M209.77,194.12h0Z"/><path class="cls-6" d="M207.44,194.38l-.2,0Z"/><path class="cls-6" d="M209.79,201.17l.86-.28Z"/><path class="cls-6" d="M199.6,204.34l1.5-.46Z"/><path class="cls-6" d="M203.18,203.24l1.43-.44Z"/><path class="cls-6" d="M205,202.68l1.43-.44Z"/><path class="cls-6" d="M206.5,202.21l1.28-.41Z"/><path class="cls-6" d="M201.56,203.74l1.21-.37Z"/><path class="cls-6" d="M172.74,197.89h0Z"/><path class="cls-6" d="M161.69,198.72Z"/><path class="cls-6" d="M155,214.81h0l1.31-.11Z"/><path class="cls-6" d="M215.9,199.19l-.13,0-2.35.77h0Z"/><path class="cls-6" d="M214.48,193.58l-.19,0Z"/><path class="cls-6" d="M195.13,195.73l-.24,0Z"/><path class="cls-6" d="M190.09,196.25l-.31,0Z"/><path class="cls-6" d="M187.56,196.51h0Z"/><path class="cls-6" d="M177.57,197.47h0Z"/><path class="cls-6" d="M192.58,196l-.1,0Z"/><path class="cls-6" d="M182.54,197l-.19,0Z"/><path class="cls-6" d="M184.94,196.77h0Z"/><path class="cls-6" d="M208.19,201.67l1.17-.36Z"/><path class="cls-6" d="M158.12,214.48l1.3-.17Z"/><path class="cls-6" d="M159.68,214.27l1.48-.23Z"/><path class="cls-6" d="M163.09,213.71l1.62-.3Z"/><path class="cls-6" d="M161.5,214l1.5-.25Z"/><path class="cls-6" d="M167,213l1.55-.33Z"/><path class="cls-6" d="M165.09,213.34l1.65-.33Z"/><path class="cls-6" d="M216.75,198.91l-.21.06,1-.32-.63.21Z"/><path class="cls-6" d="M217.93,198.51l-.3.1Z"/><path class="cls-6" d="M218,198.49l.05,0H218Z"/><path class="cls-6" d="M156.55,214.67l1.35-.16Z"/><path class="cls-6" d="M234.5,192.25a2.11,2.11,0,0,0-.43-1l-2.16.27s-.09.09-.13.15,0,0,0,.07a4,4,0,0,0-.61.32c0-.14,0-.3,0-.45-3.82.47-8.9,1.09-14.69,1.77h.09l1.74,5h0a3.47,3.47,0,0,0,2.38.86v0c1.32,0,7.21-2.53,9.43-4.05a2.73,2.73,0,0,0,.53.29,3.26,3.26,0,0,0,1.79.26,2.6,2.6,0,0,0,1.74-1.33A3.54,3.54,0,0,0,234.5,192.25Z"/><path class="cls-6" d="M216.43,199l-.1,0Z"/><path class="cls-6" d="M197.59,204.94l1.57-.47Z"/><path class="cls-6" d="M168.86,212.56l1.72-.38Z"/><path class="cls-6" d="M189.62,207.26l1.74-.49Z"/><path class="cls-6" d="M187.57,207.84l1.63-.46Z"/><path class="cls-6" d="M171,212.09l1.68-.38Z"/><path class="cls-6" d="M185.5,208.41l1.82-.5Z"/><path class="cls-6" d="M195.76,205.48l1.71-.51Z"/><path class="cls-6" d="M193.63,206.11l1.73-.51Z"/><path class="cls-6" d="M191.82,206.63l1.51-.43Z"/><path class="cls-6" d="M175,211.14l1.81-.45Z"/><path class="cls-6" d="M177.05,210.63c.55-.13,1.11-.27,1.66-.42C178.16,210.36,177.6,210.5,177.05,210.63Z"/><path class="cls-6" d="M172.78,211.67l1.8-.43Z"/><path class="cls-6" d="M179.12,210.11l1.79-.46Z"/><path class="cls-6" d="M181.34,209.53l1.63-.43Z"/><path class="cls-6" d="M183.25,209l1.83-.49Z"/><path class="cls-64" d="M216.55,193.34c-23.19,2.7-57.89,6.41-69.14,5.74a29.68,29.68,0,0,0-1.47,9.71c8.31.39,19.12,1.52,28.09,2.59,14.64-3.52,31.26-8.74,39.34-11.36l0,0,2.35-.77.16,0,.3-.1.27-.09.25-.08.14,0,1.11-.37h0l.27-.09Z"/><path class="cls-6" d="M147.41,199.08a9.63,9.63,0,0,1-3.28-.57c-6.59-3.41-27.28-53.94-27.28-53.94L103,155.64c9.32,14.94,23.57,38,28.4,45.77l1-.34c1.88.29,4.2,4.12,6.36,7.61,2-.06,4.45,0,7.17.11A29.68,29.68,0,0,1,147.41,199.08Z"/><path class="cls-65" d="M228.32,229.18s0,0,0,0S228.33,229.19,228.32,229.18Z"/><path class="cls-66" d="M228.31,229.22c-.24.21-2.83,1.26-2.83,1.26l-4.84-1.92s5.18,1,6.42.33,1.08-3.76-.62-4.37-4.77-.84-6.05-1.23-4.89-4.81-4.89-4.81,3.95,2.86,4.14,3,3.63-1.27,4-1.33-1.69-3.26-3-5.34-8.45-2.13-11-2.36-14.51.64-18.52,1.11c0,0-38.76-5.52-53.14-4.88S118.08,230,119.79,233.93c3.89,9.06,71.93-3.55,71.93-3.55l14.06,8.25,7.16.36,6.31-2-3.72.09c2.89-.1,6.9-.35,7.83-1.05,1.23-.91.38-1.51-.86-1.88,1.38.21,2.61.39,2.7.37s2.65-3.4,3.36-3.69S228.36,229.42,228.31,229.22Z"/><path class="cls-65" d="M228.32,229.18s0,0,0,0S228.33,229.19,228.32,229.18Z"/><path class="cls-67" d="M208,239.24c4.42-4.25,9.94-9.3,9.94-9.3s-9.18-8.8-13.76-8.87-13,3.5-13,3.5-61.25,8.39-71.64,4.58c-.45,2.38-.46,4.3,0,5.26a3.6,3.6,0,0,0,2,1.71l.15.07.47.19.21.07.47.15.27.08a3.59,3.59,0,0,0,.47.12l.34.09.45.09.42.08.4.07.53.09.26,0c17.79,2.45,65.5-6.39,65.5-6.39h0l14.06,8.25Z"/><path class="cls-68" d="M154.86,228.25Z"/><path class="cls-68" d="M125.91,229.57h0Z"/><path class="cls-68" d="M126.94,229.61h0Z"/><path class="cls-68" d="M124.94,229.51h0Z"/><path class="cls-68" d="M128,229.64h0Z"/><path class="cls-68" d="M156.43,228.11Z"/><path class="cls-68" d="M130.29,229.66h0Z"/><path class="cls-68" d="M124,229.44h0Z"/><path class="cls-68" d="M126.2,236.77a50.89,50.89,0,0,0,5.69.41A50.89,50.89,0,0,1,126.2,236.77Z"/><path class="cls-68" d="M205.44,220.7a10.12,10.12,0,0,1,2.06.74A10.12,10.12,0,0,0,205.44,220.7Z"/><path class="cls-68" d="M123.32,236.2l-.27-.08c-.16,0-.32-.1-.47-.15a11.42,11.42,0,0,0,1.2.35A3.45,3.45,0,0,1,123.32,236.2Z"/><path class="cls-68" d="M210.9,223.43c.76.52,1.51,1.07,2.23,1.62C212.41,224.5,211.66,224,210.9,223.43Z"/><path class="cls-68" d="M122.37,235.9l-.47-.19-.07,0Z"/><path class="cls-68" d="M125,236.58l.39.07Z"/><path class="cls-68" d="M122.36,229.25Z"/><path class="cls-68" d="M124.13,236.41l.44.09Z"/><path class="cls-68" d="M125.93,236.74l-.27,0,.52.07Z"/><path class="cls-68" d="M123.16,229.35h0Z"/><path class="cls-68" d="M129.15,229.66h0Z"/><path class="cls-68" d="M132.94,237.2l-1,0Z"/><path class="cls-68" d="M205.78,238.63l-14.06-8.25h0s-24.64,4.56-45.11,6.23c20.47-1.67,45.11-6.23,45.11-6.23l14.06,8.25,2.6.13h0Z"/><path class="cls-68" d="M133.05,237.2h0Z"/><path class="cls-68" d="M135.25,237.19h0Z"/><path class="cls-68" d="M216.79,228.08c.93.83,1.5,1.38,1.5,1.38l-.24.22.24-.22S217.72,228.91,216.79,228.08Z"/><path class="cls-68" d="M146.57,236.61c-4,.32-7.84.53-11.3.58C138.73,237.14,142.57,236.93,146.57,236.61Z"/><path class="cls-68" d="M119.79,233.93c-.41-1-.4-2.88,0-5.26l-.37-.15c-9.11-4.15-53.94-57-54.68-57.84,7.58,15.49,35.45,48.86,44.66,58a12.51,12.51,0,0,0-.11,2.27c.14,2.54,2.9,3,5.23,3.87a11.24,11.24,0,0,0,7,.74l.19.09A3.65,3.65,0,0,1,119.79,233.93Z"/><path class="cls-68" d="M216.79,228.08c-.7-.61-1.6-1.39-2.61-2.2C215.19,226.69,216.09,227.47,216.79,228.08Z"/><path class="cls-68" d="M218.05,229.68l-3.27,3Z"/><path class="cls-68" d="M121.62,229.13h0Z"/><path class="cls-68" d="M141,229.3h0Z"/><path class="cls-68" d="M138.15,229.45h0Z"/><path class="cls-68" d="M121,229Z"/><path class="cls-68" d="M144,229.11h0Z"/><path class="cls-68" d="M139.58,229.38h0Z"/><path class="cls-68" d="M131.51,229.66h0Z"/><path class="cls-68" d="M150.15,228.66h0Z"/><path class="cls-68" d="M136.78,229.51h0Z"/><path class="cls-68" d="M132.76,229.64h0Z"/><path class="cls-69" d="M291.33,175.41c0-3-.06-6.06-.12-9.09a32.49,32.49,0,0,0-.88-8.19c-1-.24-2.05-.44-3.09-.62-1.49,14.61-4.78,33-8.3,43.44a59.09,59.09,0,0,0,6.34,1.77,6,6,0,0,0,.86-1.06C291,194,291.38,184.45,291.33,175.41Z"/><path class="cls-70" d="M276,207.5a22.58,22.58,0,0,1-1.44,1.89c.2,2.41,1.31,5.59,1.45,7,.83,7.62-3.41,15-9.11,20.16s-12.77,8.4-19.56,11.95c-3.2,1.67-6.73,4-7.14,7.54a10.46,10.46,0,0,0,1,5c3.31,8.32,8.47,16.06,9.8,24.91a8.32,8.32,0,0,1-.34,4.7,7.48,7.48,0,0,1-2.56,2.8c-4.55,3.28-10.38,4.18-16,4.56-11.15.76-22.43-.14-33.48,1.35.19.06.39.14.59.19,4.84,1.43,42.48,3.44,54.08-5.44,3.95-3.68,6.11-7.49,4-14-2.29-7.06-9-16.81-9-19,0-2.5,2.16-4.88,5.46-8.2,3.51-3.5,9-6.21,14.82-10,10.39-6.7,19.2-18,7.47-35.24Z"/><path class="cls-61" d="M253.36,294c-4.85,3.71-14.27,5.52-23.93,6.26,2.22,3,4.42,5.68,6.52,8a8,8,0,0,1-.38-1.72,2.86,2.86,0,0,1,.74-2.42,3,3,0,0,1,1.32-.51,56,56,0,0,1,7.05-1.05,12.79,12.79,0,0,1,6.65.75c2.79,1.34,4.4,4.27,5.82,7l1.21,2.34c-.58-5.8-1.73-13.68-3.91-19.77C254.1,293.32,253.74,293.68,253.36,294Z"/><path class="cls-61" d="M202,300c1.39,1.8,2.76,3.45,4.09,5a1.91,1.91,0,0,1,.75-1.59,3.42,3.42,0,0,1,1.34-.44,68.44,68.44,0,0,1,7.15-.89,15.43,15.43,0,0,1,6.75.64,10.91,10.91,0,0,1,4.81,4.29c-.24-2-.57-4.21-1-6.41A153.28,153.28,0,0,1,202,300Z"/><path class="cls-71" d="M52.32,330.22c1.3,1.48,10.89,9.25,15.73,11.19.9.36,2.52-.06,3.07.73.25.36-.26,1.57-.06,1.95,1.85,3.48,11.83,6,14.64,8.75,1.88,1.85,2.15,4.73,2.31,7.36.08,1.36.23,3-.75,3.92-2.46,2.39-18.82,1.4-21.7.54-6.24-1.85-21-11.39-26.28-16.57-2.4-2.34-1.67-3.67-.59-5.92s5.78-7.92,7.28-9.78c.9-1.12,1.5-3.63,2.47-4.43C49.83,326.83,51.35,329.12,52.32,330.22Z"/><path class="cls-72" d="M43.87,335.78c8,4.79,16.08,9.61,24.77,13l3.46-14.14a42.37,42.37,0,0,1-7.28-4.38c-1.7-1.26-3.62-4-5.85-3.6-2.43.48-5.45,3.16-7.57,4.44C50.58,331.64,44.42,336.1,43.87,335.78Z"/><path class="cls-73" d="M159.38,279.29c.21,5.35-.11,14.12-4.66,19.39-19.69,22.8-76.25,39.44-76.25,39.44s-21.8-2.06-26-12.09l3.49-4.74s-2.88-3.24,1.61-4.91c0,0,52.54-29.52,71.48-33.19S159.38,279.29,159.38,279.29Z"/><path class="cls-74" d="M51.44,331.1c1.3,1.48,10.89,9.25,15.73,11.19.9.36,2.52-.06,3.07.73.25.36-.26,1.56-.06,2,1.85,3.48,11.83,6,14.64,8.75,1.89,1.84,2.15,4.73,2.31,7.36.08,1.36.24,3-.74,3.92-2.47,2.39-18.83,1.4-21.71.54-6.24-1.85-21-11.39-26.28-16.57-2.4-2.35-1.67-3.67-.59-5.92s5.78-7.92,7.28-9.78c.9-1.12,1.5-3.63,2.47-4.43C49,327.7,50.47,330,51.44,331.1Z"/></g></g></g></svg>