<?xml version="1.0" encoding="utf-8"?>
<!-- Generator: Adobe Illustrator 24.0.2, SVG Export Plug-In . SVG Version: 6.00 Build 0)  -->
<svg version="1.1" id="Capa_1" xmlns="http://www.w3.org/2000/svg" xmlns:xlink="http://www.w3.org/1999/xlink" x="0px" y="0px"
	 viewBox="0 0 198.6 170" style="enable-background:new 0 0 198.6 170;" xml:space="preserve">
<style type="text/css">
	.st0{fill:#B9C8E6;}
	.st1{fill:#FFFFFF;}
</style>
<path class="st0" d="M157.1,163l-7.9,7l-31.9-24.3L31,142.4c0,0-31,0.8-31-33.2l2.4-66.4c0,0-1-6.9,7.7-17.6L23.8,8.8
	c0,0,9.7-8.8,22.5-8.8l121.8,8.8c0,0,30.5,2.6,30.5,32.9l-5.5,73c0,0-3.6,16.1-17.6,23c0,0-13.8,6.6-16.9,7.7L157.1,163z"/>
<path class="st1" d="M154.8,136l-1.5,18.6l-25.5-20.2l-89.4-6.9c0,0-26.8-1.8-25-33.2l5.4-66.1c0,0,1-23.7,29.6-24.5l123.8,9.4
	c0,0,23.7,3.1,22,30.6L189,114C189,114,184.7,140.6,154.8,136z"/>
</svg>
