<?xml version="1.0" encoding="utf-8"?>
<!-- Generator: Adobe Illustrator 23.1.0, SVG Export Plug-In . SVG Version: 6.00 Build 0)  -->
<svg version="1.1" id="Capa_1" xmlns="http://www.w3.org/2000/svg" xmlns:xlink="http://www.w3.org/1999/xlink" x="0px" y="0px"
	 viewBox="0 0 276.32 138.25" style="enable-background:new 0 0 276.32 138.25;" xml:space="preserve">
<style type="text/css">
	.st0{fill:#FF5AC8;}
	.st1{fill:url(#SVGID_1_);}
	.st2{fill:#FFFFFF;}
	.st3{fill:url(#SVGID_2_);}
	.st4{fill:url(#SVGID_3_);}
	.st5{fill:url(#SVGID_4_);}
	.st6{fill:url(#SVGID_5_);}
	.st7{fill:url(#SVGID_6_);}
	.st8{fill:url(#SVGID_7_);}
</style>
<path class="st0" d="M262.18,27.27L262.18,27.27C247.78,8.38,225.55-1.02,203.5,0.14L69.16,0v138.25l136.75-0.01
	c15.03,0.28,30.25-4.29,43.14-14.1l0.04-0.03C279.45,100.98,285.32,57.63,262.18,27.27z"/>
<radialGradient id="SVGID_1_" cx="-351.9422" cy="615.4503" r="0.81" gradientTransform="matrix(-105.1975 80.0415 80.081 105.1456 -86208.6641 -36494.9648)" gradientUnits="userSpaceOnUse">
	<stop  offset="0" style="stop-color:#0093EF"/>
	<stop  offset="0.51" style="stop-color:#00169E"/>
	<stop  offset="0.94" style="stop-color:#00008C"/>
	<stop  offset="1" style="stop-color:#00008C"/>
</radialGradient>
<path class="st1" d="M27.24,14.17l0.04-0.03c30.37-23.12,73.75-17.26,96.88,13.09l0.01,0.01c23.14,30.36,17.27,73.71-13.1,96.84
	l-0.04,0.03c-30.37,23.12-73.75,17.26-96.88-13.09L14.14,111C-8.99,80.65-3.13,37.29,27.24,14.17z"/>
<path class="st2" d="M28.31,96.35c0,0.22-0.04,0.39-0.12,0.49s-0.2,0.21-0.38,0.31c-0.1,0.06-0.23,0.11-0.38,0.17
	c-0.15,0.05-0.31,0.1-0.49,0.14c-0.18,0.04-0.37,0.07-0.56,0.09c-0.2,0.02-0.39,0.03-0.58,0.03c-0.51,0-1-0.07-1.45-0.21
	c-0.45-0.14-0.84-0.35-1.17-0.63s-0.6-0.63-0.79-1.06c-0.19-0.42-0.29-0.91-0.29-1.47c0-0.59,0.11-1.1,0.32-1.53
	c0.21-0.44,0.49-0.8,0.84-1.09c0.35-0.29,0.74-0.51,1.19-0.65c0.45-0.14,0.91-0.21,1.38-0.21c0.68,0,1.22,0.11,1.61,0.33
	c0.4,0.22,0.59,0.5,0.59,0.85c0,0.19-0.05,0.35-0.14,0.48s-0.2,0.24-0.32,0.32c-0.18-0.11-0.4-0.21-0.67-0.32
	c-0.27-0.1-0.57-0.16-0.91-0.16c-0.6,0-1.08,0.17-1.43,0.51c-0.35,0.34-0.53,0.82-0.53,1.43c0,0.33,0.05,0.61,0.14,0.85
	c0.1,0.24,0.23,0.44,0.39,0.59c0.16,0.15,0.35,0.27,0.57,0.34s0.44,0.11,0.69,0.11c0.16,0,0.3-0.01,0.42-0.04
	c0.12-0.03,0.21-0.06,0.28-0.1v-1.01h-1.15c-0.04-0.08-0.08-0.18-0.12-0.31c-0.04-0.13-0.06-0.26-0.06-0.41
	c0-0.26,0.06-0.44,0.18-0.56s0.27-0.17,0.46-0.17h1.81c0.21,0,0.38,0.06,0.5,0.18c0.12,0.12,0.18,0.28,0.18,0.5V96.35z"/>
<path class="st2" d="M31.11,97.41c-0.07,0.02-0.18,0.04-0.34,0.06c-0.15,0.02-0.31,0.03-0.48,0.03c-0.16,0-0.3-0.01-0.42-0.03
	s-0.23-0.06-0.32-0.13s-0.15-0.15-0.2-0.26c-0.05-0.11-0.07-0.26-0.07-0.43v-3.22c0-0.16,0.03-0.31,0.09-0.42
	c0.06-0.12,0.15-0.22,0.26-0.32c0.11-0.09,0.26-0.18,0.42-0.25c0.17-0.07,0.35-0.14,0.54-0.2c0.19-0.06,0.39-0.1,0.6-0.13
	s0.41-0.05,0.62-0.05c0.34,0,0.61,0.07,0.81,0.2c0.2,0.13,0.3,0.35,0.3,0.65c0,0.1-0.01,0.2-0.04,0.29
	c-0.03,0.1-0.06,0.18-0.11,0.26c-0.15,0-0.3,0.01-0.46,0.02s-0.31,0.04-0.46,0.06c-0.15,0.03-0.29,0.06-0.42,0.09
	s-0.24,0.07-0.34,0.11V97.41z"/>
<path class="st2" d="M35.53,92.04c0.39,0,0.74,0.04,1.06,0.12c0.32,0.08,0.59,0.2,0.81,0.36c0.23,0.16,0.4,0.37,0.52,0.61
	c0.12,0.25,0.18,0.54,0.18,0.87v2.4c0,0.19-0.05,0.34-0.16,0.46c-0.1,0.12-0.23,0.22-0.37,0.31c-0.46,0.28-1.12,0.42-1.96,0.42
	c-0.38,0-0.72-0.04-1.02-0.11c-0.3-0.07-0.56-0.18-0.78-0.32c-0.22-0.14-0.39-0.33-0.5-0.55c-0.12-0.22-0.18-0.48-0.18-0.77
	c0-0.49,0.15-0.87,0.44-1.14c0.29-0.26,0.75-0.43,1.36-0.49l1.4-0.15v-0.08c0-0.21-0.09-0.36-0.27-0.45
	c-0.18-0.09-0.44-0.13-0.79-0.13c-0.27,0-0.54,0.03-0.79,0.09s-0.49,0.13-0.7,0.21c-0.09-0.06-0.17-0.16-0.24-0.29
	c-0.06-0.13-0.1-0.27-0.1-0.41c0-0.19,0.04-0.33,0.13-0.45c0.09-0.11,0.23-0.21,0.41-0.28c0.21-0.08,0.45-0.14,0.73-0.17
	C35.01,92.06,35.28,92.04,35.53,92.04z M35.62,96.26c0.12,0,0.26-0.01,0.4-0.04c0.15-0.03,0.26-0.06,0.33-0.1v-0.86l-0.77,0.06
	c-0.2,0.01-0.36,0.06-0.49,0.13c-0.13,0.07-0.19,0.18-0.19,0.32s0.06,0.26,0.17,0.35C35.16,96.21,35.35,96.26,35.62,96.26z"/>
<path class="st2" d="M42.52,94.11c0-0.22-0.06-0.38-0.19-0.49s-0.29-0.16-0.51-0.16c-0.14,0-0.28,0.02-0.42,0.05
	c-0.14,0.04-0.26,0.09-0.36,0.16v3.72c-0.07,0.02-0.18,0.04-0.34,0.06c-0.15,0.02-0.31,0.03-0.48,0.03c-0.16,0-0.3-0.01-0.42-0.03
	s-0.23-0.06-0.32-0.13s-0.15-0.15-0.2-0.26c-0.05-0.11-0.07-0.26-0.07-0.43v-3.22c0-0.19,0.04-0.35,0.12-0.47
	c0.08-0.12,0.19-0.23,0.34-0.33c0.24-0.17,0.55-0.31,0.92-0.42s0.78-0.16,1.23-0.16c0.81,0,1.43,0.18,1.87,0.53
	c0.44,0.35,0.65,0.85,0.65,1.47v3.36c-0.07,0.02-0.18,0.04-0.34,0.06s-0.31,0.03-0.48,0.03c-0.16,0-0.3-0.01-0.42-0.03
	s-0.23-0.06-0.32-0.13c-0.09-0.06-0.15-0.15-0.2-0.26c-0.05-0.11-0.07-0.26-0.07-0.43V94.11z"/>
<path class="st2" d="M45.24,94.81c0-0.47,0.07-0.88,0.21-1.23c0.14-0.35,0.34-0.63,0.6-0.86c0.25-0.23,0.55-0.4,0.89-0.51
	c0.34-0.11,0.71-0.17,1.1-0.17c0.14,0,0.28,0.01,0.42,0.04s0.25,0.06,0.33,0.09v-1.74c0.07-0.02,0.19-0.04,0.34-0.07
	c0.16-0.02,0.32-0.04,0.48-0.04c0.16,0,0.3,0.01,0.42,0.03c0.13,0.02,0.23,0.06,0.32,0.13c0.09,0.06,0.15,0.15,0.19,0.26
	c0.04,0.11,0.06,0.26,0.06,0.43v5.08c0,0.34-0.16,0.6-0.47,0.8c-0.21,0.14-0.48,0.25-0.8,0.36c-0.33,0.1-0.71,0.16-1.14,0.16
	c-0.46,0-0.88-0.06-1.25-0.19c-0.37-0.13-0.68-0.31-0.93-0.56s-0.45-0.53-0.58-0.87S45.24,95.24,45.24,94.81z M48.29,93.47
	c-0.39,0-0.68,0.11-0.89,0.33c-0.21,0.22-0.31,0.56-0.31,1.01c0,0.44,0.1,0.78,0.29,1c0.19,0.23,0.47,0.34,0.84,0.34
	c0.13,0,0.25-0.02,0.35-0.06s0.18-0.08,0.24-0.13V93.6C48.66,93.51,48.49,93.47,48.29,93.47z"/>
<path class="st2" d="M54.04,97.59c-0.42,0-0.81-0.06-1.17-0.18c-0.36-0.12-0.68-0.29-0.94-0.53s-0.48-0.53-0.63-0.89
	s-0.23-0.78-0.23-1.25c0-0.47,0.08-0.88,0.23-1.22c0.15-0.34,0.36-0.62,0.61-0.84c0.25-0.22,0.54-0.38,0.86-0.48
	s0.65-0.16,0.99-0.16c0.38,0,0.72,0.06,1.04,0.17c0.31,0.11,0.58,0.27,0.8,0.47c0.23,0.2,0.4,0.44,0.53,0.72
	c0.13,0.28,0.19,0.58,0.19,0.91c0,0.24-0.07,0.43-0.2,0.56c-0.14,0.13-0.33,0.21-0.57,0.25l-2.65,0.4c0.08,0.24,0.24,0.41,0.48,0.53
	c0.24,0.12,0.52,0.18,0.84,0.18c0.29,0,0.57-0.04,0.83-0.11c0.26-0.08,0.47-0.16,0.64-0.26c0.11,0.07,0.21,0.17,0.29,0.3
	s0.12,0.26,0.12,0.41c0,0.32-0.15,0.56-0.45,0.72c-0.23,0.12-0.49,0.2-0.77,0.25C54.56,97.57,54.29,97.59,54.04,97.59z M53.74,93.37
	c-0.17,0-0.32,0.03-0.44,0.09c-0.13,0.06-0.23,0.13-0.31,0.22c-0.08,0.09-0.14,0.19-0.18,0.3c-0.04,0.11-0.06,0.22-0.07,0.34
	l1.83-0.3c-0.02-0.14-0.1-0.29-0.24-0.43C54.21,93.44,54,93.37,53.74,93.37z"/>
<path class="st2" d="M57.17,97.42c-0.11-0.1-0.21-0.22-0.27-0.35s-0.1-0.29-0.1-0.46c0-0.14,0.03-0.28,0.1-0.42
	c0.07-0.14,0.15-0.27,0.25-0.39l1.84-2.17h-1.97c-0.04-0.08-0.08-0.18-0.12-0.3c-0.04-0.12-0.06-0.25-0.06-0.4
	c0-0.25,0.06-0.43,0.17-0.54c0.11-0.11,0.26-0.17,0.44-0.17h3.38c0.11,0.1,0.21,0.22,0.27,0.35s0.1,0.29,0.1,0.46
	c0,0.14-0.03,0.28-0.1,0.42c-0.07,0.14-0.15,0.27-0.25,0.39l-1.8,2.17h2.1c0.04,0.08,0.08,0.18,0.12,0.3
	c0.04,0.12,0.06,0.25,0.06,0.4c0,0.25-0.06,0.43-0.17,0.54c-0.11,0.11-0.26,0.17-0.44,0.17H57.17z"/>
<path class="st2" d="M64.29,92.04c0.39,0,0.74,0.04,1.06,0.12c0.32,0.08,0.59,0.2,0.81,0.36c0.23,0.16,0.4,0.37,0.52,0.61
	c0.12,0.25,0.18,0.54,0.18,0.87v2.4c0,0.19-0.05,0.34-0.16,0.46c-0.1,0.12-0.23,0.22-0.37,0.31c-0.46,0.28-1.12,0.42-1.96,0.42
	c-0.38,0-0.72-0.04-1.02-0.11c-0.3-0.07-0.56-0.18-0.78-0.32c-0.22-0.14-0.39-0.33-0.5-0.55c-0.12-0.22-0.18-0.48-0.18-0.77
	c0-0.49,0.15-0.87,0.44-1.14c0.29-0.26,0.75-0.43,1.36-0.49l1.4-0.15v-0.08c0-0.21-0.09-0.36-0.27-0.45
	c-0.18-0.09-0.44-0.13-0.79-0.13c-0.27,0-0.54,0.03-0.79,0.09s-0.49,0.13-0.7,0.21c-0.09-0.06-0.17-0.16-0.24-0.29
	c-0.06-0.13-0.1-0.27-0.1-0.41c0-0.19,0.04-0.33,0.13-0.45c0.09-0.11,0.23-0.21,0.41-0.28c0.21-0.08,0.45-0.14,0.73-0.17
	C63.77,92.06,64.04,92.04,64.29,92.04z M64.37,96.26c0.12,0,0.26-0.01,0.4-0.04c0.15-0.03,0.26-0.06,0.33-0.1v-0.86l-0.77,0.06
	c-0.2,0.01-0.36,0.06-0.49,0.13c-0.13,0.07-0.19,0.18-0.19,0.32s0.06,0.26,0.17,0.35C63.92,96.21,64.11,96.26,64.37,96.26z"/>
<path class="st2" d="M69.46,94.81c0-0.47,0.07-0.88,0.21-1.23c0.14-0.35,0.34-0.63,0.6-0.86c0.25-0.23,0.55-0.4,0.89-0.51
	c0.34-0.11,0.71-0.17,1.1-0.17c0.14,0,0.28,0.01,0.42,0.04s0.25,0.06,0.33,0.09v-1.74c0.07-0.02,0.19-0.04,0.34-0.07
	c0.16-0.02,0.32-0.04,0.48-0.04c0.16,0,0.3,0.01,0.42,0.03c0.13,0.02,0.23,0.06,0.32,0.13c0.09,0.06,0.15,0.15,0.19,0.26
	c0.04,0.11,0.06,0.26,0.06,0.43v5.08c0,0.34-0.16,0.6-0.47,0.8c-0.21,0.14-0.48,0.25-0.8,0.36c-0.33,0.1-0.71,0.16-1.14,0.16
	c-0.46,0-0.88-0.06-1.25-0.19c-0.37-0.13-0.68-0.31-0.93-0.56s-0.45-0.53-0.58-0.87S69.46,95.24,69.46,94.81z M72.5,93.47
	c-0.39,0-0.68,0.11-0.89,0.33c-0.21,0.22-0.31,0.56-0.31,1.01c0,0.44,0.1,0.78,0.29,1c0.19,0.23,0.47,0.34,0.84,0.34
	c0.13,0,0.25-0.02,0.35-0.06s0.18-0.08,0.24-0.13V93.6C72.88,93.51,72.71,93.47,72.5,93.47z"/>
<path class="st2" d="M78.54,97.59c-0.42,0-0.81-0.06-1.17-0.18c-0.36-0.12-0.68-0.29-0.94-0.53s-0.48-0.53-0.63-0.89
	s-0.23-0.78-0.23-1.25c0-0.47,0.08-0.88,0.23-1.22c0.15-0.34,0.36-0.62,0.61-0.84c0.25-0.22,0.54-0.38,0.86-0.48
	s0.65-0.16,0.99-0.16c0.38,0,0.72,0.06,1.04,0.17c0.31,0.11,0.58,0.27,0.8,0.47c0.23,0.2,0.4,0.44,0.53,0.72
	c0.13,0.28,0.19,0.58,0.19,0.91c0,0.24-0.07,0.43-0.2,0.56c-0.14,0.13-0.33,0.21-0.57,0.25l-2.65,0.4c0.08,0.24,0.24,0.41,0.48,0.53
	c0.24,0.12,0.52,0.18,0.84,0.18c0.29,0,0.57-0.04,0.83-0.11c0.26-0.08,0.47-0.16,0.64-0.26c0.11,0.07,0.21,0.17,0.29,0.3
	s0.12,0.26,0.12,0.41c0,0.32-0.15,0.56-0.45,0.72c-0.23,0.12-0.49,0.2-0.77,0.25C79.06,97.57,78.79,97.59,78.54,97.59z M78.24,93.37
	c-0.17,0-0.32,0.03-0.44,0.09c-0.13,0.06-0.23,0.13-0.31,0.22c-0.08,0.09-0.14,0.19-0.18,0.3c-0.04,0.11-0.06,0.22-0.07,0.34
	l1.83-0.3c-0.02-0.14-0.1-0.29-0.24-0.43C78.71,93.44,78.5,93.37,78.24,93.37z"/>
<path class="st2" d="M88.12,95.82c-0.09,0.08-0.21,0.14-0.36,0.19s-0.32,0.07-0.51,0.07c-0.26,0-0.47-0.03-0.64-0.1
	c-0.17-0.06-0.28-0.18-0.33-0.33c-0.2-0.63-0.36-1.14-0.49-1.53c-0.13-0.39-0.23-0.73-0.3-1.02h-0.05
	c-0.02,0.42-0.04,0.81-0.05,1.15s-0.02,0.68-0.02,1.01s-0.01,0.66-0.02,1s-0.03,0.71-0.05,1.12c-0.09,0.04-0.21,0.07-0.36,0.09
	c-0.15,0.03-0.3,0.04-0.45,0.04c-0.31,0-0.56-0.05-0.73-0.15c-0.18-0.1-0.26-0.28-0.26-0.55l0.31-5.47c0.06-0.09,0.18-0.19,0.38-0.3
	c0.19-0.11,0.46-0.16,0.81-0.16c0.38,0,0.68,0.06,0.89,0.18c0.21,0.12,0.37,0.31,0.47,0.57c0.06,0.17,0.13,0.37,0.21,0.59
	s0.15,0.45,0.23,0.69c0.08,0.24,0.15,0.47,0.22,0.7c0.07,0.23,0.14,0.44,0.19,0.63h0.05c0.17-0.6,0.34-1.18,0.51-1.74
	c0.17-0.56,0.33-1.03,0.47-1.41c0.11-0.06,0.24-0.11,0.41-0.14c0.17-0.04,0.36-0.06,0.56-0.06c0.35,0,0.64,0.05,0.86,0.16
	c0.22,0.1,0.35,0.25,0.39,0.45c0.03,0.14,0.06,0.36,0.09,0.66s0.07,0.63,0.1,1c0.04,0.37,0.07,0.76,0.11,1.18
	c0.04,0.41,0.07,0.81,0.1,1.2s0.06,0.73,0.08,1.05s0.04,0.56,0.04,0.73c-0.12,0.07-0.25,0.12-0.38,0.16
	c-0.13,0.03-0.3,0.05-0.51,0.05c-0.27,0-0.5-0.05-0.69-0.14c-0.19-0.09-0.29-0.28-0.3-0.55c-0.04-0.78-0.07-1.48-0.08-2.1
	s-0.03-1.14-0.05-1.57h-0.05c-0.07,0.28-0.18,0.63-0.31,1.05C88.47,94.62,88.31,95.16,88.12,95.82z"/>
<path class="st2" d="M94.64,97.59c-0.42,0-0.81-0.06-1.17-0.18c-0.36-0.12-0.68-0.29-0.94-0.53s-0.48-0.53-0.63-0.89
	s-0.23-0.78-0.23-1.25c0-0.47,0.08-0.88,0.23-1.22c0.15-0.34,0.36-0.62,0.61-0.84c0.25-0.22,0.54-0.38,0.86-0.48
	s0.65-0.16,0.99-0.16c0.38,0,0.72,0.06,1.04,0.17c0.31,0.11,0.58,0.27,0.8,0.47c0.23,0.2,0.4,0.44,0.53,0.72
	c0.13,0.28,0.19,0.58,0.19,0.91c0,0.24-0.07,0.43-0.2,0.56c-0.14,0.13-0.33,0.21-0.57,0.25l-2.65,0.4c0.08,0.24,0.24,0.41,0.48,0.53
	c0.24,0.12,0.52,0.18,0.84,0.18c0.29,0,0.57-0.04,0.83-0.11c0.26-0.08,0.47-0.16,0.64-0.26c0.11,0.07,0.21,0.17,0.29,0.3
	s0.12,0.26,0.12,0.41c0,0.32-0.15,0.56-0.45,0.72c-0.23,0.12-0.49,0.2-0.77,0.25C95.16,97.57,94.89,97.59,94.64,97.59z M94.53,89.44
	c0.37,0,0.64,0.07,0.81,0.21c0.17,0.14,0.25,0.31,0.25,0.51c0,0.19-0.05,0.34-0.15,0.47s-0.26,0.25-0.49,0.37l-1.38,0.73
	c-0.21-0.02-0.4-0.11-0.55-0.26c-0.15-0.15-0.23-0.31-0.23-0.48c0-0.08,0.02-0.17,0.06-0.26c0.04-0.09,0.11-0.16,0.21-0.24
	L94.53,89.44z M94.34,93.37c-0.17,0-0.32,0.03-0.44,0.09c-0.13,0.06-0.23,0.13-0.31,0.22c-0.08,0.09-0.14,0.19-0.18,0.3
	c-0.04,0.11-0.06,0.22-0.07,0.34l1.83-0.3c-0.02-0.14-0.1-0.29-0.24-0.43C94.81,93.44,94.6,93.37,94.34,93.37z"/>
<path class="st2" d="M97.29,93.05c0.06-0.27,0.17-0.49,0.34-0.67s0.38-0.26,0.63-0.26c0.24,0,0.42,0.06,0.55,0.17
	c0.13,0.11,0.27,0.28,0.43,0.48l0.69,0.9l1.15-1.56c0.39,0,0.7,0.07,0.93,0.21c0.23,0.14,0.34,0.33,0.34,0.56
	c0,0.09-0.01,0.18-0.04,0.25s-0.06,0.15-0.11,0.23c-0.05,0.08-0.11,0.17-0.19,0.27c-0.08,0.1-0.17,0.22-0.28,0.35l-0.71,0.79
	l1.4,1.85c-0.04,0.27-0.14,0.49-0.32,0.64s-0.39,0.24-0.64,0.24c-0.27-0.01-0.49-0.09-0.65-0.24c-0.16-0.15-0.32-0.33-0.47-0.55
	l-0.58-0.83l-1.09,1.58c-0.04,0-0.08,0-0.12,0c-0.04,0-0.08,0.01-0.11,0.01c-0.36,0-0.64-0.08-0.83-0.23s-0.28-0.34-0.28-0.56
	c0-0.17,0.04-0.32,0.12-0.46c0.08-0.13,0.22-0.31,0.42-0.54l0.86-1L97.29,93.05z"/>
<path class="st2" d="M102.94,90.76c0-0.27,0.09-0.5,0.27-0.69c0.18-0.19,0.42-0.28,0.72-0.28s0.54,0.09,0.72,0.28
	c0.18,0.19,0.27,0.42,0.27,0.69s-0.09,0.5-0.27,0.69c-0.18,0.19-0.42,0.28-0.72,0.28s-0.54-0.09-0.72-0.28
	C103.03,91.26,102.94,91.03,102.94,90.76z M104.85,97.41c-0.08,0.01-0.19,0.03-0.35,0.06c-0.15,0.03-0.31,0.04-0.47,0.04
	s-0.3-0.01-0.42-0.03c-0.13-0.02-0.23-0.06-0.32-0.13s-0.15-0.15-0.2-0.26c-0.05-0.11-0.07-0.26-0.07-0.43v-4.36
	c0.08-0.01,0.19-0.03,0.35-0.06c0.15-0.03,0.31-0.04,0.47-0.04s0.3,0.01,0.42,0.03s0.23,0.06,0.32,0.13
	c0.09,0.06,0.15,0.15,0.2,0.26c0.05,0.11,0.07,0.26,0.07,0.43V97.41z"/>
<path class="st2" d="M108.82,93.48c-0.18,0-0.35,0.03-0.51,0.09c-0.16,0.06-0.3,0.14-0.42,0.25c-0.12,0.11-0.21,0.25-0.28,0.41
	c-0.07,0.16-0.11,0.36-0.11,0.58c0,0.44,0.13,0.78,0.38,1c0.25,0.22,0.56,0.33,0.93,0.33c0.21,0,0.4-0.02,0.56-0.08
	c0.16-0.05,0.3-0.1,0.42-0.16c0.14,0.1,0.25,0.21,0.32,0.33c0.07,0.12,0.11,0.26,0.11,0.42c0,0.29-0.14,0.52-0.42,0.68
	c-0.28,0.16-0.67,0.24-1.16,0.24c-0.45,0-0.86-0.07-1.22-0.2c-0.36-0.13-0.68-0.32-0.94-0.56c-0.26-0.24-0.46-0.53-0.61-0.86
	s-0.21-0.71-0.21-1.12c0-0.47,0.08-0.88,0.23-1.24c0.15-0.35,0.36-0.64,0.63-0.87c0.26-0.23,0.57-0.4,0.92-0.51s0.71-0.17,1.1-0.17
	c0.51,0,0.91,0.09,1.19,0.28c0.28,0.19,0.42,0.43,0.42,0.72c0,0.14-0.03,0.26-0.1,0.38c-0.06,0.12-0.14,0.22-0.23,0.31
	c-0.12-0.06-0.27-0.11-0.44-0.17C109.21,93.51,109.02,93.48,108.82,93.48z"/>
<path class="st2" d="M116.18,94.81c0,0.44-0.07,0.84-0.2,1.18s-0.33,0.64-0.57,0.87c-0.25,0.24-0.54,0.42-0.88,0.54
	c-0.34,0.12-0.73,0.18-1.15,0.18c-0.42,0-0.8-0.06-1.15-0.19s-0.64-0.31-0.88-0.55c-0.25-0.24-0.44-0.53-0.57-0.87
	c-0.14-0.34-0.2-0.73-0.2-1.16c0-0.42,0.07-0.8,0.2-1.15c0.14-0.34,0.33-0.63,0.57-0.87s0.54-0.42,0.88-0.55s0.73-0.19,1.15-0.19
	c0.42,0,0.8,0.07,1.15,0.2c0.34,0.13,0.64,0.32,0.88,0.56c0.25,0.24,0.44,0.53,0.57,0.87C116.11,94.02,116.18,94.4,116.18,94.81z
	 M112.43,94.81c0,0.44,0.08,0.77,0.25,1c0.17,0.23,0.4,0.35,0.7,0.35s0.53-0.12,0.69-0.35c0.16-0.24,0.24-0.57,0.24-1
	c0-0.43-0.08-0.76-0.25-0.99s-0.4-0.35-0.7-0.35s-0.53,0.12-0.7,0.35S112.43,94.38,112.43,94.81z"/>
<radialGradient id="SVGID_2_" cx="25.4976" cy="52.5863" r="18.7032" fx="6.7948" fy="52.7087" gradientUnits="userSpaceOnUse">
	<stop  offset="0" style="stop-color:#99DCFF"/>
	<stop  offset="0.22" style="stop-color:#99DCFF"/>
	<stop  offset="0.47" style="stop-color:#9BDDFF"/>
	<stop  offset="0.61" style="stop-color:#A4E0FF"/>
	<stop  offset="0.72" style="stop-color:#B1E4FF"/>
	<stop  offset="0.82" style="stop-color:#C5EBFF"/>
	<stop  offset="0.91" style="stop-color:#DEF4FF"/>
	<stop  offset="1" style="stop-color:#FDFEFF"/>
	<stop  offset="1" style="stop-color:#FFFFFF"/>
</radialGradient>
<path class="st3" d="M29.25,45.61c-2.54,0.78-4.88,2.07-6.9,3.8c-2.03,1.76-3.69,3.9-4.9,6.3c-1.31,2.78-1.92,5.83-1.8,8.9
	c-0.04,2.95,0.54,5.88,1.7,8.6c1.07,2.38,2.64,4.49,4.6,6.2c2,1.68,4.31,2.94,6.8,3.7c2.72,0.82,5.56,1.22,8.4,1.2
	c1.1,0,2.3-0.1,3.4-0.2s2.2-0.3,3.3-0.5c0.98-0.21,1.95-0.47,2.9-0.8c0.77-0.23,1.51-0.57,2.2-1c0.83-0.47,1.57-1.08,2.2-1.8
	c0.55-0.86,0.8-1.88,0.7-2.9v-12.8c0.24-1.92-1.13-3.66-3.05-3.9c-0.28-0.03-0.57-0.03-0.85,0h-10.5c-1-0.05-1.98,0.31-2.7,1
	c-0.76,0.88-1.12,2.04-1,3.2c0,0.81,0.1,1.62,0.3,2.4c0.16,0.62,0.4,1.23,0.7,1.8h6.7v5.9c-0.51,0.25-1.05,0.45-1.6,0.6
	c-0.78,0.21-1.59,0.31-2.4,0.3c-1.37,0.02-2.72-0.22-4-0.7c-1.23-0.43-2.35-1.11-3.3-2c-1.01-0.95-1.8-2.11-2.3-3.4
	c-0.6-1.59-0.88-3.3-0.8-5c0-3.5,1-6.3,3.1-8.3c2.25-2.07,5.24-3.15,8.3-3c1.81-0.03,3.6,0.28,5.3,0.9c1.35,0.48,2.66,1.09,3.9,1.8
	c0.73-0.53,1.37-1.17,1.9-1.9c0.53-0.84,0.81-1.81,0.8-2.8c0-2-1.2-3.7-3.5-5s-5.4-1.9-9.4-1.9C34.66,44.32,31.9,44.76,29.25,45.61"
	/>
<radialGradient id="SVGID_3_" cx="94.5959" cy="51.2591" r="26.2724" gradientUnits="userSpaceOnUse">
	<stop  offset="0" style="stop-color:#99DCFF"/>
	<stop  offset="0.22" style="stop-color:#99DCFF"/>
	<stop  offset="0.36" style="stop-color:#9EDEFF"/>
	<stop  offset="0.52" style="stop-color:#ACE2FF"/>
	<stop  offset="0.69" style="stop-color:#C3EAFF"/>
	<stop  offset="0.87" style="stop-color:#E4F6FF"/>
	<stop  offset="1" style="stop-color:#FFFFFF"/>
</radialGradient>
<path class="st4" d="M93.75,64.41c0-4.86,3.94-8.8,8.8-8.8c4.86,0,8.8,3.94,8.8,8.8c0,4.86-3.94,8.8-8.8,8.8
	C97.69,73.2,93.75,69.26,93.75,64.41 M82.55,64.41c0,11.1,9,20.1,20.1,20.1s20.1-9,20.1-20.1s-9-20.1-20.1-20.1l0,0
	C91.55,44.31,82.55,53.3,82.55,64.41"/>
<radialGradient id="SVGID_4_" cx="58.2935" cy="45.1936" r="26.6896" gradientUnits="userSpaceOnUse">
	<stop  offset="0" style="stop-color:#99DCFF"/>
	<stop  offset="0.22" style="stop-color:#99DCFF"/>
	<stop  offset="0.36" style="stop-color:#9EDEFF"/>
	<stop  offset="0.52" style="stop-color:#ACE2FF"/>
	<stop  offset="0.69" style="stop-color:#C3EAFF"/>
	<stop  offset="0.87" style="stop-color:#E4F6FF"/>
	<stop  offset="1" style="stop-color:#FFFFFF"/>
</radialGradient>
<path class="st5" d="M56.15,45.31c-5.5,0.1-4.1,9-4.1,9l10.5-0.1v29.2c11.2,3,11.1-3.3,11.1-3.3v-25.8h6.6c5.9,0,4.2-9,4.2-9H56.15"
	/>
<linearGradient id="SVGID_5_" gradientUnits="userSpaceOnUse" x1="18.4532" y1="59.4379" x2="38.523" y2="83.5633">
	<stop  offset="0" style="stop-color:#00702F"/>
	<stop  offset="0.17" style="stop-color:#037531"/>
	<stop  offset="0.37" style="stop-color:#0B8336"/>
	<stop  offset="0.58" style="stop-color:#199A3F"/>
	<stop  offset="0.8" style="stop-color:#2CBB4C"/>
	<stop  offset="1" style="stop-color:#42E05A"/>
</linearGradient>
<path class="st6" d="M17.45,55.91c-1.26,2.79-1.87,5.84-1.8,8.9c-0.05,2.95,0.53,5.89,1.7,8.6c1.07,2.38,2.64,4.49,4.6,6.2
	c2,1.68,4.31,2.94,6.8,3.7c2.72,0.82,5.56,1.22,8.4,1.2c1.1,0,2.3-0.1,3.4-0.2s2.2-0.3,3.3-0.5c0.98-0.21,1.95-0.47,2.9-0.8
	c0.77-0.23,1.51-0.57,2.2-1c0.4-0.3,0.8-0.5,1.2-0.8c-0.4,0-0.7-0.1-1.1-0.1c-24.8-2.7-30.2-24-30.7-26.5
	C17.96,54.97,17.65,55.41,17.45,55.91"/>
<linearGradient id="SVGID_6_" gradientUnits="userSpaceOnUse" x1="62.127" y1="74.9896" x2="72.4424" y2="84.6075">
	<stop  offset="0" style="stop-color:#FF8201"/>
	<stop  offset="1" style="stop-color:#FFB621"/>
</linearGradient>
<path class="st7" d="M62.55,83.41c11.2,3,11.1-3.3,11.1-3.3v-2.4c-4.4,0-8.5-4-11.1-7.4V83.41z"/>
<linearGradient id="SVGID_7_" gradientUnits="userSpaceOnUse" x1="105.41" y1="55.7366" x2="105.41" y2="81.7528">
	<stop  offset="0" style="stop-color:#F51FCC"/>
	<stop  offset="0.24" style="stop-color:#F624CE"/>
	<stop  offset="0.52" style="stop-color:#F832D5"/>
	<stop  offset="0.82" style="stop-color:#FC49E0"/>
	<stop  offset="1" style="stop-color:#FF5BE8"/>
</linearGradient>
<path class="st8" d="M102.55,55.61L102.55,55.61c3.06,0.01,5.89,1.6,7.5,4.2c0.01,0.08,0.05,0.15,0.1,0.2
	c0.11,0.11,0.17,0.25,0.2,0.4c0.1,0.2,0.2,0.3,0.2,0.5s0.1,0.1,0.1,0.2c0.11,0.22,0.18,0.46,0.2,0.7l0,0c0.3,1.04,0.44,2.12,0.4,3.2
	c-0.02,0.31-0.09,0.61-0.2,0.9c-0.02,0.17-0.06,0.34-0.1,0.5c-2.6,12.1-15.5,13.6-21.3,13.6c3.59,2.93,8.07,4.56,12.7,4.6
	c8.12,0.02,15.43-4.89,18.5-12.4c0.7-4.2,0.5-9-2.9-12.6c-3.7-4-7.5-5-10.4-5C105.82,54.5,104.1,54.85,102.55,55.61"/>
<path class="st2" d="M153.25,62.11c-0.7-0.2-1.3-0.5-1.9-0.7c-0.53-0.18-1.02-0.49-1.4-0.9c-0.38-0.33-0.69-0.74-0.9-1.2
	c-0.21-0.58-0.32-1.19-0.3-1.8c-0.03-1.24,0.52-2.43,1.5-3.2c1.22-0.87,2.7-1.29,4.2-1.2c0.64-0.02,1.27,0.01,1.9,0.1
	c0.52,0.06,1.02,0.2,1.5,0.4c0.4,0.18,0.74,0.45,1,0.8c0.2,0.33,0.31,0.71,0.3,1.1c0.02,0.36-0.08,0.71-0.3,1
	c-0.18,0.28-0.42,0.52-0.7,0.7c-0.44-0.25-0.91-0.46-1.4-0.6c-0.62-0.17-1.26-0.24-1.9-0.2c-0.52-0.04-1.04,0.06-1.5,0.3
	c-0.3,0.2-0.5,0.4-0.5,0.7c0.01,0.23,0.12,0.45,0.3,0.6c0.28,0.17,0.58,0.31,0.9,0.4l1.2,0.4c1.22,0.34,2.35,0.96,3.3,1.8
	c1.61,1.64,1.6,4.27-0.04,5.88c-0.11,0.11-0.23,0.22-0.36,0.32c-1.36,0.89-2.98,1.31-4.6,1.2c-0.67-0.01-1.34-0.08-2-0.2
	c-0.55-0.11-1.09-0.27-1.6-0.5c-0.42-0.18-0.8-0.46-1.1-0.8c-0.29-0.33-0.44-0.76-0.4-1.2c-0.02-0.44,0.12-0.86,0.4-1.2
	c0.3-0.3,0.5-0.6,0.9-0.7c0.51,0.34,1.04,0.64,1.6,0.9c0.63,0.29,1.31,0.42,2,0.4c0.57,0.08,1.14-0.06,1.6-0.4
	c0.29-0.17,0.48-0.47,0.5-0.8c0.04-0.3-0.13-0.58-0.4-0.7c-0.31-0.21-0.65-0.37-1-0.5L153.25,62.11z"/>
<path class="st2" d="M167.75,68.21c-0.85,0.03-1.7-0.11-2.5-0.4c-0.76-0.22-1.45-0.63-2-1.2c-0.6-0.56-1.08-1.24-1.4-2
	c-0.34-0.89-0.51-1.84-0.5-2.8c0-0.92,0.17-1.84,0.5-2.7c0.29-0.69,0.74-1.31,1.3-1.8c0.56-0.48,1.2-0.85,1.9-1.1
	c0.68-0.2,1.39-0.3,2.1-0.3c0.75-0.03,1.51,0.11,2.2,0.4c0.62,0.23,1.2,0.57,1.7,1c0.51,0.42,0.89,0.97,1.1,1.6
	c0.29,0.63,0.42,1.31,0.4,2c0.04,0.44-0.11,0.87-0.4,1.2c-0.32,0.32-0.75,0.5-1.2,0.5l-5.7,0.9c0.19,0.5,0.54,0.93,1,1.2
	c0.55,0.3,1.17,0.43,1.8,0.4c0.6-0.02,1.21-0.08,1.8-0.2c0.48-0.16,0.95-0.36,1.4-0.6c0.2,0.2,0.5,0.4,0.6,0.7
	c0.19,0.26,0.29,0.58,0.3,0.9c0.02,0.68-0.38,1.31-1,1.6c-0.53,0.28-1.1,0.45-1.7,0.5C168.89,68.12,168.32,68.18,167.75,68.21
	 M167.05,58.91c-0.34,0.01-0.68,0.08-1,0.2c-0.27,0.11-0.51,0.28-0.7,0.5c-0.19,0.2-0.33,0.44-0.4,0.7c-0.08,0.22-0.12,0.46-0.1,0.7
	l4-0.7c-0.04-0.35-0.22-0.68-0.5-0.9C168,59.06,167.53,58.88,167.05,58.91"/>
<path class="st2" d="M180.75,59.21c-0.37,0.01-0.75,0.08-1.1,0.2c-0.34,0.13-0.65,0.33-0.9,0.6c-0.31,0.21-0.52,0.53-0.6,0.9
	c-0.17,0.41-0.24,0.86-0.2,1.3c-0.04,0.81,0.25,1.61,0.8,2.2c0.54,0.49,1.27,0.75,2,0.7c0.41,0,0.81-0.07,1.2-0.2
	c0.32-0.09,0.62-0.23,0.9-0.4c0.26,0.21,0.49,0.44,0.7,0.7c0.16,0.27,0.23,0.59,0.2,0.9c-0.01,0.62-0.36,1.2-0.9,1.5
	c-0.77,0.41-1.64,0.58-2.5,0.5c-0.88,0.04-1.77-0.1-2.6-0.4c-0.74-0.26-1.42-0.66-2-1.2c-0.58-0.52-1.02-1.17-1.3-1.9
	c-0.33-0.79-0.5-1.64-0.5-2.5c0-0.92,0.17-1.84,0.5-2.7c0.29-0.75,0.77-1.4,1.4-1.9c0.57-0.52,1.26-0.9,2-1.1
	c0.76-0.29,1.58-0.43,2.4-0.4c0.91-0.05,1.81,0.16,2.6,0.6c0.57,0.33,0.91,0.94,0.9,1.6c-0.01,0.28-0.07,0.55-0.2,0.8
	c-0.11,0.27-0.28,0.51-0.5,0.7c-0.32-0.09-0.62-0.23-0.9-0.4C181.69,59.22,181.22,59.19,180.75,59.21"/>
<path class="st2" d="M189.75,67.81c-0.2,0-0.4,0.1-0.7,0.1s-0.7,0.1-1,0.1c-0.3,0.02-0.61-0.02-0.9-0.1c-0.27,0.01-0.52-0.1-0.7-0.3
	c-0.21-0.14-0.35-0.35-0.4-0.6c-0.13-0.32-0.2-0.66-0.2-1v-7.1c0-0.31,0.06-0.62,0.2-0.9c0.11-0.3,0.32-0.54,0.6-0.7
	c0.28-0.22,0.58-0.42,0.9-0.6c0.38-0.18,0.79-0.31,1.2-0.4c0.4-0.1,0.8-0.2,1.3-0.3c0.43-0.08,0.86-0.11,1.3-0.1
	c0.63-0.03,1.25,0.1,1.8,0.4c0.41,0.34,0.64,0.86,0.6,1.4c0.02,0.21-0.02,0.41-0.1,0.6c-0.1,0.2-0.1,0.4-0.2,0.6h-1
	c-0.3,0-0.7,0.1-1,0.1s-0.6,0.1-0.9,0.2c-0.22,0.1-0.46,0.17-0.7,0.2v8.4H189.75z"/>
<path class="st2" d="M200.75,68.21c-0.85,0.03-1.7-0.11-2.5-0.4c-0.76-0.22-1.45-0.63-2-1.2c-0.6-0.56-1.08-1.24-1.4-2
	c-0.34-0.89-0.51-1.84-0.5-2.8c0-0.92,0.17-1.84,0.5-2.7c0.29-0.69,0.74-1.31,1.3-1.8c0.56-0.48,1.2-0.85,1.9-1.1
	c0.68-0.2,1.39-0.3,2.1-0.3c0.75-0.03,1.51,0.11,2.2,0.4c0.61,0.25,1.18,0.59,1.7,1c0.51,0.42,0.89,0.97,1.1,1.6
	c0.29,0.63,0.42,1.31,0.4,2c0.04,0.44-0.11,0.87-0.4,1.2c-0.32,0.32-0.75,0.5-1.2,0.5l-5.7,0.9c0.19,0.5,0.54,0.93,1,1.2
	c0.55,0.3,1.17,0.43,1.8,0.4c0.6-0.02,1.21-0.08,1.8-0.2c0.48-0.16,0.95-0.36,1.4-0.6c0.2,0.2,0.5,0.4,0.6,0.7
	c0.19,0.26,0.29,0.58,0.3,0.9c0.02,0.68-0.38,1.31-1,1.6c-0.53,0.28-1.1,0.45-1.7,0.5C201.89,68.13,201.32,68.19,200.75,68.21
	 M200.15,58.91c-0.34,0.01-0.68,0.08-1,0.2c-0.27,0.11-0.51,0.28-0.7,0.5c-0.19,0.2-0.33,0.44-0.4,0.7c-0.08,0.22-0.12,0.46-0.1,0.7
	l4-0.7c-0.04-0.35-0.22-0.68-0.5-0.9C201.1,59.06,200.63,58.88,200.15,58.91"/>
<path class="st2" d="M211.45,63.91c-0.03,0.35,0.12,0.69,0.4,0.9c0.32,0.22,0.71,0.32,1.1,0.3c0.24,0.02,0.48-0.02,0.7-0.1
	c0.22,0,0.42-0.07,0.6-0.2c0.1,0.2,0.3,0.4,0.4,0.6c0.09,0.26,0.12,0.53,0.1,0.8c0.02,0.58-0.24,1.14-0.7,1.5
	c-0.67,0.48-1.49,0.69-2.3,0.6c-1.11,0.09-2.21-0.23-3.1-0.9c-0.79-0.83-1.19-1.96-1.1-3.1v-10.1c0.24-0.03,0.48-0.1,0.7-0.2
	c0.33-0.08,0.66-0.12,1-0.1c0.56-0.05,1.13,0.09,1.6,0.4c0.45,0.36,0.68,0.93,0.6,1.5v1.5h3l0.3,0.6c0.09,0.29,0.12,0.6,0.1,0.9
	c0.06,0.44-0.09,0.88-0.4,1.2c-0.27,0.25-0.63,0.39-1,0.4h-2.1v3.5L211.45,63.91z"/>
<path class="st2" d="M221.45,56.01c0.78-0.01,1.55,0.1,2.3,0.3c0.65,0.14,1.26,0.42,1.8,0.8c0.47,0.33,0.85,0.78,1.1,1.3
	c0.3,0.59,0.43,1.24,0.4,1.9v5.3c0.01,0.36-0.1,0.71-0.3,1c-0.22,0.28-0.49,0.52-0.8,0.7c-1.29,0.67-2.74,0.98-4.2,0.9
	c-0.74-0.01-1.47-0.07-2.2-0.2c-0.6-0.15-1.17-0.39-1.7-0.7c-0.46-0.3-0.84-0.71-1.1-1.2c-0.28-0.52-0.42-1.11-0.4-1.7
	c-0.06-0.92,0.27-1.83,0.9-2.5c0.83-0.65,1.84-1.04,2.9-1.1l3-0.3v-0.2c0.04-0.43-0.21-0.83-0.6-1c-0.54-0.22-1.12-0.32-1.7-0.3
	c-0.57,0.01-1.14,0.08-1.7,0.2c-0.52,0.09-1.03,0.26-1.5,0.5c-0.22-0.15-0.39-0.36-0.5-0.6c-0.11-0.29-0.18-0.59-0.2-0.9
	c-0.01-0.36,0.1-0.71,0.3-1c0.24-0.28,0.55-0.49,0.9-0.6c0.51-0.2,1.05-0.34,1.6-0.4C220.3,56.04,220.87,55.97,221.45,56.01
	 M221.65,65.31c0.3,0.02,0.61-0.02,0.9-0.1c0.3-0.1,0.6-0.1,0.7-0.2v-1.9l-1.7,0.1c-0.39-0.01-0.77,0.1-1.1,0.3
	c-0.26,0.14-0.41,0.41-0.4,0.7c-0.02,0.32,0.14,0.62,0.4,0.8C220.8,65.25,221.22,65.36,221.65,65.31"/>
<path class="st2" d="M233.35,67.81c-0.2,0-0.4,0.1-0.7,0.1s-0.7,0.1-1,0.1c-0.3,0.02-0.61-0.02-0.9-0.1c-0.27,0.01-0.52-0.1-0.7-0.3
	c-0.21-0.14-0.35-0.35-0.4-0.6c-0.09-0.32-0.13-0.66-0.1-1v-7.1c0-0.31,0.06-0.62,0.2-0.9c0.11-0.3,0.32-0.54,0.6-0.7
	c0.28-0.22,0.58-0.42,0.9-0.6c0.38-0.18,0.79-0.31,1.2-0.4c0.4-0.1,0.8-0.2,1.3-0.3c0.43-0.08,0.86-0.12,1.3-0.1
	c0.63-0.03,1.25,0.1,1.8,0.4c0.41,0.34,0.64,0.86,0.6,1.4c0.02,0.21-0.02,0.41-0.1,0.6c-0.1,0.2-0.1,0.4-0.2,0.6h-1
	c-0.3,0-0.7,0.1-1,0.1s-0.6,0.1-0.9,0.2c-0.22,0.1-0.46,0.17-0.7,0.2v8.4H233.35z"/>
<path class="st2" d="M242.35,50.31c0.61-0.05,1.22,0.13,1.7,0.5c0.34,0.26,0.53,0.67,0.5,1.1c0.02,0.36-0.08,0.71-0.3,1
	c-0.31,0.34-0.68,0.61-1.1,0.8l-3,1.6c-0.47,0.01-0.92-0.21-1.2-0.6c-0.3-0.29-0.48-0.68-0.5-1.1c-0.02-0.21,0.02-0.41,0.1-0.6
	c0.08-0.23,0.27-0.42,0.5-0.5L242.35,50.31z M242.95,67.81c-0.2,0-0.4,0.1-0.8,0.1c-0.33,0.08-0.66,0.12-1,0.1
	c-0.3,0.02-0.61-0.02-0.9-0.1c-0.27,0.01-0.52-0.1-0.7-0.3c-0.21-0.14-0.35-0.35-0.4-0.6c-0.13-0.32-0.2-0.66-0.2-1v-9.6
	c0.2,0,0.4-0.1,0.8-0.1c0.33-0.08,0.66-0.12,1-0.1c0.3-0.02,0.61,0.02,0.9,0.1c0.27-0.01,0.52,0.1,0.7,0.3
	c0.21,0.14,0.35,0.35,0.4,0.6c0.13,0.32,0.2,0.66,0.2,1V67.81z"/>
<path class="st2" d="M250.05,56.01c0.78-0.01,1.55,0.1,2.3,0.3c0.65,0.14,1.26,0.42,1.8,0.8c0.47,0.33,0.85,0.78,1.1,1.3
	c0.3,0.59,0.43,1.24,0.4,1.9v5.3c0.01,0.36-0.1,0.71-0.3,1c-0.22,0.28-0.49,0.52-0.8,0.7c-1.29,0.67-2.74,0.98-4.2,0.9
	c-0.74-0.01-1.47-0.07-2.2-0.2c-0.6-0.15-1.17-0.39-1.7-0.7c-0.46-0.3-0.84-0.71-1.1-1.2c-0.28-0.52-0.42-1.11-0.4-1.7
	c-0.06-0.92,0.27-1.83,0.9-2.5c0.83-0.65,1.84-1.04,2.9-1.1l3-0.3v-0.2c0.04-0.43-0.21-0.83-0.6-1c-0.54-0.22-1.12-0.32-1.7-0.3
	c-0.57,0.01-1.14,0.08-1.7,0.2c-0.52,0.09-1.03,0.26-1.5,0.5c-0.22-0.15-0.39-0.36-0.5-0.6c-0.11-0.29-0.18-0.59-0.2-0.9
	c-0.01-0.36,0.1-0.71,0.3-1c0.24-0.28,0.55-0.49,0.9-0.6c0.51-0.2,1.05-0.34,1.6-0.4C248.9,56.05,249.47,55.98,250.05,56.01
	 M250.25,65.31c0.3,0.02,0.61-0.02,0.9-0.1c0.3-0.1,0.6-0.1,0.7-0.2v-1.9l-1.7,0.1c-0.39-0.01-0.77,0.1-1.1,0.3
	c-0.26,0.14-0.41,0.41-0.4,0.7c-0.02,0.32,0.14,0.62,0.4,0.8C249.4,65.25,249.82,65.36,250.25,65.31"/>
<path class="st2" d="M148.95,81.81c0-0.92,0.17-1.84,0.5-2.7c0.25-0.74,0.7-1.4,1.3-1.9c0.53-0.52,1.19-0.89,1.9-1.1
	c0.78-0.25,1.59-0.38,2.4-0.4c0.3-0.02,0.61,0.02,0.9,0.1c0.24,0.05,0.47,0.12,0.7,0.2v-3.8c0.24-0.03,0.48-0.1,0.7-0.2
	c0.33-0.08,0.66-0.12,1-0.1c0.3-0.02,0.61,0.02,0.9,0.1c0.27-0.01,0.52,0.1,0.7,0.3c0.21,0.14,0.35,0.35,0.4,0.6
	c0.09,0.32,0.13,0.66,0.1,1v11.2c0,0.73-0.38,1.41-1,1.8c-0.52,0.36-1.09,0.63-1.7,0.8c-0.82,0.22-1.66,0.32-2.5,0.3
	c-0.92,0.03-1.83-0.11-2.7-0.4c-0.74-0.26-1.42-0.66-2-1.2c-0.55-0.53-0.96-1.18-1.2-1.9C149.06,83.64,148.92,82.72,148.95,81.81
	 M155.55,78.91c-0.71-0.07-1.4,0.19-1.9,0.7c-0.9,1.32-0.94,3.04-0.1,4.4c0.45,0.51,1.12,0.77,1.8,0.7c0.47,0.06,0.94-0.09,1.3-0.4
	v-5.2C156.29,78.98,155.92,78.91,155.55,78.91"/>
<path class="st2" d="M168.95,87.91c-0.85,0.03-1.7-0.11-2.5-0.4c-0.76-0.22-1.45-0.63-2-1.2c-0.6-0.56-1.08-1.24-1.4-2
	c-0.34-0.89-0.51-1.84-0.5-2.8c0-0.92,0.17-1.84,0.5-2.7c0.29-0.69,0.74-1.31,1.3-1.8c0.56-0.48,1.2-0.85,1.9-1.1
	c0.68-0.2,1.39-0.3,2.1-0.3c0.75-0.03,1.51,0.11,2.2,0.4c0.62,0.23,1.2,0.57,1.7,1c0.51,0.42,0.89,0.97,1.1,1.6
	c0.29,0.63,0.42,1.31,0.4,2c0.04,0.44-0.11,0.87-0.4,1.2c-0.32,0.32-0.75,0.5-1.2,0.5l-5.7,0.9c0.19,0.5,0.54,0.93,1,1.2
	c0.55,0.3,1.17,0.43,1.8,0.4c0.6-0.02,1.21-0.08,1.8-0.2c0.48-0.16,0.95-0.36,1.4-0.6c0.2,0.2,0.5,0.4,0.6,0.7
	c0.19,0.26,0.29,0.58,0.3,0.9c0.02,0.68-0.38,1.31-1,1.6c-0.53,0.28-1.1,0.45-1.7,0.5C170.1,87.87,169.52,87.93,168.95,87.91
	 M168.25,78.71c-0.34,0.01-0.68,0.08-1,0.2c-0.27,0.11-0.51,0.28-0.7,0.5c-0.19,0.2-0.33,0.44-0.4,0.7c-0.08,0.22-0.12,0.46-0.1,0.7
	l4-0.7c-0.04-0.35-0.22-0.68-0.5-0.9C169.23,78.83,168.74,78.64,168.25,78.71"/>
<path class="st2" d="M184.65,81.91c-0.7-0.2-1.3-0.5-1.9-0.7c-0.53-0.18-1.02-0.49-1.4-0.9c-0.38-0.33-0.69-0.74-0.9-1.2
	c-0.21-0.58-0.32-1.19-0.3-1.8c-0.03-1.24,0.52-2.43,1.5-3.2c1.22-0.87,2.7-1.29,4.2-1.2c0.64-0.02,1.27,0.01,1.9,0.1
	c0.52,0.06,1.02,0.2,1.5,0.4c0.4,0.18,0.74,0.45,1,0.8c0.2,0.33,0.31,0.71,0.3,1.1c0.02,0.36-0.08,0.71-0.3,1
	c-0.18,0.28-0.42,0.52-0.7,0.7c-0.44-0.25-0.91-0.46-1.4-0.6c-0.62-0.17-1.26-0.24-1.9-0.2c-0.52-0.04-1.04,0.06-1.5,0.3
	c-0.3,0.2-0.5,0.4-0.5,0.7c0.01,0.23,0.12,0.45,0.3,0.6c0.28,0.17,0.58,0.31,0.9,0.4l1.2,0.4c1.21,0.37,2.34,0.98,3.3,1.8
	c1.61,1.64,1.6,4.27-0.04,5.88c-0.11,0.11-0.23,0.22-0.36,0.32c-1.36,0.89-2.98,1.31-4.6,1.2c-0.67-0.01-1.34-0.08-2-0.2
	c-0.55-0.11-1.09-0.27-1.6-0.5c-0.42-0.18-0.8-0.46-1.1-0.8c-0.29-0.33-0.44-0.76-0.4-1.2c-0.02-0.44,0.12-0.86,0.4-1.2
	c0.3-0.3,0.5-0.6,0.9-0.7c0.51,0.34,1.04,0.64,1.6,0.9c0.63,0.29,1.31,0.42,2,0.4c0.57,0.08,1.14-0.06,1.6-0.4
	c0.29-0.17,0.48-0.47,0.5-0.8c0.04-0.3-0.13-0.58-0.4-0.7c-0.31-0.21-0.65-0.37-1-0.5L184.65,81.91z"/>
<path class="st2" d="M197.95,75.81c0.78-0.01,1.55,0.1,2.3,0.3c0.65,0.14,1.26,0.42,1.8,0.8c0.47,0.33,0.85,0.78,1.1,1.3
	c0.3,0.59,0.43,1.24,0.4,1.9v5.3c0.01,0.36-0.1,0.71-0.3,1c-0.22,0.28-0.49,0.52-0.8,0.7c-1.29,0.67-2.74,0.98-4.2,0.9
	c-0.74-0.01-1.47-0.07-2.2-0.2c-0.6-0.15-1.17-0.39-1.7-0.7c-0.46-0.3-0.84-0.71-1.1-1.2c-0.28-0.52-0.42-1.11-0.4-1.7
	c-0.06-0.92,0.27-1.83,0.9-2.5c0.83-0.65,1.84-1.04,2.9-1.1l3-0.3v-0.2c0.04-0.43-0.21-0.83-0.6-1c-0.54-0.22-1.12-0.32-1.7-0.3
	c-0.57,0.01-1.14,0.08-1.7,0.2c-0.52,0.09-1.03,0.26-1.5,0.5c-0.22-0.15-0.39-0.36-0.5-0.6c-0.11-0.29-0.18-0.59-0.2-0.9
	c-0.01-0.36,0.1-0.71,0.3-1c0.24-0.28,0.55-0.49,0.9-0.6c0.51-0.2,1.05-0.34,1.6-0.4C196.8,75.84,197.37,75.77,197.95,75.81
	 M198.15,85.01c0.3,0.02,0.61-0.02,0.9-0.1c0.3-0.1,0.6-0.1,0.7-0.2v-1.9l-1.7,0.1c-0.39-0.01-0.77,0.1-1.1,0.3
	c-0.26,0.14-0.41,0.41-0.4,0.7c-0.02,0.32,0.14,0.62,0.4,0.8C197.3,84.95,197.72,85.06,198.15,85.01"/>
<path class="st2" d="M209.85,87.51c-0.2,0-0.4,0.1-0.8,0.1c-0.33,0.08-0.66,0.12-1,0.1c-0.3,0.02-0.61-0.02-0.9-0.1
	c-0.27,0.01-0.52-0.1-0.7-0.3c-0.21-0.14-0.35-0.35-0.4-0.6c-0.09-0.32-0.13-0.66-0.1-1v-13.7c0.2,0,0.4-0.1,0.8-0.1
	c0.33-0.08,0.66-0.12,1-0.1c0.3-0.02,0.61,0.02,0.9,0.1c0.27-0.01,0.52,0.1,0.7,0.3c0.21,0.14,0.35,0.35,0.4,0.6
	c0.13,0.32,0.2,0.66,0.2,1v13.7H209.85z"/>
<path class="st2" d="M212.35,76.31c0.2,0,0.4-0.1,0.7-0.1s0.7-0.1,1-0.1c0.3-0.02,0.61,0.02,0.9,0.1c0.27-0.01,0.52,0.1,0.7,0.3
	c0.21,0.14,0.35,0.35,0.4,0.6c0.09,0.32,0.13,0.66,0.1,1v5.1c-0.02,0.51,0.16,1.01,0.5,1.4c0.37,0.29,0.83,0.44,1.3,0.4
	c0.3,0.02,0.61-0.01,0.9-0.1c0.2-0.1,0.4-0.1,0.5-0.2v-8.4c0.2,0,0.4-0.1,0.7-0.1s0.7-0.1,1-0.1c0.3-0.02,0.61,0.02,0.9,0.1
	c0.27-0.01,0.52,0.1,0.7,0.3c0.21,0.14,0.35,0.35,0.4,0.6c0.13,0.32,0.2,0.66,0.2,1v7.2c0.05,0.74-0.34,1.45-1,1.8
	c-0.6,0.34-1.24,0.61-1.9,0.8c-0.78,0.2-1.59,0.31-2.4,0.3c-0.78,0.01-1.55-0.1-2.3-0.3c-0.65-0.18-1.27-0.48-1.8-0.9
	c-0.5-0.41-0.91-0.92-1.2-1.5c-0.3-0.73-0.44-1.51-0.4-2.3v-6.9H212.35z"/>
<path class="st2" d="M225.35,81.81c0-0.92,0.17-1.84,0.5-2.7c0.25-0.74,0.7-1.4,1.3-1.9c0.53-0.52,1.19-0.89,1.9-1.1
	c0.78-0.25,1.59-0.38,2.4-0.4c0.3-0.02,0.61,0.02,0.9,0.1c0.24,0.05,0.47,0.12,0.7,0.2v-3.8c0.24-0.03,0.48-0.1,0.7-0.2
	c0.33-0.08,0.66-0.12,1-0.1c0.3-0.02,0.61,0.02,0.9,0.1c0.27-0.01,0.52,0.1,0.7,0.3c0.21,0.14,0.35,0.35,0.4,0.6
	c0.09,0.32,0.13,0.66,0.1,1v11.2c0,0.73-0.38,1.41-1,1.8c-0.52,0.36-1.09,0.63-1.7,0.8c-0.82,0.22-1.66,0.32-2.5,0.3
	c-0.92,0.03-1.83-0.11-2.7-0.4c-0.74-0.26-1.42-0.66-2-1.2c-0.55-0.53-0.96-1.18-1.2-1.9C225.51,83.62,225.37,82.72,225.35,81.81
	 M231.95,78.91c-0.71-0.07-1.4,0.19-1.9,0.7c-0.9,1.32-0.94,3.04-0.1,4.4c0.45,0.51,1.12,0.77,1.8,0.7c0.47,0.06,0.94-0.09,1.3-0.4
	v-5.2C232.69,78.98,232.32,78.91,231.95,78.91"/>
</svg>
