<svg xmlns="http://www.w3.org/2000/svg" viewBox="0 0 228.69 160.52"><defs><style>.cls-1{fill:#4b7373;}.cls-2{fill:#f5fafc;}.cls-3{fill:#8ba1a1;}.cls-4{fill:#ceded9;}</style></defs><g id="Capa_2" data-name="Capa 2"><g id="Capa_1-2" data-name="Capa 1"><polygon class="cls-1" points="0 53.49 79.21 47.83 76.86 67.16 0 63.39 0 53.49"/><polygon class="cls-1" points="0 104.77 80.24 99.84 78.19 116.67 0 113.39 0 104.77"/><path class="cls-2" d="M159.14,0H136.86c-40,0-74,41.88-75.63,86.21s29.69,74.31,69.71,74.31h22.28c40,0,73.77-35.93,75.4-80.26S199.15,0,159.14,0Z"/><path class="cls-3" d="M206.34,80.26c-1.63,44.33-35.39,80.26-75.4,80.26s-71.34-30-69.71-74.31S96.85,0,136.86,0,208,35.93,206.34,80.26Z"/><path class="cls-4" d="M130.94,154.86c-18.24,0-34.75-6.72-46.51-18.92-12-12.48-18.26-30.07-17.54-49.53,1.58-43,34.28-80.75,70-80.75a60.37,60.37,0,0,1,43.67,18.91c13.59,14.1,20.94,34.33,20.16,55.48C199.17,121.3,167.87,154.86,130.94,154.86Z"/><path class="cls-1" d="M95.57,135.94c-12-12.48-18.26-30.07-17.54-49.53,1.51-40.88,31.12-77,64.69-80.45-1.94-.19-3.9-.3-5.86-.3-35.69,0-68.39,37.73-70,80.75-.72,19.46,5.51,37.05,17.54,49.53,11.76,12.2,28.27,18.92,46.51,18.92,1.82,0,3.62-.1,5.41-.26C120.41,153.34,106.08,146.85,95.57,135.94Z"/><path class="cls-3" d="M152.48,89.24a70.07,70.07,0,0,0-7.12-5c-.5-.33-1.05-.59-1.57-.88,1.65-6,2.41-12.17,3.62-18.25q2.18-10.74,4.12-21.53c1.24-7.22,2.59-14.4,3.71-21.64l-.82-.21c-2.44,6.91-4.66,13.87-7,20.81s-4.46,13.92-6.59,20.9c-1.66,5.41-3.72,10.71-5.13,16.18-2-.8-4.09-1.57-6.09-2.44q-7.92-3.44-15.94-6.68c-5.39-2.09-10.71-4.29-16.14-6.29l-.39.75c4.82,3.21,9.74,6.21,14.6,9.33s9.83,6,14.79,8.95c2.56,1.5,5,3.19,7.57,4.75a86.33,86.33,0,0,0-1.1,18.62l.82.2a82.84,82.84,0,0,0,7.26-15.2c.15.06.29.14.44.19a68.94,68.94,0,0,0,8.25,2.79,45.58,45.58,0,0,0,8.85,1.62l.38-.76A45,45,0,0,0,152.48,89.24Z"/></g></g></svg>