<?xml version="1.0" encoding="utf-8"?>
<!-- Generator: Adobe Illustrator 24.0.2, SVG Export Plug-In . SVG Version: 6.00 Build 0)  -->
<svg version="1.1" id="Capa_1" xmlns="http://www.w3.org/2000/svg" xmlns:xlink="http://www.w3.org/1999/xlink" x="0px" y="0px"
	 viewBox="0 0 198.6 170" style="enable-background:new 0 0 198.6 170;" xml:space="preserve">
<style type="text/css">
	.st0{fill:#000F9F;}
	.st1{fill:#FFFFFF;}
</style>
<path class="st0" d="M41.5,163l7.9,7l31.9-24.3l86.3-3.3c0,0,31,0.8,31-33.2l-2.4-66.4c0,0,1-6.9-7.7-17.6L174.7,8.8
	c0,0-9.7-8.8-22.5-8.8L30.5,8.8c0,0-30.5,2.6-30.5,32.9l5.5,73c0,0,3.6,16.1,17.6,23c0,0,13.8,6.6,16.9,7.7L41.5,163z"/>
<path class="st1" d="M43.8,136l1.5,18.6l25.5-20.2l89.4-6.9c0,0,26.8-1.8,25-33.2l-5.4-66.1c0,0-1-23.7-29.6-24.5L26.4,13.2
	c0,0-23.7,3.1-22,30.6L9.6,114C9.6,114,13.9,140.6,43.8,136z"/>
</svg>
