<svg aria-hidden="true" focusable="false" data-prefix="fad" data-icon="user-check" role="img" xmlns="http://www.w3.org/2000/svg" viewBox="0 0 640 512" class="svg-inline--fa fa-user-check fa-w-20 fa-3x"><g class="fa-group"><path fill="currentColor" d="M636.6 159.6a12 12 0 0 1-.1 16.8L495.2 316.6a11.86 11.86 0 0 1-16.8-.1l-81.7-82.3a11.86 11.86 0 0 1 .1-16.8l28.1-27.9a11.86 11.86 0 0 1 16.8.1l45.5 45.8 104.8-104a11.86 11.86 0 0 1 16.8.1z" class="fa-secondary"></path><path fill="currentColor" d="M224 256A128 128 0 1 0 96 128a128 128 0 0 0 128 128zm89.6 32h-16.7a174.08 174.08 0 0 1-145.8 0h-16.7A134.43 134.43 0 0 0 0 422.4V464a48 48 0 0 0 48 48h352a48 48 0 0 0 48-48v-41.6A134.43 134.43 0 0 0 313.6 288z" class="fa-primary"></path></g></svg>