<?xml version="1.0" standalone="no"?>
<!DOCTYPE svg PUBLIC "-//W3C//DTD SVG 1.1//EN" "http://www.w3.org/Graphics/SVG/1.1/DTD/svg11.dtd" >
<svg xmlns="http://www.w3.org/2000/svg" xmlns:xlink="http://www.w3.org/1999/xlink" version="1.1">
<metadata>
Created by FontForge 20160405 at Thu Oct 11 12:52:53 2018
 By www-data
Copyright (c) Mark Simonson, 2005. All rights reserved.
</metadata>
<defs>
<font id="ProximaNova-Thin" horiz-adv-x="380" >
  <font-face 
    font-family="Proxima Nova Th"
    font-weight="250"
    font-stretch="normal"
    units-per-em="1000"
    panose-1="2 0 5 6 3 0 0 2 0 4"
    ascent="790"
    descent="-210"
    x-height="483"
    cap-height="667"
    bbox="-171 -258 1059 886"
    underline-thickness="20"
    underline-position="-133"
    stemh="21"
    stemv="35"
    unicode-range="U+0020-FB04"
  />
<missing-glyph horiz-adv-x="527" 
d="M439 -90h-351v842h351v-842zM407 -60v782h-288v-782h288z" />
    <glyph glyph-name="fi" unicode="fi" horiz-adv-x="448" 
d="M130 0h-30v456h-80v27h80v51c0 90 45 143 121 143c21 0 40 -3 57 -13l-13 -26c-12 7 -25 12 -44 12c-61 0 -91 -43 -91 -116v-51h98v-27h-98v-456zM347 566c-15 0 -29 13 -29 29s14 29 29 29c16 0 29 -13 29 -29s-13 -29 -29 -29zM362 0h-30v483h30v-483z" />
    <glyph glyph-name="fl" unicode="fl" horiz-adv-x="448" 
d="M130 0h-30v456h-80v27h80v51c0 90 45 143 121 143c21 0 40 -3 57 -13l-13 -26c-12 7 -25 12 -44 12c-61 0 -91 -43 -91 -116v-51h98v-27h-98v-456zM362 0h-30v667h30v-667z" />
    <glyph glyph-name="f_b" unicode="fb" horiz-adv-x="812" 
d="M130 0h-30v456h-80v27h80v51c0 90 45 143 121 143c21 0 40 -3 57 -13l-13 -26c-12 7 -25 12 -44 12c-61 0 -91 -43 -91 -116v-51h98v-27h-98v-456zM362 111c30 -51 99 -96 174 -96c118 0 183 99 183 226s-65 227 -183 227c-75 0 -144 -47 -174 -98v-259zM362 0h-30v667
h30v-267c39 57 102 95 174 95c130 0 216 -102 216 -254c0 -153 -86 -253 -216 -253c-76 0 -141 43 -174 93v-81z" />
    <glyph glyph-name="f_h" unicode="fh" horiz-adv-x="774" 
d="M130 0h-30v456h-80v27h80v51c0 90 45 143 121 143c21 0 40 -3 57 -13l-13 -26c-12 7 -25 12 -44 12c-61 0 -91 -43 -91 -116v-51h98v-27h-98v-456zM688 0h-30v339c0 101 -50 129 -125 129c-66 0 -137 -43 -171 -91v-377h-30v667h30v-260c36 44 108 88 175 88
c96 0 151 -42 151 -156v-339z" />
    <glyph glyph-name="f_k" unicode="fk" horiz-adv-x="742" 
d="M130 0h-30v456h-80v27h80v51c0 90 45 143 121 143c21 0 40 -3 57 -13l-13 -26c-12 7 -25 12 -44 12c-61 0 -91 -43 -91 -116v-51h98v-27h-98v-456zM717 0h-43l-212 243l-100 -92v-151h-30v667h30v-478l315 294h43l-235 -218z" />
    <glyph glyph-name="f_f_j" unicode="ffj" horiz-adv-x="694" 
d="M130 0h-30v456h-80v27h80v51c0 90 45 143 121 143c31 0 51 -5 82 -30l-18 -24c-17 16 -38 27 -64 27c-61 0 -91 -43 -91 -116v-51h98v-27h-98v-456zM376 0h-30v456h-80v27h80v51c0 90 45 143 121 143c21 0 40 -3 57 -13l-13 -26c-12 7 -25 12 -44 12
c-61 0 -91 -43 -91 -116v-51h98v-27h-98v-456zM593 566c-15 0 -29 13 -29 29s14 29 29 29c16 0 29 -13 29 -29s-13 -29 -29 -29zM489 -196c-38 0 -65 13 -92 38l19 25c16 -18 42 -36 73 -36c50 0 89 27 89 93v559h30v-559c0 -83 -46 -120 -119 -120z" />
    <glyph glyph-name="f_j" unicode="fj" horiz-adv-x="448" 
d="M130 0h-30v456h-80v27h80v51c0 90 45 143 121 143c21 0 40 -3 57 -13l-13 -26c-12 7 -25 12 -44 12c-61 0 -91 -43 -91 -116v-51h98v-27h-98v-456zM347 566c-15 0 -29 13 -29 29s14 29 29 29c16 0 29 -13 29 -29s-13 -29 -29 -29zM243 -196c-38 0 -65 13 -92 38l19 25
c16 -18 42 -36 73 -36c50 0 89 27 89 93v559h30v-559c0 -83 -46 -120 -119 -120z" />
    <glyph glyph-name="f_f" unicode="ff" horiz-adv-x="492" 
d="M130 0h-30v456h-80v27h80v51c0 90 45 143 121 143c31 0 51 -5 82 -30l-18 -24c-17 16 -38 27 -64 27c-61 0 -91 -43 -91 -116v-51h98v-27h-98v-456zM376 0h-30v456h-80v27h80v51c0 90 45 143 121 143c31 0 51 -5 82 -30l-18 -24c-17 16 -38 27 -64 27
c-61 0 -91 -43 -91 -116v-51h98v-27h-98v-456z" />
    <glyph glyph-name="f_f_i" unicode="ffi" horiz-adv-x="694" 
d="M130 0h-30v456h-80v27h80v51c0 90 45 143 121 143c31 0 51 -5 82 -30l-18 -24c-17 16 -38 27 -64 27c-61 0 -91 -43 -91 -116v-51h98v-27h-98v-456zM376 0h-30v456h-80v27h80v51c0 90 45 143 121 143c21 0 40 -3 57 -13l-13 -26c-12 7 -25 12 -44 12
c-61 0 -91 -43 -91 -116v-51h98v-27h-98v-456zM593 566c-15 0 -29 13 -29 29s14 29 29 29c16 0 29 -13 29 -29s-13 -29 -29 -29zM608 0h-30v483h30v-483z" />
    <glyph glyph-name="f_f_l" unicode="ffl" horiz-adv-x="694" 
d="M130 0h-30v456h-80v27h80v51c0 90 45 143 121 143c31 0 51 -5 82 -30l-18 -24c-17 16 -38 27 -64 27c-61 0 -91 -43 -91 -116v-51h98v-27h-98v-456zM376 0h-30v456h-80v27h80v51c0 90 45 143 121 143c21 0 40 -3 57 -13l-13 -26c-12 7 -25 12 -44 12
c-61 0 -91 -43 -91 -116v-51h98v-27h-98v-456zM608 0h-30v667h30v-667z" />
    <glyph glyph-name=".notdef" horiz-adv-x="527" 
d="M439 -90h-351v842h351v-842zM407 -60v782h-288v-782h288z" />
    <glyph glyph-name="space" unicode=" " horiz-adv-x="260" 
 />
    <glyph glyph-name="exclam" unicode="!" horiz-adv-x="208" 
d="M114 161h-20l-11 506h42zM104 -9c-18 0 -33 15 -33 33c0 17 15 32 33 32s33 -15 33 -32c0 -18 -15 -33 -33 -33z" />
    <glyph glyph-name="quotedbl" unicode="&#x22;" horiz-adv-x="290" 
d="M99 443h-22s-15 197 -15 208c0 14 11 26 26 26s26 -12 26 -26c0 -11 -15 -208 -15 -208zM213 443h-22s-15 197 -15 208c0 14 11 26 26 26s26 -12 26 -26c0 -11 -15 -208 -15 -208z" />
    <glyph glyph-name="numbersign" unicode="#" horiz-adv-x="567" 
d="M267 0h-33l65 191h-125l-64 -191h-33l64 191h-115l9 29h116l76 227h-117l8 29h119l63 191h33l-63 -191h124l63 191h33l-64 -191h115l-7 -29h-117l-77 -227h120l-9 -29h-120zM307 220l77 227h-124l-76 -227h123z" />
    <glyph glyph-name="dollar" unicode="$" horiz-adv-x="575" 
d="M275 -100v88c-99 3 -176 47 -222 106l26 23c39 -48 105 -95 196 -99v318c-101 28 -201 58 -201 172c0 105 94 167 201 170v90h32v-91c85 -5 149 -40 192 -93l-25 -23c-42 54 -100 81 -167 86v-285c103 -30 207 -67 207 -193c0 -72 -44 -172 -207 -180v-89h-32zM479 169
c0 99 -82 131 -172 158v-309c136 8 172 91 172 151zM109 508c0 -84 78 -111 166 -137v277c-93 -3 -166 -61 -166 -140z" />
    <glyph glyph-name="percent" unicode="%" horiz-adv-x="709" 
d="M189 351c-89 0 -153 69 -153 162c0 94 64 164 153 164c90 0 153 -70 153 -164c0 -93 -63 -162 -153 -162zM163 0h-36l426 667h37zM520 -12c-89 0 -153 69 -153 162c0 94 64 164 153 164s153 -70 153 -164c0 -93 -64 -162 -153 -162zM189 378c72 0 120 63 120 135
c0 74 -48 137 -120 137c-71 0 -120 -63 -120 -137c0 -72 49 -135 120 -135zM520 15c72 0 120 63 120 135c0 74 -48 137 -120 137s-120 -63 -120 -137c0 -72 48 -135 120 -135z" />
    <glyph glyph-name="ampersand" unicode="&#x26;" horiz-adv-x="637" 
d="M591 0h-53c-26 22 -61 55 -96 89c-46 -58 -110 -101 -199 -101c-107 0 -196 61 -196 179c0 107 73 161 151 205c-34 53 -58 107 -58 155c0 88 68 150 149 150c79 0 130 -43 130 -122c0 -99 -89 -144 -175 -192c31 -45 68 -87 94 -115c35 -39 67 -73 100 -106
c43 65 68 138 79 171l32 -12c-20 -52 -45 -123 -86 -184c38 -37 79 -75 128 -117zM243 18c74 0 131 42 174 96c-44 45 -85 88 -105 112c-32 36 -67 78 -97 120c-71 -41 -133 -90 -133 -179c0 -99 77 -149 161 -149zM175 527c0 -43 22 -92 52 -138c80 43 157 83 157 166
c0 61 -41 92 -95 92c-62 0 -114 -49 -114 -120z" />
    <glyph glyph-name="quoteright" unicode="&#x2019;" horiz-adv-x="208" 
d="M142 624c0 -50 -30 -98 -62 -121l-22 18c32 24 53 62 53 92c0 0 -6 -1 -8 -1c-19 0 -32 15 -32 33c0 17 13 32 32 32c21 0 39 -19 39 -53z" />
    <glyph glyph-name="parenleft" unicode="(" horiz-adv-x="206" 
d="M189 -187l-16 -12c-83 136 -126 281 -126 442s43 306 126 442l16 -11c-62 -131 -107 -250 -107 -431c0 -180 45 -300 107 -430z" />
    <glyph glyph-name="parenright" unicode=")" horiz-adv-x="206" 
d="M17 -187l16 -12c83 136 126 281 126 442s-43 306 -126 442l-16 -11c62 -131 107 -250 107 -431c0 -180 -45 -300 -107 -430z" />
    <glyph glyph-name="asterisk" unicode="*" horiz-adv-x="330" 
d="M180 409h-30l6 119l-100 -65l-15 26l106 54l-106 54l15 26l100 -65l-6 119h30l-6 -119l100 65l15 -26l-106 -54l106 -54l-15 -26l-100 65z" />
    <glyph glyph-name="plus" unicode="+" horiz-adv-x="494" 
d="M465 322h-202v-222h-32v222h-202v30h202v216h32v-216h202v-30z" />
    <glyph glyph-name="comma" unicode="," horiz-adv-x="208" 
d="M142 3c0 -50 -30 -98 -62 -121l-22 18c32 24 53 62 53 92c0 0 -6 -1 -8 -1c-19 0 -32 15 -32 33c0 17 13 32 32 32c21 0 39 -19 39 -53z" />
    <glyph glyph-name="hyphen" unicode="-" horiz-adv-x="300" 
d="M270 227h-240v30h240v-30z" />
    <glyph glyph-name="period" unicode="." horiz-adv-x="208" 
d="M104 -9c-18 0 -33 15 -33 33c0 17 15 32 33 32s33 -15 33 -32c0 -18 -15 -33 -33 -33z" />
    <glyph glyph-name="slash" unicode="/" horiz-adv-x="268" 
d="M31 -20h-31l237 707h31z" />
    <glyph glyph-name="zero" unicode="0" horiz-adv-x="605" 
d="M303 -12c-176 0 -238 191 -238 345c0 155 62 344 238 344c175 0 237 -189 237 -344c0 -154 -62 -345 -237 -345zM303 18c153 0 202 174 202 315c0 142 -48 314 -202 314s-203 -172 -203 -314c0 -141 49 -315 203 -315z" />
    <glyph glyph-name="one" unicode="1" horiz-adv-x="277" 
d="M189 0h-32v621l-105 -115l-22 23l129 138h30v-667z" />
    <glyph glyph-name="two" unicode="2" horiz-adv-x="577" 
d="M480 0h-421v28c213 177 387 325 387 468c0 108 -87 151 -166 151c-85 0 -150 -37 -184 -90l-26 19c41 61 117 101 211 101c85 0 197 -49 197 -181c0 -156 -174 -301 -372 -466h374v-30z" />
    <glyph glyph-name="three" unicode="3" horiz-adv-x="531" 
d="M252 -12c-105 0 -181 52 -216 112l28 16c34 -55 97 -98 188 -98c110 0 181 60 181 159c0 109 -91 153 -193 153c-27 0 -46 0 -56 -1v32c10 -1 28 -1 56 -1c93 0 183 42 183 143c0 92 -80 144 -171 144c-80 0 -132 -31 -182 -90l-25 20c44 56 115 100 207 100
c104 0 203 -61 203 -174c0 -108 -90 -149 -142 -158c55 -5 152 -54 152 -168c0 -108 -77 -189 -213 -189z" />
    <glyph glyph-name="four" unicode="4" horiz-adv-x="524" 
d="M385 0h-32v195h-315v33l305 439h42v-442h101v-30h-101v-195zM353 225v406l-280 -406h280z" />
    <glyph glyph-name="five" unicode="5" horiz-adv-x="574" 
d="M297 -12c-110 0 -173 44 -216 112l26 19c43 -65 99 -101 190 -101c102 0 180 77 180 180c0 113 -78 182 -180 182c-62 0 -117 -21 -168 -69l-27 16v340h364v-30h-332v-291c33 32 91 64 163 64c111 0 212 -72 212 -212c0 -130 -101 -210 -212 -210z" />
    <glyph glyph-name="six" unicode="6" horiz-adv-x="577" 
d="M297 -12c-173 0 -232 169 -232 345c0 162 59 344 238 344c89 0 138 -37 175 -90l-24 -21c-32 46 -73 81 -151 81c-157 0 -206 -171 -206 -324c0 -12 0 -24 1 -36c27 46 107 119 203 119c120 0 211 -68 211 -210c0 -102 -75 -208 -215 -208zM297 18c125 0 183 99 183 178
c0 121 -75 180 -180 180c-80 0 -158 -55 -198 -130c9 -99 60 -228 195 -228z" />
    <glyph glyph-name="seven" unicode="7" horiz-adv-x="489" 
d="M158 0h-36l293 637h-379v30h417v-22z" />
    <glyph glyph-name="eight" unicode="8" horiz-adv-x="561" 
d="M281 -12c-126 0 -215 73 -215 177c0 97 87 157 173 179c-80 19 -162 71 -162 162c0 116 104 171 204 171c98 0 204 -55 204 -171c0 -91 -82 -143 -162 -162c86 -22 172 -82 172 -179c0 -103 -90 -177 -214 -177zM281 359c41 8 172 40 172 147c0 89 -79 141 -172 141
c-94 0 -172 -52 -172 -141c0 -107 132 -139 172 -147zM281 18c93 0 182 55 182 147c0 115 -142 160 -182 165c-41 -5 -183 -50 -183 -165c0 -92 88 -147 183 -147z" />
    <glyph glyph-name="nine" unicode="9" horiz-adv-x="577" 
d="M274 -11c-89 0 -138 37 -175 90l24 21c32 -46 73 -81 151 -81c157 0 206 171 206 324c0 12 0 24 -1 36c-27 -46 -107 -119 -203 -119c-120 0 -211 68 -211 210c0 102 75 208 215 208c173 0 232 -169 232 -345c0 -162 -59 -344 -238 -344zM277 290c80 0 158 55 198 130
c-9 99 -60 228 -195 228c-125 0 -183 -99 -183 -178c0 -121 75 -180 180 -180z" />
    <glyph glyph-name="colon" unicode=":" horiz-adv-x="208" 
d="M104 425c-18 0 -33 15 -33 32c0 18 15 33 33 33s33 -15 33 -33c0 -17 -15 -32 -33 -32zM104 -9c-18 0 -33 15 -33 33c0 17 15 32 33 32s33 -15 33 -32c0 -18 -15 -33 -33 -33z" />
    <glyph glyph-name="semicolon" unicode=";" horiz-adv-x="208" 
d="M104 425c-18 0 -33 15 -33 32c0 18 15 33 33 33s33 -15 33 -33c0 -17 -15 -32 -33 -32zM142 3c0 -50 -30 -98 -62 -121l-22 18c32 24 53 62 53 92c0 0 -6 -1 -8 -1c-19 0 -32 15 -32 33c0 17 13 32 32 32c21 0 39 -19 39 -53z" />
    <glyph glyph-name="less" unicode="&#x3c;" horiz-adv-x="494" 
d="M465 90l-436 234v21l436 235v-36l-395 -210l395 -208v-36z" />
    <glyph glyph-name="equal" unicode="=" horiz-adv-x="494" 
d="M465 418h-436v30h436v-30zM465 220h-436v30h436v-30z" />
    <glyph glyph-name="greater" unicode="&#x3e;" horiz-adv-x="494" 
d="M465 324l-436 -234v36l395 208l-395 210v36l436 -235v-21z" />
    <glyph glyph-name="question" unicode="?" horiz-adv-x="467" 
d="M225 168c-32 24 -44 50 -44 76c0 135 210 141 210 280c0 66 -53 123 -151 123c-97 0 -149 -39 -191 -98l-23 21c44 63 112 107 214 107c117 0 186 -72 186 -153c0 -155 -215 -169 -215 -280c0 -15 11 -38 33 -53zM222 -9c-18 0 -33 15 -33 33c0 17 15 32 33 32
s33 -15 33 -32c0 -18 -15 -33 -33 -33z" />
    <glyph glyph-name="at" unicode="@" horiz-adv-x="783" 
d="M352 -70c-182 0 -317 137 -317 314c0 218 189 394 397 394c187 0 315 -144 315 -327c0 -146 -70 -226 -151 -226c-53 0 -86 42 -86 88v6c-35 -49 -99 -94 -171 -94c-90 0 -152 61 -152 158c0 145 123 257 243 257c69 0 113 -41 131 -87l14 69h30l-62 -294
c-1 -6 -1 -12 -1 -18c0 -36 25 -58 54 -58c39 0 122 42 122 200c0 168 -118 296 -289 296c-197 0 -364 -175 -364 -363c0 -162 122 -286 291 -286c74 0 134 23 188 57l16 -23c-62 -40 -134 -63 -208 -63zM339 112c82 0 145 59 180 111l34 157c-12 39 -51 93 -123 93
c-116 0 -210 -114 -210 -230c0 -75 43 -131 119 -131z" />
    <glyph glyph-name="A" unicode="A" horiz-adv-x="636" 
d="M615 0h-37l-74 179h-372l-74 -179h-37l278 667h38zM492 209l-174 421l-174 -421h348z" />
    <glyph glyph-name="B" unicode="B" horiz-adv-x="600" 
d="M343 0h-255v667h251c107 0 182 -60 182 -170c0 -84 -59 -141 -118 -153c71 -11 131 -87 131 -164c0 -114 -74 -180 -191 -180zM339 358c98 0 147 62 147 139c0 76 -49 140 -147 140h-219v-279h219zM343 30c98 0 156 58 156 149c0 76 -52 149 -156 149h-223v-298h223z" />
    <glyph glyph-name="C" unicode="C" horiz-adv-x="667" 
d="M398 -12c-185 0 -333 140 -333 345s148 345 333 345c94 0 173 -37 232 -105l-25 -22c-47 59 -124 97 -207 97c-167 0 -298 -127 -298 -315c0 -186 131 -315 298 -315c83 0 160 38 207 97l26 -21c-63 -71 -139 -106 -233 -106z" />
    <glyph glyph-name="D" unicode="D" horiz-adv-x="684" 
d="M286 0h-198v667h198c207 0 332 -156 332 -334c0 -180 -125 -333 -332 -333zM286 30c189 0 297 134 297 303c0 167 -108 304 -297 304h-166v-607h166z" />
    <glyph glyph-name="E" unicode="E" horiz-adv-x="558" 
d="M496 0h-408v667h408v-30h-376v-279h369v-30h-369v-298h376v-30z" />
    <glyph glyph-name="F" unicode="F" horiz-adv-x="533" 
d="M120 0h-32v667h408v-30h-376v-279h369v-30h-369v-328z" />
    <glyph glyph-name="G" unicode="G" horiz-adv-x="708" 
d="M398 -13c-185 0 -333 141 -333 346s148 345 333 345c101 0 179 -36 244 -103l-21 -22c-52 59 -134 95 -223 95c-167 0 -298 -127 -298 -315c0 -186 131 -316 298 -316c98 0 173 49 212 90v183h-275v30h307v-226c-57 -64 -144 -107 -244 -107z" />
    <glyph glyph-name="H" unicode="H" horiz-adv-x="695" 
d="M607 0h-32v328h-455v-328h-32v667h32v-309h455v309h32v-667z" />
    <glyph glyph-name="I" unicode="I" horiz-adv-x="208" 
d="M120 0h-32v667h32v-667z" />
    <glyph glyph-name="J" unicode="J" horiz-adv-x="465" 
d="M185 -12c-73 0 -126 27 -169 87l27 24c31 -44 74 -81 142 -81c99 0 160 69 160 167v482h32v-482c0 -133 -89 -197 -192 -197z" />
    <glyph glyph-name="K" unicode="K" horiz-adv-x="571" 
d="M540 0h-43l-297 328l-80 -87v-241h-32v667h32v-385l347 385h43l-290 -319z" />
    <glyph glyph-name="L" unicode="L" horiz-adv-x="475" 
d="M439 0h-367v667h32v-637h335v-30z" />
    <glyph glyph-name="M" unicode="M" horiz-adv-x="770" 
d="M682 0h-32v629l-260 -629h-10l-260 629v-629h-32v667h51l246 -597l246 597h51v-667z" />
    <glyph glyph-name="N" unicode="N" horiz-adv-x="690" 
d="M602 0h-32l-450 615v-615h-32v667h32l450 -609v609h32v-667z" />
    <glyph glyph-name="O" unicode="O" horiz-adv-x="764" 
d="M382 -12c-194 0 -317 152 -317 345s123 345 317 345c193 0 317 -152 317 -345s-124 -345 -317 -345zM382 18c171 0 282 134 282 315c0 183 -111 315 -282 315c-173 0 -282 -132 -282 -315c0 -181 109 -315 282 -315z" />
    <glyph glyph-name="P" unicode="P" horiz-adv-x="555" 
d="M120 0h-32v667h231c124 0 195 -87 195 -189s-73 -189 -195 -189h-199v-289zM318 319c98 0 161 67 161 159s-63 159 -161 159h-198v-318h198z" />
    <glyph glyph-name="Q" unicode="Q" horiz-adv-x="764" 
d="M382 -12c-194 0 -317 152 -317 345s123 345 317 345c193 0 317 -152 317 -345c0 -103 -35 -194 -97 -257l76 -76l-22 -23l-78 78c-52 -42 -119 -67 -196 -67zM382 18c68 0 127 22 173 59l-110 111l23 23l111 -112c54 56 85 138 85 234c0 183 -111 315 -282 315
c-173 0 -282 -132 -282 -315c0 -181 109 -315 282 -315z" />
    <glyph glyph-name="R" unicode="R" horiz-adv-x="579" 
d="M524 0h-41l-203 288h-160v-288h-32v667h230c108 0 197 -67 197 -189s-89 -190 -197 -190zM318 318c98 0 162 68 162 160s-64 159 -162 159h-198v-319h198z" />
    <glyph glyph-name="S" unicode="S" horiz-adv-x="575" 
d="M286 -12c-104 0 -185 45 -233 106l26 23c41 -50 111 -99 207 -99c154 0 193 88 193 151c0 220 -405 111 -405 339c0 108 99 170 209 170c98 0 169 -36 216 -94l-25 -23c-47 61 -114 87 -191 87c-97 0 -174 -58 -174 -140c0 -190 405 -90 405 -339
c0 -75 -48 -181 -228 -181z" />
    <glyph glyph-name="T" unicode="T" horiz-adv-x="559" 
d="M295 0h-32v637h-225v30h483v-30h-226v-637z" />
    <glyph glyph-name="U" unicode="U" horiz-adv-x="672" 
d="M336 -12c-162 0 -248 101 -248 265v414h32v-414c0 -148 76 -235 216 -235s216 87 216 235v414h32v-414c0 -165 -86 -265 -248 -265z" />
    <glyph glyph-name="V" unicode="V" horiz-adv-x="636" 
d="M337 0h-38l-278 667h37l260 -630l260 630h37z" />
    <glyph glyph-name="W" unicode="W" horiz-adv-x="852" 
d="M637 0h-38l-173 607l-173 -607h-38l-190 667h35l174 -619l175 619h34l175 -619l174 619h35z" />
    <glyph glyph-name="X" unicode="X" horiz-adv-x="638" 
d="M613 0h-42l-252 318l-252 -318h-42l276 342l-261 325h43l236 -299l236 299h43l-261 -324z" />
    <glyph glyph-name="Y" unicode="Y" horiz-adv-x="610" 
d="M321 0h-32v289l-268 378h41l243 -346l243 346h41l-268 -378v-289z" />
    <glyph glyph-name="Z" unicode="Z" horiz-adv-x="578" 
d="M525 0h-472v30l427 607h-427v30h465v-30l-428 -607h435v-30z" />
    <glyph glyph-name="bracketleft" unicode="[" horiz-adv-x="212" 
d="M195 -190h-161v868h161v-30h-131v-808h131v-30z" />
    <glyph glyph-name="backslash" unicode="\" horiz-adv-x="268" 
d="M237 -20l-237 707h31l237 -707h-31z" />
    <glyph glyph-name="bracketright" unicode="]" horiz-adv-x="212" 
d="M178 -190h-161v30h131v808h-131v30h161v-868z" />
    <glyph glyph-name="asciicircum" unicode="^" horiz-adv-x="424" 
d="M405 333h-34l-159 307l-159 -307h-34l180 334h26z" />
    <glyph glyph-name="underscore" unicode="_" horiz-adv-x="564" 
d="M567 -70h-570v30h570v-30z" />
    <glyph glyph-name="quoteleft" unicode="&#x2018;" horiz-adv-x="208" 
d="M55 556c0 50 30 98 62 121l22 -18c-32 -24 -53 -62 -53 -92c0 0 6 1 8 1c19 0 32 -15 32 -33c0 -17 -13 -32 -32 -32c-21 0 -39 19 -39 53z" />
    <glyph glyph-name="a" unicode="a" horiz-adv-x="514" 
d="M428 0h-30v59c-45 -49 -99 -71 -167 -71c-85 0 -169 58 -169 161s83 161 169 161c68 0 122 -22 167 -71v109c0 78 -62 120 -136 120c-63 0 -110 -22 -155 -76l-23 20c47 55 97 83 178 83c95 0 166 -48 166 -146v-349zM239 15c63 0 122 25 159 74v120
c-37 49 -96 74 -159 74c-88 0 -144 -59 -144 -134s56 -134 144 -134z" />
    <glyph glyph-name="b" unicode="b" horiz-adv-x="566" 
d="M116 111c30 -51 99 -96 174 -96c118 0 183 99 183 226s-65 227 -183 227c-75 0 -144 -47 -174 -98v-259zM116 0h-30v667h30v-267c39 57 102 95 174 95c130 0 216 -102 216 -254c0 -153 -86 -253 -216 -253c-76 0 -141 43 -174 93v-81z" />
    <glyph glyph-name="c" unicode="c" horiz-adv-x="493" 
d="M288 -12c-140 0 -228 115 -228 254s88 253 228 253c79 0 124 -30 165 -81l-22 -18c-39 53 -85 72 -141 72c-124 0 -197 -100 -197 -226s73 -227 197 -227c56 0 102 20 141 73l22 -19c-41 -51 -86 -81 -165 -81z" />
    <glyph glyph-name="d" unicode="d" horiz-adv-x="566" 
d="M480 0h-30v81c-33 -50 -98 -93 -174 -93c-130 0 -216 100 -216 253c0 152 86 254 216 254c72 0 135 -38 174 -95v267h30v-667zM276 15c75 0 144 45 174 96v259c-30 51 -99 98 -174 98c-118 0 -183 -100 -183 -227s65 -226 183 -226z" />
    <glyph glyph-name="e" unicode="e" horiz-adv-x="571" 
d="M297 -12c-140 0 -237 107 -237 254c0 140 97 253 227 253c148 0 224 -119 224 -253v-10h-417c3 -118 80 -217 203 -217c68 0 123 25 168 73l18 -19c-49 -51 -105 -81 -186 -81zM479 259c0 93 -61 209 -193 209c-124 0 -189 -114 -192 -209h385z" />
    <glyph glyph-name="f" unicode="f" horiz-adv-x="246" 
d="M130 0h-30v456h-80v27h80v51c0 90 45 143 121 143c31 0 51 -5 82 -30l-18 -24c-17 16 -38 27 -64 27c-61 0 -91 -43 -91 -116v-51h98v-27h-98v-456z" />
    <glyph glyph-name="g" unicode="g" horiz-adv-x="566" 
d="M276 -196c-81 0 -129 14 -185 73l22 25c42 -52 87 -71 163 -71c96 0 174 49 174 166v84c-33 -50 -98 -95 -174 -95c-130 0 -216 101 -216 254c0 152 86 255 216 255c72 0 135 -38 174 -95v83h30v-486c0 -138 -87 -193 -204 -193zM276 13c75 0 144 47 174 98v259
c-30 51 -99 98 -174 98c-118 0 -183 -101 -183 -228s65 -227 183 -227z" />
    <glyph glyph-name="h" unicode="h" horiz-adv-x="528" 
d="M442 0h-30v339c0 101 -50 129 -125 129c-66 0 -137 -43 -171 -91v-377h-30v667h30v-260c36 44 108 88 175 88c96 0 151 -42 151 -156v-339z" />
    <glyph glyph-name="i" unicode="i" horiz-adv-x="202" 
d="M101 566c-15 0 -29 13 -29 29s14 29 29 29c16 0 29 -13 29 -29s-13 -29 -29 -29zM116 0h-30v483h30v-483z" />
    <glyph glyph-name="j" unicode="j" horiz-adv-x="202" 
d="M101 566c-15 0 -29 13 -29 29s14 29 29 29c16 0 29 -13 29 -29s-13 -29 -29 -29zM-3 -196c-38 0 -65 13 -92 38l19 25c16 -18 42 -36 73 -36c50 0 89 27 89 93v559h30v-559c0 -83 -46 -120 -119 -120z" />
    <glyph glyph-name="k" unicode="k" horiz-adv-x="496" 
d="M471 0h-43l-212 243l-100 -92v-151h-30v667h30v-478l315 294h43l-235 -218z" />
    <glyph glyph-name="l" unicode="l" horiz-adv-x="202" 
d="M116 0h-30v667h30v-667z" />
    <glyph glyph-name="m" unicode="m" horiz-adv-x="770" 
d="M684 0h-30v348c0 75 -31 120 -104 120c-54 0 -120 -41 -150 -90v-378h-30v348c0 75 -31 120 -104 120c-54 0 -118 -42 -150 -91v-377h-30v483h30v-76c20 32 86 88 155 88c76 0 115 -47 125 -92c27 45 92 92 159 92c88 0 129 -51 129 -147v-348z" />
    <glyph glyph-name="n" unicode="n" horiz-adv-x="528" 
d="M442 0h-30v337c0 101 -50 131 -125 131c-66 0 -137 -43 -171 -91v-377h-30v483h30v-76c36 44 108 88 175 88c96 0 151 -44 151 -158v-337z" />
    <glyph glyph-name="o" unicode="o" horiz-adv-x="570" 
d="M285 -12c-136 0 -225 112 -225 254s89 253 225 253c137 0 225 -111 225 -253s-88 -254 -225 -254zM285 15c124 0 192 109 192 227c0 117 -68 226 -192 226c-123 0 -192 -109 -192 -226c0 -118 69 -227 192 -227z" />
    <glyph glyph-name="p" unicode="p" horiz-adv-x="562" 
d="M290 -12c-72 0 -135 38 -174 95v-267h-30v667h30v-81c33 50 98 93 174 93c130 0 216 -100 216 -253c0 -152 -86 -254 -216 -254zM290 15c118 0 183 100 183 227s-65 226 -183 226c-75 0 -144 -45 -174 -96v-259c30 -51 99 -98 174 -98z" />
    <glyph glyph-name="q" unicode="q" horiz-adv-x="562" 
d="M272 15c75 0 144 47 174 98v259c-30 51 -99 96 -174 96c-118 0 -183 -99 -183 -226s65 -227 183 -227zM272 -12c-130 0 -216 102 -216 254c0 153 86 253 216 253c76 0 141 -43 174 -93v81h30v-667h-30v267c-39 -57 -102 -95 -174 -95z" />
    <glyph glyph-name="r" unicode="r" horiz-adv-x="304" 
d="M116 0h-30v483h30v-88c43 57 96 97 166 97v-36c-9 1 -15 1 -24 1c-51 0 -120 -50 -142 -95v-362z" />
    <glyph glyph-name="s" unicode="s" horiz-adv-x="454" 
d="M221 -12c-76 0 -129 22 -177 77l24 22c30 -40 82 -72 153 -72c89 0 143 48 143 112c0 148 -310 71 -310 240c0 71 60 128 164 128c83 0 135 -33 166 -73l-22 -20c-28 40 -79 66 -144 66c-84 0 -134 -44 -134 -101c0 -135 310 -57 310 -240c0 -75 -56 -139 -173 -139z" />
    <glyph glyph-name="t" unicode="t" horiz-adv-x="256" 
d="M174 -12c-56 0 -82 37 -82 97v371h-80v27h80v132h30v-132h98v-27h-98v-371c0 -41 16 -70 52 -70c24 0 45 12 57 26l18 -23c-19 -18 -39 -30 -75 -30z" />
    <glyph glyph-name="u" unicode="u" horiz-adv-x="528" 
d="M442 0h-30v74c-41 -46 -108 -86 -175 -86c-96 0 -151 42 -151 156v339h30v-339c0 -101 50 -129 125 -129c66 0 137 40 171 88v380h30v-483z" />
    <glyph glyph-name="v" unicode="v" horiz-adv-x="471" 
d="M253 0h-35l-207 483h35l190 -448l189 448h35z" />
    <glyph glyph-name="w" unicode="w" horiz-adv-x="704" 
d="M522 0h-24l-146 438l-146 -438h-24l-160 483h33l140 -436l145 436h24l145 -436l140 436h33z" />
    <glyph glyph-name="x" unicode="x" horiz-adv-x="472" 
d="M450 0h-39l-175 228l-175 -228h-39l197 248l-186 235h39l164 -214l164 214h39l-186 -235z" />
    <glyph glyph-name="y" unicode="y" horiz-adv-x="471" 
d="M50 -189l6 28c11 -5 30 -8 42 -8c32 0 54 14 76 66l44 100l-207 486h35l190 -448l189 448h35l-256 -597c-23 -52 -58 -82 -106 -82c-17 0 -36 3 -48 7z" />
    <glyph glyph-name="z" unicode="z" horiz-adv-x="466" 
d="M406 0h-346v27l307 429h-307v27h342v-27l-309 -429h313v-27z" />
    <glyph glyph-name="braceleft" unicode="{" horiz-adv-x="237" 
d="M220 -190h-62c-49 0 -99 45 -99 113v234c0 37 -17 72 -52 72v30c35 0 52 35 52 72v234c0 68 50 113 99 113h62v-30h-62c-37 0 -69 -35 -69 -83v-234c0 -42 -12 -73 -45 -87c33 -14 45 -45 45 -87v-234c0 -47 32 -83 69 -83h62v-30z" />
    <glyph glyph-name="bar" unicode="|" horiz-adv-x="206" 
d="M118 -20h-30v707h30v-707z" />
    <glyph glyph-name="braceright" unicode="}" horiz-adv-x="237" 
d="M17 -190v30h62c37 0 69 36 69 83v234c0 42 12 73 45 87c-33 14 -45 45 -45 87v234c0 48 -32 83 -69 83h-62v30h62c49 0 99 -45 99 -113v-234c0 -37 17 -72 52 -72v-30c-35 0 -52 -35 -52 -72v-234c0 -68 -50 -113 -99 -113h-62z" />
    <glyph glyph-name="asciitilde" unicode="~" horiz-adv-x="496" 
d="M438 667l30 -3c-12 -122 -41 -231 -129 -231c-121 0 -90 202 -182 202c-57 0 -86 -71 -99 -204l-30 5c12 122 42 229 129 229c121 0 90 -203 182 -203c57 0 86 70 99 205z" />
    <glyph glyph-name="exclamdown" unicode="&#xa1;" horiz-adv-x="208" 
d="M83 -184l11 506h20l11 -506h-42zM71 459c0 18 15 33 33 33s33 -15 33 -33c0 -17 -15 -32 -33 -32s-33 15 -33 32z" />
    <glyph glyph-name="cent" unicode="&#xa2;" horiz-adv-x="493" 
d="M262 -100v90c-125 13 -202 122 -202 252s77 238 202 251v72h30v-70c76 -1 120 -31 161 -81l-22 -18c-39 52 -84 71 -139 72v-453c55 0 100 20 139 73l22 -19c-41 -50 -85 -80 -161 -81v-88h-30zM93 242c0 -116 62 -212 169 -226v450c-107 -14 -169 -108 -169 -224z" />
    <glyph glyph-name="sterling" unicode="&#xa3;" horiz-adv-x="491" 
d="M17 267v30h143c-44 51 -109 93 -109 192c0 96 83 188 208 188c74 0 144 -42 175 -104l-26 -18c-18 43 -75 92 -149 92c-92 0 -175 -57 -175 -158c0 -95 67 -136 110 -192h152v-30h-132c9 -19 15 -39 15 -64c0 -73 -40 -114 -86 -149c14 5 34 10 55 10
c69 0 100 -48 162 -48c46 0 90 25 104 43l18 -27c-28 -27 -71 -46 -124 -46c-92 0 -90 48 -178 48c-34 0 -76 -19 -119 -41l-14 33c104 44 152 109 152 177c0 25 -7 45 -18 64h-164z" />
    <glyph glyph-name="fraction" unicode="&#x2044;" horiz-adv-x="121" 
d="M292 667l-427 -667h-36l426 667h37z" />
    <glyph glyph-name="fraction" unicode="&#x2215;" horiz-adv-x="121" 
d="M292 667l-427 -667h-36l426 667h37z" />
    <glyph glyph-name="yen" unicode="&#xa5;" horiz-adv-x="610" 
d="M321 0h-32v129h-268v30h268v130h-268v30h246l-246 348h41l243 -346l243 346h41l-247 -348h247v-30h-268v-130h268v-30h-268v-129z" />
    <glyph glyph-name="florin" unicode="&#x192;" horiz-adv-x="412" 
d="M72 -161h-32l95 428h-80v30h86l53 237c20 90 77 143 153 143c31 0 53 -7 75 -30l-23 -24c-13 16 -29 24 -52 24c-60 0 -106 -43 -121 -113l-53 -237h162v-30h-168z" />
    <glyph glyph-name="section" unicode="&#xa7;" horiz-adv-x="454" 
d="M394 306c0 -57 -33 -101 -100 -127c62 -23 100 -56 100 -121c0 -88 -70 -139 -173 -139c-96 0 -140 36 -177 77l24 22c28 -37 76 -72 153 -72c83 0 143 43 143 112c0 147 -310 71 -310 240c0 73 57 114 130 130c-76 21 -130 50 -130 121c0 67 54 128 164 128
c82 0 136 -35 166 -73l-22 -20c-34 47 -90 66 -144 66c-77 0 -134 -41 -134 -103c0 -136 310 -53 310 -241zM364 309c0 70 -74 91 -138 108c-110 -29 -142 -69 -142 -121c0 -69 85 -84 176 -107c64 28 104 62 104 120z" />
    <glyph glyph-name="currency" unicode="&#xa4;" horiz-adv-x="522" 
d="M486 137l-29 -29l-56 57c-39 -33 -90 -51 -140 -51c-51 0 -101 18 -140 51l-57 -57l-28 29l56 56c-32 40 -50 90 -50 140c0 51 18 101 50 140l-56 57l28 28l57 -56c39 33 89 50 140 50c50 0 101 -18 140 -50l56 56l29 -28l-56 -57c32 -39 50 -89 50 -140
c0 -50 -18 -100 -50 -140zM432 333c0 95 -77 171 -171 171s-171 -76 -171 -171c0 -94 77 -171 171 -171s171 77 171 171z" />
    <glyph glyph-name="quotesingle" unicode="'" horiz-adv-x="176" 
d="M99 443h-22s-15 197 -15 208c0 14 11 26 26 26s26 -12 26 -26c0 -11 -15 -208 -15 -208z" />
    <glyph glyph-name="quotedblleft" unicode="&#x201c;" horiz-adv-x="331" 
d="M66 556c0 50 30 98 62 121l22 -18c-32 -24 -53 -62 -53 -92c0 0 6 1 8 1c19 0 32 -15 32 -33c0 -17 -13 -32 -32 -32c-21 0 -39 19 -39 53zM189 556c0 50 30 98 62 121l22 -18c-32 -24 -53 -62 -53 -92c0 0 6 1 8 1c19 0 32 -15 32 -33c0 -17 -13 -32 -32 -32
c-21 0 -39 19 -39 53z" />
    <glyph glyph-name="guillemotleft" unicode="&#xab;" horiz-adv-x="364" 
d="M334 63h-39l-160 180l160 177h39l-160 -177zM229 63h-39l-160 180l160 177h39l-160 -177z" />
    <glyph glyph-name="guilsinglleft" unicode="&#x2039;" horiz-adv-x="259" 
d="M229 63h-39l-160 180l160 177h39l-160 -177z" />
    <glyph glyph-name="guilsinglright" unicode="&#x203a;" horiz-adv-x="259" 
d="M229 243l-160 -180h-39l160 180l-160 177h39z" />
    <glyph glyph-name="endash" unicode="&#x2013;" horiz-adv-x="593" 
d="M563 227h-533v30h533v-30z" />
    <glyph glyph-name="dagger" unicode="&#x2020;" horiz-adv-x="251" 
d="M226 539l-89 4l4 -216h-31l4 216l-89 -4v27l89 -3l-4 114h31l-4 -114l89 3v-27z" />
    <glyph glyph-name="daggerdbl" unicode="&#x2021;" horiz-adv-x="251" 
d="M226 566v-27l-89 4v-229l89 4v-27l-89 3l4 -114h-31l4 114l-89 -3v27l89 -4v229l-89 -4v27l89 -3l-4 114h31l-4 -114z" />
    <glyph glyph-name="periodcentered" unicode="&#xb7;" horiz-adv-x="208" 
d="M137 245c0 -18 -15 -33 -33 -33s-33 15 -33 33c0 17 15 32 33 32s33 -15 33 -32z" />
    <glyph glyph-name="periodcentered" unicode="&#x2219;" horiz-adv-x="208" 
d="M137 245c0 -18 -15 -33 -33 -33s-33 15 -33 33c0 17 15 32 33 32s33 -15 33 -32z" />
    <glyph glyph-name="paragraph" unicode="&#xb6;" horiz-adv-x="449" 
d="M357 -100h-30v737h-98v-737h-30v423c-95 0 -172 77 -172 172s77 172 172 172h158v-767z" />
    <glyph glyph-name="bullet" unicode="&#x2022;" horiz-adv-x="358" 
d="M278 242c0 -53 -44 -97 -98 -97s-98 44 -98 97c0 54 44 98 98 98s98 -44 98 -98z" />
    <glyph glyph-name="quotesinglbase" unicode="&#x201a;" horiz-adv-x="208" 
d="M142 3c0 -50 -30 -98 -62 -121l-22 18c32 24 53 62 53 92c0 0 -6 -1 -8 -1c-19 0 -32 15 -32 33c0 17 13 32 32 32c21 0 39 -19 39 -53z" />
    <glyph glyph-name="quotedblbase" unicode="&#x201e;" horiz-adv-x="331" 
d="M142 3c0 -50 -30 -98 -62 -121l-22 18c32 24 53 62 53 92c0 0 -6 -1 -8 -1c-19 0 -32 15 -32 33c0 17 13 32 32 32c21 0 39 -19 39 -53zM265 3c0 -50 -30 -98 -62 -121l-22 18c32 24 53 62 53 92c0 0 -6 -1 -8 -1c-19 0 -32 15 -32 33c0 17 13 32 32 32
c21 0 39 -19 39 -53z" />
    <glyph glyph-name="quotedblright" unicode="&#x201d;" horiz-adv-x="331" 
d="M265 624c0 -50 -30 -98 -62 -121l-22 18c32 24 53 62 53 92c0 0 -6 -1 -8 -1c-19 0 -32 15 -32 33c0 17 13 32 32 32c21 0 39 -19 39 -53zM142 624c0 -50 -30 -98 -62 -121l-22 18c32 24 53 62 53 92c0 0 -6 -1 -8 -1c-19 0 -32 15 -32 33c0 17 13 32 32 32
c21 0 39 -19 39 -53z" />
    <glyph glyph-name="guillemotright" unicode="&#xbb;" horiz-adv-x="364" 
d="M229 243l-160 -180h-39l160 180l-160 177h39zM334 243l-160 -180h-39l160 180l-160 177h39z" />
    <glyph glyph-name="ellipsis" unicode="&#x2026;" horiz-adv-x="624" 
d="M137 24c0 -18 -15 -33 -33 -33s-33 15 -33 33c0 17 15 32 33 32s33 -15 33 -32zM345 24c0 -18 -15 -33 -33 -33s-33 15 -33 33c0 17 15 32 33 32s33 -15 33 -32zM553 24c0 -18 -15 -33 -33 -33s-33 15 -33 33c0 17 15 32 33 32s33 -15 33 -32z" />
    <glyph glyph-name="perthousand" unicode="&#x2030;" horiz-adv-x="1051" 
d="M342 513c0 -93 -63 -162 -153 -162c-89 0 -153 69 -153 162c0 94 64 164 153 164c90 0 153 -70 153 -164zM590 667l-427 -667h-36l426 667h37zM673 150c0 -93 -64 -162 -153 -162s-153 69 -153 162c0 94 64 164 153 164s153 -70 153 -164zM309 513c0 74 -48 137 -120 137
c-71 0 -120 -63 -120 -137c0 -72 49 -135 120 -135c72 0 120 63 120 135zM640 150c0 74 -48 137 -120 137s-120 -63 -120 -137c0 -72 48 -135 120 -135s120 63 120 135zM1015 150c0 -93 -64 -162 -153 -162s-153 69 -153 162c0 94 64 164 153 164s153 -70 153 -164zM982 150
c0 74 -48 137 -120 137s-120 -63 -120 -137c0 -72 48 -135 120 -135s120 63 120 135z" />
    <glyph glyph-name="questiondown" unicode="&#xbf;" horiz-adv-x="391" 
d="M242 312c32 -24 44 -50 44 -76c0 -135 -210 -141 -210 -280c0 -66 53 -123 151 -123c97 0 149 39 191 98l23 -21c-44 -63 -112 -107 -214 -107c-117 0 -186 72 -186 153c0 155 215 169 215 280c0 15 -11 38 -33 53zM245 492c18 0 33 -15 33 -33c0 -17 -15 -32 -33 -32
s-33 15 -33 32c0 18 15 33 33 33z" />
    <glyph glyph-name="grave" unicode="`" horiz-adv-x="205" 
d="M205 556h-30l-175 144h45z" />
    <glyph glyph-name="grave" unicode="&#x2cb;" horiz-adv-x="205" 
d="M205 556h-30l-175 144h45z" />
    <glyph glyph-name="acute" unicode="&#xb4;" horiz-adv-x="205" 
d="M205 700l-175 -144h-30l160 144h45z" />
    <glyph glyph-name="circumflex" unicode="&#x2c6;" horiz-adv-x="235" 
d="M235 556h-28l-91 120l-88 -120h-28l98 144h36z" />
    <glyph glyph-name="tilde" unicode="&#x2dc;" horiz-adv-x="301" 
d="M213 554c-77 0 -71 113 -128 113c-33 0 -59 -32 -59 -107h-26c0 72 31 134 88 134c77 0 71 -113 128 -113c33 0 59 32 59 107h26c0 -72 -31 -134 -88 -134z" />
    <glyph glyph-name="macron" unicode="&#xaf;" horiz-adv-x="363" 
d="M363 591h-363v27h363v-27z" />
    <glyph glyph-name="macron" unicode="&#x203e;" horiz-adv-x="363" 
d="M363 591h-363v27h363v-27z" />
    <glyph glyph-name="breve" unicode="&#x2d8;" horiz-adv-x="351" 
d="M351 657c-40 -54 -103 -88 -175 -88c-71 0 -135 34 -176 88l21 19c35 -49 90 -80 155 -80s120 31 155 80z" />
    <glyph glyph-name="dotaccent" unicode="&#x2d9;" horiz-adv-x="58" 
d="M29 591c-15 0 -29 13 -29 29s14 29 29 29c16 0 29 -13 29 -29s-13 -29 -29 -29z" />
    <glyph glyph-name="dieresis" unicode="&#xa8;" horiz-adv-x="252" 
d="M255 598c0 -15 -13 -28 -28 -28s-28 13 -28 28s13 28 28 28s28 -13 28 -28zM53 598c0 -15 -13 -28 -28 -28s-28 13 -28 28s13 28 28 28s28 -13 28 -28z" />
    <glyph glyph-name="ring" unicode="&#x2da;" horiz-adv-x="185" 
d="M93 560c-51 0 -93 42 -93 93s42 93 93 93s92 -42 92 -93s-41 -93 -92 -93zM93 584c38 0 68 31 68 69s-30 69 -68 69s-69 -31 -69 -69s31 -69 69 -69z" />
    <glyph glyph-name="cedilla" unicode="&#xb8;" horiz-adv-x="191" 
d="M93 -187c-38 0 -74 13 -93 28l14 27c24 -21 52 -28 79 -28c37 0 69 18 69 49c0 26 -14 43 -44 43c-16 0 -33 -7 -43 -19l-22 13l31 85h30l-26 -69c10 8 25 12 38 12c39 0 65 -25 65 -65c0 -45 -43 -76 -98 -76z" />
    <glyph glyph-name="hungarumlaut" unicode="&#x2dd;" horiz-adv-x="277" 
d="M141 700l-115 -144h-26l100 144h41zM277 700l-115 -144h-26l100 144h41z" />
    <glyph glyph-name="ogonek" unicode="&#x2db;" horiz-adv-x="164" 
d="M139 -112l25 -11c-11 -31 -35 -63 -83 -63c-43 0 -81 25 -81 84c0 48 38 94 88 119l23 -17c-48 -23 -82 -55 -82 -102c0 -37 19 -57 52 -57c31 0 48 16 58 47z" />
    <glyph glyph-name="caron" unicode="&#x2c7;" horiz-adv-x="235" 
d="M137 556h-36l-101 144h28l91 -120l88 120h28z" />
    <glyph glyph-name="emdash" unicode="&#x2014;" horiz-adv-x="833" 
d="M803 227h-773v30h773v-30z" />
    <glyph glyph-name="AE" unicode="&#xc6;" horiz-adv-x="930" 
d="M865 0h-408v179h-286l-113 -179h-37l425 667h419v-30h-376v-279h369v-30h-369v-298h376v-30zM457 209v421l-269 -421h269z" />
    <glyph glyph-name="ordfeminine" unicode="&#xaa;" horiz-adv-x="372" 
d="M303 326h-27v38c-30 -31 -67 -46 -113 -46c-57 0 -113 39 -113 105c0 68 56 104 113 104c46 0 83 -15 113 -46v68c0 49 -45 74 -90 74c-37 0 -75 -14 -103 -50l-18 19c32 37 68 56 122 56c65 0 116 -31 116 -99v-223zM172 340c41 0 80 16 104 46v73
c-24 30 -63 46 -104 46c-56 0 -93 -36 -93 -82c0 -48 37 -83 93 -83z" />
    <glyph glyph-name="Lslash" unicode="&#x141;" horiz-adv-x="515" 
d="M12 246v34l100 58v329h32v-311l114 67v-34l-114 -67v-292h335v-30h-367v304z" />
    <glyph glyph-name="Oslash" unicode="&#xd8;" horiz-adv-x="764" 
d="M382 -12c-62 0 -117 15 -163 43l-18 -31h-36l29 48c-82 62 -129 165 -129 285c0 193 123 345 317 345c61 0 116 -16 162 -43l19 32h36l-30 -50c82 -61 130 -165 130 -284c0 -193 -124 -345 -317 -345zM382 18c171 0 282 134 282 315c0 110 -41 202 -111 258l-318 -534
c41 -25 91 -39 147 -39zM100 333c0 -110 40 -202 110 -258l318 534c-41 25 -91 39 -146 39c-173 0 -282 -132 -282 -315z" />
    <glyph glyph-name="OE" unicode="&#x152;" horiz-adv-x="1124" 
d="M1059 0h-408v157c-53 -111 -158 -169 -269 -169c-194 0 -317 152 -317 345s123 344 317 344c111 0 216 -57 269 -167v157h408v-30h-376v-279h369v-30h-369v-298h376v-30zM651 218v231c-46 134 -148 198 -269 198c-173 0 -282 -131 -282 -314c0 -182 109 -315 282 -315
c121 0 223 66 269 200z" />
    <glyph glyph-name="ordmasculine" unicode="&#xba;" horiz-adv-x="405" 
d="M202 318c-92 0 -154 73 -154 165c0 93 62 165 154 165c94 0 155 -72 155 -165c0 -92 -61 -165 -155 -165zM202 344c80 0 126 65 126 139s-46 138 -126 138c-79 0 -124 -64 -124 -138s45 -139 124 -139z" />
    <glyph glyph-name="ae" unicode="&#xe6;" horiz-adv-x="905" 
d="M845 232h-417c3 -118 80 -217 203 -217c68 0 123 25 168 73l18 -19c-49 -51 -105 -81 -186 -81c-103 0 -162 51 -200 111c-30 -50 -87 -111 -200 -111c-85 0 -169 59 -169 162s83 160 169 160c68 0 122 -21 167 -69v107c0 78 -62 120 -136 120c-63 0 -110 -22 -155 -76
l-23 20c47 55 97 83 178 83c95 0 157 -44 163 -129c32 69 100 129 196 129c148 0 224 -119 224 -253v-10zM428 259h385c0 93 -61 209 -193 209c-124 0 -189 -114 -192 -209zM418 125c-9 17 -20 52 -20 82c-37 50 -96 76 -159 76c-88 0 -144 -59 -144 -134s56 -134 144 -134
c63 0 132 24 179 110z" />
    <glyph glyph-name="dotlessi" unicode="&#x131;" horiz-adv-x="202" 
d="M116 0h-30v483h30v-483z" />
    <glyph glyph-name="lslash" unicode="&#x142;" horiz-adv-x="268" 
d="M12 248v32l107 61v326h30v-309l107 62v-32l-107 -62v-326h-30v309z" />
    <glyph glyph-name="oslash" unicode="&#xf8;" horiz-adv-x="570" 
d="M118 0h-34l42 56c-42 46 -66 112 -66 186c0 142 89 253 225 253c52 0 97 -16 133 -44l24 32h33l-37 -50c46 -46 72 -114 72 -191c0 -142 -88 -254 -225 -254c-55 0 -102 18 -139 49zM285 15c124 0 192 109 192 227c0 63 -20 124 -57 166l-257 -347c31 -29 72 -46 122 -46
zM93 242c0 -60 18 -118 52 -160l255 345c-30 25 -68 41 -115 41c-123 0 -192 -109 -192 -226z" />
    <glyph glyph-name="oe" unicode="&#x153;" horiz-adv-x="988" 
d="M928 232h-417c3 -118 80 -217 203 -217c68 0 123 25 168 73l18 -19c-49 -51 -105 -81 -186 -81c-140 0 -203 101 -220 164c-17 -58 -72 -164 -209 -164c-136 0 -225 112 -225 254s89 253 225 253c137 0 196 -108 209 -164c16 58 80 164 210 164c148 0 224 -119 224 -253
v-10zM511 259h385c0 93 -61 209 -193 209c-124 0 -189 -114 -192 -209zM477 242c0 117 -68 226 -192 226c-123 0 -192 -109 -192 -226c0 -118 69 -228 192 -228c124 0 192 110 192 228z" />
    <glyph glyph-name="germandbls" unicode="&#xdf;" horiz-adv-x="558" 
d="M536 127c0 -68 -48 -139 -173 -139c-96 0 -140 36 -177 77l24 22c30 -39 79 -72 153 -72c97 0 143 55 143 112c0 148 -310 71 -310 240c0 112 166 118 166 200c0 54 -64 83 -118 83c-69 0 -128 -50 -128 -131v-519h-30v519c0 89 64 158 158 158c79 0 148 -42 148 -110
c0 -107 -166 -102 -166 -202c0 -135 310 -55 310 -238z" />
    <glyph glyph-name="onesuperior" unicode="&#xb9;" horiz-adv-x="192" 
d="M132 421h-30v360l-63 -69l-19 20l85 89h27v-400z" />
    <glyph glyph-name="logicalnot" unicode="&#xac;" horiz-adv-x="494" 
d="M465 448v-228h-32v198h-404v30h436z" />
    <glyph glyph-name="mu" unicode="&#xb5;" horiz-adv-x="528" 
d="M116 -184h-30v667h30v-339c0 -101 50 -131 125 -131c66 0 137 42 171 90v380h30v-483h-30v74c-41 -46 -108 -86 -175 -86c-54 0 -96 13 -121 45v-217z" />
    <glyph glyph-name="mu" unicode="&#x3bc;" horiz-adv-x="528" 
d="M116 -184h-30v667h30v-339c0 -101 50 -131 125 -131c66 0 137 42 171 90v380h30v-483h-30v74c-41 -46 -108 -86 -175 -86c-54 0 -96 13 -121 45v-217z" />
    <glyph glyph-name="trademark" unicode="&#x2122;" horiz-adv-x="454" 
d="M419 447h-28v182l-75 -182h-8l-75 182v-182h-28v220h43l64 -160l64 160h43v-220zM169 641h-62v-194h-28v194h-62v26h152v-26z" />
    <glyph glyph-name="Eth" unicode="&#xd0;" horiz-adv-x="715" 
d="M317 0h-198v319h-107v30h107v318h198c207 0 332 -156 332 -334c0 -180 -125 -333 -332 -333zM339 319h-188v-289h166c189 0 297 134 297 303c0 167 -108 304 -297 304h-166v-288h188v-30z" />
    <glyph glyph-name="onehalf" unicode="&#xbd;" horiz-adv-x="755" 
d="M546 667l-427 -667h-36l426 667h37zM700 0h-271v24c136 99 240 186 240 269c0 63 -52 87 -100 87c-52 0 -93 -22 -114 -53l-20 18c27 38 78 61 135 61s128 -30 128 -112c0 -94 -105 -180 -225 -268h227v-26zM132 267h-30v360l-63 -69l-19 20l85 89h27v-400z" />
    <glyph glyph-name="plusminus" unicode="&#xb1;" horiz-adv-x="494" 
d="M465 322h-202v-222h-32v222h-202v30h202v216h32v-216h202v-30zM465 0h-436v30h436v-30z" />
    <glyph glyph-name="Thorn" unicode="&#xde;" horiz-adv-x="555" 
d="M120 0h-32v667h32v-129h199c124 0 195 -88 195 -190s-73 -188 -195 -188h-199v-160zM318 190c98 0 161 66 161 158s-63 160 -161 160h-198v-318h198z" />
    <glyph glyph-name="onequarter" unicode="&#xbc;" horiz-adv-x="715" 
d="M546 667l-427 -667h-36l426 667h37zM669 113h-62v-113h-29v113h-196v26l186 261h39v-261h62v-26zM578 139v232l-165 -232h165zM132 267h-30v360l-63 -69l-19 20l85 89h27v-400z" />
    <glyph glyph-name="divide" unicode="&#xf7;" horiz-adv-x="511" 
d="M289 536c0 -18 -15 -34 -33 -34s-33 16 -33 34s15 32 33 32s33 -14 33 -32zM482 322h-453v30h453v-30zM289 133c0 -18 -15 -33 -33 -33s-33 15 -33 33s15 33 33 33s33 -15 33 -33z" />
    <glyph glyph-name="brokenbar" unicode="&#xa6;" horiz-adv-x="206" 
d="M118 -20h-30v316h30v-316zM118 371h-30v316h30v-316z" />
    <glyph glyph-name="degree" unicode="&#xb0;" horiz-adv-x="273" 
d="M247 566c0 -61 -50 -110 -111 -110s-110 49 -110 110s49 111 110 111s111 -50 111 -111zM217 566c0 44 -37 81 -81 81s-80 -37 -80 -81s36 -80 80 -80s81 36 81 80z" />
    <glyph glyph-name="thorn" unicode="&#xfe;" horiz-adv-x="562" 
d="M290 -12c-72 0 -135 38 -174 95v-267h-30v851h30v-265c33 50 98 93 174 93c130 0 216 -100 216 -253c0 -152 -86 -254 -216 -254zM290 15c118 0 183 100 183 227s-65 226 -183 226c-75 0 -144 -45 -174 -96v-259c30 -51 99 -98 174 -98z" />
    <glyph glyph-name="threequarters" unicode="&#xbe;" horiz-adv-x="841" 
d="M672 667l-427 -667h-36l426 667h37zM795 113h-62v-113h-29v113h-196v26l186 261h39v-261h62v-26zM704 139v232l-165 -232h165zM326 374c0 -66 -51 -114 -138 -114c-67 0 -116 30 -138 66l20 17c23 -33 64 -57 118 -57c66 0 108 33 108 88c0 62 -54 87 -117 87
c-17 0 -30 0 -36 -1v27c6 -1 18 -1 36 -1c58 0 111 23 111 81c0 51 -48 80 -103 80c-49 0 -82 -17 -113 -52l-19 18c28 33 73 60 133 60c70 0 131 -38 131 -105c0 -65 -56 -89 -89 -94c35 -3 96 -32 96 -100z" />
    <glyph glyph-name="twosuperior" unicode="&#xb2;" 
d="M325 421h-271v24c136 99 240 186 240 269c0 63 -52 87 -100 87c-52 0 -93 -22 -114 -53l-20 18c27 38 78 61 135 61s128 -30 128 -112c0 -94 -105 -180 -225 -268h227v-26z" />
    <glyph glyph-name="registered" unicode="&#xae;" horiz-adv-x="494" 
d="M459 465c0 -117 -94 -212 -212 -212c-117 0 -212 95 -212 212c0 118 95 212 212 212c118 0 212 -94 212 -212zM433 465c0 104 -83 186 -186 186s-186 -82 -186 -186c0 -102 83 -186 186 -186s186 84 186 186zM343 343h-37l-63 96h-47v-96h-29v243h99c41 0 74 -29 74 -74
c0 -54 -48 -72 -62 -72zM310 512c0 27 -23 47 -44 47h-70v-92h70c21 0 44 20 44 45z" />
    <glyph glyph-name="minus" unicode="&#x2212;" horiz-adv-x="494" 
d="M465 319h-436v30h436v-30z" />
    <glyph glyph-name="eth" unicode="&#xf0;" horiz-adv-x="570" 
d="M138 522l-11 26l126 56c-27 19 -56 38 -87 57l18 27c34 -21 69 -43 103 -69l111 49l11 -26l-97 -43c108 -89 198 -207 198 -357c0 -142 -88 -254 -225 -254c-136 0 -225 112 -225 254s89 253 225 253c57 0 109 -20 156 -85c-46 72 -99 126 -162 174zM285 15
c124 0 192 109 192 227c0 117 -68 226 -192 226c-123 0 -192 -109 -192 -226c0 -118 69 -227 192 -227z" />
    <glyph glyph-name="multiply" unicode="&#xd7;" horiz-adv-x="494" 
d="M402 158l-155 155l-155 -155l-21 21l155 155l-155 155l21 21l155 -155l155 155l21 -21l-155 -155l155 -155z" />
    <glyph glyph-name="threesuperior" unicode="&#xb3;" 
d="M326 528c0 -66 -51 -114 -138 -114c-67 0 -116 30 -138 66l20 17c23 -33 64 -57 118 -57c66 0 108 33 108 88c0 62 -54 87 -117 87c-17 0 -30 0 -36 -1v27c6 -1 18 -1 36 -1c58 0 111 23 111 81c0 51 -48 80 -103 80c-49 0 -82 -17 -113 -52l-19 18c28 33 73 60 133 60
c70 0 131 -38 131 -105c0 -65 -56 -89 -89 -94c35 -3 96 -32 96 -100z" />
    <glyph glyph-name="copyright" unicode="&#xa9;" horiz-adv-x="778" 
d="M734 334c0 -190 -154 -345 -345 -345c-190 0 -345 155 -345 345c0 191 155 345 345 345c191 0 345 -154 345 -345zM708 334c0 176 -143 319 -319 319c-175 0 -319 -143 -319 -319c0 -175 144 -319 319 -319c176 0 319 144 319 319zM513 204l20 -20
c-36 -42 -82 -65 -144 -65c-115 0 -208 95 -208 217s93 214 208 214c62 0 109 -23 144 -64l-20 -20c-26 35 -77 57 -124 57c-93 0 -179 -74 -179 -188c0 -110 86 -189 179 -189c48 0 98 23 124 58z" />
    <glyph glyph-name="Aacute" unicode="&#xc1;" horiz-adv-x="636" 
d="M471 872l-175 -144h-30l160 144h45zM615 0h-37l-74 179h-372l-74 -179h-37l278 667h38zM492 209l-174 421l-174 -421h348z" />
    <glyph glyph-name="Acircumflex" unicode="&#xc2;" horiz-adv-x="636" 
d="M437 728h-28l-91 120l-88 -120h-28l98 144h36zM615 0h-37l-74 179h-372l-74 -179h-37l278 667h38zM492 209l-174 421l-174 -421h348z" />
    <glyph glyph-name="Adieresis" unicode="&#xc4;" horiz-adv-x="636" 
d="M448 764c0 -15 -13 -28 -28 -28s-28 13 -28 28s13 28 28 28s28 -13 28 -28zM246 764c0 -15 -13 -28 -28 -28s-28 13 -28 28s13 28 28 28s28 -13 28 -28zM615 0h-37l-74 179h-372l-74 -179h-37l278 667h38zM492 209l-174 421l-174 -421h348z" />
    <glyph glyph-name="Agrave" unicode="&#xc0;" horiz-adv-x="636" 
d="M371 728h-30l-175 144h45zM615 0h-37l-74 179h-372l-74 -179h-37l278 667h38zM492 209l-174 421l-174 -421h348z" />
    <glyph glyph-name="Aring" unicode="&#xc5;" horiz-adv-x="636" 
d="M319 692c-51 0 -93 42 -93 93s42 93 93 93s92 -42 92 -93s-41 -93 -92 -93zM319 716c38 0 68 31 68 69s-30 69 -68 69s-69 -31 -69 -69s31 -69 69 -69zM615 0h-37l-74 179h-372l-74 -179h-37l278 667h38zM492 209l-174 421l-174 -421h348z" />
    <glyph glyph-name="Atilde" unicode="&#xc3;" horiz-adv-x="636" 
d="M381 726c-77 0 -71 113 -128 113c-33 0 -59 -32 -59 -107h-26c0 72 31 134 88 134c77 0 71 -113 128 -113c33 0 59 32 59 107h26c0 -72 -31 -134 -88 -134zM615 0h-37l-74 179h-372l-74 -179h-37l278 667h38zM492 209l-174 421l-174 -421h348z" />
    <glyph glyph-name="Ccedilla" unicode="&#xc7;" horiz-adv-x="667" 
d="M392 -183c-38 0 -74 13 -93 28l14 27c24 -21 52 -28 79 -28c37 0 69 18 69 49c0 26 -14 43 -44 43c-16 0 -33 -7 -43 -19l-22 13l21 59c-173 12 -308 148 -308 344c0 205 148 345 333 345c94 0 173 -37 232 -105l-25 -22c-47 59 -124 97 -207 97
c-167 0 -298 -127 -298 -315c0 -186 131 -315 298 -315c83 0 160 38 207 97l26 -21c-62 -70 -137 -105 -228 -106l-16 -42c10 8 25 12 38 12c39 0 65 -25 65 -65c0 -45 -43 -76 -98 -76z" />
    <glyph glyph-name="Eacute" unicode="&#xc9;" horiz-adv-x="558" 
d="M444 872l-175 -144h-30l160 144h45zM496 0h-408v667h408v-30h-376v-279h369v-30h-369v-298h376v-30z" />
    <glyph glyph-name="Ecircumflex" unicode="&#xca;" horiz-adv-x="558" 
d="M408 728h-28l-91 120l-88 -120h-28l98 144h36zM496 0h-408v667h408v-30h-376v-279h369v-30h-369v-298h376v-30z" />
    <glyph glyph-name="Edieresis" unicode="&#xcb;" horiz-adv-x="558" 
d="M419 764c0 -15 -13 -28 -28 -28s-28 13 -28 28s13 28 28 28s28 -13 28 -28zM217 764c0 -15 -13 -28 -28 -28s-28 13 -28 28s13 28 28 28s28 -13 28 -28zM496 0h-408v667h408v-30h-376v-279h369v-30h-369v-298h376v-30z" />
    <glyph glyph-name="Egrave" unicode="&#xc8;" horiz-adv-x="558" 
d="M344 728h-30l-175 144h45zM496 0h-408v667h408v-30h-376v-279h369v-30h-369v-298h376v-30z" />
    <glyph glyph-name="Iacute" unicode="&#xcd;" horiz-adv-x="208" 
d="M257 872l-175 -144h-30l160 144h45zM120 0h-32v667h32v-667z" />
    <glyph glyph-name="Icircumflex" unicode="&#xce;" horiz-adv-x="208" 
d="M223 728h-28l-91 120l-88 -120h-28l98 144h36zM120 0h-32v667h32v-667z" />
    <glyph glyph-name="Idieresis" unicode="&#xcf;" horiz-adv-x="208" 
d="M233 764c0 -15 -13 -28 -28 -28s-28 13 -28 28s13 28 28 28s28 -13 28 -28zM31 764c0 -15 -13 -28 -28 -28s-28 13 -28 28s13 28 28 28s28 -13 28 -28zM120 0h-32v667h32v-667z" />
    <glyph glyph-name="Igrave" unicode="&#xcc;" horiz-adv-x="208" 
d="M157 728h-30l-175 144h45zM120 0h-32v667h32v-667z" />
    <glyph glyph-name="Ntilde" unicode="&#xd1;" horiz-adv-x="690" 
d="M406 726c-77 0 -71 113 -128 113c-33 0 -59 -32 -59 -107h-26c0 72 31 134 88 134c77 0 71 -113 128 -113c33 0 59 32 59 107h26c0 -72 -31 -134 -88 -134zM602 0h-32l-450 615v-615h-32v667h32l450 -609v609h32v-667z" />
    <glyph glyph-name="Oacute" unicode="&#xd3;" horiz-adv-x="764" 
d="M536 872l-175 -144h-30l160 144h45zM382 -12c-194 0 -317 152 -317 345s123 345 317 345c193 0 317 -152 317 -345s-124 -345 -317 -345zM382 18c171 0 282 134 282 315c0 183 -111 315 -282 315c-173 0 -282 -132 -282 -315c0 -181 109 -315 282 -315z" />
    <glyph glyph-name="Ocircumflex" unicode="&#xd4;" horiz-adv-x="764" 
d="M501 728h-28l-91 120l-88 -120h-28l98 144h36zM382 -12c-194 0 -317 152 -317 345s123 345 317 345c193 0 317 -152 317 -345s-124 -345 -317 -345zM382 18c171 0 282 134 282 315c0 183 -111 315 -282 315c-173 0 -282 -132 -282 -315c0 -181 109 -315 282 -315z" />
    <glyph glyph-name="Odieresis" unicode="&#xd6;" horiz-adv-x="764" 
d="M509 764c0 -15 -13 -28 -28 -28s-28 13 -28 28s13 28 28 28s28 -13 28 -28zM307 764c0 -15 -13 -28 -28 -28s-28 13 -28 28s13 28 28 28s28 -13 28 -28zM382 -12c-194 0 -317 152 -317 345s123 345 317 345c193 0 317 -152 317 -345s-124 -345 -317 -345zM382 18
c171 0 282 134 282 315c0 183 -111 315 -282 315c-173 0 -282 -132 -282 -315c0 -181 109 -315 282 -315z" />
    <glyph glyph-name="Ograve" unicode="&#xd2;" horiz-adv-x="764" 
d="M439 728h-30l-175 144h45zM382 -12c-194 0 -317 152 -317 345s123 345 317 345c193 0 317 -152 317 -345s-124 -345 -317 -345zM382 18c171 0 282 134 282 315c0 183 -111 315 -282 315c-173 0 -282 -132 -282 -315c0 -181 109 -315 282 -315z" />
    <glyph glyph-name="Otilde" unicode="&#xd5;" horiz-adv-x="764" 
d="M445 726c-77 0 -71 113 -128 113c-33 0 -59 -32 -59 -107h-26c0 72 31 134 88 134c77 0 71 -113 128 -113c33 0 59 32 59 107h26c0 -72 -31 -134 -88 -134zM382 -12c-194 0 -317 152 -317 345s123 345 317 345c193 0 317 -152 317 -345s-124 -345 -317 -345zM382 18
c171 0 282 134 282 315c0 183 -111 315 -282 315c-173 0 -282 -132 -282 -315c0 -181 109 -315 282 -315z" />
    <glyph glyph-name="Scaron" unicode="&#x160;" horiz-adv-x="575" 
d="M299 728h-36l-101 144h28l91 -120l88 120h28zM286 -12c-104 0 -185 45 -233 106l26 23c41 -50 111 -99 207 -99c154 0 193 88 193 151c0 220 -405 111 -405 339c0 108 99 170 209 170c98 0 169 -36 216 -94l-25 -23c-47 61 -114 87 -191 87c-97 0 -174 -58 -174 -140
c0 -190 405 -90 405 -339c0 -75 -48 -181 -228 -181z" />
    <glyph glyph-name="Uacute" unicode="&#xda;" horiz-adv-x="672" 
d="M487 872l-175 -144h-30l160 144h45zM336 -12c-162 0 -248 101 -248 265v414h32v-414c0 -148 76 -235 216 -235s216 87 216 235v414h32v-414c0 -165 -86 -265 -248 -265z" />
    <glyph glyph-name="Ucircumflex" unicode="&#xdb;" horiz-adv-x="672" 
d="M457 728h-28l-91 120l-88 -120h-28l98 144h36zM336 -12c-162 0 -248 101 -248 265v414h32v-414c0 -148 76 -235 216 -235s216 87 216 235v414h32v-414c0 -165 -86 -265 -248 -265z" />
    <glyph glyph-name="Udieresis" unicode="&#xdc;" horiz-adv-x="672" 
d="M465 764c0 -15 -13 -28 -28 -28s-28 13 -28 28s13 28 28 28s28 -13 28 -28zM263 764c0 -15 -13 -28 -28 -28s-28 13 -28 28s13 28 28 28s28 -13 28 -28zM336 -12c-162 0 -248 101 -248 265v414h32v-414c0 -148 76 -235 216 -235s216 87 216 235v414h32v-414
c0 -165 -86 -265 -248 -265z" />
    <glyph glyph-name="Ugrave" unicode="&#xd9;" horiz-adv-x="672" 
d="M390 728h-30l-175 144h45zM336 -12c-162 0 -248 101 -248 265v414h32v-414c0 -148 76 -235 216 -235s216 87 216 235v414h32v-414c0 -165 -86 -265 -248 -265z" />
    <glyph glyph-name="Yacute" unicode="&#xdd;" horiz-adv-x="610" 
d="M462 872l-175 -144h-30l160 144h45zM321 0h-32v289l-268 378h41l243 -346l243 346h41l-268 -378v-289z" />
    <glyph glyph-name="Ydieresis" unicode="&#x178;" horiz-adv-x="610" 
d="M438 764c0 -15 -13 -28 -28 -28s-28 13 -28 28s13 28 28 28s28 -13 28 -28zM236 764c0 -15 -13 -28 -28 -28s-28 13 -28 28s13 28 28 28s28 -13 28 -28zM321 0h-32v289l-268 378h41l243 -346l243 346h41l-268 -378v-289z" />
    <glyph glyph-name="Zcaron" unicode="&#x17d;" horiz-adv-x="578" 
d="M308 728h-36l-101 144h28l91 -120l88 120h28zM525 0h-472v30l427 607h-427v30h465v-30l-428 -607h435v-30z" />
    <glyph glyph-name="aacute" unicode="&#xe1;" horiz-adv-x="514" 
d="M428 0h-30v59c-45 -49 -99 -71 -167 -71c-85 0 -169 58 -169 161s83 161 169 161c68 0 122 -22 167 -71v109c0 78 -62 120 -136 120c-63 0 -110 -22 -155 -76l-23 20c47 55 97 83 178 83c95 0 166 -48 166 -146v-349zM239 15c63 0 122 25 159 74v120
c-37 49 -96 74 -159 74c-88 0 -144 -59 -144 -134s56 -134 144 -134zM413 700l-175 -144h-30l160 144h45z" />
    <glyph glyph-name="acircumflex" unicode="&#xe2;" horiz-adv-x="514" 
d="M428 0h-30v59c-45 -49 -99 -71 -167 -71c-85 0 -169 58 -169 161s83 161 169 161c68 0 122 -22 167 -71v109c0 78 -62 120 -136 120c-63 0 -110 -22 -155 -76l-23 20c47 55 97 83 178 83c95 0 166 -48 166 -146v-349zM239 15c63 0 122 25 159 74v120
c-37 49 -96 74 -159 74c-88 0 -144 -59 -144 -134s56 -134 144 -134zM381 556h-28l-91 120l-88 -120h-28l98 144h36z" />
    <glyph glyph-name="adieresis" unicode="&#xe4;" horiz-adv-x="514" 
d="M428 0h-30v59c-45 -49 -99 -71 -167 -71c-85 0 -169 58 -169 161s83 161 169 161c68 0 122 -22 167 -71v109c0 78 -62 120 -136 120c-63 0 -110 -22 -155 -76l-23 20c47 55 97 83 178 83c95 0 166 -48 166 -146v-349zM239 15c63 0 122 25 159 74v120
c-37 49 -96 74 -159 74c-88 0 -144 -59 -144 -134s56 -134 144 -134zM389 598c0 -15 -13 -28 -28 -28s-28 13 -28 28s13 28 28 28s28 -13 28 -28zM187 598c0 -15 -13 -28 -28 -28s-28 13 -28 28s13 28 28 28s28 -13 28 -28z" />
    <glyph glyph-name="agrave" unicode="&#xe0;" horiz-adv-x="514" 
d="M428 0h-30v59c-45 -49 -99 -71 -167 -71c-85 0 -169 58 -169 161s83 161 169 161c68 0 122 -22 167 -71v109c0 78 -62 120 -136 120c-63 0 -110 -22 -155 -76l-23 20c47 55 97 83 178 83c95 0 166 -48 166 -146v-349zM239 15c63 0 122 25 159 74v120
c-37 49 -96 74 -159 74c-88 0 -144 -59 -144 -134s56 -134 144 -134zM315 556h-30l-175 144h45z" />
    <glyph glyph-name="aring" unicode="&#xe5;" horiz-adv-x="514" 
d="M428 0h-30v59c-45 -49 -99 -71 -167 -71c-85 0 -169 58 -169 161s83 161 169 161c68 0 122 -22 167 -71v109c0 78 -62 120 -136 120c-63 0 -110 -22 -155 -76l-23 20c47 55 97 83 178 83c95 0 166 -48 166 -146v-349zM239 15c63 0 122 25 159 74v120
c-37 49 -96 74 -159 74c-88 0 -144 -59 -144 -134s56 -134 144 -134zM261 553c-51 0 -93 42 -93 93s42 93 93 93s92 -42 92 -93s-41 -93 -92 -93zM261 577c38 0 68 31 68 69s-30 69 -68 69s-69 -31 -69 -69s31 -69 69 -69z" />
    <glyph glyph-name="atilde" unicode="&#xe3;" horiz-adv-x="514" 
d="M428 0h-30v59c-45 -49 -99 -71 -167 -71c-85 0 -169 58 -169 161s83 161 169 161c68 0 122 -22 167 -71v109c0 78 -62 120 -136 120c-63 0 -110 -22 -155 -76l-23 20c47 55 97 83 178 83c95 0 166 -48 166 -146v-349zM239 15c63 0 122 25 159 74v120
c-37 49 -96 74 -159 74c-88 0 -144 -59 -144 -134s56 -134 144 -134zM324 554c-77 0 -71 113 -128 113c-33 0 -59 -32 -59 -107h-26c0 72 31 134 88 134c77 0 71 -113 128 -113c33 0 59 32 59 107h26c0 -72 -31 -134 -88 -134z" />
    <glyph glyph-name="ccedilla" unicode="&#xe7;" horiz-adv-x="493" 
d="M288 -185c-38 0 -74 13 -93 28l14 27c24 -21 52 -28 79 -28c37 0 69 18 69 49c0 26 -14 43 -44 43c-16 0 -33 -7 -43 -19l-22 13l22 61c-130 9 -210 120 -210 253c0 139 88 253 228 253c79 0 124 -30 165 -81l-22 -18c-39 53 -85 72 -141 72c-124 0 -197 -100 -197 -226
s73 -227 197 -227c56 0 102 20 141 73l22 -19c-39 -49 -82 -78 -154 -81l-16 -44c10 8 25 12 38 12c39 0 65 -25 65 -65c0 -45 -43 -76 -98 -76z" />
    <glyph glyph-name="eacute" unicode="&#xe9;" horiz-adv-x="571" 
d="M297 -12c-140 0 -237 107 -237 254c0 140 97 253 227 253c148 0 224 -119 224 -253v-10h-417c3 -118 80 -217 203 -217c68 0 123 25 168 73l18 -19c-49 -51 -105 -81 -186 -81zM479 259c0 93 -61 209 -193 209c-124 0 -189 -114 -192 -209h385zM440 700l-175 -144h-30
l160 144h45z" />
    <glyph glyph-name="ecircumflex" unicode="&#xea;" horiz-adv-x="571" 
d="M297 -12c-140 0 -237 107 -237 254c0 140 97 253 227 253c148 0 224 -119 224 -253v-10h-417c3 -118 80 -217 203 -217c68 0 123 25 168 73l18 -19c-49 -51 -105 -81 -186 -81zM479 259c0 93 -61 209 -193 209c-124 0 -189 -114 -192 -209h385zM407 556h-28l-91 120
l-88 -120h-28l98 144h36z" />
    <glyph glyph-name="edieresis" unicode="&#xeb;" horiz-adv-x="571" 
d="M297 -12c-140 0 -237 107 -237 254c0 140 97 253 227 253c148 0 224 -119 224 -253v-10h-417c3 -118 80 -217 203 -217c68 0 123 25 168 73l18 -19c-49 -51 -105 -81 -186 -81zM479 259c0 93 -61 209 -193 209c-124 0 -189 -114 -192 -209h385zM417 598
c0 -15 -13 -28 -28 -28s-28 13 -28 28s13 28 28 28s28 -13 28 -28zM215 598c0 -15 -13 -28 -28 -28s-28 13 -28 28s13 28 28 28s28 -13 28 -28z" />
    <glyph glyph-name="egrave" unicode="&#xe8;" horiz-adv-x="571" 
d="M297 -12c-140 0 -237 107 -237 254c0 140 97 253 227 253c148 0 224 -119 224 -253v-10h-417c3 -118 80 -217 203 -217c68 0 123 25 168 73l18 -19c-49 -51 -105 -81 -186 -81zM479 259c0 93 -61 209 -193 209c-124 0 -189 -114 -192 -209h385zM341 556h-30l-175 144h45z
" />
    <glyph glyph-name="iacute" unicode="&#xed;" horiz-adv-x="202" 
d="M254 700l-175 -144h-30l160 144h45zM116 0h-30v483h30v-483z" />
    <glyph glyph-name="icircumflex" unicode="&#xee;" horiz-adv-x="202" 
d="M219 556h-28l-91 120l-88 -120h-28l98 144h36zM116 0h-30v483h30v-483z" />
    <glyph glyph-name="idieresis" unicode="&#xef;" horiz-adv-x="202" 
d="M230 598c0 -15 -13 -28 -28 -28s-28 13 -28 28s13 28 28 28s28 -13 28 -28zM28 598c0 -15 -13 -28 -28 -28s-28 13 -28 28s13 28 28 28s28 -13 28 -28zM116 0h-30v483h30v-483z" />
    <glyph glyph-name="igrave" unicode="&#xec;" horiz-adv-x="202" 
d="M153 556h-30l-175 144h45zM116 0h-30v483h30v-483z" />
    <glyph glyph-name="ntilde" unicode="&#xf1;" horiz-adv-x="528" 
d="M442 0h-30v337c0 101 -50 131 -125 131c-66 0 -137 -43 -171 -91v-377h-30v483h30v-76c36 44 108 88 175 88c96 0 151 -44 151 -158v-337zM327 554c-77 0 -71 113 -128 113c-33 0 -59 -32 -59 -107h-26c0 72 31 134 88 134c77 0 71 -113 128 -113c33 0 59 32 59 107h26
c0 -72 -31 -134 -88 -134z" />
    <glyph glyph-name="oacute" unicode="&#xf3;" horiz-adv-x="570" 
d="M285 -12c-136 0 -225 112 -225 254s89 253 225 253c137 0 225 -111 225 -253s-88 -254 -225 -254zM285 15c124 0 192 109 192 227c0 117 -68 226 -192 226c-123 0 -192 -109 -192 -226c0 -118 69 -227 192 -227zM438 700l-175 -144h-30l160 144h45z" />
    <glyph glyph-name="ocircumflex" unicode="&#xf4;" horiz-adv-x="570" 
d="M285 -12c-136 0 -225 112 -225 254s89 253 225 253c137 0 225 -111 225 -253s-88 -254 -225 -254zM285 15c124 0 192 109 192 227c0 117 -68 226 -192 226c-123 0 -192 -109 -192 -226c0 -118 69 -227 192 -227zM404 556h-28l-91 120l-88 -120h-28l98 144h36z" />
    <glyph glyph-name="odieresis" unicode="&#xf6;" horiz-adv-x="570" 
d="M285 -12c-136 0 -225 112 -225 254s89 253 225 253c137 0 225 -111 225 -253s-88 -254 -225 -254zM285 15c124 0 192 109 192 227c0 117 -68 226 -192 226c-123 0 -192 -109 -192 -226c0 -118 69 -227 192 -227zM414 598c0 -15 -13 -28 -28 -28s-28 13 -28 28
s13 28 28 28s28 -13 28 -28zM212 598c0 -15 -13 -28 -28 -28s-28 13 -28 28s13 28 28 28s28 -13 28 -28z" />
    <glyph glyph-name="ograve" unicode="&#xf2;" horiz-adv-x="570" 
d="M285 -12c-136 0 -225 112 -225 254s89 253 225 253c137 0 225 -111 225 -253s-88 -254 -225 -254zM285 15c124 0 192 109 192 227c0 117 -68 226 -192 226c-123 0 -192 -109 -192 -226c0 -118 69 -227 192 -227zM338 556h-30l-175 144h45z" />
    <glyph glyph-name="otilde" unicode="&#xf5;" horiz-adv-x="570" 
d="M285 -12c-136 0 -225 112 -225 254s89 253 225 253c137 0 225 -111 225 -253s-88 -254 -225 -254zM285 15c124 0 192 109 192 227c0 117 -68 226 -192 226c-123 0 -192 -109 -192 -226c0 -118 69 -227 192 -227zM348 554c-77 0 -71 113 -128 113c-33 0 -59 -32 -59 -107
h-26c0 72 31 134 88 134c77 0 71 -113 128 -113c33 0 59 32 59 107h26c0 -72 -31 -134 -88 -134z" />
    <glyph glyph-name="scaron" unicode="&#x161;" horiz-adv-x="454" 
d="M221 -12c-76 0 -129 22 -177 77l24 22c30 -40 82 -72 153 -72c89 0 143 48 143 112c0 148 -310 71 -310 240c0 71 60 128 164 128c83 0 135 -33 166 -73l-22 -20c-28 40 -79 66 -144 66c-84 0 -134 -44 -134 -101c0 -135 310 -57 310 -240c0 -75 -56 -139 -173 -139z
M241 556h-36l-101 144h28l91 -120l88 120h28z" />
    <glyph glyph-name="uacute" unicode="&#xfa;" horiz-adv-x="528" 
d="M442 0h-30v74c-41 -46 -108 -86 -175 -86c-96 0 -151 42 -151 156v339h30v-339c0 -101 50 -129 125 -129c66 0 137 40 171 88v380h30v-483zM418 700l-175 -144h-30l160 144h45z" />
    <glyph glyph-name="ucircumflex" unicode="&#xfb;" horiz-adv-x="528" 
d="M442 0h-30v74c-41 -46 -108 -86 -175 -86c-96 0 -151 42 -151 156v339h30v-339c0 -101 50 -129 125 -129c66 0 137 40 171 88v380h30v-483zM381 556h-28l-91 120l-88 -120h-28l98 144h36z" />
    <glyph glyph-name="udieresis" unicode="&#xfc;" horiz-adv-x="528" 
d="M442 0h-30v74c-41 -46 -108 -86 -175 -86c-96 0 -151 42 -151 156v339h30v-339c0 -101 50 -129 125 -129c66 0 137 40 171 88v380h30v-483zM397 598c0 -15 -13 -28 -28 -28s-28 13 -28 28s13 28 28 28s28 -13 28 -28zM195 598c0 -15 -13 -28 -28 -28s-28 13 -28 28
s13 28 28 28s28 -13 28 -28z" />
    <glyph glyph-name="ugrave" unicode="&#xf9;" horiz-adv-x="528" 
d="M442 0h-30v74c-41 -46 -108 -86 -175 -86c-96 0 -151 42 -151 156v339h30v-339c0 -101 50 -129 125 -129c66 0 137 40 171 88v380h30v-483zM319 556h-30l-175 144h45z" />
    <glyph glyph-name="yacute" unicode="&#xfd;" horiz-adv-x="471" 
d="M50 -189l6 28c11 -5 30 -8 42 -8c32 0 54 14 76 66l44 100l-207 486h35l190 -448l189 448h35l-256 -597c-23 -52 -58 -82 -106 -82c-17 0 -36 3 -48 7zM389 700l-175 -144h-30l160 144h45z" />
    <glyph glyph-name="ydieresis" unicode="&#xff;" horiz-adv-x="471" 
d="M50 -189l6 28c11 -5 30 -8 42 -8c32 0 54 14 76 66l44 100l-207 486h35l190 -448l189 448h35l-256 -597c-23 -52 -58 -82 -106 -82c-17 0 -36 3 -48 7zM365 598c0 -15 -13 -28 -28 -28s-28 13 -28 28s13 28 28 28s28 -13 28 -28zM163 598c0 -15 -13 -28 -28 -28
s-28 13 -28 28s13 28 28 28s28 -13 28 -28z" />
    <glyph glyph-name="zcaron" unicode="&#x17e;" horiz-adv-x="466" 
d="M406 0h-346v27l307 429h-307v27h342v-27l-309 -429h313v-27zM245 556h-36l-101 144h28l91 -120l88 120h28z" />
    <glyph glyph-name="dollarsuperior" unicode="&#xf6e4;" horiz-adv-x="359" 
d="M172 361v53c-63 2 -112 30 -141 66l21 20c25 -29 65 -58 120 -61v177c-65 16 -131 33 -131 106c0 64 59 104 131 105v55h25v-56c53 -5 92 -27 119 -58l-19 -18c-25 30 -60 47 -100 51v-159c65 -16 131 -38 131 -114c0 -66 -43 -109 -131 -114v-53h-25zM297 527
c0 53 -47 70 -100 83v-171c70 5 100 42 100 88zM72 723c0 -47 46 -62 100 -75v154c-57 -2 -100 -34 -100 -79z" />
    <glyph glyph-name="parenleftsuperior" unicode="&#x207d;" horiz-adv-x="135" 
d="M125 365l-16 -9c-53 78 -81 168 -81 265c0 96 28 186 81 265l16 -9c-39 -79 -66 -149 -66 -256c0 -106 27 -178 66 -256z" />
    <glyph glyph-name="parenrightsuperior" unicode="&#x207e;" horiz-adv-x="135" 
d="M125 621c0 -97 -28 -186 -81 -265l-16 9c39 78 66 150 66 256c0 107 -27 177 -66 256l16 9c53 -79 81 -169 81 -265z" />
    <glyph glyph-name="commasuperior" unicode="&#xf6e2;" horiz-adv-x="123" 
d="M83 432c0 -37 -20 -70 -40 -84c-6 5 -11 9 -17 14c19 13 34 37 34 55c0 0 -2 -1 -3 -1c-11 0 -24 11 -24 24c0 12 11 24 25 24c15 0 25 -14 25 -32z" />
    <glyph glyph-name="periodsuperior" unicode="&#xf6e8;" horiz-adv-x="129" 
d="M89 440c0 -13 -11 -24 -24 -24s-25 11 -25 24s12 24 25 24s24 -11 24 -24z" />
    <glyph glyph-name="asuperior" unicode="&#xf6e9;" horiz-adv-x="372" 
d="M303 326h-27v38c-30 -31 -67 -46 -113 -46c-57 0 -113 39 -113 105c0 68 56 104 113 104c46 0 83 -15 113 -46v68c0 49 -45 74 -90 74c-37 0 -75 -14 -103 -50l-18 19c32 37 68 56 122 56c65 0 116 -31 116 -99v-223zM172 340c41 0 80 16 104 46v73
c-24 30 -63 46 -104 46c-56 0 -93 -36 -93 -82c0 -48 37 -83 93 -83z" />
    <glyph glyph-name="bsuperior" unicode="&#xf6ea;" horiz-adv-x="407" 
d="M210 342c76 0 120 60 120 141c0 80 -44 141 -120 141c-48 0 -93 -28 -113 -59v-165c20 -31 65 -58 113 -58zM97 326h-28v434h28v-173c26 37 68 61 116 61c87 0 146 -65 146 -165c0 -101 -60 -165 -146 -165c-51 0 -94 28 -116 60v-52z" />
    <glyph glyph-name="centsuperior" unicode="&#xf6e0;" horiz-adv-x="303" 
d="M162 416v54c-78 8 -127 72 -127 151c0 78 49 142 127 151v43h24v-42c47 -2 75 -22 100 -52l-20 -15c-22 30 -49 43 -80 44v-258c31 1 58 14 80 44l20 -16c-25 -30 -53 -49 -100 -51v-53h-24zM64 621c0 -67 37 -119 98 -128v255c-61 -9 -98 -61 -98 -127z" />
    <glyph glyph-name="dsuperior" unicode="&#xf6eb;" horiz-adv-x="407" 
d="M338 326h-27v52c-23 -32 -66 -60 -117 -60c-86 0 -146 64 -146 165c0 100 60 165 146 165c48 0 90 -24 116 -61v173h28v-434zM197 342c49 0 94 27 114 58v165c-20 31 -65 59 -114 59c-76 0 -119 -61 -119 -141c0 -81 43 -141 119 -141z" />
    <glyph glyph-name="esuperior" unicode="&#xf6ec;" horiz-adv-x="404" 
d="M210 318c-94 0 -162 69 -162 165c0 91 67 165 156 165c99 0 152 -77 152 -166v-8h-278c3 -71 53 -133 132 -133c45 0 82 16 112 46l14 -17c-33 -33 -72 -52 -126 -52zM329 497c-1 57 -41 128 -126 128c-80 0 -123 -69 -125 -128h251z" />
    <glyph glyph-name="isuperior" unicode="&#xf6ed;" horiz-adv-x="142" 
d="M71 696c-12 0 -23 11 -23 23s11 23 23 23s23 -11 23 -23s-11 -23 -23 -23zM85 326h-28v314h28v-314z" />
    <glyph glyph-name="lsuperior" unicode="&#xf6ee;" horiz-adv-x="166" 
d="M97 326h-28v434h28v-434z" />
    <glyph glyph-name="msuperior" unicode="&#xf6ef;" horiz-adv-x="550" 
d="M481 326h-27v220c0 48 -20 79 -68 79c-35 0 -78 -27 -97 -57v-242h-27v220c0 48 -20 79 -69 79c-35 0 -76 -27 -96 -57v-242h-28v314h28v-49c13 20 57 57 104 57c50 0 77 -31 85 -60c18 29 61 60 108 60c58 0 87 -35 87 -102v-220z" />
    <glyph glyph-name="nsuperior" unicode="&#x207f;" horiz-adv-x="387" 
d="M318 326h-28v213c0 65 -33 86 -82 86c-44 0 -89 -28 -111 -57v-242h-28v314h28v-49c24 28 72 57 117 57c83 0 104 -41 104 -109v-213z" />
    <glyph glyph-name="osuperior" unicode="&#xf6f0;" horiz-adv-x="405" 
d="M202 318c-92 0 -154 73 -154 165c0 93 62 165 154 165c94 0 155 -72 155 -165c0 -92 -61 -165 -155 -165zM202 344c80 0 126 65 126 139s-46 138 -126 138c-79 0 -124 -64 -124 -138s45 -139 124 -139z" />
    <glyph glyph-name="rsuperior" unicode="&#xf6f1;" horiz-adv-x="225" 
d="M97 326h-28v314h28v-55c28 35 65 61 110 61v-29h-17c-33 0 -79 -30 -93 -58v-233z" />
    <glyph glyph-name="ssuperior" unicode="&#xf6f2;" horiz-adv-x="325" 
d="M157 318c-53 0 -90 16 -122 52l18 18c20 -26 57 -47 104 -47c59 0 92 30 92 70c0 92 -208 38 -208 151c0 47 41 86 114 86c57 0 93 -22 114 -48l-16 -18c-19 26 -54 43 -98 43c-54 0 -86 -29 -86 -64c0 -85 208 -28 208 -150c0 -50 -39 -93 -120 -93z" />
    <glyph glyph-name="tsuperior" unicode="&#xf6f3;" horiz-adv-x="181" 
d="M123 318c-40 0 -60 26 -60 67v232h-53v23h53v86h28v-86h65v-23h-65v-231c0 -26 11 -44 34 -44c16 0 30 7 37 16c4 -7 9 -14 13 -20c-13 -12 -27 -20 -52 -20z" />
    <glyph glyph-name="parenleftinferior" unicode="&#x208d;" horiz-adv-x="135" 
d="M125 -202l-16 -9c-53 78 -81 168 -81 265c0 96 28 186 81 265l16 -9c-39 -79 -66 -149 -66 -256c0 -106 27 -178 66 -256z" />
    <glyph glyph-name="parenrightinferior" unicode="&#x208e;" horiz-adv-x="135" 
d="M125 54c0 -97 -28 -186 -81 -265l-16 9c39 78 66 150 66 256c0 107 -27 177 -66 256l16 9c53 -79 81 -169 81 -265z" />
    <glyph glyph-name="hyphensuperior" unicode="&#xf6e6;" horiz-adv-x="184" 
d="M166 609h-148v25h148v-25z" />
    <glyph glyph-name="colonmonetary" unicode="&#x20a1;" horiz-adv-x="667" 
d="M398 -12c-11 0 -22 1 -32 2l-30 -90h-31l31 94c-32 5 -63 15 -91 29l-41 -123h-31l46 138c-93 58 -154 163 -154 295c0 205 148 345 333 345c12 0 24 -1 36 -2l31 92h31l-33 -97c32 -6 62 -18 90 -34l44 131h31l-50 -147c19 -14 36 -30 52 -48l-25 -22
c-11 13 -24 26 -38 37l-191 -569c7 -1 14 -1 22 -1c83 0 160 38 207 97l26 -21c-63 -71 -139 -106 -233 -106zM100 333c0 -116 51 -210 130 -264l194 578c-8 1 -17 1 -26 1c-167 0 -298 -127 -298 -315zM255 53c28 -15 58 -25 91 -31l196 584c-27 17 -57 30 -89 36z" />
    <glyph glyph-name="rupiah" unicode="&#xf6dd;" horiz-adv-x="1081" 
d="M524 0h-41l-203 288h-160v-288h-32v667h230c108 0 197 -67 197 -189s-89 -190 -197 -190zM318 318c98 0 162 68 162 160s-64 159 -162 159h-198v-319h198zM809 -12c-72 0 -135 38 -174 95v-267h-30v667h30v-81c33 50 98 93 174 93c130 0 216 -100 216 -253
c0 -152 -86 -254 -216 -254zM809 15c118 0 183 100 183 227s-65 226 -183 226c-75 0 -144 -45 -174 -96v-259c30 -51 99 -98 174 -98z" />
    <glyph glyph-name="hypheninferior" unicode="&#xf6e5;" horiz-adv-x="184" 
d="M166 41h-148v25h148v-25z" />
    <glyph glyph-name="oneeighth" unicode="&#x215b;" horiz-adv-x="755" 
d="M546 667l-427 -667h-36l426 667h37zM704 100c0 -64 -61 -107 -139 -107c-79 0 -139 42 -139 107c0 57 52 93 107 106c-51 12 -100 42 -100 96c0 72 68 104 132 104c63 0 132 -32 132 -104c0 -54 -48 -84 -99 -96c54 -13 106 -49 106 -106zM668 301c0 51 -47 79 -103 79
s-103 -28 -103 -79c0 -61 79 -78 103 -83c25 5 103 22 103 83zM674 101c0 66 -84 90 -109 93c-25 -3 -110 -27 -110 -93c0 -52 53 -83 110 -83c56 0 109 31 109 83zM132 267h-30v360l-63 -69l-19 20l85 89h27v-400z" />
    <glyph glyph-name="threeeighths" unicode="&#x215c;" horiz-adv-x="881" 
d="M672 667l-427 -667h-36l426 667h37zM830 100c0 -64 -61 -107 -139 -107c-79 0 -139 42 -139 107c0 57 52 93 107 106c-51 12 -100 42 -100 96c0 72 68 104 132 104c63 0 132 -32 132 -104c0 -54 -48 -84 -99 -96c54 -13 106 -49 106 -106zM794 301c0 51 -47 79 -103 79
s-103 -28 -103 -79c0 -61 79 -78 103 -83c25 5 103 22 103 83zM800 101c0 66 -84 90 -109 93c-25 -3 -110 -27 -110 -93c0 -52 53 -83 110 -83c56 0 109 31 109 83zM326 374c0 -66 -51 -114 -138 -114c-67 0 -116 30 -138 66l20 17c23 -33 64 -57 118 -57
c66 0 108 33 108 88c0 62 -54 87 -117 87c-17 0 -30 0 -36 -1v27c6 -1 18 -1 36 -1c58 0 111 23 111 81c0 51 -48 80 -103 80c-49 0 -82 -17 -113 -52l-19 18c28 33 73 60 133 60c70 0 131 -38 131 -105c0 -65 -56 -89 -89 -94c35 -3 96 -32 96 -100z" />
    <glyph glyph-name="fiveeighths" unicode="&#x215d;" horiz-adv-x="881" 
d="M672 667l-427 -667h-36l426 667h37zM830 100c0 -64 -61 -107 -139 -107c-79 0 -139 42 -139 107c0 57 52 93 107 106c-51 12 -100 42 -100 96c0 72 68 104 132 104c63 0 132 -32 132 -104c0 -54 -48 -84 -99 -96c54 -13 106 -49 106 -106zM794 301c0 51 -47 79 -103 79
s-103 -28 -103 -79c0 -61 79 -78 103 -83c25 5 103 22 103 83zM800 101c0 66 -84 90 -109 93c-25 -3 -110 -27 -110 -93c0 -52 53 -83 110 -83c56 0 109 31 109 83zM327 388c0 -80 -64 -128 -137 -128c-69 0 -111 26 -138 66l20 19c27 -38 63 -59 118 -59
c62 0 108 43 108 101c0 63 -46 103 -108 103c-38 0 -72 -13 -103 -41l-23 11v207h236v-26h-206v-165c20 20 56 39 101 39c69 0 132 -43 132 -127z" />
    <glyph glyph-name="seveneighths" unicode="&#x215e;" horiz-adv-x="793" 
d="M584 667l-427 -667h-36l426 667h37zM742 100c0 -64 -61 -107 -139 -107c-79 0 -139 42 -139 107c0 57 52 93 107 106c-51 12 -100 42 -100 96c0 72 68 104 132 104c63 0 132 -32 132 -104c0 -54 -48 -84 -99 -96c54 -13 106 -49 106 -106zM706 301c0 51 -47 79 -103 79
s-103 -28 -103 -79c0 -61 79 -78 103 -83c25 5 103 22 103 83zM712 101c0 66 -84 90 -109 93c-25 -3 -110 -27 -110 -93c0 -52 53 -83 110 -83c56 0 109 31 109 83zM307 647l-181 -380h-33l180 374h-235v26h269v-20z" />
    <glyph glyph-name="onethird" unicode="&#x2153;" horiz-adv-x="755" 
d="M546 667l-427 -667h-36l426 667h37zM701 107c0 -66 -51 -114 -138 -114c-67 0 -116 30 -138 66l20 17c23 -33 64 -57 118 -57c66 0 108 33 108 88c0 62 -54 87 -117 87c-17 0 -30 0 -36 -1v27c6 -1 18 -1 36 -1c58 0 111 23 111 81c0 51 -48 80 -103 80
c-49 0 -82 -17 -113 -52l-19 18c28 33 73 60 133 60c70 0 131 -38 131 -105c0 -65 -56 -89 -89 -94c35 -3 96 -32 96 -100zM132 267h-30v360l-63 -69l-19 20l85 89h27v-400z" />
    <glyph glyph-name="twothirds" unicode="&#x2154;" horiz-adv-x="881" 
d="M672 667l-427 -667h-36l426 667h37zM827 107c0 -66 -51 -114 -138 -114c-67 0 -116 30 -138 66l20 17c23 -33 64 -57 118 -57c66 0 108 33 108 88c0 62 -54 87 -117 87c-17 0 -30 0 -36 -1v27c6 -1 18 -1 36 -1c58 0 111 23 111 81c0 51 -48 80 -103 80
c-49 0 -82 -17 -113 -52l-19 18c28 33 73 60 133 60c70 0 131 -38 131 -105c0 -65 -56 -89 -89 -94c35 -3 96 -32 96 -100zM325 267h-271v24c136 99 240 186 240 269c0 63 -52 87 -100 87c-52 0 -93 -22 -114 -53l-20 18c27 38 78 61 135 61s128 -30 128 -112
c0 -94 -105 -180 -225 -268h227v-26z" />
    <glyph glyph-name="zerosuperior" unicode="&#x2070;" 
d="M342 621c0 -94 -42 -207 -152 -207c-111 0 -152 113 -152 207c0 95 41 206 152 206c110 0 152 -111 152 -206zM310 621c0 85 -30 180 -120 180c-91 0 -121 -95 -121 -180s31 -181 121 -181s120 96 120 181z" />
    <glyph glyph-name="foursuperior" unicode="&#x2074;" 
d="M334 534h-62v-113h-29v113h-196v26l186 261h39v-261h62v-26zM243 560v232l-165 -232h165z" />
    <glyph glyph-name="fivesuperior" unicode="&#x2075;" 
d="M327 542c0 -80 -64 -128 -137 -128c-69 0 -111 26 -138 66l20 19c27 -38 63 -59 118 -59c62 0 108 43 108 101c0 63 -46 103 -108 103c-38 0 -72 -13 -103 -41l-23 11v207h236v-26h-206v-165c20 20 56 39 101 39c69 0 132 -43 132 -127z" />
    <glyph glyph-name="sixsuperior" unicode="&#x2076;" 
d="M334 540c0 -64 -51 -126 -138 -126c-110 0 -150 99 -150 207c0 101 42 206 155 206c55 0 86 -21 111 -51l-18 -21c-21 27 -46 46 -93 46c-93 0 -125 -93 -126 -180c0 -7 0 -16 1 -23c17 27 66 70 125 70c75 0 133 -42 133 -128zM304 540c0 68 -45 102 -108 102
c-46 0 -93 -30 -118 -72c6 -59 37 -130 118 -130c73 0 108 56 108 100z" />
    <glyph glyph-name="sevensuperior" unicode="&#x2077;" horiz-adv-x="355" 
d="M307 801l-181 -380h-33l180 374h-235v26h269v-20z" />
    <glyph glyph-name="eightsuperior" unicode="&#x2078;" 
d="M329 521c0 -64 -61 -107 -139 -107c-79 0 -139 42 -139 107c0 57 52 93 107 106c-51 12 -100 42 -100 96c0 72 68 104 132 104c63 0 132 -32 132 -104c0 -54 -48 -84 -99 -96c54 -13 106 -49 106 -106zM293 722c0 51 -47 79 -103 79s-103 -28 -103 -79
c0 -61 79 -78 103 -83c25 5 103 22 103 83zM299 522c0 66 -84 90 -109 93c-25 -3 -110 -27 -110 -93c0 -52 53 -83 110 -83c56 0 109 31 109 83z" />
    <glyph glyph-name="ninesuperior" unicode="&#x2079;" 
d="M46 701c0 64 50 126 138 126c110 0 150 -99 150 -207c0 -101 -43 -206 -155 -206c-55 0 -86 21 -111 51l18 21c20 -27 46 -46 93 -46c92 0 124 93 125 181v22c-18 -27 -67 -70 -124 -70c-75 0 -134 42 -134 128zM75 701c0 -68 46 -102 108 -102c47 0 94 30 119 73
c-6 58 -37 129 -118 129c-73 0 -109 -56 -109 -100z" />
    <glyph glyph-name="zeroinferior" unicode="&#x2080;" 
d="M342 54c0 -94 -42 -207 -152 -207c-111 0 -152 113 -152 207c0 95 41 206 152 206c110 0 152 -111 152 -206zM310 54c0 85 -30 180 -120 180c-91 0 -121 -95 -121 -180s31 -181 121 -181s120 96 120 181z" />
    <glyph glyph-name="oneinferior" unicode="&#x2081;" horiz-adv-x="192" 
d="M132 -146h-30v360l-63 -69l-19 20l85 89h27v-400z" />
    <glyph glyph-name="twoinferior" unicode="&#x2082;" 
d="M325 -146h-271v24c136 99 240 186 240 269c0 63 -52 87 -100 87c-52 0 -93 -22 -114 -53l-20 18c27 38 78 61 135 61s128 -30 128 -112c0 -94 -105 -180 -225 -268h227v-26z" />
    <glyph glyph-name="threeinferior" unicode="&#x2083;" 
d="M326 -39c0 -66 -51 -114 -138 -114c-67 0 -116 30 -138 66l20 17c23 -33 64 -57 118 -57c66 0 108 33 108 88c0 62 -54 87 -117 87c-17 0 -30 0 -36 -1v27c6 -1 18 -1 36 -1c58 0 111 23 111 81c0 51 -48 80 -103 80c-49 0 -82 -17 -113 -52l-19 18c28 33 73 60 133 60
c70 0 131 -38 131 -105c0 -65 -56 -89 -89 -94c35 -3 96 -32 96 -100z" />
    <glyph glyph-name="fourinferior" unicode="&#x2084;" 
d="M334 -33h-62v-113h-29v113h-196v26l186 261h39v-261h62v-26zM243 -7v232l-165 -232h165z" />
    <glyph glyph-name="fiveinferior" unicode="&#x2085;" 
d="M327 -25c0 -80 -64 -128 -137 -128c-69 0 -111 26 -138 66l20 19c27 -38 63 -59 118 -59c62 0 108 43 108 101c0 63 -46 103 -108 103c-38 0 -72 -13 -103 -41l-23 11v207h236v-26h-206v-165c20 20 56 39 101 39c69 0 132 -43 132 -127z" />
    <glyph glyph-name="sixinferior" unicode="&#x2086;" 
d="M334 -27c0 -64 -51 -126 -138 -126c-110 0 -150 99 -150 207c0 101 42 206 155 206c55 0 86 -21 111 -51l-18 -21c-21 27 -46 46 -93 46c-93 0 -125 -93 -126 -180c0 -7 0 -16 1 -23c17 27 66 70 125 70c75 0 133 -42 133 -128zM304 -27c0 68 -45 102 -108 102
c-46 0 -93 -30 -118 -72c6 -59 37 -130 118 -130c73 0 108 56 108 100z" />
    <glyph glyph-name="seveninferior" unicode="&#x2087;" horiz-adv-x="355" 
d="M307 234l-181 -380h-33l180 374h-235v26h269v-20z" />
    <glyph glyph-name="eightinferior" unicode="&#x2088;" 
d="M329 -46c0 -64 -61 -107 -139 -107c-79 0 -139 42 -139 107c0 57 52 93 107 106c-51 12 -100 42 -100 96c0 72 68 104 132 104c63 0 132 -32 132 -104c0 -54 -48 -84 -99 -96c54 -13 106 -49 106 -106zM293 155c0 51 -47 79 -103 79s-103 -28 -103 -79
c0 -61 79 -78 103 -83c25 5 103 22 103 83zM299 -45c0 66 -84 90 -109 93c-25 -3 -110 -27 -110 -93c0 -52 53 -83 110 -83c56 0 109 31 109 83z" />
    <glyph glyph-name="nineinferior" unicode="&#x2089;" 
d="M46 134c0 64 50 126 138 126c110 0 150 -99 150 -207c0 -101 -43 -206 -155 -206c-55 0 -86 21 -111 51l18 21c20 -27 46 -46 93 -46c92 0 124 93 125 181v22c-18 -27 -67 -70 -124 -70c-75 0 -134 42 -134 128zM75 134c0 -68 46 -102 108 -102c47 0 94 30 119 73
c-6 58 -37 129 -118 129c-73 0 -109 -56 -109 -100z" />
    <glyph glyph-name="centinferior" unicode="&#xf6df;" horiz-adv-x="303" 
d="M162 -151v54c-78 9 -127 73 -127 151s49 142 127 151v43h24v-42c47 -2 75 -22 100 -52l-20 -15c-22 30 -49 43 -80 44v-258c31 1 58 15 80 44l20 -16c-25 -29 -53 -49 -100 -51v-53h-24zM64 54c0 -66 37 -118 98 -127v254c-61 -9 -98 -61 -98 -127z" />
    <glyph glyph-name="dollarinferior" unicode="&#xf6e3;" horiz-adv-x="359" 
d="M172 -206v53c-63 3 -112 30 -141 66l21 20c25 -28 65 -58 120 -61v177c-65 16 -131 33 -131 106c0 64 59 104 131 105v55h25v-56c53 -5 92 -27 119 -58l-19 -18c-25 30 -60 47 -100 51v-159c65 -16 131 -38 131 -114c0 -65 -43 -109 -131 -113v-54h-25zM297 -40
c0 53 -47 70 -100 83v-170c70 4 100 41 100 87zM72 156c0 -47 46 -62 100 -75v154c-57 -2 -100 -34 -100 -79z" />
    <glyph glyph-name="periodinferior" unicode="&#xf6e7;" horiz-adv-x="129" 
d="M89 -127c0 -13 -11 -24 -24 -24s-25 11 -25 24s12 24 25 24s24 -11 24 -24z" />
    <glyph glyph-name="commainferior" unicode="&#xf6e1;" horiz-adv-x="123" 
d="M83 -135c0 -37 -20 -70 -40 -84c-6 5 -11 9 -17 14c19 13 34 37 34 55c0 0 -2 -1 -3 -1c-11 0 -24 11 -24 24c0 12 11 24 25 24c15 0 25 -14 25 -32z" />
    <glyph glyph-name="notequal" unicode="&#x2260;" horiz-adv-x="494" 
d="M112 93h-36l81 127h-128v30h147l107 168h-254v30h273l80 126h37l-81 -126h127v-30h-146l-107 -168h253v-30h-272z" />
    <glyph glyph-name="infinity" unicode="&#x221e;" horiz-adv-x="627" 
d="M173 180c-99 0 -144 81 -144 155c0 76 45 155 144 155c68 0 114 -57 140 -118c26 61 73 118 141 118c99 0 144 -79 144 -155c0 -74 -45 -155 -144 -155c-68 0 -115 57 -141 118c-26 -61 -72 -118 -140 -118zM454 211c74 0 112 55 112 124c0 70 -38 125 -112 125
c-62 0 -103 -68 -126 -125c23 -57 64 -124 126 -124zM173 211c62 0 103 67 126 124c-23 57 -64 125 -126 125c-74 0 -112 -55 -112 -125c0 -69 38 -124 112 -124z" />
    <glyph glyph-name="lessequal" unicode="&#x2264;" horiz-adv-x="494" 
d="M465 90l-436 234v21l436 235v-36l-395 -210l395 -208v-36zM465 0h-436v30h436v-30z" />
    <glyph glyph-name="greaterequal" unicode="&#x2265;" horiz-adv-x="494" 
d="M465 324l-436 -234v36l395 208l-395 210v36l436 -235v-21zM464 0h-436v30h436v-30z" />
    <glyph glyph-name="partialdiff" unicode="&#x2202;" horiz-adv-x="570" 
d="M285 -12c-136 0 -225 112 -225 254s89 253 225 253c57 0 109 -20 156 -85c-42 85 -145 181 -275 241l18 27c163 -78 326 -228 326 -436c0 -142 -88 -254 -225 -254zM285 15c124 0 192 109 192 227c0 117 -68 226 -192 226c-123 0 -192 -109 -192 -226
c0 -118 69 -227 192 -227z" />
    <glyph glyph-name="summation" unicode="&#x2211;" horiz-adv-x="567" 
d="M355 300l-254 337h404v30h-442v-30l254 -338l-255 -359v-30h443v30h-406z" />
    <glyph glyph-name="product" unicode="&#x220f;" horiz-adv-x="639" 
d="M487 -90h-32v727h-272v-727h-32v727h-113v30h563v-30h-114v-727z" />
    <glyph glyph-name="pi" unicode="&#x3c0;" horiz-adv-x="509" 
d="M389 0h-32v471h-205v-471h-32v471h-82v29h433v-29h-82v-471z" />
    <glyph glyph-name="integral" unicode="&#x222b;" horiz-adv-x="326" 
d="M79 -100h-62v30h62c37 0 69 36 69 83v642c0 68 50 113 99 113h62v-30h-62c-37 0 -69 -35 -69 -83v-642c0 -68 -50 -113 -99 -113z" />
    <glyph glyph-name="Omega" unicode="&#x3a9;" horiz-adv-x="764" 
d="M84 0v30h147c-91 52 -166 147 -166 303c0 193 123 345 317 345s317 -152 317 -345c0 -156 -74 -251 -166 -303h148v-30h-215v30c90 22 198 120 198 303s-109 314 -282 314s-282 -131 -282 -314s109 -281 199 -303v-30h-215z" />
    <glyph glyph-name="Omega" unicode="&#x2126;" horiz-adv-x="764" 
d="M84 0v30h147c-91 52 -166 147 -166 303c0 193 123 345 317 345s317 -152 317 -345c0 -156 -74 -251 -166 -303h148v-30h-215v30c90 22 198 120 198 303s-109 314 -282 314s-282 -131 -282 -314s109 -281 199 -303v-30h-215z" />
    <glyph glyph-name="radical" unicode="&#x221a;" horiz-adv-x="762" 
d="M446 0h-35l-146 349l-175 -73l-12 28l201 84l150 -353l266 632h29z" />
    <glyph glyph-name="approxequal" unicode="&#x2248;" horiz-adv-x="494" 
d="M29 220v36c32 -25 73 -36 109 -36c98 0 108 64 217 64c37 0 78 -10 110 -30v-36c-32 25 -74 36 -110 36c-98 0 -108 -64 -217 -64c-36 0 -77 10 -109 30zM29 414v36c32 -25 73 -36 109 -36c98 0 108 64 217 64c37 0 78 -10 110 -30v-36c-32 25 -74 36 -110 36
c-98 0 -108 -64 -217 -64c-36 0 -77 10 -109 30z" />
    <glyph glyph-name="Delta" unicode="&#x394;" horiz-adv-x="636" 
d="M615 0h-594l278 667h38zM567 30l-249 600l-249 -600h498z" />
    <glyph glyph-name="Delta" unicode="&#x2206;" horiz-adv-x="636" 
d="M615 0h-594l278 667h38zM567 30l-249 600l-249 -600h498z" />
    <glyph glyph-name="nbspace" unicode="&#xa0;" horiz-adv-x="260" 
 />
    <glyph glyph-name="lozenge" unicode="&#x25ca;" horiz-adv-x="375" 
d="M198 0h-21l-158 334l158 333h21l158 -333zM188 41l132 293l-133 292l-132 -292z" />
    <glyph glyph-name="Euro" unicode="&#x20ac;" horiz-adv-x="684" 
d="M418 -12c-158 0 -289 102 -324 259h-55v30h50c-3 18 -4 36 -4 56s2 39 4 58h-50v30h55c36 156 167 257 324 257c94 0 173 -37 232 -105l-25 -22c-47 59 -124 97 -207 97c-140 0 -254 -89 -288 -227h348v-30h-354c-3 -19 -4 -38 -4 -58s2 -38 4 -56h354v-30h-348
c33 -139 148 -229 288 -229c83 0 160 38 207 97l26 -21c-63 -71 -139 -106 -233 -106z" />
    <glyph glyph-name="uni2318" unicode="&#x2318;" horiz-adv-x="667" 
d="M233 154v81h-81c-45 0 -78 -36 -78 -81s34 -82 79 -82s80 37 80 82zM233 432v82c0 45 -34 81 -79 81s-80 -36 -80 -81s35 -82 80 -82h79zM265 265h137v137h-137v-137zM593 154c0 45 -33 81 -78 81h-81v-81c0 -45 35 -82 80 -82s79 37 79 82zM593 514c0 45 -34 81 -79 81
s-80 -36 -80 -81v-82h81c45 0 78 37 78 82zM625 154c0 -61 -50 -112 -111 -112s-112 51 -112 112v81h-137v-81c0 -61 -51 -112 -112 -112s-111 51 -111 112s50 111 111 111h80v137h-79c-61 0 -112 51 -112 112s51 111 112 111s111 -50 111 -111v-82h137v82
c0 61 51 111 112 111s111 -50 111 -111s-50 -112 -111 -112h-80v-137h80c61 0 111 -50 111 -111z" />
    <glyph glyph-name="uni2318" unicode="&#xf8ff;" horiz-adv-x="667" 
d="M233 154v81h-81c-45 0 -78 -36 -78 -81s34 -82 79 -82s80 37 80 82zM233 432v82c0 45 -34 81 -79 81s-80 -36 -80 -81s35 -82 80 -82h79zM265 265h137v137h-137v-137zM593 154c0 45 -33 81 -78 81h-81v-81c0 -45 35 -82 80 -82s79 37 79 82zM593 514c0 45 -34 81 -79 81
s-80 -36 -80 -81v-82h81c45 0 78 37 78 82zM625 154c0 -61 -50 -112 -111 -112s-112 51 -112 112v81h-137v-81c0 -61 -51 -112 -112 -112s-111 51 -111 112s50 111 111 111h80v137h-79c-61 0 -112 51 -112 112s51 111 112 111s111 -50 111 -111v-82h137v82
c0 61 51 111 112 111s111 -50 111 -111s-50 -112 -111 -112h-80v-137h80c61 0 111 -50 111 -111z" />
    <glyph glyph-name="f.alt1" horiz-adv-x="246" 
d="M130 0h-30v456h-80v27h80v51c0 90 45 143 121 143c21 0 40 -3 57 -13l-13 -26c-12 7 -25 12 -44 12c-61 0 -91 -43 -91 -116v-51h98v-27h-98v-456z" />
    <glyph glyph-name="l.alt1" horiz-adv-x="243" 
d="M168 -12c-56 0 -82 37 -82 97v582h30v-582c0 -41 16 -70 52 -70c24 0 45 12 57 26l18 -23c-19 -18 -39 -30 -75 -30z" />
    <glyph glyph-name="a.alt1" horiz-adv-x="566" 
d="M480 0h-30v81c-33 -50 -98 -93 -174 -93c-130 0 -216 100 -216 253c0 152 86 254 216 254c72 0 135 -38 174 -95v83h30v-483zM276 15c75 0 144 45 174 96v259c-30 51 -99 98 -174 98c-118 0 -183 -100 -183 -227s65 -226 183 -226z" />
    <glyph glyph-name="y.alt1" horiz-adv-x="528" 
d="M251 -196c-79 0 -127 25 -170 73l22 25c37 -48 85 -71 148 -71c100 0 161 60 161 165v78c-41 -46 -108 -86 -175 -86c-96 0 -151 42 -151 156v339h30v-339c0 -101 50 -129 125 -129c66 0 137 40 171 88v380h30v-487c0 -143 -101 -192 -191 -192z" />
    <glyph glyph-name="G.alt1" horiz-adv-x="708" 
d="M398 -13c-185 0 -333 141 -333 346s148 345 333 345c101 0 179 -36 244 -103l-21 -22c-52 59 -134 95 -223 95c-167 0 -298 -127 -298 -315c0 -186 131 -316 298 -316c173 0 256 129 268 273h-331v30h364c0 -185 -102 -333 -301 -333z" />
    <glyph glyph-name="G.smcp.alt1" horiz-adv-x="652" 
d="M348 -12c-161 0 -288 118 -288 287s127 287 288 287c87 0 156 -31 213 -87l-21 -23c-46 49 -116 81 -192 81c-142 0 -254 -106 -254 -258c0 -151 112 -259 254 -259c118 0 215 82 227 222h-250v29h284c0 -156 -100 -279 -261 -279z" />
    <glyph glyph-name="Gbreve.alt1" horiz-adv-x="749" 
d="M577 816c-40 -54 -103 -88 -175 -88c-71 0 -135 34 -176 88l21 19c35 -49 90 -80 155 -80s120 31 155 80zM398 -13c-185 0 -333 141 -333 346s148 345 333 345c101 0 179 -36 244 -103l-21 -22c-52 59 -134 95 -223 95c-167 0 -298 -127 -298 -315
c0 -186 131 -316 298 -316c173 0 256 129 268 273h-331v30h364c0 -185 -102 -333 -301 -333z" />
    <glyph glyph-name="Gbreve.smcp.alt1" horiz-adv-x="652" 
d="M524 697c-40 -54 -103 -88 -175 -88c-71 0 -135 34 -176 88l21 19c35 -49 90 -80 155 -80s120 31 155 80zM348 -12c-161 0 -288 118 -288 287s127 287 288 287c87 0 156 -31 213 -87l-21 -23c-46 49 -116 81 -192 81c-142 0 -254 -106 -254 -258
c0 -151 112 -259 254 -259c118 0 215 82 227 222h-250v29h284c0 -156 -100 -279 -261 -279z" />
    <glyph glyph-name="Gcommaaccent.alt1" horiz-adv-x="749" 
d="M439 -137c0 -50 -30 -98 -62 -121l-22 18c32 24 53 62 53 92c0 0 -6 -1 -8 -1c-19 0 -32 15 -32 33c0 17 13 32 32 32c21 0 39 -19 39 -53zM398 -13c-185 0 -333 141 -333 346s148 345 333 345c101 0 179 -36 244 -103l-21 -22c-52 59 -134 95 -223 95
c-167 0 -298 -127 -298 -315c0 -186 131 -316 298 -316c173 0 256 129 268 273h-331v30h364c0 -185 -102 -333 -301 -333z" />
    <glyph glyph-name="Gcommaaccent.smcp.alt1" horiz-adv-x="652" 
d="M390 -137c0 -50 -30 -98 -62 -121l-22 18c32 24 53 62 53 92c0 0 -6 -1 -8 -1c-19 0 -32 15 -32 33c0 17 13 32 32 32c21 0 39 -19 39 -53zM348 -12c-161 0 -288 118 -288 287s127 287 288 287c87 0 156 -31 213 -87l-21 -23c-46 49 -116 81 -192 81
c-142 0 -254 -106 -254 -258c0 -151 112 -259 254 -259c118 0 215 82 227 222h-250v29h284c0 -156 -100 -279 -261 -279z" />
    <glyph glyph-name="lslash.alt1" horiz-adv-x="276" 
d="M12 248v32l107 61v326h30v-309l107 62v-32l-107 -62v-241c0 -41 16 -70 52 -70c24 0 45 12 57 26l18 -23c-19 -18 -39 -30 -75 -30c-56 0 -82 37 -82 97v224z" />
    <glyph glyph-name="lacute.alt1" horiz-adv-x="243" 
d="M254 872l-175 -144h-30l160 144h45zM168 -12c-56 0 -82 37 -82 97v582h30v-582c0 -41 16 -70 52 -70c24 0 45 12 57 26l18 -23c-19 -18 -39 -30 -75 -30z" />
    <glyph glyph-name="lcommaaccent.alt1" horiz-adv-x="243" 
d="M166 -137c0 -50 -30 -98 -62 -121l-22 18c32 24 53 62 53 92c0 0 -6 -1 -8 -1c-19 0 -32 15 -32 33c0 17 13 32 32 32c21 0 39 -19 39 -53zM168 -12c-56 0 -82 37 -82 97v582h30v-582c0 -41 16 -70 52 -70c24 0 45 12 57 26l18 -23c-19 -18 -39 -30 -75 -30z" />
    <glyph glyph-name="lcaron.alt1" horiz-adv-x="243" 
d="M259 626c0 -50 -30 -98 -62 -121l-22 18c32 24 53 62 53 92c0 0 -6 -1 -8 -1c-19 0 -32 15 -32 33c0 17 13 32 32 32c21 0 39 -19 39 -53zM168 -12c-56 0 -82 37 -82 97v582h30v-582c0 -41 16 -70 52 -70c24 0 45 12 57 26l18 -23c-19 -18 -39 -30 -75 -30z" />
    <glyph glyph-name="aacute.alt1" horiz-adv-x="566" 
d="M441 700l-175 -144h-30l160 144h45zM480 0h-30v81c-33 -50 -98 -93 -174 -93c-130 0 -216 100 -216 253c0 152 86 254 216 254c72 0 135 -38 174 -95v83h30v-483zM276 15c75 0 144 45 174 96v259c-30 51 -99 98 -174 98c-118 0 -183 -100 -183 -227s65 -226 183 -226z
" />
    <glyph glyph-name="agrave.alt1" horiz-adv-x="566" 
d="M342 556h-30l-175 144h45zM480 0h-30v81c-33 -50 -98 -93 -174 -93c-130 0 -216 100 -216 253c0 152 86 254 216 254c72 0 135 -38 174 -95v83h30v-483zM276 15c75 0 144 45 174 96v259c-30 51 -99 98 -174 98c-118 0 -183 -100 -183 -227s65 -226 183 -226z" />
    <glyph glyph-name="acircumflex.alt1" horiz-adv-x="566" 
d="M405 556h-28l-91 120l-88 -120h-28l98 144h36zM480 0h-30v81c-33 -50 -98 -93 -174 -93c-130 0 -216 100 -216 253c0 152 86 254 216 254c72 0 135 -38 174 -95v83h30v-483zM276 15c75 0 144 45 174 96v259c-30 51 -99 98 -174 98c-118 0 -183 -100 -183 -227
s65 -226 183 -226z" />
    <glyph glyph-name="adieresis.alt1" horiz-adv-x="566" 
d="M415 598c0 -15 -13 -28 -28 -28s-28 13 -28 28s13 28 28 28s28 -13 28 -28zM213 598c0 -15 -13 -28 -28 -28s-28 13 -28 28s13 28 28 28s28 -13 28 -28zM480 0h-30v81c-33 -50 -98 -93 -174 -93c-130 0 -216 100 -216 253c0 152 86 254 216 254c72 0 135 -38 174 -95v83
h30v-483zM276 15c75 0 144 45 174 96v259c-30 51 -99 98 -174 98c-118 0 -183 -100 -183 -227s65 -226 183 -226z" />
    <glyph glyph-name="atilde.alt1" horiz-adv-x="566" 
d="M348 554c-77 0 -71 113 -128 113c-33 0 -59 -32 -59 -107h-26c0 72 31 134 88 134c77 0 71 -113 128 -113c33 0 59 32 59 107h26c0 -72 -31 -134 -88 -134zM480 0h-30v81c-33 -50 -98 -93 -174 -93c-130 0 -216 100 -216 253c0 152 86 254 216 254c72 0 135 -38 174 -95
v83h30v-483zM276 15c75 0 144 45 174 96v259c-30 51 -99 98 -174 98c-118 0 -183 -100 -183 -227s65 -226 183 -226z" />
    <glyph glyph-name="aring.alt1" horiz-adv-x="566" 
d="M283 560c-51 0 -93 42 -93 93s42 93 93 93s92 -42 92 -93s-41 -93 -92 -93zM283 584c38 0 68 31 68 69s-30 69 -68 69s-69 -31 -69 -69s31 -69 69 -69zM480 0h-30v81c-33 -50 -98 -93 -174 -93c-130 0 -216 100 -216 253c0 152 86 254 216 254c72 0 135 -38 174 -95v83
h30v-483zM276 15c75 0 144 45 174 96v259c-30 51 -99 98 -174 98c-118 0 -183 -100 -183 -227s65 -226 183 -226z" />
    <glyph glyph-name="amacron.alt1" horiz-adv-x="566" 
d="M471 591h-363v27h363v-27zM480 0h-30v81c-33 -50 -98 -93 -174 -93c-130 0 -216 100 -216 253c0 152 86 254 216 254c72 0 135 -38 174 -95v83h30v-483zM276 15c75 0 144 45 174 96v259c-30 51 -99 98 -174 98c-118 0 -183 -100 -183 -227s65 -226 183 -226z" />
    <glyph glyph-name="abreve.alt1" horiz-adv-x="566" 
d="M461 657c-40 -54 -103 -88 -175 -88c-71 0 -135 34 -176 88l21 19c35 -49 90 -80 155 -80s120 31 155 80zM480 0h-30v81c-33 -50 -98 -93 -174 -93c-130 0 -216 100 -216 253c0 152 86 254 216 254c72 0 135 -38 174 -95v83h30v-483zM276 15c75 0 144 45 174 96v259
c-30 51 -99 98 -174 98c-118 0 -183 -100 -183 -227s65 -226 183 -226z" />
    <glyph glyph-name="aogonek.alt1" horiz-adv-x="566" 
d="M480 0c-48 -23 -82 -55 -82 -102c0 -37 19 -57 52 -57c31 0 48 16 58 47l25 -11c-11 -31 -35 -63 -83 -63c-43 0 -81 25 -81 84c0 46 34 90 81 115v68c-33 -50 -98 -93 -174 -93c-130 0 -216 100 -216 253c0 152 86 254 216 254c72 0 135 -38 174 -95v83h30v-483zM276 15
c75 0 144 45 174 96v259c-30 51 -99 98 -174 98c-118 0 -183 -100 -183 -227s65 -226 183 -226z" />
    <glyph glyph-name="yacute.alt1" horiz-adv-x="528" 
d="M415 700l-175 -144h-30l160 144h45zM251 -196c-79 0 -127 25 -170 73l22 25c37 -48 85 -71 148 -71c100 0 161 60 161 165v78c-41 -46 -108 -86 -175 -86c-96 0 -151 42 -151 156v339h30v-339c0 -101 50 -129 125 -129c66 0 137 40 171 88v380h30v-487
c0 -143 -101 -192 -191 -192z" />
    <glyph glyph-name="ydieresis.alt1" horiz-adv-x="528" 
d="M388 598c0 -15 -13 -28 -28 -28s-28 13 -28 28s13 28 28 28s28 -13 28 -28zM186 598c0 -15 -13 -28 -28 -28s-28 13 -28 28s13 28 28 28s28 -13 28 -28zM251 -196c-79 0 -127 25 -170 73l22 25c37 -48 85 -71 148 -71c100 0 161 60 161 165v78c-41 -46 -108 -86 -175 -86
c-96 0 -151 42 -151 156v339h30v-339c0 -101 50 -129 125 -129c66 0 137 40 171 88v380h30v-487c0 -143 -101 -192 -191 -192z" />
    <glyph glyph-name="ae.alt1" horiz-adv-x="957" 
d="M480 0h-30v81c-33 -50 -98 -93 -174 -93c-130 0 -216 100 -216 253c0 152 86 254 216 254c72 0 135 -38 174 -95v83h30v-121c34 79 103 133 193 133c148 0 224 -119 224 -253v-10h-417c3 -118 80 -217 203 -217c68 0 123 25 168 73l18 -19c-49 -51 -105 -81 -186 -81
c-97 0 -168 51 -203 131v-119zM276 15c75 0 144 45 174 96v259c-30 51 -99 98 -174 98c-118 0 -183 -100 -183 -227s65 -226 183 -226zM865 259c0 93 -61 209 -193 209c-124 0 -189 -114 -192 -209h385z" />
    <glyph glyph-name="zero.pzero" horiz-adv-x="605" 
d="M303 -12c-65 0 -114 26 -150 66l-32 -54h-36l47 79c-48 70 -67 167 -67 254c0 155 62 344 238 344c63 0 112 -25 148 -64l32 54h36l-48 -80c49 -69 69 -167 69 -254c0 -154 -62 -345 -237 -345zM303 18c153 0 202 174 202 315c0 77 -14 162 -51 225l-284 -476
c31 -39 74 -64 133 -64zM100 333c0 -76 14 -161 50 -223l284 475c-31 38 -74 62 -131 62c-154 0 -203 -172 -203 -314z" />
    <glyph glyph-name="Gcircumflex.alt1" horiz-adv-x="749" 
d="M516 728h-28l-91 120l-88 -120h-28l98 144h36zM398 -13c-185 0 -333 141 -333 346s148 345 333 345c101 0 179 -36 244 -103l-21 -22c-52 59 -134 95 -223 95c-167 0 -298 -127 -298 -315c0 -186 131 -316 298 -316c173 0 256 129 268 273h-331v30h364
c0 -185 -102 -333 -301 -333z" />
    <glyph glyph-name="Gdotaccent.alt1" horiz-adv-x="749" 
d="M395 736c-15 0 -29 13 -29 29s14 29 29 29c16 0 29 -13 29 -29s-13 -29 -29 -29zM398 -13c-185 0 -333 141 -333 346s148 345 333 345c101 0 179 -36 244 -103l-21 -22c-52 59 -134 95 -223 95c-167 0 -298 -127 -298 -315c0 -186 131 -316 298 -316
c173 0 256 129 268 273h-331v30h364c0 -185 -102 -333 -301 -333z" />
    <glyph glyph-name="Gcircumflex.smcp.alt1" horiz-adv-x="634" 
d="M348 -12c-161 0 -288 118 -288 287s127 287 288 287c87 0 156 -31 213 -87l-21 -23c-46 49 -116 81 -192 81c-142 0 -254 -106 -254 -258c0 -151 112 -259 254 -259c118 0 215 82 227 222h-250v29h284c0 -156 -100 -279 -261 -279zM470 606h-28l-91 120l-88 -120h-28
l98 144h36z" />
    <glyph glyph-name="Gdotaccent.smcp.alt1" horiz-adv-x="634" 
d="M348 -12c-161 0 -288 118 -288 287s127 287 288 287c87 0 156 -31 213 -87l-21 -23c-46 49 -116 81 -192 81c-142 0 -254 -106 -254 -258c0 -151 112 -259 254 -259c118 0 215 82 227 222h-250v29h284c0 -156 -100 -279 -261 -279zM351 641c-15 0 -29 13 -29 29
s14 29 29 29c16 0 29 -13 29 -29s-13 -29 -29 -29z" />
    <glyph glyph-name="aeacute.alt1" horiz-adv-x="905" 
d="M480 0h-30v81c-33 -50 -98 -93 -174 -93c-130 0 -216 100 -216 253c0 152 86 254 216 254c72 0 135 -38 174 -95v83h30v-121c34 79 103 133 193 133c148 0 224 -119 224 -253v-10h-417c3 -118 80 -217 203 -217c68 0 123 25 168 73l18 -19c-49 -51 -105 -81 -186 -81
c-97 0 -168 51 -203 131v-119zM276 15c75 0 144 45 174 96v259c-30 51 -99 98 -174 98c-118 0 -183 -100 -183 -227s65 -226 183 -226zM865 259c0 93 -61 209 -193 209c-124 0 -189 -114 -192 -209h385zM625 700l-175 -144h-30l160 144h45z" />
    <glyph glyph-name="ycircumflex.alt1" horiz-adv-x="528" 
d="M383 556h-28l-91 120l-88 -120h-28l98 144h36zM251 -196c-79 0 -127 25 -170 73l22 25c37 -48 85 -71 148 -71c100 0 161 60 161 165v78c-41 -46 -108 -86 -175 -86c-96 0 -151 42 -151 156v339h30v-339c0 -101 50 -129 125 -129c66 0 137 40 171 88v380h30v-487
c0 -143 -101 -192 -191 -192z" />
    <glyph glyph-name="ldot.alt1" horiz-adv-x="240" 
d="M168 -12c-56 0 -82 37 -82 97v582h30v-582c0 -41 16 -70 52 -70c24 0 45 12 57 26l18 -23c-19 -18 -39 -30 -75 -30zM254 245c0 -18 -15 -33 -33 -33s-33 15 -33 33c0 17 15 32 33 32s33 -15 33 -32z" />
    <glyph glyph-name="fl.alt1" horiz-adv-x="489" 
d="M130 0h-30v456h-80v27h80v51c0 90 45 143 121 143c21 0 40 -3 57 -13l-13 -26c-12 7 -25 12 -44 12c-61 0 -91 -43 -91 -116v-51h98v-27h-98v-456zM414 -12c-56 0 -82 37 -82 97v582h30v-582c0 -41 16 -70 52 -70c24 0 45 12 57 26l18 -23c-19 -18 -39 -30 -75 -30z" />
    <glyph glyph-name="f_f_l.alt1" horiz-adv-x="735" 
d="M130 0h-30v456h-80v27h80v51c0 90 45 143 121 143c31 0 51 -5 82 -30l-18 -24c-17 16 -38 27 -64 27c-61 0 -91 -43 -91 -116v-51h98v-27h-98v-456zM376 0h-30v456h-80v27h80v51c0 90 45 143 121 143c21 0 40 -3 57 -13l-13 -26c-12 7 -25 12 -44 12
c-61 0 -91 -43 -91 -116v-51h98v-27h-98v-456zM660 -12c-56 0 -82 37 -82 97v582h30v-582c0 -41 16 -70 52 -70c24 0 45 12 57 26l18 -23c-19 -18 -39 -30 -75 -30z" />
    <glyph glyph-name="Amacron" unicode="&#x100;" horiz-adv-x="636" 
d="M615 0h-37l-74 179h-372l-74 -179h-37l278 667h38zM492 209l-174 421l-174 -421h348zM499 750h-363v27h363v-27z" />
    <glyph glyph-name="amacron" unicode="&#x101;" horiz-adv-x="514" 
d="M428 0h-30v59c-45 -49 -99 -71 -167 -71c-85 0 -169 58 -169 161s83 161 169 161c68 0 122 -22 167 -71v109c0 78 -62 120 -136 120c-63 0 -110 -22 -155 -76l-23 20c47 55 97 83 178 83c95 0 166 -48 166 -146v-349zM239 15c63 0 122 25 159 74v120
c-37 49 -96 74 -159 74c-88 0 -144 -59 -144 -134s56 -134 144 -134zM438 581h-363v27h363v-27z" />
    <glyph glyph-name="Abreve" unicode="&#x102;" horiz-adv-x="636" 
d="M615 0h-37l-74 179h-372l-74 -179h-37l278 667h38zM492 209l-174 421l-174 -421h348zM493 816c-40 -54 -103 -88 -175 -88c-71 0 -135 34 -176 88l21 19c35 -49 90 -80 155 -80s120 31 155 80z" />
    <glyph glyph-name="abreve" unicode="&#x103;" horiz-adv-x="514" 
d="M428 0h-30v59c-45 -49 -99 -71 -167 -71c-85 0 -169 58 -169 161s83 161 169 161c68 0 122 -22 167 -71v109c0 78 -62 120 -136 120c-63 0 -110 -22 -155 -76l-23 20c47 55 97 83 178 83c95 0 166 -48 166 -146v-349zM239 15c63 0 122 25 159 74v120
c-37 49 -96 74 -159 74c-88 0 -144 -59 -144 -134s56 -134 144 -134zM432 657c-40 -54 -103 -88 -175 -88c-71 0 -135 34 -176 88l21 19c35 -49 90 -80 155 -80s120 31 155 80z" />
    <glyph glyph-name="Aogonek" unicode="&#x104;" horiz-adv-x="636" 
d="M643 -112l25 -11c-11 -31 -35 -63 -83 -63c-43 0 -81 25 -81 84c0 43 29 84 71 109l-71 172h-372l-74 -179h-37l278 667h38l278 -667c-48 -23 -82 -55 -82 -102c0 -37 19 -57 52 -57c31 0 48 16 58 47zM492 209l-174 421l-174 -421h348z" />
    <glyph glyph-name="aogonek" unicode="&#x105;" horiz-adv-x="514" 
d="M456 -112l25 -11c-11 -31 -35 -63 -83 -63c-43 0 -81 25 -81 84c0 46 34 90 81 115v46c-45 -49 -99 -71 -167 -71c-85 0 -169 58 -169 161s83 161 169 161c68 0 122 -22 167 -71v109c0 78 -62 120 -136 120c-63 0 -110 -22 -155 -76l-23 20c47 55 97 83 178 83
c95 0 166 -48 166 -146v-349c-48 -23 -82 -55 -82 -102c0 -37 19 -57 52 -57c31 0 48 16 58 47zM239 15c63 0 122 25 159 74v120c-37 49 -96 74 -159 74c-88 0 -144 -59 -144 -134s56 -134 144 -134z" />
    <glyph glyph-name="Cacute" unicode="&#x106;" horiz-adv-x="667" 
d="M398 -12c-185 0 -333 140 -333 345s148 345 333 345c94 0 173 -37 232 -105l-25 -22c-47 59 -124 97 -207 97c-167 0 -298 -127 -298 -315c0 -186 131 -315 298 -315c83 0 160 38 207 97l26 -21c-63 -71 -139 -106 -233 -106zM551 872l-175 -144h-30l160 144h45z" />
    <glyph glyph-name="cacute" unicode="&#x107;" horiz-adv-x="493" 
d="M288 -12c-140 0 -228 115 -228 254s88 253 228 253c79 0 124 -30 165 -81l-22 -18c-39 53 -85 72 -141 72c-124 0 -197 -100 -197 -226s73 -227 197 -227c56 0 102 20 141 73l22 -19c-41 -51 -86 -81 -165 -81zM443 700l-175 -144h-30l160 144h45z" />
    <glyph glyph-name="Ccircumflex" unicode="&#x108;" horiz-adv-x="667" 
d="M398 -12c-185 0 -333 140 -333 345s148 345 333 345c94 0 173 -37 232 -105l-25 -22c-47 59 -124 97 -207 97c-167 0 -298 -127 -298 -315c0 -186 131 -315 298 -315c83 0 160 38 207 97l26 -21c-63 -71 -139 -106 -233 -106zM516 728h-28l-91 120l-88 -120h-28l98 144
h36z" />
    <glyph glyph-name="ccircumflex" unicode="&#x109;" horiz-adv-x="493" 
d="M288 -12c-140 0 -228 115 -228 254s88 253 228 253c79 0 124 -30 165 -81l-22 -18c-39 53 -85 72 -141 72c-124 0 -197 -100 -197 -226s73 -227 197 -227c56 0 102 20 141 73l22 -19c-41 -51 -86 -81 -165 -81zM407 556h-28l-91 120l-88 -120h-28l98 144h36z" />
    <glyph glyph-name="Cdotaccent" unicode="&#x10a;" horiz-adv-x="667" 
d="M398 -12c-185 0 -333 140 -333 345s148 345 333 345c94 0 173 -37 232 -105l-25 -22c-47 59 -124 97 -207 97c-167 0 -298 -127 -298 -315c0 -186 131 -315 298 -315c83 0 160 38 207 97l26 -21c-63 -71 -139 -106 -233 -106zM400 736c-15 0 -29 13 -29 29s14 29 29 29
c16 0 29 -13 29 -29s-13 -29 -29 -29z" />
    <glyph glyph-name="cdotaccent" unicode="&#x10b;" horiz-adv-x="493" 
d="M288 -12c-140 0 -228 115 -228 254s88 253 228 253c79 0 124 -30 165 -81l-22 -18c-39 53 -85 72 -141 72c-124 0 -197 -100 -197 -226s73 -227 197 -227c56 0 102 20 141 73l22 -19c-41 -51 -86 -81 -165 -81zM291 591c-15 0 -29 13 -29 29s14 29 29 29
c16 0 29 -13 29 -29s-13 -29 -29 -29z" />
    <glyph glyph-name="Ccaron" unicode="&#x10c;" horiz-adv-x="667" 
d="M398 -12c-185 0 -333 140 -333 345s148 345 333 345c94 0 173 -37 232 -105l-25 -22c-47 59 -124 97 -207 97c-167 0 -298 -127 -298 -315c0 -186 131 -315 298 -315c83 0 160 38 207 97l26 -21c-63 -71 -139 -106 -233 -106zM418 728h-36l-101 144h28l91 -120l88 120h28
z" />
    <glyph glyph-name="ccaron" unicode="&#x10d;" horiz-adv-x="493" 
d="M288 -12c-140 0 -228 115 -228 254s88 253 228 253c79 0 124 -30 165 -81l-22 -18c-39 53 -85 72 -141 72c-124 0 -197 -100 -197 -226s73 -227 197 -227c56 0 102 20 141 73l22 -19c-41 -51 -86 -81 -165 -81zM309 556h-36l-101 144h28l91 -120l88 120h28z" />
    <glyph glyph-name="Dcaron" unicode="&#x10e;" horiz-adv-x="684" 
d="M286 0h-198v667h198c207 0 332 -156 332 -334c0 -180 -125 -333 -332 -333zM286 30c189 0 297 134 297 303c0 167 -108 304 -297 304h-166v-607h166zM361 728h-36l-101 144h28l91 -120l88 120h28z" />
    <glyph glyph-name="dcaron" unicode="&#x10f;" horiz-adv-x="605" 
d="M480 0h-30v81c-33 -50 -98 -93 -174 -93c-130 0 -216 100 -216 253c0 152 86 254 216 254c72 0 135 -38 174 -95v267h30v-667zM276 15c75 0 144 45 174 96v259c-30 51 -99 98 -174 98c-118 0 -183 -100 -183 -227s65 -226 183 -226zM608 627c0 -50 -30 -98 -62 -121
l-22 18c32 24 53 62 53 92c0 0 -6 -1 -8 -1c-19 0 -32 15 -32 33c0 17 13 32 32 32c21 0 39 -19 39 -53z" />
    <glyph glyph-name="Dcroat" unicode="&#x110;" horiz-adv-x="715" 
d="M317 0h-198v319h-107v30h107v318h198c207 0 332 -156 332 -334c0 -180 -125 -333 -332 -333zM339 319h-188v-289h166c189 0 297 134 297 303c0 167 -108 304 -297 304h-166v-288h188v-30z" />
    <glyph glyph-name="dcroat" unicode="&#x111;" horiz-adv-x="569" 
d="M480 0h-30v81c-33 -50 -98 -93 -174 -93c-130 0 -216 100 -216 253c0 152 86 254 216 254c72 0 135 -38 174 -95v141h-166v27h166v99h30v-99h77v-27h-77v-541zM276 15c75 0 144 45 174 96v259c-30 51 -99 98 -174 98c-118 0 -183 -100 -183 -227s65 -226 183 -226z" />
    <glyph glyph-name="Emacron" unicode="&#x112;" horiz-adv-x="558" 
d="M496 0h-408v667h408v-30h-376v-279h369v-30h-369v-298h376v-30zM471 750h-363v27h363v-27z" />
    <glyph glyph-name="emacron" unicode="&#x113;" horiz-adv-x="571" 
d="M297 -12c-140 0 -237 107 -237 254c0 140 97 253 227 253c148 0 224 -119 224 -253v-10h-417c3 -118 80 -217 203 -217c68 0 123 25 168 73l18 -19c-49 -51 -105 -81 -186 -81zM479 259c0 93 -61 209 -193 209c-124 0 -189 -114 -192 -209h385zM467 581h-363v27h363v-27z
" />
    <glyph glyph-name="Ebreve" unicode="&#x114;" horiz-adv-x="558" 
d="M496 0h-408v667h408v-30h-376v-279h369v-30h-369v-298h376v-30zM465 816c-40 -54 -103 -88 -175 -88c-71 0 -135 34 -176 88l21 19c35 -49 90 -80 155 -80s120 31 155 80z" />
    <glyph glyph-name="ebreve" unicode="&#x115;" horiz-adv-x="571" 
d="M297 -12c-140 0 -237 107 -237 254c0 140 97 253 227 253c148 0 224 -119 224 -253v-10h-417c3 -118 80 -217 203 -217c68 0 123 25 168 73l18 -19c-49 -51 -105 -81 -186 -81zM479 259c0 93 -61 209 -193 209c-124 0 -189 -114 -192 -209h385zM465 657
c-40 -54 -103 -88 -175 -88c-71 0 -135 34 -176 88l21 19c35 -49 90 -80 155 -80s120 31 155 80z" />
    <glyph glyph-name="Edotaccent" unicode="&#x116;" horiz-adv-x="558" 
d="M496 0h-408v667h408v-30h-376v-279h369v-30h-369v-298h376v-30zM299 736c-15 0 -29 13 -29 29s14 29 29 29c16 0 29 -13 29 -29s-13 -29 -29 -29z" />
    <glyph glyph-name="edotaccent" unicode="&#x117;" horiz-adv-x="571" 
d="M297 -12c-140 0 -237 107 -237 254c0 140 97 253 227 253c148 0 224 -119 224 -253v-10h-417c3 -118 80 -217 203 -217c68 0 123 25 168 73l18 -19c-49 -51 -105 -81 -186 -81zM479 259c0 93 -61 209 -193 209c-124 0 -189 -114 -192 -209h385zM288 591
c-15 0 -29 13 -29 29s14 29 29 29c16 0 29 -13 29 -29s-13 -29 -29 -29z" />
    <glyph glyph-name="Eogonek" unicode="&#x118;" horiz-adv-x="558" 
d="M524 -112l25 -11c-11 -31 -35 -63 -83 -63c-43 0 -81 25 -81 84c0 39 24 76 60 102h-357v667h408v-30h-376v-279h369v-30h-369v-298h376v-30c-48 -23 -82 -55 -82 -102c0 -37 19 -57 52 -57c31 0 48 16 58 47z" />
    <glyph glyph-name="eogonek" unicode="&#x119;" horiz-adv-x="571" 
d="M406 -112l25 -11c-11 -31 -35 -63 -83 -63c-43 0 -81 25 -81 84c0 33 18 66 45 91c-2 -1 -10 -1 -15 -1c-140 0 -237 107 -237 254c0 140 97 253 227 253c148 0 224 -119 224 -253v-10h-417c3 -118 80 -217 203 -217c68 0 123 25 168 73l18 -19c-31 -32 -65 -56 -105 -69
c-48 -23 -82 -55 -82 -102c0 -37 19 -57 52 -57c31 0 48 16 58 47zM479 259c0 93 -61 209 -193 209c-124 0 -189 -114 -192 -209h385z" />
    <glyph glyph-name="Ecaron" unicode="&#x11a;" horiz-adv-x="558" 
d="M496 0h-408v667h408v-30h-376v-279h369v-30h-369v-298h376v-30zM313 728h-36l-101 144h28l91 -120l88 120h28z" />
    <glyph glyph-name="ecaron" unicode="&#x11b;" horiz-adv-x="571" 
d="M297 -12c-140 0 -237 107 -237 254c0 140 97 253 227 253c148 0 224 -119 224 -253v-10h-417c3 -118 80 -217 203 -217c68 0 123 25 168 73l18 -19c-49 -51 -105 -81 -186 -81zM479 259c0 93 -61 209 -193 209c-124 0 -189 -114 -192 -209h385zM308 556h-36l-101 144h28
l91 -120l88 120h28z" />
    <glyph glyph-name="Gcircumflex" unicode="&#x11c;" horiz-adv-x="708" 
d="M398 -13c-185 0 -333 141 -333 346s148 345 333 345c101 0 179 -36 244 -103l-21 -22c-52 59 -134 95 -223 95c-167 0 -298 -127 -298 -315c0 -186 131 -316 298 -316c98 0 173 49 212 90v183h-275v30h307v-226c-57 -64 -144 -107 -244 -107zM521 728h-28l-91 120
l-88 -120h-28l98 144h36z" />
    <glyph glyph-name="gcircumflex" unicode="&#x11d;" horiz-adv-x="566" 
d="M276 -196c-81 0 -129 14 -185 73l22 25c42 -52 87 -71 163 -71c96 0 174 49 174 166v84c-33 -50 -98 -95 -174 -95c-130 0 -216 101 -216 254c0 152 86 255 216 255c72 0 135 -38 174 -95v83h30v-486c0 -138 -87 -193 -204 -193zM276 13c75 0 144 47 174 98v259
c-30 51 -99 98 -174 98c-118 0 -183 -101 -183 -228s65 -227 183 -227zM402 551h-28l-91 120l-88 -120h-28l98 144h36z" />
    <glyph glyph-name="Gbreve" unicode="&#x11e;" horiz-adv-x="708" 
d="M398 -13c-185 0 -333 141 -333 346s148 345 333 345c101 0 179 -36 244 -103l-21 -22c-52 59 -134 95 -223 95c-167 0 -298 -127 -298 -315c0 -186 131 -316 298 -316c98 0 173 49 212 90v183h-275v30h307v-226c-57 -64 -144 -107 -244 -107zM577 816
c-40 -54 -103 -88 -175 -88c-71 0 -135 34 -176 88l21 19c35 -49 90 -80 155 -80s120 31 155 80z" />
    <glyph glyph-name="gbreve" unicode="&#x11f;" horiz-adv-x="566" 
d="M276 -196c-81 0 -129 14 -185 73l22 25c42 -52 87 -71 163 -71c96 0 174 49 174 166v84c-33 -50 -98 -95 -174 -95c-130 0 -216 101 -216 254c0 152 86 255 216 255c72 0 135 -38 174 -95v83h30v-486c0 -138 -87 -193 -204 -193zM276 13c75 0 144 47 174 98v259
c-30 51 -99 98 -174 98c-118 0 -183 -101 -183 -228s65 -227 183 -227zM458 657c-40 -54 -103 -88 -175 -88c-71 0 -135 34 -176 88l21 19c35 -49 90 -80 155 -80s120 31 155 80z" />
    <glyph glyph-name="Gdotaccent" unicode="&#x120;" horiz-adv-x="708" 
d="M398 -13c-185 0 -333 141 -333 346s148 345 333 345c101 0 179 -36 244 -103l-21 -22c-52 59 -134 95 -223 95c-167 0 -298 -127 -298 -315c0 -186 131 -316 298 -316c98 0 173 49 212 90v183h-275v30h307v-226c-57 -64 -144 -107 -244 -107zM401 736
c-15 0 -29 13 -29 29s14 29 29 29c16 0 29 -13 29 -29s-13 -29 -29 -29z" />
    <glyph glyph-name="gdotaccent" unicode="&#x121;" horiz-adv-x="566" 
d="M276 -196c-81 0 -129 14 -185 73l22 25c42 -52 87 -71 163 -71c96 0 174 49 174 166v84c-33 -50 -98 -95 -174 -95c-130 0 -216 101 -216 254c0 152 86 255 216 255c72 0 135 -38 174 -95v83h30v-486c0 -138 -87 -193 -204 -193zM276 13c75 0 144 47 174 98v259
c-30 51 -99 98 -174 98c-118 0 -183 -101 -183 -228s65 -227 183 -227zM281 591c-15 0 -29 13 -29 29s14 29 29 29c16 0 29 -13 29 -29s-13 -29 -29 -29z" />
    <glyph glyph-name="Gcommaaccent" unicode="&#x122;" horiz-adv-x="708" 
d="M398 -13c-185 0 -333 141 -333 346s148 345 333 345c101 0 179 -36 244 -103l-21 -22c-52 59 -134 95 -223 95c-167 0 -298 -127 -298 -315c0 -186 131 -316 298 -316c98 0 173 49 212 90v183h-275v30h307v-226c-57 -64 -144 -107 -244 -107zM439 -137
c0 -50 -30 -98 -62 -121l-22 18c32 24 53 62 53 92c0 0 -6 -1 -8 -1c-19 0 -32 15 -32 33c0 17 13 32 32 32c21 0 39 -19 39 -53z" />
    <glyph glyph-name="gcommaaccent" unicode="&#x123;" horiz-adv-x="566" 
d="M241 610c0 57 33 110 60 129l24 -19c-32 -24 -53 -62 -53 -92c0 0 2 1 4 1c16 0 33 -15 33 -33c0 -16 -14 -32 -33 -32c-21 0 -35 20 -35 46zM276 -196c-81 0 -129 14 -185 73l22 25c42 -52 87 -71 163 -71c96 0 174 49 174 166v84c-33 -50 -98 -95 -174 -95
c-130 0 -216 101 -216 254c0 152 86 255 216 255c72 0 135 -38 174 -95v83h30v-486c0 -138 -87 -193 -204 -193zM276 13c75 0 144 47 174 98v259c-30 51 -99 98 -174 98c-118 0 -183 -101 -183 -228s65 -227 183 -227z" />
    <glyph glyph-name="Hcircumflex" unicode="&#x124;" horiz-adv-x="695" 
d="M607 0h-32v328h-455v-328h-32v667h32v-309h455v309h32v-667zM462 728h-28l-91 120l-88 -120h-28l98 144h36z" />
    <glyph glyph-name="hcircumflex" unicode="&#x125;" horiz-adv-x="528" 
d="M442 0h-30v339c0 101 -50 129 -125 129c-66 0 -137 -43 -171 -91v-377h-30v667h30v-260c36 44 108 88 175 88c96 0 151 -42 151 -156v-339zM220 728h-28l-91 120l-88 -120h-28l98 144h36z" />
    <glyph glyph-name="Hbar" unicode="&#x126;" horiz-adv-x="717" 
d="M619 0h-32v328h-455v-328h-32v501h-88v27h88v139h32v-139h455v139h32v-139h86v-27h-86v-501zM132 358h455v143h-455v-143z" />
    <glyph glyph-name="hbar" unicode="&#x127;" horiz-adv-x="530" 
d="M284 541h-166v-134c36 44 108 88 175 88c96 0 151 -42 151 -156v-339h-30v339c0 101 -50 129 -125 129c-66 0 -137 -43 -171 -91v-377h-30v541h-76v27h76v99h30v-99h166v-27z" />
    <glyph glyph-name="Itilde" unicode="&#x128;" horiz-adv-x="208" 
d="M120 0h-32v667h32v-667zM166 726c-77 0 -71 113 -128 113c-33 0 -59 -32 -59 -107h-26c0 72 31 134 88 134c77 0 71 -113 128 -113c33 0 59 32 59 107h26c0 -72 -31 -134 -88 -134z" />
    <glyph glyph-name="itilde" unicode="&#x129;" horiz-adv-x="202" 
d="M116 0h-30v483h30v-483zM163 544c-77 0 -71 113 -128 113c-33 0 -59 -32 -59 -107h-26c0 72 31 134 88 134c77 0 71 -113 128 -113c33 0 59 32 59 107h26c0 -72 -31 -134 -88 -134z" />
    <glyph glyph-name="Imacron" unicode="&#x12a;" horiz-adv-x="208" 
d="M120 0h-32v667h32v-667zM286 750h-363v27h363v-27z" />
    <glyph glyph-name="imacron" unicode="&#x12b;" horiz-adv-x="202" 
d="M116 0h-30v483h30v-483zM283 581h-363v27h363v-27z" />
    <glyph glyph-name="Ibreve" unicode="&#x12c;" horiz-adv-x="208" 
d="M120 0h-32v667h32v-667zM280 816c-40 -54 -103 -88 -175 -88c-71 0 -135 34 -176 88l21 19c35 -49 90 -80 155 -80s120 31 155 80z" />
    <glyph glyph-name="ibreve" unicode="&#x12d;" horiz-adv-x="202" 
d="M116 0h-30v483h30v-483zM277 657c-40 -54 -103 -88 -175 -88c-71 0 -135 34 -176 88l21 19c35 -49 90 -80 155 -80s120 31 155 80z" />
    <glyph glyph-name="Iogonek" unicode="&#x12e;" horiz-adv-x="208" 
d="M148 -112l25 -11c-11 -31 -35 -63 -83 -63c-43 0 -81 25 -81 84c0 45 33 88 79 114v655h32v-667c-48 -23 -82 -55 -82 -102c0 -37 19 -57 52 -57c31 0 48 16 58 47z" />
    <glyph glyph-name="iogonek" unicode="&#x12f;" horiz-adv-x="202" 
d="M144 -112l25 -11c-11 -31 -35 -63 -83 -63c-43 0 -81 25 -81 84c0 46 34 90 81 115v470h30v-483c-48 -23 -82 -55 -82 -102c0 -37 19 -57 52 -57c31 0 48 16 58 47zM101 566c-15 0 -29 13 -29 29s14 29 29 29c16 0 29 -13 29 -29s-13 -29 -29 -29z" />
    <glyph glyph-name="Idotaccent" unicode="&#x130;" horiz-adv-x="208" 
d="M120 0h-32v667h32v-667zM104 736c-15 0 -29 13 -29 29s14 29 29 29c16 0 29 -13 29 -29s-13 -29 -29 -29z" />
    <glyph glyph-name="IJ" unicode="&#x132;" horiz-adv-x="673" 
d="M120 0h-32v667h32v-667zM393 -12c-73 0 -126 27 -169 87l27 24c31 -44 74 -81 142 -81c99 0 160 69 160 167v482h32v-482c0 -133 -89 -197 -192 -197z" />
    <glyph glyph-name="ij" unicode="&#x133;" horiz-adv-x="404" 
d="M101 566c-15 0 -29 13 -29 29s14 29 29 29c16 0 29 -13 29 -29s-13 -29 -29 -29zM116 0h-30v483h30v-483zM303 566c-15 0 -29 13 -29 29s14 29 29 29c16 0 29 -13 29 -29s-13 -29 -29 -29zM199 -196c-38 0 -65 13 -92 38l19 25c16 -18 42 -36 73 -36c50 0 89 27 89 93
v559h30v-559c0 -83 -46 -120 -119 -120z" />
    <glyph glyph-name="Jcircumflex" unicode="&#x134;" horiz-adv-x="465" 
d="M185 -12c-73 0 -126 27 -169 87l27 24c31 -44 74 -81 142 -81c99 0 160 69 160 167v482h32v-482c0 -133 -89 -197 -192 -197zM478 728h-28l-91 120l-88 -120h-28l98 144h36z" />
    <glyph glyph-name="jcircumflex" unicode="&#x135;" horiz-adv-x="202" 
d="M-3 -196c-38 0 -65 13 -92 38l19 25c16 -18 42 -36 73 -36c50 0 89 27 89 93v559h30v-559c0 -83 -46 -120 -119 -120zM220 556h-28l-91 120l-88 -120h-28l98 144h36z" />
    <glyph glyph-name="Kcommaaccent" unicode="&#x136;" horiz-adv-x="571" 
d="M540 0h-43l-297 328l-80 -87v-241h-32v667h32v-385l347 385h43l-290 -319zM330 -137c0 -50 -30 -98 -62 -121l-22 18c32 24 53 62 53 92c0 0 -6 -1 -8 -1c-19 0 -32 15 -32 33c0 17 13 32 32 32c21 0 39 -19 39 -53z" />
    <glyph glyph-name="kcommaaccent" unicode="&#x137;" horiz-adv-x="496" 
d="M471 0h-43l-212 243l-100 -92v-151h-30v667h30v-478l315 294h43l-235 -218zM293 -137c0 -50 -30 -98 -62 -121l-22 18c32 24 53 62 53 92c0 0 -6 -1 -8 -1c-19 0 -32 15 -32 33c0 17 13 32 32 32c21 0 39 -19 39 -53z" />
    <glyph glyph-name="kgreenlandic" unicode="&#x138;" horiz-adv-x="496" 
d="M471 0h-43l-212 243l-100 -92v-151h-30v483h30v-294l315 294h43l-235 -218z" />
    <glyph glyph-name="Lacute" unicode="&#x139;" horiz-adv-x="475" 
d="M439 0h-367v667h32v-637h335v-30zM409 872l-175 -144h-30l160 144h45z" />
    <glyph glyph-name="lacute" unicode="&#x13a;" horiz-adv-x="202" 
d="M116 0h-30v667h30v-667zM254 872l-175 -144h-30l160 144h45z" />
    <glyph glyph-name="Lcommaaccent" unicode="&#x13b;" horiz-adv-x="475" 
d="M439 0h-367v667h32v-637h335v-30zM282 -137c0 -50 -30 -98 -62 -121l-22 18c32 24 53 62 53 92c0 0 -6 -1 -8 -1c-19 0 -32 15 -32 33c0 17 13 32 32 32c21 0 39 -19 39 -53z" />
    <glyph glyph-name="lcommaaccent" unicode="&#x13c;" horiz-adv-x="202" 
d="M116 0h-30v667h30v-667zM146 -137c0 -50 -30 -98 -62 -121l-22 18c32 24 53 62 53 92c0 0 -6 -1 -8 -1c-19 0 -32 15 -32 33c0 17 13 32 32 32c21 0 39 -19 39 -53z" />
    <glyph glyph-name="Lcaron" unicode="&#x13d;" horiz-adv-x="475" 
d="M439 0h-367v667h32v-637h335v-30zM282 626c0 -50 -30 -98 -62 -121l-22 18c32 24 53 62 53 92c0 0 -6 -1 -8 -1c-19 0 -32 15 -32 33c0 17 13 32 32 32c21 0 39 -19 39 -53z" />
    <glyph glyph-name="lcaron" unicode="&#x13e;" horiz-adv-x="237" 
d="M116 0h-30v667h30v-667zM259 626c0 -50 -30 -98 -62 -121l-22 18c32 24 53 62 53 92c0 0 -6 -1 -8 -1c-19 0 -32 15 -32 33c0 17 13 32 32 32c21 0 39 -19 39 -53z" />
    <glyph glyph-name="Ldot" unicode="&#x13f;" horiz-adv-x="475" 
d="M439 0h-367v667h32v-637h335v-30zM362 342c0 -18 -15 -33 -33 -33s-33 15 -33 33c0 17 15 32 33 32s33 -15 33 -32z" />
    <glyph glyph-name="ldot" unicode="&#x140;" horiz-adv-x="240" 
d="M116 0h-30v667h30v-667zM254 245c0 -18 -15 -33 -33 -33s-33 15 -33 33c0 17 15 32 33 32s33 -15 33 -32z" />
    <glyph glyph-name="Nacute" unicode="&#x143;" horiz-adv-x="690" 
d="M602 0h-32l-450 615v-615h-32v667h32l450 -609v609h32v-667zM497 872l-175 -144h-30l160 144h45z" />
    <glyph glyph-name="nacute" unicode="&#x144;" horiz-adv-x="528" 
d="M442 0h-30v337c0 101 -50 131 -125 131c-66 0 -137 -43 -171 -91v-377h-30v483h30v-76c36 44 108 88 175 88c96 0 151 -44 151 -158v-337zM416 700l-175 -144h-30l160 144h45z" />
    <glyph glyph-name="Ncommaaccent" unicode="&#x145;" horiz-adv-x="690" 
d="M602 0h-32l-450 615v-615h-32v667h32l450 -609v609h32v-667zM390 -137c0 -50 -30 -98 -62 -121l-22 18c32 24 53 62 53 92c0 0 -6 -1 -8 -1c-19 0 -32 15 -32 33c0 17 13 32 32 32c21 0 39 -19 39 -53z" />
    <glyph glyph-name="ncommaaccent" unicode="&#x146;" horiz-adv-x="528" 
d="M442 0h-30v337c0 101 -50 131 -125 131c-66 0 -137 -43 -171 -91v-377h-30v483h30v-76c36 44 108 88 175 88c96 0 151 -44 151 -158v-337zM309 -137c0 -50 -30 -98 -62 -121l-22 18c32 24 53 62 53 92c0 0 -6 -1 -8 -1c-19 0 -32 15 -32 33c0 17 13 32 32 32
c21 0 39 -19 39 -53z" />
    <glyph glyph-name="Ncaron" unicode="&#x147;" horiz-adv-x="690" 
d="M602 0h-32l-450 615v-615h-32v667h32l450 -609v609h32v-667zM364 728h-36l-101 144h28l91 -120l88 120h28z" />
    <glyph glyph-name="ncaron" unicode="&#x148;" horiz-adv-x="528" 
d="M442 0h-30v337c0 101 -50 131 -125 131c-66 0 -137 -43 -171 -91v-377h-30v483h30v-76c36 44 108 88 175 88c96 0 151 -44 151 -158v-337zM283 556h-36l-101 144h28l91 -120l88 120h28z" />
    <glyph glyph-name="napostrophe" unicode="&#x149;" horiz-adv-x="528" 
d="M442 0h-30v337c0 101 -50 131 -125 131c-66 0 -137 -43 -171 -91v-377h-30v483h30v-76c36 44 108 88 175 88c96 0 151 -44 151 -158v-337zM149 672c0 -50 -30 -98 -62 -121l-22 18c32 24 53 62 53 92c0 0 -6 -1 -8 -1c-19 0 -32 15 -32 33c0 17 13 32 32 32
c21 0 39 -19 39 -53z" />
    <glyph glyph-name="Eng" unicode="&#x14a;" horiz-adv-x="690" 
d="M410 -196c-73 0 -126 27 -169 87l27 24c31 -44 74 -81 142 -81c99 0 160 66 160 164v2l-450 615v-615h-32v667h32l450 -609v609h32v-669c0 -133 -89 -194 -192 -194z" />
    <glyph glyph-name="eng" unicode="&#x14b;" horiz-adv-x="528" 
d="M323 -196c-38 0 -65 13 -92 38l19 25c16 -18 42 -36 73 -36c50 0 89 27 89 93v413c0 101 -50 131 -125 131c-66 0 -137 -43 -171 -91v-377h-30v483h30v-76c36 44 108 88 175 88c96 0 151 -44 151 -158v-413c0 -83 -46 -120 -119 -120z" />
    <glyph glyph-name="Omacron" unicode="&#x14c;" horiz-adv-x="764" 
d="M382 -12c-194 0 -317 152 -317 345s123 345 317 345c193 0 317 -152 317 -345s-124 -345 -317 -345zM382 18c171 0 282 134 282 315c0 183 -111 315 -282 315c-173 0 -282 -132 -282 -315c0 -181 109 -315 282 -315zM563 750h-363v27h363v-27z" />
    <glyph glyph-name="omacron" unicode="&#x14d;" horiz-adv-x="570" 
d="M285 -12c-136 0 -225 112 -225 254s89 253 225 253c137 0 225 -111 225 -253s-88 -254 -225 -254zM285 15c124 0 192 109 192 227c0 117 -68 226 -192 226c-123 0 -192 -109 -192 -226c0 -118 69 -227 192 -227zM466 581h-363v27h363v-27z" />
    <glyph glyph-name="Obreve" unicode="&#x14e;" horiz-adv-x="764" 
d="M382 -12c-194 0 -317 152 -317 345s123 345 317 345c193 0 317 -152 317 -345s-124 -345 -317 -345zM382 18c171 0 282 134 282 315c0 183 -111 315 -282 315c-173 0 -282 -132 -282 -315c0 -181 109 -315 282 -315zM556 816c-40 -54 -103 -88 -175 -88
c-71 0 -135 34 -176 88l21 19c35 -49 90 -80 155 -80s120 31 155 80z" />
    <glyph glyph-name="obreve" unicode="&#x14f;" horiz-adv-x="570" 
d="M285 -12c-136 0 -225 112 -225 254s89 253 225 253c137 0 225 -111 225 -253s-88 -254 -225 -254zM285 15c124 0 192 109 192 227c0 117 -68 226 -192 226c-123 0 -192 -109 -192 -226c0 -118 69 -227 192 -227zM462 657c-40 -54 -103 -88 -175 -88
c-71 0 -135 34 -176 88l21 19c35 -49 90 -80 155 -80s120 31 155 80z" />
    <glyph glyph-name="Ohungarumlaut" unicode="&#x150;" horiz-adv-x="764" 
d="M382 -12c-194 0 -317 152 -317 345s123 345 317 345c193 0 317 -152 317 -345s-124 -345 -317 -345zM382 18c171 0 282 134 282 315c0 183 -111 315 -282 315c-173 0 -282 -132 -282 -315c0 -181 109 -315 282 -315zM424 872l-115 -144h-26l100 144h41zM560 872
l-115 -144h-26l100 144h41z" />
    <glyph glyph-name="ohungarumlaut" unicode="&#x151;" horiz-adv-x="570" 
d="M285 -12c-136 0 -225 112 -225 254s89 253 225 253c137 0 225 -111 225 -253s-88 -254 -225 -254zM285 15c124 0 192 109 192 227c0 117 -68 226 -192 226c-123 0 -192 -109 -192 -226c0 -118 69 -227 192 -227zM327 700l-115 -144h-26l100 144h41zM463 700l-115 -144
h-26l100 144h41z" />
    <glyph glyph-name="Racute" unicode="&#x154;" horiz-adv-x="579" 
d="M524 0h-41l-203 288h-160v-288h-32v667h230c108 0 197 -67 197 -189s-89 -190 -197 -190zM318 318c98 0 162 68 162 160s-64 159 -162 159h-198v-319h198zM442 872l-175 -144h-30l160 144h45z" />
    <glyph glyph-name="racute" unicode="&#x155;" horiz-adv-x="304" 
d="M116 0h-30v483h30v-88c43 57 96 97 166 97v-36c-9 1 -15 1 -24 1c-51 0 -120 -50 -142 -95v-362zM335 700l-175 -144h-30l160 144h45z" />
    <glyph glyph-name="Rcommaaccent" unicode="&#x156;" horiz-adv-x="579" 
d="M524 0h-41l-203 288h-160v-288h-32v667h230c108 0 197 -67 197 -189s-89 -190 -197 -190zM318 318c98 0 162 68 162 160s-64 159 -162 159h-198v-319h198zM334 -137c0 -50 -30 -98 -62 -121l-22 18c32 24 53 62 53 92c0 0 -6 -1 -8 -1c-19 0 -32 15 -32 33
c0 17 13 32 32 32c21 0 39 -19 39 -53z" />
    <glyph glyph-name="rcommaaccent" unicode="&#x157;" horiz-adv-x="304" 
d="M116 0h-30v483h30v-88c43 57 96 97 166 97v-36c-9 1 -15 1 -24 1c-51 0 -120 -50 -142 -95v-362zM197 -137c0 -50 -30 -98 -62 -121l-22 18c32 24 53 62 53 92c0 0 -6 -1 -8 -1c-19 0 -32 15 -32 33c0 17 13 32 32 32c21 0 39 -19 39 -53z" />
    <glyph glyph-name="Rcaron" unicode="&#x158;" horiz-adv-x="579" 
d="M524 0h-41l-203 288h-160v-288h-32v667h230c108 0 197 -67 197 -189s-89 -190 -197 -190zM318 318c98 0 162 68 162 160s-64 159 -162 159h-198v-319h198zM309 728h-36l-101 144h28l91 -120l88 120h28z" />
    <glyph glyph-name="rcaron" unicode="&#x159;" horiz-adv-x="304" 
d="M116 0h-30v483h30v-88c43 57 96 97 166 97v-36c-9 1 -15 1 -24 1c-51 0 -120 -50 -142 -95v-362zM201 556h-36l-101 144h28l91 -120l88 120h28z" />
    <glyph glyph-name="Sacute" unicode="&#x15a;" horiz-adv-x="575" 
d="M286 -12c-104 0 -185 45 -233 106l26 23c41 -50 111 -99 207 -99c154 0 193 88 193 151c0 220 -405 111 -405 339c0 108 99 170 209 170c98 0 169 -36 216 -94l-25 -23c-47 61 -114 87 -191 87c-97 0 -174 -58 -174 -140c0 -190 405 -90 405 -339
c0 -75 -48 -181 -228 -181zM440 872l-175 -144h-30l160 144h45z" />
    <glyph glyph-name="sacute" unicode="&#x15b;" horiz-adv-x="454" 
d="M221 -12c-76 0 -129 22 -177 77l24 22c30 -40 82 -72 153 -72c89 0 143 48 143 112c0 148 -310 71 -310 240c0 71 60 128 164 128c83 0 135 -33 166 -73l-22 -20c-28 40 -79 66 -144 66c-84 0 -134 -44 -134 -101c0 -135 310 -57 310 -240c0 -75 -56 -139 -173 -139z
M379 700l-175 -144h-30l160 144h45z" />
    <glyph glyph-name="Scircumflex" unicode="&#x15c;" horiz-adv-x="575" 
d="M397 728h-28l-91 120l-88 -120h-28l98 144h36zM286 -12c-104 0 -185 45 -233 106l26 23c41 -50 111 -99 207 -99c154 0 193 88 193 151c0 220 -405 111 -405 339c0 108 99 170 209 170c98 0 169 -36 216 -94l-25 -23c-47 61 -114 87 -191 87c-97 0 -174 -58 -174 -140
c0 -190 405 -90 405 -339c0 -75 -48 -181 -228 -181z" />
    <glyph glyph-name="scircumflex" unicode="&#x15d;" horiz-adv-x="454" 
d="M221 -12c-76 0 -129 22 -177 77l24 22c30 -40 82 -72 153 -72c89 0 143 48 143 112c0 148 -310 71 -310 240c0 71 60 128 164 128c83 0 135 -33 166 -73l-22 -20c-28 40 -79 66 -144 66c-84 0 -134 -44 -134 -101c0 -135 310 -57 310 -240c0 -75 -56 -139 -173 -139z
M339 556h-28l-91 120l-88 -120h-28l98 144h36z" />
    <glyph glyph-name="Scedilla" unicode="&#x15e;" horiz-adv-x="575" 
d="M284 -187c-38 0 -74 13 -93 28l14 27c24 -21 52 -28 79 -28c37 0 69 18 69 49c0 26 -14 43 -44 43c-16 0 -33 -7 -43 -19l-22 13l22 63c-94 5 -168 48 -213 105l26 23c41 -50 111 -99 207 -99c154 0 193 88 193 151c0 220 -405 111 -405 339c0 108 99 170 209 170
c98 0 169 -36 216 -94l-25 -23c-47 61 -114 87 -191 87c-97 0 -174 -58 -174 -140c0 -190 405 -90 405 -339c0 -74 -46 -177 -218 -181l-17 -46c10 8 25 12 38 12c39 0 65 -25 65 -65c0 -45 -43 -76 -98 -76z" />
    <glyph glyph-name="scedilla" unicode="&#x15f;" horiz-adv-x="454" 
d="M220 -187c-38 0 -74 13 -93 28l14 27c24 -21 52 -28 79 -28c37 0 69 18 69 49c0 26 -14 43 -44 43c-16 0 -33 -7 -43 -19l-22 13l22 63c-66 3 -114 25 -158 76l24 22c30 -40 82 -72 153 -72c89 0 143 48 143 112c0 148 -310 71 -310 240c0 71 60 128 164 128
c83 0 135 -33 166 -73l-22 -20c-28 40 -79 66 -144 66c-84 0 -134 -44 -134 -101c0 -135 310 -57 310 -240c0 -73 -53 -135 -162 -139l-17 -46c10 8 25 12 38 12c39 0 65 -25 65 -65c0 -45 -43 -76 -98 -76z" />
    <glyph glyph-name="Tcommaaccent" unicode="&#x162;" horiz-adv-x="559" 
d="M295 0h-32v637h-225v30h483v-30h-226v-637zM324 -137c0 -50 -30 -98 -62 -121l-22 18c32 24 53 62 53 92c0 0 -6 -1 -8 -1c-19 0 -32 15 -32 33c0 17 13 32 32 32c21 0 39 -19 39 -53z" />
    <glyph glyph-name="Tcommaaccent" unicode="&#x21a;" horiz-adv-x="559" 
d="M295 0h-32v637h-225v30h483v-30h-226v-637zM324 -137c0 -50 -30 -98 -62 -121l-22 18c32 24 53 62 53 92c0 0 -6 -1 -8 -1c-19 0 -32 15 -32 33c0 17 13 32 32 32c21 0 39 -19 39 -53z" />
    <glyph glyph-name="tcommaaccent" unicode="&#x163;" horiz-adv-x="256" 
d="M174 -12c-56 0 -82 37 -82 97v371h-80v27h80v132h30v-132h98v-27h-98v-371c0 -41 16 -70 52 -70c24 0 45 12 57 26l18 -23c-19 -18 -39 -30 -75 -30zM173 -137c0 -50 -30 -98 -62 -121l-22 18c32 24 53 62 53 92c0 0 -6 -1 -8 -1c-19 0 -32 15 -32 33c0 17 13 32 32 32
c21 0 39 -19 39 -53z" />
    <glyph glyph-name="tcommaaccent" unicode="&#x21b;" horiz-adv-x="256" 
d="M174 -12c-56 0 -82 37 -82 97v371h-80v27h80v132h30v-132h98v-27h-98v-371c0 -41 16 -70 52 -70c24 0 45 12 57 26l18 -23c-19 -18 -39 -30 -75 -30zM173 -137c0 -50 -30 -98 -62 -121l-22 18c32 24 53 62 53 92c0 0 -6 -1 -8 -1c-19 0 -32 15 -32 33c0 17 13 32 32 32
c21 0 39 -19 39 -53z" />
    <glyph glyph-name="Tcaron" unicode="&#x164;" horiz-adv-x="559" 
d="M295 0h-32v637h-225v30h483v-30h-226v-637zM299 728h-36l-101 144h28l91 -120l88 120h28z" />
    <glyph glyph-name="tcaron" unicode="&#x165;" horiz-adv-x="256" 
d="M174 -12c-56 0 -82 37 -82 97v371h-80v27h80v132h30v-132h98v-27h-98v-371c0 -41 16 -70 52 -70c24 0 45 12 57 26l18 -23c-19 -18 -39 -30 -75 -30zM260 672c0 -50 -30 -98 -62 -121l-22 18c32 24 53 62 53 92c0 0 -6 -1 -8 -1c-19 0 -32 15 -32 33c0 17 13 32 32 32
c21 0 39 -19 39 -53z" />
    <glyph glyph-name="Tbar" unicode="&#x166;" horiz-adv-x="559" 
d="M295 0h-32v321h-165v27h165v289h-225v30h483v-30h-226v-289h166v-27h-166v-321z" />
    <glyph glyph-name="tbar" unicode="&#x167;" horiz-adv-x="256" 
d="M194 242h-72v-157c0 -41 16 -70 52 -70c24 0 45 12 57 26l18 -23c-19 -18 -39 -30 -75 -30c-56 0 -82 37 -82 97v157h-80v27h80v187h-80v27h80v132h30v-132h98v-27h-98v-187h72v-27z" />
    <glyph glyph-name="Utilde" unicode="&#x168;" horiz-adv-x="672" 
d="M336 -12c-162 0 -248 101 -248 265v414h32v-414c0 -148 76 -235 216 -235s216 87 216 235v414h32v-414c0 -165 -86 -265 -248 -265zM401 726c-77 0 -71 113 -128 113c-33 0 -59 -32 -59 -107h-26c0 72 31 134 88 134c77 0 71 -113 128 -113c33 0 59 32 59 107h26
c0 -72 -31 -134 -88 -134z" />
    <glyph glyph-name="utilde" unicode="&#x169;" horiz-adv-x="528" 
d="M442 0h-30v74c-41 -46 -108 -86 -175 -86c-96 0 -151 42 -151 156v339h30v-339c0 -101 50 -129 125 -129c66 0 137 40 171 88v380h30v-483zM326 554c-77 0 -71 113 -128 113c-33 0 -59 -32 -59 -107h-26c0 72 31 134 88 134c77 0 71 -113 128 -113c33 0 59 32 59 107h26
c0 -72 -31 -134 -88 -134z" />
    <glyph glyph-name="Umacron" unicode="&#x16a;" horiz-adv-x="672" 
d="M336 -12c-162 0 -248 101 -248 265v414h32v-414c0 -148 76 -235 216 -235s216 87 216 235v414h32v-414c0 -165 -86 -265 -248 -265zM517 750h-363v27h363v-27z" />
    <glyph glyph-name="umacron" unicode="&#x16b;" horiz-adv-x="528" 
d="M442 0h-30v74c-41 -46 -108 -86 -175 -86c-96 0 -151 42 -151 156v339h30v-339c0 -101 50 -129 125 -129c66 0 137 40 171 88v380h30v-483zM445 581h-363v27h363v-27z" />
    <glyph glyph-name="Ubreve" unicode="&#x16c;" horiz-adv-x="672" 
d="M336 -12c-162 0 -248 101 -248 265v414h32v-414c0 -148 76 -235 216 -235s216 87 216 235v414h32v-414c0 -165 -86 -265 -248 -265zM515 816c-40 -54 -103 -88 -175 -88c-71 0 -135 34 -176 88l21 19c35 -49 90 -80 155 -80s120 31 155 80z" />
    <glyph glyph-name="ubreve" unicode="&#x16d;" horiz-adv-x="528" 
d="M442 0h-30v74c-41 -46 -108 -86 -175 -86c-96 0 -151 42 -151 156v339h30v-339c0 -101 50 -129 125 -129c66 0 137 40 171 88v380h30v-483zM441 657c-40 -54 -103 -88 -175 -88c-71 0 -135 34 -176 88l21 19c35 -49 90 -80 155 -80s120 31 155 80z" />
    <glyph glyph-name="Uring" unicode="&#x16e;" horiz-adv-x="672" 
d="M336 -12c-162 0 -248 101 -248 265v414h32v-414c0 -148 76 -235 216 -235s216 87 216 235v414h32v-414c0 -165 -86 -265 -248 -265zM336 692c-51 0 -93 42 -93 93s42 93 93 93s92 -42 92 -93s-41 -93 -92 -93zM336 716c38 0 68 31 68 69s-30 69 -68 69s-69 -31 -69 -69
s31 -69 69 -69z" />
    <glyph glyph-name="uring" unicode="&#x16f;" horiz-adv-x="528" 
d="M442 0h-30v74c-41 -46 -108 -86 -175 -86c-96 0 -151 42 -151 156v339h30v-339c0 -101 50 -129 125 -129c66 0 137 40 171 88v380h30v-483zM264 560c-51 0 -93 42 -93 93s42 93 93 93s92 -42 92 -93s-41 -93 -92 -93zM264 584c38 0 68 31 68 69s-30 69 -68 69
s-69 -31 -69 -69s31 -69 69 -69z" />
    <glyph glyph-name="Uhungarumlaut" unicode="&#x170;" horiz-adv-x="672" 
d="M336 -12c-162 0 -248 101 -248 265v414h32v-414c0 -148 76 -235 216 -235s216 87 216 235v414h32v-414c0 -165 -86 -265 -248 -265zM378 872l-115 -144h-26l100 144h41zM514 872l-115 -144h-26l100 144h41z" />
    <glyph glyph-name="uhungarumlaut" unicode="&#x171;" horiz-adv-x="528" 
d="M442 0h-30v74c-41 -46 -108 -86 -175 -86c-96 0 -151 42 -151 156v339h30v-339c0 -101 50 -129 125 -129c66 0 137 40 171 88v380h30v-483zM306 700l-115 -144h-26l100 144h41zM442 700l-115 -144h-26l100 144h41z" />
    <glyph glyph-name="Uogonek" unicode="&#x172;" horiz-adv-x="672" 
d="M452 -112l25 -11c-11 -31 -35 -63 -83 -63c-43 0 -81 25 -81 84c0 33 18 66 46 91c-8 -1 -15 -1 -23 -1c-162 0 -248 101 -248 265v414h32v-414c0 -148 76 -235 216 -235s216 87 216 235v414h32v-414c0 -133 -56 -224 -163 -254c-47 -23 -79 -55 -79 -101
c0 -37 19 -57 52 -57c31 0 48 16 58 47z" />
    <glyph glyph-name="uogonek" unicode="&#x173;" horiz-adv-x="528" 
d="M470 -112l25 -11c-11 -31 -35 -63 -83 -63c-43 0 -81 25 -81 84c0 46 34 90 81 115v61c-41 -46 -108 -86 -175 -86c-96 0 -151 42 -151 156v339h30v-339c0 -101 50 -129 125 -129c66 0 137 40 171 88v380h30v-483c-48 -23 -82 -55 -82 -102c0 -37 19 -57 52 -57
c31 0 48 16 58 47z" />
    <glyph glyph-name="Wcircumflex" unicode="&#x174;" horiz-adv-x="852" 
d="M637 0h-38l-173 607l-173 -607h-38l-190 667h35l174 -619l175 619h34l175 -619l174 619h35zM544 728h-28l-91 120l-88 -120h-28l98 144h36z" />
    <glyph glyph-name="wcircumflex" unicode="&#x175;" horiz-adv-x="704" 
d="M522 0h-24l-146 438l-146 -438h-24l-160 483h33l140 -436l145 436h24l145 -436l140 436h33zM470 556h-28l-91 120l-88 -120h-28l98 144h36z" />
    <glyph glyph-name="Ycircumflex" unicode="&#x176;" horiz-adv-x="610" 
d="M424 728h-28l-91 120l-88 -120h-28l98 144h36zM321 0h-32v289l-268 378h41l243 -346l243 346h41l-268 -378v-289z" />
    <glyph glyph-name="ycircumflex" unicode="&#x177;" horiz-adv-x="471" 
d="M50 -189l6 28c11 -5 30 -8 42 -8c32 0 54 14 76 66l44 100l-207 486h35l190 -448l189 448h35l-256 -597c-23 -52 -58 -82 -106 -82c-17 0 -36 3 -48 7zM354 556h-28l-91 120l-88 -120h-28l98 144h36z" />
    <glyph glyph-name="Zacute" unicode="&#x179;" horiz-adv-x="578" 
d="M525 0h-472v30l427 607h-427v30h465v-30l-428 -607h435v-30zM441 872l-175 -144h-30l160 144h45z" />
    <glyph glyph-name="zacute" unicode="&#x17a;" horiz-adv-x="466" 
d="M406 0h-346v27l307 429h-307v27h342v-27l-309 -429h313v-27zM385 700l-175 -144h-30l160 144h45z" />
    <glyph glyph-name="Zdotaccent" unicode="&#x17b;" horiz-adv-x="578" 
d="M525 0h-472v30l427 607h-427v30h465v-30l-428 -607h435v-30zM289 736c-15 0 -29 13 -29 29s14 29 29 29c16 0 29 -13 29 -29s-13 -29 -29 -29z" />
    <glyph glyph-name="zdotaccent" unicode="&#x17c;" horiz-adv-x="466" 
d="M406 0h-346v27l307 429h-307v27h342v-27l-309 -429h313v-27zM233 591c-15 0 -29 13 -29 29s14 29 29 29c16 0 29 -13 29 -29s-13 -29 -29 -29z" />
    <glyph glyph-name="longs" unicode="&#x17f;" horiz-adv-x="246" 
d="M130 0h-30v456h-80v27h80v51c0 90 45 143 121 143c31 0 51 -5 82 -30l-18 -24c-17 16 -38 27 -64 27c-61 0 -91 -43 -91 -116v-534z" />
    <glyph glyph-name="AEacute" unicode="&#x1fc;" horiz-adv-x="930" 
d="M865 0h-408v179h-286l-113 -179h-37l425 667h419v-30h-376v-279h369v-30h-369v-298h376v-30zM457 209v421l-269 -421h269zM625 872l-175 -144h-30l160 144h45z" />
    <glyph glyph-name="aeacute" unicode="&#x1fd;" horiz-adv-x="905" 
d="M845 232h-417c3 -118 80 -217 203 -217c68 0 123 25 168 73l18 -19c-49 -51 -105 -81 -186 -81c-103 0 -162 51 -200 111c-30 -50 -87 -111 -200 -111c-85 0 -169 59 -169 162s83 160 169 160c68 0 122 -21 167 -69v107c0 78 -62 120 -136 120c-63 0 -110 -22 -155 -76
l-23 20c47 55 97 83 178 83c95 0 157 -44 163 -129c32 69 100 129 196 129c148 0 224 -119 224 -253v-10zM428 259h385c0 93 -61 209 -193 209c-124 0 -189 -114 -192 -209zM418 125c-9 17 -20 52 -20 82c-37 50 -96 76 -159 76c-88 0 -144 -59 -144 -134s56 -134 144 -134
c63 0 132 24 179 110zM585 700l-175 -144h-30l160 144h45z" />
    <glyph glyph-name="Oslashacute" unicode="&#x1fe;" horiz-adv-x="764" 
d="M536 872l-175 -144h-30l160 144h45zM382 -12c-62 0 -117 15 -163 43l-18 -31h-36l29 48c-82 62 -129 165 -129 285c0 193 123 345 317 345c61 0 116 -16 162 -43l19 32h36l-30 -50c82 -61 130 -165 130 -284c0 -193 -124 -345 -317 -345zM382 18c171 0 282 134 282 315
c0 110 -41 202 -111 258l-318 -534c41 -25 91 -39 147 -39zM100 333c0 -110 40 -202 110 -258l318 534c-41 25 -91 39 -146 39c-173 0 -282 -132 -282 -315z" />
    <glyph glyph-name="oslashacute" unicode="&#x1ff;" horiz-adv-x="570" 
d="M438 700l-175 -144h-30l160 144h45zM118 0h-34l42 56c-42 46 -66 112 -66 186c0 142 89 253 225 253c52 0 97 -16 133 -44l24 32h33l-37 -50c46 -46 72 -114 72 -191c0 -142 -88 -254 -225 -254c-55 0 -102 18 -139 49zM285 15c124 0 192 109 192 227
c0 63 -20 124 -57 166l-257 -347c31 -29 72 -46 122 -46zM93 242c0 -60 18 -118 52 -160l255 345c-30 25 -68 41 -115 41c-123 0 -192 -109 -192 -226z" />
    <glyph glyph-name="Scommaaccent" unicode="&#x218;" horiz-adv-x="575" 
d="M286 -12c-104 0 -185 45 -233 106l26 23c41 -50 111 -99 207 -99c154 0 193 88 193 151c0 220 -405 111 -405 339c0 108 99 170 209 170c98 0 169 -36 216 -94l-25 -23c-47 61 -114 87 -191 87c-97 0 -174 -58 -174 -140c0 -190 405 -90 405 -339
c0 -75 -48 -181 -228 -181zM327 -137c0 -50 -30 -98 -62 -121l-22 18c32 24 53 62 53 92c0 0 -6 -1 -8 -1c-19 0 -32 15 -32 33c0 17 13 32 32 32c21 0 39 -19 39 -53z" />
    <glyph glyph-name="scommaaccent" unicode="&#x219;" horiz-adv-x="454" 
d="M221 -12c-76 0 -129 22 -177 77l24 22c30 -40 82 -72 153 -72c89 0 143 48 143 112c0 148 -310 71 -310 240c0 71 60 128 164 128c83 0 135 -33 166 -73l-22 -20c-28 40 -79 66 -144 66c-84 0 -134 -44 -134 -101c0 -135 310 -57 310 -240c0 -75 -56 -139 -173 -139z
M272 -137c0 -50 -30 -98 -62 -121l-22 18c32 24 53 62 53 92c0 0 -6 -1 -8 -1c-19 0 -32 15 -32 33c0 17 13 32 32 32c21 0 39 -19 39 -53z" />
    <glyph glyph-name="hsuperior" unicode="&#x2b0;" horiz-adv-x="387" 
d="M318 326h-28v214c0 66 -33 85 -82 85c-44 0 -89 -28 -111 -57v-242h-28v434h28v-169c24 28 72 57 118 57c66 0 103 -29 103 -109v-213z" />
    <glyph glyph-name="hsuperior" unicode="&#xf637;" horiz-adv-x="387" 
d="M318 326h-28v214c0 66 -33 85 -82 85c-44 0 -89 -28 -111 -57v-242h-28v434h28v-169c24 28 72 57 118 57c66 0 103 -29 103 -109v-213z" />
    <glyph glyph-name="frenchfranc" unicode="&#x20a3;" horiz-adv-x="545" 
d="M132 0h-32v161h-88v27h88v479h408v-30h-376v-279h369v-30h-369v-140h243v-27h-243v-161z" />
    <glyph glyph-name="lira" unicode="&#x20a4;" horiz-adv-x="491" 
d="M17 323v30h90c-30 33 -56 73 -56 136c0 96 83 188 208 188c74 0 144 -42 175 -104l-26 -18c-18 43 -75 92 -149 92c-92 0 -175 -57 -175 -158c0 -62 28 -101 60 -136h202v-30h-174c23 -25 44 -51 53 -85h121v-30h-118c0 -2 1 -4 1 -5c0 -73 -40 -114 -86 -149
c14 5 34 10 55 10c69 0 100 -48 162 -48c46 0 90 25 104 43l18 -27c-28 -27 -71 -46 -124 -46c-92 0 -90 48 -178 48c-34 0 -76 -19 -119 -41l-14 33c104 44 152 109 152 177c0 1 -1 3 -1 5h-181v30h177c-10 33 -33 59 -58 85h-119z" />
    <glyph glyph-name="uni20A6" unicode="&#x20a6;" horiz-adv-x="714" 
d="M614 0h-32l-184 251h-266v-251h-32v251h-88v27h88v119h-88v27h88v243h32l179 -243h271v243h32v-243h88v-27h-88v-119h88v-27h-88v-251zM331 397l88 -119h163v119h-251zM132 397v-119h246l-87 119h-159zM439 251l143 -193v193h-143zM132 615v-191h140z" />
    <glyph glyph-name="peseta" unicode="&#x20a7;" horiz-adv-x="608" 
d="M604 463h-79c-7 -96 -78 -174 -194 -174h-199v-289h-32v463h-88v30h88v174h231c118 0 188 -79 194 -174h79v-30zM132 637v-144h358c-6 84 -68 144 -160 144h-198zM330 319c92 0 154 59 160 144h-358v-144h198z" />
    <glyph glyph-name="rupee" unicode="&#x20a8;" horiz-adv-x="973" 
d="M524 0h-41l-203 288h-160v-288h-32v667h230c108 0 197 -67 197 -189s-89 -190 -197 -190zM318 318c98 0 162 68 162 160s-64 159 -162 159h-198v-319h198zM740 -12c-76 0 -129 22 -177 77l24 22c30 -40 82 -72 153 -72c89 0 143 48 143 112c0 148 -310 71 -310 240
c0 71 60 128 164 128c83 0 135 -33 166 -73l-22 -20c-28 40 -79 66 -144 66c-84 0 -134 -44 -134 -101c0 -135 310 -57 310 -240c0 -75 -56 -139 -173 -139z" />
    <glyph glyph-name="uni20A9" unicode="&#x20a9;" horiz-adv-x="852" 
d="M637 0h-38l-72 251h-203l-71 -251h-38l-72 251h-116v27h109l-34 119h-75v27h67l-69 243h35l68 -243h212l69 243h34l69 -243h211l69 243h35l-70 -243h69v-27h-76l-34 -119h110v-27h-118zM136 397l33 -119h130l33 119h-196zM519 397l34 -119h129l34 119h-197zM366 397
l-34 -119h187l-34 119h-119zM560 251l58 -203l57 203h-115zM177 251l57 -203l57 203h-114zM426 607l-53 -183h105z" />
    <glyph glyph-name="afii57636" unicode="&#x20aa;" horiz-adv-x="800" 
d="M498 0h-215v399h32v-370h183s184 59 184 178v343h32v-343c0 -136 -75 -207 -216 -207zM301 550c141 0 216 -71 216 -207v-193h-32v193c0 119 -65 178 -184 178h-183v-521h-32v550h215z" />
    <glyph glyph-name="afii61289" unicode="&#x2113;" horiz-adv-x="432" 
d="M86 521v-436c0 -70 35 -97 82 -97c30 0 54 9 75 30l-18 23c-14 -16 -36 -26 -57 -26c-36 0 -52 29 -52 70v227l180 123c52 36 96 74 96 132c0 61 -60 110 -148 110c-94 0 -158 -71 -158 -156zM281 461l-165 -111v169c0 81 60 131 128 131c58 0 118 -32 118 -83
c0 -44 -33 -73 -81 -106z" />
    <glyph glyph-name="afii61352" unicode="&#x2116;" horiz-adv-x="1095" 
d="M602 0h-32l-450 615v-615h-32v667h32l450 -609v609h32v-667zM892 350c-92 0 -154 73 -154 165c0 93 62 165 154 165c94 0 155 -72 155 -165c0 -92 -61 -165 -155 -165zM892 376c80 0 126 65 126 139s-46 138 -126 138c-79 0 -124 -64 -124 -138s45 -139 124 -139z" />
    <glyph glyph-name="published" unicode="&#x2117;" horiz-adv-x="778" 
d="M734 334c0 -190 -155 -345 -345 -345s-345 155 -345 345s155 345 345 345s345 -155 345 -345zM708 334c0 175 -144 319 -319 319s-319 -144 -319 -319s144 -319 319 -319s319 144 319 319zM545 422c0 -71 -57 -112 -125 -112h-112v-179h-29v405h141
c68 0 125 -40 125 -114zM516 422c0 54 -38 85 -96 85h-112v-168h112c58 0 96 31 96 83z" />
    <glyph glyph-name="servicemark" unicode="&#x2120;" horiz-adv-x="476" 
d="M439 447h-28v182l-75 -182h-8l-75 182v-182h-28v220h43l64 -160l64 160h43v-220zM188 506c0 -41 -30 -67 -87 -67c-39 0 -68 15 -86 36l18 21c15 -17 39 -32 66 -32c39 0 56 17 56 39c0 59 -136 26 -136 106c0 38 34 64 80 64c39 0 65 -12 82 -32l-18 -19
c-15 18 -38 27 -63 27c-28 0 -48 -15 -48 -36c0 -53 136 -22 136 -107z" />
    <glyph glyph-name="estimated" unicode="&#x212e;" horiz-adv-x="842" 
d="M811 324h-632c-3 0 -5 -2 -5 -5v-190c0 -9 3 -17 9 -23c60 -63 146 -103 240 -103c101 0 189 44 250 115h57c-71 -83 -183 -136 -309 -136c-215 0 -390 157 -390 351s175 351 390 351s390 -157 390 -351v-9zM668 349v191c0 9 -4 18 -10 24c-60 61 -143 99 -235 99
c-94 0 -179 -40 -239 -102c-6 -6 -10 -15 -10 -24v-188c0 -3 2 -6 5 -6h485c3 0 4 3 4 6z" />
    <glyph glyph-name="arrowleft" unicode="&#x2190;" horiz-adv-x="582" 
d="M538 211h-269l12 -130l-281 205l281 204l-12 -129h269v-150z" />
    <glyph glyph-name="arrowup" unicode="&#x2191;" horiz-adv-x="582" 
d="M216 17v269l-130 -12l205 281l204 -281l-129 12v-269h-150z" />
    <glyph glyph-name="arrowright" unicode="&#x2192;" horiz-adv-x="582" 
d="M584 286l-281 -205l12 130h-268v150h268l-12 129z" />
    <glyph glyph-name="arrowdown" unicode="&#x2193;" horiz-adv-x="582" 
d="M366 555v-269l130 12l-205 -281l-204 281l129 -12v269h150z" />
    <glyph glyph-name="triangleright" unicode="&#x22b2;" horiz-adv-x="587" 
d="M589 286l-535 -309v618z" />
    <glyph glyph-name="triangleleft" unicode="&#x22b3;" horiz-adv-x="587" 
d="M535 595v-618l-535 309z" />
    <glyph glyph-name="blacksquare" unicode="&#x25a0;" horiz-adv-x="661" 
d="M618 0h-571v572h571v-572z" />
    <glyph glyph-name="triagup" unicode="&#x25b2;" horiz-adv-x="616" 
d="M617 29l-619 1l309 535z" />
    <glyph glyph-name="triagdn" unicode="&#x25bc;" horiz-adv-x="616" 
d="M617 510l-310 -535l-309 535h619z" />
    <glyph glyph-name="circlesolid" unicode="&#x25cf;" horiz-adv-x="695" 
d="M644 285c0 -164 -133 -297 -297 -297s-297 133 -297 297s133 297 297 297s297 -133 297 -297z" />
    <glyph glyph-name="blackstar" unicode="&#x2605;" horiz-adv-x="759" 
d="M759 421l-235 -171l90 -275l-235 170l-234 -170l89 275l-234 171h290l89 276l90 -276h290z" />
    <glyph glyph-name="ballotbox" unicode="&#x2610;" horiz-adv-x="661" 
d="M616 0h-571v572h571v-572zM584 30v512h-508v-512h508z" />
    <glyph glyph-name="boxchecked" unicode="&#x2611;" horiz-adv-x="661" 
d="M665 698l-69 -126h20v-572h-571v572h515l78 145zM584 30v512h-4l-244 -451l-202 246l25 23l173 -215l212 397h-468v-512h508z" />
    <glyph glyph-name="diamond" unicode="&#x2666;" horiz-adv-x="501" 
d="M501 285l-251 -250l-250 250l250 251z" />
    <glyph glyph-name="checkmark" unicode="&#x2713;" horiz-adv-x="531" 
d="M531 698l-329 -607l-202 246l25 23l173 -215l306 572z" />
    <glyph glyph-name="perthousand.onum" unicode="&#xf628;" horiz-adv-x="855" 
d="M282 426c0 -77 -53 -135 -128 -135c-74 0 -127 58 -127 135s53 136 127 136c75 0 128 -59 128 -136zM546 123c0 -77 -53 -135 -127 -135s-127 58 -127 135c0 78 53 136 127 136s127 -58 127 -136zM497 550l-384 -550h-36l382 550h38zM251 426c0 60 -38 111 -97 111
c-58 0 -97 -51 -97 -111s39 -110 97 -110c59 0 97 50 97 110zM516 123c0 61 -38 111 -97 111s-97 -50 -97 -111c0 -59 38 -110 97 -110s97 51 97 110zM828 123c0 -77 -53 -135 -127 -135s-127 63 -127 135c0 78 53 136 127 136s127 -58 127 -136zM798 123
c0 61 -38 111 -97 111s-97 -50 -97 -111c0 -59 38 -110 97 -110s97 51 97 110z" />
    <glyph glyph-name="zero.tzero" unicode="&#xf638;" horiz-adv-x="595" 
d="M298 -12c-65 0 -114 26 -150 66l-32 -54h-36l47 79c-48 70 -67 167 -67 254c0 155 62 344 238 344c63 0 112 -25 148 -64l32 54h36l-48 -80c49 -69 69 -167 69 -254c0 -154 -62 -345 -237 -345zM298 18c153 0 202 174 202 315c0 77 -14 162 -51 225l-284 -476
c31 -39 74 -64 133 -64zM95 333c0 -76 14 -161 50 -223l284 475c-31 38 -74 62 -131 62c-154 0 -203 -172 -203 -314z" />
    <glyph glyph-name="zero.tnum" unicode="&#xf639;" horiz-adv-x="577" 
d="M289 -12c-176 0 -238 191 -238 345c0 155 62 344 238 344c175 0 237 -189 237 -344c0 -154 -62 -345 -237 -345zM289 18c153 0 202 174 202 315c0 142 -48 314 -202 314s-203 -172 -203 -314c0 -141 49 -315 203 -315z" />
    <glyph glyph-name="two.tnum" unicode="&#xf63a;" horiz-adv-x="577" 
d="M491 0h-421v28c213 177 387 325 387 468c0 108 -87 151 -166 151c-85 0 -150 -37 -184 -90l-26 19c41 61 117 101 211 101c85 0 197 -49 197 -181c0 -156 -174 -301 -372 -466h374v-30z" />
    <glyph glyph-name="three.tnum" unicode="&#xf63b;" horiz-adv-x="577" 
d="M290 -12c-105 0 -181 52 -216 112l28 16c34 -55 97 -98 188 -98c110 0 181 60 181 159c0 109 -91 153 -193 153c-27 0 -46 0 -56 -1v32c10 -1 28 -1 56 -1c93 0 183 42 183 143c0 92 -80 144 -171 144c-80 0 -132 -31 -182 -90l-25 20c44 56 115 100 207 100
c104 0 203 -61 203 -174c0 -108 -90 -149 -142 -158c55 -5 152 -54 152 -168c0 -108 -77 -189 -213 -189z" />
    <glyph glyph-name="four.tnum" unicode="&#xf63c;" horiz-adv-x="577" 
d="M411 0h-32v195h-315v33l305 439h42v-442h101v-30h-101v-195zM379 225v406l-280 -406h280z" />
    <glyph glyph-name="five.tnum" unicode="&#xf63d;" horiz-adv-x="577" 
d="M299 -12c-110 0 -173 44 -216 112l26 19c43 -65 99 -101 190 -101c102 0 180 77 180 180c0 113 -78 182 -180 182c-62 0 -117 -21 -168 -69l-27 16v340h364v-30h-332v-291c33 32 91 64 163 64c111 0 212 -72 212 -212c0 -130 -101 -210 -212 -210z" />
    <glyph glyph-name="six.tnum" unicode="&#xf63e;" horiz-adv-x="577" 
d="M302 -12c-173 0 -232 169 -232 345c0 162 59 344 238 344c89 0 138 -37 175 -90l-24 -21c-32 46 -73 81 -151 81c-157 0 -206 -171 -206 -324c0 -12 0 -24 1 -36c27 46 107 119 203 119c120 0 211 -68 211 -210c0 -102 -75 -208 -215 -208zM302 18c125 0 183 99 183 178
c0 121 -75 180 -180 180c-80 0 -158 -55 -198 -130c9 -99 60 -228 195 -228z" />
    <glyph glyph-name="seven.tnum" unicode="&#xf63f;" horiz-adv-x="577" 
d="M202 0h-36l293 637h-379v30h417v-22z" />
    <glyph glyph-name="eight.tnum" unicode="&#xf640;" horiz-adv-x="577" 
d="M289 -12c-126 0 -215 73 -215 177c0 97 87 157 173 179c-80 19 -162 71 -162 162c0 116 104 171 204 171c98 0 204 -55 204 -171c0 -91 -82 -143 -162 -162c86 -22 172 -82 172 -179c0 -103 -90 -177 -214 -177zM289 359c41 8 172 40 172 147c0 89 -79 141 -172 141
c-94 0 -172 -52 -172 -141c0 -107 132 -139 172 -147zM289 18c93 0 182 55 182 147c0 115 -142 160 -182 165c-41 -5 -183 -50 -183 -165c0 -92 88 -147 183 -147z" />
    <glyph glyph-name="nine.tnum" unicode="&#xf641;" horiz-adv-x="577" 
d="M269 -11c-89 0 -138 37 -175 90l24 21c32 -46 73 -81 151 -81c157 0 206 171 206 324c0 12 0 24 -1 36c-27 -46 -107 -119 -203 -119c-120 0 -211 68 -211 210c0 102 75 208 215 208c173 0 232 -169 232 -345c0 -162 -59 -344 -238 -344zM272 290c80 0 158 55 198 130
c-9 99 -60 228 -195 228c-125 0 -183 -99 -183 -178c0 -121 75 -180 180 -180z" />
    <glyph glyph-name="percent.onum" unicode="&#xf642;" horiz-adv-x="573" 
d="M282 426c0 -77 -53 -135 -128 -135c-74 0 -127 58 -127 135s53 136 127 136c75 0 128 -59 128 -136zM546 123c0 -77 -53 -135 -127 -135s-127 58 -127 135c0 78 53 136 127 136s127 -58 127 -136zM497 550l-384 -550h-36l382 550h38zM251 426c0 60 -38 111 -97 111
c-58 0 -97 -51 -97 -111s39 -110 97 -110c59 0 97 50 97 110zM516 123c0 61 -38 111 -97 111s-97 -50 -97 -111c0 -59 38 -110 97 -110s97 51 97 110z" />
    <glyph glyph-name="zero.tonum" unicode="&#xf643;" horiz-adv-x="577" 
d="M526 275c0 -137 -69 -287 -237 -287c-169 0 -238 150 -238 287c0 138 69 287 238 287c168 0 237 -149 237 -287zM491 275c0 124 -54 257 -202 257s-203 -133 -203 -257s55 -257 203 -257c147 0 202 133 202 257z" />
    <glyph glyph-name="one.tonum" unicode="&#xf644;" horiz-adv-x="577" 
d="M348 0h-32v504l-105 -115l-22 23l129 138h30v-550z" />
    <glyph glyph-name="two.tonum" unicode="&#xf645;" horiz-adv-x="577" 
d="M483 0h-399v29c243 114 377 234 377 355c0 87 -75 148 -166 148c-85 0 -160 -37 -194 -90l-26 19c41 61 127 101 221 101c103 0 197 -68 197 -178c0 -135 -145 -265 -344 -354h334v-30z" />
    <glyph glyph-name="three.tonum" unicode="&#xf646;" horiz-adv-x="577" 
d="M290 -137c-105 0 -181 52 -216 112l28 16c34 -55 97 -98 188 -98c110 0 181 60 181 159c0 109 -91 153 -193 153c-27 0 -46 0 -56 -1v32c10 -1 28 -1 56 -1c93 0 183 42 183 143c0 92 -80 144 -171 144c-80 0 -132 -31 -182 -90l-25 20c44 56 115 100 207 100
c104 0 203 -61 203 -174c0 -108 -90 -149 -142 -158c55 -5 152 -54 152 -168c0 -108 -77 -189 -213 -189z" />
    <glyph glyph-name="four.tonum" unicode="&#xf647;" horiz-adv-x="577" 
d="M512 78h-101v-195h-32v195h-315v33l305 439h42v-442h101v-30zM379 108v406l-280 -406h280z" />
    <glyph glyph-name="five.tonum" unicode="&#xf648;" horiz-adv-x="577" 
d="M299 -129c-110 0 -173 44 -216 112l26 19c43 -65 99 -101 190 -101c102 0 180 77 180 180c0 113 -78 182 -180 182c-62 0 -117 -21 -168 -69l-27 16v340h364v-30h-332v-291c33 32 91 64 163 64c111 0 212 -72 212 -212c0 -130 -101 -210 -212 -210z" />
    <glyph glyph-name="six.tonum" unicode="&#xf649;" horiz-adv-x="577" 
d="M302 -12c-173 0 -232 169 -232 345c0 162 59 344 238 344c89 0 138 -37 175 -90l-24 -21c-32 46 -73 81 -151 81c-157 0 -206 -171 -206 -324c0 -12 0 -24 1 -36c27 46 107 119 203 119c120 0 211 -68 211 -210c0 -102 -75 -208 -215 -208zM302 18c125 0 183 99 183 178
c0 121 -75 180 -180 180c-80 0 -158 -55 -198 -130c9 -99 60 -228 195 -228z" />
    <glyph glyph-name="seven.tonum" unicode="&#xf64a;" horiz-adv-x="577" 
d="M202 -117h-36l293 637h-379v30h417v-22z" />
    <glyph glyph-name="eight.tonum" unicode="&#xf64b;" horiz-adv-x="577" 
d="M289 -12c-126 0 -215 73 -215 177c0 97 87 157 173 179c-80 19 -162 71 -162 162c0 116 104 171 204 171c98 0 204 -55 204 -171c0 -91 -82 -143 -162 -162c86 -22 172 -82 172 -179c0 -103 -90 -177 -214 -177zM289 359c41 8 172 40 172 147c0 89 -79 141 -172 141
c-94 0 -172 -52 -172 -141c0 -107 132 -139 172 -147zM289 18c93 0 182 55 182 147c0 115 -142 160 -182 165c-41 -5 -183 -50 -183 -165c0 -92 88 -147 183 -147z" />
    <glyph glyph-name="nine.tonum" unicode="&#xf64c;" horiz-adv-x="577" 
d="M269 -127c-89 0 -138 37 -175 90l24 21c32 -46 73 -81 151 -81c157 0 206 171 206 324c0 12 0 24 -1 36c-27 -46 -107 -119 -203 -119c-120 0 -211 68 -211 210c0 102 75 208 215 208c173 0 232 -169 232 -345c0 -162 -59 -344 -238 -344zM272 174c80 0 158 55 198 130
c-9 99 -60 228 -195 228c-125 0 -183 -99 -183 -178c0 -121 75 -180 180 -180z" />
    <glyph glyph-name="colonmonetary.onum" unicode="&#xf64d;" horiz-adv-x="580" 
d="M254 -53l17 51c-24 5 -46 14 -67 25l-25 -76h-31l31 92c-73 50 -119 134 -119 237c0 169 127 286 288 286h6l13 37h30l-13 -39c24 -3 47 -9 69 -18l19 57h31l-24 -70c26 -14 50 -33 72 -57l-23 -20c-16 20 -36 36 -58 49l-162 -481c13 -2 26 -3 40 -3c71 0 142 31 180 81
l24 -20c-55 -60 -122 -90 -204 -90c-17 0 -33 2 -49 4l-15 -45h-30zM94 276c0 -87 37 -160 95 -206l156 463c-141 -2 -251 -106 -251 -257zM214 53c21 -12 43 -22 66 -28l164 489c-22 9 -46 15 -70 17z" />
    <glyph glyph-name="Euro.onum" unicode="&#xf64e;" horiz-adv-x="610" 
d="M420 324h-292c-3 -16 -4 -32 -4 -48c0 -18 1 -35 4 -51h292v-30h-284c32 -107 127 -178 242 -178c71 0 142 31 180 81l24 -20c-55 -60 -122 -90 -204 -90c-134 0 -244 81 -278 207h-61v30h55c-3 16 -4 33 -4 51c0 16 1 32 3 48h-54v30h61c32 126 143 208 278 208
c82 0 150 -31 203 -90l-23 -20c-41 52 -109 81 -180 81c-116 0 -212 -71 -243 -179h285v-30z" />
    <glyph glyph-name="florin.onum" unicode="&#xf64f;" horiz-adv-x="341" 
d="M62 -119h-32l77 345h-57v27h62l37 164c20 92 58 144 131 144c26 0 47 -5 71 -27l-23 -23c-11 14 -28 20 -48 20c-58 0 -83 -48 -98 -114l-37 -164h126v-27h-132z" />
    <glyph glyph-name="numbersign.onum" unicode="&#xf650;" horiz-adv-x="479" 
d="M453 387l-8 -28h-95l-55 -164h97l-9 -29h-98l-55 -166h-33l56 166h-103l-55 -166h-33l56 166h-92l9 29h93l55 164h-94l8 28h95l55 163h33l-56 -163h102l56 163h33l-56 -163h94zM316 359h-100l-56 -164h102z" />
    <glyph glyph-name="sterling.onum" unicode="&#xf651;" horiz-adv-x="404" 
d="M13 223v30h97c-33 41 -70 85 -70 154c0 84 69 154 171 154c59 0 121 -34 146 -84l-25 -15c-22 44 -66 72 -121 72c-74 0 -141 -49 -141 -127c0 -61 43 -107 77 -154h139v-30h-119c12 -22 21 -44 21 -68c0 -44 -24 -83 -63 -107c6 2 14 3 23 3c60 0 97 -33 144 -33
c34 0 71 15 85 33l20 -25c-20 -19 -60 -38 -107 -38c-73 0 -69 35 -142 35c-27 0 -64 -15 -98 -32l-14 32c86 36 122 83 122 132c0 25 -11 47 -25 68h-120z" />
    <glyph glyph-name="yen.onum" unicode="&#xf652;" horiz-adv-x="531" 
d="M284 0h-32v118h-230v30h230v89h-230v30h208l-213 283h41l210 -282l206 282h40l-209 -283h203v-30h-224v-89h224v-30h-224v-118z" />
    <glyph glyph-name="cent.onum" unicode="&#xf654;" horiz-adv-x="580" 
d="M332 -100v89c-154 7 -272 122 -272 287c0 163 118 278 272 285v54h30v-53c75 -4 139 -35 189 -90l-23 -20c-39 48 -100 77 -166 80v-515c66 4 130 34 166 81l24 -20c-52 -57 -115 -86 -190 -90v-88h-30zM94 276c0 -145 103 -251 238 -259v515
c-135 -7 -238 -110 -238 -256z" />
    <glyph glyph-name="zero.dnom" unicode="&#xf655;" 
d="M342 200c0 -94 -42 -207 -152 -207c-111 0 -152 113 -152 207c0 95 41 206 152 206c110 0 152 -111 152 -206zM310 200c0 85 -30 180 -120 180c-91 0 -121 -95 -121 -180s31 -181 121 -181s120 96 120 181z" />
    <glyph glyph-name="one.dnom" unicode="&#xf656;" horiz-adv-x="192" 
d="M132 0h-30v360l-63 -69l-19 20l85 89h27v-400z" />
    <glyph glyph-name="two.dnom" unicode="&#xf657;" 
d="M325 0h-271v24c136 99 240 186 240 269c0 63 -52 87 -100 87c-52 0 -93 -22 -114 -53l-20 18c27 38 78 61 135 61s128 -30 128 -112c0 -94 -105 -180 -225 -268h227v-26z" />
    <glyph glyph-name="three.dnom" unicode="&#xf658;" 
d="M326 107c0 -66 -51 -114 -138 -114c-67 0 -116 30 -138 66l20 17c23 -33 64 -57 118 -57c66 0 108 33 108 88c0 62 -54 87 -117 87c-17 0 -30 0 -36 -1v27c6 -1 18 -1 36 -1c58 0 111 23 111 81c0 51 -48 80 -103 80c-49 0 -82 -17 -113 -52l-19 18c28 33 73 60 133 60
c70 0 131 -38 131 -105c0 -65 -56 -89 -89 -94c35 -3 96 -32 96 -100z" />
    <glyph glyph-name="four.dnom" unicode="&#xf659;" 
d="M334 113h-62v-113h-29v113h-196v26l186 261h39v-261h62v-26zM243 139v232l-165 -232h165z" />
    <glyph glyph-name="five.dnom" unicode="&#xf65a;" 
d="M327 121c0 -80 -64 -128 -137 -128c-69 0 -111 26 -138 66l20 19c27 -38 63 -59 118 -59c62 0 108 43 108 101c0 63 -46 103 -108 103c-38 0 -72 -13 -103 -41l-23 11v207h236v-26h-206v-165c20 20 56 39 101 39c69 0 132 -43 132 -127z" />
    <glyph glyph-name="six.dnom" unicode="&#xf65b;" 
d="M334 119c0 -64 -51 -126 -138 -126c-110 0 -150 99 -150 207c0 101 42 206 155 206c55 0 86 -21 111 -51l-18 -21c-21 27 -46 46 -93 46c-93 0 -125 -93 -126 -180c0 -7 0 -16 1 -23c17 27 66 70 125 70c75 0 133 -42 133 -128zM304 119c0 68 -45 102 -108 102
c-46 0 -93 -30 -118 -72c6 -59 37 -130 118 -130c73 0 108 56 108 100z" />
    <glyph glyph-name="seven.dnom" unicode="&#xf65c;" horiz-adv-x="355" 
d="M307 380l-181 -380h-33l180 374h-235v26h269v-20z" />
    <glyph glyph-name="eight.dnom" unicode="&#xf65d;" 
d="M329 100c0 -64 -61 -107 -139 -107c-79 0 -139 42 -139 107c0 57 52 93 107 106c-51 12 -100 42 -100 96c0 72 68 104 132 104c63 0 132 -32 132 -104c0 -54 -48 -84 -99 -96c54 -13 106 -49 106 -106zM293 301c0 51 -47 79 -103 79s-103 -28 -103 -79
c0 -61 79 -78 103 -83c25 5 103 22 103 83zM299 101c0 66 -84 90 -109 93c-25 -3 -110 -27 -110 -93c0 -52 53 -83 110 -83c56 0 109 31 109 83z" />
    <glyph glyph-name="nine.dnom" unicode="&#xf65e;" 
d="M46 280c0 64 50 126 138 126c110 0 150 -99 150 -207c0 -101 -43 -206 -155 -206c-55 0 -86 21 -111 51l18 21c20 -27 46 -46 93 -46c92 0 124 93 125 181v22c-18 -27 -67 -70 -124 -70c-75 0 -134 42 -134 128zM75 280c0 -68 46 -102 108 -102c47 0 94 30 119 73
c-6 58 -37 129 -118 129c-73 0 -109 -56 -109 -100z" />
    <glyph glyph-name="zero.numr" unicode="&#xf661;" 
d="M342 467c0 -94 -42 -207 -152 -207c-111 0 -152 113 -152 207c0 95 41 206 152 206c110 0 152 -111 152 -206zM310 467c0 85 -30 180 -120 180c-91 0 -121 -95 -121 -180s31 -181 121 -181s120 96 120 181z" />
    <glyph glyph-name="one.numr" unicode="&#xf662;" horiz-adv-x="192" 
d="M132 267h-30v360l-63 -69l-19 20l85 89h27v-400z" />
    <glyph glyph-name="two.numr" unicode="&#xf663;" 
d="M325 267h-271v24c136 99 240 186 240 269c0 63 -52 87 -100 87c-52 0 -93 -22 -114 -53l-20 18c27 38 78 61 135 61s128 -30 128 -112c0 -94 -105 -180 -225 -268h227v-26z" />
    <glyph glyph-name="three.numr" unicode="&#xf664;" 
d="M326 374c0 -66 -51 -114 -138 -114c-67 0 -116 30 -138 66l20 17c23 -33 64 -57 118 -57c66 0 108 33 108 88c0 62 -54 87 -117 87c-17 0 -30 0 -36 -1v27c6 -1 18 -1 36 -1c58 0 111 23 111 81c0 51 -48 80 -103 80c-49 0 -82 -17 -113 -52l-19 18c28 33 73 60 133 60
c70 0 131 -38 131 -105c0 -65 -56 -89 -89 -94c35 -3 96 -32 96 -100z" />
    <glyph glyph-name="four.numr" unicode="&#xf665;" 
d="M334 380h-62v-113h-29v113h-196v26l186 261h39v-261h62v-26zM243 406v232l-165 -232h165z" />
    <glyph glyph-name="five.numr" unicode="&#xf666;" 
d="M327 388c0 -80 -64 -128 -137 -128c-69 0 -111 26 -138 66l20 19c27 -38 63 -59 118 -59c62 0 108 43 108 101c0 63 -46 103 -108 103c-38 0 -72 -13 -103 -41l-23 11v207h236v-26h-206v-165c20 20 56 39 101 39c69 0 132 -43 132 -127z" />
    <glyph glyph-name="six.numr" unicode="&#xf667;" 
d="M334 386c0 -64 -51 -126 -138 -126c-110 0 -150 99 -150 207c0 101 42 206 155 206c55 0 86 -21 111 -51l-18 -21c-21 27 -46 46 -93 46c-93 0 -125 -93 -126 -180c0 -7 0 -16 1 -23c17 27 66 70 125 70c75 0 133 -42 133 -128zM304 386c0 68 -45 102 -108 102
c-46 0 -93 -30 -118 -72c6 -59 37 -130 118 -130c73 0 108 56 108 100z" />
    <glyph glyph-name="seven.numr" unicode="&#xf668;" horiz-adv-x="355" 
d="M307 647l-181 -380h-33l180 374h-235v26h269v-20z" />
    <glyph glyph-name="eight.numr" unicode="&#xf669;" 
d="M329 367c0 -64 -61 -107 -139 -107c-79 0 -139 42 -139 107c0 57 52 93 107 106c-51 12 -100 42 -100 96c0 72 68 104 132 104c63 0 132 -32 132 -104c0 -54 -48 -84 -99 -96c54 -13 106 -49 106 -106zM293 568c0 51 -47 79 -103 79s-103 -28 -103 -79
c0 -61 79 -78 103 -83c25 5 103 22 103 83zM299 368c0 66 -84 90 -109 93c-25 -3 -110 -27 -110 -93c0 -52 53 -83 110 -83c56 0 109 31 109 83z" />
    <glyph glyph-name="nine.numr" unicode="&#xf66a;" 
d="M46 547c0 64 50 126 138 126c110 0 150 -99 150 -207c0 -101 -43 -206 -155 -206c-55 0 -86 21 -111 51l18 21c20 -27 46 -46 93 -46c92 0 124 93 125 181v22c-18 -27 -67 -70 -124 -70c-75 0 -134 42 -134 128zM75 547c0 -68 46 -102 108 -102c47 0 94 30 119 73
c-6 58 -37 129 -118 129c-73 0 -109 -56 -109 -100z" />
    <glyph glyph-name="Abreve.smcp" unicode="&#xf66d;" horiz-adv-x="551" 
d="M258 550h35l241 -550h-36l-64 146h-317l-63 -146h-37zM422 175l-146 337l-147 -337h293zM452 697c-40 -54 -103 -88 -175 -88c-71 0 -135 34 -176 88l21 19c35 -49 90 -80 155 -80s120 31 155 80z" />
    <glyph glyph-name="Amacron.smcp" unicode="&#xf66e;" horiz-adv-x="551" 
d="M258 550h35l241 -550h-36l-64 146h-317l-63 -146h-37zM422 175l-146 337l-147 -337h293zM458 631h-363v27h363v-27z" />
    <glyph glyph-name="Aogonek.smcp" unicode="&#xf66f;" horiz-adv-x="551" 
d="M258 550h35l241 -550c-48 -23 -82 -55 -82 -102c0 -37 19 -57 52 -57c31 0 48 16 58 47l25 -11c-11 -31 -35 -63 -83 -63c-43 0 -81 25 -81 84c0 43 30 84 71 110l-60 138h-317l-63 -146h-37zM422 175l-146 337l-147 -337h293z" />
    <glyph glyph-name="AEacute.smcp" unicode="&#xf670;" horiz-adv-x="801" 
d="M555 750l-175 -144h-30l160 144h45zM741 0h-355v146h-238l-94 -146h-37l359 550h365v-29h-323v-223h317v-29h-317v-240h323v-29zM386 175v337l-220 -337h220z" />
    <glyph glyph-name="Cacute.smcp" unicode="&#xf671;" horiz-adv-x="580" 
d="M348 -12c-161 0 -288 118 -288 288c0 169 127 286 288 286c82 0 150 -31 203 -90l-23 -20c-41 52 -109 81 -180 81c-142 0 -254 -105 -254 -257c0 -151 112 -259 254 -259c71 0 142 31 180 81l24 -20c-55 -60 -122 -90 -204 -90zM501 750l-175 -144h-30l160 144h45z" />
    <glyph glyph-name="Ccaron.smcp" unicode="&#xf672;" horiz-adv-x="580" 
d="M348 -12c-161 0 -288 118 -288 288c0 169 127 286 288 286c82 0 150 -31 203 -90l-23 -20c-41 52 -109 81 -180 81c-142 0 -254 -105 -254 -257c0 -151 112 -259 254 -259c71 0 142 31 180 81l24 -20c-55 -60 -122 -90 -204 -90zM370 606h-36l-101 144h28l91 -120l88 120
h28z" />
    <glyph glyph-name="Ccircumflex.smcp" unicode="&#xf673;" horiz-adv-x="580" 
d="M348 -12c-161 0 -288 118 -288 288c0 169 127 286 288 286c82 0 150 -31 203 -90l-23 -20c-41 52 -109 81 -180 81c-142 0 -254 -105 -254 -257c0 -151 112 -259 254 -259c71 0 142 31 180 81l24 -20c-55 -60 -122 -90 -204 -90zM468 606h-28l-91 120l-88 -120h-28
l98 144h36z" />
    <glyph glyph-name="Cdotaccent.smcp" unicode="&#xf674;" horiz-adv-x="580" 
d="M348 -12c-161 0 -288 118 -288 288c0 169 127 286 288 286c82 0 150 -31 203 -90l-23 -20c-41 52 -109 81 -180 81c-142 0 -254 -105 -254 -257c0 -151 112 -259 254 -259c71 0 142 31 180 81l24 -20c-55 -60 -122 -90 -204 -90zM351 641c-15 0 -29 13 -29 29
s14 29 29 29c16 0 29 -13 29 -29s-13 -29 -29 -29z" />
    <glyph glyph-name="Dcaron.smcp" unicode="&#xf675;" horiz-adv-x="606" 
d="M243 0h-172v550h172c179 0 288 -129 288 -276c0 -148 -109 -274 -288 -274zM243 29c161 0 253 108 253 245c0 136 -92 247 -253 247h-140v-492h140zM307 606h-36l-101 144h28l91 -120l88 120h28z" />
    <glyph glyph-name="Dcroat.smcp" unicode="&#xf676;" horiz-adv-x="618" 
d="M255 0h-172v268h-71v27h71v255h172c179 0 288 -129 288 -276c0 -148 -109 -274 -288 -274zM266 268h-151v-239h140c161 0 253 108 253 245c0 136 -92 247 -253 247h-140v-226h151v-27z" />
    <glyph glyph-name="Ebreve.smcp" unicode="&#xf677;" horiz-adv-x="500" 
d="M440 0h-354v550h354v-29h-322v-223h317v-29h-317v-240h322v-29zM436 697c-40 -54 -103 -88 -175 -88c-71 0 -135 34 -176 88l21 19c35 -49 90 -80 155 -80s120 31 155 80z" />
    <glyph glyph-name="Ecaron.smcp" unicode="&#xf678;" horiz-adv-x="500" 
d="M440 0h-354v550h354v-29h-322v-223h317v-29h-317v-240h322v-29zM284 606h-36l-101 144h28l91 -120l88 120h28z" />
    <glyph glyph-name="Edotaccent.smcp" unicode="&#xf679;" horiz-adv-x="500" 
d="M440 0h-354v550h354v-29h-322v-223h317v-29h-317v-240h322v-29zM268 641c-15 0 -29 13 -29 29s14 29 29 29c16 0 29 -13 29 -29s-13 -29 -29 -29z" />
    <glyph glyph-name="Emacron.smcp" unicode="&#xf67a;" horiz-adv-x="500" 
d="M440 0h-354v550h354v-29h-322v-223h317v-29h-317v-240h322v-29zM441 631h-363v27h363v-27z" />
    <glyph glyph-name="Eng.smcp" unicode="&#xf67b;" horiz-adv-x="618" 
d="M364 -196c-63 0 -110 25 -146 75l24 21c27 -37 65 -67 122 -67c84 0 136 55 136 134v35l-382 498v-500h-32v550h30l384 -495v495h32v-583c0 -110 -77 -163 -168 -163z" />
    <glyph glyph-name="Eogonek.smcp" unicode="&#xf67c;" horiz-adv-x="500" 
d="M468 -112l25 -11c-11 -31 -35 -63 -83 -63c-43 0 -81 25 -81 84c0 39 24 76 60 102h-303v550h354v-29h-322v-223h317v-29h-317v-240h322v-29c-48 -23 -82 -55 -82 -102c0 -37 19 -57 52 -57c31 0 48 16 58 47z" />
    <glyph glyph-name="Gbreve.smcp" unicode="&#xf67d;" horiz-adv-x="634" 
d="M348 -12c-161 0 -288 118 -288 287s127 287 288 287c87 0 156 -31 213 -87l-21 -23c-46 49 -116 81 -192 81c-142 0 -254 -106 -254 -258c0 -151 112 -259 254 -259c82 0 146 40 180 73v149h-203v29h235v-190c-50 -53 -126 -89 -212 -89zM524 697
c-40 -54 -103 -88 -175 -88c-71 0 -135 34 -176 88l21 19c35 -49 90 -80 155 -80s120 31 155 80z" />
    <glyph glyph-name="Gcircumflex.smcp" unicode="&#xf67e;" horiz-adv-x="634" 
d="M348 -12c-161 0 -288 118 -288 287s127 287 288 287c87 0 156 -31 213 -87l-21 -23c-46 49 -116 81 -192 81c-142 0 -254 -106 -254 -258c0 -151 112 -259 254 -259c82 0 146 40 180 73v149h-203v29h235v-190c-50 -53 -126 -89 -212 -89zM466 606h-28l-91 120l-88 -120
h-28l98 144h36z" />
    <glyph glyph-name="Gcommaaccent.smcp" unicode="&#xf67f;" horiz-adv-x="634" 
d="M348 -12c-161 0 -288 118 -288 287s127 287 288 287c87 0 156 -31 213 -87l-21 -23c-46 49 -116 81 -192 81c-142 0 -254 -106 -254 -258c0 -151 112 -259 254 -259c82 0 146 40 180 73v149h-203v29h235v-190c-50 -53 -126 -89 -212 -89zM390 -137
c0 -50 -30 -98 -62 -121l-22 18c32 24 53 62 53 92c0 0 -6 -1 -8 -1c-19 0 -32 15 -32 33c0 17 13 32 32 32c21 0 39 -19 39 -53z" />
    <glyph glyph-name="Gdotaccent.smcp" unicode="&#xf680;" horiz-adv-x="634" 
d="M348 -12c-161 0 -288 118 -288 287s127 287 288 287c87 0 156 -31 213 -87l-21 -23c-46 49 -116 81 -192 81c-142 0 -254 -106 -254 -258c0 -151 112 -259 254 -259c82 0 146 40 180 73v149h-203v29h235v-190c-50 -53 -126 -89 -212 -89zM351 641c-15 0 -29 13 -29 29
s14 29 29 29c16 0 29 -13 29 -29s-13 -29 -29 -29z" />
    <glyph glyph-name="Hcircumflex.smcp" unicode="&#xf681;" horiz-adv-x="622" 
d="M536 0h-31v269h-387v-269h-32v550h32v-252h387v252h31v-550zM426 606h-28l-91 120l-88 -120h-28l98 144h36z" />
    <glyph glyph-name="Hbar.smcp" unicode="&#xf682;" horiz-adv-x="645" 
d="M548 0h-31v269h-387v-269h-32v411h-86v27h86v112h32v-112h387v112h31v-112h85v-27h-85v-411zM130 298h387v113h-387v-113z" />
    <glyph glyph-name="Ibreve.smcp" unicode="&#xf683;" horiz-adv-x="204" 
d="M118 0h-32v550h32v-550zM273 697c-40 -54 -103 -88 -175 -88c-71 0 -135 34 -176 88l21 19c35 -49 90 -80 155 -80s120 31 155 80z" />
    <glyph glyph-name="IJ.smcp" unicode="&#xf684;" horiz-adv-x="616" 
d="M118 0h-32v550h32v-550zM362 -12c-63 0 -110 25 -146 75l24 21c27 -37 65 -67 122 -67c84 0 136 55 136 134v399h32v-399c0 -110 -77 -163 -168 -163z" />
    <glyph glyph-name="Imacron.smcp" unicode="&#xf685;" horiz-adv-x="204" 
d="M118 0h-32v550h32v-550zM285 631h-363v27h363v-27z" />
    <glyph glyph-name="Iogonek.smcp" unicode="&#xf686;" horiz-adv-x="204" 
d="M146 -112l25 -11c-11 -31 -35 -63 -83 -63c-43 0 -81 25 -81 84c0 45 33 88 79 114v538h32v-550c-48 -23 -82 -55 -82 -102c0 -37 19 -57 52 -57c31 0 48 16 58 47z" />
    <glyph glyph-name="Itilde.smcp" unicode="&#xf687;" horiz-adv-x="204" 
d="M118 0h-32v550h32v-550zM165 594c-77 0 -71 113 -128 113c-33 0 -59 -32 -59 -107h-26c0 72 31 134 88 134c77 0 71 -113 128 -113c33 0 59 32 59 107h26c0 -72 -31 -134 -88 -134z" />
    <glyph glyph-name="Jcircumflex.smcp" unicode="&#xf688;" horiz-adv-x="412" 
d="M158 -12c-63 0 -110 25 -146 75l24 21c27 -37 65 -67 122 -67c84 0 136 55 136 134v399h32v-399c0 -110 -77 -163 -168 -163zM427 606h-28l-91 120l-88 -120h-28l98 144h36z" />
    <glyph glyph-name="Kcommaaccent.smcp" unicode="&#xf689;" horiz-adv-x="507" 
d="M482 0h-43l-255 268l-66 -70v-198h-32v550h32v-312l295 312h43l-252 -263zM297 -137c0 -50 -30 -98 -62 -121l-22 18c32 24 53 62 53 92c0 0 -6 -1 -8 -1c-19 0 -32 15 -32 33c0 17 13 32 32 32c21 0 39 -19 39 -53z" />
    <glyph glyph-name="Lacute.smcp" unicode="&#xf68a;" horiz-adv-x="449" 
d="M406 0h-320v550h32v-521h288v-29zM403 750l-175 -144h-30l160 144h45z" />
    <glyph glyph-name="Lcaron.smcp" unicode="&#xf68b;" horiz-adv-x="449" 
d="M406 0h-320v550h32v-521h288v-29zM285 507c0 -50 -30 -98 -62 -121l-22 18c32 24 53 62 53 92c0 0 -6 -1 -8 -1c-19 0 -32 15 -32 33c0 17 13 32 32 32c21 0 39 -19 39 -53z" />
    <glyph glyph-name="Lcommaaccent.smcp" unicode="&#xf68c;" horiz-adv-x="449" 
d="M406 0h-320v550h32v-521h288v-29zM283 -137c0 -50 -30 -98 -62 -121l-22 18c32 24 53 62 53 92c0 0 -6 -1 -8 -1c-19 0 -32 15 -32 33c0 17 13 32 32 32c21 0 39 -19 39 -53z" />
    <glyph glyph-name="Ldot.smcp" unicode="&#xf68d;" horiz-adv-x="449" 
d="M406 0h-320v550h32v-521h288v-29zM364 285c0 -18 -15 -33 -33 -33s-33 15 -33 33c0 17 15 32 33 32s33 -15 33 -32z" />
    <glyph glyph-name="Nacute.smcp" unicode="&#xf68e;" horiz-adv-x="618" 
d="M532 0h-30l-384 500v-500h-32v550h30l384 -495v495h32v-550zM460 750l-175 -144h-30l160 144h45z" />
    <glyph glyph-name="Ncaron.smcp" unicode="&#xf68f;" horiz-adv-x="618" 
d="M532 0h-30l-384 500v-500h-32v550h30l384 -495v495h32v-550zM329 606h-36l-101 144h28l91 -120l88 120h28z" />
    <glyph glyph-name="Ncommaaccent.smcp" unicode="&#xf690;" horiz-adv-x="618" 
d="M532 0h-30l-384 500v-500h-32v550h30l384 -495v495h32v-550zM343 -137c0 -50 -30 -98 -62 -121l-22 18c32 24 53 62 53 92c0 0 -6 -1 -8 -1c-19 0 -32 15 -32 33c0 17 13 32 32 32c21 0 39 -19 39 -53z" />
    <glyph glyph-name="Obreve.smcp" unicode="&#xf691;" horiz-adv-x="669" 
d="M335 -12c-169 0 -275 128 -275 287s106 287 275 287c167 0 274 -128 274 -287s-107 -287 -274 -287zM335 17c145 0 240 111 240 258c0 149 -95 258 -240 258c-148 0 -241 -109 -241 -258c0 -147 93 -258 241 -258zM512 697c-40 -54 -103 -88 -175 -88
c-71 0 -135 34 -176 88l21 19c35 -49 90 -80 155 -80s120 31 155 80z" />
    <glyph glyph-name="Ohungarumlaut.smcp" unicode="&#xf692;" horiz-adv-x="669" 
d="M335 -12c-169 0 -275 128 -275 287s106 287 275 287c167 0 274 -128 274 -287s-107 -287 -274 -287zM335 17c145 0 240 111 240 258c0 149 -95 258 -240 258c-148 0 -241 -109 -241 -258c0 -147 93 -258 241 -258zM380 750l-115 -144h-26l100 144h41zM516 750l-115 -144
h-26l100 144h41z" />
    <glyph glyph-name="Omacron.smcp" unicode="&#xf693;" horiz-adv-x="669" 
d="M335 -12c-169 0 -275 128 -275 287s106 287 275 287c167 0 274 -128 274 -287s-107 -287 -274 -287zM335 17c145 0 240 111 240 258c0 149 -95 258 -240 258c-148 0 -241 -109 -241 -258c0 -147 93 -258 241 -258zM516 641h-363v27h363v-27z" />
    <glyph glyph-name="Oslashacute.smcp" unicode="&#xf694;" horiz-adv-x="669" 
d="M335 -12c-60 0 -112 16 -154 44l-22 -32h-36l34 49c-62 53 -97 134 -97 226c0 159 106 287 275 287c57 0 108 -15 149 -42l21 30h36l-33 -47c64 -53 101 -135 101 -228c0 -159 -107 -287 -274 -287zM335 17c145 0 240 111 240 258c0 85 -31 157 -84 203l-293 -421
c37 -26 83 -40 137 -40zM94 275c0 -83 29 -154 81 -200l292 421c-36 24 -81 37 -132 37c-148 0 -241 -109 -241 -258zM489 750l-175 -144h-30l160 144h45z" />
    <glyph glyph-name="Racute.smcp" unicode="&#xf695;" horiz-adv-x="521" 
d="M467 0h-42l-173 235h-134v-235h-32v550h200c110 0 171 -67 171 -157c0 -91 -61 -157 -167 -158zM286 264c92 0 137 54 137 129s-48 128 -137 128h-168v-257h168zM405 750l-175 -144h-30l160 144h45z" />
    <glyph glyph-name="Rcaron.smcp" unicode="&#xf696;" horiz-adv-x="521" 
d="M467 0h-42l-173 235h-134v-235h-32v550h200c110 0 171 -67 171 -157c0 -91 -61 -157 -167 -158zM286 264c92 0 137 54 137 129s-48 128 -137 128h-168v-257h168zM272 606h-36l-101 144h28l91 -120l88 120h28z" />
    <glyph glyph-name="Rcommaaccent.smcp" unicode="&#xf697;" horiz-adv-x="521" 
d="M467 0h-42l-173 235h-134v-235h-32v550h200c110 0 171 -67 171 -157c0 -91 -61 -157 -167 -158zM286 264c92 0 137 54 137 129s-48 128 -137 128h-168v-257h168zM298 -137c0 -50 -30 -98 -62 -121l-22 18c32 24 53 62 53 92c0 0 -6 -1 -8 -1c-19 0 -32 15 -32 33
c0 17 13 32 32 32c21 0 39 -19 39 -53z" />
    <glyph glyph-name="Sacute.smcp" unicode="&#xf698;" horiz-adv-x="494" 
d="M248 -12c-90 0 -161 37 -203 89l26 21c35 -41 96 -81 177 -81c121 0 165 62 165 125c0 181 -351 84 -351 276c0 90 85 144 181 144c85 0 147 -31 189 -79l-23 -21c-41 51 -100 71 -166 71c-82 0 -147 -49 -147 -115c0 -153 351 -69 351 -276c0 -81 -57 -154 -199 -154z
M400 750l-175 -144h-30l160 144h45z" />
    <glyph glyph-name="Scedilla.smcp" unicode="&#xf699;" horiz-adv-x="494" 
d="M245 -187c-38 0 -74 13 -93 28l14 27c24 -21 52 -28 79 -28c37 0 69 18 69 49c0 26 -14 43 -44 43c-16 0 -33 -7 -43 -19l-22 13l23 63c-81 5 -144 40 -183 88l26 21c35 -41 96 -81 177 -81c121 0 165 62 165 125c0 181 -351 84 -351 276c0 90 85 144 181 144
c85 0 147 -31 189 -79l-23 -21c-41 51 -100 71 -166 71c-82 0 -147 -49 -147 -115c0 -153 351 -69 351 -276c0 -79 -55 -151 -190 -154l-17 -46c10 8 25 12 38 12c39 0 65 -25 65 -65c0 -45 -43 -76 -98 -76z" />
    <glyph glyph-name="Scircumflex.smcp" unicode="&#xf69a;" horiz-adv-x="494" 
d="M248 -12c-90 0 -161 37 -203 89l26 21c35 -41 96 -81 177 -81c121 0 165 62 165 125c0 181 -351 84 -351 276c0 90 85 144 181 144c85 0 147 -31 189 -79l-23 -21c-41 51 -100 71 -166 71c-82 0 -147 -49 -147 -115c0 -153 351 -69 351 -276c0 -81 -57 -154 -199 -154z
M365 606h-28l-91 120l-88 -120h-28l98 144h36z" />
    <glyph glyph-name="Scommaaccent.smcp" unicode="&#xf69b;" horiz-adv-x="494" 
d="M248 -12c-90 0 -161 37 -203 89l26 21c35 -41 96 -81 177 -81c121 0 165 62 165 125c0 181 -351 84 -351 276c0 90 85 144 181 144c85 0 147 -31 189 -79l-23 -21c-41 51 -100 71 -166 71c-82 0 -147 -49 -147 -115c0 -153 351 -69 351 -276c0 -81 -57 -154 -199 -154z
M290 -137c0 -50 -30 -98 -62 -121l-22 18c32 24 53 62 53 92c0 0 -6 -1 -8 -1c-19 0 -32 15 -32 33c0 17 13 32 32 32c21 0 39 -19 39 -53z" />
    <glyph glyph-name="Tbar.smcp" unicode="&#xf69c;" horiz-adv-x="459" 
d="M245 0h-32v271h-128v27h128v223h-182v29h397v-29h-183v-223h130v-27h-130v-271z" />
    <glyph glyph-name="Tcaron.smcp" unicode="&#xf69d;" horiz-adv-x="459" 
d="M245 0h-32v521h-182v29h397v-29h-183v-521zM249 606h-36l-101 144h28l91 -120l88 120h28z" />
    <glyph glyph-name="Tcommaaccent.smcp" unicode="&#xf69e;" horiz-adv-x="459" 
d="M245 0h-32v521h-182v29h397v-29h-183v-521zM268 -137c0 -50 -30 -98 -62 -121l-22 18c32 24 53 62 53 92c0 0 -6 -1 -8 -1c-19 0 -32 15 -32 33c0 17 13 32 32 32c21 0 39 -19 39 -53z" />
    <glyph glyph-name="Ubreve.smcp" unicode="&#xf69f;" horiz-adv-x="603" 
d="M301 -12c-141 0 -215 84 -215 219v343h32v-343c0 -119 64 -190 183 -190s184 71 184 190v343h32v-343c0 -136 -75 -219 -216 -219zM475 697c-40 -54 -103 -88 -175 -88c-71 0 -135 34 -176 88l21 19c35 -49 90 -80 155 -80s120 31 155 80z" />
    <glyph glyph-name="Uhungarumlaut.smcp" unicode="&#xf6a0;" horiz-adv-x="603" 
d="M301 -12c-141 0 -215 84 -215 219v343h32v-343c0 -119 64 -190 183 -190s184 71 184 190v343h32v-343c0 -136 -75 -219 -216 -219zM344 750l-115 -144h-26l100 144h41zM480 750l-115 -144h-26l100 144h41z" />
    <glyph glyph-name="Umacron.smcp" unicode="&#xf6a1;" horiz-adv-x="603" 
d="M301 -12c-141 0 -215 84 -215 219v343h32v-343c0 -119 64 -190 183 -190s184 71 184 190v343h32v-343c0 -136 -75 -219 -216 -219zM485 631h-363v27h363v-27z" />
    <glyph glyph-name="Uogonek.smcp" unicode="&#xf6a2;" horiz-adv-x="603" 
d="M413 -112l25 -11c-11 -31 -35 -63 -83 -63c-43 0 -81 25 -81 84c0 33 18 66 46 91c-6 -1 -13 -1 -19 -1c-141 0 -215 84 -215 219v343h32v-343c0 -119 64 -190 183 -190s184 71 184 190v343h32v-343c0 -106 -46 -180 -132 -207c-48 -23 -82 -55 -82 -102
c0 -37 19 -57 52 -57c31 0 48 16 58 47z" />
    <glyph glyph-name="Uring.smcp" unicode="&#xf6a3;" horiz-adv-x="603" 
d="M301 -12c-141 0 -215 84 -215 219v343h32v-343c0 -119 64 -190 183 -190s184 71 184 190v343h32v-343c0 -136 -75 -219 -216 -219zM304 610c-51 0 -93 42 -93 93s42 93 93 93s92 -42 92 -93s-41 -93 -92 -93zM304 634c38 0 68 31 68 69s-30 69 -68 69s-69 -31 -69 -69
s31 -69 69 -69z" />
    <glyph glyph-name="Utilde.smcp" unicode="&#xf6a4;" horiz-adv-x="603" 
d="M301 -12c-141 0 -215 84 -215 219v343h32v-343c0 -119 64 -190 183 -190s184 71 184 190v343h32v-343c0 -136 -75 -219 -216 -219zM364 604c-77 0 -71 113 -128 113c-33 0 -59 -32 -59 -107h-26c0 72 31 134 88 134c77 0 71 -113 128 -113c33 0 59 32 59 107h26
c0 -72 -31 -134 -88 -134z" />
    <glyph glyph-name="Wcircumflex.smcp" unicode="&#xf6a6;" horiz-adv-x="735" 
d="M485 606h-28l-91 120l-88 -120h-28l98 144h36zM550 0h-34l-149 494l-148 -494h-35l-164 550h34l147 -500l150 500h33l149 -501l148 501h34z" />
    <glyph glyph-name="Ycircumflex.smcp" unicode="&#xf6a9;" horiz-adv-x="531" 
d="M284 0h-32v238l-235 312h41l210 -282l206 282h40l-230 -312v-238zM386 606h-28l-91 120l-88 -120h-28l98 144h36z" />
    <glyph glyph-name="Zacute.smcp" unicode="&#xf6ab;" horiz-adv-x="510" 
d="M467 0h-424v27l379 494h-379v29h417v-28l-379 -493h386v-29zM408 750l-175 -144h-30l160 144h45z" />
    <glyph glyph-name="Zdotaccent.smcp" unicode="&#xf6ac;" horiz-adv-x="510" 
d="M467 0h-424v27l379 494h-379v29h417v-28l-379 -493h386v-29zM259 641c-15 0 -29 13 -29 29s14 29 29 29c16 0 29 -13 29 -29s-13 -29 -29 -29z" />
    <glyph glyph-name="Idotaccent.smcp" unicode="&#xf6ad;" horiz-adv-x="174" 
d="M103 0h-32v550h32v-550zM86 641c-15 0 -29 13 -29 29s14 29 29 29c16 0 29 -13 29 -29s-13 -29 -29 -29z" />
    <glyph glyph-name="parenleft.case" unicode="&#xf6ae;" horiz-adv-x="206" 
d="M189 -97l-16 -12c-83 136 -126 281 -126 442s43 306 126 442l16 -11c-62 -131 -107 -250 -107 -431c0 -180 45 -300 107 -430z" />
    <glyph glyph-name="parenright.case" unicode="&#xf6af;" horiz-adv-x="206" 
d="M17 -97l16 -12c83 136 126 281 126 442s-43 306 -126 442l-16 -11c62 -131 107 -250 107 -431c0 -180 -45 -300 -107 -430z" />
    <glyph glyph-name="bracketleft.case" unicode="&#xf6b0;" horiz-adv-x="212" 
d="M195 -100h-161v868h161v-30h-131v-808h131v-30z" />
    <glyph glyph-name="bracketright.case" unicode="&#xf6b1;" horiz-adv-x="212" 
d="M178 -100h-161v30h131v808h-131v30h161v-868z" />
    <glyph glyph-name="braceleft.case" unicode="&#xf6b2;" horiz-adv-x="237" 
d="M220 -100h-62c-49 0 -99 45 -99 113v234c0 37 -17 72 -52 72v30c35 0 52 35 52 72v234c0 68 50 113 99 113h62v-30h-62c-37 0 -69 -35 -69 -83v-234c0 -42 -12 -73 -45 -87c33 -14 45 -45 45 -87v-234c0 -47 32 -83 69 -83h62v-30z" />
    <glyph glyph-name="braceright.case" unicode="&#xf6b3;" horiz-adv-x="237" 
d="M17 -100v30h62c37 0 69 36 69 83v234c0 42 12 73 45 87c-33 14 -45 45 -45 87v234c0 48 -32 83 -69 83h-62v30h62c49 0 99 -45 99 -113v-234c0 -37 17 -72 52 -72v-30c-35 0 -52 -35 -52 -72v-234c0 -68 -50 -113 -99 -113h-62z" />
    <glyph glyph-name="exclamdown.case" unicode="&#xf6b4;" horiz-adv-x="208" 
d="M83 0l11 506h20l11 -506h-42zM71 643c0 18 15 33 33 33s33 -15 33 -33c0 -17 -15 -32 -33 -32s-33 15 -33 32z" />
    <glyph glyph-name="questiondown.case" unicode="&#xf6b5;" horiz-adv-x="467" 
d="M242 496c32 -24 44 -50 44 -76c0 -135 -210 -141 -210 -280c0 -66 53 -123 151 -123c97 0 149 39 191 98l23 -21c-44 -63 -112 -107 -214 -107c-117 0 -186 72 -186 153c0 155 215 169 215 280c0 15 -11 38 -33 53zM245 676c18 0 33 -15 33 -33c0 -17 -15 -32 -33 -32
s-33 15 -33 32c0 18 15 33 33 33z" />
    <glyph glyph-name="guillemotleft.case" unicode="&#xf6b6;" horiz-adv-x="364" 
d="M334 162h-39l-160 180l160 177h39l-160 -177zM229 162h-39l-160 180l160 177h39l-160 -177z" />
    <glyph glyph-name="guillemotright.case" unicode="&#xf6b7;" horiz-adv-x="364" 
d="M229 342l-160 -180h-39l160 180l-160 177h39zM334 342l-160 -180h-39l160 180l-160 177h39z" />
    <glyph glyph-name="guilsinglleft.case" unicode="&#xf6b8;" horiz-adv-x="259" 
d="M229 162h-39l-160 180l160 177h39l-160 -177z" />
    <glyph glyph-name="guilsinglright.case" unicode="&#xf6b9;" horiz-adv-x="259" 
d="M229 342l-160 -180h-39l160 180l-160 177h39z" />
    <glyph glyph-name="hyphen.case" unicode="&#xf6ba;" horiz-adv-x="300" 
d="M270 326h-240v30h240v-30z" />
    <glyph glyph-name="endash.case" unicode="&#xf6bb;" horiz-adv-x="593" 
d="M563 326h-533v30h533v-30z" />
    <glyph glyph-name="emdash.case" unicode="&#xf6bc;" horiz-adv-x="833" 
d="M803 326h-773v30h773v-30z" />
    <glyph glyph-name="periodcentered.case" unicode="&#xf6bd;" horiz-adv-x="208" 
d="M137 343c0 -18 -15 -33 -33 -33s-33 15 -33 33c0 17 15 32 33 32s33 -15 33 -32z" />
    <glyph glyph-name="bullet.case" unicode="&#xf6be;" horiz-adv-x="358" 
d="M278 341c0 -53 -44 -97 -98 -97s-98 44 -98 97c0 54 44 98 98 98s98 -44 98 -98z" />
    <glyph glyph-name="cent.case" unicode="&#xf6bf;" horiz-adv-x="493" 
d="M262 -9v90c-125 13 -202 122 -202 252s77 238 202 251v72h30v-70c76 -1 120 -31 161 -81l-22 -18c-39 52 -84 71 -139 72v-453c55 0 100 20 139 73l22 -19c-41 -50 -85 -80 -161 -81v-88h-30zM93 333c0 -116 62 -212 169 -226v450c-107 -14 -169 -108 -169 -224z" />
    <glyph glyph-name="commaaccent" unicode="&#xf6c3;" horiz-adv-x="208" 
d="M142 -137c0 -50 -30 -98 -62 -121l-22 18c32 24 53 62 53 92c0 0 -6 -1 -8 -1c-19 0 -32 15 -32 33c0 17 13 32 32 32c21 0 39 -19 39 -53z" />
    <glyph glyph-name="one.tnum" unicode="&#xf6dc;" horiz-adv-x="577" 
d="M348 0h-32v621l-105 -115l-22 23l129 138h30v-667z" />
    <glyph glyph-name="Lslash.smcp" unicode="&#xf6f9;" horiz-adv-x="483" 
d="M12 198v34l108 63v255h32v-237l106 62v-34l-106 -62v-250h288v-29h-320v261z" />
    <glyph glyph-name="OE.smcp" unicode="&#xf6fa;" horiz-adv-x="974" 
d="M914 0h-355v126c-45 -92 -125 -138 -224 -138c-169 0 -275 128 -275 287s106 287 275 287c99 0 179 -46 224 -137v125h355v-29h-323v-223h317v-29h-317v-240h323v-29zM559 189v174c-36 122 -131 170 -224 170c-148 0 -241 -109 -241 -258c0 -147 93 -258 241 -258
c98 0 188 50 224 172z" />
    <glyph glyph-name="Scaron.smcp" unicode="&#xf6fd;" horiz-adv-x="494" 
d="M248 -12c-90 0 -161 37 -203 89l26 21c35 -41 96 -81 177 -81c121 0 165 62 165 125c0 181 -351 84 -351 276c0 90 85 144 181 144c85 0 147 -31 189 -79l-23 -21c-41 51 -100 71 -166 71c-82 0 -147 -49 -147 -115c0 -153 351 -69 351 -276c0 -81 -57 -154 -199 -154z
M267 606h-36l-101 144h28l91 -120l88 120h28z" />
    <glyph glyph-name="Zcaron.smcp" unicode="&#xf6ff;" horiz-adv-x="510" 
d="M467 0h-424v27l379 494h-379v29h417v-28l-379 -493h386v-29zM271 606h-36l-101 144h28l91 -120l88 120h28z" />
    <glyph glyph-name="exclam.smcp" unicode="&#xf721;" horiz-adv-x="167" 
d="M104 550l-11 -418h-20l-11 418h42zM116 24c0 -18 -15 -33 -33 -33s-33 15 -33 33c0 17 15 32 33 32s33 -15 33 -32z" />
    <glyph glyph-name="dollar.onum" unicode="&#xf724;" horiz-adv-x="494" 
d="M233 -74v63c-83 4 -149 39 -188 88l26 21c33 -39 88 -76 162 -81v260c-86 22 -171 46 -171 141c0 87 79 140 171 144v66h30v-67c75 -4 130 -34 169 -78l-23 -21c-37 46 -88 66 -146 70v-229c90 -25 184 -54 184 -161c0 -78 -53 -149 -184 -154v-62h-30zM413 142
c0 81 -72 106 -150 127v-252c109 5 150 64 150 125zM96 418c0 -65 64 -87 137 -107v221c-77 -4 -137 -51 -137 -114z" />
    <glyph glyph-name="ampersand.smcp" unicode="&#xf726;" horiz-adv-x="547" 
d="M514 0h-49c-27 23 -57 49 -86 76c-45 -54 -101 -88 -174 -88c-100 0 -172 59 -172 152c0 88 62 132 129 168c-32 45 -49 86 -49 127c0 74 60 127 131 127c63 0 116 -32 116 -104c0 -83 -77 -120 -153 -159c24 -31 53 -61 82 -90c30 -32 58 -60 86 -87c30 43 52 94 67 141
l31 -11c-21 -57 -45 -108 -75 -151c34 -31 71 -63 116 -101zM205 16c61 0 112 34 151 82c-35 33 -67 65 -89 88c-34 36 -64 68 -87 98c-62 -33 -115 -72 -115 -144c0 -71 57 -124 140 -124zM144 435c0 -34 18 -73 46 -113c71 36 138 67 138 136c0 50 -34 76 -84 76
c-58 0 -100 -44 -100 -99z" />
    <glyph glyph-name="zero.onum" unicode="&#xf730;" horiz-adv-x="605" 
d="M540 275c0 -137 -69 -287 -237 -287c-169 0 -238 150 -238 287c0 138 69 287 238 287c168 0 237 -149 237 -287zM505 275c0 124 -54 257 -202 257s-203 -133 -203 -257s55 -257 203 -257c147 0 202 133 202 257z" />
    <glyph glyph-name="one.onum" unicode="&#xf731;" horiz-adv-x="277" 
d="M189 0h-32v504l-105 -115l-22 23l129 138h30v-550z" />
    <glyph glyph-name="two.onum" unicode="&#xf732;" horiz-adv-x="574" 
d="M467 0h-399v29c243 114 377 234 377 355c0 87 -75 148 -166 148c-85 0 -160 -37 -194 -90l-26 19c41 61 127 101 221 101c103 0 197 -68 197 -178c0 -135 -145 -265 -344 -354h334v-30z" />
    <glyph glyph-name="three.onum" unicode="&#xf733;" horiz-adv-x="531" 
d="M252 -129c-105 0 -181 52 -216 112l28 16c34 -55 97 -98 188 -98c110 0 181 60 181 159c0 109 -91 153 -193 153c-27 0 -46 0 -56 -1v32c10 -1 28 -1 56 -1c93 0 183 42 183 143c0 92 -80 144 -171 144c-80 0 -132 -31 -182 -90l-25 20c44 56 115 100 207 100
c104 0 203 -61 203 -174c0 -108 -90 -149 -142 -158c55 -5 152 -54 152 -168c0 -108 -77 -189 -213 -189z" />
    <glyph glyph-name="four.onum" unicode="&#xf734;" horiz-adv-x="524" 
d="M486 78h-101v-195h-32v195h-315v33l305 439h42v-442h101v-30zM353 108v406l-280 -406h280z" />
    <glyph glyph-name="five.onum" unicode="&#xf735;" horiz-adv-x="574" 
d="M297 -129c-110 0 -173 44 -216 112l26 19c43 -65 99 -101 190 -101c102 0 180 77 180 180c0 113 -78 182 -180 182c-62 0 -117 -21 -168 -69l-27 16v340h364v-30h-332v-291c33 32 91 64 163 64c111 0 212 -72 212 -212c0 -130 -101 -210 -212 -210z" />
    <glyph glyph-name="six.onum" unicode="&#xf736;" horiz-adv-x="577" 
d="M297 -12c-173 0 -232 169 -232 345c0 162 59 344 238 344c89 0 138 -37 175 -90l-24 -21c-32 46 -73 81 -151 81c-157 0 -206 -171 -206 -324c0 -12 0 -24 1 -36c27 46 107 119 203 119c120 0 211 -68 211 -210c0 -102 -75 -208 -215 -208zM297 18c125 0 183 99 183 178
c0 121 -75 180 -180 180c-80 0 -158 -55 -198 -130c9 -99 60 -228 195 -228z" />
    <glyph glyph-name="seven.onum" unicode="&#xf737;" horiz-adv-x="489" 
d="M158 -117h-36l293 637h-379v30h417v-22z" />
    <glyph glyph-name="eight.onum" unicode="&#xf738;" horiz-adv-x="561" 
d="M281 -12c-126 0 -215 73 -215 177c0 97 87 157 173 179c-80 19 -162 71 -162 162c0 116 104 171 204 171c98 0 204 -55 204 -171c0 -91 -82 -143 -162 -162c86 -22 172 -82 172 -179c0 -103 -90 -177 -214 -177zM281 359c41 8 172 40 172 147c0 89 -79 141 -172 141
c-94 0 -172 -52 -172 -141c0 -107 132 -139 172 -147zM281 18c93 0 182 55 182 147c0 115 -142 160 -182 165c-41 -5 -183 -50 -183 -165c0 -92 88 -147 183 -147z" />
    <glyph glyph-name="nine.onum" unicode="&#xf739;" horiz-adv-x="577" 
d="M274 -128c-89 0 -138 37 -175 90l24 21c32 -46 73 -81 151 -81c157 0 206 171 206 324c0 12 0 24 -1 36c-27 -46 -107 -119 -203 -119c-120 0 -211 68 -211 210c0 102 75 208 215 208c173 0 232 -169 232 -345c0 -162 -59 -344 -238 -344zM277 173c80 0 158 55 198 130
c-9 99 -60 228 -195 228c-125 0 -183 -99 -183 -178c0 -121 75 -180 180 -180z" />
    <glyph glyph-name="question.smcp" unicode="&#xf73f;" horiz-adv-x="397" 
d="M366 432c0 -129 -188 -141 -188 -229c0 -12 6 -29 33 -46l-21 -21c-31 22 -42 44 -42 67c0 111 187 120 187 229c0 58 -51 101 -133 101s-129 -34 -166 -83l-22 19c39 54 100 92 188 92c103 0 164 -60 164 -129zM220 24c0 -18 -15 -33 -33 -33s-33 15 -33 33
c0 17 15 32 33 32s33 -15 33 -32z" />
    <glyph glyph-name="A.smcp" unicode="&#xf761;" horiz-adv-x="551" 
d="M258 550h35l241 -550h-36l-64 146h-317l-63 -146h-37zM422 175l-146 337l-147 -337h293z" />
    <glyph glyph-name="B.smcp" unicode="&#xf762;" horiz-adv-x="527" 
d="M307 0h-221v550h218c93 0 158 -50 158 -141c0 -66 -46 -112 -94 -125c58 -15 106 -74 106 -135c0 -94 -65 -149 -167 -149zM307 29c83 0 132 46 132 119c0 62 -44 121 -132 121h-189v-240h189zM304 298c82 0 124 49 124 111c0 67 -44 112 -124 112h-186v-223h186z" />
    <glyph glyph-name="C.smcp" unicode="&#xf763;" horiz-adv-x="580" 
d="M348 -12c-161 0 -288 118 -288 288c0 169 127 286 288 286c82 0 150 -31 203 -90l-23 -20c-41 52 -109 81 -180 81c-142 0 -254 -105 -254 -257c0 -151 112 -259 254 -259c71 0 142 31 180 81l24 -20c-55 -60 -122 -90 -204 -90z" />
    <glyph glyph-name="D.smcp" unicode="&#xf764;" horiz-adv-x="606" 
d="M258 0h-172v550h172c179 0 288 -129 288 -276c0 -148 -109 -274 -288 -274zM258 29c161 0 253 108 253 245c0 136 -92 247 -253 247h-140v-492h140z" />
    <glyph glyph-name="E.smcp" unicode="&#xf765;" horiz-adv-x="500" 
d="M440 0h-354v550h354v-29h-322v-223h317v-29h-317v-240h322v-29z" />
    <glyph glyph-name="F.smcp" unicode="&#xf766;" horiz-adv-x="476" 
d="M118 0h-32v550h354v-29h-322v-223h317v-29h-317v-269z" />
    <glyph glyph-name="G.smcp" unicode="&#xf767;" horiz-adv-x="634" 
d="M348 -12c-161 0 -288 118 -288 287s127 287 288 287c87 0 156 -31 213 -87l-21 -23c-46 49 -116 81 -192 81c-142 0 -254 -106 -254 -258c0 -151 112 -259 254 -259c82 0 146 40 180 73v149h-203v29h235v-190c-50 -53 -126 -89 -212 -89z" />
    <glyph glyph-name="H.smcp" unicode="&#xf768;" horiz-adv-x="622" 
d="M536 0h-31v269h-387v-269h-32v550h32v-252h387v252h31v-550z" />
    <glyph glyph-name="I.smcp" unicode="&#xf769;" horiz-adv-x="204" 
d="M118 0h-32v550h32v-550z" />
    <glyph glyph-name="J.smcp" unicode="&#xf76a;" horiz-adv-x="412" 
d="M158 -12c-63 0 -110 25 -146 75l24 21c27 -37 65 -67 122 -67c84 0 136 55 136 134v399h32v-399c0 -110 -77 -163 -168 -163z" />
    <glyph glyph-name="K.smcp" unicode="&#xf76b;" horiz-adv-x="507" 
d="M482 0h-43l-255 268l-66 -70v-198h-32v550h32v-312l295 312h43l-252 -263z" />
    <glyph glyph-name="L.smcp" unicode="&#xf76c;" horiz-adv-x="449" 
d="M406 0h-320v550h32v-521h288v-29z" />
    <glyph glyph-name="M.smcp" unicode="&#xf76d;" horiz-adv-x="687" 
d="M601 0h-32v506l-220 -506h-11l-220 506v-506h-32v550h47l210 -485l210 485h48v-550z" />
    <glyph glyph-name="N.smcp" unicode="&#xf76e;" horiz-adv-x="618" 
d="M532 0h-30l-384 500v-500h-32v550h30l384 -495v495h32v-550z" />
    <glyph glyph-name="O.smcp" unicode="&#xf76f;" horiz-adv-x="669" 
d="M335 -12c-169 0 -275 128 -275 287s106 287 275 287c167 0 274 -128 274 -287s-107 -287 -274 -287zM335 17c145 0 240 111 240 258c0 149 -95 258 -240 258c-148 0 -241 -109 -241 -258c0 -147 93 -258 241 -258z" />
    <glyph glyph-name="P.smcp" unicode="&#xf770;" horiz-adv-x="496" 
d="M118 0h-32v550h200c115 0 170 -73 170 -157c0 -85 -56 -158 -170 -158h-168v-235zM286 264c92 0 136 55 136 129s-46 128 -136 128h-168v-257h168z" />
    <glyph glyph-name="Q.smcp" unicode="&#xf771;" horiz-adv-x="669" 
d="M335 -12c-169 0 -275 128 -275 287s106 287 275 287c167 0 274 -128 274 -287c0 -85 -31 -162 -85 -214l60 -64l-22 -22l-63 65c-44 -33 -99 -52 -164 -52zM335 17c56 0 104 16 143 45l-92 97l23 23l93 -99c46 47 73 114 73 192c0 149 -95 258 -240 258
c-148 0 -241 -109 -241 -258c0 -147 93 -258 241 -258z" />
    <glyph glyph-name="R.smcp" unicode="&#xf772;" horiz-adv-x="521" 
d="M467 0h-42l-173 235h-134v-235h-32v550h200c110 0 171 -67 171 -157c0 -91 -61 -157 -167 -158zM286 264c92 0 137 54 137 129s-48 128 -137 128h-168v-257h168z" />
    <glyph glyph-name="S.smcp" unicode="&#xf773;" horiz-adv-x="494" 
d="M248 -12c-90 0 -161 37 -203 89l26 21c35 -41 96 -81 177 -81c121 0 165 62 165 125c0 181 -351 84 -351 276c0 90 85 144 181 144c85 0 147 -31 189 -79l-23 -21c-41 51 -100 71 -166 71c-82 0 -147 -49 -147 -115c0 -153 351 -69 351 -276c0 -81 -57 -154 -199 -154z
" />
    <glyph glyph-name="T.smcp" unicode="&#xf774;" horiz-adv-x="459" 
d="M245 0h-32v521h-182v29h397v-29h-183v-521z" />
    <glyph glyph-name="U.smcp" unicode="&#xf775;" horiz-adv-x="603" 
d="M301 -12c-141 0 -215 84 -215 219v343h32v-343c0 -119 64 -190 183 -190s184 71 184 190v343h32v-343c0 -136 -75 -219 -216 -219z" />
    <glyph glyph-name="V.smcp" unicode="&#xf776;" horiz-adv-x="551" 
d="M293 0h-35l-241 550h37l222 -512l223 512h35z" />
    <glyph glyph-name="W.smcp" unicode="&#xf777;" horiz-adv-x="735" 
d="M550 0h-34l-149 494l-148 -494h-35l-164 550h34l147 -500l150 500h33l149 -501l148 501h34z" />
    <glyph glyph-name="X.smcp" unicode="&#xf778;" horiz-adv-x="553" 
d="M533 0h-41l-216 259l-215 -259h-41l238 282l-226 268h42l202 -244l203 244h41l-225 -267z" />
    <glyph glyph-name="Y.smcp" unicode="&#xf779;" horiz-adv-x="531" 
d="M284 0h-32v238l-235 312h41l210 -282l206 282h40l-230 -312v-238z" />
    <glyph glyph-name="Z.smcp" unicode="&#xf77a;" horiz-adv-x="510" 
d="M467 0h-424v27l379 494h-379v29h417v-28l-379 -493h386v-29z" />
    <glyph glyph-name="exclamdown.smcp" unicode="&#xf7a1;" horiz-adv-x="167" 
d="M63 0l11 418h20l11 -418h-42zM51 526c0 18 15 33 33 33s33 -15 33 -33c0 -17 -15 -32 -33 -32s-33 15 -33 32z" />
    <glyph glyph-name="questiondown.smcp" unicode="&#xf7b8;" horiz-adv-x="397" 
d="M31 118c0 129 188 141 188 229c0 12 -6 29 -33 46l21 21c31 -22 42 -44 42 -67c0 -111 -187 -120 -187 -229c0 -58 51 -101 133 -101s129 34 166 83l22 -19c-39 -54 -100 -92 -188 -92c-103 0 -164 60 -164 129zM177 526c0 18 15 33 33 33s33 -15 33 -33
c0 -17 -15 -32 -33 -32s-33 15 -33 32z" />
    <glyph glyph-name="Agrave.smcp" unicode="&#xf7e0;" horiz-adv-x="551" 
d="M258 550h35l241 -550h-36l-64 146h-317l-63 -146h-37zM422 175l-146 337l-147 -337h293zM329 606h-30l-175 144h45z" />
    <glyph glyph-name="Aacute.smcp" unicode="&#xf7e1;" horiz-adv-x="551" 
d="M258 550h35l241 -550h-36l-64 146h-317l-63 -146h-37zM422 175l-146 337l-147 -337h293zM430 750l-175 -144h-30l160 144h45z" />
    <glyph glyph-name="Acircumflex.smcp" unicode="&#xf7e2;" horiz-adv-x="551" 
d="M258 550h35l241 -550h-36l-64 146h-317l-63 -146h-37zM422 175l-146 337l-147 -337h293zM395 606h-28l-91 120l-88 -120h-28l98 144h36z" />
    <glyph glyph-name="Atilde.smcp" unicode="&#xf7e3;" horiz-adv-x="551" 
d="M258 550h35l241 -550h-36l-64 146h-317l-63 -146h-37zM422 175l-146 337l-147 -337h293zM339 604c-77 0 -71 113 -128 113c-33 0 -59 -32 -59 -107h-26c0 72 31 134 88 134c77 0 71 -113 128 -113c33 0 59 32 59 107h26c0 -72 -31 -134 -88 -134z" />
    <glyph glyph-name="Adieresis.smcp" unicode="&#xf7e4;" horiz-adv-x="551" 
d="M258 550h35l241 -550h-36l-64 146h-317l-63 -146h-37zM422 175l-146 337l-147 -337h293zM405 648c0 -15 -13 -28 -28 -28s-28 13 -28 28s13 28 28 28s28 -13 28 -28zM203 648c0 -15 -13 -28 -28 -28s-28 13 -28 28s13 28 28 28s28 -13 28 -28z" />
    <glyph glyph-name="Aring.smcp" unicode="&#xf7e5;" horiz-adv-x="551" 
d="M258 550h35l241 -550h-36l-64 146h-317l-63 -146h-37zM422 175l-146 337l-147 -337h293zM277 610c-51 0 -93 42 -93 93s42 93 93 93s92 -42 92 -93s-41 -93 -92 -93zM277 634c38 0 68 31 68 69s-30 69 -68 69s-69 -31 -69 -69s31 -69 69 -69z" />
    <glyph glyph-name="AE.smcp" unicode="&#xf7e6;" horiz-adv-x="801" 
d="M741 0h-355v146h-238l-94 -146h-37l359 550h365v-29h-323v-223h317v-29h-317v-240h323v-29zM386 175v337l-220 -337h220z" />
    <glyph glyph-name="Ccedilla.smcp" unicode="&#xf7e7;" horiz-adv-x="580" 
d="M349 -187c-38 0 -74 13 -93 28l14 27c24 -21 52 -28 79 -28c37 0 69 18 69 49c0 26 -14 43 -44 43c-16 0 -33 -7 -43 -19l-22 13l22 63c-153 8 -271 123 -271 287c0 169 127 286 288 286c82 0 150 -31 203 -90l-23 -20c-41 52 -109 81 -180 81
c-142 0 -254 -105 -254 -257c0 -151 112 -259 254 -259c71 0 142 31 180 81l24 -20c-52 -57 -115 -87 -191 -90l-17 -46c10 8 25 12 38 12c39 0 65 -25 65 -65c0 -45 -43 -76 -98 -76z" />
    <glyph glyph-name="Egrave.smcp" unicode="&#xf7e8;" horiz-adv-x="500" 
d="M440 0h-354v550h354v-29h-322v-223h317v-29h-317v-240h322v-29zM320 606h-30l-175 144h45z" />
    <glyph glyph-name="Eacute.smcp" unicode="&#xf7e9;" horiz-adv-x="500" 
d="M440 0h-354v550h354v-29h-322v-223h317v-29h-317v-240h322v-29zM420 750l-175 -144h-30l160 144h45z" />
    <glyph glyph-name="Ecircumflex.smcp" unicode="&#xf7ea;" horiz-adv-x="500" 
d="M440 0h-354v550h354v-29h-322v-223h317v-29h-317v-240h322v-29zM385 606h-28l-91 120l-88 -120h-28l98 144h36z" />
    <glyph glyph-name="Edieresis.smcp" unicode="&#xf7eb;" horiz-adv-x="500" 
d="M440 0h-354v550h354v-29h-322v-223h317v-29h-317v-240h322v-29zM391 648c0 -15 -13 -28 -28 -28s-28 13 -28 28s13 28 28 28s28 -13 28 -28zM189 648c0 -15 -13 -28 -28 -28s-28 13 -28 28s13 28 28 28s28 -13 28 -28z" />
    <glyph glyph-name="Igrave.smcp" unicode="&#xf7ec;" horiz-adv-x="204" 
d="M118 0h-32v550h32v-550zM155 606h-30l-175 144h45z" />
    <glyph glyph-name="Iacute.smcp" unicode="&#xf7ed;" horiz-adv-x="204" 
d="M118 0h-32v550h32v-550zM256 750l-175 -144h-30l160 144h45z" />
    <glyph glyph-name="Icircumflex.smcp" unicode="&#xf7ee;" horiz-adv-x="204" 
d="M118 0h-32v550h32v-550zM221 606h-28l-91 120l-88 -120h-28l98 144h36z" />
    <glyph glyph-name="Idieresis.smcp" unicode="&#xf7ef;" horiz-adv-x="204" 
d="M118 0h-32v550h32v-550zM232 648c0 -15 -13 -28 -28 -28s-28 13 -28 28s13 28 28 28s28 -13 28 -28zM30 648c0 -15 -13 -28 -28 -28s-28 13 -28 28s13 28 28 28s28 -13 28 -28z" />
    <glyph glyph-name="Eth.smcp" unicode="&#xf7f0;" horiz-adv-x="618" 
d="M255 0h-172v268h-71v27h71v255h172c179 0 288 -129 288 -276c0 -148 -109 -274 -288 -274zM266 268h-151v-239h140c161 0 253 108 253 245c0 136 -92 247 -253 247h-140v-226h151v-27z" />
    <glyph glyph-name="Ntilde.smcp" unicode="&#xf7f1;" horiz-adv-x="618" 
d="M532 0h-30l-384 500v-500h-32v550h30l384 -495v495h32v-550zM370 604c-77 0 -71 113 -128 113c-33 0 -59 -32 -59 -107h-26c0 72 31 134 88 134c77 0 71 -113 128 -113c33 0 59 32 59 107h26c0 -72 -31 -134 -88 -134z" />
    <glyph glyph-name="Ograve.smcp" unicode="&#xf7f2;" horiz-adv-x="669" 
d="M335 -12c-169 0 -275 128 -275 287s106 287 275 287c167 0 274 -128 274 -287s-107 -287 -274 -287zM335 17c145 0 240 111 240 258c0 149 -95 258 -240 258c-148 0 -241 -109 -241 -258c0 -147 93 -258 241 -258zM387 606h-30l-175 144h45z" />
    <glyph glyph-name="Oacute.smcp" unicode="&#xf7f3;" horiz-adv-x="669" 
d="M335 -12c-169 0 -275 128 -275 287s106 287 275 287c167 0 274 -128 274 -287s-107 -287 -274 -287zM335 17c145 0 240 111 240 258c0 149 -95 258 -240 258c-148 0 -241 -109 -241 -258c0 -147 93 -258 241 -258zM489 750l-175 -144h-30l160 144h45z" />
    <glyph glyph-name="Ocircumflex.smcp" unicode="&#xf7f4;" horiz-adv-x="669" 
d="M335 -12c-169 0 -275 128 -275 287s106 287 275 287c167 0 274 -128 274 -287s-107 -287 -274 -287zM335 17c145 0 240 111 240 258c0 149 -95 258 -240 258c-148 0 -241 -109 -241 -258c0 -147 93 -258 241 -258zM454 606h-28l-91 120l-88 -120h-28l98 144h36z" />
    <glyph glyph-name="Otilde.smcp" unicode="&#xf7f5;" horiz-adv-x="669" 
d="M335 -12c-169 0 -275 128 -275 287s106 287 275 287c167 0 274 -128 274 -287s-107 -287 -274 -287zM335 17c145 0 240 111 240 258c0 149 -95 258 -240 258c-148 0 -241 -109 -241 -258c0 -147 93 -258 241 -258zM400 604c-77 0 -71 113 -128 113
c-33 0 -59 -32 -59 -107h-26c0 72 31 134 88 134c77 0 71 -113 128 -113c33 0 59 32 59 107h26c0 -72 -31 -134 -88 -134z" />
    <glyph glyph-name="Odieresis.smcp" unicode="&#xf7f6;" horiz-adv-x="669" 
d="M335 -12c-169 0 -275 128 -275 287s106 287 275 287c167 0 274 -128 274 -287s-107 -287 -274 -287zM335 17c145 0 240 111 240 258c0 149 -95 258 -240 258c-148 0 -241 -109 -241 -258c0 -147 93 -258 241 -258zM465 648c0 -15 -13 -28 -28 -28s-28 13 -28 28
s13 28 28 28s28 -13 28 -28zM263 648c0 -15 -13 -28 -28 -28s-28 13 -28 28s13 28 28 28s28 -13 28 -28z" />
    <glyph glyph-name="Oslash.smcp" unicode="&#xf7f8;" horiz-adv-x="669" 
d="M335 -12c-60 0 -112 16 -154 44l-22 -32h-36l34 49c-62 53 -97 134 -97 226c0 159 106 287 275 287c57 0 108 -15 149 -42l21 30h36l-33 -47c64 -53 101 -135 101 -228c0 -159 -107 -287 -274 -287zM335 17c145 0 240 111 240 258c0 85 -31 157 -84 203l-293 -421
c37 -26 83 -40 137 -40zM94 275c0 -83 29 -154 81 -200l292 421c-36 24 -81 37 -132 37c-148 0 -241 -109 -241 -258z" />
    <glyph glyph-name="Ugrave.smcp" unicode="&#xf7f9;" horiz-adv-x="603" 
d="M301 -12c-141 0 -215 84 -215 219v343h32v-343c0 -119 64 -190 183 -190s184 71 184 190v343h32v-343c0 -136 -75 -219 -216 -219zM354 606h-30l-175 144h45z" />
    <glyph glyph-name="Uacute.smcp" unicode="&#xf7fa;" horiz-adv-x="603" 
d="M301 -12c-141 0 -215 84 -215 219v343h32v-343c0 -119 64 -190 183 -190s184 71 184 190v343h32v-343c0 -136 -75 -219 -216 -219zM457 750l-175 -144h-30l160 144h45z" />
    <glyph glyph-name="Ucircumflex.smcp" unicode="&#xf7fb;" horiz-adv-x="603" 
d="M301 -12c-141 0 -215 84 -215 219v343h32v-343c0 -119 64 -190 183 -190s184 71 184 190v343h32v-343c0 -136 -75 -219 -216 -219zM419 606h-28l-91 120l-88 -120h-28l98 144h36z" />
    <glyph glyph-name="Udieresis.smcp" unicode="&#xf7fc;" horiz-adv-x="603" 
d="M301 -12c-141 0 -215 84 -215 219v343h32v-343c0 -119 64 -190 183 -190s184 71 184 190v343h32v-343c0 -136 -75 -219 -216 -219zM430 648c0 -15 -13 -28 -28 -28s-28 13 -28 28s13 28 28 28s28 -13 28 -28zM228 648c0 -15 -13 -28 -28 -28s-28 13 -28 28s13 28 28 28
s28 -13 28 -28z" />
    <glyph glyph-name="Yacute.smcp" unicode="&#xf7fd;" horiz-adv-x="531" 
d="M284 0h-32v238l-235 312h41l210 -282l206 282h40l-230 -312v-238zM421 750l-175 -144h-30l160 144h45z" />
    <glyph glyph-name="Thorn.smcp" unicode="&#xf7fe;" horiz-adv-x="496" 
d="M118 0h-32v550h32v-102h168c115 0 170 -73 170 -157c0 -85 -56 -158 -170 -158h-168v-133zM286 162c92 0 136 55 136 129c0 73 -44 128 -136 128h-168v-257h168z" />
    <glyph glyph-name="Ydieresis.smcp" unicode="&#xf7ff;" horiz-adv-x="531" 
d="M284 0h-32v238l-235 312h41l210 -282l206 282h40l-230 -312v-238zM397 648c0 -15 -13 -28 -28 -28s-28 13 -28 28s13 28 28 28s28 -13 28 -28zM195 648c0 -15 -13 -28 -28 -28s-28 13 -28 28s13 28 28 28s28 -13 28 -28z" />
    </font>
</defs>
</svg>
