<?xml version="1.0" encoding="utf-8"?>
<!-- Generator: Adobe Illustrator 25.2.0, SVG Export Plug-In . SVG Version: 6.00 Build 0)  -->
<svg version="1.1" id="Capa_1" xmlns="http://www.w3.org/2000/svg" xmlns:xlink="http://www.w3.org/1999/xlink" x="0px" y="0px"
	 viewBox="0 0 1000 1000" style="enable-background:new 0 0 1000 1000;" xml:space="preserve">
<path fill="rgba(0, 100, 255, 1)" d="M499.8,918.7c-74.9,0-149.8-0.7-224.7,0.2c-104.9,1.4-164.4-82.1-160.7-160.5c3.4-72.4,1.1-145,0.4-217.4
	c-0.1-16.1,3.6-25.7,19.3-33.9c116.6-61.3,232.7-123.6,348.6-186.3c13-7.1,22.8-6.4,35.3,0.3c116,62.5,232.2,124.8,348.7,186.3
	c14.4,7.5,18.8,16.1,18.7,31.8c-0.9,74.9-0.2,149.8-0.4,224.7c-0.3,89.1-63.9,153.7-153.3,154.7
	C654.4,919.4,577.1,918.7,499.8,918.7L499.8,918.7z M936.4,440c-13.2-5.1-27.2-8.9-39.7-15.5c-124.3-65.9-248.5-131.8-372.1-199.2
	c-18.8-10.3-32.2-8.9-50.1,0.8C349.4,293.8,223.7,360.5,98,427.3c-43.1,22.8-86.2,4.7-96.5-39.8c-6.4-27.6,7.9-54.2,38.4-70.5
	C155.5,255.1,271,193.4,386.7,131.8c30.4-16.2,60.4-33.6,92.3-46.4c13.1-5.3,33.1-5.4,45.4,1c147.5,76.9,294.3,155.2,441,233.7
	c28.8,15.4,40.1,42.8,32.1,70.8C989.2,420.1,967.1,437.1,936.4,440L936.4,440z"/>
</svg>
