<svg aria-hidden="true" focusable="false" data-prefix="fad" data-icon="font" role="img" xmlns="http://www.w3.org/2000/svg" viewBox="0 0 1000 1000" class="svg-inline--fa fa-font fa-w-18 fa-3x"><path fill="rgba(101, 128, 164, 0.4)" d="M750.1,674.4c16.4-43.6,32.9-85.8,48.9-129.2c2.1-5.9,5-8.3,11.6-8.1c17.6,0.5,35.3,0.7,52.9-0.1c8.2-0.3,10.9,3.1,13.5,10.1c39.3,105.9,78.9,211.7,118.4,317.4c1.7,5.5,10.2,16.4-1,16.6c-19.8-0.8-39.6-0.3-59.4-0.3c-8-23.8-16.2-47.6-23.8-71.5c-2.1-6.3-4.9-9.1-12.1-9c-31.3,0.5-62.5,0.5-93.8,0c-8.8-0.1-9.3,2.4-6.5,9.8 M838.2,599.4c-0.9,0.1-1.8,0.2-2.7,0.3c-17.7,49.8-35.3,99.7-53.1,149.4c-2.6,7.4,1.9,6.8,6.4,6.8c31.7-0.1,63.4-0.3,95.1,0c6.7,0,7.9-1.7,5.6-7.8C872.1,698.6,855.4,648.9,838.2,599.4L838.2,599.4z"/><path fill="rgba(101, 128, 164, 1)" d="M798.8,810.1c9,23.5,17.4,47.1,26,70.7H615.2c-14.6-43.2-29.3-86.4-43.5-129.7c-2.3-7.2-5.7-9.1-13-9.1c-82.5,0.3-165,0.3-247.5,0c-8.5-0.1-11.6,3-14.2,10.5c-14.7,42.9-29.9,85.5-44.9,128.3c0,0-162.1,0-162.1,0c93.9-253.2,189-505.9,283.2-758.9c2.9-7.9,6.2-11.1,15.2-11c46.4,0.6,92.9,0.5,139.3,0.1c7.9-0.1,11.1,2.5,13.8,9.8c70.4,184,135.3,371.5,208.6,553.6 M435.7,323.5c-30.8,86.4-56.6,174.4-86,261.4c-3,9.1,2.1,8.4,7.9,8.3c50.8-0.1,101.5-0.3,152.2,0c9,0,10.7-1.7,7.9-10.6C489.5,495.4,463.2,411.6,435.7,323.5z"/><path fill="rgba(101, 128, 164, 0.4)" d="M20.8,880.8c-22-11.2-25.1-19.7-16.3-43.2c89.1-238,178.2-476.2,267.3-714.2c5.9-14.2,19.4-21.1,31.9-16.3c14.5,5.5,20.7,19,15.1,34.3c-11.4,31-23.1,62-34.7,93C206.9,440.5,129.7,646.6,52.8,852.9C47.7,867.7,38.4,882.3,20.8,880.8L20.8,880.8z"/></svg>
