<svg xmlns="http://www.w3.org/2000/svg" viewBox="0 0 40 30"><defs><style>.cls-1{fill:#69f;}</style></defs><title>jpg_1</title><g id="Capa_2" data-name="Capa 2"><g id="Capa_1-2" data-name="Capa 1"><g id="jpg"><path class="cls-1" d="M5.36,25.14a.94.94,0,0,1-.25.68.87.87,0,0,1-.66.26,1.3,1.3,0,0,1-.93-.43L3,26.6a2.14,2.14,0,0,0,1.58.58,2.14,2.14,0,0,0,1.49-.51,2,2,0,0,0,.57-1.51V21.23H5.36Z"/><path class="cls-1" d="M10.5,21.23H7.76v5.84H9V25H10.5a1.91,1.91,0,0,0,1.43-.54,1.84,1.84,0,0,0,.53-1.34,1.89,1.89,0,0,0-.52-1.34A1.92,1.92,0,0,0,10.5,21.23Zm.44,2.45a.91.91,0,0,1-.62.21H9V22.33h1.31a.91.91,0,0,1,.62.21.77.77,0,0,1,0,1.14Z"/><path class="cls-1" d="M15.77,23.84v1.09h1.54v.7a1.48,1.48,0,0,1-.53.31,1.9,1.9,0,0,1-.7.14,1.77,1.77,0,0,1-1.32-.55,2.08,2.08,0,0,1,0-2.75,1.76,1.76,0,0,1,1.32-.54,1.57,1.57,0,0,1,.8.21,1.8,1.8,0,0,1,.58.55l1-.56a2.69,2.69,0,0,0-2.41-1.31,3.1,3.1,0,0,0-2.22.84,3.1,3.1,0,0,0,0,4.37,3.1,3.1,0,0,0,2.22.84,3.2,3.2,0,0,0,2.48-1.1V23.84Z"/><ellipse class="cls-1" cx="35.52" cy="25.87" rx="1.36" ry="1.31"/><ellipse class="cls-1" cx="31.55" cy="25.87" rx="1.36" ry="1.31"/><path class="cls-1" d="M38.19,13.56H24.38l-1.55,1.75H36.37a1.78,1.78,0,0,1,1.81,1.75V26.5a1.78,1.78,0,0,1-1.81,1.75H3.63A1.78,1.78,0,0,1,1.82,26.5V17.06a1.78,1.78,0,0,1,1.81-1.75H16.45L15,13.56H1.81A1.78,1.78,0,0,0,0,15.31v13A1.78,1.78,0,0,0,1.81,30H38.19A1.78,1.78,0,0,0,40,28.26V15.31A1.78,1.78,0,0,0,38.19,13.56Z"/><path class="cls-1" d="M19.55,19l3.28-3.71,1.55-1.75,5-5.63-5,0-.06-8H15V8H10.31L15,13.56l1.46,1.75ZM13.42,9.51h2.67V1.75h7.23l.06,7.76h2.77l-3.42,4.05-1.48,1.75-1.65,2-1.56-2-1.39-1.75Z"/></g></g></g></svg>