<svg xmlns="http://www.w3.org/2000/svg" viewBox="0 0 40 30"><defs><style>.cls-1{fill:#acacac;}</style></defs><title>nodoc_3</title><g id="Capa_2" data-name="Capa 2"><g id="Capa_1-2" data-name="Capa 1"><g id="nodoc"><path class="cls-1" d="M5.37,21.23H3v5.84h2.4a3.32,3.32,0,0,0,2.32-.8,2.72,2.72,0,0,0,.89-2.12A2.69,2.69,0,0,0,7.69,22,3.31,3.31,0,0,0,5.37,21.23Zm1.39,4.22A1.88,1.88,0,0,1,5.37,26H4.27V22.33H5.38a1.84,1.84,0,0,1,1.39.51,1.94,1.94,0,0,1,0,2.61Z"/><path class="cls-1" d="M12.39,21.13a3.22,3.22,0,0,0-2.28.85,3.1,3.1,0,0,0,0,4.35,3.17,3.17,0,0,0,2.28.85,3.21,3.21,0,0,0,2.27-.85,3.09,3.09,0,0,0,0-4.34A3.17,3.17,0,0,0,12.39,21.13Zm1.33,4.4a1.75,1.75,0,0,1-1.33.55,1.77,1.77,0,0,1-1.34-.55,2.11,2.11,0,0,1,0-2.75,1.73,1.73,0,0,1,1.34-.54,1.74,1.74,0,0,1,1.33.54,2.11,2.11,0,0,1,0,2.75Z"/><path class="cls-1" d="M19.41,22.24a1.57,1.57,0,0,1,.83.24,1.54,1.54,0,0,1,.58.61l1.11-.53a2.72,2.72,0,0,0-2.52-1.43,3.29,3.29,0,0,0-2.32.85,3,3,0,0,0,0,4.35,3.29,3.29,0,0,0,2.32.85,2.74,2.74,0,0,0,2.52-1.44l-1.11-.51a1.58,1.58,0,0,1-.58.6,1.49,1.49,0,0,1-.83.25,1.92,1.92,0,1,1,0-3.84Z"/><ellipse class="cls-1" cx="35.52" cy="25.87" rx="1.36" ry="1.31"/><ellipse class="cls-1" cx="31.55" cy="25.87" rx="1.36" ry="1.31"/><path class="cls-1" d="M38.19,13.56H24.38l-1.55,1.75H36.37a1.78,1.78,0,0,1,1.81,1.75V26.5a1.78,1.78,0,0,1-1.81,1.75H3.63A1.78,1.78,0,0,1,1.82,26.5V17.06a1.78,1.78,0,0,1,1.81-1.75H16.45L15,13.56H1.81A1.78,1.78,0,0,0,0,15.31v13A1.78,1.78,0,0,0,1.81,30H38.19A1.78,1.78,0,0,0,40,28.26V15.31A1.78,1.78,0,0,0,38.19,13.56Z"/><path class="cls-1" d="M19.55,19l3.28-3.71,1.55-1.75,5-5.63-5,0-.06-8H15V8H10.31L15,13.56l1.46,1.75ZM13.42,9.51h2.67V1.75h7.23l.06,7.76h2.77l-3.42,4.05-1.48,1.75-1.65,2-1.56-2-1.39-1.75Z"/></g></g></g></svg>
