<svg xmlns="http://www.w3.org/2000/svg" viewBox="0 0 40 30"><defs><style>.cls-1{fill:#acacac;}</style></defs><title>nona_1</title><g id="Capa_2" data-name="Capa 2"><g id="Capa_1-2" data-name="Capa 1"><g id="nona"><path class="cls-1" d="M8.39,26.8H7.15L4.27,22.86V26.8H3V20.75H4.3l2.8,3.8v-3.8H8.39Z"/><path class="cls-1" d="M15.22,26.8H13.77l-.39-1H10.79l-.38,1H9l2.33-6.05H12.9ZM13,24.64,12.09,22l-.94,2.6Z"/><ellipse class="cls-1" cx="35.52" cy="25.87" rx="1.36" ry="1.31"/><ellipse class="cls-1" cx="31.55" cy="25.87" rx="1.36" ry="1.31"/><path class="cls-1" d="M38.19,13.56H24.38l-1.55,1.75H36.37a1.78,1.78,0,0,1,1.81,1.75V26.5a1.78,1.78,0,0,1-1.81,1.75H3.63A1.78,1.78,0,0,1,1.82,26.5V17.06a1.78,1.78,0,0,1,1.81-1.75H16.45L15,13.56H1.81A1.78,1.78,0,0,0,0,15.31v13A1.78,1.78,0,0,0,1.81,30H38.19A1.78,1.78,0,0,0,40,28.26V15.31A1.78,1.78,0,0,0,38.19,13.56Z"/><path class="cls-1" d="M19.55,19l3.28-3.71,1.55-1.75,5-5.63-5,0-.06-8H15V8H10.31L15,13.56l1.46,1.75ZM13.42,9.51h2.67V1.75h7.23l.06,7.76h2.77l-3.42,4.05-1.48,1.75-1.65,2-1.56-2-1.39-1.75Z"/></g></g></g></svg>
