<svg xmlns="http://www.w3.org/2000/svg" viewBox="0 0 40 30"><defs><style>.cls-1{fill:#acacac;}</style></defs><title>noppt_1</title><g id="Capa_2" data-name="Capa 2"><g id="Capa_1-2" data-name="Capa 1"><g id="noppt"><path class="cls-1" d="M4.27,26.8H3V20.75H5.81a2,2,0,0,1,1.49.56,1.92,1.92,0,0,1,.54,1.39,1.87,1.87,0,0,1-.55,1.38,1.93,1.93,0,0,1-1.48.56H4.27Zm1.36-3.29a.92.92,0,0,0,.64-.22.75.75,0,0,0,.25-.59.74.74,0,0,0-.25-.59.92.92,0,0,0-.64-.22H4.27v1.62Z"/><path class="cls-1" d="M9.93,26.8H8.64V20.75h2.83a2,2,0,0,1,1.49.56,1.92,1.92,0,0,1,.54,1.39A1.9,1.9,0,0,1,13,24.08a2,2,0,0,1-1.49.56H9.93Zm1.36-3.29a.91.91,0,0,0,.64-.22.76.76,0,0,0,.26-.59.74.74,0,0,0-.26-.59.91.91,0,0,0-.64-.22H9.93v1.62Z"/><path class="cls-1" d="M17,26.8H15.7V21.89H13.94V20.75h4.82v1.14H17Z"/><ellipse class="cls-1" cx="35.52" cy="25.87" rx="1.36" ry="1.31"/><ellipse class="cls-1" cx="31.55" cy="25.87" rx="1.36" ry="1.31"/><path class="cls-1" d="M38.19,13.56H24.38l-1.55,1.75H36.37a1.78,1.78,0,0,1,1.81,1.75V26.5a1.78,1.78,0,0,1-1.81,1.75H3.63A1.78,1.78,0,0,1,1.82,26.5V17.06a1.78,1.78,0,0,1,1.81-1.75H16.45L15,13.56H1.81A1.78,1.78,0,0,0,0,15.31v13A1.78,1.78,0,0,0,1.81,30H38.19A1.78,1.78,0,0,0,40,28.26V15.31A1.78,1.78,0,0,0,38.19,13.56Z"/><path class="cls-1" d="M19.55,19l3.28-3.71,1.55-1.75,5-5.63-5,0-.06-8H15V8H10.31L15,13.56l1.46,1.75ZM13.42,9.51h2.67V1.75h7.23l.06,7.76h2.77l-3.42,4.05-1.48,1.75-1.65,2-1.56-2-1.39-1.75Z"/></g></g></g></svg>
