<svg xmlns="http://www.w3.org/2000/svg" viewBox="0 0 40 30"><defs><style>.cls-1{fill:#acacac;}</style></defs><title>norar_1</title><g id="Capa_2" data-name="Capa 2"><g id="Capa_1-2" data-name="Capa 1"><g id="norar"><path class="cls-1" d="M7.88,26.8H6.4L5.21,24.65H4.27V26.8H3V20.75H5.81a2,2,0,0,1,1.48.55,1.88,1.88,0,0,1,.56,1.4,1.82,1.82,0,0,1-.4,1.21,1.72,1.72,0,0,1-.94.59ZM5.63,23.52a.92.92,0,0,0,.64-.22.76.76,0,0,0,.25-.61.73.73,0,0,0-.25-.58.92.92,0,0,0-.64-.22H4.27v1.63Z"/><path class="cls-1" d="M14.44,26.8H13l-.39-1H10l-.38,1H8.17l2.33-6.05h1.62Zm-2.19-2.16L11.31,22l-.94,2.6Z"/><path class="cls-1" d="M19.91,26.8H18.42l-1.18-2.15h-.95V26.8H15V20.75h2.82a2,2,0,0,1,1.49.55,1.87,1.87,0,0,1,.55,1.4,1.81,1.81,0,0,1-.39,1.21,1.76,1.76,0,0,1-.94.59Zm-2.26-3.28a1,1,0,0,0,.65-.22.76.76,0,0,0,.25-.61.73.73,0,0,0-.25-.58,1,1,0,0,0-.65-.22H16.29v1.63Z"/><ellipse class="cls-1" cx="35.52" cy="25.87" rx="1.36" ry="1.31"/><ellipse class="cls-1" cx="31.55" cy="25.87" rx="1.36" ry="1.31"/><path class="cls-1" d="M38.19,13.56H24.38l-1.55,1.75H36.37a1.78,1.78,0,0,1,1.81,1.75V26.5a1.78,1.78,0,0,1-1.81,1.75H3.63A1.78,1.78,0,0,1,1.82,26.5V17.06a1.78,1.78,0,0,1,1.81-1.75H16.45L15,13.56H1.81A1.78,1.78,0,0,0,0,15.31v13A1.78,1.78,0,0,0,1.81,30H38.19A1.78,1.78,0,0,0,40,28.26V15.31A1.78,1.78,0,0,0,38.19,13.56Z"/><path class="cls-1" d="M19.55,19l3.28-3.71,1.55-1.75,5-5.63-5,0-.06-8H15V8H10.31L15,13.56l1.46,1.75ZM13.42,9.51h2.67V1.75h7.23l.06,7.76h2.77l-3.42,4.05-1.48,1.75-1.65,2-1.56-2-1.39-1.75Z"/></g></g></g></svg>
