<svg xmlns="http://www.w3.org/2000/svg" viewBox="0 0 40 30"><defs><style>.cls-1{fill:#acacac;}</style></defs><title>noxls_1</title><g id="Capa_2" data-name="Capa 2"><g id="Capa_1-2" data-name="Capa 1"><g id="noxls"><path class="cls-1" d="M8.89,26.69H7.4L5.94,24.55,4.46,26.69H3l2.12-3-2-2.85H4.59l1.35,2,1.32-2h1.5l-2,2.84Z"/><path class="cls-1" d="M13.12,26.69H9.39V20.84h1.26V25.6h2.47Z"/><path class="cls-1" d="M16.05,26.8a3.37,3.37,0,0,1-2.49-.93l.68-1a2.48,2.48,0,0,0,1.86.79,1.28,1.28,0,0,0,.76-.19.54.54,0,0,0,.26-.46.46.46,0,0,0-.25-.39,2,2,0,0,0-.62-.22,7.92,7.92,0,0,1-.81-.2,5.09,5.09,0,0,1-.81-.29,1.48,1.48,0,0,1-.88-1.4,1.58,1.58,0,0,1,.61-1.27A2.41,2.41,0,0,1,16,20.75a3.25,3.25,0,0,1,2.28.82l-.69.93a2.4,2.4,0,0,0-1.7-.64,1,1,0,0,0-.61.16.5.5,0,0,0-.22.42.41.41,0,0,0,.25.35,2,2,0,0,0,.63.21c.24.05.51.12.8.21a7.62,7.62,0,0,1,.81.3,1.53,1.53,0,0,1,.62.54,1.46,1.46,0,0,1,.25.87,1.7,1.7,0,0,1-.6,1.36A2.57,2.57,0,0,1,16.05,26.8Z"/><ellipse class="cls-1" cx="35.52" cy="25.87" rx="1.36" ry="1.31"/><ellipse class="cls-1" cx="31.55" cy="25.87" rx="1.36" ry="1.31"/><path class="cls-1" d="M38.19,13.56H24.38l-1.55,1.75H36.37a1.78,1.78,0,0,1,1.81,1.75V26.5a1.78,1.78,0,0,1-1.81,1.75H3.63A1.78,1.78,0,0,1,1.82,26.5V17.06a1.78,1.78,0,0,1,1.81-1.75H16.45L15,13.56H1.81A1.78,1.78,0,0,0,0,15.31v13A1.78,1.78,0,0,0,1.81,30H38.19A1.78,1.78,0,0,0,40,28.26V15.31A1.78,1.78,0,0,0,38.19,13.56Z"/><path class="cls-1" d="M19.55,19l3.28-3.71,1.55-1.75,5-5.63-5,0-.06-8H15V8H10.31L15,13.56l1.46,1.75ZM13.42,9.51h2.67V1.75h7.23l.06,7.76h2.77l-3.42,4.05-1.48,1.75-1.65,2-1.56-2-1.39-1.75Z"/></g></g></g></svg>
