<svg xmlns="http://www.w3.org/2000/svg" viewBox="0 0 40 30"><defs><style>.cls-1{fill:#c3c;}</style></defs><title>png_1</title><g id="Capa_2" data-name="Capa 2"><g id="Capa_1-2" data-name="Capa 1"><g id="png"><path class="cls-1" d="M4.22,26.69H3V20.85H5.71a1.89,1.89,0,0,1,1.44.54,2,2,0,0,1,0,2.68,1.92,1.92,0,0,1-1.44.54H4.22Zm1.32-3.18a.91.91,0,0,0,.62-.21.77.77,0,0,0,0-1.14A.91.91,0,0,0,5.54,22H4.22v1.56Z"/><path class="cls-1" d="M13.69,26.69h-1.2L9.7,22.88v3.81H8.46V20.85H9.73l2.71,3.67V20.85h1.25Z"/><path class="cls-1" d="M17.68,26.8A3.13,3.13,0,0,1,15.46,26a3.1,3.1,0,0,1,0-4.37,3.13,3.13,0,0,1,2.22-.84,2.68,2.68,0,0,1,2.41,1.31l-1,.56a1.84,1.84,0,0,0-.59-.55,1.57,1.57,0,0,0-.8-.21,1.76,1.76,0,0,0-1.32.54,2.08,2.08,0,0,0,0,2.75,1.77,1.77,0,0,0,1.32.55,1.9,1.9,0,0,0,.7-.14,1.54,1.54,0,0,0,.54-.31v-.7H17.37V23.46h2.79V25.7A3.15,3.15,0,0,1,17.68,26.8Z"/><ellipse class="cls-1" cx="35.52" cy="25.87" rx="1.36" ry="1.31"/><ellipse class="cls-1" cx="31.55" cy="25.87" rx="1.36" ry="1.31"/><path class="cls-1" d="M38.19,13.56H24.38l-1.55,1.75H36.37a1.78,1.78,0,0,1,1.81,1.75V26.5a1.78,1.78,0,0,1-1.81,1.75H3.63A1.78,1.78,0,0,1,1.82,26.5V17.06a1.78,1.78,0,0,1,1.81-1.75H16.45L15,13.56H1.81A1.78,1.78,0,0,0,0,15.31v13A1.78,1.78,0,0,0,1.81,30H38.19A1.78,1.78,0,0,0,40,28.26V15.31A1.78,1.78,0,0,0,38.19,13.56Z"/><path class="cls-1" d="M19.55,19l3.28-3.71,1.55-1.75,5-5.63-5,0-.06-8H15V8H10.31L15,13.56l1.46,1.75ZM13.42,9.51h2.67V1.75h7.23l.06,7.76h2.77l-3.42,4.05-1.48,1.75-1.65,2-1.56-2-1.39-1.75Z"/></g></g></g></svg>