<svg xmlns="http://www.w3.org/2000/svg" viewBox="0 0 40 30"><defs><style>.cls-1{fill:#3cc;}</style></defs><title>svg_1</title><g id="Capa_2" data-name="Capa 2"><g id="Capa_1-2" data-name="Capa 1"><g id="svg"><path class="cls-1" d="M5.47,26.8A3.37,3.37,0,0,1,3,25.87l.68-1a2.48,2.48,0,0,0,1.86.79,1.3,1.3,0,0,0,.75-.18.56.56,0,0,0,.27-.46.46.46,0,0,0-.25-.39,2,2,0,0,0-.63-.23c-.24,0-.51-.11-.81-.19a7.62,7.62,0,0,1-.81-.3,1.47,1.47,0,0,1-.87-1.4,1.57,1.57,0,0,1,.61-1.26,2.36,2.36,0,0,1,1.61-.52,3.21,3.21,0,0,1,2.28.82l-.7.93a2.38,2.38,0,0,0-1.7-.64,1.07,1.07,0,0,0-.6.15.5.5,0,0,0-.22.42.42.42,0,0,0,.25.36,2.25,2.25,0,0,0,.62.21,8.13,8.13,0,0,1,.81.21,4.43,4.43,0,0,1,.8.3,1.48,1.48,0,0,1,.88,1.4,1.7,1.7,0,0,1-.6,1.36A2.57,2.57,0,0,1,5.47,26.8Z"/><path class="cls-1" d="M11.84,26.69H10.28L8,20.85H9.44l1.62,4.49,1.62-4.49h1.41Z"/><path class="cls-1" d="M17.29,26.8A3.13,3.13,0,0,1,15.07,26a3.1,3.1,0,0,1,0-4.37,3.13,3.13,0,0,1,2.22-.84,2.68,2.68,0,0,1,2.41,1.31l-1,.56a1.91,1.91,0,0,0-.58-.55,1.6,1.6,0,0,0-.81-.21A1.73,1.73,0,0,0,16,22.4a2,2,0,0,0,0,2.75,1.73,1.73,0,0,0,1.31.54,1.85,1.85,0,0,0,.7-.13,1.54,1.54,0,0,0,.54-.31v-.7H17V23.46h2.78V25.7A3.18,3.18,0,0,1,17.29,26.8Z"/><ellipse class="cls-1" cx="35.52" cy="25.87" rx="1.36" ry="1.31"/><ellipse class="cls-1" cx="31.55" cy="25.87" rx="1.36" ry="1.31"/><path class="cls-1" d="M38.19,13.56H24.38l-1.55,1.75H36.37a1.78,1.78,0,0,1,1.81,1.75V26.5a1.78,1.78,0,0,1-1.81,1.75H3.63A1.78,1.78,0,0,1,1.82,26.5V17.06a1.78,1.78,0,0,1,1.81-1.75H16.45L15,13.56H1.81A1.78,1.78,0,0,0,0,15.31v13A1.78,1.78,0,0,0,1.81,30H38.19A1.78,1.78,0,0,0,40,28.26V15.31A1.78,1.78,0,0,0,38.19,13.56Z"/><path class="cls-1" d="M19.55,19l3.28-3.71,1.55-1.75,5-5.63-5,0-.06-8H15V8H10.31L15,13.56l1.46,1.75ZM13.42,9.51h2.67V1.75h7.23l.06,7.76h2.77l-3.42,4.05-1.48,1.75-1.65,2-1.56-2-1.39-1.75Z"/></g></g></g></svg>