<svg xmlns="http://www.w3.org/2000/svg" viewBox="0 0 38.83 47.98"><defs><style>.cls-1,.cls-4{fill:#fff;}.cls-1{stroke:#69f;stroke-linecap:round;stroke-linejoin:round;}.cls-1,.cls-3{stroke-width:2px;}.cls-2,.cls-3{fill:#69f;}.cls-3{stroke:#fff;}</style></defs><title>jpg</title><g id="Capa_2" data-name="Capa 2"><g id="Capa_1-2" data-name="Capa 1"><path class="cls-1" d="M34.61,39.91H11.05a3.22,3.22,0,0,1-3.22-3.22V4.33a3.22,3.22,0,0,1,3.22-3.22h17l9.74,9.46V36.69A3.35,3.35,0,0,1,34.61,39.91Z"/><path class="cls-2" d="M38.79,12.09H30.72a2.78,2.78,0,0,1-1.83-.47,3,3,0,0,1-1.08-2.53V0Z"/><rect class="cls-3" x="1" y="10.17" width="26.03" height="14.68" rx="4.79"/><path class="cls-2" d="M23.58,47a1,1,0,0,1-.78-.4l-6.71-8.94a1,1,0,0,1,.8-1.6h1.9V28.11a1,1,0,0,1,1-1h7.83a1,1,0,0,1,1,1L28.67,36h2a1,1,0,0,1,.9.57,1,1,0,0,1-.12,1L24.38,46.6a1,1,0,0,1-.78.38Z"/><path class="cls-4" d="M27.62,28.11,27.68,37h3L23.6,46,16.89,37h2.9V28.11h7.83m0-2H19.79a2,2,0,0,0-2,2V35h-.9a2,2,0,0,0-1.6,3.2L22,47.18a2,2,0,0,0,1.57.8h0a2,2,0,0,0,1.56-.76l7.09-8.93a2,2,0,0,0,.23-2.12A2,2,0,0,0,30.68,35h-1l-.05-6.95a2,2,0,0,0-2-2Z"/><path class="cls-4" d="M6.48,21a2.46,2.46,0,0,1-1.8-.66l.62-1.08a1.52,1.52,0,0,0,1.06.48,1,1,0,0,0,.75-.29,1.09,1.09,0,0,0,.29-.78V14.17H8.83v4.48a2.22,2.22,0,0,1-.65,1.73A2.42,2.42,0,0,1,6.48,21Z"/><path class="cls-4" d="M11.56,20.84H10.14V14.17h3.12a2.16,2.16,0,0,1,1.64.62,2.25,2.25,0,0,1,0,3.06,2.19,2.19,0,0,1-1.64.61h-1.7Zm1.5-3.63a1.05,1.05,0,0,0,.71-.24.82.82,0,0,0,.28-.65.81.81,0,0,0-.28-.65,1,1,0,0,0-.71-.25h-1.5v1.79Z"/><path class="cls-4" d="M19.63,21A3.62,3.62,0,0,1,17.09,20a3.27,3.27,0,0,1-1-2.5,3.26,3.26,0,0,1,1-2.5,3.62,3.62,0,0,1,2.54-.95,3.06,3.06,0,0,1,2.75,1.49l-1.17.64a2,2,0,0,0-.67-.62,1.68,1.68,0,0,0-.91-.25,2,2,0,0,0-1.51.62,2.38,2.38,0,0,0,0,3.14,2,2,0,0,0,1.51.62,2.22,2.22,0,0,0,.8-.15,1.86,1.86,0,0,0,.61-.36v-.8H19.28V17.15h3.18v2.56A3.65,3.65,0,0,1,19.63,21Z"/></g></g></svg>