<svg xmlns="http://www.w3.org/2000/svg" viewBox="0 0 39.33 48.37"><defs><style>.cls-1,.cls-4{fill:#fff;}.cls-1{stroke:#dadada;stroke-linecap:round;stroke-linejoin:round;stroke-width:3px;}.cls-2,.cls-3{fill:#dadada;}.cls-3{stroke:#fff;stroke-width:2px;}</style></defs><title>nodoc_2</title><g id="Capa_2" data-name="Capa 2"><g id="Capa_1-2" data-name="Capa 1"><path class="cls-1" d="M34.61,40.31H11.05a3.22,3.22,0,0,1-3.22-3.22V4.72A3.22,3.22,0,0,1,11.05,1.5h17L37.83,11V37.09A3.35,3.35,0,0,1,34.61,40.31Z"/><path class="cls-2" d="M37.79,13.48H29.72A2.72,2.72,0,0,1,27.89,13a3,3,0,0,1-1.08-2.53V1.39Z"/><rect class="cls-3" x="1" y="10.56" width="26.03" height="14.68" rx="4.79"/><path class="cls-2" d="M23.58,47.37a1,1,0,0,1-.78-.4L16.09,38A1,1,0,0,1,16,37a1,1,0,0,1,.89-.55h1.9V28.5a1,1,0,0,1,1-1h7.83a1,1,0,0,1,1,1l.05,8h2a1,1,0,0,1,.9.56,1,1,0,0,1-.12,1.06L24.38,47a1,1,0,0,1-.78.38Z"/><path class="cls-4" d="M27.62,28.5l.06,8.94h3L23.6,46.37l-6.71-8.93h2.9V28.5h7.83m0-2H19.79a2,2,0,0,0-2,2v6.94h-.9a2,2,0,0,0-1.79,1.1,2,2,0,0,0,.19,2.1L22,47.57a2,2,0,0,0,1.57.8h0a2,2,0,0,0,1.56-.76l7.09-8.93a2,2,0,0,0-1.57-3.24h-1l-.05-6.95a2,2,0,0,0-2-2Z"/><path class="cls-4" d="M6.22,21.23H3.58V14.56H6.21a3.58,3.58,0,0,1,2.55.92,3.15,3.15,0,0,1,1,2.41,3.18,3.18,0,0,1-1,2.43A3.57,3.57,0,0,1,6.22,21.23Zm0-1.25a2,2,0,0,0,1.52-.6,2.26,2.26,0,0,0,0-3,2,2,0,0,0-1.53-.59H5V20Z"/><path class="cls-4" d="M13.93,21.35a3.41,3.41,0,0,1-2.51-1,3.34,3.34,0,0,1-1-2.48,3.37,3.37,0,0,1,1-2.48,3.45,3.45,0,0,1,2.51-1,3.39,3.39,0,0,1,2.49,1,3.32,3.32,0,0,1,1,2.47,3.34,3.34,0,0,1-1,2.48A3.38,3.38,0,0,1,13.93,21.35Zm-1.47-1.88a1.86,1.86,0,0,0,1.47.62,1.85,1.85,0,0,0,1.46-.62A2.25,2.25,0,0,0,16,17.9a2.29,2.29,0,0,0-.56-1.57,1.88,1.88,0,0,0-1.46-.62,1.91,1.91,0,0,0-1.48.62,2.28,2.28,0,0,0-.55,1.57A2.21,2.21,0,0,0,12.46,19.47Z"/><path class="cls-4" d="M21.65,21.35a3.58,3.58,0,0,1-2.55-1,3.29,3.29,0,0,1-1-2.49,3.29,3.29,0,0,1,1-2.49,3.58,3.58,0,0,1,2.55-1,3,3,0,0,1,2.78,1.63l-1.22.6a1.79,1.79,0,0,0-.65-.69,1.68,1.68,0,0,0-.91-.28,2,2,0,0,0-1.51.62,2.22,2.22,0,0,0-.59,1.57,2.18,2.18,0,0,0,.59,1.57,2,2,0,0,0,1.51.62,1.67,1.67,0,0,0,.91-.27,1.81,1.81,0,0,0,.65-.7l1.22.59A3,3,0,0,1,21.65,21.35Z"/></g></g></svg>