<svg xmlns="http://www.w3.org/2000/svg" viewBox="0 0 38.83 47.98"><defs><style>.cls-1,.cls-4{fill:#fff;}.cls-1{stroke:#dadada;stroke-linecap:round;stroke-linejoin:round;}.cls-1,.cls-3{stroke-width:2px;}.cls-2,.cls-3{fill:#dadada;}.cls-3{stroke:#fff;}</style></defs><title>nodoc_2</title><g id="Capa_2" data-name="Capa 2"><g id="Capa_1-2" data-name="Capa 1"><path class="cls-1" d="M34.61,39.91H11.05a3.22,3.22,0,0,1-3.22-3.22V4.33a3.22,3.22,0,0,1,3.22-3.22h17l9.74,9.46V36.69A3.35,3.35,0,0,1,34.61,39.91Z"/><path class="cls-2" d="M38.79,12.09H30.72a2.78,2.78,0,0,1-1.83-.47,3,3,0,0,1-1.08-2.53V0Z"/><rect class="cls-3" x="1" y="10.17" width="26.03" height="14.68" rx="4.79"/><path class="cls-2" d="M23.58,47a1,1,0,0,1-.78-.4l-6.71-8.94a1,1,0,0,1,.8-1.6h1.9V28.11a1,1,0,0,1,1-1h7.83a1,1,0,0,1,1,1L28.67,36h2a1,1,0,0,1,.9.57,1,1,0,0,1-.12,1L24.38,46.6a1,1,0,0,1-.78.38Z"/><path class="cls-4" d="M27.62,28.11,27.68,37h3L23.6,46,16.89,37h2.9V28.11h7.83m0-2H19.79a2,2,0,0,0-2,2V35h-.9a2,2,0,0,0-1.6,3.2L22,47.18a2,2,0,0,0,1.57.8h0a2,2,0,0,0,1.56-.76l7.09-8.93a2,2,0,0,0,.23-2.12A2,2,0,0,0,30.68,35h-1l-.05-6.95a2,2,0,0,0-2-2Z"/><path class="cls-4" d="M6.22,20.84H3.58V14.17H6.21a3.58,3.58,0,0,1,2.55.92,3.14,3.14,0,0,1,1,2.41,3.18,3.18,0,0,1-1,2.43A3.57,3.57,0,0,1,6.22,20.84Zm0-1.25A2,2,0,0,0,7.73,19,2.09,2.09,0,0,0,8.3,17.5,2.06,2.06,0,0,0,7.75,16a2,2,0,0,0-1.53-.59H5v4.17Z"/><path class="cls-4" d="M13.93,21a3.41,3.41,0,0,1-2.51-1,3.35,3.35,0,0,1-1-2.48,3.35,3.35,0,0,1,1-2.48,3.41,3.41,0,0,1,2.51-1,3.39,3.39,0,0,1,2.49,1,3.32,3.32,0,0,1,1,2.47,3.34,3.34,0,0,1-1,2.48A3.38,3.38,0,0,1,13.93,21Zm-1.47-1.88a2,2,0,0,0,2.93,0,2.48,2.48,0,0,0,0-3.14,1.88,1.88,0,0,0-1.46-.62,1.91,1.91,0,0,0-1.48.62,2.26,2.26,0,0,0-.55,1.57A2.22,2.22,0,0,0,12.46,19.08Z"/><path class="cls-4" d="M21.65,21a3.58,3.58,0,0,1-2.55-1,3.32,3.32,0,0,1-1-2.49,3.29,3.29,0,0,1,1-2.49,3.58,3.58,0,0,1,2.55-1,3,3,0,0,1,2.78,1.63l-1.22.6a1.79,1.79,0,0,0-.65-.69,1.6,1.6,0,0,0-.91-.28,2,2,0,0,0-1.51.62,2.38,2.38,0,0,0,0,3.14,2,2,0,0,0,1.51.62,1.67,1.67,0,0,0,.91-.27,1.89,1.89,0,0,0,.65-.7l1.22.59A3,3,0,0,1,21.65,21Z"/></g></g></svg>