<svg xmlns="http://www.w3.org/2000/svg" viewBox="0 0 38.83 47.98"><defs><style>.cls-1,.cls-4{fill:#fff;}.cls-1{stroke:#dadada;stroke-linecap:round;stroke-linejoin:round;}.cls-1,.cls-3{stroke-width:2px;}.cls-2,.cls-3{fill:#dadada;}.cls-3{stroke:#fff;}</style></defs><title>nojpg</title><g id="Capa_2" data-name="Capa 2"><g id="Capa_1-2" data-name="Capa 1"><path class="cls-1" d="M34.61,39.91H11.05a3.22,3.22,0,0,1-3.22-3.22V4.33a3.22,3.22,0,0,1,3.22-3.22h17l9.74,9.46V36.69A3.35,3.35,0,0,1,34.61,39.91Z"/><path class="cls-2" d="M38.79,12.09H30.72a2.78,2.78,0,0,1-1.83-.47,3,3,0,0,1-1.08-2.53V0Z"/><rect class="cls-3" x="1" y="10.17" width="26.03" height="14.68" rx="4.79"/><path class="cls-2" d="M23.58,47a1,1,0,0,1-.78-.4l-6.71-8.94a1,1,0,0,1,.8-1.6h1.9V28.11a1,1,0,0,1,1-1h7.83a1,1,0,0,1,1,1L28.67,36h2a1,1,0,0,1,.9.57,1,1,0,0,1-.12,1L24.38,46.6a1,1,0,0,1-.78.38Z"/><path class="cls-4" d="M27.62,28.11,27.68,37h3L23.6,46,16.89,37h2.9V28.11h7.83m0-2H19.79a2,2,0,0,0-2,2V35h-.9a2,2,0,0,0-1.6,3.2L22,47.18a2,2,0,0,0,1.57.8h0a2,2,0,0,0,1.56-.76l7.09-8.93a2,2,0,0,0,.23-2.12A2,2,0,0,0,30.68,35h-1l-.05-6.95a2,2,0,0,0-2-2Z"/><path class="cls-4" d="M6.47,21a2.46,2.46,0,0,1-1.8-.66l.62-1.08a1.54,1.54,0,0,0,1.06.48,1,1,0,0,0,.76-.29,1.08,1.08,0,0,0,.28-.78V14.17H8.82v4.48a2.22,2.22,0,0,1-.64,1.73A2.45,2.45,0,0,1,6.47,21Z"/><path class="cls-4" d="M11.55,20.84H10.13V14.17h3.12a2.2,2.2,0,0,1,1.65.62,2.26,2.26,0,0,1,0,3.06,2.17,2.17,0,0,1-1.64.61h-1.7Zm1.5-3.63a1,1,0,0,0,.71-.24.82.82,0,0,0,.28-.65.81.81,0,0,0-.28-.65,1,1,0,0,0-.71-.25h-1.5v1.79Z"/><path class="cls-4" d="M19.62,21A3.6,3.6,0,0,1,17.09,20a3.28,3.28,0,0,1-1-2.5,3.26,3.26,0,0,1,1-2.5,3.6,3.6,0,0,1,2.53-.95,3,3,0,0,1,2.75,1.49l-1.17.64a1.88,1.88,0,0,0-.66-.62,1.72,1.72,0,0,0-.92-.25,2,2,0,0,0-1.5.62,2.35,2.35,0,0,0,0,3.14,2,2,0,0,0,1.5.62,2.18,2.18,0,0,0,.8-.15,1.76,1.76,0,0,0,.61-.36v-.8H19.27V17.15h3.18v2.56A3.64,3.64,0,0,1,19.62,21Z"/></g></g></svg>