<svg xmlns="http://www.w3.org/2000/svg" viewBox="0 0 38.83 47.98"><defs><style>.cls-1,.cls-4{fill:#fff;}.cls-1{stroke:#dadada;stroke-linecap:round;stroke-linejoin:round;}.cls-1,.cls-3{stroke-width:2px;}.cls-2,.cls-3{fill:#dadada;}.cls-3{stroke:#fff;}</style></defs><title>nosvg</title><g id="Capa_2" data-name="Capa 2"><g id="Capa_1-2" data-name="Capa 1"><path class="cls-1" d="M34.61,39.91H11.05a3.22,3.22,0,0,1-3.22-3.22V4.33a3.22,3.22,0,0,1,3.22-3.22h17l9.74,9.46V36.69A3.35,3.35,0,0,1,34.61,39.91Z"/><path class="cls-2" d="M38.79,12.09H30.72a2.78,2.78,0,0,1-1.83-.47,3,3,0,0,1-1.08-2.53V0Z"/><rect class="cls-3" x="1" y="10.17" width="26.03" height="14.68" rx="4.79"/><path class="cls-2" d="M23.58,47a1,1,0,0,1-.78-.4l-6.71-8.94a1,1,0,0,1-.09-1,1,1,0,0,1,.89-.55h1.9V28.11a1,1,0,0,1,1-1h7.83a1,1,0,0,1,1,1L28.67,36h2a1,1,0,0,1,.9.57,1,1,0,0,1-.12,1L24.38,46.6a1,1,0,0,1-.78.38Z"/><path class="cls-4" d="M27.62,28.11,27.68,37h3L23.6,46,16.89,37h2.9V28.11h7.83m0-2H19.79a2,2,0,0,0-2,2V35h-.9a2,2,0,0,0-1.6,3.2L22,47.18a2,2,0,0,0,1.57.8h0a2,2,0,0,0,1.56-.76l7.09-8.93a2,2,0,0,0,.23-2.12A2,2,0,0,0,30.68,35h-1l-.05-6.95a2,2,0,0,0-2-2Z"/><path class="cls-4" d="M6.89,21A3.82,3.82,0,0,1,4.05,19.9l.78-1.11A2.82,2.82,0,0,0,7,19.7a1.5,1.5,0,0,0,.86-.21.64.64,0,0,0,.3-.53.53.53,0,0,0-.29-.45,2.11,2.11,0,0,0-.71-.25c-.28-.05-.59-.13-.92-.22a7.8,7.8,0,0,1-.93-.34,1.78,1.78,0,0,1-.71-.6,1.71,1.71,0,0,1-.28-1A1.82,1.82,0,0,1,5,14.66a2.7,2.7,0,0,1,1.84-.59A3.68,3.68,0,0,1,9.4,15l-.79,1.06a2.74,2.74,0,0,0-1.94-.73,1.18,1.18,0,0,0-.69.18.56.56,0,0,0-.25.48.46.46,0,0,0,.28.4,2.19,2.19,0,0,0,.71.24c.29.06.59.14.92.24a8.88,8.88,0,0,1,.92.34,1.76,1.76,0,0,1,1,1.61,1.94,1.94,0,0,1-.69,1.55A2.94,2.94,0,0,1,6.89,21Z"/><path class="cls-4" d="M14.16,20.84H12.38L9.81,14.17h1.61l1.85,5.12,1.85-5.12h1.61Z"/><path class="cls-4" d="M20.39,21A3.62,3.62,0,0,1,17.85,20a3.27,3.27,0,0,1-1-2.5,3.26,3.26,0,0,1,1-2.5,3.62,3.62,0,0,1,2.54-.95,3.07,3.07,0,0,1,2.75,1.49L22,16.19a2,2,0,0,0-.67-.62,1.68,1.68,0,0,0-.91-.25,2,2,0,0,0-1.51.62,2.38,2.38,0,0,0,0,3.14,2,2,0,0,0,1.51.62,2.22,2.22,0,0,0,.8-.15,1.86,1.86,0,0,0,.61-.36v-.8H20V17.15h3.18v2.56A3.65,3.65,0,0,1,20.39,21Z"/></g></g></svg>