<svg xmlns="http://www.w3.org/2000/svg" viewBox="0 0 38.83 47.98"><defs><style>.cls-1,.cls-4{fill:#fff;}.cls-1{stroke:#dadada;stroke-linecap:round;stroke-linejoin:round;}.cls-1,.cls-3{stroke-width:2px;}.cls-2,.cls-3{fill:#dadada;}.cls-3{stroke:#fff;}</style></defs><title>noxls</title><g id="Capa_2" data-name="Capa 2"><g id="Capa_1-2" data-name="Capa 1"><path class="cls-1" d="M34.61,39.91H11.05a3.22,3.22,0,0,1-3.22-3.22V4.33a3.22,3.22,0,0,1,3.22-3.22h17l9.74,9.46V36.69A3.35,3.35,0,0,1,34.61,39.91Z"/><path class="cls-2" d="M38.79,12.09H30.72a2.78,2.78,0,0,1-1.83-.47,3,3,0,0,1-1.08-2.53V0Z"/><rect class="cls-3" x="1" y="10.17" width="26.03" height="14.68" rx="4.79"/><path class="cls-2" d="M23.58,47a1,1,0,0,1-.78-.4l-6.71-8.94a1,1,0,0,1,.8-1.6h1.9V28.11a1,1,0,0,1,1-1h7.83a1,1,0,0,1,1,1L28.67,36h2a1,1,0,0,1,.9.57,1,1,0,0,1-.12,1L24.38,46.6a1,1,0,0,1-.78.38Z"/><path class="cls-4" d="M27.62,28.11,27.68,37h3L23.6,46,16.89,37h2.9V28.11h7.83m0-2H19.79a2,2,0,0,0-2,2V35h-.9a2,2,0,0,0-1.6,3.2L22,47.18a2,2,0,0,0,1.57.8h0a2,2,0,0,0,1.56-.76l7.09-8.93a2,2,0,0,0,.23-2.12A2,2,0,0,0,30.68,35h-1l-.05-6.95a2,2,0,0,0-2-2Z"/><path class="cls-4" d="M11.56,20.84H9.86L8.19,18.4,6.51,20.84H4.82l2.42-3.42L5,14.17H6.66l1.53,2.28L9.7,14.17h1.71L9.14,17.41Z"/><path class="cls-4" d="M16.38,20.84H12.13V14.17h1.43v5.42h2.82Z"/><path class="cls-4" d="M19.72,21a3.84,3.84,0,0,1-2.84-1.06l.78-1.11a2.82,2.82,0,0,0,2.12.91,1.48,1.48,0,0,0,.86-.21.64.64,0,0,0,.3-.53.52.52,0,0,0-.28-.45,2.19,2.19,0,0,0-.71-.25c-.28-.05-.59-.13-.93-.22a7.05,7.05,0,0,1-.92-.34,1.7,1.7,0,0,1-1-1.6,1.82,1.82,0,0,1,.69-1.44,2.71,2.71,0,0,1,1.84-.59,3.68,3.68,0,0,1,2.6.93l-.79,1.06a2.72,2.72,0,0,0-1.94-.73,1.18,1.18,0,0,0-.69.18.58.58,0,0,0-.25.48.47.47,0,0,0,.29.4,2.45,2.45,0,0,0,.71.25,8.23,8.23,0,0,1,.92.23,7.05,7.05,0,0,1,.92.35,1.65,1.65,0,0,1,.71.61,1.67,1.67,0,0,1,.28,1,1.93,1.93,0,0,1-.68,1.55A3,3,0,0,1,19.72,21Z"/></g></g></svg>