<svg xmlns="http://www.w3.org/2000/svg" viewBox="0 0 38.83 47.98"><defs><style>.cls-1,.cls-4{fill:#fff;}.cls-1{stroke:#c30;stroke-linecap:round;stroke-linejoin:round;}.cls-1,.cls-3{stroke-width:2px;}.cls-2,.cls-3{fill:#c30;}.cls-3{stroke:#fff;}</style></defs><title>rar</title><g id="Capa_2" data-name="Capa 2"><g id="Capa_1-2" data-name="Capa 1"><path class="cls-1" d="M34.61,39.91H11.05a3.22,3.22,0,0,1-3.22-3.22V4.33a3.22,3.22,0,0,1,3.22-3.22h17l9.74,9.46V36.69A3.35,3.35,0,0,1,34.61,39.91Z"/><path class="cls-2" d="M38.79,12.09H30.72a2.78,2.78,0,0,1-1.83-.47,3,3,0,0,1-1.08-2.53V0Z"/><rect class="cls-3" x="1" y="10.17" width="26.03" height="14.68" rx="4.79"/><path class="cls-2" d="M23.58,47a1,1,0,0,1-.78-.4l-6.71-8.94a1,1,0,0,1,.8-1.6h1.9V28.11a1,1,0,0,1,1-1h7.83a1,1,0,0,1,1,1L28.67,36h2a1,1,0,0,1,.9.57,1,1,0,0,1-.12,1L24.38,46.6a1,1,0,0,1-.78.38Z"/><path class="cls-4" d="M27.62,28.11,27.68,37h3L23.6,46,16.89,37h2.9V28.11h7.83m0-2H19.79a2,2,0,0,0-2,2V35h-.9a2,2,0,0,0-1.6,3.2L22,47.18a2,2,0,0,0,1.57.8h0a2,2,0,0,0,1.56-.76l7.09-8.93a2,2,0,0,0,.23-2.12A2,2,0,0,0,30.68,35h-1l-.05-6.95a2,2,0,0,0-2-2Z"/><path class="cls-4" d="M10,20.84H8.35L7,18.47H6v2.37H4.58V14.17H7.7a2.22,2.22,0,0,1,1.64.6A2.07,2.07,0,0,1,10,16.32a2,2,0,0,1-.43,1.33,1.9,1.9,0,0,1-1,.65ZM7.5,17.22A1,1,0,0,0,8.21,17a.81.81,0,0,0,.28-.66.79.79,0,0,0-.28-.64,1,1,0,0,0-.71-.25H6v1.8Z"/><path class="cls-4" d="M17.23,20.84H15.62l-.42-1.13H12.34l-.42,1.13H10.31l2.57-6.67h1.78Zm-2.42-2.38-1-2.87-1,2.87Z"/><path class="cls-4" d="M23.26,20.84H21.62l-1.31-2.37h-1v2.37H17.85V14.17H21a2.22,2.22,0,0,1,1.64.6,2.07,2.07,0,0,1,.61,1.55,2,2,0,0,1-.43,1.33,1.9,1.9,0,0,1-1,.65Zm-2.49-3.62a1,1,0,0,0,.71-.25.81.81,0,0,0,.28-.66.79.79,0,0,0-.28-.64,1,1,0,0,0-.71-.25h-1.5v1.8Z"/></g></g></svg>